<svg xmlns="http://www.w3.org/2000/svg" width="16" height="16"><path d="m 0,2 v 12 a 1,1 45 0 0 1,1 l 1,0 A 1,1 135 0 0 3,14 V 4 C 3.5522892,4 4.4866861,3.9541084 4.9649296,4.218353 5.7826909,4.6701917 5.9543768,5.7690161 5.9904216,7.0001534 6.0065825,7.5521422 6,8.4477153 6,9 v 5 a 1,1 45 0 0 1,1 l 1,0 a 1,1 135 0 0 1,-1 v -1 h 2 v 1 a 1,1 45 0 0 1,1 l 1,0 a 1,1 135 0 0 1,-1 v -1 h 1 a 1,1 135 0 0 1,-1 V 11 A 1,1 45 0 0 15,10 H 14 V 8 A 1,1 45 0 0 13,7 h -1 a 1,1 135 0 0 -1,1 v 2 H 9 V 9 C 9,8.4477153 9.003899,7.5522174 8.9937149,7.000035 8.9459253,4.4088859 8.534763,1.5077176 4.997284,1.0594738 4.4498977,0.99011291 3.5522847,1 3,1 H 1 A 1,1 135 0 0 0,2 Z" fill="#bebebe"/></svg>
