<?xml version="1.0" encoding="UTF-8"?>
<svg height="16px" viewBox="0 0 16 16" width="16px" xmlns="http://www.w3.org/2000/svg">
    <path d="m 6.5 1 c -0.832031 0 -1.5 0.667969 -1.5 1.5 v 1.5 h -3 c -0.554688 0 -1 0.445312 -1 1 v 3 h 1.5 c 0.832031 0 1.5 0.667969 1.5 1.5 s -0.667969 1.5 -1.5 1.5 h -1.5 v 3 c 0 0.554688 0.445312 1 1 1 h 3 v -1.5 c 0 -0.832031 0.667969 -1.5 1.5 -1.5 s 1.5 0.667969 1.5 1.5 v 1.5 h 3 c 0.554688 0 1 -0.445312 1 -1 v -3 h 1.5 c 0.832031 0 1.5 -0.667969 1.5 -1.5 s -0.667969 -1.5 -1.5 -1.5 h -1.5 v -3 c 0 -0.554688 -0.445312 -1 -1 -1 h -3 v -1.5 c 0 -0.832031 -0.667969 -1.5 -1.5 -1.5 z m 0 0" fill="#222222"/>
</svg>
