<svg xmlns="http://www.w3.org/2000/svg" width="48" height="48"><path fill="#d38c2d" d="M0 5v41a2 2 0 0 0 2 2h5a2 2 0 0 0 2-2V15h1c1.105 0 2.93-.014 3.946.403 1.6.658 2.993 2.05 3.651 3.65C18.014 20.07 18 21.896 18 23v23a2 2 0 0 0 2 2h5a2 2 0 0 0 2-2v-4h6v4a2 2 0 0 0 2 2h5a2 2 0 0 0 2-2v-4h4a2 2 0 0 0 2-2v-5l-2-2h-4v-7l-2-2h-5l-2 2v7h-6V23L10 3H2Z"/><path fill="#f9aa40" d="M0 5v38a2 2 45 0 0 2 2h5a2 2 135 0 0 2-2V12h1c1.105 0 2.93-.014 3.946.403 1.6.658 2.993 2.05 3.651 3.65C18.014 17.07 18 18.896 18 20v23a2 2 45 0 0 2 2h5a2 2 135 0 0 2-2v-4h6v4a2 2 45 0 0 2 2h5a2 2 135 0 0 2-2v-4h4a2 2 135 0 0 2-2v-2a2 2 45 0 0-2-2h-4v-7a2 2 45 0 0-2-2h-5a2 2 135 0 0-2 2v7h-6V20c0-1.105-.021-2.902-.242-3.982-.85-4.164-4.134-11.864-12.763-12.901C12.9 2.985 11.105 3 10 3H2a2 2 135 0 0-2 2Z"/><rect width="14" height="14" x="29.062" y="-24.819" rx="1" ry="1" fill="#3065a7" transform="rotate(45)"/><rect width="14" height="14" x="26.94" y="-26.94" rx="1" ry="1" fill="#6193d2" transform="rotate(45)"/></svg>
