<svg xmlns="http://www.w3.org/2000/svg" width="48" height="48"><path fill="#d38c2d" d="m 0,5 v 41 c 0,1.104569 0.8954305,2 2,2 h 5 c 1.1045695,0 2,-0.895431 2,-2 V 15 h 1 c 1.104569,0 2.930938,-0.01448 3.946082,0.402844 1.600161,0.65782 2.993226,2.050876 3.651057,3.651034 C 18.014477,20.069041 18,21.895431 18,23 v 23 c 0,1.104569 0.895431,2 2,2 h 5 c 1.104569,0 2,-0.895431 2,-2 v -4 h 6 v 4 c 0,1.104569 0.895431,2 2,2 h 5 c 1.104569,0 2,-0.895431 2,-2 v -4 h 4 c 1.104569,0 2,-0.895431 2,-2 v -5 l -2,-2 h -4 v -7 l -2,-2 h -5 l -2,2 v 7 H 27 V 23 C 10,3 27,23 10,3 H 2 Z"/><path fill="#f9aa40" d="m 0,5 v 38 a 2,2 45 0 0 2,2 H 7 A 2,2 135 0 0 9,43 V 12 h 1 c 1.104569,0 2.930938,-0.01448 3.946082,0.402844 1.600161,0.65782 2.993226,2.050876 3.651057,3.651034 C 18.014477,17.069041 18,18.895431 18,20 v 23 a 2,2 45 0 0 2,2 h 5 a 2,2 135 0 0 2,-2 l 0,-4 h 6 v 4 a 2,2 45 0 0 2,2 h 5 a 2,2 135 0 0 2,-2 v -4 h 4 a 2,2 135 0 0 2,-2 v -2 a 2,2 45 0 0 -2,-2 h -4 v -7 a 2,2 45 0 0 -2,-2 h -5 a 2,2 135 0 0 -2,2 v 7 H 27 V 20 C 27,18.895431 26.978806,17.09831 26.75801,16.017735 25.907154,11.853649 22.624241,4.1537611 13.995393,3.1166518 12.899374,2.9849203 11.104569,3 10,3 H 2 A 2,2 135 0 0 0,5 Z"/><rect width="14" height="14" x="29.061731" y="-24.81909" rx="1" ry="1" style="fill:#3065a7;fill-opacity:1;stroke-width:.777303" transform="rotate(45)"/><rect width="14" height="14" x="26.940411" y="-26.940411" rx="1" ry="1" style="fill:#6193d2;fill-opacity:1;stroke-width:.777303" transform="rotate(45)"/></svg>
