<svg xmlns="http://www.w3.org/2000/svg" width="64" height="64"><path fill="#D38C2D" d="M6 8v48c0 1.105.895 2 2 2h6c1.105 0 2-.895 2-2V18h2c1.105 0 2.91-.04 3.984.2 2.082.46 3.356 1.734 3.817 3.816C26.039 23.09 26 24.895 26 26v30c0 1.105.895 2 2 2h6c1.105 0 2-.895 2-2v-6h8v6c0 1.105.895 2 2 2h6c1.105 0 2-.895 2-2v-6h6c1.105 0 2-.895 2-2v-6l-2-2h-6v-8l-2-2h-6l-2 2v8h-8V26L20 6H8L6 8Zm0 0"/><path fill="#F9AA40" d="M6 8v46c0 1.105.895 2 2 2h6c1.105 0 2-.895 2-2V16h2c1.105 0 2.91-.04 3.984.2 2.082.46 3.356 1.734 3.817 3.816C26.039 21.09 26 22.895 26 24v30c0 1.105.895 2 2 2h6c1.105 0 2-.895 2-2v-6h8v6c0 1.105.895 2 2 2h6c1.105 0 2-.895 2-2v-6h6c1.105 0 2-.895 2-2v-4c0-1.105-.895-2-2-2h-6v-8c0-1.105-.895-2-2-2h-6c-1.105 0-2 .895-2 2v8h-8V24c0-1.105.012-2.898-.121-3.996-.809-6.61-5.54-12.754-11.887-13.836C22.902 5.984 21.105 6 20 6H8c-1.105 0-2 .895-2 2Zm0 0"/></svg>