<svg xmlns="http://www.w3.org/2000/svg" width="32" height="32"><path fill="#d38c2d" d="M3 4v24c0 .55.45 1 1 1h3c.55 0 1-.45 1-1V9h1c.55 0 1.453-.02 1.992.098 1.04.234 1.676.87 1.91 1.91.118.539.098 1.441.098 1.992v15c0 .55.45 1 1 1h3c.55 0 1-.45 1-1v-3h4v3c0 .55.45 1 1 1h3c.55 0 1-.45 1-1v-3h3c.55 0 1-.45 1-1v-3l-1-1h-3v-4l-1-1h-3l-1 1v4h-4v-7L10 3H4L3 4Zm0 0"/><path fill="#f9aa40" d="M3 4v23c0 .55.45 1 1 1h3c.55 0 1-.45 1-1V8h1c.55 0 1.453-.02 1.992.098 1.04.234 1.676.87 1.91 1.91.118.539.098 1.441.098 1.992v15c0 .55.45 1 1 1h3c.55 0 1-.45 1-1v-3h4v3c0 .55.45 1 1 1h3c.55 0 1-.45 1-1v-3h3c.55 0 1-.45 1-1v-2c0-.55-.45-1-1-1h-3v-4c0-.55-.45-1-1-1h-3c-.55 0-1 .45-1 1v4h-4v-8c0-.55.004-1.45-.063-1.996-.402-3.305-2.769-6.379-5.94-6.922C11.452 2.992 10.55 3 10 3H4c-.55 0-1 .45-1 1Zm0 0"/></svg>