<?xml version="1.0" encoding="UTF-8" standalone="no"?>
<svg
   xmlns:dc="http://purl.org/dc/elements/1.1/"
   xmlns:cc="http://creativecommons.org/ns#"
   xmlns:rdf="http://www.w3.org/1999/02/22-rdf-syntax-ns#"
   xmlns:svg="http://www.w3.org/2000/svg"
   xmlns="http://www.w3.org/2000/svg"
   xmlns:xlink="http://www.w3.org/1999/xlink"
   xmlns:sodipodi="http://sodipodi.sourceforge.net/DTD/sodipodi-0.dtd"
   xmlns:inkscape="http://www.inkscape.org/namespaces/inkscape"
   width="48"
   height="48"
   id="svg2"
   version="1.1"
   inkscape:version="0.91 r13725"
   sodipodi:docname="Dialog-information_off.svg">
  <metadata
     id="metadata203">
    <rdf:RDF>
      <cc:Work
         rdf:about="">
        <dc:format>image/svg+xml</dc:format>
        <dc:type
           rdf:resource="http://purl.org/dc/dcmitype/StillImage" />
      </cc:Work>
    </rdf:RDF>
  </metadata>
  <sodipodi:namedview
     pagecolor="#ffffff"
     bordercolor="#666666"
     borderopacity="1"
     objecttolerance="10"
     gridtolerance="10"
     guidetolerance="10"
     inkscape:pageopacity="0"
     inkscape:pageshadow="2"
     inkscape:window-width="1920"
     inkscape:window-height="1021"
     id="namedview201"
     showgrid="false"
     inkscape:zoom="13.906433"
     inkscape:cx="35.842873"
     inkscape:cy="25.485205"
     inkscape:window-x="0"
     inkscape:window-y="25"
     inkscape:window-maximized="1"
     inkscape:current-layer="svg2" />
  <defs
     id="defs4">
    <linearGradient
       inkscape:collect="always"
       id="linearGradient4291">
      <stop
         style="stop-color:#afdde9;stop-opacity:1;"
         offset="0"
         id="stop4293" />
      <stop
         style="stop-color:#afdde9;stop-opacity:0;"
         offset="1"
         id="stop4295" />
    </linearGradient>
    <linearGradient
       inkscape:collect="always"
       id="linearGradient4283">
      <stop
         style="stop-color:#87cdde;stop-opacity:1;"
         offset="0"
         id="stop4285" />
      <stop
         style="stop-color:#87cdde;stop-opacity:0;"
         offset="1"
         id="stop4287" />
    </linearGradient>
    <linearGradient
       id="lG3531">
      <stop
         style="stop-color:#ab8104"
         id="stop7" />
      <stop
         style="stop-color:#ab8104"
         offset=".73602742"
         id="stop9" />
      <stop
         style="stop-color:#616471"
         offset="1"
         id="stop11" />
    </linearGradient>
    <linearGradient
       id="lG3584">
      <stop
         style="stop-color:#ffd800;stop-opacity:0"
         id="stop14" />
      <stop
         style="stop-color:#ffd800;stop-opacity:0.32743362"
         offset=".5"
         id="stop16" />
      <stop
         style="stop-color:#ffd800;stop-opacity:0"
         offset="1"
         id="stop18" />
    </linearGradient>
    <linearGradient
       id="lG3300">
      <stop
         style="stop-color:#4c4428"
         id="stop21" />
      <stop
         style="stop-color:#e7b600;stop-opacity:0"
         offset="1"
         id="stop23" />
    </linearGradient>
    <linearGradient
       id="lG3311">
      <stop
         style="stop-color:#d6d87b"
         id="stop26" />
      <stop
         style="stop-color:#fbe843"
         offset="1"
         id="stop28" />
    </linearGradient>
    <linearGradient
       id="lG3265">
      <stop
         style="stop-color:#dcd763"
         id="stop31" />
      <stop
         style="stop-color:#d9bb05"
         offset=".2647059"
         id="stop33" />
      <stop
         style="stop-color:#dcd763"
         offset=".63235295"
         id="stop35" />
      <stop
         style="stop-color:#c7a107"
         offset="1"
         id="stop37" />
    </linearGradient>
    <linearGradient
       id="lG3175">
      <stop
         style="stop-color:#fffff1"
         id="stop40" />
      <stop
         style="stop-color:#f1f3ff;stop-opacity:0"
         offset="1"
         id="stop42" />
    </linearGradient>
    <linearGradient
       id="lG2399">
      <stop
         style="stop-color:#929470"
         id="stop45" />
      <stop
         style="stop-color:#fcffc1"
         offset=".2647059"
         id="stop47" />
      <stop
         style="stop-color:#f3f5ba"
         offset=".63235295"
         id="stop49" />
      <stop
         style="stop-color:#929470"
         offset="1"
         id="stop51" />
    </linearGradient>
    <linearGradient
       id="lG6339">
      <stop
         style="stop-color:#fff"
         id="stop54" />
      <stop
         style="stop-color:#fff;stop-opacity:0"
         offset="1"
         id="stop56" />
    </linearGradient>
    <linearGradient
       id="lG20428">
      <stop
         style="stop-color:#ffb812"
         id="stop59" />
      <stop
         style="stop-color:#ffb812;stop-opacity:0"
         offset="1"
         id="stop61" />
    </linearGradient>
    <linearGradient
       id="lG20393">
      <stop
         style="stop-color:#ffe708"
         id="stop64" />
      <stop
         style="stop-color:#ffd604;stop-opacity:0.43921569"
         offset=".41176471"
         id="stop66" />
      <stop
         style="stop-color:#4c3e1c;stop-opacity:0.47843137"
         offset="1"
         id="stop68" />
    </linearGradient>
    <linearGradient
       id="lG20210">
      <stop
         style="stop-color:#000;stop-opacity:0.51546389"
         id="stop71" />
      <stop
         style="stop-color:#000;stop-opacity:0.14432989"
         offset=".55172414"
         id="stop73" />
      <stop
         style="stop-color:#000;stop-opacity:0"
         offset="1"
         id="stop75" />
    </linearGradient>
    <radialGradient
       cx="17.8335"
       cy="11.4873"
       r="22.709299"
       fx="17.8335"
       fy="11.4873"
       id="aigrd7"
       gradientUnits="userSpaceOnUse">
      <stop
         style="stop-color:#fff;stop-opacity:0.17525773"
         id="stop78" />
      <stop
         style="stop-color:#ffe300"
         offset=".882"
         id="stop80" />
      <stop
         style="stop-color:#ffb900"
         offset="1"
         id="stop82" />
    </radialGradient>
    <linearGradient
       x1="23.124001"
       y1="43.165001"
       x2="26.4785"
       y2="43.165001"
       id="aigrd1"
       gradientUnits="userSpaceOnUse">
      <stop
         style="stop-color:#686868"
         offset=".005618"
         id="stop85" />
      <stop
         style="stop-color:#777"
         offset=".03012137"
         id="stop87" />
      <stop
         style="stop-color:#929292"
         offset=".08366583"
         id="stop89" />
      <stop
         style="stop-color:#a7a7a7"
         offset=".1422"
         id="stop91" />
      <stop
         style="stop-color:#b6b6b6"
         offset=".2074"
         id="stop93" />
      <stop
         style="stop-color:#bebebe"
         offset=".2846"
         id="stop95" />
      <stop
         style="stop-color:#c1c1c1"
         offset=".4045"
         id="stop97" />
      <stop
         style="stop-color:#bcbcbc"
         offset=".4962"
         id="stop99" />
      <stop
         style="stop-color:#adadad"
         offset=".6057"
         id="stop101" />
      <stop
         style="stop-color:#959595"
         offset=".7245"
         id="stop103" />
      <stop
         style="stop-color:#747474"
         offset=".8497"
         id="stop105" />
      <stop
         style="stop-color:#494949"
         offset=".9789"
         id="stop107" />
      <stop
         style="stop-color:#414141"
         offset="1"
         id="stop109" />
    </linearGradient>
    <linearGradient
       x1="18.9951"
       y1="37.226601"
       x2="30.169901"
       y2="37.226601"
       id="lG19894"
       gradientUnits="userSpaceOnUse">
      <stop
         style="stop-color:#a3a349"
         offset=".005618"
         id="stop112" />
      <stop
         style="stop-color:#acac54"
         offset=".02078677"
         id="stop114" />
      <stop
         style="stop-color:#c1c172"
         offset=".066"
         id="stop116" />
      <stop
         style="stop-color:#d4d68e"
         offset=".1148"
         id="stop118" />
      <stop
         style="stop-color:#e2e4a6"
         offset=".1677"
         id="stop120" />
      <stop
         style="stop-color:#edf0b8"
         offset=".2265"
         id="stop122" />
      <stop
         style="stop-color:#f3f6c3"
         offset=".2963"
         id="stop124" />
      <stop
         style="stop-color:#f5f8c7"
         offset=".4045"
         id="stop126" />
      <stop
         style="stop-color:#eef0be"
         offset=".5239"
         id="stop128" />
      <stop
         style="stop-color:#dbdda9"
         offset=".6666"
         id="stop130" />
      <stop
         style="stop-color:#bebd88"
         offset=".8211"
         id="stop132" />
      <stop
         style="stop-color:#989564"
         offset=".9832"
         id="stop134" />
      <stop
         style="stop-color:#949160"
         offset="1"
         id="stop136" />
    </linearGradient>
    <radialGradient
       cx="14.772334"
       cy="74.20993"
       r="7.8289828"
       fx="14.772334"
       fy="74.20993"
       id="rG20216"
       xlink:href="#lG20210"
       gradientUnits="userSpaceOnUse"
       gradientTransform="scale(1.764278,0.566804)"
       href="#lG20210" />
    <linearGradient
       x1="-22.87417"
       y1="38.675991"
       x2="-4.3908315"
       y2="38.675991"
       id="lG4108"
       xlink:href="#lG19894"
       gradientUnits="userSpaceOnUse"
       gradientTransform="scale(1.02645,0.974232)"
       href="#lG19894" />
    <linearGradient
       x1="-10.480865"
       y1="39.033951"
       x2="-23.851389"
       y2="39.142845"
       id="lG4110"
       xlink:href="#lG2399"
       gradientUnits="userSpaceOnUse"
       gradientTransform="scale(1.02645,0.974232)"
       href="#lG2399" />
    <linearGradient
       x1="-22.87417"
       y1="38.675991"
       x2="-4.3908315"
       y2="38.675991"
       id="lG4112"
       xlink:href="#lG19894"
       gradientUnits="userSpaceOnUse"
       gradientTransform="scale(1.02645,0.974232)"
       href="#lG19894" />
    <linearGradient
       x1="-10.480865"
       y1="39.033951"
       x2="-23.851389"
       y2="39.142845"
       id="lG4114"
       xlink:href="#lG2399"
       gradientUnits="userSpaceOnUse"
       gradientTransform="scale(1.02645,0.974232)"
       href="#lG2399" />
    <linearGradient
       x1="23.124001"
       y1="43.165001"
       x2="26.4785"
       y2="43.165001"
       id="lG2755"
       xlink:href="#aigrd1"
       gradientUnits="userSpaceOnUse"
       gradientTransform="matrix(1.7634105,0,0,1.5366701,-19.732605,-23.884032)"
       href="#aigrd1" />
    <linearGradient
       x1="16.998856"
       y1="10.061084"
       x2="32.096882"
       y2="36.726292"
       id="lG2774"
       xlink:href="#lG6339"
       gradientUnits="userSpaceOnUse"
       gradientTransform="matrix(1.088532,0,0,0.9166207,0.7043474,-1.5743919)"
       href="#lG6339" />
    <linearGradient
       x1="37.940434"
       y1="16.651863"
       x2="-5.2517161"
       y2="3.8557322"
       id="lG2793"
       xlink:href="#lG3175"
       gradientUnits="userSpaceOnUse"
       gradientTransform="matrix(0.8533916,0,0,0.9752486,1.8913364,1.6641308)"
       href="#lG3175" />
    <radialGradient
       cx="68.137589"
       cy="29.869318"
       r="33.93409"
       fx="68.137589"
       fy="29.869318"
       id="rG2796"
       xlink:href="#aigrd7"
       gradientUnits="userSpaceOnUse"
       gradientTransform="matrix(0.5261727,0,0,0.7582733,-9.5647863,5.1185895)"
       href="#aigrd7" />
    <linearGradient
       x1="17.879995"
       y1="55.362793"
       x2="11.906206"
       y2="54.863026"
       id="lG2799"
       xlink:href="#lG3311"
       gradientUnits="userSpaceOnUse"
       gradientTransform="matrix(1.5303857,0,0,0.5438301,1.0306099,1.6641308)"
       href="#lG3311" />
    <linearGradient
       x1="-29.007195"
       y1="-29.799353"
       x2="-37.641232"
       y2="-29.598314"
       id="lG2801"
       xlink:href="#lG3265"
       gradientUnits="userSpaceOnUse"
       gradientTransform="matrix(-0.8644621,-4.3417199e-2,0.1808757,-0.9536764,1.0306099,1.6641308)"
       href="#lG3265" />
    <linearGradient
       x1="14.637301"
       y1="31.504122"
       x2="9.3648205"
       y2="32.25098"
       id="lG3574"
       xlink:href="#lG20428"
       gradientUnits="userSpaceOnUse"
       gradientTransform="matrix(1.8610153,0,0,0.4669515,1.2553727,5.473386)"
       href="#lG20428" />
    <linearGradient
       x1="30.620375"
       y1="10.313651"
       x2="32.16608"
       y2="18.162935"
       id="lG3577"
       xlink:href="#lG20393"
       gradientUnits="userSpaceOnUse"
       gradientTransform="matrix(0.5899687,0,0,1.4729675,0.9038103,4.8940498)"
       href="#lG20393" />
    <linearGradient
       x1="30.620375"
       y1="10.313651"
       x2="32.16608"
       y2="18.162935"
       id="lG3580"
       xlink:href="#lG20393"
       gradientUnits="userSpaceOnUse"
       gradientTransform="matrix(-0.5899687,0,0,1.4729675,47.100499,4.7781825)"
       href="#lG20393" />
    <radialGradient
       cx="27.75"
       cy="18.625"
       r="15.0625"
       fx="27.75"
       fy="18.625"
       id="rG3590"
       xlink:href="#lG3584"
       gradientUnits="userSpaceOnUse"
       href="#lG3584" />
    <linearGradient
       x1="-22.87417"
       y1="38.675991"
       x2="-4.3908315"
       y2="38.675991"
       id="lG3833"
       xlink:href="#lG19894"
       gradientUnits="userSpaceOnUse"
       gradientTransform="matrix(0.6119217,-0.1311762,6.1942932e-2,0.7364078,30.37142,9.2548427)"
       href="#lG19894" />
    <linearGradient
       x1="-10.480865"
       y1="39.033951"
       x2="-23.851389"
       y2="39.142845"
       id="lG3835"
       xlink:href="#lG2399"
       gradientUnits="userSpaceOnUse"
       gradientTransform="matrix(0.6119217,-0.1311762,6.1942932e-2,0.7364078,30.37142,9.2548427)"
       href="#lG2399" />
    <linearGradient
       x1="-22.87417"
       y1="38.675991"
       x2="-4.3908315"
       y2="38.675991"
       id="lG3840"
       xlink:href="#lG19894"
       gradientUnits="userSpaceOnUse"
       gradientTransform="matrix(0.5604295,2.969716e-2,-0.1172615,0.6523102,35.381303,20.961615)"
       href="#lG19894" />
    <linearGradient
       x1="-10.480865"
       y1="39.033951"
       x2="-23.851389"
       y2="39.142845"
       id="lG3842"
       xlink:href="#lG2399"
       gradientUnits="userSpaceOnUse"
       gradientTransform="matrix(0.5604295,2.969716e-2,-0.1172615,0.6523102,35.381303,20.961615)"
       href="#lG2399" />
    <linearGradient
       x1="24.613028"
       y1="31.146202"
       x2="24.613028"
       y2="26.739624"
       id="lG3845"
       xlink:href="#lG3300"
       gradientUnits="userSpaceOnUse"
       gradientTransform="matrix(0.9917,0,0,0.9909251,-0.408739,1.0079205)"
       href="#lG3300" />
    <linearGradient
       x1="23.413288"
       y1="1.9996886"
       x2="23.413288"
       y2="34.005379"
       id="lG3537"
       xlink:href="#lG3531"
       gradientUnits="userSpaceOnUse"
       href="#lG3531" />
    <linearGradient
       inkscape:collect="always"
       xlink:href="#linearGradient4283"
       id="linearGradient4289"
       x1="10.939831"
       y1="17.954183"
       x2="37.060169"
       y2="17.954183"
       gradientUnits="userSpaceOnUse" />
    <linearGradient
       inkscape:collect="always"
       xlink:href="#linearGradient4291"
       id="linearGradient4297"
       x1="10.00625"
       y1="18.001013"
       x2="37.99375"
       y2="18.001013"
       gradientUnits="userSpaceOnUse" />
  </defs>
  <path
     d="M24,2.5C16.5,2.5 10.5,8.4 10.5,15.7C10.5,23.2 16,24 16,26.7C16,30 19.2,33.6 24.4,33.5C30.1,33.4 32.4,30.2 32.4,26.7C32.4,23.8 37.5,23.7 37.5,15.7C37.5,8.4 31.5,2.5 24,2.5z"
     style="fill:#fff"
     id="path159" />
  <path
     d="M21,40.5L21,41.9C21,43.3 22.4,44.5 24,44.5C25.6,44.5 27,43.3 27,41.9L27,40.5L21,40.5z"
     style="fill:url(#lG2755);stroke:#565656;stroke-width:1"
     id="path165" />
  <path
     d="M23.8,28.5C20.6,28.5 16.9,29.5 18.9,31.3C18.4,31.5 17.7,31.9 17.7,33C17.8,33.5 18.4,33.9 19.2,34.1C18.3,34.8 17.7,35.4 17.7,36C17.8,36.6 18.4,37 19.1,37.2C18.3,37.8 17.7,38.5 17.7,39.1C17.8,40.1 19.8,41.1 24.2,41C27.3,40.9 30,40.3 30.2,39.1C30.3,38.7 29.9,38.2 29.3,37.8C29.8,37.4 30.1,36.9 30.1,36.5C30,35.9 29.5,35.6 28.7,35.3C29.6,34.7 30.1,34 30.1,33.4C30,32.8 29.5,32.5 28.7,32.3C29.6,31.6 30.1,30.9 30.1,30.3C30,29.7 26.9,28.5 23.8,28.5z"
     style="fill:#aeae57;stroke:url(#lG3845);stroke-width:2"
     id="path167" />
  <path
     d="M30.2,39.1C30,40.3 26.9,41 22,40.7C18.8,40.6 18.7,39.7 18.9,38.5C19.1,37.3 21.8,36.4 24.9,36.6C28,36.8 30.4,37.9 30.2,39.1z"
     style="fill:url(#lG3840);stroke:url(#lG3842);stroke-width:0.08828904"
     id="path169" />
  <path
     d="M -3.5,27.2A10.3,3.3 0 1 1-24.2,27.2A10.3,3.3 0 1 1-3.5,27.2z"
     transform="matrix(0.5961539,-0.1277961,6.3581292e-2,0.7558855,30.37142,15.405948)"
     style="fill:url(#lG4108);stroke:url(#lG4110);stroke-width:0.13035245"
     id="path171" />
  <path
     d="M -3.5,27.2A10.3,3.3 0 1 1-24.2,27.2A10.3,3.3 0 1 1-3.5,27.2z"
     transform="matrix(0.5961539,-0.1277961,6.3581292e-2,0.7558855,30.37142,12.330395)"
     style="fill:url(#lG4112);stroke:url(#lG4114);stroke-width:0.13035245"
     id="path173" />
  <path
     d="M30,30.5C30,31.8 27.4,33.4 24,34.1C20.6,34.8 17.8,34.3 17.7,32.9C17.5,31.6 19.9,30 23.3,29.8C26.7,29.6 30,29.7 30,30.5z"
     style="fill:url(#lG3833);stroke:url(#lG3835);stroke-width:0.08828908"
     id="path175" />
  <path
     d="M31,22.4A3.3,3.3 0 1 1 24.5,22.4A3.3,3.3 0 1 1 31,22.4z"
     transform="matrix(0.3317984,0,0,0.3333023,11.209684,28.058576)"
     style="fill:#fff"
     id="path177" />
  <path
     d="M18.7,34.2C22.1,34.7 25.6,34.1 28.5,32.3C29.3,31.8 29.4,31.2 29.8,30.7C28.4,31.8 24.8,34.8 18.7,34.2z"
     style="fill:#000;fill-opacity:0.23391807"
     id="path179" />
  <path
     d="M31,22.4A3.3,3.3 0 1 1 24.5,22.4A3.3,3.3 0 1 1 31,22.4z"
     transform="matrix(0.3317984,0,0,0.3333023,11.209684,31.046854)"
     style="fill:#fff"
     id="path181" />
  <path
     d="M18.8,40.3C22.2,40.8 25.7,40.2 28.6,38.4C29.4,37.9 29.5,37.3 29.9,36.8C28.5,37.9 24.9,40.9 18.8,40.3z"
     style="fill:#000;fill-opacity:0.23391807"
     id="path183" />
  <path
     d="M18.9,37.2C22.2,37.7 25.8,37.1 28.6,35.3C29.4,34.8 29.6,34.2 29.9,33.7C28.5,34.8 25,37.8 18.9,37.2z"
     style="fill:#000;fill-opacity:0.23391807"
     id="path185" />
  <path
     d="M18.5,31C18.5,30.2 20,29.2 23.8,29.3C27.3,29.3 29.6,30.2 29.6,31.4C29.6,32.7 26.5,33.5 23.2,33.3C20,33.2 18.5,32.2 18.5,31z"
     style="fill:url(#lG2799);stroke:url(#lG2801);stroke-width:0.08828903"
     id="path187" />
  <path
     d="M 24,2.5 C 17.972932,2.5 12.914545,6.3101464 11.160163,11.595116 10.731416,12.886689 10.5,14.266346 10.5,15.7 c 0,7.5 5.068545,7.796636 5.068545,10.496636 0,3.3 3.343818,7.331455 8.543818,7.231455 5.7,-0.1 8.719092,-3.443818 8.719092,-6.943818 C 32.831455,23.584273 37.5,23.7 37.5,15.7 37.5,8.4 31.5,2.5 24,2.5 Z"
     style="fill:url(#linearGradient4297);fill-opacity:1;stroke:#6f8a91;stroke-width:0.98750001;stroke-opacity:1"
     id="path189"
     inkscape:connector-curvature="0"
     sodipodi:nodetypes="sssscsss" />
  <path
     d="M24,3.5C17,3.5 11.4,9.1 11.4,15.8C11.4,22.8 16.5,23.6 16.5,26.1C16.5,29.2 19.5,32.6 24.4,32.4C29.7,32.3 31.8,29.3 31.8,26.1C31.8,23.4 36.6,23.3 36.6,15.8C36.6,9.1 31,3.5 24,3.5z"
     style="fill:url(#linearGradient4289);stroke:url(#lG2793);stroke-width:0.92033798;fill-opacity:1"
     id="path191" />
  <path
     d="M29.5,19.1C29.8,19.2 30,19.5 29.9,19.7L26.3,30.5C26.2,30.8 25.9,31 25.6,30.9C25.3,30.8 25.1,30.5 25.2,30.2L28.8,19.5C28.9,19.2 29.2,19 29.5,19.1z"
     style="fill:#6f8a91;stroke:none"
     id="path193" />
  <path
     d="M18.5,19.2C18.2,19.3 18,19.6 18.1,19.9L21.7,30.6C21.8,30.9 22.1,31.1 22.4,31C22.7,30.9 22.9,30.6 22.8,30.3L19.2,19.6C19.1,19.3 18.8,19.1 18.5,19.2z"
     style="fill:#6f8a91;stroke:none"
     id="path195" />
  <path
     d="M18.6,19.1C18.3,19.2 18.2,19.3 18.1,19.6C18.1,19.8 18.2,20 18.4,20.1C18.4,20.1 20.1,21.1 22.4,21.6C24.6,22.1 27.5,22.2 29.7,20.1C29.9,19.9 29.9,19.7 29.9,19.5C29.9,19.3 29.7,19.2 29.5,19.1C29.3,19.1 29.1,19.1 28.9,19.3C27.1,21.1 24.7,21.1 22.6,20.6C20.5,20.1 19,19.2 19,19.2C18.8,19.1 18.7,19.1 18.6,19.1z"
     style="fill:#6f8a91;stroke:none;stroke-width:0.2"
     id="path197" />
  <path
     d="M24.3,5.2C18.3,5.2 13.5,9.2 13.5,14.1C13.5,16 14.4,17.7 15.7,19.2C17.2,19.8 18.8,20.3 20.6,20.3C26.6,20.3 31.4,16.3 31.4,11.4C31.4,9.4 30.5,7.7 29.2,6.2C27.7,5.6 26.1,5.2 24.3,5.2z"
     style="opacity:0.5977654;fill:url(#lG2774)"
     id="path199" />
</svg>
