<svg xmlns="http://www.w3.org/2000/svg" width="20" height="14"><path fill="#d0103a" d="M0 0h20v14H0z"/><path d="M0 0h13.6v14H0zm0 0" fill="#fedf00"/><path d="M0 0h6.4v14H0zm0 0" fill="#0018a8"/><path d="M9.4 4l.6.2.3-.1a.5.5 0 01.3-.1l.2.1v.2a1 1 0 010 .2v.2l.2.1h.4l-.2-.2.2-.2h.8v.1a.2.2 0 01.1.1h.1l.1.2c0 .3-.2.3-.3.5l-.2.2H12.4v.1h.1a.5.5 0 01.3.1.6.6 0 01.3.5c0 .2 0 .4-.5.5l.2.2a.1.1 0 01-.2.1c-.2 0-.2.2-.2.3v.2a.4.4 0 00.2.1h.2v.1h.1V8l-.1.1h-.1l.1.1.1.3a.6.6 0 010 .4.6.6 0 01-.3.2 1.1 1.1 0 01-.5.2h-.8c-.2 0-.4.1-.5.3l.1.1-.1.2h-.1a.2.2 0 01-.2.1.3.3 0 01-.2 0h-.1l-.1.1h-.1a1 1 0 01-.1-.2l-.2.1a.2.2 0 01-.2 0c-.2-.1-.2-.2-.2-.3l.1-.2-.5-.1h-.5L8 9.1h-.3c-.3-.2-.5-.4-.5-.7 0-.3 0-.4.2-.5h-.1C7.2 8 7 8 7 7.8h.1v-.1l.2-.2v.1l.2-.1a.4.4 0 000-.4V7a.1.1 0 01-.1 0 .2.2 0 01-.2-.1l.1-.2h-.1L7 6.5v-.1a.6.6 0 010-.6.4.4 0 01.2-.2h.2a.4.4 0 01.2 0l.1-.1H8l-.1-.2c-.2-.2-.3-.3-.3-.5v-.2H7.9v-.1l.2-.1h.1a.1.1 0 01.1 0h.1a.1.1 0 01.1 0h.1c.2 0 .2.1.2.2l-.1.1.4.1.2-.1v-.2a.5.5 0 010-.2V4l.2-.1zm0 0" fill="#c7b37f"/><path d="M272.4 159a3.4 3.4 0 002.4 2.4c.8.3 2.7.3 3.8-1.4 1-1.2 1-2.8.6-4-.3-1-1-1.7-1.7-2.2zm0 0" transform="scale(.03125 .02917)" fill="none" stroke-width=".7" stroke-linejoin="round" stroke="#703d29"/><path d="M401 236.1c-1.3-3-4.3-1.6-4.4 0-.5 3.8 2.6 4.8 5 4.2 1-.3 2-1 2.5-2 .6-1 .8-2.5.4-3.7-.1-.6-.4-1.2-.8-1.6a4 4 0 00-1.3-1.2c-.9-.6-1.9-.6-3.4-.6-5.5 0-10.4 6.5-12 13.4-.6 2.2-1.3 7.3-.3 12 .8 4.3 3 8.2 6 11.3 2.7 2.6 6 4.6 9.8 5.9a8 8 0 004 0c3.3-.7 4.8-3.8 3-7-1.3-2.6-5.3-4-7.3-.6 0 .3-.3.9-.3 1.5 0 1 .4 2 1 2.4 1.5.8 3.9.6 3.7-2" transform="scale(.03125 .02917)" fill="none" stroke-width=".7" stroke-linecap="round" stroke="#703d29"/><path d="M383.8 274a12 12 0 016.6-3.7c3-.4 5.6.5 8.2 2 6.6 3 10.9 9.8 10.8 17 0 3.6-1 7.5-2 9.4-.8 1.7-3 9-15.3 14-7.1 3-18 3.6-25.7 4-10.4.3-20 .7-25.5 7.5" transform="scale(.03125 .02917)" fill="none" stroke-width=".8" stroke="#703d29"/><path d="M386.4 285.7c-.3-1 0-2 .9-3.2 1-1.7 3.6-2.2 6-1.1 1 .5 1.7 1.3 2.4 2.3l1 1.4c.8 1.2 1 2 1 2.6 2.6 7-1.3 14.4-6.4 17.7-4 2.2-8.7 3.3-14.4 3.8-2.5.4-4 .4-6.5.6h-9.6a63.2 63.2 0 00-7.2 0c-2.9.2-5 .4-7.6.8-1.6.2-3.4.5-5.4 1-.6 0-1.2.2-1.9.5l-1 .2c-3.7 1-7 2.4-10 4.2-.7.5-1.7 1-2.4 1.7l-1.3 1.2c-2 2-3.9 4-4.4 6.7v1.6c0 1.8 1.4 4.3 5.4 5m5.5-170c.8 1.4 1.3 2.3.8 4-.6 1.6-1.8 2.7-3.6 2.7-4 0-6.3-4.8-4.4-7.7 3-5.4 9.2-2.5 15 .2-.4-1.3-1-1.9-.8-3.5.1-4.2 3.3-6 4.5-10 .8-2.3 1-4.3-.8-6-1.4-1.2-3-1.2-5-.6-3.8 1.5-8.4 6-16.6 6-8.2 0-12.9-4.5-16.7-6-2-.6-3.6-.6-5.1.7-1.7 1.6-1.4 3.6-.7 6 1.3 3.8 4.4 5.7 4.5 10 0 1.5-.4 2-.7 3.4 5.7-2.7 12-5.9 15-.2 1.7 3.2-.5 7.6-4.5 7.6-1.8 0-3-1-3.6-2.7-.4-1.5 0-2.8.8-4" transform="scale(.03125 .02917)" fill="none" stroke-width=".7" stroke="#703d29"/><path d="M314.6 160c1.6 1 2.6 2.9 2.4 4.9-.3 2.5-.8 3-2.8 4.5m2.4-3.9c-.1 1.6-.7 2.6-2.4 3.3" transform="scale(.03125 .02917)" fill="none" stroke-width=".7" stroke-linecap="round" stroke="#703d29"/><path d="M8.6 4.5h.1v.2h-.2v-.1zm0 0" fill="#c7b37f"/><path d="M275.3 157.2c-.4-1.7-2.3-2-3-1-1.2 1.4-.4 4 2 4.6 1.3.5 2.8 0 3.8-1.3s.9-2.8.5-4c-.4-1-1-1.6-1.7-2.2-2.6-2-7.1-1.6-8.6 2-1.8 4.3 2.2 7.8 6 10.2 4.6 3.3 10 4 14 4 9.2-.2 16.2-4.6 20.7-7 1-.7 2.1-.6 2.8 0 .6.9.4 2.1-.4 2.8" transform="scale(.03125 .02917)" fill="none" stroke-width=".7" stroke-linecap="round" stroke="#703d29"/><path d="M248 281.3l-2 .6-2 1.6-1 1.4-1.1 1.8-.5 1.6-.4 1.8-.3 1.5m19-10.2v1.9l-.3 1.2-1 2.1-1.3 1.7-1.5 1.3-1.1.5-1.6.4" transform="scale(.03125 .02917)" fill="none" stroke-width=".7" stroke="#703d29"/><path d="M319.8 329c-.4 1.8-2 3.7-5.4 4.3l-.6.2" transform="scale(.03125 .02917)" fill="none" stroke-width=".8" stroke="#703d29"/><path d="M404.3 276.2c3.6 3.6 5.6 8.4 5.4 13.5 0 3.6-1 7.5-2 9.4-.7 1.7-3 9-15.2 14a87 87 0 01-25.6 4c-10.3.3-19.8.7-25.4 7.3" transform="scale(.03125 .02917)" fill="none" stroke-width=".9" stroke="#703d29"/><path d="M387.5 282.9c.8-1 3.5-2.5 5.8-1.1a7.3 7.3 0 012.3 2" transform="scale(.03125 .02917)" fill="none" stroke-width=".6" stroke="#703d29"/><path d="M401.6 273.8l1.4.5c1.3.4 2.8.4 4 0 2.8-.8 4.6-3.4 3.3-6.8a6 6 0 00-2-2.2" transform="scale(.03125 .02917)" fill="none" stroke-width=".9" stroke="#703d29"/><path d="M240.3 199.8c-2 1-3.3 1.4-4.8 3.1-1.1 2.1-2 4.4-2.6 6.8m46-51.7c0 1.8-1.1 2.8-3 3.3" transform="scale(.03125 .02917)" fill="none" stroke-width=".7" stroke-linecap="round" stroke="#703d29"/><path d="M397.1 192c5.1 0 10 2.2 13.5 6 3.5 3.7 5.3 8.7 5.1 13.7 0 16.1-10 18.7-13.8 19.7" transform="scale(.03125 .02917)" fill="none" stroke-width=".6" stroke="#703d29"/><path d="M398.4 192c8.1-.3 16.5 5.7 16.9 20.7.3 11.8-8 17-12 18" transform="scale(.03125 .02917)" fill="none" stroke-width=".7" stroke="#703d29"/><path d="M393.8 248.4v-1.6l.7-2.5.8-2 .8-1.6 1-1.2m7.8-3.5v1.5l-.5 1-.6 1.1-1 .5-1 .6h-1.2l-.9-.2m-14.2-52.7l.3-1.6.8-1.6 1-1.7 1.6-2.1 1.4-1.3 2-2.3 2-1.9 1.1-1.3 1.6-1.9 1.3-2 .8-1.8.5-2 .1-2.8-.3-.8M387.6 291l1.6-.4 1.1-.5.8-.8.5-.9.3-1.2v-.8m-158.2-12.1h2.7l1.6-.6m5-36.5l-.2 1.4-.4.6-.4.6-.7.4-.7.4h-1.6m9.8-15.4l-.2 2-.5 1.1-.8 1.2-1.2 1-1.3.5-2.2.5m15.3-39.7l-.6 1.3-.4 1-.8 1-1 1-1.3.5-1 .2h-.6m.3-6.3v1.1" transform="scale(.03125 .02917)" fill="none" stroke-width=".6" stroke="#703d29"/><path d="M254.3 224c-.6.6-1.3 1-2 1.4m150.4 44.7l.6.3c1.3.8 4-.3 3.3-2.4" transform="scale(.03125 .02917)" fill="none" stroke-width=".6" stroke-linecap="round" stroke="#703d29"/><path d="M397.8 239.6c1 1.3 3 1.7 4.4 1.3 1-.2 2-1 2.6-2 .4-1 .7-2.4.3-3.7-.2-.6-.5-1-.9-1.6a7.4 7.4 0 00-1.3-1.5l-.4-.1m6.4 33.8l.1-.6c0-1-.5-2.2-1.3-3l-.8-.8m.4.6c0-2-1.6-3.3-3.4-3.7m-4.1 2.9l-1.4-1c-2.8-3-4.3-6.7-4.3-10.7 0-4.1 1.6-8.4 3.6-10M341.4 324l1.7-1.6 1.3-1 2.2-1.4 2.3-1 1.4-.5 3-.6 3.7-.6m-29.5 19.4a17.9 17.9 0 01-7.6 6.2c-3-1.4-5.7-3.5-7.6-6.2" transform="scale(.03125 .02917)" fill="none" stroke-width=".6" stroke="#703d29"/><path d="M314.4 332.5a10.5 10.5 0 01-2.1 4.3" transform="scale(.03125 .02917)" fill="none" stroke-width=".6" stroke-linecap="round" stroke="#703d29"/><path d="M314.8 330.5l-.6 2.2M312 337l-1 1-1.8.8-2 .7m-5.4-177.8c.2-.9.4-1.4.4-2.6 0-4.1-3.2-6.2-4.4-10-.8-2.3-1-4.3.6-6 1.4-1.4 3.2-1.4 5-.6 4 1.5 8.6 5.8 16.7 6-8.1-.2-12.9-4.5-16.6-6-2-.8-3.8-1-5.3.5-1.7 1.6-1.2 3.8-.4 6 1.2 4 4 6 4.2 10.1 0 1.2-.3 1.7-.5 2.6M320 148c8-.4 14.9-5.8 17.1-6.3 2-.4 3-.1 4.5 1-1.4-1.1-3-1.1-5-.3-3.9 1.4-8.4 5.7-16.6 5.9m79.6 112.9a15.6 15.6 0 01-2.6-22.4m-70 97.6c-1.3 2-4.3 5-7.6 6.2-3-1.3-5.6-3.5-7.6-6.2" transform="scale(.03125 .02917)" fill="none" stroke-width=".6" stroke="#703d29"/><path d="M306.8 163.7l2.2-1.2c1-.7 2.3-.6 2.9 0 .6.8.7 2.1-.1 2.9" transform="scale(.03125 .02917)" fill="none" stroke-width=".6" stroke-linecap="round" stroke="#703d29"/><path d="M294.8 169.3c5.4-1.2 10-3.6 13.3-5.5M340.2 328c.6.3 1 1 1 1l.2.9c.4 1.4-.6 2.2-2 2.5-1.6.1-3-.8-3.5-2M294.4 169c5.5-1 10-3.6 13.4-5.5m97.6 106.9c-1 .4-1.6.3-3-.3l-1.8-.9c-3.6-2-6.6-5.2-8.4-9-.8-1.5-1.3-3-1.7-4.7-.4-1-.5-2.1-.5-3.2a24.7 24.7 0 014.8-15.2c1-1.7 2-2.6 4-2.7M255.3 195a6.7 6.7 0 012.7 5.7c0 3-2.6 8.3-9 10-2.2.5-4.4.3-6.3-.8" transform="scale(.03125 .02917)" fill="none" stroke-width=".6" stroke="#703d29"/><path d="M256.3 205.6c1 .8 1.6 1.7 1.6 3.3 0 1-.6 2.4-1.9 3.6a11.8 11.8 0 01-14.8 2.5 8.9 8.9 0 01-3.8-5.5M256.3 212.3c1.2 1.2 1.6 2.7 1.6 4.7 0 2.6-1.1 4.7-3.6 7l-2 1.4m129.4-22.1v3.5m-.3-4.4v5m.4-15.7v6.5m-.4-8v9m-1.9 82c-1 2-2.5 4-4.3 5.5-1.6 1.6-3.6 3.1-5.7 4a23 23 0 01-6.6 2.3 29 29 0 01-6.8.8h-6.4c-2.6-.4-4-.8-6.7-.9-2.3-.3-3.4-.4-5.6-.3a28 28 0 00-11 1.8c-2.6 1-5.6 3-6.3 3.9-1.9-1.8-4.1-3-6.4-4a24.1 24.1 0 00-5-1.3c-2.4-.4-3.6-.4-6-.4-2 0-3.3 0-5.4.3l-6.8.8c-2.5.1-3.9.3-6.4.1-4.6 0-9.2-1-13.4-3-2.4-1-4.6-2.7-6.4-4.7m42 53.4l2-.3m30.2-2.2l1.8-.2 1.7-.6 1.3-.8 1.6-2 .4-.7.2-1.8v-.8m47-136.6c.8-2.7-.3-5.5-2.8-5.3m-132 46.4c-.6 2-1.8 3.7-3.4 4.9m3.4-46.8a6.7 6.7 0 01-3.4 4c-2 .8-4 0-5.3-.8" transform="scale(.03125 .02917)" fill="none" stroke-width=".6" stroke="#703d29"/><path d="M243.8 202.4c1.4.8 3-.4 2.8-2.4-.2-1.2-1.2-2-2.5-2.2" transform="scale(.03125 .02917)" fill="none" stroke-width=".6" stroke-linecap="round" stroke="#703d29"/><path d="M250.3 286.6c.2.3.3.7.7.8.8.1 1.3.4 1.9-.5.8-1.1.3-2.8-.5-4a4.7 4.7 0 00-5.8-.8c-.8.4-1.7.9-2.6 2.1l-1.1 1.6c-.7 1-1 2-1.2 2.4-2 6 .6 12 4.2 15.7" transform="scale(.03125 .02917)" fill="none" stroke-width=".6" stroke="#703d29"/><path d="M340.3 327.9l.6.8.2.8c.3 1.4-.7 2.4-2 2.6-1.6.2-2.9-.8-3.4-2" transform="scale(.03125 .02917)" fill="none" stroke-width=".6" stroke-linecap="round" stroke="#703d29"/><path d="M389.4 154.8c3.5.6 6.1 3.5 6.4 7 0 4.4-1.6 6-4 9.2-2.4 3.4-10.6 9.5-10.6 16.6 0 4.5 1.2 7.1 4.3 8.5 2 1 4.3 0 5.4-1 2.6-2.4 1.5-6.5-1.1-7-3.3-.6-4 4.6-.8 4.4m17.9 69c-.3-1.8-1.9-3-3.6-3.2-2 0-3.7 1.8-3.7 3.8 0 1 .4 2 1 2.5" transform="scale(.03125 .02917)" fill="none" stroke-width=".6" stroke="#703d29"/><path d="M383.9 195.1a6.7 6.7 0 00-2.6 5.7c0 3 2.4 8.3 9 10 2.3.7 4.7.5 6-.3m-156-10.3a9 9 0 00-4.7 3.5 16.8 16.8 0 00.2 18.4c.2.4.6.8 1 1.2l1 .9m64 92c5 2.1 8.4 3.8 11.4 8.4a10 10 0 011.3 5c0 2.7-1 5.8-3.3 7.6a8.9 8.9 0 01-6.7 2c-1.9-.2-3.8-1.6-4-2.6M254 224c2.8 2.2 3.9 4.2 3.9 7.5.1 3-1.4 5.9-4 7.5" transform="scale(.03125 .02917)" fill="none" stroke-width=".6" stroke="#703d29"/><path d="M251.5 236.4c4 5 6.3 8.2 6.4 14 .1 5.8-1.6 9.7-5 13.8" transform="scale(.03125 .02917)" fill="none" stroke-width=".6" stroke-linecap="round" stroke="#703d29"/><path d="M329.8 169.3c.7-.6 1.2-1.4 1.4-2.2.6-1.6.6-2.8 0-4 1 1.4 1 2.4.6 4 0 1-.8 1.5-1.6 2.3m51.6 86.1v16.2l-.2 2.5-.4 1.7" transform="scale(.03125 .02917)" fill="none" stroke-width=".6" stroke="#703d29"/><path d="M381.4 254V274l-.5 2.7m.5-43.2V248m.4-13.4v12m0-27v8.9m-.4-10v11m.4-19v3.7m-.4-4.3v5m-1.8 65.1l-.4.8a17.8 17.8 0 01-4 5.7 19.5 19.5 0 01-6 4c-2 1-4.2 1.7-6.4 2.1-2.8.7-4.3.8-7 1-2.6 0-4 0-6.3-.2-2.8-.2-4.1-.5-6.8-.8-2.2-.2-3.4-.2-5.6-.2-2.2 0-3.5 0-5.7.2-1.8.3-3.5.8-5.1 1.5-2.8 1-5.8 3-6.6 3.8-.4-.8-3.6-2.7-6.2-3.8-1.6-.7-3.4-1.2-5.3-1.5-2-.2-3.4-.2-5.7-.2s-3.4 0-5.6.2c-2.6.3-4 .6-6.6.8-2.6.2-4 .3-6.4.2-4.6 0-9.3-1.1-13.5-3-2.1-1-4.1-2.4-5.8-4.1-.9-.8-1.7-1.8-2.5-2.8m-2-3.3c.3 2.9-.5 5.7-2.4 7.8-.7 1-2.4 2.6-5 2.6-3.6 0-4.7-2.5-5-3.3" transform="scale(.03125 .02917)" fill="none" stroke-width=".6" stroke="#703d29"/><path d="M255.6 278.8c.7.8 1.3 1.6 1.9 2.6 1 1.9.6 4.8-.1 6.1l-.3.4M236.7 306c2.4 2.4 5.8 5 11 7.1 7 3 18 3.6 25.7 4 10 .3 19.4.7 25 7m17.4-4a14.2 14.2 0 014 5.5m-7.4 11.5l-.6.7a8.1 8.1 0 01-6.7 2 6 6 0 01-4.4-2.6m-5.3-3l.4.5a7.2 7.2 0 005 2.4m27 0a18.6 18.6 0 01-7.7 6.2 17.9 17.9 0 01-7.6-6.2l-.3-.5m15.6.4l.7.6a7.8 7.8 0 006.8 2c1.6 0 3-1 4-2.4l.4-.6" transform="scale(.03125 .02917)" fill="none" stroke-width=".6" stroke="#703d29"/><path d="M339 336.6l-.8 1.2-1 1-1.7.7h-1.6" transform="scale(.03125 .02917)" fill="none" stroke-width=".6" stroke="#703d29"/><path d="M343 325.3c1 .8 1.9 1.8 2.4 3 .4.6.4 1.4.5 2.2.1 1.5-.4 3.1-1.5 4.2a7.5 7.5 0 01-5.4 2.4h-.4m.1-.1c-1.8 0-3.8-.8-5-2.3m63.6-68a26 26 0 01-4.8-6.3 19 19 0 01-1.8-4.5c-.2-1-.4-2.2-.4-3.3 0-5.5 1.4-10.9 4.6-15.3.7-.8 1.4-1.9 2.1-2.3m-1.3-75.8c2.6.2 4.8 3 4.8 5.7 0 3.9-1.3 5.5-4.4 9.3-2.6 3.3-10.6 9-10.4 14.5 0 1 .6 2 1.2 2.8m-3.1 3.5c.4.5 1.2 1 2 1.3 1.3.7 2.8.6 4.2-.2m-21-43.2c1 .7 1.8 1.7 2.3 2.7 1.7 4.4-2.3 8-6 10.3a21 21 0 01-8.4 3.4" transform="scale(.03125 .02917)" fill="none" stroke-width=".6" stroke="#703d29"/><path d="M364.6 161.7a4.5 4.5 0 01-3.1-1.7l-.8-.9m-15 5l-1-1.1c-1-1-1.6-2.3-1-4.4.7-1.9 3.8-7.3 4-10.9 0-5.6-2-9-5.4-10.2" transform="scale(.03125 .02917)" fill="none" stroke-width=".6" stroke="#703d29"/><path d="M347.3 146.5v2l-.7 2.2-1 3-1 2-.9 1.8-.3 1.3-.1 1v1m38 126.2l.6.8c.7 1 3.2 3 5.5 3 3.7 0 4.6-2.6 4.7-3.3.5-2.8-.5-3.4-2-4.4 0 0-.9-.4-1.9-.2" transform="scale(.03125 .02917)" fill="none" stroke-width=".6" stroke-linecap="round" stroke="#703d29"/><path d="M237 274.4a8.8 8.8 0 01-3.8 0c-2.8-1-5-3.6-4-7m13.6-31.8c.2.2.3.7.3 1 .4 3.8-2.8 4.7-5 4.2a5.4 5.4 0 01-3-2.3c-.5-.6-.7-1.4-.7-2.2m22-23.8c.6.6 1 1.1 1.4 1.8m-1.2-8.5c.5.5.9.9 1.1 1.3" transform="scale(.03125 .02917)" fill="none" stroke-width=".6" stroke="#703d29"/><path d="M257.9 210.5a9 9 0 01-1.6 2.4 12.6 12.6 0 01-8.8 4 9.9 9.9 0 01-10-7.4" transform="scale(.03125 .02917)" fill="none" stroke-width=".6" stroke-linecap="round" stroke="#703d29"/><path d="M255.4 195.3c1.1.9 2 2.1 2.3 3.4" transform="scale(.03125 .02917)" fill="none" stroke-width=".6" stroke="#703d29"/><path d="M257.8 203.2c-1 3-3.6 6.7-8.6 7.9a9 9 0 01-6.6-1" transform="scale(.03125 .02917)" fill="none" stroke-width=".6" stroke-linecap="round" stroke="#703d29"/><path d="M240 202.6c.3 2.6 2 4.6 5.4 4.6 4.7.1 7.6-6.7 3.3-11.5" transform="scale(.03125 .02917)" fill="none" stroke-width=".6" stroke="#703d29"/><path d="M229.4 225.5l2.3 2.4c1.8 1.5 4 2.6 6 3.3m5.3.5c4.3-.5 6.6-3.8 6-7.2-.3-2.8-2.8-5.1-4.6-5.3" transform="scale(.03125 .02917)" fill="none" stroke-width=".6" stroke-linecap="round" stroke="#703d29"/><path d="M249.8 188c2 0 3 1.6 3 3.1" transform="scale(.03125 .02917)" fill="none" stroke-width=".6" stroke="#703d29"/><path d="M249.4 163c1 2.5 2.7 4.5 5 5.9m144.2 31c1.6 2.3.6 7-4 7a5 5 0 01-4.5-2.5" transform="scale(.03125 .02917)" fill="none" stroke-width=".6" stroke-linecap="round" stroke="#703d29"/><path d="M381.8 169.2V185" transform="scale(.03125 .02917)" fill="none" stroke-width=".6" stroke="#703d29"/><path d="M243.8 202.4c1.4.9 3.3-.8 2.4-2.7-.4-1.2-2-2.6-4.6-1-2.8 2-2 8 3.2 8 4.7 0 7.6-6.7 3.4-11.6-4-4.7-11.3-3.6-16 .2-3.6 3-6.2 7-7.2 11.8a22.4 22.4 0 000 9c.5 2.7 1.5 5.3 3 7.6l1.3 1.7c.8.8 1 1.2 2 2a15 15 0 0010.4 3.8c4.6-.3 7.3-3.5 6.8-7.4-.4-3.8-4.3-5.8-6.8-3.9-1.6 1.2-2.2 5 .8 5.8 1.6.5 3.1-1.6 2-3M374 151c2.8-1.4 4.8-1.2 6.3 1s2 4.7 1.6 7.2a8.9 8.9 0 01-3.5 5.8" transform="scale(.03125 .02917)" fill="none" stroke-width=".6" stroke-linecap="round" stroke="#703d29"/><path d="M380.5 152c3.1-2 6.5-1 8.3 1.6 1.3 2 1.7 3.6 1.6 6-.1 4-2.4 7.4-5.6 9.3" transform="scale(.03125 .02917)" fill="none" stroke-width=".6" stroke-linecap="round" stroke="#703d29"/><path d="M395 159.2a5 5 0 014.6 5.1c0 3.8-1 5.5-4 9.3-2.7 3.3-10.6 9-10.4 14.6 0 2.1 1.8 4 3.3 4.3" transform="scale(.03125 .02917)" fill="none" stroke-width=".6" stroke="#703d29"/><path d="M395.4 202.4c-1.5.9-3.3-.7-2.5-2.4.5-1.2 2.2-2.9 4.7-1.2 2.6 2 2 7.9-3.4 7.9-4.6 0-8-6.6-3.3-11.6 4-4.7 11.7-3.7 16.5 0 2 1.6 6.1 6 7 12 1 7 .9 15.8-6.4 21.1-3 2.2-7 3-10.6 3-4.6-.2-7.3-3.5-6.8-7.4.5-3.8 4-5.4 6.6-3.9 3 1.5 2.4 5.4-.6 5.8-1.7.2-3.1-1.6-2-3" transform="scale(.03125 .02917)" fill="none" stroke-width=".6" stroke-linecap="round" stroke="#703d29"/><path d="M392.9 200c.9-3.7 3.7-4 6.2-4 6.5.2 11.1 8.1 11.1 15.6 0 9.5-4 15.1-11 15.5-1.8 0-5-.8-5-3" transform="scale(.03125 .02917)" fill="none" stroke-width=".6" stroke="#703d29"/><path d="M397 198.3c6.9 1.7 9.3 7.8 9.3 13.8 0 4.9-.6 11.6-10 13.8" transform="scale(.03125 .02917)" fill="none" stroke-width=".6" stroke-linecap="square" stroke="#703d29"/><path d="M408.4 265.3c.4-1.9-.8-3.7-2.5-4.3a4 4 0 00-4.8 1.8 4 4 0 001 5" transform="scale(.03125 .02917)" fill="none" stroke-width=".6" stroke="#703d29"/><path d="M394.4 259.4c1.4 2 3 4 6.4 6m-1.4 10.5c-3.1-2.1-9.5-5-15-2.1-2 .6-3.6 2.2-4.4 4.2a10 10 0 001.8 9.5c1 1.1 2.7 2.7 5 2.9 3.8 0 4.7-2.7 4.8-3.3.4-2.8-1.2-3.8-2-4.1-.7-.3-2.9-.1-3.2 1.3a3 3 0 00.2 2" transform="scale(.03125 .02917)" fill="none" stroke-width=".6" stroke-linecap="round" stroke="#703d29"/><path d="M340.5 328.4c1 2.1-.3 3.2-1.6 3.3-2.1.4-3.3-1.3-3.4-3-.1-1.1.4-2.3 1.1-3.1.9-1 2-1.5 3.1-1.5 2.4 0 4.2 1.5 5 3.5.4.7.6 1.5.6 2.4 0 1.5-.4 3-1.4 4.2a7.3 7.3 0 01-5.4 2.4c-4.3.1-7.5-3.8-7.5-7.8 0-7.6 11.4-12 16-13a81 81 0 0117.9-2.4c3.5-.1 6.2 0 10.1-.5 3.5-.3 5.4-.4 9-1.2 4.8-1.1 9-3.3 12.6-6.5 2.9-2.7 4.5-4.5 5.9-8.1a17 17 0 00-1.3-14 14.3 14.3 0 00-10.3-6.8c-3.6-.5-7 1-9 4.8-1 1.8-.6 4.8.1 6.2a6 6 0 004.8 3c3.8 0 4.7-2.6 4.8-3.2.4-2.8-1.2-3.8-2-4.2-.7-.2-2.9 0-3.2 1.4a3 3 0 00.2 2" transform="scale(.03125 .02917)" fill="none" stroke-width=".6" stroke-linecap="round" stroke="#703d29"/><path d="M337.3 316.2c-5 2.1-8.6 3.8-11.6 8.4-.7 1.6-1 3.3-1 5 0 2.7 1 5.8 3.2 7.6a8.7 8.7 0 006.7 2c2-.2 3.6-1.6 4-2.6" transform="scale(.03125 .02917)" fill="none" stroke-width=".6" stroke-linecap="round" stroke="#703d29"/><path d="M385.1 224c-2.4.9-3.9 4.3-3.9 7.6 0 3 1.4 5.9 4 7.5" transform="scale(.03125 .02917)" fill="none" stroke-width=".6" stroke="#703d29"/><path d="M387.6 236.4c-4 5-6.4 8.2-6.4 14a20 20 0 005 13.8" transform="scale(.03125 .02917)" fill="none" stroke-width=".6" stroke-linecap="round" stroke="#703d29"/><path d="M365.9 152l.4-.5c1.6-2.4 4.6-3.1 6.8-1.5 2.6 2 3.3 5.4 2.6 9a9 9 0 01-4 5.5" transform="scale(.03125 .02917)" fill="none" stroke-width=".6" stroke="#703d29"/><path d="M265.1 150.8c-2.6-1.2-4.7-1-6.4 1-1.4 2-2 4.6-1.4 7.2.4 2.7 1.3 3.9 3.4 5.9" transform="scale(.03125 .02917)" fill="none" stroke-width=".6" stroke-linecap="round" stroke="#703d29"/><path d="M258.6 152c-1.4-1-3-1.3-4.5-1a5.7 5.7 0 00-3.8 2.6 8.6 8.6 0 00-1.6 6 11 11 0 005.8 9.3" transform="scale(.03125 .02917)" fill="none" stroke-width=".6" stroke="#703d29"/><path d="M249.8 154.8c-3.4.4-6 3.2-6 6.6 0 4.5 1 6.3 3.4 9.6 2.6 3.4 10.7 9.5 10.7 16.6 0 4.5-1.1 7.1-4.3 8.5-2 1-4.3 0-5.3-1-2.7-2.4-1.6-6.5 1-7 3.4-.6 4 4.6.8 4.4" transform="scale(.03125 .02917)" fill="none" stroke-width=".6" stroke="#703d29"/><path d="M244 159.2c-2.5.2-5 2.3-5 5 0 3.7 1.5 5.6 4.6 9.4 2.7 3.3 10.2 9 9.9 14.4 0 2-1.5 4.7-2.9 4.5" transform="scale(.03125 .02917)" fill="none" stroke-width=".6" stroke="#703d29"/><path d="M238 236.1c1.3-3 4.4-1.6 4.6 0 .4 3.8-2.8 4.8-5.1 4.2-1.1-.3-2-1-2.5-2-.6-1.1-.8-2.5-.4-3.7.2-.6.5-1.2.9-1.6.4-.5.8-.9 1.3-1.2 1-.6 1.8-.6 3.3-.6 5.5 0 10.4 6.5 12 13.4.7 2.2 1.3 7.3.3 12a21.3 21.3 0 01-5.8 11.3 26.5 26.5 0 01-10 5.9 6.4 6.4 0 01-3.8 0c-3-.9-4.7-3.5-3.3-7 1.3-2.6 5.4-4 7.3-.6.2.3.4.9.4 1.5 0 1-.4 2-1 2.4-1.4.8-3.7.6-3.6-2" transform="scale(.03125 .02917)" fill="none" stroke-width=".6" stroke-linecap="round" stroke="#703d29"/><path d="M233.8 270.4c1 .4 1.6.3 3-.3l1.7-.9a20 20 0 008.4-9.1 20 20 0 002.3-7.8c0-5.5-1.6-10.8-4.8-15.2-1.2-1.7-2-2.6-4.2-2.7m-9.4 31c-.4-1.8.6-3.7 2.4-4.4 1.8-.6 3.8 0 4.7 1.8 1 1.6.6 3.7-.9 5" transform="scale(.03125 .02917)" fill="none" stroke-width=".6" stroke="#703d29"/><path d="M232.3 261.4c.2-1.7 1.8-3 3.6-3 2 0 3.6 1.7 3.6 3.7 0 1-.4 1.9-1 2.5" transform="scale(.03125 .02917)" fill="none" stroke-width=".6" stroke="#703d29"/><path d="M239.4 261.3c3.8-3 6.2-7.5 6.2-12.5 0-4-1.6-8.3-3.6-9.9" transform="scale(.03125 .02917)" fill="none" stroke-width=".6" stroke="#703d29"/><path d="M244.8 259.4a17.8 17.8 0 01-6.4 6" transform="scale(.03125 .02917)" fill="none" stroke-width=".6" stroke-linecap="round" stroke="#703d29"/><path d="M254.6 273.8c-1-2.3-2.8-3.3-5.8-3.7-3-.2-5.6.6-8.2 2-6.6 3.1-10.8 9.7-10.8 17 0 3.3.7 6.5 2 9.6 1 1.4 3 9 15.3 13.9 8.3 2.5 17 3.9 25.7 3.9 10.4.4 20 .8 25.6 7.6" transform="scale(.03125 .02917)" fill="none" stroke-width=".6" stroke="#703d29"/><path d="M239.8 275.9c3.2-2.2 9.4-5 15-2.2 2 .9 3.4 2.5 4.3 4.3 1 3.4.4 7-1.9 9.5-.8 1.1-2.6 2.7-5 2.9-3.7 0-4.6-2.7-4.7-3.3-.4-2.8 1.3-3.8 2-4.2.8-.2 2.8 0 3.3 1.4a3 3 0 01-.3 2" transform="scale(.03125 .02917)" fill="none" stroke-width=".6" stroke-linecap="round" stroke="#703d29"/><path d="M252.8 285.7c.2-1 0-2.2-1-3.2a4.9 4.9 0 00-6-1.1c-.6.5-1.6 1-2.3 2.3l-1.3 1.4a7 7 0 00-1 2.6c-2.4 7 1.6 14.4 6.6 17.7 4.4 2.6 8.8 3.4 14.4 3.8 2.6.4 4 .4 6.6.6h9.4a65.5 65.5 0 017.3 0c3 .2 5.1.4 7.6.8 1.6.2 3.5.5 5.4 1 .6 0 1.3.2 1.8.5l1.2.2c3.6 1 7 2.4 9.8 4.2.8.5 1.8 1 2.4 1.7l1.4 1.2c2 2 4 4 4.4 6.7v1.6c0 1.8-1.4 4.3-5.3 5" transform="scale(.03125 .02917)" fill="none" stroke-width=".6" stroke="#703d29"/><path d="M298.6 328.4c-1 2.1.1 3.2 1.6 3.3 2.2.4 3.3-1.3 3.6-3 0-1.1-.4-2.3-1.3-3.3-.8-.8-2-1.3-3.3-1.3a5.7 5.7 0 00-5 3.5l-.4 2.4c0 1.5.4 3 1.4 4.2a7.3 7.3 0 005.4 2.4c4.1.1 7.5-3.8 7.5-7.8 0-7.6-11.4-12-16-13a81 81 0 00-17.9-2.4c-3.4-.1-6.2 0-10-.5-3.6-.3-5.4-.4-9-1.2-4.7-1.1-9-3.3-12.6-6.5a17 17 0 01-4.7-22c2.2-3.7 6-6.2 10.3-6.9 3.8-.5 7 1 9 4.8 1 1.8.6 4.8 0 6.2-1 1.7-3 3-5 3-3.7 0-4.6-2.6-4.7-3.2-.4-2.8 1.3-3.8 2-4.2.8-.2 2.8 0 3.3 1.4a3 3 0 01-.3 2" transform="scale(.03125 .02917)" fill="none" stroke-width=".6" stroke="#703d29"/><path d="M273.3 152l-.4-.5c-1.6-2.4-4.6-3.1-6.9-1.5-2.6 2-3.3 5.4-2.5 9 .6 2.2 2 4.3 4 5.5" transform="scale(.03125 .02917)" fill="none" stroke-width=".6" stroke-linecap="round" stroke="#703d29"/><path d="M366.8 159.6c-4 4.5-8 5.8-14 6-2 0-5.6-.6-7.7-2-1.4-1.1-2.9-2.8-1.9-5.6.6-1.8 3.7-7.2 3.8-11 .3-5.4-1.9-8.7-5.3-9.9-6.2-2.1-13 4-17 5.5-2 .7-3.2.8-5 .8-2 0-3-.1-5.3-.8-4-1.4-10.6-7.6-17-5.5-3.4 1.2-5.5 4.5-5.3 10 .1 3.7 3.1 9 3.8 11 1 2.7-.5 4.4-1.9 5.4a15 15 0 01-7.5 2c-6-.1-10.1-1.4-14.1-5.9" transform="scale(.03125 .02917)" fill="none" stroke-width=".6" stroke="#703d29"/><path d="M297.3 314.5c.8.2.2-.3 5.3 1.8 4.6 1.8 8.6 4.9 11.3 9a9.8 9.8 0 01.9 7.2" transform="scale(.03125 .02917)" fill="none" stroke-width=".6" stroke-linecap="round" stroke="#703d29"/><path d="M297.8 336c1 .6 2 .8 3 1 4.3 0 7.6-4 7.6-8a9 9 0 00-3.6-6.9" transform="scale(.03125 .02917)" fill="none" stroke-width=".6" stroke="#703d29"/><path d="M298.6 328.4c-1 2.3.4 3.5 1.8 3.7 2.2.2 3.4-1.4 3.6-3 .1-1.6-.8-3.4-2.3-4.2" transform="scale(.03125 .02917)" fill="none" stroke-width=".6" stroke-linecap="round" stroke="#703d29"/><path d="M390.1 154.8c3.1 0 6 3.6 6 7.3 0 4.2-2.2 6.8-3.9 8.7a52 52 0 01-4.4 4.6" transform="scale(.03125 .02917)" fill="none" stroke-width=".6" stroke="#703d29"/><path d="M386.3 151.3c1 .7 2 1.5 2.8 2.4 1.3 2 1.6 3.8 1.6 6.3-.2 4.2-3.2 7.1-6 9m-4.7-17.7l.6.8c1.9 2.2 2 5.4 1.6 7.1a8.5 8.5 0 01-3.8 5.5m-5-14.4c2.6 2 3.4 5.5 2.5 9a8 8 0 01-4.1 5.2m11 41c.3 1.2 1 1.4 1.4 2 1.8 1.8 4 3 6.3 3.6 2.4.6 4.6.2 6.3-1m-163 54.1c1.2 0 2.4.8 3.3 2.3.2.2.4.8.4 1.5 0 1-.4 1.9-1 2.1-1.5 1.1-4 .6-4-1.8" transform="scale(.03125 .02917)" fill="none" stroke-width=".6" stroke-linecap="round" stroke="#703d29"/><path d="M241.5 231.3c5 1 9.8 7 11.3 13.3a31 31 0 01.2 12 22.1 22.1 0 01-8.1 13.3l-1 .6m-8-12c2 0 3.8 1.9 3.8 4 0 1-.3 1.9-1 2.5" transform="scale(.03125 .02917)" fill="none" stroke-width=".6" stroke="#703d29"/><path d="M234.6 260.8c2.2 0 4.2 1.8 4.2 4.1 0 1.2-.6 2.3-1.6 3" transform="scale(.03125 .02917)" fill="none" stroke-width=".6" stroke="#703d29"/><path d="M254 239.5c1.9 2.2 3.1 5 3.8 7.7m0 8.5a11 11 0 01-1.6 4 18 18 0 01-3.4 4.7" transform="scale(.03125 .02917)" fill="none" stroke-width=".6" stroke-linecap="round" stroke="#703d29"/><path d="M254.3 224.3a9 9 0 013.4 4.9" transform="scale(.03125 .02917)" fill="none" stroke-width=".6" stroke="#703d29"/><path d="M257.9 219.5a9.3 9.3 0 01-3.4 4.6m-9.3-17.2l2.3-.7 1.3-.9.8-1 .7-2 .3-1.4" transform="scale(.03125 .02917)" fill="none" stroke-width=".6" stroke-linecap="round" stroke="#703d29"/><path d="M241 199.3c-.8.3-1.6.4-2.5.8a9.7 9.7 0 00-3.5 3 17.6 17.6 0 00-2.3 12.7c.6 2 1.3 3.8 2.4 5.6l1 1.5c1.4 1.2 2.7 2 4.7 1.6" transform="scale(.03125 .02917)" fill="none" stroke-width=".6" stroke="#703d29"/><path d="M253 189.8c-.3 1.3-1 3-3 2.7" transform="scale(.03125 .02917)" fill="none" stroke-width=".6" stroke-linecap="round" stroke="#703d29"/><path d="M245.8 198.5c-2-1.9-6-2.4-10.2.2L234 200l-1.4 1.6a15.6 15.6 0 00-2.3 5 19 19 0 00-.7 6.3 17.6 17.6 0 002.7 8.9c.8 1.5 3 5 7.6 5.3 1.8.2 4.8-.6 5-2.9" transform="scale(.03125 .02917)" fill="none" stroke-width=".6" stroke="#703d29"/><path d="M363.8 157c.3-1.6 2.3-2 3-1 1.2 1.6.4 4.2-2 4.8a4 4 0 01-3.8-1.3c-1-1.3-.9-2.8-.5-4 .3-.8.9-1.5 1.8-2.2 2.6-2 7-1.6 8.4 2 2 4.3-2 7.8-6 10.2a23 23 0 01-14 3.8c-9 0-16-4.4-20.6-7-1-.5-2.1-.4-2.7.3-.6.8-.5 2 .4 2.7" transform="scale(.03125 .02917)" fill="none" stroke-width=".6" stroke-linecap="round" stroke="#703d29"/><path d="M365.6 155.5c1 0 1.1.4 1.5.8 1.1 1.5.3 4.1-2 5m17.8 51.4c-3.5 3.9-.1 10.3 2.4 11.8 1 .6 1.3.4 2 .6" transform="scale(.03125 .02917)" fill="none" stroke-width=".6" stroke-linecap="round" stroke="#703d29"/><path d="M383.1 205.4c-1.1.8-1.5 1.7-1.6 3.3a5.3 5.3 0 001.4 4c2.6 2.4 5.9 3.6 9.4 3.7 2 0 4-.4 6-1.7a8.9 8.9 0 003.7-5.4m-20.8 61.8l-.2 2.5a19.3 19.3 0 01-6.3 12.6c-1.6 1.7-3.6 3-5.8 4-2 1.1-4.3 1.9-6.5 2.3-4.4.8-8.8 1-13.1.5-2.8-.1-4.2-.4-7-.6-2-.2-3.3-.4-5.6-.4-3.6 0-7.3.5-10.8 1.8-2.6 1.1-5.6 3.1-6.4 4-.6-1-3.8-2.9-6.3-4-1.7-.6-3.4-1.2-5.2-1.4-2.3-.4-3.5-.4-5.8-.4s-3.4.2-5.6.4c-2.6.2-4 .6-6.7.6-2.5.3-3.9.4-6.3.3-2.4 0-4.7-.3-7-.8-2.2-.4-4.5-1.2-6.5-2.1a20.8 20.8 0 01-10-10 18.6 18.6 0 01-2-6.8c-.2-1-.2-2.5-.2-2.5V169.3H381V271zm0 0" transform="scale(.03125 .02917)" fill="none" stroke-width=".6" stroke="#703d29"/><path d="M248 285.5c0-1.3 1.1-2.4 2.5-2.4s2.5 1.1 2.5 2.4c0 1.5-1.1 2.6-2.5 2.6s-2.5-1-2.5-2.6zM232.5 268c0-1.3.8-2.3 1.8-2.3s1.7 1 1.7 2.3c0 1.2-.8 2.1-1.8 2.1s-1.7-.9-1.7-2.1zm0 0" transform="scale(.03125 .02917)" fill="#c7b37f" stroke-width=".3" stroke="#c7b37f"/><path d="M7.5 6.5h.1zm1-1.9h0zm0 0" fill="#c7b37f"/><path d="M239.3 234c-.4.1-.6.2-.8.5l-.6 1-.2 1.2m4.7 26.6l1-1 .6-1 .5-1 .8-1.3m-1.4 14l-1.5.8-1.2.5-1.2.8-1.3 1m15-37.8l-.7-.8-1-.8-.9-.9" transform="scale(.03125 .02917)" fill="none" stroke-width=".6" stroke-linecap="round" stroke="#c7b37f"/><path d="M254.3 225l-1.3.5-1.5.3" transform="scale(.03125 .02917)" fill="none" stroke-width=".6" stroke="#c7b37f"/><path d="M237.4 208.4c.2.7.2 1 .5 1.5l.8 1.7c.8 1 1.7 2 2.7 2.7l1.5.8m-1-5.8l1.3.6c1 .4 2 .6 3 .6l1.8-.1m7.3-40.7l-2-1.2c-1-.6-1.4-1-2-1.5-.6-.4-1-.8-1.2-1.3l-.8-1.2m7.4-4.7l.7 1.7 1.4 2c1 1 1.7 1.4 2.8 2.2m1.4-6c.3.7.3 1 .8 1.6 0 .5.3.8.7 1.2l1.3 1.3c.7.7 1.2.7 2 1" transform="scale(.03125 .02917)" fill="none" stroke-width=".6" stroke-linecap="round" stroke="#c7b37f"/><path d="M333.3 151.6c0-1.7-1.7-1.7-2.4-1.7-1.8 0-2.3 1-4.6 2.2-2 1.4-4.3 2-6.7 2s-4.7-.6-6.7-2c-2.3-1.2-2.6-2.2-4.6-2.2-.6 0-1.2.2-1.6.6-.4.4-.6 1.1-.6 1.6v1l.3.2c0-.8.1-1.2.5-1.7a2 2 0 011.6-.8c1.8 0 2.5 1.2 4.8 2.4a12.1 12.1 0 0013.5 0c2.3-1.2 3-2.5 4.8-2.5.6 0 1 .4 1.3 1v.8l.2.2.1-1zm0 0" transform="scale(.03125 .02917)" fill="#703d29" stroke-width=".2" stroke="#703d29"/><path d="M8.3 8.6H8v.1-.1-.1.2zm0 0M8.4 8.6h-.1v.2zm0 0h.1v.1zm0 .2h.1v-.2l-.1.2zm.2 0c0 .1 0 0 0 0V9h.1v-.2h.1-.2zm.4 0v.1-.1h-.1v-.1.2zM9 9h.2v-.2H9V9zm.6-.2h-.1V9v-.1-.1h-.1V9l.2-.2zm0 0M9.6 9v-.1l.2.1v-.2.2l-.2-.2zm.3-.2V9zm.2.2v-.2h.1-.2V9zm.2 0v-.1zm0 0h.1l-.1-.2V9h-.1.1zm.3-.2V9zm.1 0l.1.2c.2 0 .2-.1.1-.2h-.2zm0 0h.2V9l-.2-.1zm.3 0c0-.1 0 0 0 0 .1 0 .1 0 0 0zm0 .1h.2v-.1l-.2-.1zm.3 0v-.2H11h.1zm.2-.3h-.1v.2h.1zm0 .1s.1.1.2 0l-.1-.2s-.1.1 0 .2zm0 0v-.1h.2v.2l-.1-.1zm.3-.2zm0 .2h.1v-.1h.1-.1v-.1h-.1v.2zm0 0" fill="#703d29"/><path d="M8.3 5.1h1.6v1.6H8.3zm0 0" fill="#d52b1e"/><path d="M9 6.3v.2a.2.2 0 01-.1 0 .2.2 0 01-.1.1l-.2-.2c0-.1-.1-.2-.2-.1l.1.1h-.2a.1.1 0 01.1-.2h.2c0 .2 0 .3.2.3l.1-.1v-.1zm.1 0v.2h.2v.1c.2 0 .2-.1.3-.2 0-.1 0-.2.1-.1a.1.1 0 010 .1h.1a.1.1 0 000-.2h-.3l-.1.3-.2-.1v-.1zm0 0" fill="#fff"/><path d="M9.2 5.7l.2-.2v-.2h.1c0-.1.2-.2.3 0v.2a.1.1 0 01-.2 0v-.1h.2l-.1-.1a.1.1 0 00-.1 0v.1a.2.2 0 01-.1.1l-.2.2-.9.9zm0 0" fill="#fedf00"/><path d="M8.6 5.8l.2.6h.5l.3-.7-.5-.5zm0 0" fill="#fff"/><path d="M9.1 5.4l.4.4-.2.5a1 1 0 00-.2 0zm0 0l-.4.4.2.5H9zm1-.3h1.6v1.5h-1.6zm0 0" fill="#fedf00"/><path d="M10.3 5.1h.2v1.5h-.2zm.5 0h.2v1.5h-.2zm.4 0h.3v1.5h-.3zm0 0" fill="#d52b1e"/><path d="M8.3 8a.3.3 0 000 .1v.1l.2.1H9a1.3 1.3 0 00.2 0h.5l.2.1V6.8H8.3V8zm0 0" fill="#fedf00"/><path d="M270.4 283.1l2.5 1.5 3.4 1.2v-52.2h-6zm29.2 2.4v-52h-5.9v52.8l6-.6zm11.6-52h-5.7v52.2c1.9.2 3.8.6 5.8 1zm-23.3 0V287s-3.8.1-5.8 0v-53.4zm0 0" transform="scale(.03125 .02917)" fill="#d52b1e" stroke-width=".3" stroke="#d52b1e"/><path d="M11.7 8a.4.4 0 010 .1l-.1.1a.6.6 0 01-.3.1h-.5a1.8 1.8 0 00-.2 0h-.2a2 2 0 00-.3.1V6.8h1.6V8zm0 0" fill="#fedf00"/><path d="M10.5 7h-.1v.1h.1v.1c0 .1 0 0 0 0l.1.1v.1h.1v.1h.1a.2.2 0 010-.1.6.6 0 00.2 0 .3.3 0 00.1 0h.1l-.1.1a.2.2 0 01.2 0v-.1.1-.1c.1 0 0 0 0-.1a.1.1 0 010-.1h.1V7l-.1-.1a.3.3 0 00-.1 0H11h-.1H10.6a.1.1 0 00-.1 0zm0 .2zm0 0" fill="#d52b1e"/><path d="M568.8 359.4l-.8.4c-.8.5-1.6.5-2.6.5-2.5.2-4.3-1-7-.9-1.4 0-2 1.3-3.5 1.7-.6 0-1.2 0-1.8.2l.6-1-2 .2c-.5 0-1.1 0-1.5-.2l1-1-1.4-.3c-.4 0-.8-.4-1-.6l1.8-.2c1.4-.5 2-1.3 3.9-1.5 1 0 3 0 7.4.8 3.1.5 4.5.2 5.7-.4.8-.2 1-.8 1-1.7.2-.8-.4-1.4-.8-1.8l-1-.5" transform="matrix(.02 0 0 .01867 0 .5)" fill="none" stroke-linecap="round" stroke="#fedf00"/><path d="M524.8 350.6c-.6 0-1 0-1.4.2-.4.5-.5.9-1 1.3l1.2.2c.4 0 .6-.2.8-.4.4-.4.4-.9.4-1.3zm0 0" transform="matrix(.02 0 0 .01867 0 .5)" fill="#fcd900" stroke-width=".5" stroke="#fedf00"/><path d="M536 363.8c.3.8.5 1.5 1 2.3l.1 1.9v1.7m6.8-7l-.1 1.3-1 3.6v.6m-11.2-4c1 .2.6 3.4 2 4" transform="matrix(.02 0 0 .01867 0 .5)" fill="none" stroke-linecap="round" stroke="#fedf00"/><path d="M560.2 369.9l.3-.4c1-.5 2-1 2.8-1.7" transform="matrix(.02 0 0 .01867 0 .5)" fill="none" stroke="#fedf00"/><path d="M552.3 368c3.6-.8 5.9-2.5 7.7-3m-4-1.4h.8c1.4-.2 1.8.6 2.8 1.3 1.7 1 2 2.3 4.3 3.3h.4l.7.4" transform="matrix(.02 0 0 .01867 0 .5)" fill="none" stroke-linecap="round" stroke="#fedf00"/><path d="M517.8 354.6h.6l.7-.2c.4 0 .6 0 .8.2.2 0 .2 0 .2.2l.2.4c0 .2-.4.4-.6.4-.2 0-.4 0-.6-.2v-.4c-.2.2-.5.2-.7 0-.4 0-.6-.2-.6-.4zm0 0" transform="matrix(.02 0 0 .01867 0 .5)" fill="#fcd900" stroke-width=".5" stroke="#fedf00"/><path d="M10.5 7.3v-.1zm0 0zm0-.3v-.1zm0 .2a.2.2 0 00.1 0V7a.2.2 0 010 .1zm.1.3zm.7 0zm-.2 0zm-.4 0h.1zm-.1-.5v-.1zm0 0" fill="#0065bd"/><path d="M10.5 7.6v.1h-.1v.1h.1V8h.1v.1h.1v.1h.1V8a.6.6 0 00.2 0 .3.3 0 00.1 0h0v.1a.2.2 0 01.2-.1v.1V8c.1 0 0 0 0-.1a.1.1 0 010-.1l.1-.1v-.1h-.1a.3.3 0 00-.1 0H11h-.1H10.6a.1.1 0 00-.1 0zm0 .2zm0 0" fill="#d52b1e"/><path d="M568.8 359.4l-.8.5c-.8.4-1.6.4-2.6.4-2.5.2-4.3-1-7-.9-1.4 0-2 1.3-3.5 1.5-.6.2-1.2.2-1.8.2l.6-.8-2 .2c-.5 0-1.1 0-1.5-.2l1-1-1.4-.3c-.4 0-.8-.4-1-.6l1.8-.2c1.4-.4 2-1.3 3.9-1.5 1 0 3 0 7.4.9 3.1.4 4.5.2 5.7-.5.8-.2 1-.8 1-1.6.2-.9-.4-1.5-.8-2l-1-.3" transform="matrix(.02 0 0 .01867 0 1.1)" fill="none" stroke-linecap="round" stroke="#fedf00"/><path d="M524.8 350.6c-.6 0-1 0-1.4.3-.4.4-.5.8-1 1 .6.2.8.4 1.2.4.4 0 .6-.2.8-.4.4-.4.4-.8.4-1.3zm0 0" transform="matrix(.02 0 0 .01867 0 1.1)" fill="#fcd900" stroke-width=".5" stroke="#fedf00"/><path d="M536 363.8c.3.9.5 1.5 1 2.3l.1 2v1.6m6.8-7l-.1 1.3-1 3.6v.6m-11.2-4c1 .3.6 3.4 2 4" transform="matrix(.02 0 0 .01867 0 1.1)" fill="none" stroke-linecap="round" stroke="#fedf00"/><path d="M560.2 369.9l.3-.4c1-.4 2-1 2.8-1.9" transform="matrix(.02 0 0 .01867 0 1.1)" fill="none" stroke="#fedf00"/><path d="M552.3 368c3.6-.8 5.9-2.7 7.7-3m-4-1.4h.8c1.4-.4 1.8.7 2.8 1.3 1.7.8 2 2.3 4.3 3.3h.4l.7.4" transform="matrix(.02 0 0 .01867 0 1.1)" fill="none" stroke-linecap="round" stroke="#fedf00"/><path d="M517.8 354.4h.6l.7-.2c.4 0 .6 0 .8.2.2 0 .2.2.2.4s.2.2.2.5-.4.4-.6.4c-.2 0-.4 0-.6-.2v-.5h-.7c-.4-.2-.6-.2-.6-.6zm0 0" transform="matrix(.02 0 0 .01867 0 1.1)" fill="#fcd900" stroke-width=".5" stroke="#fedf00"/><path d="M10.5 8v-.1zm0 0zm0-.3v-.1zm0 .2a.2.2 0 00.1-.1zm.1.3zm.7 0zm-.2 0zm-.4 0h.1zm-.1-.5v-.1zm0 0" fill="#0065bd"/><path d="M264.1 175.4h52.6V228h-52.6zm58.1 0H375V228h-52.6zm-58 98c.2 1.2.6 2.8 1.6 4.4 1 1.4.4 1.4 2.6 3.9 1.2 1 2.5 2 4 2.8a38 38 0 0021.6 1.9c3.6-.5 7.4-.7 11-.6 1.5 0 3 .3 4.8.5 3.4.8 7 2 7 2v-54.6H264v37.2l.1 2.4zm110.6 0a13.4 13.4 0 01-1.6 4.4c-1 1.4-.4 1.4-2.6 3.9-1.2 1-2.5 2-4 2.8a31.9 31.9 0 01-15 2.7c-2.7-.2-4.8-.6-6.5-.9l-7.2-.5H334c-1.5 0-3 .3-4.8.5-3.4.8-7 2-7 2v-54.7H375V271zm0 0" transform="scale(.03125 .02917)" fill="none" stroke-width=".5" stroke="#703d29"/></svg>