<svg xmlns="http://www.w3.org/2000/svg" width="20" height="14"><path fill="#012169" d="M0 0h20v14H0z"/><path d="M15.1 5.3zm0 0" fill="#49497d"/><path d="M15.2 5.3zm0 0" fill="#0e0e6e"/><path d="M15 5.3zm0 0" fill="#262678"/><path d="M15 5.3h.1zm0 0" fill="#808067"/><path d="M15.3 5.3zm0 0" fill="#58587b"/><path d="M13 5.4zm0 0" fill="#0e0e6e"/><path d="M14.9 5.4zm0 0" fill="#1b1b74"/><path d="M15 5.4zm0 0" fill="#6e6c70"/><path d="M13 5.5c0 1.5-.2 3.2 1 4.4.3.3.8.8 1.2.8.4 0 1-.6 1.2-.9 1-1.3 1-2.8 1-4.4l-1.2.3-1-.3c-.3.1-.5.3-1 .3-.6 0-.8 0-1.2-.2zm0 0" fill="#cc3"/><path d="M15.3 5.4zm0 0" fill="#99994e"/><path d="M15.4 5.4zm0 0" fill="#49497d"/><path d="M17.4 5.4zm0 0" fill="#0e0e6e"/><path d="M13 5.4v.1zm0 0" fill="#a4a43d"/><path d="M13 5.4l.1.1zm0 0" fill="#6e6c70"/><path d="M13.1 5.4v.1zm0 0" fill="#3a3a7c"/><path d="M14.8 5.4v.1zm0 0" fill="#1b1b74"/><path d="M14.8 5.4v.1zm0 0" fill="#6e6c70"/><path d="M14.9 5.4v.1zm0 0" fill="#a4a43d"/><path d="M15.1 5.4v.1zm0 0" fill="#d0d045"/><path d="M15.4 5.4v.1zm0 0" fill="#a4a43d"/><path d="M15.4 5.4l.1.1zm0 0" fill="#8d8d5b"/><path d="M15.5 5.4v.1zm0 0" fill="#3a3a7c"/><path d="M17.2 5.4v.1zm0 0" fill="#262678"/><path d="M17.2 5.4v.1zm0 0" fill="#53527c"/><path d="M17.3 5.4v.1zm0 0" fill="#8d8d5b"/><path d="M13.2 5.5zm0 0" fill="#737370"/><path d="M13.3 5.5zm0 0" fill="#53527c"/><path d="M13.4 5.5zm0 0" fill="#1b1b74"/><path d="M14.6 5.5zm0 0" fill="#262678"/><path d="M14.7 5.5zm0 0" fill="#6e6c70"/><path d="M14.8 5.5zm0 0" fill="#a4a43d"/><path d="M15 5.5h.1zm0 0" fill="#e5e59d"/><path d="M13.2 5.7v2.5l.4 1h3.1c.2-.3.4-.7.4-1l.2-2.6a2 2 0 01-1.2.2l-1-.3c-.2.2-.3.3-.8.3l-1.1-.1zm0 0" fill="#fff"/><path d="M15.2 5.5zm0 0" fill="#f2f1d7"/><path d="M15.3 5.5zm0 0" fill="#d9d868"/><path d="M15.5 5.5zm0 0" fill="#a4a43d"/><path d="M15.6 5.5zm0 0" fill="#99994e"/><path d="M15.6 5.5h.1zm0 0" fill="#49497d"/><path d="M15.7 5.5zm0 0" fill="#0e0e6e"/><path d="M17 5.5zm0 0" fill="#3a3a7c"/><path d="M17 5.5h.1zm0 0" fill="#667"/><path d="M17.1 5.5zm0 0" fill="#99994e"/><path d="M13.399999999999999 5.5v.1zm0 0" fill="#a4a43d"/><path d="M13.4 5.6zm0 0" fill="#99994e"/><path d="M13.5 5.6zm0 0" fill="#6e6c70"/><path d="M13.5 5.6h.1zm0 0" fill="#49497d"/><path d="M14.4 5.6h.1zm0 0" fill="#1b1b74"/><path d="M14.5 5.6zm0 0" fill="#53527c"/><path d="M14.6 5.6zm0 0" fill="#8d8d5b"/><path d="M14.6 5.6zm0 0" fill="#a4a43d"/><path d="M15 5.6zm0 0" fill="#e5e59d"/><path d="M15 5.6zm0 0" fill="#fbfaf2"/><path d="M15.3 5.6zm0 0" fill="#f2f1d2"/><path d="M15.4 5.6zm0 0" fill="#d9d868"/><path d="M15.7 5.6zm0 0" fill="#a4a43d"/><path d="M15.8 5.6zm0 0" fill="#6e6c70"/><path d="M15.8 5.6h.1zm0 0" fill="#3a3a7c"/><path d="M16.7 5.6zm0 0" fill="#0e0e6e"/><path d="M16.7 5.6zm0 0" fill="#32327b"/><path d="M16.8 5.6zm0 0" fill="#58587b"/><path d="M16.8 5.6h.1zm0 0" fill="#808067"/><path d="M17 5.6zm0 0" fill="#a4a43d"/><path d="M13.1 5.6zm0 0" fill="#dddc7a"/><path d="M13.2 5.6zm0 0" fill="#d0d045"/><path d="M13.7 5.6zm0 0" fill="#a4a43d"/><path d="M13.7 5.6h.1zm0 0" fill="#808067"/><path d="M13.8 5.6zm0 0" fill="#667"/><path d="M13.9 5.6zm0 0" fill="#58587b"/><path d="M14 5.6zm0 0" fill="#49497d"/><path d="M14.3 5.6zm0 0" fill="#737370"/><path d="M14.4 5.6zm0 0" fill="#99994e"/><path d="M14.4 5.6h.1zm0 0" fill="#a4a43d"/><path d="M14.8 5.6zm0 0" fill="#e5e59d"/><path d="M14.9 5.6zm0 0" fill="#fbfaf2"/><path d="M15.4 5.6h.1zm0 0" fill="#f2f1d2"/><path d="M15.5 5.6zm0 0" fill="#d9d868"/><path d="M15.9 5.6zm0 0" fill="#a4a43d"/><path d="M16 5.6zm0 0" fill="#808067"/><path d="M16 5.6zm0 0" fill="#667"/><path d="M16 5.6h.1zm0 0" fill="#58587b"/><path d="M16.1 5.6h.1zm0 0" fill="#3a3a7c"/><path d="M16.4 5.6zm0 0" fill="#58587b"/><path d="M16.5 5.6zm0 0" fill="#737370"/><path d="M16.6 5.6zm0 0" fill="#99994e"/><path d="M16.7 5.6zm0 0" fill="#a4a43d"/><path d="M17.2 5.6zm0 0" fill="#dddc7a"/><path d="M17.2 5.6zm0 0" fill="#d0d045"/><path d="M13.2 5.7zm0 0" fill="#f2f1d7"/><path d="M13.3 5.7zm0 0" fill="#e0dea1"/><path d="M13.4 5.7zm0 0" fill="#dddc7a"/><path d="M14.6 5.7zm0 0" fill="#d9d868"/><path d="M14.7 5.7zm0 0" fill="#e5e3af"/><path d="M15.6 5.7zm0 0" fill="#f6f6e4"/><path d="M15.6 5.7h.1zm0 0" fill="#e1e18c"/><path d="M17 5.7zm0 0" fill="#d4d456"/><path d="M17 5.7zm0 0" fill="#e1e18c"/><path d="M17 5.7h.1zm0 0" fill="#eeedc1"/><path d="M13.5 5.7zm0 0" fill="#f2f1d2"/><path d="M13.5 5.7h.1zm0 0" fill="#e0dea1"/><path d="M13.6 5.7zm0 0" fill="#dddc7a"/><path d="M13.7 5.7zm0 0" fill="#d0d045"/><path d="M14.4 5.7h.1zm0 0" fill="#dddc7a"/><path d="M14.5 5.7zm0 0" fill="#e5e3af"/><path d="M14.6 5.7zm0 0" fill="#f6f6e4"/><path d="M15.8 5.7zm0 0" fill="#eeedc1"/><path d="M15.8 5.7h.1zm0 0" fill="#e1e18c"/><path d="M15.9 5.7zm0 0" fill="#d4d456"/><path d="M16.7 5.7zm0 0" fill="#d9d868"/><path d="M16.7 5.7zm0 0" fill="#e1e18c"/><path d="M16.8 5.7zm0 0" fill="#eeedc1"/><path d="M16.8 5.7h.1zm0 0" fill="#f6f6e4"/><path d="M13.8 5.8zm0 0" fill="#f2f1d7"/><path d="M13.9 5.8zm0 0" fill="#f2f1d2"/><path d="M14 5.8zm0 0" fill="#eeedc1"/><path d="M14.2 5.8zm0 0" fill="#f2f1d2"/><path d="M14.3 5.8zm0 0" fill="#fbfaf2"/><path d="M14.6 5.8l.2.1v-.1zm0 0" fill="#fef8f1"/><path d="M16 5.8zm0 0" fill="#f2f1d7"/><path d="M16 5.8h.1zm0 0" fill="#f2f1d2"/><path d="M16.1 5.8h.1zm0 0" fill="#e5e3af"/><path d="M16.3 5.8zm0 0" fill="#e5e59d"/><path d="M16.3 5.8h.1zm0 0" fill="#e0dea1"/><path d="M16.4 5.8zm0 0" fill="#f2f1d2"/><path d="M16.5 5.8zm0 0" fill="#fbfaf2"/><path d="M14.5 5.9zm0 0" fill="#fef8f1"/><path d="M14.6 5.9zm0 0" fill="#fbbe66"/><path d="M14.5 6zm0 0" fill="#fbc477"/><path d="M14.6 6zm0 0" fill="#fcb144"/><path d="M14.5 6zm0 0" fill="#fe9f11"/><path d="M14.6 6zm0 0" fill="#fea522"/><path d="M14.4 6h.1m.2 0zm0 0" fill="#fae3c9"/><path d="M15 6zm0 0" fill="#fbead6"/><path d="M15 6h.1zm0 0" fill="#f9d6aa"/><path d="M15.3 6zm0 0" fill="#fae3c9"/><path d="M15.4 6zm0 0" fill="#fef8f1"/><path d="M14.4 6l.1.1zm0 0" fill="#f9d099"/><path d="M14.7 6v.1zm0 0" fill="#fdab33"/><path d="M14.8 6v.1zm0 0" fill="#fcf1e4"/><path d="M14.9 6v.1zm0 0" fill="#fbc477"/><path d="M15 6v.1zm0 0" fill="#fea522"/><path d="M15.4 6l.1.1zm0 0" fill="#fcb755"/><path d="M15.5 6v.1zm0 0" fill="#f9d6aa"/><path d="M14.4 6.2h.1zm0 0" fill="#faca88"/><path d="M15.600000000000001 6.2zm0 0" fill="#fea522"/><path d="M15.6 6.2h.1zm0 0" fill="#f8dcbb"/><path d="M13.1 6.2zm0 0" fill="#f6f6e4"/><path d="M14.4 6.2h.1zm0 0" fill="#fbc477"/><path d="M15.7 6.2zm0 0" fill="#fbbe66"/><path d="M15.8 6.2zm0 0" fill="#f8dcbb"/><path d="M14.4 6.3h.1zm0 0" fill="#faca88"/><path d="M15.9 6.3zm0 0" fill="#fcb755"/><path d="M16 6.3zm0 0" fill="#f8dcbb"/><path d="M14.4 6.3zm0 0" fill="#fef8f1"/><path d="M14.4 6.3h.1zm0 0" fill="#fe9f11"/><path d="M16.2 6.3zm0 0" fill="#fdab33"/><path d="M16.3 6.3zm0 0" fill="#fcb144"/><path d="M16.3 6.3h.1zm0 0" fill="#fbc477"/><path d="M16.4 6.3l.1.1zm0 0" fill="#f9d6aa"/><path d="M16.5 6.3zm0 0" fill="#fef8f1"/><path d="M14.4 6.4zm0 0" fill="#fcb144"/><path d="M15.3 6.4zm0 0" fill="#fdab33"/><path d="M15.3 6.4zm.3 0zm0 0" fill="#fbc477"/><path d="M15.6 6.4h.1zm0 0" fill="#fea522"/><path d="M14.3 6.4v.1zm0 0" fill="#fae3c9"/><path d="M15.1 6.4v.1zm0 0" fill="#fcb144"/><path d="M15.2 6.4v.1zm0 0" fill="#fae3c9"/><path d="M15.7 6.4v.1zm0 0" fill="#f8dcbb"/><path d="M15.8 6.4v.1zm0 0" fill="#fdab33"/><path d="M16.1 6.4l.1.1zm0 0" fill="#fe9f11"/><path d="M16.2 6.4v.1zm0 0" fill="#fcb755"/><path d="M16.3 6.4v.1zm0 0" fill="#f9d099"/><path d="M16.3 6.4l.1.1zm0 0" fill="#fbead6"/><path d="M14.3 6.5zm0 0" fill="#fcb144"/><path d="M15 6.5h.1zm0 0" fill="#fbbe66"/><path d="M15.8 6.5h.1zm0 0" fill="#f9d099"/><path d="M16 6.5h.1zm0 0" fill="#fbead6"/><path d="M14.2 6.6h.1zm0 0" fill="#fcf1e4"/><path d="M15 6.6zm0 0" fill="#fbbe66"/><path d="M15.9 6.6zm0 0" fill="#f9d099"/><path d="M16 6.6h.1zm0 0" fill="#fae3c9"/><path d="M14.2 6.6h.1zm0 0" fill="#fbc477"/><path d="M16 6.6zm0 0" fill="#fcb144"/><path d="M16 6.6h.1zm0 0" fill="#fbbe66"/><path d="M13.1 6.7zm0 0" fill="#f6f6e4"/><path d="M14.2 6.7h.1zm0 0" fill="#fea522"/><path d="M15 6.7zm0 0" fill="#fbead6"/><path d="M16 6.7zm0 0" fill="#fcf1e4"/><path d="M16.1 6.7h.1zm0 0" fill="#fef8f1"/><path d="M14.2 6.7v.1zm0 0" fill="#fcf1e4"/><path d="M14.9 6.7v.1zm0 0" fill="#fbbe66"/><path d="M16 6.7v.1zm0 0" fill="#faca88"/><path d="M16.1 6.7l.1.1zm0 0" fill="#f9d099"/><path d="M14.2 6.8zm0 0" fill="#f9d6aa"/><path d="M14.9 6.8zm0 0" fill="#fcf1e4"/><path d="M15.2 6.8zm0 0" fill="#fae3c9"/><path d="M15.3 6.8zm0 0" fill="#fea522"/><path d="M15.3 6.8zm0 0" fill="#fcb144"/><path d="M15.4 6.8zm0 0" fill="#f9d6aa"/><path d="M16 6.8zm0 0" fill="#fef8f1"/><path d="M16 6.8h.1zm0 0" fill="#fea522"/><path d="M16.1 6.8h.1zm0 0" fill="#fdab33"/><path d="M14.2 6.9V7 7zm0 0" fill="#faca88"/><path d="M14.8 6.9zm0 0" fill="#fea522"/><path d="M14.9 6.9zm0 0" fill="#fef8f1"/><path d="M15.2 6.9zm0 0" fill="#f9d099"/><path d="M15.4 6.9h.1zm0 0" fill="#fdab33"/><path d="M15.5 6.9zm0 0" fill="#fae3c9"/><path d="M16 6.9h.1zm0 0" fill="#f8dcbb"/><path d="M16.1 6.9h.1zm0 0" fill="#f90"/><path d="M16.2 6.9zm0 0" fill="#fbead6"/><path d="M15 7zm0 0" fill="#fea522"/><path d="M15 7zm0 0" fill="#fbbe66"/><path d="M15 7h.1zm0 0" fill="#faca88"/><path d="M15.1 7zm0 0" fill="#fcb144"/><path d="M15.2 7zm0 0" fill="#fae3c9"/><path d="M15.3 7zm0 0" fill="#fe9f11"/><path d="M15.6 7zm0 0" fill="#fdab33"/><path d="M15.6 7h.1zm0 0" fill="#fbc477"/><path d="M15.7 7zm0 0" fill="#faca88"/><path d="M15.8 7zm0 0" fill="#f9d6aa"/><path d="M15.9 7zm0 0" fill="#fae3c9"/><path d="M16 7zm0 0" fill="#fef8f1"/><path d="M16.1 7h.1zm0 0" fill="#fbc477"/><path d="M13.4 7zm0 0" fill="#fef8f1"/><path d="M13.5 7zm0 0" fill="#fcf1e4"/><path d="M15.1 7zm0 0" fill="#fcb755"/><path d="M15.3 7zm0 0" fill="#fbead6"/><path d="M15.3 7zm0 0" fill="#fea522"/><path d="M15.8 7h.1zm0 0" fill="#fe9f11"/><path d="M15.9 7V7zm0 0" fill="#fcb144"/><path d="M16 7zm0 0" fill="#fe9f11"/><path d="M16 7h.1zm0 0" fill="#fbbe66"/><path d="M16.1 7h.1zm0 0" fill="#fcf1e4"/><path d="M13.4 7v.1zm0 0" fill="#fae3c9"/><path d="M13.5 7l.1.2zm0 0" fill="#fe9f11"/><path d="M13.5 7l.1.1zm.6 0v.1zm0 0" fill="#fbead6"/><path d="M14.2 7v.1zm0 0" fill="#fae3c9"/><path d="M14.8 7v.1zm0 0" fill="#fe9f11"/><path d="M14.8 7v.1zm0 0" fill="#fbc477"/><path d="M14.9 7v.1zm0 0" fill="#fea522"/><path d="M15 7l.1.1zm0 0" fill="#fbc477"/><path d="M15.1 7v.1zm0 0" fill="#fef8f1"/><path d="M15.4 7v.1zm0 0" fill="#fbc477"/><path d="M15.9 7v.1zm0 0" fill="#fff"/><path d="M16 7v.1zm0 0" fill="#fdab33"/><path d="M16.2 7v.1zm0 0" fill="#fbc477"/><path d="M13.4 7.1zm0 0" fill="#fef8f1"/><path d="M13.6 7.1zm0 0" fill="#fbead6"/><path d="M14 7.1zm0 0" fill="#f9d6aa"/><path d="M14.2 7.1h.1zm0 0" fill="#fe9f11"/><path d="M14.4 7.1zm0 0" fill="#f9d6aa"/><path d="M14.8 7.1zm0 0" fill="#f8dcbb"/><path d="M15 7.1zm0 0" fill="#fcf1e4"/><path d="M15.4 7.1h.1zm0 0" fill="#f9d6aa"/><path d="M15.9 7.1zm0 0" fill="#fdab33"/><path d="M16.3 7.1zm0 0" fill="#fcb755"/><path d="M16.3 7.1h.1zm0 0" fill="#fef8f1"/><path d="M13 7.2zm0 0" fill="#53527c"/><path d="M13.5 7.2zm0 0" fill="#fcb755"/><path d="M13.6 7.2zm0 0" fill="#fea522"/><path d="M13.9 7.2zm0 0" fill="#fbead6"/><path d="M14 7.2zm0 0" fill="#fe9f11"/><path d="M14 7.2h.1zm0 0" fill="#fcf1e4"/><path d="M14.2 7.2h.1zm0 0" fill="#fbbe66"/><path d="M14.3 7.2zm0 0" fill="#fbc477"/><path d="M14.4 7.2zm0 0" fill="#fbbe66"/><path d="M14.7 7.2zm0 0" fill="#fea522"/><path d="M15.5 7.2zm0 0" fill="#f9d6aa"/><path d="M16.3 7.2h.1zm0 0" fill="#fcb144"/><path d="M17.4 7.2zm0 0" fill="#8d8d5b"/><path d="M13.1 7.2zm0 0" fill="#e5e3af"/><path d="M13.5 7.2zm0 0" fill="#f8dcbb"/><path d="M13.7 7.2zm0 0" fill="#fdab33"/><path d="M13.9 7.2zm0 0" fill="#fe9f11"/><path d="M14 7.2zm0 0" fill="#faca88"/><path d="M14.2 7.2h.1zm0 0" fill="#fcf1e4"/><path d="M15.6 7.2zm0 0" fill="#f9d099"/><path d="M16.4 7.2zm0 0" fill="#fbbe66"/><path d="M13.5 7.3h.1zm0 0" fill="#fea522"/><path d="M13.7 7.3h.1zm0 0" fill="#fdab33"/><path d="M13.8 7.3zm0 0" fill="#fea522"/><path d="M14 7.3zm0 0" fill="#fe9f11"/><path d="M14 7.3zm0 0" fill="#fef8f1"/><path d="M14.3 7.3zm0 0" fill="#fbbe66"/><path d="M14.7 7.3zm0 0" fill="#fef8f1"/><path d="M15.6 7.3h.1zm0 0" fill="#fbbe66"/><path d="M16.5 7.3zm0 0" fill="#f9d099"/><path d="M13.5 7.3l.1.1zm0 0" fill="#f9d6aa"/><path d="M14 7.3v.1zm0 0" fill="#f9d099"/><path d="M14.3 7.3v.1zm0 0" fill="#fcf1e4"/><path d="M14.6 7.3v.1m1.1 0zm0 0" fill="#fdab33"/><path d="M16.5 7.3v.1zm0 0" fill="#fbead6"/><path d="M13.6 7.4zm0 0" fill="#fea522"/><path d="M13.9 7.4zm0 0" fill="#fe9f11"/><path d="M14.4 7.4zm0 0" fill="#fcb144"/><path d="M14.6 7.4zm0 0" fill="#faca88"/><path d="M15.7 7.4zm0 0" fill="#f8dcbb"/><path d="M16.5 7.4zm0 0" fill="#fcb144"/><path d="M13.1 7.5zm0 0" fill="#d3d079"/><path d="M13.6 7.5zm.8 0zm0 0" fill="#faca88"/><path d="M15.7 7.5zm0 0" fill="#fae3c9"/><path d="M16.6 7.5zm0 0" fill="#f8dcbb"/><path d="M17.2 7.5zm0 0" fill="#f2f1d7"/><path d="M17.4 7.5zm0 0" fill="#58587b"/><path d="M13.1 7.5zm0 0" fill="#d9d868"/><path d="M13.6 7.5zm0 0" fill="#f8dcbb"/><path d="M15.6 7.5h.1zm0 0" fill="#f9d6aa"/><path d="M15.7 7.5zm0 0" fill="#fe9f11"/><path d="M16.6 7.5zm0 0" fill="#fcb144"/><path d="M17.2 7.5zm0 0" fill="#f2f1d2"/><path d="M13.6 7.6zm0 0" fill="#fcf1e4"/><path d="M15.6 7.6zm0 0" fill="#fef8f1"/><path d="M15.6 7.6h.1zm0 0" fill="#fe9f11"/><path d="M15.8 7.6zm0 0" fill="#fdab33"/><path d="M15.9 7.6zm0 0" fill="#fcb755"/><path d="M16.7 7.6zm0 0" fill="#fea522"/><path d="M16.7 7.6zm0 0" fill="#f9d099"/><path d="M17.4 7.6zm0 0" fill="#53527c"/><path d="M13 7.7zm0 0" fill="#808067"/><path d="M13.899999999999999 7.6zm0 0" fill="#fea522"/><path d="M14.6 7.6zm0 0" fill="#fe9f11"/><path d="M15.6 7.6zm0 0" fill="#fae3c9"/><path d="M15.8 7.6h.1zm0 0" fill="#fef8f1"/><path d="M16 7.6zm0 0" fill="#fcb144"/><path d="M16.8 7.6zm0 0" fill="#fcb755"/><path d="M16.8 7.6l.2.1zm0 0" fill="#fef8f1"/><path d="M17.2 7.7zm0 0" fill="#e5e59d"/><path d="M17.4 7.7zm0 0" fill="#32327b"/><path d="M13.7 7.7zm0 0" fill="#fcb755"/><path d="M14 7.7zm0 0" fill="#fef8f1"/><path d="M14.6 7.7zm0 0" fill="#fbbe66"/><path d="M15.6 7.7zm0 0" fill="#fbead6"/><path d="M15.7 7.7zm0 0" fill="#fe9f11"/><path d="M15.8 7.7zm0 0" fill="#fcf1e4"/><path d="M16 7.7zm0 0" fill="#fbead6"/><path d="M16.8 7.7h.1zm0 0" fill="#fdab33"/><path d="M13 7.7v.1zm0 0" fill="#667"/><path d="M13.2 7.7v.1zm0 0" fill="#f6f6e4"/><path d="M14 7.7v.1zm0 0" fill="#f9d6aa"/><path d="M14.4 7.7l.1.1zm0 0" fill="#fdab33"/><path d="M14.5 7.7v.1zm0 0" fill="#fe9f11"/><path d="M14.6 7.7v.1zm0 0" fill="#fcf1e4"/><path d="M15.6 7.7l.1.1zm0 0" fill="#fea522"/><path d="M15.7 7.7v.1m.3 0zm0 0" fill="#faca88"/><path d="M17 7.7v.1zm0 0" fill="#fcb144"/><path d="M17.2 7.7v.1zm0 0" fill="#dddc7a"/><path d="M13 7.8zm0 0" fill="#58587b"/><path d="M13.2 7.8zm0 0" fill="#f2f1d2"/><path d="M13.7 7.8zm0 0" fill="#fcb144"/><path d="M14 7.8zm0 0" fill="#fea522"/><path d="M14.6 7.8zm0 0" fill="#fef8f1"/><path d="M14.6 7.8zm0 0" fill="#fea522"/><path d="M14.8 7.8zm0 0" fill="#fcb144"/><path d="M14.8 7.8zm0 0" fill="#fbead6"/><path d="M15.6 7.8h.1zm0 0" fill="#f8dcbb"/><path d="M15.7 7.8zm0 0" fill="#fcf1e4"/><path d="M16 7.8zm0 0" fill="#fef8f1"/><path d="M16 7.8h.1zm0 0" fill="#fe9f11"/><path d="M17 7.8zm0 0" fill="#fbead6"/><path d="M17.2 7.8zm0 0" fill="#d9d868"/><path d="M13 7.9zm0 0" fill="#3a3a7c"/><path d="M13.2 7.9zm0 0" fill="#e5e3af"/><path d="M14 7.9zm0 0" fill="#faca88"/><path d="M14.6 7.9zm0 0" fill="#fbead6"/><path d="M14.8 7.9zm0 0" fill="#fe9f11"/><path d="M14.9 7.9zm0 0" fill="#fcf1e4"/><path d="M15.6 7.9zm0 0" fill="#fbead6"/><path d="M15.6 7.9h.1zm0 0" fill="#fae3c9"/><path d="M15.7 7.9zm0 0" fill="#fbead6"/><path d="M16 7.9h.1m.5 0zm0 0" fill="#fbbe66"/><path d="M16.7 7.9zm0 0" fill="#fcf1e4"/><path d="M16.7 7.9zm0 0" fill="#fef8f1"/><path d="M16.8 7.9zm0 0" fill="#f8dcbb"/><path d="M16.8 7.9h.1zm0 0" fill="#fcb755"/><path d="M17 7.9zm0 0" fill="#fae3c9"/><path d="M17.3 7.9zm0 0" fill="#808067"/><path d="M13 8zm0 0" fill="#32327b"/><path d="M13 8zm0 0" fill="#a4a43d"/><path d="M13.2 8zm0 0" fill="#e5e59d"/><path d="M13.7 8zm0 0" fill="#fbc477"/><path d="M14 8h.1zm0 0" fill="#f9d6aa"/><path d="M14.7 8zm0 0" fill="#fbbe66"/><path d="M14.9 8zm0 0" fill="#f9d099"/><path d="M15.4 8h.1zm0 0" fill="#fae3c9"/><path d="M15.5 8zm0 0" fill="#fcb144"/><path d="M15.8 8zm0 0" fill="#fae3c9"/><path d="M16 8h.1zm0 0" fill="#f8dcbb"/><path d="M16.6 8zm0 0" fill="#f9d099"/><path d="M17 8zm0 0" fill="#fbc477"/><path d="M17 8zm0 0" fill="#fbead6"/><path d="M17.3 8zm0 0" fill="#737370"/><path d="M13.2 8zm0 0" fill="#d9d868"/><path d="M13.7 8zm0 0" fill="#f9d099"/><path d="M14.7 8zm0 0" fill="#f9d6aa"/><path d="M14.9 8zm0 0" fill="#fbc477"/><path d="M15.2 8zm0 0" fill="#fef8f1"/><path d="M15.3 8zm0 0" fill="#f8dcbb"/><path d="M15.3 8zm0 0" fill="#fbc477"/><path d="M15.4 8zm0 0" fill="#fea522"/><path d="M15.8 8zm0 0" fill="#fbead6"/><path d="M17.1 8zm0 0" fill="#f2f1d2"/><path d="M17.3 8zm0 0" fill="#58587b"/><path d="M13 8l.1.1zm0 0" fill="#99994e"/><path d="M13.2 8v.1zm0 0" fill="#d0d045"/><path d="M14.2 8v.1zm0 0" fill="#fcb144"/><path d="M14.2 8l.1.1zm0 0" fill="#fae3c9"/><path d="M14.7 8v.1zm0 0" fill="#fef8f1"/><path d="M15 8v.1zm0 0" fill="#fcb755"/><path d="M15 8v.1zm0 0" fill="#fbc477"/><path d="M15 8l.1.1zm0 0" fill="#fcb144"/><path d="M15.1 8v.1zm0 0" fill="#fea522"/><path d="M15.6 8l.1.1zm0 0" fill="#fe9f11"/><path d="M15.7 8v.1zm0 0" fill="#f9d6aa"/><path d="M16.6 8v.1zm0 0" fill="#fef8f1"/><path d="M17.1 8v.1zm0 0" fill="#e0dea1"/><path d="M17.3 8v.1zm0 0" fill="#3a3a7c"/><path d="M13 8.1h.1zm0 0" fill="#737370"/><path d="M13.2 8.1zm0 0" fill="#fbfaf2"/><path d="M13.7 8.1h.1zm0 0" fill="#fea522"/><path d="M14.3 8.1zm0 0" fill="#fe9f11"/><path d="M14.4 8.1zm0 0" fill="#fcb144"/><path d="M14.4 8.1h.1zm0 0" fill="#fbc477"/><path d="M14.5 8.1zm0 0" fill="#faca88"/><path d="M14.6 8.1zm0 0" fill="#fbc477"/><path d="M14.6 8.1zm0 0" fill="#fcb144"/><path d="M14.7 8.1zm0 0" fill="#fdab33"/><path d="M15.6 8.1zm0 0" fill="#fbc477"/><path d="M15.6 8.1h.1zm0 0" fill="#fef8f1"/><path d="M16.5 8.1zm0 0" fill="#fdab33"/><path d="M17.1 8.1zm0 0" fill="#e1e18c"/><path d="M17.2 8.1zm0 0" fill="#a4a43d"/><path d="M17.3 8.1zm0 0" fill="#262678"/><path d="M13 8.2h.1zm0 0" fill="#58587b"/><path d="M13.2 8.2zm0 0" fill="#f2f1d2"/><path d="M13.7 8.2h.1zm0 0" fill="#faca88"/><path d="M15.4 8.2h.1zm0 0" fill="#fe9f11"/><path d="M15.5 8.2zm0 0" fill="#fbead6"/><path d="M16 8.2h.1zm0 0" fill="#fbc477"/><path d="M16.5 8.2zm0 0" fill="#faca88"/><path d="M17.1 8.2zm0 0" fill="#d4d456"/><path d="M13 8.2h.1zm0 0" fill="#32327b"/><path d="M13.2 8.2zm0 0" fill="#e5e59d"/><path d="M13.7 8.2h.1zm0 0" fill="#fef8f1"/><path d="M13.8 8.2zm0 0" fill="#fe9f11"/><path d="M15.4 8.2h.1zm0 0" fill="#fbead6"/><path d="M16 8.2h.1zm0 0" fill="#fea522"/><path d="M16.5 8.2zm0 0" fill="#fcf1e4"/><path d="M17.2 8.2zm0 0" fill="#808067"/><path d="M13 8.3h.1zm0 0" fill="#0e0e6e"/><path d="M13.1 8.3zm0 0" fill="#a4a43d"/><path d="M13.2 8.3zm0 0" fill="#d9d868"/><path d="M13.8 8.3zm0 0" fill="#f8dcbb"/><path d="M16 8.3zm0 0" fill="#f9d6aa"/><path d="M16.5 8.3zm0 0" fill="#faca88"/><path d="M17 8.3h.1zm0 0" fill="#f2f1d2"/><path d="M17.2 8.3zm0 0" fill="#58587b"/><path d="M13.1 8.3v.1zm0 0" fill="#8d8d5b"/><path d="M13.9 8.3v.1zm0 0" fill="#f9d6aa"/><path d="M15.1 8.3v.1zm0 0" fill="#fdab33"/><path d="M15.2 8.3v.1zm0 0" fill="#fff"/><path d="M15.3 8.4zm0 0" fill="#fcb144"/><path d="M16 8.3l-.1.2zm0 0" fill="#fef8f1"/><path d="M16 8.3v.1zm0 0" fill="#fe9f11"/><path d="M16.4 8.3v.2zm0 0" fill="#fdab33"/><path d="M17 8.3l.1.1zm0 0" fill="#e5e59d"/><path d="M17.2 8.3v.1zm0 0" fill="#3a3a7c"/><path d="M13.1 8.4zm0 0" fill="#667"/><path d="M13.3 8.4zm0 0" fill="#f2f1d2"/><path d="M14 8.4zm0 0" fill="#f9d6aa"/><path d="M15.1 8.4zm0 0" fill="#fe9f11"/><path d="M15.2 8.4zm0 0" fill="#faca88"/><path d="M15.3 8.4zm0 0" fill="#fea522"/><path d="M15.3 8.4zm0 0" fill="#fcf1e4"/><path d="M16 8.4zm0 0" fill="#fdab33"/><path d="M16.4 8.4zm0 0" fill="#fef8f1"/><path d="M17 8.4h.1zm0 0" fill="#d9d868"/><path d="M17.2 8.4zm0 0" fill="#a4a43d"/><path d="M17.2 8.4zm0 0" fill="#0e0e6e"/><path d="M13.1 8.5zm0 0" fill="#3a3a7c"/><path d="M13.3 8.5zm0 0" fill="#e5e59d"/><path d="M14 8.5h.1zm0 0" fill="#fae3c9"/><path d="M14 8.5h.1zm0 0" fill="#fe9f11"/><path d="M15.3 8.5zm0 0" fill="#f8dcbb"/><path d="M15.8 8.5h.1zm0 0" fill="#fcf1e4"/><path d="M15.9 8.5zm0 0" fill="#fdab33"/><path d="M16.3 8.5zm0 0" fill="#fcb144"/><path d="M16.3 8.5h.1zm0 0" fill="#fef8f1"/><path d="M17 8.5zm0 0" fill="#fbfaf2"/><path d="M17.2 8.5zm0 0" fill="#8d8d5b"/><path d="M13.1 8.5zm0 0" fill="#0e0e6e"/><path d="M13.2 8.5zm0 0" fill="#a4a43d"/><path d="M13.3 8.5zm0 0" fill="#d4d456"/><path d="M15.2 8.5zm0 0" fill="#f9d6aa"/><path d="M15.8 8.5zm0 0" fill="#f9d099"/><path d="M15.8 8.5h.1zm0 0" fill="#fe9f11"/><path d="M16.2 8.5zm0 0" fill="#faca88"/><path d="M17 8.5zm0 0" fill="#eeedc1"/><path d="M17.2 8.5zm0 0" fill="#58587b"/><path d="M13.2 8.6zm0 0" fill="#737370"/><path d="M13.4 8.6zm0 0" fill="#f6f6e4"/><path d="M14 8.6h.1zm0 0" fill="#fbbe66"/><path d="M15 8.6h.1zm0 0" fill="#fcb144"/><path d="M15.2 8.6zm0 0" fill="#f8dcbb"/><path d="M15.6 8.6h.1zm0 0" fill="#fbbe66"/><path d="M15.7 8.6zm0 0" fill="#fe9f11"/><path d="M16 8.6h.1zm0 0" fill="#fbc477"/><path d="M16.1 8.6h.1zm0 0" fill="#fcf1e4"/><path d="M17 8.6zm0 0" fill="#d3d079"/><path d="M17.1 8.6zm0 0" fill="#a4a43d"/><path d="M17.2 8.6zm0 0" fill="#262678"/><path d="M13.2 8.6zm0 0" fill="#49497d"/><path d="M13.4 8.6zm0 0" fill="#e0dea1"/><path d="M14 8.6zm0 0" fill="#fae3c9"/><path d="M14.9 8.6zm0 0" fill="#fdab33"/><path d="M15 8.6zm0 0" fill="#fbc477"/><path d="M15 8.6zm0 0" fill="#fbead6"/><path d="M15.2 8.6zm0 0" fill="#fcb144"/><path d="M16 8.6zm0 0" fill="#f9d6aa"/><path d="M17.1 8.6zm0 0" fill="#99994e"/><path d="M13.2 8.7zm0 0" fill="#0e0e6e"/><path d="M13.2 8.7zm0 0" fill="#a4a43d"/><path d="M13.4 8.7zm0 0" fill="#d4d456"/><path d="M14 8.7zm0 0" fill="#f9d099"/><path d="M14.3 8.7zm0 0" fill="#fe9f11"/><path d="M14.4 8.7zm0 0" fill="#f9d6aa"/><path d="M14.4 8.7h.1zm0 0" fill="#f9d099"/><path d="M14.7 8.7zm0 0" fill="#f9d6aa"/><path d="M14.8 8.7zm0 0" fill="#fae3c9"/><path d="M14.8 8.7zm0 0" fill="#fef8f1"/><path d="M15.3 8.7zm0 0" fill="#fbead6"/><path d="M15.4 8.7zm0 0" fill="#fae3c9"/><path d="M15.4 8.7h.1zm0 0" fill="#faca88"/><path d="M15.5 8.7zm0 0" fill="#fbc477"/><path d="M15.6 8.7zm0 0" fill="#fdab33"/><path d="M15.9 8.7zm0 0" fill="#fe9f11"/><path d="M16 8.7zm0 0" fill="#f9d6aa"/><path d="M17 8.7zm0 0" fill="#e5e3af"/><path d="M17.1 8.7zm0 0" fill="#667"/><path d="M13.2 8.8zm0 0" fill="#737370"/><path d="M13.4 8.8zm0 0" fill="#f2f1d7"/><path d="M13.9 8.8zm0 0" fill="#fea522"/><path d="M14.2 8.8zm0 0" fill="#fe9f11"/><path d="M14.2 8.8h.1zm0 0" fill="#fbbe66"/><path d="M14.3 8.8zm0 0" fill="#fcf1e4"/><path d="M15.8 8.8h.1zm0 0" fill="#fea522"/><path d="M15.9 8.8zm0 0" fill="#fbead6"/><path d="M17 8.8zm0 0" fill="#dddc7a"/><path d="M17 8.8h.1zm0 0" fill="#a4a43d"/><path d="M17.1 8.8zm0 0" fill="#262678"/><path d="M13.2 8.8zm0 0" fill="#49497d"/><path d="M13.3 8.9zm0 0" fill="#a4a43d"/><path d="M13.4 8.8zm0 0" fill="#d3d079"/><path d="M14 8.8zm0 0" fill="#f9d099"/><path d="M14 8.8zm0 0" fill="#fcb144"/><path d="M14 8.8h.1zm0 0" fill="#faca88"/><path d="M14.1 8.8zm0 0" fill="#f8dcbb"/><path d="M14.2 8.8zm0 0" fill="#fef8f1"/><path d="M15.6 8.8zm0 0" fill="#f8dcbb"/><path d="M15.8 8.8h.1zm0 0" fill="#fcf1e4"/><path d="M16.8 8.8h.1zm0 0" fill="#f6f6e4"/><path d="M17 8.8h.1zm0 0" fill="#8d8d5b"/><path d="M13.5 8.9zm0 0" fill="#fbfaf2"/><path d="M15.6 8.9zm0 0" fill="#fbbe66"/><path d="M15.8 8.9zm0 0" fill="#faca88"/><path d="M16.8 8.9h.1zm0 0" fill="#e1e18c"/><path d="M17 8.9h.1zm0 0" fill="#49497d"/><path d="M13.3 9zm0 0" fill="#58587b"/><path d="M13.5 9zm0 0" fill="#e5e59d"/><path d="M15.6 9zm0 0" fill="#fe9f11"/><path d="M15.7 9zm0 0" fill="#fdab33"/><path d="M16.8 9zm0 0" fill="#fbfaf2"/><path d="M17 9zm0 0" fill="#a4a43d"/><path d="M17 9h.1zm0 0" fill="#0e0e6e"/><path d="M13.3 9zm0 0" fill="#1b1b74"/><path d="M13.4 9zm0 0" fill="#a4a43d"/><path d="M13.5 9zm0 0" fill="#d0d045"/><path d="M15.5 9zm0 0" fill="#fbead6"/><path d="M15.6 9h.1zm0 0" fill="#fe9f11"/><path d="M15.7 9zm0 0" fill="#fbead6"/><path d="M16.8 9zm0 0" fill="#e5e59d"/><path d="M17 9zm0 0" fill="#667"/><path d="M13.4 9v.1zm0 0" fill="#6e6c70"/><path d="M13.5 9l.1.1zm0 0" fill="#e5e3af"/><path d="M15.5 9v.1zm0 0" fill="#faca88"/><path d="M15.6 9l.1.1zm0 0" fill="#fae3c9"/><path d="M16.7 9v.1zm0 0" fill="#fbfaf2"/><path d="M17 9v.1zm0 0" fill="#a4a43d"/><path d="M17 9v.1m-3.6 0zm0 0" fill="#1b1b74"/><path d="M13.4 9.1zm0 0" fill="#a4a43d"/><path d="M13.5 9.1h.1zm0 0" fill="#d0d045"/><path d="M13.6 9.1zm0 0" fill="#fbfaf2"/><path d="M15.6 9.1zm0 0" fill="#f9d6aa"/><path d="M16.7 9.1zm0 0" fill="#e5e59d"/><path d="M13.4 9.1v.1zm0 0" fill="#6e6c70"/><path d="M13.6 9.2zm0 0" fill="#8cbf84"/><path d="M13.6 9.2c.3.4 1 1.4 1.6 1.4.6 0 1.3-1 1.5-1.4zm0 0" fill="#0cf"/><path d="M16.8 9.2h.1zm0 0" fill="#a4a43d"/><path d="M13.4 9.2zm0 0" fill="#1b1b74"/><path d="M13.5 9.2zm0 0" fill="#a4a43d"/><path d="M13.6 9.2zm0 0" fill="#adb333"/><path d="M13.7 9.2zm0 0" fill="#1ac5b5"/><path d="M16.7 9.2zm0 0" fill="#68b070"/><path d="M16.8 9.2h.1zm0 0" fill="#667"/><path d="M13.5 9.3zm0 0" fill="#58587b"/><path d="M13.7 9.3zm0 0" fill="#7fb15c"/><path d="M16.6 9.3zm0 0" fill="#27c2aa"/><path d="M16.8 9.3v.1zm0 0" fill="#a4a43d"/><path d="M16.8 9.3h.1m-3.4 0v.1zm0 0" fill="#0e0e6e"/><path d="M13.5 9.3l.2.2zm0 0" fill="#a4a43d"/><path d="M13.7 9.3l.1.1zm0 0" fill="#34be9e"/><path d="M16.6 9.3v.1zm0 0" fill="#96b247"/><path d="M16.8 9.3v.1zm0 0" fill="#53527c"/><path d="M13.5 9.4h.1zm0 0" fill="#3a3a7c"/><path d="M13.7 9.4h.1zm0 0" fill="#a2b23d"/><path d="M13.8 9.4zm0 0" fill="#0dc9c1"/><path d="M16.5 9.4zm0 0" fill="#5bb47c"/><path d="M16.7 9.4zm0 0" fill="#8d8d5b"/><path d="M13.6 9.5zm0 0" fill="#737370"/><path d="M13.8 9.5zm0 0" fill="#74b166"/><path d="M16.5 9.5zm0 0" fill="#27c2aa"/><path d="M16.7 9.5h-.1zm0 0" fill="#a4a43d"/><path d="M16.7 9.5zm0 0" fill="#262678"/><path d="M13.6 9.5zm0 0" fill="#0e0e6e"/><path d="M13.7 9.5l.1.1zm0 0" fill="#a4a43d"/><path d="M13.9 9.5zm0 0" fill="#42bb92"/><path d="M16.4 9.5zm0 0" fill="#0dc9c1"/><path d="M16.5 9.5zm0 0" fill="#96b247"/><path d="M16.7 9.5zm0 0" fill="#58587b"/><path d="M13.7 9.6zm0 0" fill="#3a3a7c"/><path d="M13.9 9.6zm0 0" fill="#adb333"/><path d="M14 9.6zm0 0" fill="#27c2aa"/><path d="M16.4 9.6zm0 0" fill="#74b166"/><path d="M16.6 9.6zm0 0" fill="#8d8d5b"/><path d="M13.7 9.6l.1.1zm0 0" fill="#6e6c70"/><path d="M14 9.6v.1zm0 0" fill="#96b247"/><path d="M14 9.6v.1zm0 0" fill="#0dc9c1"/><path d="M16.3 9.6l.1.1zm0 0" fill="#42bb92"/><path d="M16.5 9.6l-.1.2zm0 0" fill="#a4a43d"/><path d="M16.6 9.6v.1zm0 0" fill="#1b1b74"/><path d="M13.7 9.7h.1zm0 0" fill="#0e0e6e"/><path d="M13.8 9.7zm0 0" fill="#8d8d5b"/><path d="M14 9.7zm0 0" fill="#7fb15c"/><path d="M16.3 9.7zm0 0" fill="#34be9e"/><path d="M16.5 9.7zm0 0" fill="#3a3a7c"/><path d="M13.8 9.8zm0 0" fill="#1b1b74"/><path d="M13.9 9.8l.7.6zm0 0" fill="#a4a43d"/><path d="M14 9.8h.1zm0 0" fill="#74b166"/><path d="M16.2 9.8zm0 0" fill="#27c2aa"/><path d="M16.3 9.8zm0 0" fill="#adb333"/><path d="M16.5 9.8zm0 0" fill="#667"/><path d="M13.9 9.8zm0 0" fill="#32327b"/><path d="M14.1 9.8zm0 0" fill="#42bb92"/><path d="M16.1 9.8l-.2.3.3-.3zm0 0" fill="#0dc9c1"/><path d="M16.2 9.8zm0 0" fill="#adb333"/><path d="M16.4 9.8zm0 0" fill="#737370"/><path d="M14 9.9zm0 0" fill="#49497d"/><path d="M14.2 9.9zm0 0" fill="#42bb92"/><path d="M16.1 9.9h.1zm0 0" fill="#96b247"/><path d="M16.3 9.9v.1zm0 0" fill="#8d8d5b"/><path d="M16.4 9.9zm0 0" fill="#0e0e6e"/><path d="M14 10zm0 0" fill="#53527c"/><path d="M14.2 10h.1zm0 0" fill="#42bb92"/><path d="M16 10h.1zm0 0" fill="#96b247"/><path d="M16.3 10h.1zm0 0" fill="#0e0e6e"/><path d="M14 10h.1zm0 0" fill="#6e6c70"/><path d="M14.3 10zm0 0" fill="#42bb92"/><path d="M16 10zm0 0" fill="#96b247"/><path d="M16.2 10l-.1.2zm0 0" fill="#a4a43d"/><path d="M16.3 10zm0 0" fill="#262678"/><path d="M14.1 10v.1zm0 0" fill="#6e6c70"/><path d="M14.4 10v.1zm0 0" fill="#42bb92"/><path d="M16 10v.1zm0 0" fill="#96b247"/><path d="M16.2 10v.1zm0 0" fill="#262678"/><path d="M14.2 10.1zm0 0" fill="#6e6c70"/><path d="M14.4 10.1h.1zm0 0" fill="#68b070"/><path d="M15.8 10.1h.1zm0 0" fill="#27c2aa"/><path d="M15.9 10.1zm0 0" fill="#adb333"/><path d="M16.1 10.1h.1zm0 0" fill="#262678"/><path d="M14.2 10.2h.1zm0 0" fill="#667"/><path d="M14.5 10.2zm0 0" fill="#74b166"/><path d="M15.8 10.2zm0 0" fill="#34be9e"/><path d="M15.8 10.2h.1zm0 0" fill="#adb333"/><path d="M16 10.2zm0 0" fill="#8d8d5b"/><path d="M16 10.2h.1zm0 0" fill="#262678"/><path d="M14.3 10.2zm0 0" fill="#49497d"/><path d="M14.6 10.2zm0 0" fill="#96b247"/><path d="M14.6 10.2zm0 0" fill="#0dc9c1"/><path d="M15.7 10.2zm0 0" fill="#42bb92"/><path d="M16 10.2zm0 0" fill="#0e0e6e"/><path d="M14.4 10.3zm0 0" fill="#49497d"/><path d="M14.6 10.3zm0 0" fill="#a2b23d"/><path d="M14.7 10.3zm0 0" fill="#27c2aa"/><path d="M15.6 10.3h.1zm0 0" fill="#74b166"/><path d="M15.8 10.3l-.2.2zm0 0" fill="#a4a43d"/><path d="M15.9 10.3zm0 0" fill="#808067"/><path d="M16 10.3zm0 0" fill="#0e0e6e"/><path d="M14.4 10.4h.1zm0 0" fill="#262678"/><path d="M14.7 10.4zm0 0" fill="#adb333"/><path d="M14.8 10.4zm0 0" fill="#42bb92"/><path d="M15.5 10.4zm0 0" fill="#0dc9c1"/><path d="M15.6 10.4zm0 0" fill="#96b247"/><path d="M15.8 10.4h.1zm0 0" fill="#6e6c70"/><path d="M14.5 10.4zm0 0" fill="#1b1b74"/><path d="M14.6 10.4zm0 0" fill="#8d8d5b"/><path d="M14.8 10.4zm0 0" fill="#74b166"/><path d="M14.9 10.4zm0 0" fill="#0dc9c1"/><path d="M15.4 10.4h.1zm0 0" fill="#34be9e"/><path d="M15.5 10.4zm0 0" fill="#adb333"/><path d="M15.8 10.4zm0 0" fill="#49497d"/><path d="M14.6 10.5zm0 0" fill="#0e0e6e"/><path d="M14.6 10.5zm0 0" fill="#6e6c70"/><path d="M14.7 10.5h.1zm0 0" fill="#a4a43d"/><path d="M14.9 10.5zm0 0" fill="#96b247"/><path d="M15 10.5zm0 0" fill="#27c2aa"/><path d="M15.4 10.5zm0 0" fill="#68b070"/><path d="M15.7 10.5zm0 0" fill="#32327b"/><path d="M14.7 10.5zm0 0" fill="#49497d"/><path d="M15 10.5zm0 0" fill="#5bb47c"/><path d="M15.3 10.5zm0 0" fill="#27c2aa"/><path d="M15.3 10.5zm0 0" fill="#96b247"/><path d="M15.5 10.5v.1zm0 0" fill="#a4a43d"/><path d="M15.6 10.5zm0 0" fill="#808067"/><path d="M15.6 10.5h.1zm0 0" fill="#0e0e6e"/><path d="M14.8 10.6zm0 0" fill="#262678"/><path d="M14.8 10.6zm0 0" fill="#8d8d5b"/><path d="M15 10.6h.1zm0 0" fill="#8bb252"/><path d="M15.1 10.6zm0 0" fill="#1ac5b5"/><path d="M15.2 10.6zm0 0" fill="#5bb47c"/><path d="M15.5 10.6zm0 0" fill="#58587b"/><path d="M14.8 10.7zm0 0" fill="#0e0e6e"/><path d="M14.9 10.7zm0 0" fill="#667"/><path d="M15 10.7zm0 0" fill="#a4a43d"/><path d="M15.4 10.7zm0 0" fill="#99994e"/><path d="M15.4 10.7h.1m-.6 0h.1zm0 0" fill="#32327b"/><path d="M15 10.7zm0 0" fill="#99994e"/><path d="M15.3 10.7zm0 0" fill="#a4a43d"/><path d="M15.3 10.7zm0 0" fill="#667"/><path d="M15 10.7v.1zm0 0" fill="#0e0e6e"/><path d="M15 10.8h.1zm0 0" fill="#667"/><path d="M15.1 10.8zm0 0" fill="#a4a43d"/><path d="M15.2 10.8zm0 0" fill="#99994e"/><path d="M15.3 10.8zm0 0" fill="#32327b"/><path d="M15.1 10.8zm0 0" fill="#262678"/><path d="M15.2 10.8zm0 0" fill="#0e0e6e"/><path d="M15.3 6.9c0 .2.4.4.5.5-.2.1-.2.1-.2.4.2-.2.2-.3.4-.2.2.2 0 .8-.2.9l-.5.1c.1.1.3 0 .4 0 .1.1 0 .3 0 .4.2 0 .2-.2.2-.3.1-.3.7-.5.7-.8h.4c-.1-.2-.3-.2-.4-.3-.2-.2-.3-.5-.6-.6h-.4l-.3-.1zm0 0" fill="#f90"/><path d="M16 7.1h-.1zm0 0" fill-rule="evenodd" fill="#fff"/><path d="M14.5 7.8l.3-.7h.3l-.3-.2c.1-.4.7-.4 1-.3l.3.3-.2-.4s.3 0 .4-.2h-.4c-.3.1-.8-.2-1.1-.1l-.1-.3-.2.4c-.1.3-.3.5-.2.8l.1.3v.4zm0 0" fill="#f90"/><path d="M14.4 7v.1zm0 0" fill-rule="evenodd" fill="#fff"/><path d="M15.8 7.9L15 8c0-.1 0-.2-.3-.3.1.3.1.3 0 .4-.3 0-.7-.4-.7-.6l.1-.5c-.2 0-.1.3-.2.4l-.4-.2.2.3c.3.2.2.8.4 1l-.2.2h.5c.3-.1.6 0 .8-.3l.3-.3.3-.2zm0 0" fill="#f90"/><path d="M15.2 8.3zm0 0" fill-rule="evenodd" fill="#fff"/><path d="M0 0h10v7H0zm0 0" fill="#012169"/><path d="M1.2 0L5 2.6 8.8 0H10v.9L6.2 3.5 10 6.1V7H8.7L5 4.4 1.3 7H0v-.9l3.7-2.6L0 1V0zm0 0" fill="#fff"/><path d="M6.6 4.1L10 6.4V7L5.8 4.1zm-2.8.3v.5L.8 7H0zM10 0L6.1 2.8V2L9.2 0zM0 0l3.7 2.6h-.9L0 .6zm0 0" fill="#c8102e"/><path d="M3.8 0v7h2.5V0zM0 2.3v2.4h10V2.3zm0 0" fill="#fff"/><path d="M0 2.8v1.4h10V2.8zM4.3 0v7h1.5V0zm0 0" fill="#c8102e"/></svg>