<svg xmlns="http://www.w3.org/2000/svg" width="20" height="14"><path fill="#e41e20" d="M0 0h20v14H0z"/><path d="M8.5 2.7c-.1 0-.4 0-.4.2-.4 0-.4 0-.4.2h.1c0-.1.1 0 .2 0A.6.6 0 018 3h-.3a.5.5 0 01-.2 0L7.5 3c-.1-.1-.2 0-.2 0 0 .2.2.2.3.2h.6l-.2.1h-.3l.3.1.7.2.3.3.2.3c0 .3 0 .4-.2.5l-.4-.1v-.4V4a9.3 9.3 0 00-1-.4l-.2.1A1.6 1.6 0 016.3 3c-.2-.2-.4 0-.3.2 0 .3.2.4.4.6l.9.2v.3c-.4 0-.7 0-1-.3-.2-.2-.4 0-.3.2.1.3.7.4 1.3.3.2 0 0 .2 0 .2-.2.2-.7.3-1 0-.2-.1-.4 0-.3.2.2.5.8.4 1.3.1.1 0 .2.1 0 .2-.5.4-.8.4-1 .2-.4 0-.4.3-.2.4.2 0 .8 0 1.1-.2.2-.2.2 0 .1.1-.4.4-.6.5-1.1.4-.3 0-.3.3 0 .4.2.1.7-.1 1-.4.3-.1.3 0 .2.2l-.7.5a.9.9 0 01-.6 0c-.1 0-.2.2 0 .3h.5c.3 0 .6-.3.8-.5.1-.1.1 0 0 .2-.3.6-.7.8-1.2.8-.2 0-.3 0-.1.2.2.2.5.2.8 0l.9-.9c.1-.1.2 0 .1.3 0 .1-.1.3-.4.4-.2 0 0 .2.1.2 0 0 .3 0 .4-.2l.3-.6c0-.1.2 0 .2 0 0 .4-.1.4-.3.5-.1.2.1.2.2.1l.4-.5c0-.1.2 0 .2.2-.2.5-.5.7-1 .8h-.2l.3.3-1 .2-.4-.3s-.1-.2-.3-.1H6l.3.1c0 .2.2.2.3.1l.3.3h-.5c-.2-.2-.3-.2-.5 0h-.2H7l-.2.2c-.3 0-.5 0-.5.3v.2a.3.3 0 01.1-.2c.3 0 .3 0 .4-.2 0 0 .3 0 .4-.2l.3.1c.1.2.2.2.4.2s.2.1.2.2v-.3c-.1-.1-.2-.2-.4-.1l-.3-.1 1-.3.2.2h.1l.5-.7.3-.2h.2V8l-.1.4-.2.2c-.1.2-.3.3-.4.3-.2.1-.3 0-.4 0-.2.1-.3.2-.1.3.2 0 .3.1.4 0l.3-.1c0-.1.2 0 .1.1-.2.2-.3.4-.6.4-.2 0-.2.1 0 .2.3 0 .5-.1.7-.3h.1c0 .4-.2.5-.4.5s-.2.1 0 .2c.2.2.4-.1.5-.3.1-.2.2-.1.2 0 0 .2 0 .4-.3.6l.6.9.6-6.3-.6-1-.3-.3a.6.6 0 01.1 0c-.1-.2-.2-.2-.5-.3h.3a1 1 0 00-.4-.3c.1 0 .2 0 .3-.2a2.7 2.7 0 01-.6 0 1.2 1.2 0 00-.4-.2zm0 .3h.2l-.2.1h-.2l.2-.1zm0 0"/><path d="M11.5 2.7c.1 0 .4 0 .4.2.4 0 .4 0 .4.2h-.1c0-.1-.1 0-.2 0a.6.6 0 00-.1 0h.3a.5.5 0 00.2 0l.1-.1c.1-.1.2 0 .2 0 0 .2-.2.2-.3.2h-.6l.2.1h.3l-.3.1-.7.2-.3.3-.2.3c0 .3 0 .4.2.5l.4-.1v-.4V4a9.3 9.3 0 011-.4l.2.1a1.6 1.6 0 001.1-.7c.2-.2.4 0 .3.2 0 .3-.2.4-.4.6l-.9.2v.3c.4 0 .7 0 1-.3.2-.2.4 0 .3.2-.1.3-.7.4-1.3.3-.2 0 0 .2 0 .2.2.2.7.3 1 0 .2-.1.4 0 .3.2-.2.5-.8.4-1.3.1-.1 0-.2.1 0 .2.5.4.8.4 1 .2.4 0 .4.3.2.4-.2 0-.8 0-1.1-.2-.2-.2-.2 0-.1.1.4.4.6.5 1.1.4.3 0 .3.3 0 .4-.2.1-.7-.1-1-.4-.3-.1-.3 0-.2.2l.7.5a.9.9 0 00.6 0c.1 0 .2.2 0 .3h-.5a1.7 1.7 0 01-.8-.5c-.1-.1-.1 0 0 .2.3.6.7.8 1.2.8.2 0 .3 0 .1.2-.2.2-.5.2-.8 0a24 24 0 01-.9-.9c-.1-.1-.2 0-.1.3 0 .1.1.3.4.4.2 0 0 .2-.1.2 0 0-.3 0-.4-.2l-.3-.6c0-.1-.2 0-.2 0 0 .4.1.4.3.5.1.2-.1.2-.2.1a1 1 0 01-.4-.5c0-.1-.2 0-.2.2.2.5.5.7 1 .8h.2l-.3.3 1 .2.4-.3s.1-.2.3-.1h.4l-.3.1c0 .2-.2.2-.3.1l-.3.3h.5c.2-.2.3-.2.5 0h.2H13l.2.2c.3 0 .5 0 .5.3v.2a.3.3 0 00-.1-.2c-.3 0-.3 0-.4-.2 0 0-.3 0-.4-.2a9.5 9.5 0 00-.3.1c-.1.2-.2.2-.4.2s-.2.1-.2.2v-.3c.1-.1.2-.2.4-.1l.3-.1-1-.3-.2.2h-.1l-.5-.7-.3-.2h-.2V8l.1.4.2.2c.1.2.3.3.4.3.2.1.3 0 .4 0 .2.1.3.2.1.3a.6.6 0 01-.4 0l-.3-.1c0-.1-.2 0-.1.1.2.2.3.4.6.4.2 0 .2.1 0 .2-.3 0-.5-.1-.7-.3h-.1c0 .4.2.5.4.5s.2.1 0 .2c-.2.2-.4-.1-.5-.3-.1-.2-.2-.1-.2 0 0 .2 0 .4.3.6l-.6.9L9.4 5l.6-1 .3-.3a.6.6 0 00-.1 0c.1-.2.2-.2.5-.3h-.3a1 1 0 01.4-.3c-.1 0-.2 0-.3-.2a2.7 2.7 0 00.6 0l.4-.2zm0 .3h-.2l.2.1h.2l-.2-.1zm0 0"/></svg>