<svg xmlns="http://www.w3.org/2000/svg" width="20" height="14"><path fill="#006" d="M0 0h20v14H0z"/><path d="M-11.7 7l32 7.5v-15zm0 0" fill-rule="evenodd" fill="#bd1021"/><path d="M20.3.3v13.4L-8.3 7zm0 0" fill-rule="evenodd" fill="#fff"/><path d="M478 297.5s-6.4-5.3 1.3-13.8c-4.2-3.4-.4-10-.4-10s-7-2.8.4-13.5c-5.4-3.5-3-11.4-3-11.4s-17-6.3-1-12.4c-13.3 5.7-25.8-8-25.8-8l-19.4.8c-3.4-16.3-29-2.2-10-48.7-4.9-.8-10.4-2.2-16 1.8-5.4 4.1-21.1 12.8-30.4 4.1-9.3-8.7 6-21.3 6.4-21.5.3-.3 20.6-10.7 23.5-17.7-.4-5.2-6.7-9.3-.9-20.6 6.7-10.8 47.7-21 66.3-24.5a29 29 0 0013-12l2.1 7.7s41.3-12.2 43.3-18c2-5.7.9 5.2.9 5.2 16.2-1.6 37-15.4 39.8-9 13.6-2.6 39.8-14.3 39.8-14.3s9-.4 2.6 9.5c4 6.5-1.3 12.1-1.5 12.1s1.8 6.3-3.4 9.8c1.6 5.5-3.2 10-3.2 10s2.4 6.6-7 10c.9 6-5.1 7-5.1 7s.7 6-3.3 8.7c0 4.7-4.8 7.1-4.8 7.1s3 1.6-1 4.6c-15.3 9.8-30.7 19.3-46.3 28.5 0-.3 30.9 5.5 32.9 6.6 2 1 25.3 16.6 25.3 16.6l-23.6 29s-26.1-2.8-27.3-1.4c-1.2 1.4 5.5 2 7 4.4 1.4 2.3 3.8 7.8 8.4 7.2 4.6-.5-8.7 8.5-17.4 9.3 0 3.2 11 3.5 14 1 2.8-2.6-7 7.5-8.2 9-1.3 1.5 13-2.1 13-2.1s-2.3 9.6-14.8 12.6c5 8 3 13.2 2.7 13.2-.3 0-8.1-8-15.6-6.5 2 7.7 8 15 9.8 16.2 1.6 1-13.7.9-15.7-3.7-2-4.4-3.8 10.6 1.7 15.3-6.4.3-11.9-3.5-11.9-3.5s-3.8 8.7-1.2 13c2.6 4.4-9-8.7-9-8.7l-22 9.3zm0 0" transform="scale(.03125 .02917)" fill-rule="evenodd" fill="#9c3900" stroke-width="1.8" stroke-linejoin="round" stroke="#000"/><path d="M307.3 280c.4 0 32-.4 46.6-8.7a91.7 91.7 0 0017 19l4.7-16.4s11.4.5 12.4 3c-1.5 3.1-2 7.3-2 7.3s7.8.7 8.3 1.6c.4 1-2 9.8-2 9.8l33 7.7s2.6-13 5.2-11.3c2.6 1.6 14 17.6 30 18.6s17-13.4 17-13.4l3.8 2s6.6-14.3 7.7-14.3 2.5 1.8 11.3 1.8c2.6 3.3 3.7 10.5 3.7 10.5s-9.9 9.8-6.8 17.7c3 7.7 3.7 5.6 3.7 5.6l71.4 17s3.6 5.8-2.5 8.8c0 .4-72-16.4-72-16.4s-6.8 7.6-12 6.1c-5.2-1.4-1.6 3-1.6 3l77.7 6.3s5.7 7.2 1.6 9.3c-5.3.4-83.9-5.2-83.9-5.2s-4.6 10-9.9 1.6c-3.4 5.7-7.7-1.6-7.7-1.6s-6.8 5.2-7.8-.5c-5.6 4.1-9.2-2.6-9.2-2.6l-33.3-2-2 3s5.8 1.6-3 5.2c-8.8 3.8 52.8 2.1 54.3 2.5 1.6.7-4.1 5.3-4.1 5.3s31.5 2 37.2-4.6c5.6-6.8-2 8.9-2 8.9s24.8-1.1 24.8-2.2c0-1-.5 7.6-17.6 6.7 7.3 4.6 15.2 8.2 23.3 10.9 0 0-13 3-28-.4 2.6 6.7 14 12.8 14 12.8s-8.4 7.2-26.9-10.4c5.2 9.3 1 13 .6 12a48.7 48.7 0 00-30-18.7c13 8.3 7.2 12 7.2 12s-6.8-12-17.6 0c-4.1-11-20.1-17.3-39.9-18.2-6.3-7.2-9.8-5.2-24.3-9.2-8.3-9.4-20.2-19.9-20.2-19.9s.5-13.9 14.5-12.3c1.6 4.7 1.6 3.1 1.6 3.1s15.5-5.8 20.1 2c6.8-11.8 16-1.7 17.6 2.4 4.4.7 27 1.4 27 1.4s-2.7-4.9-1-4.2c1.4.5 14-4.7 13.4-6.1-.6-1.7-1-6.9 1-6.3 2 .5-17.6-2.6-28.4 5.6-3.7-3.6-1-13.4-1-13.4l-32-6.7-1.7 8.2s-9.4 1.6-8.9-.4l-2 7.2s-12.4-3-12.4-3.8l3.6-17.9c0 .4-10.4 1-24.8 11.8-4.2-13-36.9-30-36.9-30.6zm0 0" transform="scale(.03125 .02917)" fill-rule="evenodd" fill="#ffc221" stroke-width="1.9" stroke="#000"/><path d="M386 284.9l-6.8 30m13-18.8l-2 10m35-2l-3 9.2m60.6 53.7c-.6 0-16.6 2.1-18.7 1.6-2-.6 25.4 8.3 25.4 11.9m-35.8-9.8s-16-10.4-18.6-9.4c-2.5 1 16-.5 17.6-2m-32-.5s-16.6.5-18.2-1c-1.6-1.5 16 11.3 19.3 10.2m-33.2-16.4c-.5 0-11.4-4.2-16-5.3 4 4.2 7.1 10 17.5 12m2.6-13.4c-.4-1.1-20.7-7.4-20.7-10.5a33 33 0 0017.6 2.2M499.7 321l-2 9.3" transform="scale(.03125 .02917)" fill="none" stroke-width="1.9" stroke="#000"/><path d="M347.8 237.7s-21.8 18.6 0 29.5c1-7.2 2.4-8.3 2.4-8.3s18 6.7 29-9.3c-4.6-6.8-13-4.2-13-4.2s-17 0-18.4-7.7zm0 0" transform="scale(.03125 .02917)" fill-rule="evenodd" fill="#ffc221" stroke-width="1.9" stroke="#000"/><path d="M365.8 246l-15 12.9m61.2 76.9s3.5 3.8.4 8.5m72.4-4.7l-5.7.4m-40.9-3.4l10.4 1.4m17.5-28s.3 10.4-8.4 10c-8.8-.2-6 .4-6 .4" transform="scale(.03125 .02917)" fill="none" stroke-width="1.9" stroke="#000"/><path d="M472.8 308s3.4 1.2 2.6 4c-.9 2.5.9 10.1-9.3 17.5-10.9 2.2-9.6-9.1-9.6-9.1" transform="scale(.03125 .02917)" fill="none" stroke-width="1.9" stroke="#000"/><path d="M476.6 311.4s6.3-3.8 7.1 2.3c1 6-5 17.4-9.4 19.2-4.4 1.7-9.4-.4-8.8-3.2m18.9-15.6s5.9-4.9 7.6 1.3-4.8 19.8-7.3 20m7.8-20s3-1.3 5 .3m-14.3 20.6c-1 .3-6 .7-7.8-3.2m-18.3-7l-6.1.4m28.4 22.7l-.5-9.7-2.4-3.2-4 4.1s-.6 9.6-2.4 10.5m2.4-10.9l-3.3-5.8-5 5.8s-.4 8.8-2.2 9.7m2.3-10l-2-5.7s-5.8 3.2-6.4 5.5c-.6 2.4-.9 8.7-2.3 9.3m2.3-10.4s.6-5.3-1.1-5.3-9.6 7.3-10 13.6" transform="scale(.03125 .02917)" fill="none" stroke-width="1.9" stroke="#000"/><path d="M348.4 237.9s2.9-3 3.9-6.5c.7-3.5-1.3-7.2 2.2-10.4s49.4-22.7 53.3-26.5c4-4.2 8-8.7 11.4-13.6 1-1.8 3.6 8.7-4.3 13.3 8.5-2.3 14-5 17.5-3.8-3.5 5-12.8 13-17.1 13 10-3.6 19.4-7 22-4.8 2.6 2-12.6 12.2-18.6 12.7 10.2-2.5 23.8-6.7 25.6-2.2-5.6 1.7-3.8 3.2-15 9.6-3 1-5.8 1.3-8.8 1.3 8.8-.8 20.6-4.2 21.8 2-7 2.9-9.6 6.2-15.4 7.7-5.9 1.5-19.1 4-27.4 7.4-8 3-20 12.4-20 12.4s-25.9.8-25.9.5c0-.4-5-11.9-5.2-12.1zm0 0" transform="scale(.03125 .02917)" fill-rule="evenodd" fill="#fff" stroke-width="1.9" stroke-linejoin="round" stroke="#000"/><path d="M360.6 235.8s.3-5.8 3-7.9c2.5-2 15.6-7 18.5-11.3 3-4.3-4.4 7.6-3.2 10.8m-13-.3s6.4 2.3 4.9 7.1" transform="scale(.03125 .02917)" fill="none" stroke-width="1.9" stroke="#000"/><path d="M373.4 230.4a4.8 4.8 0 01-9.6 0c0-2.6 2.2-4.9 4.8-4.9s4.8 2.3 4.8 4.9zm0 0" transform="scale(.03125 .02917)" fill="none" stroke-width="1.6" stroke="#000"/><path d="M570.1 220l50.3 9.7s5.5-6.4 2.6-10c7.6-1.7 5.5-11.4 5.5-11.4s8.8-4 1.5-12.6c5-5-1.3-8.7-1.3-8.7s2-8.7-4.2-9.5c1.8-7.1-11-9.4-11-9.4s-26.5 7.3-45.1 7.7c6 6.2-2.3 10-2.3 10s4.9 3.4 3.4 6.4c-1.4 3 1 6.1-5.5 8.2 8.4 3.7-.9 10.1-.9 10.1s9.3 6.5 7 9.5zm0 0" transform="scale(.03125 .02917)" fill-rule="evenodd" fill="#fff" stroke-width="1.9" stroke="#000"/><path d="M565.3 209.5s44.3 5 46.5 5c2 0 9.7 2.7 11.2 5.3m-55.5-13l61.9 1.5m-61.6-3.1s58.7-3.4 62.8-9.5m-61-3.2s59-6.3 59.5-5.5m-61.6-1.8s57.3-9 57.8-7.5m-221-29.4s18 19.8 16.2 33.2" transform="scale(.03125 .02917)" fill="none" stroke-width="1.9" stroke="#000"/><path d="M419.3 171s5.8 8.5 8 9.3c2.4.9 22.8 2 24 10.8 1 5.5-4.4 3.8-3.6 7.8 1.6 5.2 15 12 30 4m-13.7 4.2s12.3 17.9 30.3-1.5m-9.4 7.7s14.9 8 27-12.4m-15.6 14.3s7.2 6 22.3-2m20.9-8.2s22.4 4.6 23.8 6M548 200l15.8.6m-25.4-9.3s26.9-1.7 30.4 3.8m-42-12.2s37.5 1.7 39.2 3.7m-30.8 34.8s6.4-1.8 7.3-1m-21.8 16.7s8.4 7 19.2 3.8m-14.5 8.3s9.6 4.3 20.9 1.6m-17.7 5.5s9.6 6.5 16 5.4m-20.4-1.5s6.7 5 7 7.7m-16.3-2s2 10.7 9.4 14.4m-14.3-9.6s-3.3 13.6 4.9 22m-13.4-11.3c0 .3-.5 6.4-.3 7m-52-60l15.7-.7s5.9-2.4 1.9-6m2 3.4c.2 0 14.7 1.1 18.4 5.5 4 4.3 8.6 13 11 14.5 2.8 1.5 3.3-.5 3.3-.5m-6.4-2.5s-7.9 13.4-1.7 17.5m-2.6-2.6s-7 9.3-1.6 14m-1.3-1.1s-5.5 9 1.1 15m-3.6-39c-.3.4-6.6 5-9 3.7m2.4 10.5s2.4 2.7 4.8 2.3m-4.6 11.4l4.3 2.8m-3.7 7.6l3.6 2.1M414 141.7s7.7 4 13.9 0c6-4 35.3-19 43-21.4 7.6-2.4 12-16.5 13.4-22.7m-5.8 16.6l42.9-12.5s7-5.8 7.2-16.5m-3 11.6s42.8-4.3 42.8-20.2m-6.8 11s45-12.2 49.3-16.7" transform="scale(.03125 .02917)" fill="none" stroke-width="1.9" stroke="#000"/><path d="M436.3 151.5s27-14 31.4-15.6c4.3-1.4 14-13.8-.6-13.8" transform="scale(.03125 .02917)" fill="none" stroke-width="1.9" stroke="#000"/><path d="M449.4 157c.4 0 22.4-14.4 29.6-16.2 4-5.5 1.8-11.3-4.9-10" transform="scale(.03125 .02917)" fill="none" stroke-width="1.9" stroke="#000"/><path d="M480.9 137.1c.6-.4 11.9-.6 7.9 8.3a442.3 442.3 0 01-31 16.8m17.2-34.6l47.8-15.9s4-8.2-2-9.4M560.7 88c0 .4 6.1 3.7 2.4 9.2-6.8 4-38.4 11.6-38.4 11.6M609 83l-45 12.6m41.6-2.5l-39 12m35.8-2.2l-34.7 10.4m28.1-.7c-1 0-25.6 7.7-25.6 7.7m20.1 0l-16 6.4m12 2.1l-13.7 6m9.8 1.1l-12.2 5.8m-8.9 7.4s1.5.5 1.2 2.4m-32 14.3s5.1 1.9.4 6.8c-2.5 3.2-9.5 2.4-14 8.5m47-83.7s6.3 1.4 1.5 9.7c-13 5-39 12.9-39 12.9s-1 2.1-4.5 4a826.2 826.2 0 01-40.3 12.2m84.3-29.3s7 3 0 8.1c-8 4.7-35.7 13.3-35.7 13.3s-.4 2.4-1.6 3.4c-1.3.9-37.9 13-37.9 13" transform="scale(.03125 .02917)" fill="none" stroke-width="1.9" stroke="#000"/><path d="M567.6 115s7.4 2.3 1 8.3c-10.5 5-21.1 9.3-32.1 13 0-.1-2.5 2.9-6.5 4.2a968 968 0 00-29.3 11.6m68.8-28.8c2.1 1 8 2 .9 7.4a890.3 890.3 0 01-28.4 11.7l-1.9 3.3-32 13.7m63.1-27.7s3 3.6-3.6 7.9c-7.4 4-23.2 10-23.2 10m23.2-9.4s3.4 2.2-.9 5.2l-24 12.5-12.6 8.3" transform="scale(.03125 .02917)" fill="none" stroke-width="1.9" stroke="#000"/><path d="M523.6 112c0 .4 5.1 4.7 3.4 9.5 4.6 3.5 3.8 7 3.8 7s6.3 3.7 5.5 9c6.3 1.5 6 5.1 6 5.1l-2 3.4s6.2-.3.7 8c3.4 1.8 1.9 3.9 1.9 3.9m-1.9-3.7c-.9 0-22.3 8-27.8 13" transform="scale(.03125 .02917)" fill="none" stroke-width="1.9" stroke="#000"/><path d="M489.4 144.8s6.4-.3 5.5 6.7c7.4-2.4 5.9 4.7 5.9 4.7s8.4-3.5 7 7.2c5.4-1.2 4.4 4.3 4.4 4.3s5-.3 5 2.4c3.4-3 7-1.5 7-1.5s2.5-3.5 6-2.4m-35-15c0 .5-28.7 16.5-28.7 16.5m34.3-11.3L479 169.8m29-6.7c0 .3-18.9 11.3-18.9 11.3m23.1-7s-13.3 11-16.5 10.5m21.2-7.1s-7.6 5.7-14 8.5m22-11s2.4 3-12.9 11" transform="scale(.03125 .02917)" fill="none" stroke-width="1.9" stroke="#000"/></svg>