<svg xmlns="http://www.w3.org/2000/svg" width="20" height="14"><path fill="#39c" d="M0 0h20v14H0z"/><path d="M0 9.3v.8h22.5v-.8zM0 11v.8h22.5v-.8zm0 0" fill="#ff0"/><path d="M4.5.8V1zm.1.2zm0 0" fill="#9cc"/><path d="M4.4 1v.2V1m.2 0zm0 0" fill="#ccf"/><path d="M4.3 1.3zm0 0" fill="#6cc"/><path d="M4.5 1.3zm0 0" fill="#c66"/><path d="M4.6 1.3h.1zm0 0" fill="#6cc"/><path d="M4.3 1.3v.1zm.3 0l.1.1zm0 0" fill="#ccf"/><path d="M4.4 1.4v.1m.2 0zm0 0" fill="#fcc"/><path d="M4.2 1.5zm0 0" fill="#6cc"/><path d="M142.3 34l-20.8 78.5-78.8 21.6 78.5 20.5 21 78.3 21-78.3 78.3-21-78.4-21-21-78.4zm0 0" transform="scale(.03125 .02917)" fill="#c00" stroke-width="3.7" stroke="#fff"/><path d="M4.7 1.5h.1zm0 0" fill="#6cc"/><path d="M4.7 1.6h.1zm0 0" fill="#9cf"/><path d="M4.6 1.7h.1zm0 0" fill="#fcc"/><path d="M4 1.8h.2zm0 0" fill="#69c"/><path d="M4.7 1.8zm0 0" fill="#c33"/><path d="M4.8 1.8H5zm0 0" fill="#69c"/><path d="M4 1.9h.2H4m.7 0H5zm0 0" fill="#9cf"/><path d="M4.7 2h.1zm0 0" fill="#fcc"/><path d="M4 2v.1zm1 0v.1zm0 0" fill="#69c"/><path d="M5 2.1zm0 0" fill="#9cc"/><path d="M5 2.2zm0 0" fill="#cff"/><path d="M4 2.3h-.1zm0 0" fill="#69c"/><path d="M4 2.3h.2H4m.7 0H5zm0 0" fill="#fcc"/><path d="M5 2.3h.1zm0 0" fill="#69c"/><path d="M4 2.4h-.1zm0 0" fill="#9cc"/><path d="M4.8999999999999995 2.4zm0 0" fill="#c33"/><path d="M5 2.4h.1zm0 0" fill="#9cc"/><path d="M4 2.5h-.1m1.1 0h.1zm0 0" fill="#cff"/><path d="M4 2.5v.1m1 0zm0 0" fill="#fcc"/><path d="M3.8 2.6l.1.1zm0 0" fill="#9cc"/><path d="M5 2.7zm0 0" fill="#c33"/><path d="M5.1 2.6l.1.1zm0 0" fill="#9cc"/><path d="M3.8 2.7l.1.1m1.2 0h.1zm0 0" fill="#ccf"/><path d="M4 2.8h-.1m1.1 0h.1zm0 0" fill="#fcc"/><path d="M3.7 2.9h.1zm0 0" fill="#9cc"/><path d="M5 3zm0 0" fill="#c33"/><path d="M5.2 2.9zm0 0" fill="#9cc"/><path d="M3.7 3h.1m1.4 0zm0 0" fill="#ccf"/><path d="M3.8 3l.1.1M5 3h.1zm0 0" fill="#fcc"/><path d="M3.6 3.1l.1.1zm0 0" fill="#9cc"/><path d="M3.8 3.1l.1.1m1.2 0h.1zm0 0" fill="#c33"/><path d="M5.3 3.1v.1m-2 0l.1.1zm0 0" fill="#9cc"/><path d="M3.4 3.2l.1.1m2 0zm0 0" fill="#ccf"/><path d="M5.6 3.2v.1M3 3.2v.1zm0 0" fill="#9cc"/><path d="M3.2 3.3v.1zm0 0" fill="#ccf"/><path d="M3.5 3.3l.1.1zm0 0" fill="#fcc"/><path d="M3.6 3.3l.1.1m1.6 0zm0 0" fill="#c33"/><path d="M5.4 3.3v.1zm0 0" fill="#fcc"/><path d="M5.8 3.3v.1zm0 0" fill="#ccf"/><path d="M5.8 3.3l.1.1zm0 0" fill="#9cc"/><path d="M2.7 3.4h.1zm0 0" fill="#69c"/><path d="M2.8 3.4zm0 0" fill="#9cc"/><path d="M2.9 3.4zm0 0" fill="#cff"/><path d="M3.3 3.4zm0 0" fill="#fcc"/><path d="M5.5 3.4h.1zm0 0" fill="#c33"/><path d="M5.7 3.4zm0 0" fill="#fcc"/><path d="M6 3.4h.1zm0 0" fill="#cff"/><path d="M6.1 3.4h.1zm0 0" fill="#9cc"/><path d="M6.2 3.4h.1m-3.9 0l.1.2zm0 0" fill="#69c"/><path d="M2.5 3.5h.1zm0 0" fill="#9cc"/><path d="M2.6 3.5h.1zm0 0" fill="#cff"/><path d="M3 3.5zm0 0" fill="#fcc"/><path d="M5.800000000000001 3.5zm0 0" fill="#c33"/><path d="M6 3.5zm0 0" fill="#fcc"/><path d="M6.3 3.5h.1zm0 0" fill="#cff"/><path d="M6.4 3.5zm0 0" fill="#9cc"/><path d="M2.0999999999999996 3.5l.1.2zm0 0" fill="#69c"/><path d="M2.2 3.6h.1zm0 0" fill="#9cf"/><path d="M2.7 3.6h.1zm0 0" fill="#fcc"/><path d="M6.1 3.6zm0 0" fill="#c33"/><path d="M6.2 3.6h.1zm0 0" fill="#fcc"/><path d="M6.7 3.6zm0 0" fill="#9cf"/><path d="M6.8 3.6zm0 0" fill="#69c"/><path d="M1.9 3.7zm0 0" fill="#6cc"/><path d="M2 3.7zm0 0" fill="#9cf"/><path d="M2.3 3.7h.1zm4.3 0zm0 0" fill="#fcc"/><path d="M7 3.7zm0 0" fill="#9cf"/><path d="M7 3.7h.1m-5.5 0v.1zm0 0" fill="#6cc"/><path d="M1.7 3.7v.1zm0 0" fill="#ccf"/><path d="M2 3.7l.2.1zm0 0" fill="#fcc"/><path d="M6.7 3.8h.1zm0 0" fill="#c33"/><path d="M6.9 3.7v.1zm0 0" fill="#fcc"/><path d="M7.2 3.7l.1.1zm0 0" fill="#ccf"/><path d="M7.3 3.7l.1.1zm0 0" fill="#6cc"/><path d="M1.3 3.8l.1.1zm0 0" fill="#9cc"/><path d="M1.4 3.8l.1.1zm0 0" fill="#ccf"/><path d="M1.8 3.8V4zm5.3 0l.1.1zm0 0" fill="#fcc"/><path d="M7.5 3.8V4zm0 0" fill="#ccf"/><path d="M7.6 3.8V4M1 3.8l.1.1zm0 0" fill="#9cc"/><path d="M1.6 4zm5.7 0h.1zm0 0" fill="#c66"/><path d="M1.2999999999999998 4h.1zm0 0" fill="#9cc"/><path d="M1.4 4h.1zm0 0" fill="#ccf"/><path d="M7.1 4h.1zm0 0" fill="#fcc"/><path d="M7.5 4zm0 0" fill="#ccf"/><path d="M7.6 4zm0 0" fill="#9cc"/><path d="M1.6 4v.2V4zm0 0" fill="#6cc"/><path d="M1.7 4v.2V4zm0 0" fill="#ccf"/><path d="M2 4l.2.2L2 4zm0 0" fill="#fcc"/><path d="M6.7 4.1h.1zm0 0" fill="#c33"/><path d="M6.9 4v.2V4zm0 0" fill="#fcc"/><path d="M7.2 4l.1.2V4zm0 0" fill="#ccf"/><path d="M7.3 4l.1.2V4M1.8 4v.2zm0 0" fill="#6cc"/><path d="M2 4.2zm0 0" fill="#9cf"/><path d="M2.3 4.2h.1zm4.3 0zm0 0" fill="#fcc"/><path d="M7 4.2zm0 0" fill="#9cf"/><path d="M7 4.2h.1zm0 0" fill="#6cc"/><path d="M2.1 4.3h.1zm0 0" fill="#69c"/><path d="M2.2 4.3h.1zm0 0" fill="#9cf"/><path d="M2.7 4.3h.1zm0 0" fill="#fcc"/><path d="M6.1 4.3zm0 0" fill="#c33"/><path d="M6.2 4.3h.1zm0 0" fill="#fcc"/><path d="M6.7 4.3zm0 0" fill="#9cf"/><path d="M2.3999999999999995 4.3l.1.1zm0 0" fill="#69c"/><path d="M2.5 4.3l.1.1zm0 0" fill="#9cc"/><path d="M2.6 4.3l.1.1zm0 0" fill="#cff"/><path d="M3 4.3v.1zm0 0" fill="#fcc"/><path d="M5.800000000000001 4.4zm0 0" fill="#c33"/><path d="M6 4.3v.1zm0 0" fill="#fcc"/><path d="M6.3 4.3l.1.1zm0 0" fill="#cff"/><path d="M6.4 4.3v.1zm0 0" fill="#9cc"/><path d="M6.5 4.3v.1m-3.8 0l.1.1h-.1zm0 0" fill="#69c"/><path d="M2.8 4.4v.1zm0 0" fill="#9cc"/><path d="M2.9 4.4v.1zm0 0" fill="#cff"/><path d="M3.3 4.4v.1zm0 0" fill="#fcc"/><path d="M5.5 4.5h.1zm0 0" fill="#c33"/><path d="M5.7 4.4v.1zm0 0" fill="#fcc"/><path d="M6 4.4l.1.1zm0 0" fill="#cff"/><path d="M6.1 4.4l.1.1zm0 0" fill="#9cc"/><path d="M6.2 4.4l.1.1zm0 0" fill="#69c"/><path d="M3 4.5l.2.1zm0 0" fill="#9cc"/><path d="M3.2 4.5v.1zm0 0" fill="#ccf"/><path d="M3.5 4.5l.1.1zm0 0" fill="#fcc"/><path d="M3.6 4.5l.1.1m1.6 0zm0 0" fill="#c33"/><path d="M5.4 4.5v.1zm0 0" fill="#fcc"/><path d="M5.8 4.5v.1zm0 0" fill="#ccf"/><path d="M5.8 4.5l.1.1m-2.5 0zm0 0" fill="#9cc"/><path d="M3.4 4.6l.1.1m2 0zm0 0" fill="#ccf"/><path d="M5.6 4.6v.1m-2 0h.1zm0 0" fill="#9cc"/><path d="M3.8 4.7H4m1.2 0h.1zm0 0" fill="#c33"/><path d="M5.3 4.7zm0 0" fill="#9cc"/><path d="M3.8 4.8H4m1.2 0h.1zm0 0" fill="#fcc"/><path d="M3.7 4.9h.1zm0 0" fill="#ccf"/><path d="M5 5zm0 0" fill="#c33"/><path d="M5.2 4.9zm0 0" fill="#ccf"/><path d="M3.7 5h.1m1.4 0zm0 0" fill="#9cc"/><path d="M4 5v.1h-.1M5 5h.1zm0 0" fill="#fcc"/><path d="M3.8 5.1l.1.1zm0 0" fill="#ccf"/><path d="M5 5.2zm0 0" fill="#c33"/><path d="M5.1 5.1l.1.1zm0 0" fill="#ccf"/><path d="M3.8 5.2l.1.1m1.2 0h.1zm0 0" fill="#9cc"/><path d="M5 5.3zm0 0" fill="#fcc"/><path d="M4 5.4h-.1zm0 0" fill="#cff"/><path d="M4.1 5.4v.1m.8 0zm0 0" fill="#c33"/><path d="M5 5.4h.1zm0 0" fill="#cff"/><path d="M4 5.5h-.1m1.1 0h.1zm0 0" fill="#9cc"/><path d="M4 5.6h-.1zm0 0" fill="#69c"/><path d="M4 5.6h.2H4m.7 0H5zm0 0" fill="#fcc"/><path d="M5 5.6h.1zm0 0" fill="#69c"/><path d="M4 5.6v.1zm1 0v.1zm0 0" fill="#cff"/><path d="M4 5.7v.1m1 0zm0 0" fill="#9cc"/><path d="M4 5.8V6m1 0zm0 0" fill="#69c"/><path d="M4.7 5.9h.1zm0 0" fill="#fcc"/><path d="M4 6h.2zm0 0" fill="#9cf"/><path d="M4.3 6v.1m.4 0zm0 0" fill="#c33"/><path d="M4.8 6H5zm0 0" fill="#9cf"/><path d="M4 6l.2.2L4 6m.7 0H5zm0 0" fill="#69c"/><path d="M4.6 6.2h.1zm0 0" fill="#fcc"/><path d="M4.2 6.2v.1zm.5 0l.1.1zm0 0" fill="#9cf"/><path d="M4.2 6.3v.1m.5 0h.1zm0 0" fill="#6cc"/><path d="M4.4 6.4v.1m.2 0zm0 0" fill="#fcc"/><path d="M4.6 6.5h.1zm0 0" fill="#ccf"/><path d="M4.3 6.6zm0 0" fill="#6cc"/><path d="M4.5 6.6zm0 0" fill="#c66"/><path d="M4.6 6.6h.1zm0 0" fill="#6cc"/><path d="M4.6000000000000005 6.8zm0 0" fill="#ccf"/><path d="M4.4 6.8V7m.1.1v.1zm0 0" fill="#9cc"/></svg>