<svg xmlns="http://www.w3.org/2000/svg" width="20" height="14"><path d="M0 0h20v14H0zm0 0" fill="#3f9c35"/><path d="M0 0h20v9.3H0zm0 0" fill="#ed2939"/><path d="M0 0h20v4.7H0zm0 0" fill="#00b9e4"/><path d="M11.8 7c0 1.2-1 2.1-2.3 2.1S7.2 8.1 7.2 7s1-2.1 2.3-2.1 2.3 1 2.3 2.1zm0 0" fill="#fff"/><path d="M11.9 7c0 1-.9 1.8-1.9 1.8C9 8.8 8.1 8 8.1 7S9 5.2 10 5.2c1 0 1.9.8 1.9 1.8zm0 0" fill="#ed2939"/><path d="M12 5.8l.2.7.7-.3-.3.6.7.2-.7.2.3.6-.7-.3-.2.7-.2-.7-.7.3.3-.6-.7-.2.7-.2-.3-.6.7.3zm0 0" fill="#fff"/></svg>