<svg xmlns="http://www.w3.org/2000/svg" width="20" height="14"><path fill="#cf142b" d="M0 0h20v14H0z"/><path d="M0 0h10v4.7H0zm0 0" fill="#00247d"/><path d="M0 0v.5l8.9 4.2H10V4L1.1 0zm10 0v.5L1.1 4.7H0V4L8.9 0zm0 0" fill="#fff"/><path d="M4.2 0v4.7h1.6V0zM0 1.6V3h10V1.6zm0 0" fill="#fff"/><path d="M0 1.9v.9h10v-1zM4.5 0v4.7h1V0zM0 4.7L3.3 3h.8L.7 4.7zM0 0l3.3 1.6h-.7L0 .4zm6 1.6L9.2 0h.7L6.7 1.6zm4 3L6.7 3.2h.7L10 4.3zm0 0" fill="#cf142b"/><path d="M17.3 4.3v4c0 1-2.3 1.4-2.3 1.4s-2.2-.4-2.2-1.4v-4zm0 0" fill="#fff"/><path d="M17.3 8.3c0 1-2.3 1.4-2.3 1.4s-2.2-.4-2.2-1.4V8l.1.3v-.3s0 .2.2.3c0 0-.1-.1 0-.4l.1.5V8v.4l.1-.3.1.3v-.1-.2l.1.2v-.2s0 .2.2.2v-.2 0l.2.2s-.1-.1 0-.2H16l.2-.2v.3l.2-.2v.2l.1-.3V8.1s.1.1 0 .2c0 0 .2 0 .2-.3v.3l.1-.2v.2l.2-.2-.1.2.1-.1v.1l.1-.1V8l.1.2zm0 0" fill="#2f8f22"/><path d="M516.6 205.4s-2.5.4-5.9-.5c-3-1-4.4-.7-5.4 0 0 0 1.3-2.5-2-4.7 0 0 1 2.7-.3 4 0 0-.6.4-1.4-.4 0 0-1.1-1.2-2.4-2 0 0 2.8-1 2.3-3.9-.5-2.6-2-2.9-2.8-3.3a5.4 5.4 0 000 2s-3-1.6 1-3.9 3.4-3.7 2.7-5a9.4 9.4 0 00-3-2.9s.9 1.4.6 2.4c-.1 1-2 1.6-1.6-.1.4-2 0-1.6 0-3.6 0 0 3.5 1.2 5-2.3 0 0 1.4-3.6-3.1-5.4 0 0 1 1.5.4 2.6 0 0-1 1.7-2 .4-1-1.3-2-1.7-1.8-3.5 0 0 4.1.5 3-3.9 0 0-.6 3-6-1 0 0 3.5-3.7 2.1-6.3 0 0-.4-1.4-4.1-.7 0 0 3.2-2 1.9-3.8 0 0-.7-1.2-3.8.4 0 0 1.3-2-1.8-4.2 0 0-2 1-3 2 0 0-2-2.6-3.3-3.6 0 0-2.4.9-3 3.6 0 0-1.1-1.2-3.6-2 0 0-1.2 2.2.4 4.2 0 0-1.2 0-3.3-1 0 0-2.4-1-2 1 .4 2 .5 2.5 1 3.5 0 0-5.4-1.3-5.1 1.6 0 2.2 1 4 2.4 5.3 0 0-3 4-5.4 1 0 0-1 1 1 3.5 0 0 2 2.2.2 3.5 0 0-2.1 1.7-3.1-1.6 0 0-3.5 3.3.6 6 0 0 2.6 1.5 5.3-.8 0 0-1 6.6-3.4 5.4 0 0-1.5-1.1 1.2-2.4 0 0-4-.6-4.6 3.2 0 0-.5 3 3 4.3 0 0 2.6.9-.1 2.9 0 0-2 1.5-.6 3.8 0 0 1.4 2.4-2.6 2.6 0 0-2 0-2.7-.2 0 0-.9 1.4-.3 3.3 0 0-2-1.5-6.3.1-4.4 1.7-4.1.4-4.4 1l-1.3 2s2.3 3 2.4 2.8l-.5 3.4 1.1.4 9-4 9.4-4.8 7.4.5 4.8 1 6 .6 4.4-2.5h6.6l7 3.5 8 4.8 4 .9 3.3-.3v-6.4zm0 0" transform="scale(.03125 .02917)" fill="#d40000" stroke-width=".5" stroke-linejoin="round" stroke="#000"/><path d="M443.5 213s3.5 1.8 5-.3c0 0 1.9-3.6-2.3-5 0 0 2.3-2.7-.2-5.2 0 0-1.3-1.3-3.5-.4 0 0-1-2-3.1-1.9 0 0-2 0-2.6 2.2 0 0-2.6-1.1-4 .4 0 0-2.6 2.6 1 5h2.3l2.4-1 2.8.7s-.8 2.6 2.2 5.4zm0 0" transform="scale(.03125 .02917)" fill="#d40000" stroke-width=".5" stroke-linejoin="round" stroke="#000"/><path d="M521.8 206.7c2.5-.5 4.8.9 5.8 3.2 2.1 5-2.5 7.9-2.5 7.9.3 1 .4 2.6.4 2.6 6.6.8 5.4 8.3 5.4 8.3l-2.1-1.8c-4-1.5-8 1.8-10.7 7.2-2.9 5.5-1.5 8-1 14.5s11 10.4 11 10.4l-8.2 21c-3.1 8.3-10 4.9-12 3.1-1.9-1.7-2.4-.6-3.3 0-1 .8 4.4 5-5.5 9s-11.5 7-13.2 8c-1.6 1-8.4.4-9-.5-.8-.8-.4-.8-3-2.4-2.5-1.5-6.8-3-11.5-5.2-4.6-2.3-4.6-5.3-4.5-5.8 0-.7 1.6-5.5-3.9-1.6s-10.3-1.9-10.3-1.9c-1-1.5-5.6-13.6-5.6-13.6-1-3.5-2.2-6.9-3.6-10 0 0-.3.5 3.8-1.8s6-6.2 7.3-10c1.4-4 0-10.5-.5-11.9-.5-1.2-3.5-7.3-7.4-8.7-3.6-1.2-6.2 2-6.2 2s-1.1-7.5 5.5-8.3c0 0 0-1.6.4-2.6 0 0-4.6-2.8-2.5-8 0 0 1.5-3.6 5.7-3.1l-1 2s-1 10.5 14.5 3.4c15.5-7.2 15-8.5 24-4l6.4-.1s9.3-4.4 12.3-2.6c3 2 13.7 8 13.7 8s10.4 4 12.5-3.3zm0 0" transform="scale(.03125 .02917)" fill="#64b4d1" stroke-width=".4" stroke="#000"/><path d="M475 252.7s-.5-3.3-1-5.3c0 0-1.3-3.4.8-5.8l2.4-2.8s1.6-2 3.4-2.3c0 0 1.9 0 2-.4s2.3-3.7 7.1 0c0 0 1.6-2.5 4-3 0 0 2.6-.7 4 1.1 0 0 2.8-2.1 5.3 1.5 0 0 3.4-2 6 1.9 0 0 3.3-1.8 5.4 1.9 2.1 3.4 1.7 5 1.7 5l1.6 5.5 5.5 6.9-12.8 4.8h-5.8l-11.5 3-20.4 1.6-5.6-6.7 8-7zm0 0" transform="scale(.03125 .02917)" fill="#fff" stroke-width=".5" stroke="#00247d" stroke-miterlimit="10"/><path d="M457.8 286.6s-3 .1-4.6 1a45 45 0 00-4.4 2.8s-1 1-4.6.4c0 0-6-1.5-6 3.2 0 0-7.3.6-4.3 7 0 0 2 5 6.2 1.5 0 0-2.7 3.8 2.5 5.3 0 0 3.6 1 4.8-2.8 0 0 .6-1.7-.8-3.4 0 0 1.8-.4 3-2.3 0 0-3.9 4.9.4 6.6 0 0 5.3 1.3 5.6-4.2 0 0-.5-2.6 1.6-3.4 0 0 4.2-1.1 6-5.7 0 0-6-3.2-5.4-6zm-12.3-48.2s-4.8-2.1-7 0c0 0-3-1.9-6.3 0 0 0-3 2-5.3 4.3 0 0-1.5 1.3-1 5.3 0 0 .9 3 .4 4.5 0 0-1-.3-3 2.2 0 0-2.7 3-5 .3 0 0 .7 3.8 5 3.2 0 0-2 1.6-.3 6 0 0 1.4 2.9-.8 6.7 0 0 3.8-1.4 3.7-6 0 0-.4-3 .9-5 0 0-1.3 1.8 1.3 6 0 0 2 2.9.4 5.8 0 0 3.8-1.2 3.4-5.7-.4-4.6-2.6-2.7-1.1-6.8 0 0 .3 2 1.4 3.2a6.5 6.5 0 012 5.9s2.2-2.9 1.7-5.7a10 10 0 00-1.1-3.7l7-4 3.6-6.3zm0 0" transform="scale(.03125 .02917)" fill="#d40000" stroke-width=".5" stroke-linejoin="round" stroke="#000"/><path d="M434.8 256.3s-3-.1-3.4-2.4m-5.1-1.4s1 0 2 .9c0 0 .6 1 1.6.8" transform="scale(.03125 .02917)" fill="none" stroke-width=".5" stroke="#000" stroke-miterlimit="10"/><path d="M13.7 7.2s-.1 0 0 0l-.1.2s.1 0 0-.1h.1zm0 0"/><path d="M484.9 256l1.9-.5-11.8-40.3-.4.2zm0 0" transform="scale(.03125 .02917)" fill="#784421" stroke-width=".4" stroke="#000"/><path d="M14 8.8h-.2l.2-.1h-.1zm0 0"/><path d="M436.4 307s-4.4-2.7-2-7.3c0 0 .7-1.3 2-1 0 0 2.7.8.6 4.6 0 0-1.1 2.5-.6 3.8zm8.9 4.4s-6.3-2.8-4.4-7.6c0 0 .6-1.7 2-1.7 0 0 2.4.3 1.9 3.5 0 0-.7 3 .4 5.8zm0 0" transform="scale(.03125 .02917)" fill="#64b4d1" stroke-width=".4" stroke="#00247d" stroke-miterlimit="2.6"/><path d="M13.9 8.6h-.1zm0 0"/><path d="M449.4 310.2s5-1.2 4-6.3c0 0-.5-2.2-2.5-1.9 0 0-2.5.7-.9 3.9 0 0 1 2.1-.6 4.3zm0 0" transform="scale(.03125 .02917)" fill="#64b4d1" stroke-width=".4" stroke="#00247d" stroke-miterlimit="2.6"/><path d="M471.5 203.7l4.8 1.6s4.4 2 10.3 0l4.4-1.7-3 4.7v2.2l1.8 2.8s-1 .5-4.6-1.6c0 0-3.6-2.9-8 0 0 0-2.4 1.6-4.4 1.6l2.8-3.2-1.1-3-3-3.5zm0 0" transform="scale(.03125 .02917)" fill="#f5ce00" stroke-width=".5" stroke="#000" stroke-miterlimit="2.6"/><path d="M14.1 8.9zm0 0" fill="#fff"/><path d="M518.8 213s-3.5 1.8-5-.3c0 0-1.8-3.6 2.5-5 0 0-2.4-2.7 0-5.2 0 0 1.3-1.3 3.5-.4 0 0 1-2 3-1.9 0 0 2 0 2.7 2.2 0 0 2.8-1.1 4.1.4 0 0 2.4 2.6-1 5h-2.4l-2.5-1-2.5.7s.7 2.6-2.5 5.4zm0 0" transform="scale(.03125 .02917)" fill="#d40000" stroke-width=".5" stroke-linejoin="round" stroke="#000"/><path d="M491 210.1s0 .8-.8.8c0 0-.7.4-1.2-.6v-.3c0-.4-.3-1.7 1.3-2.7 0 0 2-1.9 6.3.4 4 2.3 8.1 4.4 12.4 6.3 0 0 2.6 1.4 6.6 1.5 0 0 5.5.4 7.8-3.5 0 0 1.9-3 0-4.8 0 0-.6-.8-1.9-.7-.4.2-1 .3-1.5 1 0 0-.9 1.2.1 2.1 0 0 1.3.8 1.8-1 0 .3.4 1.5-.3 2.6 0 0-3.4 5-12.5-.1l-12-6.9s-6-3-9.7 2c0 0-2.9 4 .9 6.5 0 0 2.8 1.7 4.4-1 0 0 1.6-2.6-.7-3.7 0 0-2-1-2.8 1-.8 2 1.6 2.6 1.7 1.1 0 0 0-.2.2 0zm0 0" transform="scale(.03125 .02917)" fill="#f5ce00" stroke-width=".5" stroke="#000" stroke-miterlimit="2.6"/><path d="M443.3 231v-7.6c0-.5 0-1 1-1.7.8-.9 1.8-2 3 1.3 0 0 2.8-3 3.7-3.4 0 0 1.6-1.2 2.8.7 0 0 1.3-2.3 2.4-2.7 0 0 2.7-1.7 2.8 3.5l2.1-2s1.6-1.3 3.5.5c0 0 3 3.1 3.4 4 0 0 .8.9.8 2.2 0 0 0 1.6.8 2.5 0 0 1 .9 1.9 1 0 0 2.1.1 3 2.3 0 0 .3-.4 1.4 9.3v18l-12.1 14.4-19.4-5.6-7.6-3.2-2-5.6 7.6-4.8 4-11.2-1.1-7.6-2-4.4zm0 0" transform="scale(.03125 .02917)" fill="#e4cb5e" stroke-width=".4" stroke="#000" stroke-miterlimit="2.6"/><path d="M496.8 240.4l1-1.3 2-1.6s3.4 8.7 3.4 10.5v2.8s5 1.3 6 9l-4 7.7-6.6-3.7-1.9-1.3zm0 0" transform="scale(.03125 .02917)" fill="#784421" stroke-width=".4" stroke="#000"/><path d="M13.6 8.8zm0 0" fill="#fff"/><path d="M454.8 299.3s0-.6-.3-1.4c0 0-.3-.4-.3-1.2" transform="scale(.03125 .02917)" fill="none" stroke-width=".5" stroke="#000" stroke-miterlimit="10"/><path d="M459 221.1s0 1.9.6 3.4c.5 1.3 2.4 3.7 2.5 5" transform="scale(.03125 .02917)" fill="none" stroke-width=".4" stroke="#000" stroke-miterlimit="10"/><path d="M504.6 286.6s3 .1 4.6 1a45 45 0 014.6 2.8s.8 1 4.3.4c0 0 6.1-1.5 6.1 3.2 0 0 7.3.6 4.3 7 0 0-2 5-6.3 1.5 0 0 2.8 3.8-2.5 5.3 0 0-3.6 1-4.7-2.8 0 0-.6-1.7.9-3.4 0 0-1.8-.4-3-2.3 0 0 3.9 4.9-.4 6.6 0 0-5.3 1.3-5.6-4.2 0 0 .4-2.6-1.6-3.4 0 0-4.2-1.1-6-5.7 0 0 6-3.2 5.3-6zm0 0" transform="scale(.03125 .02917)" fill="#d40000" stroke-width=".5" stroke-linejoin="round" stroke="#000"/><path d="M456.6 229.6l5 40m-3.9-40.2l5.7 37.4m-4.6-37.6l6.4 37" transform="scale(.03125 .02917)" fill="none" stroke-width=".4" stroke="#000" stroke-miterlimit="10"/><path d="M469 263l1.8-.5-11.7-40.2h-.4zm0 0" transform="scale(.03125 .02917)" fill="#784421" stroke-width=".4" stroke="#000"/><path d="M462.4 227.7l11.9 29.8m-12.7-29.3l11.4 31" transform="scale(.03125 .02917)" fill="none" stroke-width=".4" stroke="#000" stroke-miterlimit="10"/><path d="M13.8 9v-.1.1zm0 0" fill="#fff"/><path d="M463 227.3l12 27.2M459.7 229l7.6 36.6" transform="scale(.03125 .02917)" fill="none" stroke-width=".4" stroke="#000" stroke-miterlimit="10"/><path d="M520.5 256c-5.3-3-6.5-9.6-6.5-9.6a21 21 0 011.4-12c3.4-7.3 9.4-8.6 9.4-8.6s-6 4-7.5 9.4c0 0-1.2 4.7-.5 9 .7 4.6.5 3.4 1.5 7l2.2 4.9zm0 0" transform="scale(.03125 .02917)" fill="#f5ce00" stroke-width=".5" stroke="#000" stroke-miterlimit="2.6"/><path d="M497.6 239l-22.4 7.2-1 9.9c-5.4 7.7-16.2 9-16.2 9l8.4 9 16 3.3 8.5-6.5 7.7-7c-.9-3.8-.4-9.4-.4-9.4 0-1 .4-3.2.4-3.2s-1.4-9-1-12.2zm0 0" transform="scale(.03125 .02917)" fill="#784421" stroke-width=".2" stroke="#000"/><path d="M474.4 253.7s14.7-4.7 23.5-8.3M467.3 262s18.4-3.3 31.3-10.8l4.6-3.2" transform="scale(.03125 .02917)" fill="none" stroke-width=".4" stroke="#000" stroke-miterlimit="10"/><path d="M503.3 250.8l-5 3.7s-20.6 9.3-36.3 9.7m36.3-3s-16 8.1-25 8.3" transform="scale(.03125 .02917)" fill="none" stroke-width=".4" stroke="#000" stroke-miterlimit="10"/><path d="M517 238.4s4.8-2.2 7 0c0 0 3-1.9 6.4 0 0 0 3 2 5.2 4.3 0 0 1.5 1.3 1 5.3 0 0-.9 3-.4 4.5 0 0 1-.3 3 2.2 0 0 2.8 3 5 .3 0 0-.6 3.8-5 3.2 0 0 2 1.6.3 6 0 0-1.3 2.9.8 6.7 0 0-3.8-1.4-3.5-6 0 0 .2-3-1-5 0 0 1.2 1.8-1.4 6 0 0-2 2.9-.3 5.8 0 0-3.9-1.2-3.4-5.7.3-4.6 2.5-2.7 1-6.8 0 0-.2 2-1.3 3.2a6 6 0 00-2 5.9s-2.1-2.9-1.6-5.7c.5-3 1-3.7 1-3.7l-7-4-3.5-6.3zm0 0" transform="scale(.03125 .02917)" fill="#d40000" stroke-width=".5" stroke-linejoin="round" stroke="#000"/><path d="M437.1 263.8s.6-3 3.6-1.8c0 0 1-5.1 6.6-5.3 5.3-.2 5.6 5.3 5.6 5.7 0 0 1.7-2.4 4.4-2 0 0 4.4-.4 3 7l.7 1s3.5-8.3 10.8-6.2c0 0 7 2.2 2.4 9 0 0 3.6 4.6 6.4 4.2 3-.4 5.6-1.4 8.5-6.6 3-5.2 9.8-6 11.5-5.8 1.6.4 3.1 1.6 3.4 2.8 0 0 3.6-12 16.6-10.3l5.1 2.8 2 .9-3 8.3-7 16.2-5.5 1.6-5.7-3.2-2 1-.1 4.8-7.5 5.5-5.1 2-5.8 4-1.4 3.5s-3.1-1.3-6.7 0l-1.1-2.9-3.6-3-13-6.2-2.2-7.7-2.4-1-2.7 3-3.8.4-5.9-3.8L437 264zm0 0" transform="scale(.03125 .02917)" fill="#fff" stroke-width=".5" stroke="#00247d" stroke-miterlimit="10"/><path d="M493.8 205s-5-.4-4.8 4.9" transform="scale(.03125 .02917)" fill="none" stroke-width=".5" stroke="#000" stroke-miterlimit="2.6"/><path d="M526.4 259.6c-8.6-2.7-11-12-11-12-1-4.4-.6-9 1.1-13 4-9.3 10.6-9.3 10.6-9.3 1.8-.3 3.5 1 3.8 2.8.4 2-1.1 2.7-1.1 2.7-2.3 1.3-3.8-.4-3.8-.4-1-1.2-.3-2.5-.3-2.5.7-.8 1.8-.4 1.8-.4 1 .3.8 1.5.8 1.5s.3-1.5-1-1.5c0 0-2.7-.6-5.7 3.3 0 0-4 5-4 11.7 0 0-.5 12.4 12.4 15.6 0 0-1.4 2-3.9 9.4 0 0-2.9 9.3-5.4 14.4 0 0-3.6 7.3-11.6 4.3 0 0-4.7-2.1-4.7-5.5 0 0-.3-3.2 2.5-3.3 0 0 2.9-.3 2.9 2.1 0 0 0 2.6-3 2 0 0-1-.2-1-1.3 0 0 .2-1 1.4-.6 1.4.6 0 0 0 0s-.4-.2-1 0c0 0-.4 0-.4.8 0 0 0 .6.6 1l1.4.3s.8 1.6 2.6 2c2.5.8 4.6 0 5.9-.8 1-1.1 2-2.3 2.5-3.7 1.7-3.7 3.2-7.5 4.5-11.3 0 0 1.5-4.9 2.7-7.3zm0 0" transform="scale(.03125 .02917)" fill="#f5ce00" stroke-width=".5" stroke="#000" stroke-miterlimit="2.6"/><path d="M502 283.3s1.8-.3 1.8 1.2c0 0-.2 1.8-2.8 1.4 0 0-2.5-.4-1.6-3.2 0 0 .6-2 3-1.7 0 0 2.4 0 3.4 3.2 0 0 .7 2.7-.7 5-1.5 2.5-5.2 4.2-7 5 0 0-7.4 2.9-9.5 4.5 0 0-3.4 2.4-1.9 4.6 0 0 .7 1 1.6 1 0 0 1 0 1-1 0 0 0 .6-.6.9 0 0-.7.4-1.4-.3 0 0-.8-.8-.2-2 0 0 .9-1.4 3-.6 0 0 1.6 1 1 2.9 0 0-.7 1.7-2.9 1.6 0 0-1.4 0-2.6-1-1.6-1.9-1.7-5-.2-6.7 0 0 1.4-1.9 4-3l7.5-3c2.2-1 4.1-1.9 5.4-3.4 0 0 1-1.2 1.4-3.4 0 0 .4-1.6-.6-2l-1-.2zm0 0" transform="scale(.03125 .02917)" fill="#f5ce00" stroke-width=".5" stroke="#000" stroke-miterlimit="2.6"/><path d="M502.3 283.3s1.7-.4 2.8 1.7c0 0 .6 1.3.6 2.1m.7-7.6s-1.8.3-.9 3c1 2.4 2.5 3 3 3.4" transform="scale(.03125 .02917)" fill="none" stroke-width=".5" stroke="#000" stroke-miterlimit="2.6"/><path d="M471.5 210.1s0 .8.8.8c0 0 .7.3 1-.6l.2-.3c0-.4.3-1.7-1.1-2.7 0 0-2.3-1.9-6.5.4 0 0-3.3 1.6-5.6 3l-6.8 3.5s-2.6 1.2-6.6 1.4c0 0-5.5.4-7.8-3.5 0 0-1.9-2.9 0-4.8 0 0 .6-.8 1.9-.6.5 0 1 .2 1.5.9 0 0 .9 1.2-.1 2.1 0 0-1.3.8-1.8-.9 0 .3-.4 1.3.4 2.5 0 0 3.3 5 12.4-.2l12-6.7s6-3.1 9.7 1.7c0 0 2.9 4-.9 6.7 0 0-2.7 1.8-4.4-1 0 0-1.6-2.6.7-3.7 0 0 2-1 2.9 1 .9 2-1.6 2.6-1.8 1 0 0 0-.2-.1 0zm-29.5 46c5.3-3 6.5-9.7 6.5-9.7a21 21 0 00-1.4-12 15 15 0 00-9.4-8.6s6 4 7.6 9.4c0 0 1.2 4.7.4 9-.7 4.6-.4 3.4-1.4 7zm0 0" transform="scale(.03125 .02917)" fill="#f5ce00" stroke-width=".5" stroke="#000" stroke-miterlimit="2.6"/><path d="M468.8 205s5-.4 4.7 4.9" transform="scale(.03125 .02917)" fill="none" stroke-width=".5" stroke="#000" stroke-miterlimit="2.6"/><path d="M436 259.6c8.8-2.7 11-12 11-12 1-4.4.6-9-1-13-4-9.3-10.6-9.3-10.6-9.3-1.8-.3-3.5 1-3.8 2.8-.4 2 1.1 2.7 1.1 2.7 2.3 1.3 3.8-.4 3.8-.4 1-1.2.3-2.5.3-2.5-.7-.8-1.8-.4-1.8-.4-1 .3-.8 1.5-.8 1.5s-.3-1.5 1-1.5c0 0 2.7-.6 5.7 3.3 0 0 4 5 4 11.7 0 0 .5 12.4-12.4 15.6 0 0 1.4 2 3.9 9.4 0 0 2.9 9.3 5.5 14.4 0 0 3.5 7.3 11.5 4.3 0 0 4.7-2.1 4.7-5.5 0 0 .3-3.2-2.5-3.3 0 0-2.9-.3-2.9 2.1 0 0 0 2.6 3 2 0 0 1-.2 1-1.3 0 0-.2-1-1.4-.6-1.4.6 0 0 0 0s.4-.2 1 0c0 0 .4 0 .4.8 0 0 0 .6-.6 1l-1.4.3s-.7 1.6-2.6 2c-2 .8-4.2.4-5.9-.8-1-1.1-2-2.3-2.4-3.7a97.2 97.2 0 01-4.6-11.3s-1.4-4.9-2.6-7.3l-.5-1zm0 0" transform="scale(.03125 .02917)" fill="#f5ce00" stroke-width=".5" stroke="#000" stroke-miterlimit="2.6"/><path d="M460.5 283.3s-1.6-.3-1.6 1.2c0 0 0 1.8 2.6 1.4 0 0 2.5-.4 1.6-3.2 0 0-.6-2-3-1.7 0 0-2.4 0-3.4 3.2 0 0-.7 2.7.7 5 1.5 2.5 5.2 4.2 7 5 0 0 7.4 2.9 9.5 4.5 0 0 3.4 2.4 1.9 4.6 0 0-.6 1-1.6 1 0 0-1 0-1-1 0 0 0 .6.6.9 0 0 .7.4 1.4-.3 0 0 .8-.8.2-2 0 0-.9-1.4-2.9-.6 0 0-1.8 1-1 2.9 0 0 .6 1.7 2.8 1.6 0 0 1.4 0 2.6-1 1.6-1.9 1.7-5 .4-6.7 0 0-1.6-1.9-4-3-1.7-.5-4.7-1.8-7.7-3-2.2-1-4.1-1.9-5.4-3.4 0 0-1-1.2-1.4-3.4 0 0-.4-1.6.6-2l1-.2h.1zm0 0" transform="scale(.03125 .02917)" fill="#f5ce00" stroke-width=".5" stroke="#000" stroke-miterlimit="2.6"/><path d="M460.3 283.3s-1.8-.4-3 1.7c0 0-.6 1.3-.6 2.1m-.6-7.6s1.8.3.9 3c-1 2.4-2.5 3-3 3.4m23-76.4s4.3-2.7 8.8.4" transform="scale(.03125 .02917)" fill="none" stroke-width=".5" stroke="#000" stroke-miterlimit="2.6"/><path d="M452.4 236s.6-2.6-2.1-6.7c0 0-2-3.9-2.8-6.3m6.3-2.7l2 5.5 2.3 5.8" transform="scale(.03125 .02917)" fill="none" stroke-width=".4" stroke="#000" stroke-miterlimit="2.6"/><path d="M454.4 238.7s1.7 1.7 1.5 4.6m-6.8-6.6s1.8.9 1.6 5.7c0 0 0 3.4 2.6 5.2m-4.6 1.2s5.7-.6 6 2.9c0 0 0 3.3 2 3.6 0 0 3 .2 3.6 3m-9.7-5.7s1 1.5 2 2.3m5.1-6s1.6 2.3 1.8 3.6M464 223s1.3 1.9 2.6 2.5m2.6 8s2.8 1.4 2.4 8.5c0 0-.4 4.2.8 6.4" transform="scale(.03125 .02917)" fill="none" stroke-width=".4" stroke="#000" stroke-miterlimit="10"/><path d="M456 228.8l.3.8s5 0 7.7-3.3l-.3-.8s-4.4-.1-7.6 3.3zm0 0" transform="scale(.03125 .02917)" fill="#784421" stroke-width=".4" stroke="#000"/><path d="M474.1 255.5s17.3-5 24-8" transform="scale(.03125 .02917)" fill="none" stroke-width=".4" stroke="#000" stroke-miterlimit="10"/><path d="M472.3 223.7l-.2-.4 8.5-3.4.1.5zm0 0" transform="scale(.03125 .02917)" fill="#784421" stroke-width=".2" stroke="#000"/><path d="M473 223.4l5.8 27.8m-4.8-28l6.5 27.6m-5.4-28.2l7.1 27.6m-4.3-28.5l9.7 20.4m-8.4-20.8l10.3 20.3m-9.4-20.9l11.1 20.4m-13 10.4l4.6-1.5m-7.8-1.2s12.8-3.8 22.6-7.7m-22.9 9s16.4-4.2 23-7.4m-18 20.7l1 2.7 2.3-.8-.8-2.7m4.2-1l.9 2.6 2.2-.8-.8-2.6m-13.4-14.6l-.2-3.7 21.4-6.4 1.1 3m-13.4.8l1 3m6.4-5.3l1.4 3m.4-3.5l1.4 2.8m.3-3.4l1.3 3m0-3.4l2.4-1.3 1 2.7m-2.2-2l1.1 2.8" transform="scale(.03125 .02917)" fill="none" stroke-width=".4" stroke="#000" stroke-miterlimit="10"/><path d="M444.6 276.2s-4.2-4.3 0-8.3c0 0-4.6-2.3-3.9-6m11.4 17.6s-4.4.5-3.1-7.8c0 0-1.8 3.3-2.4 5a4 4 0 001.6 4.6c.8.4 4.7 1.4 6-1.1m-7-13.5s-1.8 1.6-.4 4.5m2.2-4.1s.3 2.8 1.8 4.4m-.6-5.7s0 3.5 2.6 5.5m-1.3-6.7s0 4 2.8 6.3m11.3-.6s1.4-3.2 4.4-3c0 0-1.4.7-1.4 2.2 0 0-.2 2.4 2.4 2.6 0 0 2.1.3 3.3-.9" transform="scale(.03125 .02917)" fill="none" stroke-width=".5" stroke="#00247d" stroke-miterlimit="10"/><path d="M472.8 284.6s-7.6-3.5-6.7-8.4c0 0 .3-3.1 3.3-4.6m-1.6 3.2s-.7 2.2.8 3.6m.9-5s-1 2.4.6 4m1.1-5.3s-1 2 .3 3.8m-7 9.2s4 3.6 7.3 3.6m-8.6-2.4s3.8 3 6.2 3.5m-7.6-2.7s4.7 4 7.6 4.5m11.5 3.7s-4.6 2.6-1 5.2m-2-7.9l7.6-3.9m-5.8 5.3s7.7-4.6 10-5.7m-6 6s6.6-4.3 10-6.2m-5.7 6s4.5-3.3 8.8-6m1.4-4.3s-2-3.2-9.3 0c0 0 2.7-2.4 7.9-4.3m7.2-13.7s.6 2.6 0 4.2" transform="scale(.03125 .02917)" fill="none" stroke-width=".5" stroke="#00247d" stroke-miterlimit="10"/><path d="M492.4 278.4s1.5-2.2 5.4-3.3c0 0 1 2.5 4 2 0 0 4.3-1 3-5.8 0 0-1-3.6-6-4m15-6.1s5.2 1 5 5c0 0 .6 6.5-6 7.7m5.5-10s1.3-3.1 4.5-4.5m-3.8-1.9s1.4 2.5 2.3 2.7m-3-.8s1.3 1.8 1.7 2m-2.3-.4s.8 1 1.4 1.4m-28-25.9s1-1.6 3.6-1m10.2 13.3s1.6-6.7 7.1-4.2m-2.3-.4s.6-3.1-.7-4.7m-3 4.2s.8 1.4.1 2.5" transform="scale(.03125 .02917)" fill="none" stroke-width=".5" stroke="#00247d" stroke-miterlimit="10"/><path d="M517.3 311.4s6.2-2.8 4.3-7.6c0 0-.6-1.7-2-1.7 0 0-2.4.2-2 3.4 0 0 .8 3.2-.4 5.9zm0 0" transform="scale(.03125 .02917)" fill="#64b4d1" stroke-width=".4" stroke="#00247d" stroke-miterlimit="2.6"/><path d="M16.2 9v-.1s.1 0 0 .1zm0 0" fill="#fff"/><path d="M526.1 307s4.4-2.7 2-7.3c0 0-.7-1.3-2-1 0 0-2.7.8-.6 4.6 0 0 1 2.5.6 3.8zm0 0" transform="scale(.03125 .02917)" fill="#64b4d1" stroke-width=".4" stroke="#00247d" stroke-miterlimit="2.6"/><path d="M16.5 8.8zm0 0" fill="#fff"/><path d="M513 310.2s-4.9-1.2-4-6.3c0 0 .5-2.2 2.6-1.9 0 0 2.5.7.9 3.9 0 0-1 2.1.5 4.3zm0 0" transform="scale(.03125 .02917)" fill="#64b4d1" stroke-width=".4" stroke="#00247d" stroke-miterlimit="2.6"/><path d="M16 8.9zm0 0" fill="#fff"/><path d="M16.1 8.8h.2l-.2-.1h.1zm.1-.2h.1zm0 0"/><path d="M507.8 299.3s-.3-.6.2-1.4c0 0 .3-.4.3-1.2m19.4-40.4s3-.1 3.5-2.4m5-1.4s-1 0-2 .9c0 0-.6 1-1.6.8" transform="scale(.03125 .02917)" fill="none" stroke-width=".5" stroke="#000" stroke-miterlimit="10"/><path d="M16.4 7.2s.1 0 0 0v.1zm0 0"/><path d="M525.5 211.2s.8-1 .4-3.7c-.3-2.7 2.2-3.1 3.1-2.3 0 0 1 .8 0 2.7a7.3 7.3 0 01-3.5 3.3zm0 0" transform="scale(.03125 .02917)" fill="#64b4d1" stroke-width=".4" stroke="#00247d" stroke-miterlimit="2.6"/><path d="M16.4 6.1V6v.1zm0 0" fill="#fff"/><path d="M524.8 210.1s0-1-2-3-.4-3.7.8-3.7c0 0 1.1 0 1.6 2 .5 1.7.3 3.3-.5 4.7zm0 0" transform="scale(.03125 .02917)" fill="#64b4d1" stroke-width=".4" stroke="#00247d" stroke-miterlimit="2.6"/><path d="M16.4 6zm0 0" fill="#fff"/><path d="M522.1 209.3s-.5-1-2.9-1.8c-2.5-.8-1.8-2.9-.8-3.4 0 0 1.1-.4 2.2 1 1 1.1 1.5 2.6 1.5 4.2zm0 0" transform="scale(.03125 .02917)" fill="#64b4d1" stroke-width=".4" stroke="#00247d" stroke-miterlimit="2.6"/><path d="M16.3 6h-.1.1zm0 0" fill="#fff"/><path d="M523.6 210.1s-1.1.4-3.7-.8c-2.6-1.2-3.6 1-3.1 2 0 0 .3 1.2 2.3 1 1.6-.2 3.3-.8 4.5-2zm0 0" transform="scale(.03125 .02917)" fill="#64b4d1" stroke-width=".4" stroke="#00247d" stroke-miterlimit="2.6"/><path d="M16.2 6.2zm0 0" fill="#fff"/><path d="M519.9 202.1s1.2.5 1 2.1" transform="scale(.03125 .02917)" fill="none" stroke-width=".5" stroke="#000" stroke-miterlimit="2.6"/><path d="M525.5 202.4s.5 1.4 0 2.4" transform="scale(.03125 .02917)" fill="none" stroke-width=".5" stroke="#000" stroke-miterlimit="10"/><path d="M436.8 211.2s-.7-1-.4-3.7c.4-2.9-2.1-3.1-3-2.3 0 0-1 .8-.1 2.7.7 1.4 2 2.6 3.4 3.3zm0 0" transform="scale(.03125 .02917)" fill="#64b4d1" stroke-width=".4" stroke="#00247d" stroke-miterlimit="2.6"/><path d="M13.6 6.1V6v.1zm0 0" fill="#fff"/><path d="M437.6 210.1s0-1 2-3 .4-3.7-.9-3.7c0 0-1.2 0-1.6 2-.4 1.7-.2 3.3.5 4.7zm0 0" transform="scale(.03125 .02917)" fill="#64b4d1" stroke-width=".4" stroke="#00247d" stroke-miterlimit="2.6"/><path d="M13.7 6zm0 0" fill="#fff"/><path d="M440.3 209.3s.4-1 3-1.8c2.2-.8 1.6-2.9.6-3.4 0 0-1-.4-2.1 1a6 6 0 00-1.6 4.2zm0 0" transform="scale(.03125 .02917)" fill="#64b4d1" stroke-width=".4" stroke="#00247d" stroke-miterlimit="2.6"/><path d="M13.8 6zm0 0" fill="#fff"/><path d="M438.8 210.1s1 .4 3.6-.8c2.6-1.2 3.7 1 3.4 2 0 0-.6 1.2-2.6 1a6.8 6.8 0 01-4.4-2zm0 0" transform="scale(.03125 .02917)" fill="#64b4d1" stroke-width=".4" stroke="#00247d" stroke-miterlimit="2.6"/><path d="M13.9 6.2h-.1.1zm0 0" fill="#fff"/><path d="M442.5 202.1s-1.3.5-1 2.1" transform="scale(.03125 .02917)" fill="none" stroke-width=".5" stroke="#000" stroke-miterlimit="2.6"/><path d="M436.8 202.4s-.6 1.4 0 2.4" transform="scale(.03125 .02917)" fill="none" stroke-width=".5" stroke="#000" stroke-miterlimit="10"/><path d="M15.4 5.5v.1h.1v.2h-.2v-.1-.2.1l.1.2.1-.1h-.1v-.2zm-.1.2L15 6v-.1-.1.2s.2 0 .2-.2zm-.2-.1v-.1H15h-.1.2zm-.3-.2v.1s-.1 0 0 0h-.2.2zm.2-.1h0zm-.4.4h.2v.1h-.1zm.5-.7c-.1 0 0 0 0 0 0 .2-.1.2-.2.2V5c0 .1.1.1.2 0 0 .1.1.1.1 0 0 .1-.1 0-.1 0zm0 0zm-.3 0zm.5 0zm-.5.1zm-.2-.3h.1v0zm.9 0h-.1v0zm-.4 0h0zm0 0"/><path d="M15.1 4.9h0zm0 0" fill="#fff"/><path d="M15.2 4.9zm0 0" fill="#784421"/><path d="M15.2 4.9zm-.3-.1h.2v-.1H15h-.1zm.2.4c-.1 0 0 0 0 0zm0-.4h-.2.1zm0 0"/><path d="M15 4.9h-.2.2zm0 0" fill="#fff"/><path d="M15 4.9h-.1zm0 0" fill="#784421"/><path d="M15 4.9h-.1zm0 0"/><path d="M554 148.3v135.5c0 36.2-72.3 48-72.3 48s-72.4-11.8-72.4-48V148.3H554zm0 0" transform="scale(.03125 .02917)" fill="none" stroke-width="1.3" stroke="#000"/></svg>