<svg xmlns="http://www.w3.org/2000/svg" width="20" height="14"><path d="M0 0h20v14H0zm0 0" fill="#ffd520"/><path d="M0 14h20V0zm0 0" fill="#ff4e12"/><path d="M345.4 150c-4-1.3-6.6.7-6.4 5.9 0 5 2.8 8 6.8 6.2zm0 0" transform="scale(.03125 .02917)" fill="#fff" stroke-width=".4" stroke="#000"/><path d="M348.9 140.4c-3.3-2.6-6.4-1.5-8 3.4-1.5 5 .1 8.6 4.5 8zm0 0" transform="scale(.03125 .02917)" fill="#fff" stroke-width=".4" stroke="#000"/><path d="M354.4 131c-2.8-3-6-2.4-8.4 2.3-2.3 4.5-1.3 8.4 3.3 8.7l5-10.9zm-3.6 45.5c-5 1.8-5.4 8.5-2.3 12.6 3 4.2 8.8 5 11.8 0zm0 0" transform="scale(.03125 .02917)" fill="#fff" stroke-width=".4" stroke="#000"/><path d="M345.1 162.3c-4.6-1.5-8.9 4.7-9.5 10.3-.9 7-11 9.4-5.4 20.1 1.2-6.8 5.7-10.6 9.3-10.8 3.6-.3 9-1 11.3-5.4zm14.6 27.6c-5.3 1.3-6 8.4-2.2 13.5 3.3 4.5 13.8 3.5 13.4-.9l-11-12.6zm15.4 43.4c.3-4.7-7.2-6.6-10.9-5.6-3.4 1-10.4-.2-12-4-1.3 3 .6 6.5 5.8 8.3 4 1 3.9 3.8 2.8 5.3 3 .6 11.6.6 14.3-4zm0 0" transform="scale(.03125 .02917)" fill="#fff" stroke-width=".4" stroke="#000"/><path d="M370.9 203.7c-5.3-2.4-8.4 1.2-10.4 4.6-3 5-12.1-1.4-15.3 5.3 4.3-1.9 8.6 2 10.6 3.4 5.6 3.6 16.4 2.5 18-6.3zm0 0" transform="scale(.03125 .02917)" fill="#fff" stroke-width=".4" stroke="#000"/><path d="M374 209.9c-5.3 3.9-7.4 8.7-7.3 11.9.2 3.2 4.7 10.3 9.6 10.7 2.8-5.8 4.3-18-2.3-22.6zm-22 24.7c0-2 2.8-2.6 4.8-2 2 .7 5 2.6 3.8 4.7zm-29-10.5c-.5-2.4 3.3-6.5 8.3-4.2 5 2.2 5.6 6.4 3.4 8zm0 0" transform="scale(.03125 .02917)" fill="#fff" stroke-width=".4" stroke="#000"/><path d="M335.3 228.3c-.6-1.2 3.2-3.8 9.3-2.4 6.1 1.6 7.6 5.7 7.5 8.7zm-13-4.2c3.3-2.4 2-7-1-8.5-5-2.7-3.2-9.2-6.6-10.6-3.3-1.2-6.4-3.4-6.7-5.8-1.6 3.2-.6 6.1 1.8 8.3 2.2 2-2 10.3 1 12.5zm-69-1.8c-2.7-4.3-9-3.5-11.8-.5-2.8 3-2.3 7.4.3 9.4zm15.4-6.3c-1-5.7-7.8-6.3-11.4-5-4 1.5-6.4 7.2-4 11.3zm0 0" transform="scale(.03125 .02917)" fill="#fff" stroke-width=".4" stroke="#000"/><path d="M279 215.2c2.5-4.7-2.3-11.8-7.8-12.8-4.4-1-9.7-.8-11.4-5.3-1 3.8 1.7 6.3 5 8.5 3.4 2.3-.6 7.7 5 11l9.3-1.4zm0 0" transform="scale(.03125 .02917)" fill="#fff" stroke-width=".4" stroke="#000"/><path d="M278.6 215.4c-1.2-3.4 1.1-8 5.6-7.5 4.8.2 7.4 3.4 5.4 7.9zm0 0" transform="scale(.03125 .02917)" fill="#fff" stroke-width=".4" stroke="#000"/><path d="M288.9 215.8c-.6-3.7 2.2-8 6.9-6.9 4.4 1 6.4 4.7 4 8.5l-11-1.8zm0 0" transform="scale(.03125 .02917)" fill="#fff" stroke-width=".4" stroke="#000"/><path d="M299 217.4c-.4-3.6 2.8-7.7 7.3-6.5 4.4 1.2 6.3 5 3.4 8.7l-10.6-2.2zm-77.6 58.9c-8.7 0-10.8 2-12 11-1.7 11 13.5 12.3 12-11zm0 0" transform="scale(.03125 .02917)" fill="#fff" stroke-width=".4" stroke="#000"/><path d="M225.3 264.6c-13.3-5-20.6 16.1-33.7 12.4 4.7 7.5 16.2 0 20.4.6 7.3 1.4 22.8-1.3 13.3-13zm-8.7 28.8c-6.6-3-13.6 7-12.3 11.6 1.6 5.4 16.6.9 12.3-11.6zM186 336.7c3.6 1 8 3 7.3 10-1 7-14 21-26 22-11.7.7-16 15-26.2 11 9.7-1.8 9.7-12.6 17-16-5.3-2-8.2 10.4-15.2 10.4s-10.3 11-18.8 10.1c-8.5-.6-9.3 13.6-26.3 13.8-13 0-29 15.3-35 8.7C75.5 405 80.5 398 88 390.1c12-12.2 25.7-6.7 30.4-17.6a30.7 30.7 0 01-18.3 5.4c-8-.2-16.6 12.6-25.5 7 5-.7 8.5-3 14-8.6 5.4-5.9 13.5-2 20-8 10-9.2 18.7-1.5 28.3-13-2.8-1.5-8.5-.5-13.9 2.4-5.3 2.8-12.3-2-18.5 1.4.7-7.5 15.2-3.3 24.2-8.5 10.2-6 18.6-4.3 26.6-3.5-11.2 0-15.5-10.7-31-7.6-6.7 1.3-12.2-9.4-18.8-3.9.2-4 7.2-7.2 14.4-3.3 7.3 3.9 10.1-3.4 24.5 5.7 6 3.7 16.1-2.4 22.5 1.6-.8-2.4-4.5-4-8.8-3.6 2.7-5.6 20.2-5 27.8.7zm0 0" transform="scale(.03125 .02917)" fill="#fff" stroke-width=".4" stroke="#000"/><path d="M197.4 328.3c-5.7-4.5-13.5.9-19-1.2 0 3.6 1.8 9 7.8 11 1.8-1.1 10-8.2 11.2-9.8zm0 0" transform="scale(.03125 .02917)" fill="#fff" stroke-width=".4" stroke="#000"/><path d="M206.3 315.8c-9-4.6-10.4 6.7-17.4 4.4.3 3.2 2.8 7.3 8.5 8l9-12.4zm0 0" transform="scale(.03125 .02917)" fill="#fff" stroke-width=".4" stroke="#000"/><path d="M211.6 305.6c-13.1-5-14.8 7.5-22.5 5 1.8 4.4 12.8 6.8 18.5 5.2zm18-55.2c-3.5-5-10.8-1-12 4.9s1.7 13.9 6.7 12l5.3-17zm0 0" transform="scale(.03125 .02917)" fill="#fff" stroke-width=".4" stroke="#000"/><path d="M238.5 235c-6-1.6-13-.8-12.3 5-2.3 1-3 8.7 3.4 10.4l8.9-15.5zm0 0" transform="scale(.03125 .02917)" fill="#fff" stroke-width=".4" stroke="#000"/><path d="M242.5 231c-6-7-12.5-7-16.3-4-6.8 5.5-13.4 2.4-13.6 7.8 4.2-3.2 7.8.6 11-.6 3.4-1.2 5.9 5.4 15.2 2.7l3.7-6zm-14.3 104c1 1.6 6.4 2.4 9-.4 3.7-4-.2-14.2-6-15-5.6-.9-6 11.7-3 15.4zm0 0" transform="scale(.03125 .02917)" fill="#fff" stroke-width=".4" stroke="#000"/><path d="M221.8 335c8 3 11.4-3.7 7.2-8a85.5 85.5 0 01-7.3 8zm0 0" transform="scale(.03125 .02917)" fill="#fff" stroke-width=".4" stroke="#000"/><path d="M191.4 346.2c-1.7 4.7-9.7 5.4-18.7 19.8-9 14.5-17.4 8.5-19.7 18.2 10.8-8.7 19.3-3 25.8-11.5 9.7-13.1 17.8-11.2 21.6-20 5.3-12.7 29-12.4 30.3-32.3-8-1.5-33.2 20-39.3 25.8zm203.2-194.7c10.3 3.5 10.5 16.7 22.4 21.1 11.8 4.5 13 15 22.8 12.4-9-2.5-8.6-12.9-18-15.4-11-3.1-15-19.9-24-22.5m44 74.3c2 4.1 1.6 11.5-5 13.4 3.6 2.3 8.8.2 11.6-4.6-4.1 9.4-1.4 17.8 5.4 19.6-3.3-6.6 4-9.7 1.6-14 4.2 2 8 7.7 7.9 11.3 5.4-6.2-4-14.5-2.4-20.4zM375 287.5c-6.3-5.4-9 1.7-12-.9-3-2.1-6.8-2.5-8.3-.3 5.4.2 2.8 4.5 13.3 5.4-10.5.7-8.6 12.5-15.6 12 7.4 6.9 11.4-6.4 17.4-4.2-1.8.5 2.8 4.7-.4 10.4 5.2-.1 7.4-7.4 8-11zm-139 60.3c-2.3-2-9-3-11.5-1.3-2.6 1.4-1.8 2 1.4 2.3 3.1 0 7 5 .3 5.4-3 0-2 7.5-8.4 8 2.6 3.3 10.2 1.1 13-2.3-.6 3 3.2 5.5 1.7 9 4.8.5 2-9.7 9.5-9.2-3 .4-1.8 7.4 3.6 5.7-3.2 1.4-1.5 5.2 2 4.2-2.2.8-3 3.8.2 5.5 3-4.3-.4-19.5-11.7-27.3zm280.6-142a18 18 0 102.6-35.8 18 18 0 00-2.6 35.7zm0 0" transform="scale(.03125 .02917)" fill="#fff" stroke-width=".4" stroke="#000"/><path d="M423.4 227.1c5.5-5 13.7-7.6 19.4-3.7 5.6 3.7 24.4 8.4 33.7 2 9.3-6.4 13.8-9.8 17.8-9 3 4.6 6.8 6.9 11.4 7.3 1.4 1.4 6.6 2.6 9.3 2.4 4.1 1 9.1-.3 13.1-4.7 6.1 1 12-3.8 14.1-10.7 6.7-.7 7-8 3-13-4-.7-1-13.8-15-11.1 6 3.4 1.4 10.7 6.3 14.2-3.3 0-7.8 1.3-8.8 6.3 1.4-3.4 0-5.8-1-6.5 0-3-6.5-10.3-12.6-7.6 4.4 1 2 8 5.1 10.8a7.9 7.9 0 00-6 3.3c-1.8-3-7.7-6-11.3-6.3 0-1-.1-3-.6-4-1.7-3.1-3-6.9-2.4-11.6a46.2 46.2 0 00-7.1 11.4c-5-3.3-17 1.5-22.8 2.8-5.6 1.4-24.8-1.9-29-6.4a49.4 49.4 0 00-21-9.8c-11-3.2-11-15.3-23.1-23.6-.3 15 22.4 62.5 27.5 67.5zm-126.1 114a17.3 17.3 0 10-.2-34.6 17.3 17.3 0 00.1 34.6zm0 0" transform="scale(.03125 .02917)" fill="#fff" stroke-width=".4" stroke="#000"/><path d="M256 327.9c3.5 4.4 9.4 4.1 11.9 3.8 2 5.4 8.6 5.3 11.4 8.2 3 3 12.4 2.7 15.3 1-2.5-.2-5.9-1.8-9-4.5-4-3.2-2.2-9.7-5.2-12a11 11 0 002.2-8.6c2.4-1.3 4.1-3.7 4.4-5a15 15 0 009.6-4c2.1 2 7.6-.6 10.6 2.8.7-8.5-7.4-13-13-10.1-2-1.2-7.8-.4-9 1-1.6-.6-6.7 2-9 3.7 2.6-1.5 3-5.8 2-7.3 2.2-1 4.6-3.9 5-6 3 .5 7.6-1.6 9.6-1-3.3-4.5-8.8-6.1-14.6-5.6-5.8.3-8.3 4.5-9 8.7-3.4 2.2-4.7 9.1-3.4 11.6-2 0-4 2-4.6 3-3-1.2-6.2-1.8-9.4-2m1.3-7c-1.2-3.4.3-6.4 1.2-9 2-6.7.7-8.6-5.4-7.7.3 5.8 1.7 11.4 4.2 16.8zm0 0" transform="scale(.03125 .02917)" fill="#fff" stroke-width=".4" stroke="#000"/><path d="M248.6 282.3c1.7 1.6 7 2.3 7.7-2.7.6-5.4-1.7-7.7-6.6-5.4-.4 1.2-.8 6.4-1 8.1zm0 0" transform="scale(.03125 .02917)" fill="#fff" stroke-width=".4" stroke="#000"/><path d="M249.8 273.9c2 .8 6.4 2.5 9-2.3 2-4-.7-7-5-6.8-1 1.2-3 5.3-4 9zm0 0" transform="scale(.03125 .02917)" fill="#fff" stroke-width=".4" stroke="#000"/><path d="M253.6 264.4c.5 1.6 5.8 6.7 9.7 3 3.8-3.7 3.8-9.3-2-11.3-1.6.2-6.2 5.6-7.7 8.3zm0 0" transform="scale(.03125 .02917)" fill="#fff" stroke-width=".4" stroke="#000"/><path d="M261.3 256c1 3.3 4.8 8.8 11.4 6.4 6.8-2.7 4-11.1.8-12.8a33.1 33.1 0 00-12.3 6.5zm0 0" transform="scale(.03125 .02917)" fill="#fff" stroke-width=".4" stroke="#000"/><path d="M273.5 249.6c-.5 2.9 0 10.6 9.3 10.5 9-.1 6.4-10.9 4-12.5-3.6 0-10 .2-13.3 2zm0 0" transform="scale(.03125 .02917)" fill="#fff" stroke-width=".4" stroke="#000"/><path d="M287.3 248c-1 2.3-3.3 16.6 14.6 12.8 2.4-.6 8.4-13.8-14.6-12.8zm0 0" transform="scale(.03125 .02917)" fill="#fff" stroke-width=".4" stroke="#000"/><path d="M297.1 249.4c-1.9 1.8 2.8 16.3 15 13.9 12-2.5 1.9-16.3-15-14zm0 0" transform="scale(.03125 .02917)" fill="#fff" stroke-width=".4" stroke="#000"/><path d="M307.4 251.7c-2 3.8 1 15.8 15.9 15.8 13.4 0-.7-15.7-16-15.8zm0 0" transform="scale(.03125 .02917)" fill="#fff" stroke-width=".4" stroke="#000"/><path d="M319.1 255c-1 2.3-2.1 14.9 15.5 16 12.6.7 9.6-17.3-15.5-16zm0 0" transform="scale(.03125 .02917)" fill="#fff" stroke-width=".4" stroke="#000"/><path d="M338 260.4c-2.1 3.8-4.4 13.4 14.9 14.2 12.4.5 4.7-14-14.8-14.2zm0 0" transform="scale(.03125 .02917)" fill="#fff" stroke-width=".4" stroke="#000"/><path d="M354.1 263.3c-2.9 3.8-.7 11.4 6.5 12.9 9 1.7 10.3-6.7 4.1-10.9-6.2-4-10.6-2-10.6-2zm0 0" transform="scale(.03125 .02917)" fill="#fff" stroke-width=".4" stroke="#000"/><path d="M363 265c-2.1 3.7-.9 12.4 12.8 12.4 2.8 0 13.6-11-13-12.4zM257.1 433a20 20 0 100-40 20 20 0 000 40zm0 0" transform="scale(.03125 .02917)" fill="#fff" stroke-width=".4" stroke="#000"/><path d="M404.1 141.7a34 34 0 00-5.4 8c-6.7 20 11.2 35 21.6 56.7a63 63 0 01-5.6 60.7c-4.4 5.8-3 7.5-8.8 13.3-2.1 2.5-4.6 5.3-3.8 13.4 3.6-1.2 8.6 2 9.6 5.1 2.7-1.4 6.3-1 7.6.7 4.4-2 8-1 12 3 3.2-.5 7 0 10.2 3.7 1.8-3.6 5.4-5 8-4.2a6 6 0 018.4-6.1c-.6-2.7.2-5.5 2.2-7.4s5-2.5 7.6-1.6c4.7-3.6 14-3.9 18.6 1.5-8.3-2.3-8 6.5-15 5.7 1.8 5.1-2.8 8-7.4 9.8 3-1.5 6.2-3 7.2-1.3 2.6-2.3 7.6-1.4 9-.3 3.4-1 6.6-.3 8.1 3.9 4.8 2.8 8 10 4.6 15.4-1-5.6-5-5.4-6.6-7.6-3.4 1.2-7 1.2-8.2-1.1-2 2-9 3.9-12 .8-1.3 4.5-5.3 8.6-9.9 8.6 1.3 3.4-2.4 9.6-5.1 12.7 4.4 2.3 3 7.5 2 10.6 6.8 1 1 7 12.8 10.8-5.8 1.8-17 0-18.4-7-5.6-.2-9.5-5.8-9.3-11.9-4.4-4-5-9.9 1-14.2-5.1 1.6-8-6.7-15.4-3.2-3.7 1.8-13.4-1.2-13.4-4.7-1.6 2.6-11 1.6-12.2-2.8-3.1 1.8-10.4-1-10.2-5.3-4 1.7-9.4-1.5-9.1-5.7-3.8-.4-4.2-3.8-4-6.7-3.3-1.6-2.4-4.6-1-8.5-2.4-2.6-1.4-6.2.4-9.5-2.4-2.7-2-5.7-1.3-9.4-12.3-1-27.8-4-63.3-14.9-53.6-16.4-68 22.3-56.2 46.4 13.7 28-1.5 34 3.1 54.7a9 9 0 017.3 9.7c3 .1 5 2.8 4 8 2.7-.5 5.4.4 7.4 2.3 2-3.4 8-4.2 11-.3 6.6-.5 10 5 9.7 11.5a18 18 0 01-1.5 19.5c.4-2.8 0-6.6-.1-9-.3-4.2-6.2-5.1-5.6-8.6-3 .3-6-1.5-7-3.7a6.7 6.7 0 01-6.6 1.3c3.4 1.5 6.1 7.6 5.1 11.8 1.8 3 1.4 8.8-.7 11.2-1 5-5 6.7-10 4.6 2.9-1.7 3.9-5 3.8-7.6-1.7-1.8-2.7-4-3-6.5-5 .8-12-3.4-13-5-5.4 0-10.6 2-14.3 5.8a19.4 19.4 0 00-5.8 14.2c-.6-4.1-5.8-8.1-5-11.8-3.2-9.5 1.2-18.3 13.8-20-1.6-3.7 3.8-7.4 1.8-11.6-4-7.2-9-14-14.7-20 4.4-7.5 3-17.5.5-23.8-3.7-8.8-7.2-6.6-20.3 7.8-21.4 23.5-50 17-75.2 32.6-6.7 3.8-13.3 5.5-6.2-1.6 7.2-7.3 26.2-14.5 38.6-20.7 23.3-11.6 42.8-31 50.5-68.5 18.1-88.4 85-59.2 127.3-42.8 39.6 15.4 32.4-19.5 12.3-40.7-24.2-25.3-19.4-45.2-8-61.3 20.3-2.8 59.4 4.3 51.5 11.1zm0 0" transform="scale(.03125 .02917)" fill="#fff" stroke-width=".4" stroke="#000"/><path d="M475.9 358.8a22 22 0 100-44 22 22 0 100 43.9zm0 0" transform="scale(.03125 .02917)" fill="#fff" stroke-width=".4" stroke="#000"/><path d="M391.8 142.6c-5 21.9-.8 31.6 6.4 41.1 15 19.7 26.8 64.6 9.8 94" transform="scale(.03125 .02917)" fill="none" stroke-width=".4" stroke="#000"/><path d="M417.5 252.3c2-.6 6-3.2 6.8-7.3m-5.2-2c.6-3.8 6.4-5.4 6.5-9.4m-6.4-5.3c-.4-3.8 5.8-7.3 5-11m-8.4-2.7c-.6-2.3 5.2-6.3 3.6-10m-7.8-3.7c-1.2-2.4 2.6-5.2 1-7.8m-7.2-3c-.4-1.7 2-5.3.7-7.6m-6.9-5c.6-.8 2.6-2.3 1.8-4.2m-6-5.4c.8-.4 3.3-1.2 3-2.9" transform="scale(.03125 .02917)" fill="none" stroke-width=".4" stroke-linecap="round" stroke="#000"/><path d="M266 410.9c-5-1.7-11.5.7-12.8 5m4 4.1c.6-4.4 7.2-6.3 9.2-4.3-4.1-2.3-6.3 6-2.5 6.2M298.5 318c-3 1.6-4 7.2 0 11.5m4.6-10.2c-2.1 1.8-2 7.3 1.1 8.5-2.6-2 0-5.3 2-5.4 2-.1 3.3 2.1 1 4.6m177 5c-7.3-2-13 6.5-6.4 14-.3-7.3 5-12 11.2-10.7m-3 5a2.7 2.7 0 00-2.8 2.7c0 1.4 1.3 2.8 3.3 2.8 1.3 0 2.4-1.4 2.4-2.6M511.5 182c1.3 4.5 7.3 6.3 12 5.3m0-2.8c-3.8 0-6.8-3.4-6.6-6.3 0 2.2 5 3.2 6.6 1.8" transform="scale(.03125 .02917)" fill="none" stroke-width=".4" stroke-linecap="round" stroke-linejoin="round" stroke="#000"/><path d="M267.9 331.7c-1-2.6 3-5.2 3.2-7.6.1-2.5 4.6-4.4 9.3.1m-2.1-27.3l-2.6 1.2m11.4 12.7c-1.1 0-3.4 0-4.6-.8m0 5.8c-.8.5-2.8 1.2-4 1.5m-40.1 76.3c-.2 2.3 2.2 5.6 3.3 6.7m6.7-12.2c-1.4 2.3-1.9 5-1.3 7.7m20.5 0c-2.4-1.6-.9-5.5-1-8-.4-2.8 2.6-6.8 8.5-3.3M246 381c2.3-.4 4.8-.2 6.3.4m23-7.7a9 9 0 00-1.4 4m12.4-4.3c-2 0-3.6 1.3-4.3 2.5m-20.8-68.4c2 .7 7.4 4 7.6 7.4m14.3-24.1c-6.4-.2-8.9-6.6-4-6.6m15.3 15.3c-2.4.9-1.3 5 2.2 7.2m-17.4 33c-1-1.5.6-6 4.6-4.6m5 51.7c.2-4 5-6.2 7-1.8m-25.4 13c-.3-4.2 2-5.7 3.9-6 2-.3 4.6 1.3 6 4.2m-48.2 5c.2-2.6 2.4-5.3 4.7-4.9m231-109.4c-1.7 1.2-2.8 6.7 3.4 7.2M458 296c0 .7.8 1.5 1.3 2m29 8.3c-1.6-1.3-6 4-2 7.8m-39 35.5c-1-3.7 2.4-4.7 5.8-4m-14-22.2c2-1 4-2.6 6.4-3.2m-7.4 17.4c0-3 1.6-5.6 3-6.3m8.4-29.2c-.1 3.4.6 6.6 2.4 9.3m28.2-9c-1.9.5-3.5 1.4-4.2 3m2.1 7.6c1-.8 2-1.7 2.4-2.3m46.4-110.2c0 3.6-4.5 5.6-7.5 3.3m17.2-3c2 1.4 8.9 0 7.3-4M528 221.3c-1.9-.6-3.5-1.6-4.9-3m19.1-7.7a7 7 0 01-5-.6m-31.6 13.6c2.3-.2 4.4-.7 6.5-1.6M502 200.8c-1.8-.2-3 0-3.9.8M528 207c-.5 2-1.5 3.8-3 5.2" transform="scale(.03125 .02917)" fill="none" stroke-width=".4" stroke-linecap="round" stroke="#000"/><path d="M497.5 212.8c3.3-1.5 7.3 9.5 15 5.6m.6-11.3a11.5 11.5 0 00-1.9 5.6" transform="scale(.03125 .02917)" fill="none" stroke-width=".4" stroke-linecap="round" stroke-linejoin="round" stroke="#000"/><path d="M359 190.4c1-.2 2.9-.5 3.3-1.8M226.4 310.3c3.9 2.2 6.6 5.9 5 11.4m172.1-143.2c1.1.8 5.5.8 8 0m3 2.6c0 1.8.5 8.5-3 10m1.3-.8c3.2 1 9.6.5 11.7-5.3m-4.5 5a7.2 7.2 0 01-2.9 10.4m4-6c4 1.1 12.6 1.3 11.6-6.1m-3 6c2.7 3.5 14 7.8 12.2.3m-22.5 10c4.3 1.1 10.5-2 8-9.6m12.3 3.9c.6 3 15 6 13-.7m-2.6 3.9c2.7 6.2 17 5.8 12.6-2.5m-2.4 6.4c2.9 3.5 15.5 1.5 10.4-7m0 6.8c7.8 6 17-2.5 7-8.7m4.4 6.7c7 5.7 15.6-4.4 9.6-7.2m-64.6 5c2.3.6 7 .4 8-3.7m-1.8 2.9c-.1 5.7 9.6 7.9 12.1 1.2m-3.3 3.7c1.8 3.9 10.6 5.4 12-.1m-1.4 2.7c1.3 3.7 8.8 3.3 11-.7m-3 2.5c2.4 5.1 12 5.1 14-2.2m-1.6 3.2c3.8 2.2 11.8 1.4 11-5.8m-1.4 5.2c5.6 4.5 13.4 0 9.4-7.5m-.2 13.4c3-.5 4.5-6.4 1.4-8m-70 9c6-3.2 7.4-9 3-14.5m2.2 8.8c3.9 2.5 11.1 0 12.5-5.7m-7.2 6.4c2.2 2.8 2.6 6.3-.3 9.5m2-5.9c6.9-4.3 15.4 3.6 9 8.5m-1-8.9c1.5-.4 4.1-3.2 4.4-6.4m-1.4 9.4c2.9-3 22.1 3 10 9.3m-1-17.4c3.8 1.4 5.6 6.7 0 8.5m5 4.4c4-4.3 17-1.6 12.3 3.7m-3.1-5.4c2.3-8 16-3 11.6.2m-14.4-8c.4 1.5.5 5.3-2 7.3m13.6-9c.5 2 .3 3.8-.9 5.4m9.6-5.2c.8 1.3 2 4.2-.8 6.3m-109.4-65.5c.1 7.2 2.6 12.2 12.6 7.6m-9.4 1.1c-5 6.6.4 13.7 10.2 6.6M365 165c6.8 7.2 18.8 2 11-9m8 15.2c-1.3 7 4.6 8.5 9.3 5.3M359 166.2c1.1 7.1 8.5 12.7 15.6 8.4m-7 1.4c0 10.2 14 11.4 17.4.8m-5 6.4c4.5 9.3 14.3 5.5 17.5-.1m-27.4-14.8c1.8 4.6 5.4 9.6 13.7 6m-39.5-8c1.2 3.7 7.9 8 15.6 2.9m-10.8 1.8c-4.2 6 4 11.7 14 2.7m-9 4.7c1.6 8.6 5 15.4 17 4.4m-6 4.4c4.3 5.4 11 8.7 17.3-.4" transform="scale(.03125 .02917)" fill="none" stroke-width=".4" stroke="#000"/><path d="M387.3 188.8c-.4 6.5.8 9.7 6 9.4 4-.3 7.6-3.3 9.8-6.7m-10.9 6.7c0 7.4 5.7 13.1 16.6 5.6m-12 3.1c-2 5.5 4 14.5 16.2 10m-41.9-24.7c-.7 7 5.8 11.8 16.4 2.7m-11.3 5c.6 6 7 13 16.7 2.7m-12 4.9c-.6 9.9 8.4 12.5 16.1 5M367.2 200c2 .2 3.7-1.7 4.7-3m-.4 10.2c1.8.4 5-1.2 6-3.4m-1.4 15c2 2.5 9 .8 9.9-2.2m-2.3 2.2c4 9 14.2 8.7 18.6-1.4m-2 3.4c2 5.4 6.8 8.8 14.8 6.9m-11-1.4c-4.5 7.3 1.4 16 11.5 7.5m-9 3.5c-.5 4.6 3.6 10 9.5 10.5m-28.6-24c-1.5 10.4 6 15.4 15.3 9.8m-26.2-4.8c2.4 2 6.8 2 11 .6m5 6c-2.4 8.8 6.6 15 14.3 5.3M380 230.2c.3 4.4 4.5 9.4 12.1 8m21.3 9c-5.1 3.4-6.1 9.5 1 13.6m-13.6-15.4c.2 5.2 2.7 8.3 8.4 8.7m-16-11.4c-7.8 7-.2 15.2 9 8.3m-3.6 2.3c-2.6 8 7 13 12.1 4.6m-28-22c-3 8.1.7 13.3 7.3 12.8m-17.6-14.3c.4 4.8 4.5 6.5 9.2 5.5m-6.2-.4c-3.5 6.7 1.9 10.1 8.9 7.7m21 15c-1 4.2-.6 7.3 5.8 8.7m-5.4-2.6c-7.6 3.3-8.3 10.7-2.4 15.4m-3.8-23.7a7.5 7.5 0 00-2.5 6.5 7.2 7.2 0 003.8 5.8m-35-35.8c-4.4 4.3-.3 16.2 9.4 9.7m15.7 5.3c-6 5-3.3 13.8 6.5 11.4m-16.3-15c-3.1 8.7-.2 11.8 6.8 12" transform="scale(.03125 .02917)" fill="none" stroke-width=".4" stroke="#000"/><path d="M359.3 236.1a8.6 8.6 0 00-3.6 5.8c-.2 2.3.6 4.7 2 6.4 2.4 2.5 6.8 1.3 8-1.9m-17.4-13.8c-6 7.5 0 16.6 8.3 14M380 255c-6 2.2-10.6 7.7-7 12.6 2.4 2.8 11.9 3.2 14.5-7.7M369 248c-3.5 5.1-2.4 10 4 12.4m-4.4-2.9c-3.9 2-6.2 4.5-5.4 9m-3-16.9c-1.4 6 .3 9.8 4 11.6m-4-4.5c-6-.4-9 2-7 8m.6-6.5c-5.7-2-6.6-7-4-12m-1 7.6c-6 .3-9 3.3-9 7.5" transform="scale(.03125 .02917)" fill="none" stroke-width=".4" stroke="#000"/><path d="M340.5 229.7c-4.5 1.9-6 8-4.3 11.2 1.7 3.4 7 3.7 10.2 1.5M328 225c-4.1 4.7.6 13.8 8 11.5m-18.6-15.1c-3.8 5.4.4 14.4 10.4 11.7m.4 25.2c-1-6.4 5.7-10.6 14-2.3m-4-13a9.9 9.9 0 00-3.3 8.5m-28-33.2c-4.3 7.2.9 13.8 10 11.2m13.9 6.7c-6 6-4 12 .4 15.6m-4.4-8.5c-9 .1-9.6 10.7-2.2 14m-4.7-24.6c-3.8 2.6-5 9.7 1.5 12.5m-1.8 3.3c-3.9-1.7-8.5.4-8.1 5m2.3-4.8c-3.6-8.2-13.6-6.9-12.7 1.7m15.5-12c-2.1.5-6.5 1.8-8.2 5m.6-14.1a6.5 6.5 0 00-1.8 6.2 7 7 0 004.3 5.1M296.7 216c-.8 5.7 1.4 8.3 8.4 7.8m-6-.7c-2.6 6.7 1 9.7 8 9.3m-6.4-1c-4 4.9-1.3 10 2.7 12.4m-4.6-6.2c-7.4-1-8.6 7.6-6 11.5" transform="scale(.03125 .02917)" fill="none" stroke-width=".4" stroke="#000"/><path d="M292.9 215.5c-4.5 2-7.1 7.6-4.6 11 2.4 3.5 7.3 2.4 10 .6m-8.6 1c-3.7 5.7-.3 10 3.7 11.6" transform="scale(.03125 .02917)" fill="none" stroke-width=".4" stroke="#000"/><path d="M275.3 214.8c-3 3.1-1 9.4 6 9.7 6 0 8.8-5.5 7-9.4m-8 9.4c-2.3 5-.8 10.5 8 9.7m3.6 8c-5.3-2.3-12.6 0-9.5 6.5m-.6-15.7c-2.3 3.2-1.6 7.5 1 10.3m-1.6-2c-3.4.7-7 2.6-5 8.3m-.4-4.6c-4.6-1.4-10.6 2-7 6.7m-.7-4.5c-4-.6-8.7 3.6-4.9 7.8m-1.4-3.5c-3.7 1-8 5-4.2 8.3m22.3-28.5c-5.1 2.3-5.6 8.2-3.3 12.5m-2.2-23c-7.6 2.9-7.6 13 1 16.3m-3.6-2.3c-4.7 2.7-5.6 7.9-2.6 11.2m-5.6-29.2c-3 1-2.9 10.5 5.4 10.3m-13.9-7c-6.2 4 1.3 14.4 11.3 7m-5.5 2.6c-.9 4.1.4 8.8 7.1 9.4m-6.8-3.8c-4.8 1.8-5.7 12 3 12.7m-18.4-21.8c-6.4 5.8 5 10.9 9.3 2.4m-18.1 7.2c-3.1 3.8 7.8 13.6 12.5-2.8m1.1-.4c.3 4 2.7 6.3 7.3 6.6m0 3.7c-7.6 1.3-10.1 10.8-1.6 12.8m-12.6-14c-.2 3.5 3.6 6.5 7.8 6m3.9 7.7c-7 1.6-7.9 10.6-1.7 10m-3.2 8.4c-5.8-1.7-6-8.6-.8-11.2" transform="scale(.03125 .02917)" fill="none" stroke-width=".4" stroke="#000"/><path d="M245.8 267.9c-5 2.9-3 9.9-.6 11 2.7.9 4.8-.3 5-2.5m-.4 10c.6 3.3-12 2-5.6-8.4m0 8.9c-4 6.5 2.7 12 7 6.3m-6.4 1.6c-1.7 5.3 4.7 9 8.8 5M231 245.5c-2.3 4.6 9.3 6.5 10-3.3m-13.3 10.4c-2.2 9.2 15.3 7.3 10.8-4.7m.4 6.3c2.3 1 5.1.9 7.3-.3a8 8 0 004.3-6.2m-5.3 6.7c.7 2.7 2.3 5 4.7 6.3m-13.2-3.9c-.7 5 4.4 9.1 10 8.7m-9-3.8c-2.8 3.8-3.7 11.3 5.2 11.7M224 263c-1.4 4 7 8 11.8 1.5m-14.4 8.7c-.7 3 6.8 7 11-5.7m-3.3 6.4c1.8 3.2 7.9 5.7 11.7-.6m-6 4c-1.7 4.5 2.6 8.6 7.7 7.6m-17.5-8.6c-1 6.4 6.5 10 11 6.8m-15.9-4c-2.2 8.2 8.4 11.3 12.4 5.1m-2.8 2.5c.6 4.6 7.7 8.6 13.3 4.9m-26.1-1.1c-.5 2.1 8.1 4.1 9.3-3m-4.3 4.9c2 5.2 9 6.5 13 0m-2.3 2.6c1 5 7.2 7.7 12.8 4.3m2.3 2c-1.4 6.5 5.4 11.8 9.6 8.2m-20.6-9.4c-2 7.3 7 11.3 12 7.3m-22.8-11c-.5 6.8 4.8 10.8 10.8 7.8m-22.3-7c-1.8 4.3 7.8 7.9 12.3 4.1m-18.2 7.8c2.5 2.8 11 0 11.8-6.3m-2.4 4.6c3.1 3.6 10.5 5.6 13.3-2.2m-2.4 4c0 5.7 9.7 9.5 13-.6m11.6 2c-1 2.7 1.2 7 5.7 7.5m-13.9-9.3c-.6 3.1 4 7.5 8.7 5.8m.8 1.3c-1.2 3.3 0 8 4.4 8m-3.9-1.8c-3.4 2.8-2 7.9 3 8m-4.7-3.2c-4.8 3.2-3.1 10.3 3.3 10m-17.8-24c0 7 8.8 8.1 10.3 1.7m-3.3 4c-1.3 4.2 2 8.2 7.3 7m-6.3 42.8c1.3 1.6 6-1.2 4.8-4-1.4-2.8-6.6-1.3-6 1.8m4.7-3c.6-5.6-6-6.5-7.8-1.6m2.6-3c1.6-2.8-4-6.6-6.4-2.4m2-1.7c1.6-4.1-4.8-6-5.3-2.1m-1.5-5.5c.8-2 8-.8 5 3.5m5.5 5c2.8-2.5-2-7.7-5-5.8m24 13.7c-2.2.3-4.5 1.8-2.9 6.6 1.2 3.4 6 3.4 7 1.5" transform="scale(.03125 .02917)" fill="none" stroke-width=".4" stroke="#000"/><path d="M260.5 365.9c-2.3-1.5-7 1-4.8 5.6 1.6 3.5 5.8 2 6.4.2m-14 .8c1.2 2 6.7 1 7.7-1m-4-5.3c1.3-.8 3.4 0 3.8 1.2m-4-33.1c-3.8 2.5-1.5 10 4.3 8m-5.7-1.9c-3 2.3 0 9.6 5.4 6.7m-4.3 0c-2 2.2 0 8 5.2 6.7m-6-3.7c-1.3-.5-4.3-.1-5.5 1.9m2.1-28.2c-2.8 2.9-1.3 8.3 3.8 8.9m-4.8-3c-4 2-4 10 4 10.3m-4.3-1.3c-2.3 1.7-1.2 8.8 4.6 8m-2.8-.4c-.8.8-1 3-.2 4m-2.3-6.6c-2 0-4.8 1.4-5.5 3.7M236 340c.7-2 7.1-2 7.6 4.2m.6-7.3c-.8.2-2.6 1-3 2.8m.2-21.7c-2.7 2.6-4 10.5 4.3 12m-9.8 4.4c0-2.2 5.7-4 7.7-.8M232 322.8c.8 1.6 4.8 3.9 7.3 2m-28-14.6c-.2 1.9.6 3.7 2 5s3.2 1.8 5 1.5c4.4-.5 5.3-4.2 4-6.7M219 317c-2.8 3.5.7 8.3 3.8 7m-.7-9.4c1.8-.7 7.3-1.5 9 1m-26.8-.1c-1.3 2 6.7 3.9 9.3.1m-2.6 2c-.3 2.6 1 7 7.7 5.1" transform="scale(.03125 .02917)" fill="none" stroke-width=".4" stroke="#000"/><path d="M219.8 326.7c1-2.3-3.8-6-7.6-2s.6 8.6 3 7M202.7 318c-2 3.5 5.4 9.6 9.7 4" transform="scale(.03125 .02917)" fill="none" stroke-width=".4" stroke="#000"/><path d="M197.8 323.8c-2.8 2.9.6 8 4.6 6.3 4.1-1.4 3.7-5.9 2.7-7" transform="scale(.03125 .02917)" fill="none" stroke-width=".4" stroke="#000"/><path d="M192.5 329c-2.3 2 0 6.6 3 6.6s4.9-2.3 4.3-5.5m5-1.4c-.4 3 4 5 7 2.1m0-5.4c.4-.6 0-1.7-.6-2.4m-23.4 10c-2.6 2 3 7.4 6.3 2.4m13.2-3.5c-1.7 1.4 1 5.5 3.4 4.3m-12.3-1.5c.3 2.7 5.8 4.8 9.2.7m-6.3 2c-.8 1.8 1 4.5 3 4.3m48.3 11.7c-2 4 4.4 8.5 9 3.7m-4.4 2.1c-1 2.1.2 5 2 6.2m-8-1.7c.4-2 3.2-3.8 5.7-2.9m-9-2.1c.3-2 2.6-3.7 4.3-3.1m147.3-77.4c-9.3.1-5.3 14.8 2.6 11.9m-5.6-1c-1.8 2.9 1.8 7.6 5.6 4.7m-1 .7c-2.9 4.6 6.9 11.4 10.8 4.3m-3.1 2.7c0 4.3 12.4 7 10.7-1.5m-1.3 4.6c3 5 14 5.4 13-2m-2.4 5.2c2.2 3.5 13 5.5 12.7-1.5m-56.8-40.9c1.6 4 7 5.5 12.7 3.1m-16-.2c3.7 2.2-1.6 13-7.1 8.7m7.2-2c4 1.8 8.9.4 10.3-5.3m-2.6 4.5c.6 2.9 4.8 5.2 10.3 4m-20.1-1c5.2 4.5-2.3 13.4-5.6 9.3m7.4-6c2.6 1.8 9 .7 9.6-4m-3 4c.6 3.2 3 4.4 6.4 4.4m-14.3 0c2.6 3.4 9 4.5 11.9-.2m-3 2.7c0 3.4 3.7 6.3 7.7 5.5M375 295c3.3 1.7 7-4.6 4.1-9m-.2 15.7c4 .2 4.5-5.9.7-9.2m8.4 14.7c3.4-.8 2.3-8.1-5.8-8.7m16 14c3.2-.8.6-8.9-8.3-8.3m20.5 11.3c2.2-3.4-5-9-11-6m17 10.6c4 1.2 6.9-9.4-5.9-7.6m13.3 7.6c3.4-1 6-7.2-4.2-5.2m12 5.7c3 1.6 4.4-7.5-5-5m-47-23c3.9 2 10-.4 9.4-5.3m-1.5 4.3c1.3 2.2.8 6.7-1.8 7.9m2-2.6c2.7 1 6.2.2 8.3-4m-3.6 4c.7 1.8 1 5.4-.6 7.3m1.2-4.2c2.9 1.6 6.3-.5 7.6-3.5m-1.9 2.6c2 1.3 4 7.3.6 9.7m2-2.6c2.3 0 6 0 8.2-3.1m-1.8 1.7c2.3.6 5 4.2 4 7.4m0-1c2.6-.4 6.8-2 8-5m-1.2 1.8a7 7 0 013.3 6.6m0-2.1c2.4 0 4.6-1.4 5.2-4m-.6 1.7c1.9.6 4 2.7 4.1 5m-.3-1.4c1.8-.3 3-1.3 4.3-3.2m4.9-.3c2.4 2.3-.8 10-5.6 8.6m-44-164.7c-4.6 2.9-18.2 2-11.6-9.2m13 1.7c-9.4 3.7-21-3.7-9-11.4m-3-2.6c-8 0-13.2 12.6-2.7 17M348.6 138c-2 4 5.3 8.5 10.3 4.5 3.9-3.1 3.6-11.6 1.4-14.8m-15.7 19.9c-2.6 8.5 16.4 9 13.4-4.5m-14.4 17.2c.6 6.4 18.1 4.3 12.5-8.7m2-3.6c1.4 2 5.3 5.3 11.9 4.6m-9-13.5c.6 2.3 4.5 4 9.5 2.3M185.4 334.8c-4.5 3.1 2.3 8 4.8 2.6m-8.3-.2c-4.4 3.2 2.3 8.2 4.8 2.7m-8.4-.3c-4.6 3.3 2.3 8 5 2.7m-9-.5c-4.2 2.3.8 7.8 5 3m-9-.9c-4.4 2.3.6 7.8 5 3m16.4-9.5c0 3.2 6.2 4.5 8.6-.4m-4.6 3.3c-2 2.6 1.6 5.5 3.6 4.4m-12-4.8c0 2.8 5.3 4.4 8 1.3m-5 1.7c-1.7 2.1 1.7 5.2 4 4.2m-10.6-4.6c.3 2.1 3.4 4.6 6.7 3.2m-4.7-.3c-1.2 1-.6 3.8 1.2 4.7m-7.8-5c-.5 2 2.9 5.7 6.4 3.2m-5.8-.9c-2 1.8-1.7 4.2 1 4.6m-6-4.9c0 1.5 1.6 3.7 3.8 3.4m-14.8-3.4c-2 1.1 3.3 6.7 6.6 1.5m-11.6.8c-2.6 1.2 3.8 7.4 6.7 1m10-1.2c-2 .4-3.3 3.3-1.7 4.5m-5-3.5c0 1.2 2.4 3 4.4 2.4m-5.8-1.8c-2 1.2-1 4.5 1.3 4m-8.3-1.8c-1.8 1.2-.6 4 2 3.4m1.3-3.6c0 .6 1.7 1.8 3 1.3m-12.5-2.5c-2.3 1-2.1 6.7 5.5 3.6m-10.6-1.4c-3.3 1.6-2.1 6 4.8 1.8m.4.2c-.7.9-1.6 3.7 1.6 2.5m-7.2-1c-1.3 1-.5 3.5 2.3 2.6m-9-2.2c-2.3 1.4 2.8 3.1 6.2-.5m-4.6 2.1c-1 1-1 4 1.6 3m-8.2-1.8c-1.5 1.2 1 2.8 6 .6m-4 1c-1.9 1.7-1.7 3.5 1 2.9m-6.4-2c-2 2 .9 3.2 4.4 1.6m-4.4.5c-3.4 1.5-1.9 4.4.3 3.3m113.7 6.5c-.8 1.7 1.8 3 4.3 2.6 2.3-.2 4.6-2.2 2.8-5m.2 3.4c2.3 2 6.4-.2 6.4-3" transform="scale(.03125 .02917)" fill="none" stroke-width=".4" stroke="#000"/><path d="M396.8 103c-10.3-5-31.7-14.6-37.8-6.8 5.6-2.5 21.8 0 35.3 12.4l2.4-5.5zm0 0" transform="scale(.03125 .02917)" fill="#fff" stroke-width=".4" stroke="#000"/><path d="M403 102.5c-11.9-13.8-19-10.8-27.5-15.4-8-4.6-20.8-5.5-23.3 1.6 11.7-5.7 22.6 3 29.2 4.2 9 1.4 14.2 8.5 16.9 11.7l4.7-2zm44.9-1.8c-6.1-14-19.4-10.4-25.1-16.5-8.6-8.7-30-16.8-39-10.8 19.4-1 28 13.5 38.3 18.6 7.5 3.6 15.5 11.3 25.8 8.7zm0 0" transform="scale(.03125 .02917)" fill="#fff" stroke-width=".4" stroke="#000"/><path d="M424.8 99.2c-10.6-13-27-24.7-34.3-20.5 9.8.7 12.9 7.5 19.8 11.8 7 4.5 4 10.8 14.4 8.7zm-50.3 23.2c-11-4.1-32.8-6.2-42.8 6.4 16.8 2.9 42 1.2 42.8-6.4zm0 0" transform="scale(.03125 .02917)" fill="#fff" stroke-width=".4" stroke="#000"/><path d="M372.4 127.4c-11-5.3-19.6 1.8-30.1.9-19.8-2-34-.8-35.8 8.8 11.3-10.1 30.4-1.8 38.1-3.8 7.6-2 36.3-.4 45.3 3.4-4.6-5.6-11.8-7-17.5-9.3zm34.9-29.6c-2.7-8.5-2.6-17.4 10.2-17-3.3-4-15-6-17 9-14-10.2-29.4-12.1-32.3-3.1 7.3-6.3 18.6-1.8 32 13.3 2.2-1 4.6-1.8 7-2.2zm0 0" transform="scale(.03125 .02917)" fill="#fff" stroke-width=".4" stroke="#000"/><path d="M387.9 109.6c-8-5.3-18.8-13.6.1-17-8-4.3-20-2.5-18.8 12.5-21.4-8.7-37-5.9-40.3 2.8-3.6 9.6 9.9 15 12.1 8.8-2.4 1-10.8-1.8-6.4-7.1 4.4-5.5 26.8-1.4 48.1 9.7 6 3 26.3 2.6 5.2-9.7zm0 0" transform="scale(.03125 .02917)" fill="#fff" stroke-width=".4" stroke="#000"/><path d="M382.3 123.8c-6.2-12.6-26.2-1.3-30.2-13.4-5.6 17.8 28.4 7.9 30.1 13.3zm127 13.5c4.2 2.1 7.8-1.2 1.4-3.6 4.2 1.8 8-1.2 1.6-3.8 4 2 7.7-1 1.3-3.7-1.7 1.7-4.1 8-4.4 11zm2.2-24.3c9.3-9.7-.8-13 10.6-23.1 9.3-8.2 1.8-13.7 10.5-20 2.9-2.1 9-6.2 9.6-10.4C546 68.8 530.6 70 531.6 85c.6 9.6-5.9 8.7-8.2 24.8-.5 3.2-2.9 10.7-11.9 3.2zm0 0" transform="scale(.03125 .02917)" fill="#fff" stroke-width=".4" stroke="#000"/><path d="M515.6 117.5c5.1-11 11.1-10.9 14-15.2 5.4-8.3 16.8 1.4 26.5-6-1.7 10.4-14.7 6.8-20.4 13.5-5.6 6.7-10.3 9.7-20 7.7zm0 0" transform="scale(.03125 .02917)" fill="#fff" stroke-width=".4" stroke="#000"/><path d="M517 121c9-7.2 15.6-2.3 21.8-6 15.7-9.6 22 2 36-2.6-3.5 9-24.4 1.2-33.4 7.9s-40.6 13.2-24.5.8zm-26.3 51.5c-.2-4.2-4-9.4-9.4-10-5.4-.7-7.8-6.3-12-6.6-4-.3-6.7-8.4-12.4-8.4-5.6 0-8 7.5 5.4 14.2 13.2 6.6 28 14.4 28.4 10.8zM474 176c-5.6.2-6.4 8.6-11.8 8.7 7.4 4 12.9-1.8 16.6-7L474 176zm0 0" transform="scale(.03125 .02917)" fill="#fff" stroke-width=".4" stroke="#000"/><path d="M478.6 177c-5 4-6.4 12.6.6 15.2-4-5.9 7.6-8.4 4-14zm0 0" transform="scale(.03125 .02917)" fill="#fff" stroke-width=".4" stroke="#000"/><path d="M483.4 177.3c-3.8 7.4 6.1 8.3 3.5 14 5.7-1.3 6.6-12 1.4-14.8l-5 .7zm0 0" transform="scale(.03125 .02917)" fill="#fff" stroke-width=".4" stroke="#000"/><path d="M445.6 161.3c9.3-.5 17.6 4.5 23.4 12.5 3.6 5.3 15.8 7.3 19.9 3.1 4-4 1.9-12.8-8.5-10-2.6-4.3-10-2.8-13.6-6.5-3.7-3.4-17.6-13.7-21.2.9zm0 0" transform="scale(.03125 .02917)" fill="#fff" stroke-width=".4" stroke="#000"/><path d="M480.4 167c-2.5.5-3.3 4.7-1.6 6.8m7-4.2c.6 1.2 0 3-.3 3.8m-25.3-11.7c4.8.2 5.7 3.7 11 5" transform="scale(.03125 .02917)" fill="#fff" stroke-width=".4" stroke-linecap="round" stroke="#000"/><path d="M457.1 150a162 162 0 0137.6 12.3c8 4.6 20.7 6 31.6 2.8 11-3 32.2-5.9 31 7.8 6-7-1.4-14.2-16-15.5.2-6.7-7-12.8-12-8.7 4.6-.7 8.7 8.3-.7 11.7.9-3-.2-6.4-2.7-8.5s-6-2.6-9-1.2c4.4 1.3 9 8.8-1 11.6-6.3 1.8-15.4-.5-22.1-4.7-7-4-45-18.9-36.7-7.7zm0 0" transform="scale(.03125 .02917)" fill="#fff" stroke-width=".4" stroke="#000"/><path d="M498.6 143.3c-5.1 2.3-1.9 7.6-9.7 10.9-8 2.9-13.6 10-11.8 16.2 5.4-12 15-11.4 18.3-16.1 3.4-4.6 8.4-11.4 3.2-11zm0 0" transform="scale(.03125 .02917)" fill="#fff" stroke-width=".4" stroke="#000"/><path d="M500 144c-.3 9.3-7.6 6-4.8 19.3 1 4 2.7 10.7-.2 17.4 8.3-6 3-18.6 6.8-23.5 1.7-2.4 4-6 5-9-2 5.3-1.8 15.5 3.4 18-4.2-10 11.6-18.3.7-30-1.6 3-6.5 8-10.8 7.8zm-26.3-9.4c1.4 2 2.7 6.8 1.6 9.6 2.4-1.6 6.2-5.6 7.4-8.3 5.3.8 7.3 7.3 2.3 10.2 3 0 8.4 0 11.3-3.5-3.6-4-14.8-10.1-22.6-8zm0 0" transform="scale(.03125 .02917)" fill="#fff" stroke-width=".4" stroke="#000"/><path d="M393.8 116.1c-1.6-1-3.2-1.7-5-2-7.7-1.6-3.6-8.6 3-8.6 14.2-15.4 22-3.4 39.4-8.3 6-1.8 10.2-1.3 13.4.2 7.8-5.3 16.8-3.8 23.4 2.2.6-1 1.8-2 3-2.2 6.1-1.8 11 3.3 12.8 10 4.6-.8 10 1.5 13.6 4.7 4.9-2.5 8.2-2.5 9.5 0 4.4-2 10-3.3 12.9 3.6 3 7-6.7 4.8-8.3 19.6-1 9-11 12.6-19 7.2-12.8-8.7-25.3-10-31.5 3-6.1 13.2-11 20.8-26 16.6a16 16 0 00-16.8 6.4c-4.3 6-11 .4-19 1 10-1.6 6.2-4 15-4.6 8-.4 6-8 11-9-20 5-19.3-2.4-35.8 2.8 7.2-9.2 18.6-4.1 24.2-9.5-14.9-.3-21.6-10-28.4-6-10.4 6.5-6 24.7-33.4 23.1-13.4-.6-22 1.1-29.8 9.1 13.9-28.7 32.8-13 42-22a67.3 67.3 0 0012.3-14.8 6.2 6.2 0 014-3.2c-23-7.2-9-18.5 13.4-19.3zm0 0" transform="scale(.03125 .02917)" fill="#fff" stroke-width=".4" stroke="#000"/><path d="M506.9 112c.4.8.5 1.8.5 3 0 5.5-8.5 5.8-9 14.2-.3 4.5-.8 6.7-3.6 6.3-3-.5-5.7-5-3-10.5" transform="scale(.03125 .02917)" fill="#fff" stroke-width=".4" stroke-linecap="round" stroke="#000"/><path d="M398 107.7c-1.8-1.4-4-2-6.3-2.2m53-8.1c6.7 3 10 9.9 20 10.3 9.6.2 15.4 14.2 31.4 5 .4 0 .8-.3 1.1-.5M468 99.6a12.8 12.8 0 00-1.4 8.3m-29.9 21c-12 0-15 6.1-15 12 0 6 5.6 13.7 15.6 13.7s15.4-6.2 15.4-12.9-6-12.9-16-12.9zm0 0" transform="scale(.03125 .02917)" fill="#fff" stroke-width=".4" stroke="#000"/><path d="M439 154.3c-.3-3.4-6.3-2.8-6-5.4.3-2.7 3.3-3.6 3.3-7.2s5.4-3.9 7.2-1c1.8 2.7 7.3 8.4 8.4 5.5m-8.4-5.4a9.7 9.7 0 00-.4 13m4.3-8.8c-1 2-1.1 5-.1 6.7" transform="scale(.03125 .02917)" fill="#fff" stroke-width=".4" stroke="#000"/><path d="M495.5 135.5c9.5.8 11-9.6 4-10.1m-15.8-17.9c-3-4.2-10.7-5.6-11 3.3" transform="scale(.03125 .02917)" fill="none" stroke-width=".4" stroke="#000"/><path d="M472 120.8c-3.3-8-11.5-9.1-15.8-5-3.7 3.3-3.8 11.8 4 13.7 2.8-3.3 8-7.5 11.8-8.7zm-3.5-5c-4.8-4.1-11.5 3.7-5.3 10.8m-83 8.7c3.2-.7 7.7.8 14.7 4 4.4 2.1 17.5 6.5 25.7 2.1-8.5 3.1-15-9.7-21.4-8.1-6.4 1.6-18.2 3.8-23-.8 12 .8 18.4-8.9 32.3-.6a25 25 0 0013.1 3.6c-11.4-13.6-26.2-5-27.9-16 7 7.5 23.6-1.6 32 12.2m-29.4-10c-1.6-2.1-1-4.1-2.6-5.6" transform="scale(.03125 .02917)" fill="#fff" stroke-width=".4" stroke="#000"/><path d="M15.1 3.1a.1.1 0 00-.2.2.3.3 0 01.2-.2zm-.5.5a.8.8 0 01.2 0 .4.4 0 00-.2-.2s-.1.1 0 .2zm0 0"/><path d="M458.8 113.4c-4.7-3-9-2.6-10.4-.2-3.3 0-6.1 2.4-6.1 7.2m7 2.1c-5.6-3.8-13-2.4-12.6 6m-3.4 5c2.7-2.3 6.6-3.9 9.6 0m31.9-8.4c-1 1.5-2 3.6-.2 7-2-2.9-7.2-2.9-12.9 4.4m25.2-11.8c-6.6.8-6.5 5.2-1.1 7m-46.6-23.4c-5.6-1.2-9.7 2.2-2 5m13-8.8c-8-2-11.3.1-7.7 2m-15.5 30c-.3 3 1.3 6.5 6 2.4m-4.4 6.1c0 .8-.1 1.7-.7 2.5m-17.9-40c-4.9-1.6-5.8-6.1 0-5.7m-1.6 16c-5.4-2-5.4-7-1-6.6m11 3.8c-6.3-1.6-6.5-5.8-1.8-5.2m2.6-8.1c-3.4-.3-8.4 3.4 0 5.6m9.4 1.9c-7.9-1.3-7.7 2-3.1 4m9-11.5c-6-1.3-8.1 2.4-4 3.8m-15 18.4c-1.5-1.2-2.8-7 4.3-5.2M430 122c-4.7-1.3-9.2 3.4-4.9 6m11.2-11.4c-5-1.1-9.1.4-6.5 2.2" transform="scale(.03125 .02917)" fill="none" stroke-width=".4" stroke-linecap="round" stroke="#000"/><path d="M483.6 107.5a9.3 9.3 0 00-7 5.4" transform="scale(.03125 .02917)" fill="#fff" stroke-width=".4" stroke="#000"/></svg>