<svg xmlns="http://www.w3.org/2000/svg" width="20" height="14"><path fill="#006" d="M0 0h20v14H0z"/><path d="M14.7 6.2l.2-.5-.4-.3h.5l.2-.5.2.5h.5l-.4.3.1.5-.4-.3m.8.4l.4-.4-.3-.4.5.1.3-.4v.6l.5.1-.5.2v.5l-.3-.4m-3.1.4v-.5l-.6-.1.6-.2v-.5l.3.4.5-.2-.3.4.4.4-.6-.1m-1.2 1.2l-.2-.5h-.6l.4-.3-.2-.4.5.2.4-.3-.1.5.4.2h-.5m-.5 1.7l-.5-.3-.4.3.2-.5-.4-.4h.5l.2-.4.2.5h.5L12 8m.1 1.8l-.5-.2-.3.4v-.5l-.5-.1.5-.2v-.5l.3.4.5-.2-.3.4m1 1.5l-.6.1v.5l-.3-.5h-.6l.4-.3-.2-.5.5.3.4-.3-.1.5m1.4 1l-.5.3.1.5-.4-.3-.5.2.2-.5-.3-.4.5.1.2-.4.2.5m1.6.2l-.2.5.3.4-.5-.1-.3.4v-.5l-.6-.1.5-.2v-.5l.3.3m1.8-.4v.6l.5.1-.5.2v.5l-.4-.4-.5.1.3-.4-.3-.4.6.1m1.7-5.9l.3.4.5-.2-.2.4.3.4H18l-.3.4V7l-.6-.1.5-.3m1 .6l.3.5h.5l-.4.4.1.4-.4-.2-.5.2.2-.4-.4-.4h.5m.6 1v.5l.4.2-.5.1v.5l-.4-.4H18l.4-.3L18 9l.5.2m.1 1.1l-.2.5.3.4-.5-.1-.3.4V11h-.6l.5-.3V10l.3.3m-.3 1.2l-.5.2.2.6-.5-.4-.4.3.2-.5-.4-.4h.5l.2-.4.2.5" fill-rule="evenodd" fill="#fff"/><path d="M0 0h10v7H0zm0 0" fill="#006"/><path d="M1.2 0L5 2.6 8.8 0H10v.9L6.2 3.5 10 6.1V7H8.7L5 4.4 1.3 7H0v-.9l3.7-2.6L0 1V0zm0 0" fill="#fff"/><path d="M6.6 4.1L10 6.4V7L5.8 4.1zm-2.8.3v.5L.8 7H0zM10 0L6.1 2.8V2L9.2 0zM0 0l3.7 2.6h-.9L0 .6zm0 0" fill="#c8102e"/><path d="M3.8 0v7h2.5V0zM0 2.3v2.4h10V2.3zm0 0" fill="#fff"/><path d="M0 2.8v1.4h10V2.8zM4.3 0v7h1.5V0zm0 0" fill="#c8102e"/></svg>