<svg xmlns="http://www.w3.org/2000/svg" width="20" height="14"><g fill-rule="evenodd"><path d="M0 6.4h24.9V12h-25zm0 0" fill="#fff"/><path d="M0 0H25v7H0zm0 10.6h25V14H0zm0 0" fill="#081873"/><path d="M0 8.3H25v1H0zm0 0" fill="#de3929"/><path d="M7.5 11l.2.5h.6l-.5.4.2.5-.5-.3-.5.3.1-.6-.5-.3h.7m5.6-4.6l.2.5h.6l-.5.4.2.5L13 8l-.5.3.2-.5-.5-.4h.6M6.2 9.2l.2.6H7l-.5.3.2.6-.5-.4-.5.4.2-.6-.5-.3H6m7-.8l.1.6h.7l-.6.3.2.6-.5-.3-.5.3.2-.6-.5-.3h.6m-1.2-4.4l.2.5h.7l-.5.4.2.5-.6-.3-.5.3.2-.5-.5-.4h.6M9.5 4.5l.1.5h.7l-.5.4.2.5-.5-.3-.6.3.2-.5-.5-.4h.7m-2 .1l.3.6h.6l-.5.3.2.6-.5-.4-.5.4L7 6l-.5-.3h.7m-1 1.2l.1.5H7l-.5.4.2.5L6 8l-.5.3.2-.5-.5-.4H6m3.5 4.1l.1.6h.7l-.5.3.2.6-.5-.4-.6.4.2-.6-.5-.3h.7m2.4-1.2l.2.6h.6l-.5.4.2.5-.5-.3-.5.3.2-.5-.6-.4h.7" fill="#ffce08"/></g></svg>