<svg xmlns="http://www.w3.org/2000/svg" width="20" height="14"><path fill="#0021ad" d="M0 0h20v14H0z"/><path d="M0 0h20v14zm0 0" fill="#1c8a42"/><path d="M11.8 7c0 1-.8 1.7-1.8 1.7S8.2 7.9 8.2 7c0-1 .8-1.7 1.8-1.7s1.8.8 1.8 1.7zm0 0" fill="#ffc639"/><path d="M8.9 6.2c.1.2.3.5.5.4h.2c.3.1.7 0 1-.3V6h.2v-.2h.1c.1.1.2 0 .2 0h.1V6.6s.2 0 .1.1v.1l-.4.3V7h-.2v.5l-.1.2v.4H10v-.7c0-.2-.3-.1-.3-.2a.1.1 0 01-.1 0h-.1-.1l-.2-.1h-.5l-.1.1h-.2l.1-.2h.2v-.3H9v-.4c-.1 0 0-.2 0-.2zm0 0" fill="#1c8a42"/><path d="M17.6 4.2c-.1-.3-.9-1-1.4-1.4-.1-.1-.2 0-.2 0l.2.4V3.5l.3.4.3.4c.2.1 0 .5 0 .7-.7-.5-1.3-.5-1.9-.6h-.1c.3.4.7.7 1.2 1h.2l.3.3c.2.1.2.2.2.3l-.1.5-.3.3c-1.1.7-1.8.9-3.7.7 0 0-.2 0 0 0 .5.2 1.7.4 2.9 0 .2-.3.4-.2.6-.3l1-.5c.2 0 .9-.2 1-.4l.5-.1.2-.2h.1c0-.2-.2-.2-.3-.3H18c-.4 0-.3-1-.4-1.5zm0 0" fill="#ffc639"/><path d="M18.4 6h-.1v-.1s.1 0 0 0zm0 0" fill="#1c8a42"/><path d="M3.8 5.9l-.3-.2-.3.2v-.3H3l.3-.3-.1-.2h.3l.1-.3.1.4L4 5l-.2.2.3.2h-.4zm.9 2.7l-.3-.2-.3.2.1-.3-.3-.2h.4v-.3l.2.3h.3l-.2.2v.3zm-.9 2.3l-.2-.2-.3.2v-.3H3l.3-.2L3 10h.3l.2-.2v.3L4 10l-.2.3.3.1h-.3zM1.5 8.2L1.3 8l-.3.2v-.3H.7l.3-.3-.2-.2h.3l.2-.3.1.4.3-.1-.1.2.2.2h-.3v.4zM6 7.5l-.2-.2-.3.2v-.3h-.3l.3-.3-.2-.3.4.1v-.3l.2.3h.3l-.1.2.3.2h-.4zm0 0" fill="#fff"/></svg>