<svg xmlns="http://www.w3.org/2000/svg" width="20" height="14"><path fill="#108c00" d="M0 0h20v14H0z"/><path d="M-5.1 4.9h30.3v1.4H-5.1zm0 0" fill-rule="evenodd" fill="#ffd600"/><path d="M7.8 0h1.4v14H7.8zm0 0" fill-rule="evenodd" fill="#ffd600"/><path d="M9.2 0h1.4v14H9.2zm0 0" fill-rule="evenodd"/><path d="M-5.1 6.2h30.3v1.4H-5.1zm0 0" fill-rule="evenodd"/><path d="M-5.1 7.6h30.3V9H-5.1zm0 0" fill-rule="evenodd" fill="#fff"/><path d="M10.6 0H12v14h-1.4zm0 0" fill-rule="evenodd" fill="#fff"/><path d="M10 10.8c-2.2 0-4-1.7-4-3.8s1.8-3.7 4-3.7c2.3 0 4 1.6 4 3.7s-1.7 3.8-4 3.8zm0 0" fill-rule="evenodd" fill="#e72910"/><path d="M9.8 3.8l.2-.5.2.4h.5l-.4.3.1.5-.4-.3-.4.3.2-.5-.4-.2h.4zm0 0" fill-rule="evenodd"/><path d="M9.9 3.8l.1-.4.1.4h.5l-.4.2.2.4-.4-.2-.4.2.2-.4-.4-.2h.5zm0 0" fill-rule="evenodd" fill="#ffe700"/><path d="M10 3.8v-.2.2h.3l-.2.2.1.2-.2-.1-.2.1V4l-.1-.2zm0 0" fill-rule="evenodd" fill="#108c00"/><path d="M13 5.8l.1-.4.2.4h.5l-.4.3.2.5-.5-.3-.4.3.2-.5-.4-.3h.5zm0 0" fill-rule="evenodd"/><path d="M13 5.8l.1-.4.2.4h.4l-.3.3.1.4-.4-.3-.3.3.1-.4-.3-.3zm0 0" fill-rule="evenodd" fill="#ffe700"/><path d="M13 5.9l.1-.2.1.2h.3l-.2.1v.3l-.2-.2-.2.2.1-.3-.2-.1zm0 0" fill-rule="evenodd" fill="#108c00"/><path d="M12 9l.2-.4.2.5h.5l-.4.2.2.5-.5-.3-.4.3.2-.5-.4-.2h.5zm0 0" fill-rule="evenodd"/><path d="M12 9l.2-.3.2.4h.4l-.4.2.2.5-.4-.3-.3.2.1-.4-.3-.2zm0 0" fill-rule="evenodd" fill="#ffe700"/><path d="M12.1 9.1l.1-.2.1.2h.3l-.2.2v.2l-.2-.1-.2.1.1-.2-.2-.1zm0 0" fill-rule="evenodd" fill="#108c00"/><path d="M7.7 9l.2-.4.1.5h.5l-.4.2.2.5-.4-.3-.5.3.2-.5-.4-.2h.5zm0 0" fill-rule="evenodd"/><path d="M7.7 9l.2-.3v.4h.5l-.3.2.1.5-.3-.3-.4.2.1-.4-.3-.2h.4zm0 0" fill-rule="evenodd" fill="#ffe700"/><path d="M7.8 9.1V9l.1.2h.3l-.2.2v.2L8 9.4l-.3.1.1-.2-.2-.1zm0 0" fill-rule="evenodd" fill="#108c00"/><path d="M6.9 5.7l.2-.4.1.4h.5l-.4.3.2.5-.4-.3-.5.3.2-.5-.4-.3zm0 0" fill-rule="evenodd"/><path d="M7 5.7v-.3l.2.3h.4l-.3.3.1.4a13.2 13.2 0 00-.3-.3l-.4.3.1-.4-.3-.2zm0 0" fill-rule="evenodd" fill="#ffe700"/><path d="M7 5.8v-.2l.1.2h.3l-.2.1v.3L7.2 6l-.2.2v-.3h-.2zm0 0" fill-rule="evenodd" fill="#108c00"/><path d="M12 4.8l-.1.4-.2-.4h-.5l.4-.3-.2-.5.5.3.4-.3-.2.5.4.3zm0 0" fill-rule="evenodd"/><path d="M12 4.8l-.1.3-.2-.3h-.4l.3-.3-.1-.4.4.2.3-.2-.1.4.3.2zm0 0" fill-rule="evenodd" fill="#ffe700"/><path d="M12 4.7l-.1.2-.1-.2h-.3l.2-.2v-.2l.2.2.2-.2-.1.2.2.2h-.3zm0 0" fill-rule="evenodd" fill="#108c00"/><path d="M13.3 8l-.2.4L13 8h-.5l.4-.3-.2-.5.4.3.4-.3-.1.5.4.2zm0 0" fill-rule="evenodd"/><path d="M13.3 8l-.2.3L13 8h-.4l.3-.2-.2-.4.4.2.4-.2-.2.4.4.2zm0 0" fill-rule="evenodd" fill="#ffe700"/><path d="M13.2 7.9V8l-.2-.2h-.2l.2-.2-.1-.2.2.1.2-.1v.2l.1.2zm0 0" fill-rule="evenodd" fill="#108c00"/><path d="M10.2 10.3l-.2.4-.1-.4h-.5l.3-.3-.1-.5.4.3.4-.3-.1.5.4.3zm0 0" fill-rule="evenodd"/><path d="M10.1 10.3l-.1.3-.1-.3h-.5l.4-.3-.2-.4.4.3.4-.3-.2.4.4.3zm0 0" fill-rule="evenodd" fill="#ffe700"/><path d="M10 10.2v.2-.2h-.3l.2-.1-.1-.3.2.2.2-.2v.3l.1.1zm0 0" fill-rule="evenodd" fill="#108c00"/><path d="M7.3 8l-.2.4-.2-.4h-.5l.4-.3-.2-.5.5.3.4-.3-.2.5.4.3zm0 0" fill-rule="evenodd"/><path d="M7.2 8l-.1.3L7 8h-.5l.4-.2-.2-.4.4.2.4-.2-.2.4.3.2zm0 0" fill-rule="evenodd" fill="#ffe700"/><path d="M7.2 7.9L7 8v-.2h-.3l.2-.2-.1-.2.2.1.2-.1v.2l.1.2zm0 0" fill-rule="evenodd" fill="#108c00"/><path d="M8.3 4.8l-.1.5-.2-.5h-.5l.4-.3-.2-.4.5.3.4-.3-.2.4.4.3h-.5zm0 0" fill-rule="evenodd"/><path d="M8.3 4.8l-.1.4-.2-.4h-.4l.3-.2-.1-.5.4.3.3-.3-.1.5.3.2h-.4zm0 0" fill-rule="evenodd" fill="#ffe700"/><path d="M8.2 4.7V5L8 4.7h-.3l.2-.1v-.2l.2.1.2-.1-.1.2.2.1zm0 0" fill-rule="evenodd" fill="#108c00"/><path d="M710.7 586c0 105.1-13.7 189.7-30.8 190.1-16.5-.3-30.2-85.4-30.2-189.6 0-105 13.7-190.5 30.2-190.2 17.1-.4 30.8 84.7 30.8 189.8zm0 0" transform="matrix(.00684 -.0008 0 .00513 5.6 5.4)" fill-rule="evenodd" fill="#009200" stroke-width="2.5" stroke="#000"/><path d="M710.9 586.2c0 105-13.9 189.5-31 189.7-16.5.3-30.3-85-30.3-190 0-104.3 13.8-189.5 30.3-189.8 17.1-.2 31 85 31 190.1zm0 0" transform="matrix(.00733 -.00086 0 .00513 5.6 5.4)" fill-rule="evenodd" fill="#009200" stroke-width="2.5" stroke="#000"/><path d="M710.8 586.2c0 104.4-13.4 190-30.7 190-16.6 0-30.6-85.4-30.6-189.9 0-105.1 14-190 30.6-190 17.3 0 30.7 84.7 30.7 189.9zm0 0" transform="matrix(.00587 -.00068 0 .00565 6.5 5)" fill-rule="evenodd" fill="#009200" stroke-width="2.5" stroke="#000"/><path d="M388.6-53c6-.3 3.3-3.3 6.3-5 3-1.6 7.3-.6 8.6 1.4 1.3 2 .3 4 2 4s47-2.5 48.6-1c1.6 1.8 2 5.1.3 6.3-1.7 1.5-59 3-60.9 1.7-2-1.4-5-7-5-7.4zm0 0" transform="matrix(.03055 0 0 .02851 -2.6 9.6)" fill-rule="evenodd" fill="#a95600" stroke-width=".5" stroke="#000"/><path d="M529.8 406c0 39.8 45.2 27.4 47 60.3-1 35.6-76.8 4.1-79.3-60.3 2.5-65.7 75-98.6 76.7-61.6 1.7 30.1-44.4 20.5-44.4 61.6zm0 0" transform="matrix(.00458 0 0 .00285 7.8 7.2)" fill-rule="evenodd" fill="#ff0" stroke-width="3.9" stroke="#000"/><path d="M529.6 405c0 41.1 45.2 28.8 46.9 61.7-.9 35.6-76.7 4.1-78.4-61.7 1.7-64.3 75-97.2 76.7-60.2.8 30.1-45.2 20.5-45.2 60.2zm0 0" transform="matrix(.00458 0 0 .00285 7.9 7.2)" fill-rule="evenodd" fill="#ff0" stroke-width="3.9" stroke="#000"/><path d="M530 405.7c0 39.7 45.1 27.4 46.8 61.6-.8 34.3-76.7 2.8-79.3-61.6 2.6-64.4 75-98.7 76.7-61.7 1.8 31.5-44.3 22-44.3 61.7zm0 0" transform="matrix(.00458 0 0 .00285 8 7.2)" fill-rule="evenodd" fill="#ff0" stroke-width="3.9" stroke="#000"/><path d="M529.7 405.7c0 39.7 45.2 27.4 46.9 61.6-.9 34.3-76.8 2.8-78.5-61.6 1.7-64.4 75-98.7 76.8-61.7.8 31.5-45.2 22-45.2 61.7zm0 0" transform="matrix(.00458 0 0 .00285 8.1 7.2)" fill-rule="evenodd" fill="#ff0" stroke-width="3.9" stroke="#000"/><path d="M481.9-41c0 1.7-1.6 3.3-3.6 3.3A3.6 3.6 0 01475-41c0-1.9 1.6-3.4 3.6-3.4 1.8 0 3.4 1.5 3.4 3.4zm0 0" transform="matrix(.0336 .00057 -.00061 .03279 -5 9.7)" fill-rule="evenodd" fill="#a95600" stroke-width=".4" stroke="#000"/><path d="M448.2 905c-.3 13.3-9.9 24-21.3 24.2-11.3-.2-20.6-11-20.3-24.3-.5-13.4 9.1-24 20.5-23.9 11.3-.2 20.6 10.6 21 24zm0 0" transform="matrix(.00517 -.00049 .00099 .00908 7.3 .4)" fill-rule="evenodd" fill="#009200" stroke-width="2.5" stroke="#000"/><path d="M448.2 904.8c-.3 13.4-10 24.5-21.3 24.3-11.3-.2-20.6-10.6-20.3-24-.5-13.3 9.2-24.4 20.5-24.2 11.3.2 20.6 10.6 21.1 24zm0 0" transform="matrix(.00517 -.00049 .00099 .00908 7.1 .4)" fill-rule="evenodd" fill="#009200" stroke-width="2.5" stroke="#000"/><path d="M447.9 905.2c-.2 12.9-9.1 24-20.4 23.8-12.2.3-21.4-10.6-21.2-23.9.3-13.3 9.2-24 20.6-24.3 12 .2 21.3 11 21 24.4zm0 0" transform="matrix(.00517 -.00049 .00099 .00908 7 .2)" fill-rule="evenodd" fill="#009200" stroke-width="2.5" stroke="#000"/><path d="M447.6 904.8c.2 13.4-8.7 24.4-20.7 24.2-11.3.3-20.9-10.8-20.3-24.1-.4-13 9.3-24 20.5-23.9 11.3-.2 21 10.8 20.5 23.8zm0 0" transform="matrix(.00486 -.00046 .00108 .00993 7.2 -.6)" fill-rule="evenodd" fill="#009200" stroke-width="2.5" stroke="#000"/><path d="M447.7 905c.4 13.3-9.1 24-20.3 24-12.1.2-21.1-10.7-20.7-24-.4-13.4 9-24.2 20.3-24 11.2 0 21 10.6 20.7 24zm0 0" transform="matrix(.00486 -.00046 .00102 .00936 7.5 0)" fill-rule="evenodd" fill="#009200" stroke-width="2.5" stroke="#000"/><path d="M447.8 905c.4 13.3-9 24.1-20.3 24-12 .3-21-10.6-21.5-24 .4-13.3 10-24.1 21.1-24 11.3-.3 21 10.6 20.7 24zm0 0" transform="matrix(.00486 -.00046 .00102 .00936 7.3 -.2)" fill-rule="evenodd" fill="#009200" stroke-width="2.5" stroke="#000"/><path d="M447.8 905c.4 13.3-9 24-21 24-11.4.2-20.3-10.7-20.7-24 .3-13.4 9.8-24.2 21-24 11.3 0 21.1 10.6 20.7 24zm0 0" transform="matrix(.00486 -.00046 .00102 .00936 7.2 -.3)" fill-rule="evenodd" fill="#009200" stroke-width="2.5" stroke="#000"/><path d="M447.9 905.2c-.3 12.9-9 23.7-21.1 24-11.2-.2-20.2-11-20.6-24.4.3-13 9.8-23.7 21-24 11.3.1 21 11 20.7 24.4zm0 0" transform="matrix(.00486 -.00046 .00102 .00936 7 -.3)" fill-rule="evenodd" fill="#009200" stroke-width="2.5" stroke="#000"/><path d="M482.5-141s-11.6 10-10 37c1.7 27 26.5 39.4 26.5 39.4s6.2-7.7 5.2-29.4c-2-31.8-13.9-45.8-13.9-45.8zm0 0" transform="matrix(.03055 0 0 .02851 -4.9 9.9)" fill-rule="evenodd" fill="#804bff" stroke-width=".5" stroke="#000"/><path d="M448 905.2c-.3 13.3-9.3 24-20.6 24-12 0-21.2-10.7-21-24-.4-13.3 9.3-24.5 20.6-24.5 11.4.4 21.3 11.1 21 24.5zm0 0" transform="matrix(.00518 .00038 -.00077 .0091 9.1 0)" fill-rule="evenodd" fill="#009200" stroke-width="2.5" stroke="#000"/><path d="M447.6 904.9c.5 13.3-9.2 24.4-20.6 24-11.3 0-20.4-10.7-20.9-24 .3-13.3 9.3-24 21.3-24 11.3-.1 20.5 10.7 20.2 24zm0 0" transform="matrix(.00518 .00038 -.00077 .0091 9 0)" fill-rule="evenodd" fill="#009200" stroke-width="2.5" stroke="#000"/><path d="M448.1 905c-.3 13.4-9.3 24-21.3 24.1-11.3 0-20.5-10.7-20.2-24-.4-13.3 9.3-24 20.6-24 11.3-.1 20.5 10.7 21 24zm0 0" transform="matrix(.00518 .00038 -.00077 .0091 8.9 -.2)" fill-rule="evenodd" fill="#009200" stroke-width="2.5" stroke="#000"/><path d="M448.2 904.9c-.1 13.3-9.5 24.3-20.7 24.3-12 0-21.1-11-21-24.4.1-13 9.5-23.9 20.7-23.9s21 10.6 21 24zm0 0" transform="matrix(.00487 .00036 -.00084 .00995 9.2 -1)" fill-rule="evenodd" fill="#009200" stroke-width="2.5" stroke="#000"/><path d="M447.6 905.2c.6 13.3-9 24-20.1 24-12 0-21-10.8-21.6-24.1.3-13.4 9.7-24.1 21-24.1 12 0 21 10.8 20.7 24.2zm0 0" transform="matrix(.00487 .00036 -.0008 .00938 9.4 -.4)" fill-rule="evenodd" fill="#009200" stroke-width="2.5" stroke="#000"/><path d="M448.2 905c-.2 13.3-9.7 24.1-21 24.1-12 0-21-10.8-20.7-24.2-.5-13.3 9-24 21-24 11.2-.1 20.2 10.8 20.7 24.1zm0 0" transform="matrix(.00487 .00036 -.0008 .00938 9.3 -.5)" fill-rule="evenodd" fill="#009200" stroke-width="2.5" stroke="#000"/><path d="M448 904.9c-.2 13.3-9.7 24.1-21 24.1-11.1 0-21-10.8-20.7-24.2.3-13.3 9-24 21-24.1 11.2.4 21 10.9 20.7 24.2zm0 0" transform="matrix(.00487 .00036 -.0008 .00938 9.1 -.7)" fill-rule="evenodd" fill="#009200" stroke-width="2.5" stroke="#000"/><path d="M448.3 905c-.3 13.3-9.8 24-21 24.1-12 0-21-10.9-20.7-24.2-.6-13.3 8.9-24 20-24 12.1-.1 21 10.8 21.7 24zm0 0" transform="matrix(.00487 .00036 -.0008 .00938 9 -.7)" fill-rule="evenodd" fill="#009200" stroke-width="2.5" stroke="#000"/><path d="M682.4 606.2c.7 102.6-25.8 186-57.8 186-32.3.9-58.5-82.7-58.9-186 .3-103.1 26.8-186.6 58.8-186.6 32 0 58.2 83.5 57.9 186.6zm0 0" transform="matrix(.00489 -.00171 .00183 .00428 6.4 5.7)" fill-rule="evenodd" fill="#c90000" stroke-width="1.3" stroke="#000"/><path d="M229 357c-.2 6.8-5 12.8-11 12.5-5.8.1-10.7-5.7-10.7-12.5-.1-7.3 5-13 10.7-13 6-.2 10.9 5.6 11 13zm0 0" transform="matrix(.01222 .0002 -.00016 .00855 7.8 3.4)" fill-rule="evenodd" fill="#009200" stroke-width="1.5" stroke="#000"/><path d="M228.8 357c0 6.8-4.6 12.8-10.8 12.5-5.8.1-10.7-5.7-10.8-12.6.3-7.3 5-12.9 10.8-13 6.2-.1 11 5.7 10.8 13zm0 0" transform="matrix(.0107 .00017 -.00016 .00855 8.2 3.2)" fill-rule="evenodd" fill="#009200" stroke-width="1.6" stroke="#000"/><path d="M229 356.8c-.2 7.3-5 12.9-10.8 13-6.2.1-11-5.7-10.7-13-.2-7.3 4.5-13 10.7-13 5.9.3 10.7 5.7 10.8 13zm0 0" transform="matrix(.0107 .00017 -.00016 .00855 8 3.2)" fill-rule="evenodd" fill="#009200" stroke-width="1.6" stroke="#000"/><path d="M228.9 356.6c0 7-4.7 13.3-11 13-5.8 0-10.7-6-10.5-13 0-7.1 4.7-12.8 10.6-12.5 6.2-.1 10.8 5.4 10.9 12.5zm0 0" transform="matrix(.0113 .00018 -.00014 .0077 8 3.3)" fill-rule="evenodd" fill="#009200" stroke-width="1.6" stroke="#000"/><path d="M229 357c-.3 7.1-5 12.8-11 12.5-5.8.1-10.7-5.4-10.8-12.5.3-7.6 5-13.3 11-12.9 5.8-.1 10.7 5.3 10.8 13zm0 0" transform="matrix(.0113 .00018 -.00014 .0077 8 3.2)" fill-rule="evenodd" fill="#009200" stroke-width="1.6" stroke="#000"/><path d="M229 356.8c0 7.3-5 12.9-10.9 13-5.8-.3-10.6-5.7-10.7-13-.2-7.3 4.9-12.9 10.7-13 5.9.3 10.7 5.7 10.8 13zm0 0" transform="matrix(.0107 .00017 -.00016 .00855 7.9 3.1)" fill-rule="evenodd" fill="#009200" stroke-width="1.6" stroke="#000"/><path d="M228.8 357c.1 6.8-4.9 12.8-10.7 12.5-5.9.1-10.7-5.7-10.8-12.6-.1-7.3 4.9-12.9 10.7-13 5.9 0 10.7 5.7 10.8 13zm0 0" transform="matrix(.0107 .00017 -.00016 .00855 7.9 3)" fill-rule="evenodd" fill="#009200" stroke-width="1.6" stroke="#000"/><path d="M228.9 356.7c0 7.3-5 12.9-10.7 13-6.1.1-11-5.7-10.7-13-.1-6.9 4.6-12.9 10.7-12.6 5.7-.1 10.6 5.7 10.7 12.6zm0 0" transform="matrix(.01222 .0002 -.00016 .00855 7.4 3)" fill-rule="evenodd" fill="#009200" stroke-width="1.5" stroke="#000"/><path d="M228.9 356.8c0 7.1-4.7 12.8-11 13-5.8 0-10.7-5.9-10.4-13-.1-7.1 4.6-12.8 10.5-13 6.2 0 10.8 5.9 10.9 13zm0 0" transform="matrix(.0113 .00018 -.00014 .0077 7.8 3)" fill-rule="evenodd" fill="#009200" stroke-width="1.6" stroke="#000"/><path d="M228.8 356.9c.1 6.9-4.9 12.9-10.7 13-5.9-.3-10.7-6.2-10.8-13-.1-7.3 4.9-12.9 10.7-13 5.9-.1 10.7 5.7 10.8 13zm0 0" transform="matrix(.0107 .00017 -.00016 .00855 7.8 2.9)" fill-rule="evenodd" fill="#009200" stroke-width="1.6" stroke="#000"/><path d="M228.8 356.6c0 7.3-4.6 13.3-10.8 13-5.8.1-10.7-5.7-10.8-12.6.3-7.3 5-13.3 10.8-13 6.2-.1 11 5.7 10.8 12.6zm0 0" transform="matrix(.0107 .00017 -.00016 .00855 7.5 3)" fill-rule="evenodd" fill="#009200" stroke-width="1.6" stroke="#000"/><path d="M229 357c-.2 6.9-4.9 12.9-10.7 12.6-6.2 0-11-5.8-11.2-12.6.3-7.3 5-12.9 11.2-13 5.8-.1 10.6 5.7 10.8 13zm0 0" transform="matrix(.0107 .00017 -.00016 .00855 7.6 3)" fill-rule="evenodd" fill="#009200" stroke-width="1.6" stroke="#000"/><path d="M229 356.7c-.2 7.4-4.9 13-11 13-6 .2-10.7-5.7-10.9-13 .3-6.8 5-12.9 11.2-13 5.8.4 10.7 6.2 10.8 13zm0 0" transform="matrix(.0107 .00017 -.00016 .00855 7.6 2.9)" fill-rule="evenodd" fill="#009200" stroke-width="1.6" stroke="#000"/><path d="M596.2 564.1c0 114.2-30 206.2-67.7 205.8-36.9 0-67-91.6-67.4-205 .6-114 30.7-206 67.6-205.9 37 .1 67.8 91.9 67.5 205.1zm0 0" transform="matrix(.00539 -.00171 .00198 .00496 6.6 5.5)" fill-rule="evenodd" fill="#009200" stroke-width="2.5" stroke="#000"/><path d="M542.3 646c-.6 22.9-6 40.7-13.8 41-7 0-13-18.3-13.3-40.8.3-22.2 6-40.7 13.8-41 7 0 13 18.3 13.3 40.8zm0 0" transform="matrix(.00505 -.00226 .00218 .00523 6.8 5.4)" fill-rule="evenodd" fill="#009200" stroke-width="2.5" stroke="#000"/><path d="M139.8 644c0 57.5-18.6 86.3-34.5 110.2 7.7-32.4 12.9-52.4 13-110.4 0-57.5 29.4-85 40.1-101.6-3.8 16.5-18.4 43.9-18.6 101.9zm0 0" transform="matrix(.01034 -.00262 .00522 .00673 6 3.6)" fill-rule="evenodd" fill="#009200" stroke-width="1.5" stroke="#000"/><path d="M140 644.2c0 57.5-19 86-34.6 110.2 7.4-32.6 12.9-52.5 13-110.4-.3-57.6 29.7-85.4 40.4-102.2-4.4 16.9-18.7 44.4-18.9 102.4zm0 0" transform="matrix(.01034 -.00262 .00522 .00673 6 4)" fill-rule="evenodd" fill="#009200" stroke-width="1.5" stroke="#000"/><path d="M140 644c-.3 57.8-19 86.4-34.7 110.3 7.7-32.7 13.3-52.7 13-110.1-.1-58 29.5-85.3 40-102-4 16.5-18.4 44-18.4 101.9zm0 0" transform="matrix(.01028 -.00285 .00539 .00662 6 4.3)" fill-rule="evenodd" fill="#009200" stroke-width="1.5" stroke="#000"/><path d="M542 646.2c0 22.5-6 40.7-13.4 40.6-7 0-13-18.2-13.3-40.8 0-22.6 6-40.8 13.4-40.6 7.1 0 13.4 18.3 13.3 40.8zm0 0" transform="matrix(.0099 -.00228 .00385 .00935 3 2.4)" fill-rule="evenodd" fill="#009200" stroke-width="1.4" stroke="#000"/><path d="M541.9 645.9c.2 22.9-5.8 41.1-13.1 40.9-7.5.2-13.3-18-13.5-40.9 0-22.3 6-40.5 13.5-40.8 7.3.2 13 18.5 13 40.8zm0 0" transform="matrix(.00896 -.00131 .00297 .0077 4 3.1)" fill-rule="evenodd" fill="#009200" stroke-width="1.6" stroke="#000"/><path d="M541.7 646.3c.2 22.2-5.4 40.5-12.8 40.4-7.5.4-13.6-18.1-13.6-40.8.2-22 5.8-40.4 13.4-40.8 7.4 0 13.4 18.6 13 41.2zm0 0" transform="matrix(.00896 -.00114 .00275 .00776 3.9 3.1)" fill-rule="evenodd" fill="#009200" stroke-width="1.6" stroke="#000"/><path d="M542.4 645.9c-.5 22.5-6.2 41.2-13.8 41-7 0-13-18.3-13-41 0-22.5 5.9-40.5 13-40.5 7.6.2 13.5 18.5 13.8 40.5zm0 0" transform="matrix(.00715 -.00114 .00258 .0057 5 4)" fill-rule="evenodd" fill="#009200" stroke-width="2.1" stroke="#000"/><path d="M542 645.8c.1 22.6-6 41.1-13.4 40.9-7.6.3-13.2-18.3-13.5-40.3.4-22.6 6.5-41.1 13.4-40.9 7.6-.4 13.2 18.3 13.5 40.3zm0 0" transform="matrix(.00731 -.00074 .0022 .00587 5.1 3.7)" fill-rule="evenodd" fill="#009200" stroke-width="2.1" stroke="#000"/><path d="M145.8 569.8c0 33.7-6.8 61.6-15.1 61.5-8.3 0-15.1-27.9-15-62" transform="matrix(.00566 -.00285 .00253 .00673 8 3.6)" fill-rule="evenodd" fill="#009200" stroke-width="2.1" stroke="#000"/><path d="M542.1 645.8c.2 22.7-6 41.2-13.3 40.9-7.6.4-13.2-18.3-13.4-41-.3-22 5.8-40.4 13.2-40.2 7.6-.3 13.2 18.3 13.5 40.3zm0 0" transform="matrix(.00731 -.00074 .0022 .00587 5.1 3.5)" fill-rule="evenodd" fill="#009200" stroke-width="2.1" stroke="#000"/><path d="M541.9 645.9c-.2 23-5.8 41-13.3 40.9-7.5 0-13-18.4-13-40.8-.4-22.4 5.9-41 13.4-40.9 6.9 0 12.9 18.4 12.9 40.8zm0 0" transform="matrix(.00731 -.00057 .00209 .00593 5 3.4)" fill-rule="evenodd" fill="#009200" stroke-width="2.1" stroke="#000"/><path d="M145.5 569c-.1 34.3-6.6 62.2-15.1 62.3-8.2-.5-15-27.7-14.9-61.8" transform="matrix(.00368 -.00268 .00253 .00456 8.2 4.5)" fill-rule="evenodd" fill="#009200" stroke-width="2.9" stroke="#000"/><path d="M145.8 569.7c-.2 34.2-7 61-14.7 61.6-8.6.1-15-27.6-15.6-62.3" transform="matrix(.00368 -.00268 .00253 .00456 8.3 4.4)" fill-rule="evenodd" fill="#009200" stroke-width="2.9" stroke="#000"/><path d="M145.7 569.6c.3 33.9-6.5 61.6-14.9 61.7-8-.3-15-28-15.3-61.8" transform="matrix(.00517 -.00365 .00352 .00627 7.8 3.6)" fill-rule="evenodd" fill="#009200" stroke-width="2.1" stroke="#000"/><path d="M145.4 569.3c-.2 34.2-6.3 61.7-14.6 61.5-8.7.3-15-27.6-15.3-61.2" transform="matrix(.00368 -.00297 .00253 .00502 8.4 4)" fill-rule="evenodd" fill="#009200" stroke-width="2.7" stroke="#000"/><path d="M276.5 345.5c-12.8 9.3 0 24.9 12 30.5 12.8 8 86.3 58.5 135.8 11.8-40.7 1.2-118.2-62.9-147.8-42.3zm0 0" transform="matrix(.00489 0 0 .00627 9.1 3.7)" fill-rule="evenodd" fill="#804bff" stroke-width="2.5" stroke="#000"/><path d="M276.5 345.5c-12.8 9.3 0 24.9 12 30.5 12.7 8.1 86.3 58.5 135.8 11.8-40.8 1.3-118.3-62.9-147.8-42.3zm0 0" transform="matrix(.00489 0 0 .00627 9 3.6)" fill-rule="evenodd" fill="#804bff" stroke-width="2.5" stroke="#000"/><path d="M276.5 345.4c-12.8 9.4 0 25 12 30.5 12.8 8.1 86.3 58.6 135.9 12.5-40.8.6-118.3-63.5-147.9-43zm0 0" transform="matrix(.00489 0 0 .00627 9 3.4)" fill-rule="evenodd" fill="#804bff" stroke-width="2.5" stroke="#000"/><path d="M276.1 345.2c-12 9.4.8 25.6 12 31.2 13.6 7.5 87.1 57.9 136.7 11.8-40.8.6-119.1-63.5-148.7-43zm0 0" transform="matrix(.00489 0 0 .00627 8.9 3.2)" fill-rule="evenodd" fill="#804bff" stroke-width="2.5" stroke="#000"/><path d="M210.8 247.5c22-12.2 57.1-9.7 80.3 11 19 16.7 45 75 70 92.9A58.5 58.5 0 01319 336c-28.5 15.5-37.7 16.7-63.6 16-36-1.3-62.7-18-68.2-41-6.4-21.8 4.5-52.2 23.7-63.5zm0 0" transform="matrix(.00613 -.00104 .00143 .00516 8 4.3)" fill-rule="evenodd" fill="#804bff" stroke-width="2.5" stroke="#000"/><path d="M301.3 323a15 15 0 01-14.2 15.2c-7.7.3-13.9-6.9-14-15.3 0-8.5 6-15 14.3-15.3 7.6.8 13.8 7 13.9 15.4zm0 0" transform="matrix(.00764 .00012 -.00007 .0037 7.9 4.2)" fill-rule="evenodd" fill="red" stroke-width="2.5" stroke="#000"/><path d="M228 348.2c.2 9-10.5 16.2-23.2 16.1-13.2-.3-23.6-7.3-23.2-16-.2-8.9 10.4-16.1 23.1-16 12.7 0 23 7 23.2 16zm0 0" transform="matrix(.00615 -.00218 .00205 .00488 7.8 4.4)" fill-rule="evenodd" fill="#ff0" stroke-width="2.5" stroke="#000"/><path d="M10 5.6h-.1zm0 0" fill-rule="evenodd"/><path d="M517.3 261c4 17-7.1 43-33.8 52.2-26.7 12.5-45.5 42-55 88.5-47.6-103.4-23.9-148.5 20.7-161.4 36.9-14.5 60-13.3 68 20.8zm0 0" transform="matrix(.00305 .00005 -.00004 .00228 8.4 4.9)" fill-rule="evenodd" fill="#ff0" stroke-width="6.6" stroke="#000"/><path d="M9.6 5.7zm0 0" fill-rule="evenodd"/></svg>