<svg xmlns="http://www.w3.org/2000/svg" width="20" height="14"><path d="M0 9.3h20V14H0zm0 0"/><path d="M0 4.7h20v4.6H0zm0 0" fill="#fff"/><path d="M0 0h20v4.7H0zm0 0" fill="#ce1126"/><path d="M450.8 302.3l68.6 63.7-5-115.6c-.6-17.4-16-13.3-27-7.2-11.1 7.2-24 7.2-37.4 2.6-13.4 4.6-26.3 4.6-37.3-2.6-11.1-6.1-26.4-10.2-27 7.2l-5 115.6zm0 0" transform="matrix(.025 0 0 .02333 -1.3 0)" fill="#fff" stroke-width="1.3" stroke-linejoin="round" stroke="#c09300"/><path d="M8.6 5.8l-.1 2.6-.2.1V5.8a.6.6 0 01.3 0zm.2.1v2.2l-.3.2.1-2.5.2.1zm.2.2v1.8l-.2.2.1-2.1.1.1zm.3.1l-.1 1.6H9l.1-1.7.2.1zm.2 0v1.3l-.2.1V6.2h.2zm2-.5v2.7l.2.1V5.8a.6.6 0 00-.3 0zm-.3.2v2.2l.3.2-.1-2.5-.2.1zm-.2.2v1.8l.2.2-.1-2.1-.1.1zm-.3.1l.1 1.6h.2l-.1-1.7-.2.1zm-.2 0v1.3l.2.1V6.2h-.2zm0 0" fill="#c09300"/><path d="M453.1 315l9.7 43.8-3.3 3.1-3.2-2.5-5.4-39 2.2 39-3.1 4-3.1-4 2.3-39-5.4 39-3.3 2.5-3.3-3.1 9.7-43.7zm0 0" transform="matrix(.025 0 0 .02333 -1.3 0)" fill="#c09300" stroke-width="1.1" stroke="#c09300"/><path d="M428.4 295.8l-19 67.6 26.2 4 11.3-50.8zm0 0" transform="matrix(.025 0 0 .02333 -1.3 0)" fill="#fff" stroke-width="1.2" stroke-linejoin="round" stroke="#c09300"/><path d="M422.2 319l2.3 5.4 12.4-11.7" transform="matrix(.025 0 0 .02333 -1.3 0)" fill="none" stroke-width="1.3" stroke-linejoin="round" stroke="#c09300"/><path d="M430.8 305l2.6 24.3 7.9-10.4m-3.2 4l4.2 15m1.8-5.4l-8.6 13m2.6 13.3l-2.8-13.3-2.3-13.4-6 8-2.5-9.1-8.2 8.3 4.2 15.3 5.7-9.4 3.2 9.5 6-9.2M415 362l5.3-7.3 3.5 11.4 4.6-8 3.2 9.6" transform="matrix(.025 0 0 .02333 -1.3 0)" fill="none" stroke-width="1.3" stroke-linejoin="round" stroke="#c09300"/><path d="M428.4 295.8l-19 67.6 26.2 4 11.3-50.8zm0 0" transform="matrix(-.025 0 0 .02333 21.3 0)" fill="#fff" stroke-width="1.2" stroke-linejoin="round" stroke="#c09300"/><path d="M422.2 319l2.3 5.4 12.4-11.7" transform="matrix(-.025 0 0 .02333 21.3 0)" fill="none" stroke-width="1.3" stroke-linejoin="round" stroke="#c09300"/><path d="M430.8 305l2.6 24.3 7.9-10.4m-3.2 4l4.2 15m1.8-5.4l-8.6 13m2.6 13.3l-2.8-13.3-2.3-13.4-6 8-2.5-9.1-8.2 8.3 4.2 15.3 5.7-9.4 3.2 9.5 6-9.2M415 362l5.3-7.3 3.4 11.4 4.7-8 3.2 9.6" transform="matrix(-.025 0 0 .02333 21.3 0)" fill="none" stroke-width="1.3" stroke-linejoin="round" stroke="#c09300"/><path d="M450 393.8c20 0 39-1.6 50.2-4.7 4.6-.9 4.6-3.2 4.6-6.6 4.9-1.5 2.5-7.2 5.8-7.2-3.4 1-4-5.3-8-4.7 0-5.5-5.7-6.1-10.4-4.6-9.5 3.1-26.3 4-42.2 4-16-.9-32.7-.9-42.2-4-4.7-1.5-10.3-.9-10.3 4.6-4-.6-4.7 5.7-8 4.7 3.3 0 .8 5.7 5.7 7.2 0 3.4 0 5.7 4.6 6.6a210 210 0 0050.2 4.6zm0 0" transform="matrix(.025 0 0 .02333 -1.3 0)" fill="#fff" stroke-width="2.4" stroke-linecap="round" stroke-linejoin="round" stroke="#c09300"/><path d="M423 363.4a75 75 0 0019 1c3.3 0 5.7 5.6-.7 6.2-5.7.7-14.4 0-19.1-.6a329.4 329.4 0 01-18.4-4c-5.7-2.6-1.6-7 1.7-6.6 5.6 1.9 11.5 3.2 17.5 4zm54 0c-6.4 1-13.6 1.7-18.9 1-3.4 0-5.8 5.6.6 6.2 5.7.7 14.4 0 19.1-.6 4-.9 12.8-2.4 18.4-4 5.7-2.6 1.6-7-1.7-6.6-5.6 1.9-11.5 3.2-17.5 4zm0 0" transform="matrix(.025 0 0 .02333 -1.3 0)" fill="#fff" stroke-width="1.3" stroke-linecap="round" stroke-linejoin="round" stroke="#c09300"/><path d="M403 360.4c-4.9-1-7 4.7-5.5 7.9.6-1.7 4-1.7 4.7-3.2 1-2.3-.6-2.3 1-4.7zm19.2 14.8c0-3.4 3.1-2.9 3.1-6 0-1.6-.8-4-2.3-4-1.8 0-3.2 1.4-3.3 3.1-.6 3 2.5 3.5 2.5 6.9zm22.6-9.2c4.7 0 4.3 6.3 2 9.5 0-2.3-3.8-3.2-3.8-4.9 0-2.3 3.6-2.3 1.8-4.6zm52-5.6c5-1 7.3 4.7 5.7 7.9-.6-1.7-4-1.7-4.7-3.2-1-2.3.6-2.3-1-4.7zM478 375c0-3.2-3.2-2.8-3.2-6 0-1.5.8-4 2.4-4 1.7.1 3.1 1.5 3.3 3.1.6 3.2-2.5 3.7-2.5 6.9zm-23-9c-4.7 0-4.2 6.3-2 9.5 0-2.3 4-3.2 4-4.9 0-2.3-3.6-2.3-2-4.6zm0 0" transform="matrix(.025 0 0 .02333 -1.3 0)" fill="#fff" stroke-width="1.3" stroke-linecap="round" stroke-linejoin="round" stroke="#c09300"/><path d="M404.7 362c1.6 0 4 .8 4.7 1.6zm8 2.5c.7 0 3.9.6 5.4 1.5zm28.6 3.1c-1.6 0-4.7 0-5.7.7l5.7-.8zm-8.8 0c-1-1-4-1-5.6 0zm62.8-5.7a8 8 0 00-4.7 1.7zm-7.8 2.6c-1 0-4 .6-5.6 1.5zm-28.7 3.1c1.5 0 4.6 0 5.6.7l-5.6-.8zm8.7 0c1-1 4-1 5.6 0zm0 0" transform="matrix(.025 0 0 .02333 -1.3 0)" fill="#fff" stroke-width=".9" stroke-linecap="round" stroke-linejoin="round" stroke="#c09300"/><path d="M8.8 8.7zm1.4.1zm0 0zm0 0M9 8.6h-.1v.1h-.1v.1H9l.2.1v-.1H9h-.1v-.1zm-.1.2zm0 .1zm0 0zm2.2 0zm-2 0H9zm.5.1v-.2.2zm.7-.2V9h.1v-.1-.1h-.1zm0 .2zm-.8-.3V9c0 .1 0 .1 0 0h-.1v-.1h-.1V9h-.1H9S9 9 9 9h.2l.1.1h.1v-.2zm-.1.1zm1.6-.1v.1c.1 0 0 0 0 0V9h-.1l-.1-.1V9h-.1-.1c0 .1 0 0 0 0V9h.4v-.1h.2v-.1l-.1-.1zm-.2.2zm.2 0zm-.2 0zm-.2 0zm.3 0zm-.5.2a.1.1 0 00.1 0V9v-.1.1zm-.1 0zm-.5-.2h-.1V9h-.1H10.3v-.1h-.4zm0 0h.2V9h-.1-.1zm.3 0zm0 0" fill="#c09300"/><path d="M450 327.1c32.7-25 29.8-61.8 29.8-61.8l-2.5.4c-6.8 0-23.2-4-27-9-4 4.5-20.8 9-27.6 9l-2.5-.4s-2.9 36.9 29.8 61.8zm0 0" transform="matrix(.025 0 0 .02333 -1.3 0)" fill="#fff" stroke-width="1.1" stroke="#c09300"/><path d="M477.2 268h-.8c-6.2 0-20.6-3.2-26.2-7.8a60.8 60.8 0 01-26.6 7.8h-.8c0 6.4 1 12.6 2.7 18.8a70 70 0 0024.5 37 69.7 69.7 0 0024.5-37.2c1.8-6 2.7-12.4 2.7-18.6zm0 0" transform="matrix(.025 0 0 .02333 -1.3 0)" fill="#fff" stroke-width=".9" stroke="#c09300"/><path d="M9.7 6.2h-.4v.5l.4.6zm.6 0v1.1a1.6 1.6 0 00.4-1l-.4-.1zm0 0" fill="#c09300"/><path d="M462.3 253c.7.1-.9-3.6-.9-3.6 1.7 1.9 8.4 2.4 8.4 2.4-4-1.9-8-15-7.5-25.8.4-10.5-1.5-14.7-3-16.4-2-2-8.5-3.9-12.7-4-2.5 0-2 1.8-2 1.8-4.4-1.2-9-1.7-11-.1-1.7 1.1-2.2 7.3-.8 6.3 3.3-2.7 6.3-.2 8.1 2.7 2 2.5 1.8 9.7-.7 18.2a62.1 62.1 0 01-10 17.6c3.9 0 9.5-3.3 9.5-3.3l-1.3 5.3c4.3-2 7.5-5 7.5-5l4 4.2c1.4-1.8 4-4.2 4-4.2s3.3 3.5 8.4 4zm0 0" transform="matrix(.025 0 0 .02333 -1.3 0)" fill="#fff" stroke-width="1.2" stroke="#c09300"/><path d="M446 227.7s-2 16.2-6.3 21m10-21.5s-1 16.6-3.8 22m7-21.4s0 18.1.9 21.3m3-20.4s.9 15.2 4.6 20.7" transform="matrix(.025 0 0 .02333 -1.3 0)" fill="none" stroke-width="1.3" stroke="#c09300"/><path d="M442 219.6a8.4 8.4 0 00-1-3.3c-2-3-5-5.4-8.2-2.7 0 0 1.1-3.5 3.6-3.7 1.7 0 6.1 1.5 9.9 7.9 0 0-2.9-.7-3.5 0-1.2 1-.8 1.8-.8 1.8zm0 0" transform="matrix(.025 0 0 .02333 -1.3 0)" fill="#c09300" stroke-width=".3" stroke="#c09300"/><path d="M432.3 209.3c.4-1 .8-1.9 1.4-2 2-1.6 6.5-1 10.8.1 0 0-.3-1.8 2-1.8 4.3.1 10.7 2 12.7 4 .6.7 1.1 1.5 1.4 2.3-1-1.3-3.7-1.1-4.4-1.1-1 .1-1.7 0-3 .5-.9.1-1.8.3-2.4.6-.3.5-.8 1.7-1.4 1.7-1 0-1-.2-1.3-.5-.3-.5-.4-1.2-1-1-.9.2-2.7-.7-5-2.5s-3-2.2-5.9-2c-3 .2-3.9 1.8-3.9 1.8zm0 0" transform="matrix(.025 0 0 .02333 -1.3 0)" fill="#c09300" stroke-width=".3" stroke="#c09300"/><path d="M10 5v-.1zm0 0" fill="#fff"/></svg>