<svg xmlns="http://www.w3.org/2000/svg" width="20" height="14"><g fill-rule="evenodd"><path d="M-.6 0h30v7h-30zm0 0"/><path d="M-.6 7h30v7h-30zm0 0" fill="#107b00"/><path d="M-.6 4.6h30v4.9h-30zm0 0" fill="#fff"/><path d="M13.8 5.4c-1.4-.6-2.5.5-2.5 1.6 0 1 1.1 2.2 2.5 1.7-1-.3-1.4-1-1.4-1.7s.5-1.5 1.4-1.6zm0 0" fill="#f0f"/><path d="M15.3 8l-.7-.5-.8.6.3-.9-.8-.5h1l.3-.8.2.8h1l-.8.5" fill="#ff1800"/><path d="M13.9 8.7a2 2 0 01-1.8-.2c-.5-.3-.8-.9-.8-1.5s.3-1.1.8-1.5a2 2 0 011.8-.1c-.9 0-1.5.8-1.5 1.6s.6 1.5 1.5 1.7zM-.6 0L9.6 7-.6 14zm0 0" fill="red"/></g></svg>