<svg xmlns="http://www.w3.org/2000/svg" width="20" height="14"><path fill="#be0027" d="M0 0h20v14H0z"/><path d="M0 14h20V7zm0 0" fill-rule="evenodd" fill="#b4d7f4"/><path d="M0 0h20v7zm0 0" fill-rule="evenodd" fill="#239e46"/><path d="M5.8 10.5c-.3.1-.5.3-.5.6h1.6c0-.3-.2-.5-.5-.6 1.6 0 3-.6 3.3-1-.3 0-.6.1-.8 0 .5-.1 2-1 1.8-2-.2.5-.8 1-1 1 .5-.7 1.3-1.5.6-2.1 0 .3-.2.7-.4.8.4-.9.7-1.9 0-2.6v1C9.7 5 9.6 3.9 9 3.9c.2.1.3.6.3 1a1.7 1.7 0 00-.6-.7 3.6 3.6 0 00-1.3-1.3c0 .4 0 .7.6 1-.3 0-.5-.5-.9-.5-.2 0-.4.2-.8.1l.3.3-.5-.1c.3.3.6.5 1 .4a1.7 1.7 0 011 .2h-.7c.3.2.4.3.8.3h.6l.5.7c-.4 0-.3-.4-.7-.6-.2.4.3 1 .6 1.2 0 .3.1.7.3 1 0 .1.2.3.2.8-.3-.2-.5-.7-.4-1-.3 0-.4.4-.2.7V8l-.1.4c0 .2-.1.4-.3.5a1 1 0 000-.4c0 .2-.4.4-.5.6-.1.2-.1.6-.6.7-.7.1-.9.2-1.3.4 0-.3 0-.9.3-.9s1-.2.8-.8c0 .2-.2.4-.4.4.2-.3.6-.6.4-1l-.5.5c.2-.4 0-.6-.3-.2l-.3.8-.2-1c-.2-.4.2-.5.3-.4.4 0 1.1 0 1-.6-.1.3-.4.3-.8.2.4-.2.7-.7.3-1a1 1 0 01-.5.8 1.4 1.4 0 010-.8 2 2 0 00-.4 1l.1-1c0-.2.3 0 .6 0s.8-.2.7-.6c-.1.2-.3.3-.6.2.3-.1.8-.4.5-.8 0 .1-.1.3-.4.3 0-.1 0-.4.3-.5-.4 0-.7.2-.8.6l-.1-.6c.2-.2.2-.7-.3-.8a1 1 0 000 .5c-.2-.2-.5-.2-.7 0 .1.1.3.3.7 0 0 .3-.3.3-.6.2.2.3.4.4.7.3.1.4.1.6-.3 1.1 0-.3 0-.5-.2-.7-.3-.3-.5 0-.1.4-.2-.1-.5-.4-.5-.7 0 .3 0 .8.2 1-.1.1-.2 0-.4-.2 0 .7.4 1 1 .7V8c-.3-.4-.7-.7-.9-.7l.3.6-.6-.3c0 .3.4.6.7.8-.3 0-.5-.2-.7-.4 0 1 1.1.8 1.3.7l.1 1.5-.6-.1C4.7 10 4.1 9 4 8.6v.3L3.2 8v.7l-.1-.5.2-.6-.2-1-.3 1 .1-.9c.2-.3.3-.5.2-.7 0 0 0 .2-.3.4 0-.3.3-.7.6-.9.3 0 .5-.5.4-.7-.3.1-.4.3-.7.6.3-.8.8-1 1.5-1 .1 0 .4 0 .5-.2h-.6c.2-.2.5-.1.8-.1.2 0 .5 0 .7-.4a1.7 1.7 0 01-1 0c.4-.1 1-.1 1.4-.4-.4-.3-1.3 0-2 .4l.6-.6C4.8 3 4 4 3.7 4.4c-.3.1-.4.4-.5.5l.3-1.2c-1 .3-.6 2-.8 2.4 0-.5 0-1-.2-1.3-.3.2-.3 1.4 0 2.5L2 6.4c-.4.7.3 1.6.8 2.3-.4-.2-.8-.7-1.1-1 0 1.3 1.6 1.6 1.8 1.9-.3-.2-1-.4-1.2-.1.4 0 .7.1 1 .3.4.5 1.1.7 2.4.7zm0 0" fill-rule="evenodd" fill="#f3e295"/></svg>