<svg xmlns="http://www.w3.org/2000/svg" width="20" height="14"><g fill-rule="evenodd"><path d="M-5.2.1h30.5v13.6H-5.2zm0 0" fill="#ffc621"/><path d="M-5.3 9.4h30.6V14H-5.3zm0 0" fill="#ef2118"/><path d="M-5.2 0h30.5v5H-5.2zm0 0" fill="#298c08"/><path d="M12.7 7.3c0 1.6-1.4 3-3.2 3-1.7 0-3.2-1.4-3.2-3 0-1.7 1.5-3 3.2-3 1.8 0 3.2 1.3 3.2 3zm0 0" fill="#006bc6"/><path d="M8 5.2H8l.7 1 .2-.1L8 5zm1 2.1l-.3-.2v-.3H7.5L7 6.5h1.9l.4-1 .1.4zm2.2-2H11l-.7.8.2.1zm-2 1.5l.2-.3h.4l-.5-1.3.2-.4.6 1.7h1.1l-.3.3H9.3zM12 8.2L12 8 11 7.6v.2zm-2-1.3h.4v.3l1.2-.7h.5l-1.5 1 .3 1-.4-.2zm-.6 2.8h.3V8.6h-.2v1.1zm.7-2.2v.3l-.2.2 1.1.8.2.4-1.6-1-1 .6.2-.4zm-3 .4V8l1.1-.4v-.2zm2.4-.2L9 8l-.3-.2L8.4 9l-.4.3.5-1.8-.9-.6h.5zm0 0" fill="#ffc621"/></g></svg>