<svg xmlns="http://www.w3.org/2000/svg" width="20" height="14"><path fill="#039" d="M0 0h20v14H0z"/><path d="M10 2.2l-.2.7h.3zm0 0" fill="#fc0"/><path d="M10 2.2l.2.7H10zm0 0" fill="#fc0"/><path d="M10.7 2.7h-.8v.4zm0 0" fill="#fc0"/><path d="M10.7 2.7l-.6.4-.2-.3zm0 0" fill="#fc0"/><path d="M10.4 3.5l-.2-.7-.4.1zm0 0" fill="#fc0"/><path d="M10.4 3.5L9.8 3l.3-.2zm0 0" fill="#fc0"/><path d="M9.3 2.7h.8v.4zm0 0" fill="#fc0"/><path d="M9.3 2.7l.6.4.2-.3zm0 0" fill="#fc0"/><path d="M9.6 3.5l.2-.7.4.1zm0 0" fill="#fc0"/><path d="M9.6 3.5l.6-.5-.3-.2zm.4 7l-.2.7h.3zm0 0" fill="#fc0"/><path d="M10 10.5l.2.7H10zm0 0" fill="#fc0"/><path d="M10.7 11h-.8v.4zm0 0" fill="#fc0"/><path d="M10.7 11l-.6.4-.2-.3zm0 0" fill="#fc0"/><path d="M10.4 11.8l-.2-.7-.4.1zm0 0" fill="#fc0"/><path d="M10.4 11.8l-.6-.5.3-.2zm0 0" fill="#fc0"/><path d="M9.3 11h.8v.4zm0 0" fill="#fc0"/><path d="M9.3 11l.6.4.2-.3zm0 0" fill="#fc0"/><path d="M9.6 11.8l.2-.7.4.1zm0 0" fill="#fc0"/><path d="M9.6 11.8l.6-.5-.3-.2zm-4-5.4l-.3.7h.4zm0 0" fill="#fc0"/><path d="M5.6 6.4l.2.7h-.4zm0 0" fill="#fc0"/><path d="M6.3 6.9h-.8v.3zm0 0" fill="#fc0"/><path d="M6.3 6.9l-.7.4-.2-.3zm0 0" fill="#fc0"/><path d="M6 7.6L5.7 7l-.3.2zm0 0" fill="#fc0"/><path d="M6 7.6l-.6-.4.2-.3zm0 0" fill="#fc0"/><path d="M4.9 6.9h.7v.3zm0 0" fill="#fc0"/><path d="M4.9 6.9l.6.4.2-.3zm0 0" fill="#fc0"/><path d="M5.1 7.6l.3-.7.3.2zm0 0" fill="#fc0"/><path d="M5.1 7.6l.6-.4-.2-.3zm2.3-3.5l.6-.5-.2-.2zm0 0" fill="#fc0"/><path d="M7.4 4l.3-.6.3.1zm0 0" fill="#fc0"/><path d="M7.1 3.3l.7.4.1-.3zm0 0" fill="#fc0"/><path d="M7.1 3.3H8v.4zm0 0" fill="#fc0"/><path d="M7.8 2.8l-.2.7H8zm0 0" fill="#fc0"/><path d="M7.8 2.8l.3.7h-.4zm0 0" fill="#fc0"/><path d="M8.3 4l-.6-.4.2-.2zm0 0" fill="#fc0"/><path d="M8.3 4L8 3.5l-.3.1zm0 0" fill="#fc0"/><path d="M8.5 3.3l-.6.4-.2-.3zm0 0" fill="#fc0"/><path d="M8.5 3.3h-.7v.4zM6.6 5.6l-.2-.7-.4.2zm0 0" fill="#fc0"/><path d="M6.6 5.6L6 5.2l.3-.3zm0 0" fill="#fc0"/><path d="M5.8 5.6l.6-.4-.3-.3zm0 0" fill="#fc0"/><path d="M5.8 5.6l.2-.7.3.2zm0 0" fill="#fc0"/><path d="M5.5 4.8l.6.4.2-.3zm0 0" fill="#fc0"/><path d="M5.5 4.8h.8v.4zm0 0" fill="#fc0"/><path d="M6.9 4.8l-.6.4L6 5zm0 0" fill="#fc0"/><path d="M6.9 4.8H6v.4zm0 0" fill="#fc0"/><path d="M6.2 4.4l.2.6-.4.1zm0 0" fill="#fc0"/><path d="M6.2 4.4L6 5l.3.1zM6.9 9H6v.4zm0 0" fill="#fc0"/><path d="M6.9 9l-.6.4-.2-.3zm0 0" fill="#fc0"/><path d="M6.6 9.8L6.4 9l-.4.1zm0 0" fill="#fc0"/><path d="M6.6 9.8L6 9.3l.3-.2zm0 0" fill="#fc0"/><path d="M5.8 9.8l.6-.5-.3-.2zm0 0" fill="#fc0"/><path d="M5.8 9.8L6 9l.3.1zm0 0" fill="#fc0"/><path d="M6.2 8.5l.2.7H6zm0 0" fill="#fc0"/><path d="M6.2 8.5l-.2.7h.3zm0 0" fill="#fc0"/><path d="M5.5 9h.8v.4zm0 0" fill="#fc0"/><path d="M5.5 9l.6.4.2-.3zm3 1.4h-.8v.3zm0 0" fill="#fc0"/><path d="M8.5 10.4l-.6.4-.2-.3zm0 0" fill="#fc0"/><path d="M8.2 11.2l-.2-.7-.4.1zm0 0" fill="#fc0"/><path d="M8.2 11.2l-.6-.5.3-.2zm0 0" fill="#fc0"/><path d="M7.4 11.2l.6-.5-.3-.2zm0 0" fill="#fc0"/><path d="M7.4 11.2l.2-.7.4.1zm0 0" fill="#fc0"/><path d="M7.8 9.9l.2.7h-.4zm0 0" fill="#fc0"/><path d="M7.8 9.9l-.2.7h.3zm0 0" fill="#fc0"/><path d="M7 10.4H8v.3zm0 0" fill="#fc0"/><path d="M7 10.4l.7.4.2-.3zm7.4-4l.3.7h-.4zm0 0" fill="#fc0"/><path d="M14.4 6.4l-.2.7h.4zm0 0" fill="#fc0"/><path d="M13.7 6.9h.8v.3zm0 0" fill="#fc0"/><path d="M13.7 6.9l.7.4.2-.3zm0 0" fill="#fc0"/><path d="M14 7.6l.3-.7.3.2zm0 0" fill="#fc0"/><path d="M14 7.6l.6-.4-.2-.3zm0 0" fill="#fc0"/><path d="M15.1 6.9h-.7v.3zm0 0" fill="#fc0"/><path d="M15.1 6.9l-.6.4-.2-.3zm0 0" fill="#fc0"/><path d="M14.9 7.6l-.3-.7-.3.2zm0 0" fill="#fc0"/><path d="M14.9 7.6l-.6-.4.2-.3zm-2.3-3.5l-.6-.5.2-.2zm0 0" fill="#fc0"/><path d="M12.6 4l-.3-.6-.3.1zm0 0" fill="#fc0"/><path d="M12.9 3.3l-.7.4-.1-.3zm0 0" fill="#fc0"/><path d="M12.9 3.3H12v.4zm0 0" fill="#fc0"/><path d="M12.2 2.8l.2.7H12zm0 0" fill="#fc0"/><path d="M12.2 2.8l-.3.7h.4zm0 0" fill="#fc0"/><path d="M11.7 4l.6-.4-.2-.2zm0 0" fill="#fc0"/><path d="M11.7 4l.3-.6.3.1zm0 0" fill="#fc0"/><path d="M11.5 3.3l.6.4.2-.3zm0 0" fill="#fc0"/><path d="M11.5 3.3h.7v.4zm1.9 2.3l.2-.7.4.2zm0 0" fill="#fc0"/><path d="M13.4 5.6l.6-.4-.3-.3zm0 0" fill="#fc0"/><path d="M14.3 5.6l-.7-.4.3-.3zm0 0" fill="#fc0"/><path d="M14.3 5.6l-.3-.7-.3.2zm0 0" fill="#fc0"/><path d="M14.5 4.8l-.6.4-.2-.3zm0 0" fill="#fc0"/><path d="M14.5 4.8h-.8v.4zm0 0" fill="#fc0"/><path d="M13.1 4.8l.6.4.2-.3zm0 0" fill="#fc0"/><path d="M13.1 4.8h.8v.4zm0 0" fill="#fc0"/><path d="M13.8 4.4l-.2.6.4.1zm0 0" fill="#fc0"/><path d="M13.8 4.4l.2.6-.3.1zM13.1 9h.8v.4zm0 0" fill="#fc0"/><path d="M13.1 9l.6.4.2-.3zm0 0" fill="#fc0"/><path d="M13.4 9.8l.2-.7.4.1zm0 0" fill="#fc0"/><path d="M13.4 9.8l.6-.5-.3-.2zm0 0" fill="#fc0"/><path d="M14.3 9.8l-.7-.5.3-.2zm0 0" fill="#fc0"/><path d="M14.3 9.8L14 9l-.3.1zm0 0" fill="#fc0"/><path d="M13.8 8.5l-.2.7h.4zm0 0" fill="#fc0"/><path d="M13.8 8.5l.2.7h-.3zm0 0" fill="#fc0"/><path d="M14.5 9h-.8v.4zm0 0" fill="#fc0"/><path d="M14.5 9l-.6.4-.2-.3zm-3 1.4h.8v.3zm0 0" fill="#fc0"/><path d="M11.5 10.4l.6.4.2-.3zm0 0" fill="#fc0"/><path d="M11.8 11.2l.2-.7.4.1zm0 0" fill="#fc0"/><path d="M11.8 11.2l.6-.5-.3-.2zm0 0" fill="#fc0"/><path d="M12.6 11.2l-.6-.5.3-.2zm0 0" fill="#fc0"/><path d="M12.6 11.2l-.2-.7-.4.1zm0 0" fill="#fc0"/><path d="M12.2 9.9l-.2.7h.4zm0 0" fill="#fc0"/><path d="M12.2 9.9l.2.7h-.3zm0 0" fill="#fc0"/><path d="M13 10.4H12v.3zm0 0" fill="#fc0"/><path d="M13 10.4l-.7.4-.2-.3zm0 0" fill="#fc0"/></svg>