<svg xmlns="http://www.w3.org/2000/svg" width="20" height="14"><defs><linearGradient id="a" gradientUnits="userSpaceOnUse" x1="444.4" y1="592.2" x2="470.9" y2="577.1" gradientTransform="matrix(.85733 0 0 .9624 -162.4 -.6)"><stop offset="0" stop-color="#a43907"/><stop offset="1" stop-color="#fff"/></linearGradient><linearGradient id="b" gradientUnits="userSpaceOnUse" x1="444.4" y1="592.2" x2="470.9" y2="577.1" gradientTransform="matrix(-1.08448 0 0 1.26674 909.5 -414.7)"><stop offset="0" stop-color="#a43907"/><stop offset="1" stop-color="#fff"/></linearGradient><linearGradient id="c" gradientUnits="userSpaceOnUse" x1="458.2" y1="562.5" x2="520.5" y2="552.8" gradientTransform="matrix(-1.01941 0 0 1.3554 909.5 -414.7)"><stop offset="0" stop-color="#a43907"/><stop offset="1" stop-color="#fff"/></linearGradient><linearGradient id="d" gradientUnits="userSpaceOnUse" x1="472.4" y1="578.7" x2="445.3" y2="580.2" gradientTransform="matrix(1.08448 0 0 1.26674 49.7 -414.7)"><stop offset="0" stop-color="#a43907"/><stop offset="1" stop-color="#fff"/></linearGradient><linearGradient id="e" gradientUnits="userSpaceOnUse" x1="518" y1="553.7" x2="456.4" y2="558.1" gradientTransform="matrix(1.01941 0 0 1.3554 49.7 -414.7)"><stop offset="0" stop-color="#a43907"/><stop offset="1" stop-color="#fff"/></linearGradient><linearGradient id="f" gradientUnits="userSpaceOnUse" x1="851.8" y1="369.9" x2="646.2" y2="369.9" gradientTransform="matrix(.85733 0 0 .9624 -161.5 .3)"><stop offset="0" stop-color="#a43907"/><stop offset="1" stop-color="#fff"/></linearGradient><linearGradient id="g" gradientUnits="userSpaceOnUse" x1="388.5" y1="507.2" x2="677.4" y2="508.8" gradientTransform="matrix(.88927 0 0 1.54542 50.4 -413.6)"><stop offset="0" stop-color="#a43907"/><stop offset="1" stop-color="#fff"/></linearGradient><linearGradient id="h" gradientUnits="userSpaceOnUse" x1="579.8" y1="504.9" x2="556.8" y2="505.9" gradientTransform="matrix(.91096 0 0 1.52008 49.7 -414.7)"><stop offset="0" stop-color="#a43907"/><stop offset="1" stop-color="#fff"/></linearGradient><linearGradient id="i" gradientUnits="userSpaceOnUse" x1="581.4" y1="512" x2="558.9" y2="514.3" gradientTransform="matrix(-.88927 0 0 1.54542 908.8 -413.6)"><stop offset="0" stop-color="#a43907"/><stop offset="1" stop-color="#fff"/></linearGradient><linearGradient id="j" gradientUnits="userSpaceOnUse" x1="552" y1="517.9" x2="589.8" y2="503.9" gradientTransform="matrix(-.91096 0 0 1.52008 909.5 -414.7)"><stop offset="0" stop-color="#a43907"/><stop offset="1" stop-color="#fff"/></linearGradient></defs><path fill="#012169" d="M0 0h20v14H0z"/><path d="M0 0h12.5v5.8H0zm0 0" fill-rule="evenodd" fill="#012169"/><path d="M412.9 308.8h-1.6c-3 .7-7.7 11.4-10 17.7-4.2 5.4-6.3 9.7-8 12.7-.6 1.2-1.6 2.6-1.3 4.2-6 1.6-6.3 7.4-6.3 9.6 0 2.4.7 3.7.7 3.7l3.6 7.5v0c3.8 9 9.4 21 12.8 22 4.3 1.4 16-3.4 24.7-11.7 16.9 7.7 34.9 11.9 53.3 12 20.3 0 38.6-5.5 53-12 8.7 8.3 20.3 13 25 11.6 3-1 8.6-13 12.5-21.8l3.5-7.6s.7-1.3.7-3.7c0-2.1-.3-7.9-6.3-9.5.3-1.6-.6-3-1.3-4.3-1.6-3.2-3.8-7.5-7.6-13-2.7-6.2-7.3-16.7-10-17.2-4.3-.8-13 1.4-13 2.4v.4l-17.8 18.6c0 .5.9 14 4.3 26a112 112 0 01-43.3 8.2 111 111 0 01-43.3-8.3 139 139 0 004.4-26L424 311.8v-.4c0-.7-6.8-2.6-11.1-2.6zm4.4 23c2.3 0 4.6 2.4 6.4 4.5v1.3a94 94 0 01-2.8 10.2 73 73 0 01-12.1-9.9c1.8-2.3 5-5.4 8-5.8h.4zm126.6 0h.4c3.3.7 6.3 3.8 8.3 6.1a77.4 77.4 0 01-12.4 10c-1-3.3-2-6.8-2.7-10.3-.1-.4-.1-.9-.3-1.3 2-2.3 4.4-4.3 6.7-4.3zm-142.4 26.5c2.4 2 5.4 4.4 9.1 6.8a8.3 8.3 0 01-3.2 1.6c-1.6.4-3.1.3-4.6 0-.7-1.7-1-3.6-1-5.6l-.3-2.8zm158.3 0l-.2 2.8c-.1 1.8-.4 3.7-1 5.5a9 9 0 01-8-1.5 100.7 100.7 0 009.1-6.8zm0 0" transform="scale(.03125 .02917)" fill-rule="evenodd" fill="url(#a)" stroke-width="10" stroke="#fff"/><path d="M426.3 339.6s-6.2-11-11.2-10.1c-5.1.6-10 7.7-10.2 8.1-2.8-2.8-5.4-6-7.5-9.5.4-.4 7.9-20.9 12-21.8 4-1 12.7 1.5 12.7 2.3zm0 0" transform="scale(.03125 .02917)" fill-rule="evenodd" fill="url(#b)" stroke-width="1.2" stroke="#000"/><path d="M439.8 327.7c0 .8-2.2 30.2-11 40.3-8.6 10.3-23 16.6-28 15.2-5-1.6-16.6-31.2-16.6-31.2s12.2 14.2 21.3 11.7c9.1-2.4 14.6-20 16.3-28.9 1.7-8.5.3-25.7.3-25.7l17.8 18.6zm0 0" transform="scale(.03125 .02917)" fill-rule="evenodd" fill="url(#c)" stroke-width="1.2" stroke="#000"/><path d="M532.9 339.6s6.2-11 11.2-10.1c5 .6 9.8 7.7 10.1 8.1a49 49 0 007.5-9.5c-.3-.4-7.8-20.9-12-21.8-4-1-12.7 1.5-12.7 2.3zm0 0" transform="scale(.03125 .02917)" fill-rule="evenodd" fill="url(#d)" stroke-width="1.2" stroke="#000"/><path d="M519.3 327.7c0 .8 2.2 30.2 11 40.3 8.6 10.3 23 16.6 28 15.2 5-1.6 16.7-31.2 16.7-31.2s-12.3 14.2-21.4 11.7c-9-2.4-14.5-20-16.2-28.9-1.8-8.5-.4-25.7-.4-25.7zm0 0" transform="scale(.03125 .02917)" fill-rule="evenodd" fill="url(#e)" stroke-width="1.2" stroke="#000"/><path d="M401.3 326.3c-4 5.4-6.2 9.7-8 13-1.7 3.2-.6 7.6 3.2 13.9 4.3 6.7 39 33.5 84.1 33.5s79.8-26.7 84-33.5c4-6.5 5-10.7 3.3-14a88.4 88.4 0 00-7.9-13c0 8.4-28.8 38.5-79.4 38.5-50.7 0-79.4-30.1-79.4-38.5zm0 0" transform="scale(.03125 .02917)" fill-rule="evenodd" fill="url(#f)" stroke-width="1.5" stroke="#000"/><path d="M557.8 378.8l7.7-15-3.9-3.3c-1 3.8-5.5 5.1-6.4 10-.6 4.6 3 9.5 2.5 8.3zm0 0" transform="scale(.03125 .02917)" fill-rule="evenodd" fill="url(#g)" stroke-width="1.2" stroke="#000"/><path d="M564.8 374.5s1.5-6.9-3-7.5c-4.4-.8-6.8 3.7-6 1.8.5-1.8 3-3.8 3.6-10.5.4-6.7-.4-10.4-.4-10.4s1.8-8.7 8.8-7.5c7.2 1.3 7.5 7.5 7.5 10 0 1-.2 2.2-.5 3.4zm0 0" transform="scale(.03125 .02917)" fill-rule="evenodd" fill="url(#h)" stroke-width="1.2" stroke="#000"/><path d="M16.9 10.3l.2.2h.1l-.2-.3h.1V10zm-.4.2l.2.2h.1l-.1-.1.1-.1v.1h.2l-.2-.3v.2h-.1v-.1zm0 .2v.1l-.2-.1.1-.2h.1a.3.3 0 00-.1 0c-.1 0-.2.1-.1.2 0 .1 0 .2.2.2a.3.3 0 00.1-.1v-.1zm-.4.3h.2v-.1l-.1-.3H16l.2.3zm-.8.1h.3V11h-.2.1v-.2h-.2v.3zm-.3-.3v.3h.1v-.2h.1v.2h.1v-.3h-.1v.1h-.1v-.1zm-.3 0v.3h.2v-.3zm-.5.3h.3V11h-.2V11h.1v-.2h-.2v.3zm-.6-.2h.2v-.3l-.1.3zm-.2-.1h.2a.1.1 0 000-.1v-.1a.3.3 0 000-.1h-.1a.1.1 0 000 .1.1.1 0 010 .2v-.1zm-.3-.1h.2-.1v-.1h.1v-.2h.1v.1l-.2-.2v.3H13zm0-.5h-.2v.2h-.1v.1h.2a.2.2 0 00.1 0v-.3zm0 0v.2l-.2.1.1-.3zm.8.4v.3h.1v.1h.1v-.1-.1-.2h-.2zm.1 0s.1.1 0 .1v.1-.1zm1.7 0v.1l.1.3h.1v-.1h.1v.1h.1l-.1-.1v-.2h-.1zm.1.1h.1v.1zm0 0"/><path d="M401.5 378.8l-7.8-15 4-3.3c1 3.8 5.4 5.1 6.2 10 .7 4.6-3 9.5-2.4 8.3zm0 0" transform="scale(.03125 .02917)" fill-rule="evenodd" fill="url(#i)" stroke-width="1.2" stroke="#000"/><path d="M394.3 374.5s-1.4-6.9 3-7.5c4.4-.8 6.8 3.7 6.2 1.8-.8-1.8-3.3-3.8-3.8-10.5-.3-6.7.4-10.4.4-10.4s-1.7-8.7-8.9-7.5c-7 1.3-7.4 7.5-7.4 10 0 2.1.7 3.4.7 3.4zm0 0" transform="scale(.03125 .02917)" fill-rule="evenodd" fill="url(#j)" stroke-width="1.2" stroke="#000"/><path d="M480.5 356.1s-82-27-81.4-129.4l.6-135.6H561l.6 134.8c.5 102.4-81.4 130-81.4 130zm0 0" transform="scale(.03125 .02917)" fill-rule="evenodd" fill="#0072c4" stroke-width="3.9" stroke="#fff"/><path d="M12.8 3.6l.2-.1h.1a.3.3 0 00.1-.2.8.8 0 000-.1h.1l.2-.1h.2a.4.4 0 01.2.1v.1h.1l.2.1v.1l.1.1h.6a.9.9 0 00.2 0c0 .1 0 0 .1 0h.3l.2.1H16.3a.3.3 0 01.2.2l.1.2v1.1a2.3 2.3 0 000 .2.5.5 0 00-.2 0V6c.1 0 .1 0 0 0a.3.3 0 010-.1.4.4 0 000-.2h-.2-.1v.1L16 6l-.2.1v-.2-.2a.6.6 0 010-.1H15h-.2a.9.9 0 00-.1 0h-.1l-.2.1v.2a.4.4 0 000 .2c0 .1-.1 0-.1 0h-.1v-.2.1a.1.1 0 01-.1.1.2.2 0 01-.1.1v-.2-.1-.2h-.1l-.1-.1a.2.2 0 00-.1-.1h-.1l-.1-.2v-.1a.5.5 0 000-.2.6.6 0 00-.1-.1v-.2V4.3v-.1a.3.3 0 00-.1-.2H13 13h-.1l-.1-.2v-.1-.1zm0 0" fill-rule="evenodd" fill="#bcbcbc"/><path d="M13.4 4h.2a.3.3 0 01.1-.2h.2l.1-.1v.1h-.1V4a.4.4 0 000-.1 1 1 0 00.1 0v-.2a.3.3 0 00.2 0V4a1 1 0 000-.1V4h.1a.3.3 0 000 .1h.1V4v-.1.2h.1a.5.5 0 010-.2v.2l.1.1v-.1l.1.1v.1l.1-.1V4 4a.9.9 0 000-.1h.1V4a.3.3 0 00.1.2V4v-.1h.1v.2h.1a.1.1 0 01.1-.1v.2h.1a1.3 1.3 0 000-.1V4v-.1h.1a.6.6 0 000 .2l.1.1V4a.2.2 0 01.1 0v.1l.1.1c.1 0 .1.1.1 0a.2.2 0 000-.1V4a.2.2 0 000 .1h.2v.1a.4.4 0 000-.1.2.2 0 000-.1.2.2 0 00-.2 0v-.2l.2.2.1.1h.1V4v-.1l.1.1.1.1v.2a.2.2 0 010 .1h-.1V5a1 1 0 000 .1.3.3 0 010-.2l-.1-.1a.3.3 0 000 .1V5.2l-.1-.1V5a1 1 0 01-.1-.1l-.1-.1V5l-.1-.1a.2.2 0 000-.1V5l-.1-.1v-.1h-.1a.1.1 0 010-.1v.1l-.1-.1V5l-.1-.2V5h-.1l-.1-.1v-.1h-.1v.4H15v-.3-.1.4H15a.2.2 0 00-.2 0V5v-.1l-.1-.1a.2.2 0 000-.1v.1l-.1.1v-.1h-.1V5h-.2a.3.3 0 010 .2H14h-.2a.4.4 0 01-.1 0h-.1a.5.5 0 000-.2H14l.2-.1.1-.1v-.1h-.1c-.1.1-.1 0-.2 0v.1h.1v-.2H14a.3.3 0 01-.1 0 .5.5 0 01-.1 0h-.2v-.1h.1c-.1 0 0 0 0-.1h.2v-.2h.1a.2.2 0 01-.2 0c-.1 0-.1 0 0 0h-.2a.1.1 0 01-.2 0 .4.4 0 00.2-.1zm-.6-.2v-.1-.1l.2-.1h.1a.3.3 0 00.1-.2v-.1h.1l.2-.1h.2a.4.4 0 01.2.1v.1h.1c0 .1 0 0 0 0v.1a.2.2 0 01-.1 0c0-.1 0-.1-.1 0h-.2l.1.1a.5.5 0 00.1 0h.1v.1a.3.3 0 01-.1 0l-.1.1a.3.3 0 01-.2.1.3.3 0 000-.1h-.1-.2-.1-.1.2v.1a.3.3 0 01-.2 0s-.1 0 0 0V4h-.1-.1zm0 0" fill-rule="evenodd" fill="#fefefe"/><path d="M13 3.6h-.1.1zm.4-.4v0zm0 0" fill-rule="evenodd" fill="#bcbcbc"/><path d="M349.4 417.7c-.4 0 .8-.5 1.3-.6.4-.8.6-1.3 1.3-1.8 1.1 0 1.7.4 2.1 1 1 .4 1.4.8 2.5 1 .5.4 1 .4 0 .7a8 8 0 01-2.6.4c-.9 0-1.8.3-2.6.7-1.5 0-1.3 0-2-1.4zm0 0" transform="matrix(.03389 0 0 .03695 1.3 -12)" fill-rule="evenodd" fill="#c4c4c2" stroke-width=".9" stroke="#000"/><path d="M13.5 3.2v0zm.3 1L14 4a.3.3 0 01.1 0 .1.1 0 010 .1h-.1-.1zm.1.2l.1-.1a.4.4 0 010-.1h.2V4v.1a.2.2 0 010 .1v.1H14a.4.4 0 01-.1 0c0 .1 0 .1 0 0zm-.2.2a.3.3 0 01.1-.1.3.3 0 00.1 0s.1 0 0 0h-.1-.1zm.3 0l.1-.2h.1v.1H14zm0 0" fill-rule="evenodd" fill="#bcbcbc"/><path d="M13.3 3.5zm0 0" fill-rule="evenodd"/><path d="M351.8 479.6h1c-3 0-1.2-.2 3.4 3.5 2-1.6 2-1.8 3.5 1 1 1.5 1.2-.2 2.7-1.8.7 3.2 1 6.5 3.5 3.5 2.8 0 5.6-.2 7.1 1 1.8 3.2 1.2-.7 2.6.8 4 .4 3.9-3.4 8.2-4.4 2.5 3.3 3.8.8 6.9-.8 2.5.6 4.8 4.3 5.3.7 2-3.2 2-3 3.5 0 2 1.8 2.8-.8 4.4-1.7 3 1.7 6.2 2 10.6.9.8 3 2.6 1.6 4.5.8 4 1.7 5.2 2.2 9.7 0 2.2-2.6 1 .1 2.7 1.8 3.2-1 2.3-1.2 6-1 4 0 4.3 0 5.4-2.5 2 2 2.6 3.3 5.3.9 4.2 0 2.9.5 5.3-1 2 4 2.3 1.2 4.5 2.7a14 14 0 01-6.1 7c-1.8 3-3 6-6.3 7.1-2.5 2.6-5.2 4-8 6.3-3.8 1-8 .8-12.3.8H388c-2.6 1.4-7 2-10.6 2.7-4 0-8.7 0-11.5-.9-1.9-1.9-5.2-4-7-6.2-2-1.5-2-4.4-3.6-6.2-1.4-2.5-2-6.5-3.5-8.8zm0 0" transform="matrix(.03389 0 0 .03695 1.5 -12)" fill-rule="evenodd" fill="#005120" stroke-width="1.3" stroke="#002b0d"/><path d="M437.5 487.6v.8c0-2.4 0-1.1-1.8 3.6-.3 1-1.2 1.4-2.6 1.8m-3.5-2.7h1c-3.4 3-5.6 4.5-6.3 8l6.2-8c-3.3 3-5.5 4.5-6.2 8m-7.1-12.4s-.1 3.1-1 4.4m-2.5 1.8v.8zm-7.1-5.3h.9-1c.4 0 .7 0 0 0zm-49.5 0c.4 0 2.2 2.8 4.4 4.4-.5 2.6-1.4 5.6 0 8m2.7-7.1c.4 0 2.1 2.8 4.5 4.4l-4.5-4.4c.4 0 2.1 2.8 4.5 4.4v.8c0-2.7-.3-5.4.8-7 1 1.7 2.1 4.3 2.6 1.8 5-.2 7.4-1.6 10.6-2.7 0 1.3-.2.7 1 1.8m60-3.6h1c-1.8 1.4-3 4.3-4.5 6.2m-32.7-8.8h7" transform="matrix(.03389 0 0 .03695 1.5 -12)" fill-rule="evenodd" fill="#005120" stroke-width="1.3" stroke="#002b0d"/><path d="M13.3 6.3c-.4 0-.5.3-.8.3v.8c.3 0 .5-.4.8-.4.4 0 .5.4.8.4.4 0 .5-.4.9-.4s.5.4.8.4.5-.4.9-.4c.3 0 .4.4.8.4v-.8c-.4 0-.5-.3-.8-.3s-.5.3-.9.3c-.3 0-.5-.3-.8-.3-.4 0-.5.3-.9.3-.3 0-.4-.3-.8-.3zm0 1.5c-.3 0-.4.2-.6.3l.2.6.4-.1c.4 0 .5.4.8.4.4 0 .5-.4.9-.4.3 0 .5.4.8.4.4 0 .5-.4.9-.4a.5.5 0 01.3.1l.3-.6-.6-.3c-.4 0-.5.4-.9.4s-.5-.4-.8-.4c-.4 0-.5.4-.9.4-.3 0-.4-.4-.8-.4zM15 9.3c-.4 0-.5.4-.9.4-.3 0-.4-.3-.7-.4.3.4.7.7 1.2 1 .1-.1.2 0 .4 0s.3-.1.4 0a4 4 0 001.2-1c-.3 0-.4.4-.8.4-.3 0-.5-.4-.8-.4zm0 0" fill-rule="evenodd" fill="#fff"/><path d="M332.5 541.4c3.5-1.2 7-2.1 10.5-3l16.3 15.7-13.4 2.7zm0 0" transform="matrix(.03378 0 0 .0368 1.5 -12.1)" fill="none" stroke-width=".5" stroke="#512007"/><path d="M413.6 471c.3-4.6 8.9-31 8.9-31m-6 31.3l6.6-31m-4.3 31.2l5.6-31.2m-10.5 26.9c1.5-.8 5.8-2 5.8-2m-3.7-2.6c1.4 0 4.3-1.2 4.3-1.2m-3.4-2.3c1.3-.5 2.8-.9 4.3-1.2m-3.8-3.2l4.6-.8m-2.5-3c0 .3 3.2.3 3.2.3m-2.4-3.7l3.2.5" transform="matrix(.02864 0 0 .02916 2 -5)" fill="none" stroke-width=".6" stroke="#512007"/><path d="M413.6 471c.3-4.6 8.9-31 8.9-31m-6 30.1l6.6-30m-3.7 27.7l5-27.6m-10.5 27c1.5-.8 5.8-2 5.8-2m-3.7-2.6c1.4 0 4.3-1.2 4.3-1.2m-3.5-2.3a27 27 0 014.4-1.2m-3.8-3.2l4.7-.8m-2.7-3c0 .3 3.3.3 3.3.3m-2.4-3.7l3.2.5" transform="matrix(-.03378 0 0 .04983 29.4 -14.1)" fill="none" stroke-width=".4" stroke="#512007"/><path d="M413.6 471a329 329 0 018.8-31m-5.9 30.1l6.7-30m-3.7 27.7c.1-1.7 4.9-27.6 4.9-27.6m-10.5 27c1.5-.8 5.7-2 5.7-2m-3.7-2.6c1.6 0 4.4-1.2 4.4-1.2m-3.5-2.3c1.5-.6 2.8-.9 4.4-1.2m-3.7-3.2l4.6-.8m-2.6-3c0 .3 3.2.3 3.2.3m-2.4-3.7l3.2.5" transform="matrix(-.03378 0 0 .0368 30.2 -8.5)" fill="none" stroke-width=".5" stroke="#512007"/><path d="M395.3 572.2l1-73s2.5-.3 2.5 0-.3 72.6-.6 73c-.2.3-3.3.5-3 0zm28.6-69.8l-.7 61.3-2 2.4.6-63.7zm0 0" transform="matrix(.03378 0 0 .0368 1.5 -12.1)" fill-rule="evenodd" fill="#dd8b59" stroke-width=".5" stroke="#512007"/><path d="M363 560.2s3 30 36.5 29c33.3-.8 42.6-30 42.6-30l-14.5-.7c-.3 0-11.6 14-26.2 13.7-14.6-.4-19.2-3.7-22.4-6.7a43 43 0 01-6-7.3l-17-6.7 1 6.4zm90.3-3l-1-4v-3.4l1.6-3.6s-25.3 3.7-25.3 4l-.1 6.8 24.8.1zm0 0" transform="matrix(.03378 0 0 .0368 1.5 -12.1)" fill-rule="evenodd" fill="#dd8b59" stroke-width=".5" stroke="#512007"/><path d="M448.5 549.8l-.6 6h4l-.2-6zm-4.3.3l-.3 6.4 2.6-.3.3-6.1zm-4.4 6.4v-5l2.6-.9.3 5zm-5-.3l.6-4.4 3 .3.1 4.7zm-5.5 0l.3-3.8 3-.3v4.4zm-67.4 3.7c.9 0 7.6 1.5 7.6 1.5l7 9.3" transform="matrix(.03378 0 0 .0368 1.5 -12.1)" fill="none" stroke-width=".5" stroke="#512007"/><path d="M366.8 561.1c.3.3 6 19.8 34 19.8s34.6-22.1 34.6-22.1" transform="matrix(.03378 0 0 .0368 1.5 -12.1)" fill="none" stroke-width=".5" stroke="#512007"/><path d="M439.8 559.4s-13.4 29-39 27c-25.5-2-29.6-11.6-31.6-16.6-2-5-3.2-9-3.2-9" transform="matrix(.03378 0 0 .0368 1.5 -12.1)" fill="none" stroke-width=".5" stroke="#512007"/><path d="M373.2 558.2c.3-1.7.3-54.4.3-54.4l-1.7-.2-.3 53.7 1.7 1zM331.7 541l22 10.7-.5 1.5S332 543.3 332 543c0-.3.1-1.5-.3-2zm0 0" transform="matrix(.03378 0 0 .0368 1.5 -12.1)" fill-rule="evenodd" fill="#dd8b59" stroke-width=".5" stroke="#512007"/><path d="M341.7 537.9c0 .8 3.3 18.6 3.3 18.6s2 .3 2 0l-3.4-18.3zm20.5.5c1 0 21-3.2 21-3.2l-.4 3.2-19.5 2zm0 0" transform="matrix(.03378 0 0 .0368 1.5 -12.1)" fill-rule="evenodd" fill="#dd8b59" stroke-width=".5" stroke="#512007"/><path d="M365 514.3c.7 0 7 3.2 9.7 2.4 2.7-.8 1-3 1.4-3 .6 0 2.7 1.5 3.8.3 1.2-1 2-4.6 1.5-4.3-.6.3-16 5.8-16.3 4.6zm0 0" transform="matrix(.03378 0 0 .0368 1.5 -12.1)" fill-rule="evenodd" fill="#fecf3e" stroke-width=".5" stroke="#512007"/><path d="M362.4 521.6c1.2.3 23.9-6.1 23.9-6.1s0 2-.3 2l-23.6 6zm0 0" transform="matrix(.03378 0 0 .0368 1.5 -12.1)" fill-rule="evenodd" fill="#dd8b59" stroke-width=".5" stroke="#512007"/><path d="M415 512.6s1.5 3.5 3 2.9c1.5-.6 2.8-1.8 2.8-1.8s1.3 3 3.3 2.4c2-.6 3.2-3.8 3.2-3.8s2 .6 3 .3c.8-.3 1.9-5 1.9-5l-17.1 5zm-1.7 28.2c-.3.6 1.5 2 3 2s2-2 2.4-1.4c.2.5.2 3.2 3.9 2.3 3.7-1 3.8-3.5 3.8-3.5s-1.2.9 1.5 1.2c2.5.3 5.2-3.8 5-3.8-.4 0-19 3.5-19.6 3.2zm0 0" transform="matrix(.03378 0 0 .0368 1.5 -12.1)" fill-rule="evenodd" fill="#fecf3e" stroke-width=".5" stroke="#512007"/><path d="M363.4 513c-.1 1-.1 2 .2 2.8l19-6.4s.8-1.4 0-1.4-19.5 5.7-19.3 5.2zm25-3.9c.5 0 19.4-6.1 19.4-6.1s.3 2.6 0 2.6l-17.7 5.2zm0 0" transform="matrix(.03378 0 0 .0368 1.5 -12.1)" fill-rule="evenodd" fill="#dd8b59" stroke-width=".5" stroke="#512007"/><path d="M413.3 521.9s-2.9 3.2-2 7.5c.9 4.5 2 8.2 2.3 8.2.3 0 3.5-5.8 7-6 3.5-.4 9.8 3.1 9.8 3.1s-.8-7-.5-10.2c.3-3.2 5.2-8.7 5.2-8.7l-21.8 6zm0 0" transform="matrix(.03378 0 0 .0368 1.5 -12.1)" fill-rule="evenodd" fill="#fecf3e" stroke-width=".5" stroke="#512007"/><path d="M386.8 516.5s-.5 2.8-.2 2.8l24.7-6.4V511zm0 0" transform="matrix(.03378 0 0 .0368 1.5 -12.1)" fill-rule="evenodd" fill="#dd8b59" stroke-width=".5" stroke="#512007"/><path d="M355.5 551.8s-5.8-.8-5.5.6c.3 1.5 2.8 2.9 3.2 3.8.3.9-1 4 1 3.8 1.7-.3 3.3-1.5 3.3-2.4l-.3-5zm0 0" transform="matrix(.03378 0 0 .0368 1.5 -12.1)" fill-rule="evenodd" fill="#b6b6b4" stroke-width=".5" stroke="#512007"/><path d="M387.8 537.2v2l21-2.8-.7-1.5zm0 0" transform="matrix(.03378 0 0 .0368 1.5 -12.1)" fill-rule="evenodd" fill="#dd8b59" stroke-width=".5" stroke="#512007"/><path d="M363 540.8c.4 0 0 2.6 2.5 2 2.1-.6 2.8-2 2.8-2s.6 3.2 3.7 3c3.3-.4 5.1-3.9 5.1-3.9s.1 2.5 2.2 1.7c2-.9 2.6-2.9 2.6-2.9l-18.3 2.6-.5-.5zm0-17.2s-2.6 1-1.7 6.1c1 5.2 3 8.2 3.2 8.2.3 0 2.6-5 6.2-5.7 3.4-1.1 9.6 2.5 9.6 2.5s-.7-4.7.2-9c.7-2.8 2-5.4 3.8-7.6 0 0-20.4 5.5-21.2 5.5zm0 0" transform="matrix(.03378 0 0 .0368 1.5 -12.1)" fill-rule="evenodd" fill="#fecf3e" stroke-width=".5" stroke="#512007"/><path d="M412 538.7l.2 1.8s21-2.6 21-3c0-.3 0-2-.4-2-.3 0-20.6 3.6-21 3.2zm-.4-18.6l.3 2 24.7-6.6s.6-1.8.3-1.8-24.7 7.3-25.3 6.4zm0 0" transform="matrix(.03378 0 0 .0368 1.5 -12.1)" fill-rule="evenodd" fill="#dd8b59" stroke-width=".5" stroke="#512007"/><path d="M414.3 510.8s-.4 1.8 0 1.8c.2 0 18.2-4.4 18.2-4.6 0-.4 1.8-2 .3-1.9-1.4.4-18 5.6-18.5 4.7zm38.6 33.7l-18-28.4m-2.4 19.7a607 607 0 001.2-18.3" transform="matrix(.03378 0 0 .0368 1.5 -12.1)" fill="none" stroke-width=".5" stroke="#512007"/><path d="M389 510c1 .2 3 3.2 4.3 2.6 1.2-.6 3-2.4 3-2.4s-.4 3.5 1.9 3c2.4-.6 2.8-3 2.8-3s1.6 1 3 0c1.5-.8 2.9-5.2 2.4-5.2s-16.9 5.2-17.5 5zm-.6 8.4c0 .6-3 5.2-2 9.6 1 4.4 2.5 8.4 2.8 8.4.3 0 4.7-4.6 8.5-5.5 3.7-.9 9.3 3 9 3-.3 0-1.5-4.5-1.5-7.7s4.4-13 4.4-13zm0 21c0 .2.8 2.2 2.8 2.2 2.1 0 2.4-2 2.4-2s-.3 3.5 2.8 3.2c3.3-.4 4.4-3.5 4.4-3.5s.3 1.8 3 1a22 22 0 005.8-3.9c-.3 0-21 3.8-21.2 3zm0 0" transform="matrix(.03378 0 0 .0368 1.5 -12.1)" fill-rule="evenodd" fill="#fecf3e" stroke-width=".5" stroke="#512007"/><path d="M409 477a2 2 0 01-2 1.9c-1 0-1.8-.8-1.8-2 0-1 .8-1.8 1.8-1.8 1.2 0 2 .9 2 1.9zm0 0" transform="matrix(.00108 -.0303 .02756 .00113 1.1 19.2)" fill-rule="evenodd" fill="#be0f17" stroke-width=".6" stroke="#512007"/><path d="M409 477c0 1-.8 2-1.9 1.8-1 0-2-.7-2-1.9.1-1 1-1.8 2-1.7 1 0 1.9.7 1.9 1.7zm0 0" transform="matrix(.00108 -.0303 .02756 .00113 1.5 19)" fill-rule="evenodd" fill="#be0f17" stroke-width=".6" stroke="#512007"/><path d="M409 477a2 2 0 01-2 2 2 2 0 01-1.8-2 2 2 0 012-1.9c1 0 1.8.8 1.8 2zm0 0" transform="matrix(.00108 -.0303 .02756 .00113 1.3 19.3)" fill-rule="evenodd" fill="#be0f17" stroke-width=".6" stroke="#512007"/><path d="M409 477c0 1-.9 1.9-2 2a2 2 0 01-1.8-2c0-1.1.8-1.8 1.9-1.9 1 0 2 .8 1.8 2zm0 0" transform="matrix(.00108 -.0303 .02756 .00113 1.3 19)" fill-rule="evenodd" fill="#be0f17" stroke-width=".6" stroke="#512007"/><path d="M398.2 500c0-.2 9 3.8 9 4.1 0 .3 32 42.8 32.3 42.8m-16-42.8l8.2 3.5 2.6 6.4m-61.4-10.4c-.3 0 9 7 9 7l1.2 5.7M341.3 546c4-1.7 32.2-26.4 32.2-26.4m-39.9 21.7l31.9-26.7m21.1 4l30 49.9m-3.6-29.3s3.5 11.7 7 13.5c2.6 1.4 5.1 3 7.6 4.6" transform="matrix(.03378 0 0 .0368 1.5 -12.1)" fill="none" stroke-width=".5" stroke="#512007"/><path d="M412.6 539.5s2.5 13.8 6 16.4c3.5 2.6 7 5.5 7 5.5" transform="matrix(.03378 0 0 .0368 1.5 -12.1)" fill="none" stroke-width=".5" stroke="#512007"/><path d="M391 439s3.4 19.2 10.4 23.5l12.8 8.2" transform="matrix(.03378 0 0 .0368 1.4 -8.4)" fill="none" stroke-width=".5" stroke="#512007"/><path d="M390.7 438.7s7.5 15.3 14 19.8c6.3 4.7 15 9 15 9M366.3 440c2 3.5 1.7 10.2 4 12.5a62.7 62.7 0 015.8 7.6m-9.3-20c1.2 1.8 4.4 10.5 6.5 13.1 1.5 2.4 16.1 17.2 16.1 17.2" transform="matrix(.03378 0 0 .0368 1.4 -8.4)" fill="none" stroke-width=".5" stroke="#512007"/><path d="M384.6 471.1a2.2 2.2 0 01-4.4 0 2.2 2.2 0 012.2-2.2c1.3 0 2.2 1 2.2 2.2zm10.7 4.7c0 1-.9 2-2 2-1 0-1.8-1-1.8-2s.8-1.9 1.9-1.9c1 0 2 .9 2 2zM409 477c0 1-.8 1.9-1.9 1.9-1 0-2-.9-2-2 0-1 1-1.8 2-1.8s1.9.8 1.9 1.9zm11.9-4.5c0 1-.7 1.7-1.6 1.7s-1.6-.8-1.6-1.7c0-1 .7-1.8 1.6-1.8 1 0 1.6.8 1.6 1.8zm9.6-5.7c0 1-1 1.6-1.9 1.6-1 0-2-.6-2-1.6 0-.9 1-1.6 2-1.6s1.9.7 1.9 1.6zm0 0" transform="matrix(.03378 0 0 .0368 1.4 -8.4)" fill-rule="evenodd" stroke-width=".5" stroke="#512007"/><path d="M374 404.4c-.7.6-15.3 4.1-13.4 3.8 2.1-.3 13.8 3 13.5 2-.3-1 0-5.2 0-5.8zm24.8-4.3c-.6 0-9 3.2-8.7 3.2.3 0 9.6 2.6 9.3 2-.4-.6-.4-4.4-.6-5.2zm25.3 2.9c-.7.3-10.5 2.6-8.8 2.9 1.9.3 8.5 2.6 8.5 2 0-.5 0-4.6.3-5zm0 0" transform="matrix(.03378 0 0 .0368 1.4 -8.4)" fill-rule="evenodd" fill="red" stroke-width=".5" stroke="#512007"/><path d="M413.6 471c.2-4.6 8.8-31 8.8-31m-5.9 30l6.7-30m-3.7 27.8c.2-1.7 4.9-27.6 4.9-27.6m-10.6 27c1.6-.8 6-2 6-2m-3.8-2.7c1.4 0 4.3-1.1 4.3-1.1m-3.4-2.2c1.3-.7 2.8-1 4.3-1.3m-3.8-3.2l4.7-.7m-2.6-3.1c0 .3 3.3.3 3.3.3m-2.5-3.7l3.1.5" transform="matrix(.03378 0 0 .0368 1.4 -8.4)" fill="none" stroke-width=".5" stroke="#512007"/><path d="M413.6 471c.3-4.6 8.9-31 8.9-31m-6 31.3l6.6-31m-4.3 31l5.6-31m-10.5 27c1.5-.9 5.8-2.1 5.8-2.1m-3.7-2.6c1.4 0 4.3-1.2 4.3-1.2m-3.5-2.3a30.7 30.7 0 014.4-1.2m-3.8-3.2l4.7-.8m-2.7-3c0 .3 3.3.3 3.3.3m-2.4-3.7l3.2.5" transform="matrix(.03378 0 0 .0385 .6 -9)" fill="none" stroke-width=".5" stroke="#512007"/><path d="M413.6 471c.3-4.6 8.8-31 8.8-31m-6 30.1l6.8-30m-3.7 27.7c.2-1.8 5-27.6 5-27.6m-10.6 27c1.5-.8 5.8-2 5.8-2m-3.7-2.6c1.4 0 4.3-1.1 4.3-1.1m-3.5-2.3c1.4-.7 2.9-1 4.4-1.3m-3.8-3.2l4.7-.8m-2.6-3c0 .3 3.2.3 3.2.3m-2.4-3.7l3.2.5" transform="matrix(-.03378 0 0 .03737 28.5 -8.6)" fill="none" stroke-width=".5" stroke="#512007"/><path d="M426.4 558.5l27.6.6.3-2-28.5-.3zm1.2-7.3c3.2 0 27.3-4.6 27.3-4.6s.9-3 0-3-27.3 5.6-27.3 5.6zm0 0" transform="matrix(.03378 0 0 .0368 1.5 -12.1)" fill-rule="evenodd" fill="#dd8b59" stroke-width=".5" stroke="#512007"/><path d="M409 477c0 1-1 1.9-2 2a2 2 0 01-1.8-2c0-1.1.8-1.8 1.8-1.9 1.2 0 2 .8 2 2zm0 0" transform="matrix(.00108 -.0303 .02756 .00113 1.3 19.1)" fill-rule="evenodd" fill="#be0f17" stroke-width=".6" stroke="#512007"/><path d="M0 0h10v7H0zm0 0" fill="#012169"/><path d="M1.2 0L5 2.6 8.8 0H10v.9L6.2 3.5 10 6.1V7H8.7L5 4.4 1.3 7H0v-.9l3.7-2.6L0 1V0zm0 0" fill="#fff"/><path d="M6.6 4.1L10 6.4V7L5.8 4.1zm-2.8.3v.5L.8 7H0zM10 0L6.1 2.8V2L9.2 0zM0 0l3.7 2.6h-.9L0 .6zm0 0" fill="#c8102e"/><path d="M3.8 0v7h2.5V0zM0 2.3v2.4h10V2.3zm0 0" fill="#fff"/><path d="M0 2.8v1.4h10V2.8zM4.3 0v7h1.5V0zm0 0" fill="#c8102e"/></svg>