<svg xmlns="http://www.w3.org/2000/svg" width="20" height="14"><path fill="#da000c" d="M0 0h20v14H0z"/><path d="M0 0h20v9.4H0zm0 0" fill="#fff"/><path d="M6.5 6.4h3.8v2.4H6.5zm0 0"/><path d="M229.8 154h-39l-8.7 5.6v6h47.7m-16.3-37c5.6 0 10.2 4.7 10.2 10.5v14.7h7.3v-56h-40.3v56h12.6V139c0-5.6 4.5-10.5 10.2-10.5zm0 0" transform="matrix(.0586 0 0 .05469 -5 0)" fill="#da000c" stroke-linecap="square" stroke="#000"/><path d="M7 3.3h1V5H7zm0 0"/><path d="M223 88.7h-16.2V83h-11.9v5.8h-8V83H182v10.4h41m-36.2 0h35v4.5h-35zm14-45.7V83h6v-9.7c0-3.6 2.5-6.6 6.1-6.8h.4c3.8 0 6.8 3 6.8 6.8V83h5.7V47.6zm-2.3-4.8v4.8h29.3v-4.8zm-3.7-9v9h35v-9h-5.3v4.6H218v-4.7h-10v4.7h-6.5v-4.7zM182 159.5h48m31-2.8h-32.4l-9.8 4.7v7H261" transform="matrix(.0586 0 0 .05469 -5 0)" fill="#da000c" stroke-linecap="square" stroke="#000"/><path d="M218.8 161.5H262" transform="matrix(.0586 0 0 .05469 -5 0)" fill="none" stroke="#000"/><path d="M13.5 6.4H9.7v2.4h3.8zm0 0"/><path d="M229.8 154h-39l-8.7 5.6v6h47.7m-16.3-37c5.6 0 10.2 4.7 10.2 10.5v14.7h7.3v-56h-40.3v56h12.6V139c0-5.6 4.5-10.5 10.2-10.5zm0 0" transform="matrix(-.0586 0 0 .05469 25 0)" fill="#da000c" stroke-linecap="square" stroke="#000"/><path d="M13 3.3h-1V5h1zm0 0"/><path d="M223 88.7h-16.2V83h-11.9v5.8h-8V83H182v10.4h41m-36.2 0h35v4.5h-35zm14-45.7V83h6v-9.7c0-3.6 2.5-6.6 6.1-6.8h.4c3.8 0 6.8 3 6.8 6.8V83h5.7V47.6zm-2.3-4.8v4.8h29.3v-4.8zm-3.7-9v9h35v-9h-5.3v4.6H218v-4.7h-10v4.7h-6.5v-4.7zM182 159.5h48m31-2.8h-32.4l-9.8 4.7v7H261" transform="matrix(-.0586 0 0 .05469 25 0)" fill="#da000c" stroke-linecap="square" stroke="#000"/><path d="M218.8 161.5H262" transform="matrix(-.0586 0 0 .05469 25 0)" fill="none" stroke="#000"/><path d="M273.3 150c-2.7 1-5 2.4-7.5 3.8-3.1 1.8-6 3.8-9 6-.9.7-1.9 1.4-2.6 2.4-1 .8-2 2-1.8 3.5 0 .6.8-.8 1.4-1a4.3 4.3 0 013.1-.3c1.3-1.4 3-2.3 4.4-3.4 4.1-3 8.4-5.5 13-7.6zm0 0" transform="matrix(.0586 0 0 .05469 -5 0)" fill="#f8d80e" stroke-width=".8" stroke-linecap="round" stroke="#000"/><path d="M260.4 157.4v3.9m2.4-5.6v3.9m2.4-5.4v3.8m2.5-5.3v4" transform="matrix(.0586 0 0 .05469 -5 0)" fill="#f8d80e" stroke-linecap="round" stroke="#000"/><path d="M239 150.2l-1.3 3.3a87 87 0 0115.8 8c1.7 1.2 3.5 2.3 4.8 4 .3.7-.5 1.4-1.3 1-.7 0-1.5-.4-2.2 0-1 .6-2 2.3-.5 2.8 2.4 1.6 6.1 1 7.2-1.8.6-1.4.7-3.2-.5-4.4-2-2.3-4.8-4-7.4-5.7a88.4 88.4 0 00-14.7-7.2zm0 0" transform="matrix(.0586 0 0 .05469 -5 0)" fill="#f8d80e" stroke-width=".8" stroke-linecap="round" stroke="#000"/><path d="M254 158l-.3 3.4m3.1-1.7l-.8 3.3m3.8-1l-1.8 2.6m2.7 3.6l-2.6-1.4m3.4-1.4l-3 .3m-.8 4l-.2-2.6m-1-.3l-2.4 1.8m-9.4-15.7v3.1m6.3.3v3.5m-3.2-5.2v3.3" transform="matrix(.0586 0 0 .05469 -5 0)" fill="#f8d80e" stroke-linecap="round" stroke="#000"/><path d="M235.8 227.6v8h5v-4h7v4h5.3v-8zm0 11v8H253v-8h-5.4v4h-7v-4zm0 0" transform="matrix(.0586 0 0 .05469 -5 0)" fill="#f8d80e" stroke="#000"/><path d="M253 193.7h5v58h-5zm0 0" transform="matrix(.0586 0 0 .05469 -5 0)" fill="#f8d80e" stroke="#000"/><path d="M253 198.7h5v50h-5zm2.6-19.3l10.6 6.2-10.6 6.2-10.7-6.2zm-14.3 4h-2.7v4.4h2.7l14.3 8.3 14.2-8.3h2.8v-4.4h-2.8l-14.2-8.3zm0 0" transform="matrix(.0586 0 0 .05469 -5 0)" fill="#f8d80e" stroke="#000"/><path d="M255.3 164.3a5 5 0 00-4 5.1v11.2a5 5 0 004.6 4.6c2 .2 4-1 4.8-2.8l-1.7-1a3 3 0 01-3 1.8c-1.6 0-3-1.6-2.7-3.1v-11.2a2.9 2.9 0 013-2.6c.6-.2 1.5.7 1.9 0 .6-.9-.4-1.5-1-2h-2zm5.8 4a6 6 0 01-1.9 1.5v7.5l2 1.1v-10.2zm0 0" transform="matrix(.0586 0 0 .05469 -5 0)" fill="#f8d80e" stroke="#000"/><path d="M9.1 2.1h1.7v3H9.1zm0 0"/><path d="M238.8 38.4V83h9.3V69.7c0-3 2-7.3 7.9-7.3s8 4.3 8 7.3V83h9.2V38.4zm15.8 5h2.8v15.2h-2.8zm-8.3 3h3v11.1h-3zm16.5 0h3v11.1h-3.1zM235.6 32v6.3h40.8V32zm-3.8-7.4V32h48.5v-7.4h-6.1v4h-7v-4h-7.8v4h-6.8v-4h-8v4H238v-4zm-9 73.2v4.6h66.5v-4.6zm0 0" transform="matrix(.0586 0 0 .05469 -5 0)" fill="#da000c" stroke="#000"/><path d="M220 83v15h72V83h-6.8v5.7H276V83h-12.2v5.8H248V83h-12.2v5.8h-9V83zm0 0" transform="matrix(.0586 0 0 .05469 -5 0)" fill="#da000c" stroke="#000"/><path d="M228.7 102.4v54.4h12.8v-20.4c0-9.5 6.4-14 14.5-14 7.8 0 14.5 4.5 14.5 14v20.4h12.8v-54.4zm0 0" transform="matrix(.0586 0 0 .05469 -5 0)" fill="#da000c" stroke-linejoin="round" stroke="#000"/></svg>