<svg xmlns="http://www.w3.org/2000/svg" xmlns:xlink="http://www.w3.org/1999/xlink" width="20" height="14"><defs><symbol overflow="visible" id="c"><path d="M-.2-.2H.2V0zm0 0"/></symbol><symbol overflow="visible" id="d"><path d="M-.2-.2L0-.3V0h.1zm0 0"/></symbol><symbol overflow="visible" id="e"><path d="M0-.2V0h.1v-.1H0zm0 0a.1.1 0 010-.1h.2V0A.2.2 0 010 0s-.1 0 0-.1zm0 0"/></symbol><symbol overflow="visible" id="f"><path d="M-.2-.2L0-.3l.1.2L0-.1h-.1zm0 0"/></symbol><symbol overflow="visible" id="g"><path d="M0-.3h.1H0v.1h.1V0h.1H0zm0 0"/></symbol><symbol overflow="visible" id="h"><path d="M0-.2c.1 0 .1 0 0 0zm0 0V0v-.2l.1-.1v.1h.2L.2 0H0zm0 0"/></symbol><symbol overflow="visible" id="i"><path d="M0-.2h.1zm0 0V0v-.3a.2.2 0 01.1 0v.1l.2.1H.2 0zm0 0"/></symbol><symbol overflow="visible" id="j"><path d="M.1-.2zm0 0V0v-.3h.1V0zm0 0"/></symbol><symbol overflow="visible" id="k"><path d="M.1-.1v-.1zm0 0V0v-.3h.1V0zm0 0"/></symbol><symbol overflow="visible" id="u"><path d="M0-.3h.2v.1a.2.2 0 010 .1V0H0zm.1.1zm0 0"/></symbol><symbol overflow="visible" id="l"><path d="M.2 0v-.1zm0 0H0v-.2h.2V0c0 .1 0 .1 0 0v.2H.1V0zm0 0"/></symbol><symbol overflow="visible" id="m"><path d="M.2-.2l.1.1H.1v.2H0zm0 0"/></symbol><symbol overflow="visible" id="n"><path d="M.2-.2V0zm0 0h.1V0a.2.2 0 01-.1 0A.2.2 0 010 0a.2.2 0 010-.1.1.1 0 010-.1.1.1 0 01.1 0zm0 0"/></symbol><symbol overflow="visible" id="o"><path d="M.1-.2v0zm0 0h.1V0A.3.3 0 010 0a.2.2 0 010-.1zm0 0"/></symbol><symbol overflow="visible" id="p"><path d="M.2-.1H0L0 0v-.3l.3.2H.2zM0-.1v-.1zm0 0"/></symbol><symbol overflow="visible" id="q"><path d="M.2 0H0l.3-.1-.1.3zm0 0zm0 0"/></symbol><symbol overflow="visible" id="r"><path d="M.2 0H0l.2-.2V0zm0 0v-.2zm0 0"/></symbol><symbol overflow="visible" id="s"><path d="M0-.3l.2.1v-.1h.1v.2-.1l-.1.1L0-.2V0zm0 0"/></symbol><symbol overflow="visible" id="t"><path d="M0-.3h.2v.1H0V0zm0 0v.1h.2zm0 0"/></symbol><symbol overflow="visible" id="v"><path d="M.2-.2l.1.1V0H0zm0 0V0zm0 0"/></symbol><symbol overflow="visible" id="w"><path d="M0-.3h.1V0zm0 0"/></symbol><symbol overflow="visible" id="x"><path d="M.2-.2l.2.2H.2L0 0l.1-.2zm0 0"/></symbol><symbol overflow="visible" id="y"><path d="M.2-.2l.2.1H.2L0 .1l.1-.2zm0 0"/></symbol><symbol overflow="visible" id="z"><path d="M.1-.2h.1v.1h.2V0H.2v-.2.1H.1v-.2L0 0zm0 0"/></symbol><symbol overflow="visible" id="A"><path d="M.2.2L0 0a.2.2 0 01.1-.1h.1V0H.1v.1h.1zm0 0"/></symbol><linearGradient id="a" gradientUnits="userSpaceOnUse" x1="109.3" y1="218.5" x2="110.9" y2="173.4" gradientTransform="matrix(1.5 0 0 .65 40.5 0)"><stop offset="0" stop-color="#474747"/><stop offset="1" stop-color="#f50"/></linearGradient><linearGradient id="b" gradientUnits="userSpaceOnUse" x1="125.9" y1="316.4" x2="126" y2="337.2" gradientTransform="matrix(.03306 0 0 .02007 11.6 .3)"><stop offset="0" stop-color="#b50000"/><stop offset="1" stop-color="#ffc500"/></linearGradient><linearGradient id="B" gradientUnits="userSpaceOnUse" x1="407.9" y1="149.4" x2="456.4" y2="147.3" gradientTransform="matrix(.56 0 0 1.76 40.5 0)"><stop offset="0" stop-color="#d5dfff"/><stop offset="1" stop-color="#fff"/></linearGradient><linearGradient id="C" gradientUnits="userSpaceOnUse" x1="215.8" y1="103" x2="229" y2="103" gradientTransform="matrix(.74 0 0 1.33 40.5 0)"><stop offset="0" stop-color="#474747"/><stop offset="1" stop-color="#f50"/></linearGradient><linearGradient id="D" gradientUnits="userSpaceOnUse" x1="117.6" y1="1040.4" x2="78.2" y2="1003.7" gradientTransform="matrix(2.56 0 0 .38 40.5 0)"><stop offset="0" stop-color="#d5dfff"/><stop offset="1" stop-color="#fff"/></linearGradient><linearGradient id="E" gradientUnits="userSpaceOnUse" x1="264.7" y1="246" x2="255" y2="226.4" gradientTransform="matrix(.9 0 0 1.1 40.5 0)"><stop offset="0" stop-color="#d5dfff"/><stop offset="1" stop-color="#fff"/></linearGradient></defs><path fill="#006" d="M0 0h20v14H0z"/><path d="M0 0v1l12.6 7.6h1.6v-1L1.6 0zm14.2 0v1L1.6 8.6H0v-1L12.6 0zm0 0" fill="#fff"/><path d="M6 0v8.6h2.3V0zM0 2.9v2.8h14.2V3H0zm0 0" fill="#fff"/><path d="M0 3.4v1.8h14.2V3.4zM6.4 0v8.6h1.4V0zM0 8.6l4.7-2.9h1L1.2 8.6zM0 0l4.7 2.9h-1L0 .6zm8.4 2.9L13.1 0h1L9.6 2.9zm5.8 5.7L9.5 5.7h1L14.2 8zm0 0" fill="#c00"/><path d="M463.8 350s-3 7.5-4.6 7.5c-1.6 0-7.6-3.3-7.6-3.3s-4.4 7.1-6.6 7.5c-2.3.4-8.3-1-8.3-1s-5.7 0-6-.8c0-.8.4-2.4.4-2.4s-8.4 6.4-10.1 6c-1.9-.4-8-8.2-8-8.2l-1 4.2-11.8-.4-10.3-6.7s-5.6 9.5-6 9.3c-.1-.2-10 2.2-10 2.2l-.6-1.8-6.6-4s5-7 5-7.3c0-.2-2.3-1-2.3-1l-3.6 3-7.7 5-7.7-3.6 3.4-6.1.3-4.4 6-9.1 73-71 36 66.4zm0 0" transform="scale(.03125 .02917)" fill-rule="evenodd" fill="#6a4c2d" stroke-width="1.1" stroke="#000"/><path d="M515.6 354.2l19-.6-8-4 72.3-2.9-10.1-3.8-9-12.2-37.7-2.8s-2.9-2.2-7.4-1.1c-.2-3-3.7-6.8-3.7-6.8l-23-1.7-14.5 9.8 9.8 25zm0 0" transform="scale(.03125 .02917)" fill-rule="evenodd" fill="#fff" stroke-width="1.1" stroke="#000"/><path d="M121.3 150.8l2.2-7.6s4-6.5 4-9.3c0-3.1 2.8-6.6 2.8-6.6s9-2.5 10.8 3c9.6-14.5 20.8-.6 20.8-.6l3.2-3.8 6.4-7.8s9 8.5 9 10c0 1.6 1.6.5 1.6.5l9.7-1s4.7 3.8 3.6 10.6c3.5 2 6.7 14 6.7 14zm0 0" transform="matrix(.02687 0 0 .02508 10.5 .3)" fill-rule="evenodd" fill="url(#a)" stroke-width="1.3" stroke="#000"/><path d="M515.5 218.7c1.4-1 6-2.3 5.5-9-.6-6.7-6.4-7.5-9.6-7.3-3.3.2-6.1 3-6.1 3l-10.8-6.8s5.4-33.7 11-35.9c5.5-3.9 6.4-5.5 6.4-6.4 0-1-2-3.2-2-3.2l-34.9-4-33 3.8s-2.6 4-2.3 5.5c.6 1.6.6 3.3 6.4 7.8 6.6 5 11 33.9 11 33.9s-9.2 4.5-9.9 4c-.4-.7-3.2-1-4.6-1a9 9 0 00-6.4 9c0 6.5 5 10 5 10s31.6-3.5 36.2 5.2c4.5-10.5 34.5-6.9 38.1-8.6zm0 0" transform="scale(.03125 .02917)" fill-rule="evenodd" fill="#656263" stroke-width="1.1" stroke="#000"/><path d="M549.5 183.6s.4-3.7 3-5.3c2.6-2 20-2.7 24.3 0 4.3 2.5 5.7 15.4 5.7 15.4s2.6 4.6 2.8 7.9l.5 5.6s14 18 14.2 34.5c1.6 11.2 1.3 41.2-3.3 52.5 0 14.1-6 23.3-6 23.3s1.4 2.5 1.3 5.1c-.3 2.7-1.6 5.1-1.6 5.1l20.4 10-7.5-2.7 7.5 6.2-8.5-3.8 5 5-12.4-5.6s5.9 5.4 5.4 5.3l-9.2-4.5 5.4 5.7c-.3-.3-8-3.5-8-3.5l.3 3s-6.3-.3-6.3-5.2a26 26 0 01-5.3-4.1l-14.5-2.6-16.3-48.8 3.9-83 1-4.2zm0 0" transform="scale(.03125 .02917)" fill-rule="evenodd" stroke-width="1.1" stroke-linejoin="round" stroke="#000"/><path d="M538.5 448.8s-8.4-17.8-12.6-18c-3.8-7.2 13.2-66.2 46-69.5 18 1.4 1.4 20.7-10.4 14.8 1.5 5.2 7.4 12.6 7.4 12.6s-23.5 10.1-30.4 60zm-112.8 2.5s7-20 11.3-20.5c4.3 0-11.3-67-44.8-67.5-18 1.5-1.4 21 10.4 15-1.4 5.1-7.4 12.6-7.4 12.6s23.6 10.2 30.6 60.4zm0 0" transform="scale(.03125 .02917)" fill-rule="evenodd" fill="#fb0" stroke-width="1.1" stroke="#000"/><path d="M456.6 325.4c-.1 0-8.4 2.7-3 11.7.4-3.5 4-5.6 4-5.6s-5.6 6.7.4 12.4c.8-5.3 4.1-7 4.1-7s-4.2 12.3.1 14.8c.6-5 3.7-7 3.7-7s-3.8 11-.4 13.6c.4-4.3 3.3-6 3.3-6s-1.8 11.3 2.6 12.1c.1-4 3.4-8 3.4-8s-1.6 9.4 5.4 9.8c0-3.5 1.4-7.5 1.4-7.5s3.1 9.9 7.8 8.3v-8.5s2.9 9.5 8.4 7.7c-.8-2.7.3-5.8.3-5.8s3 5.9 8.1 4c1-1.9 0-5.3 0-5.3s7.6 8 10 3.2c2.2-4.8-6.3-6.5-6.3-6.5h5.9s-2-4.8-9.7-5.8c2.6-1.2 5.4-.4 5.4-.4s-1.6-6-9.6-6.7c3.1-1 6.5-.3 6.5-.3s-1-5.6-9.8-7.4c1.4-1.4 5.1-1 5.1-1s-3.4-5.4-7.4-5.1c-4 .4-39.8-3.7-39.7-3.7zm0 0" transform="scale(.03125 .02917)" fill-rule="evenodd" fill="#00713d" stroke-width="1.1" stroke="#000"/><path d="M491.9 354.6s3.1 1.6 3 3.1m-1.1-5.5s4 2.8 4 5m-.6-6.4s3.3 2 3.6 5.2m2-4s1.4 3.6 1 4.2m2.2-2.4c.3 2.9-.3 3.1-.3 3.1m-39.6-20.3s3.8 2.4 3.5 5.9m-3.7-3.1s1.7 1.8 1.4 3m3.2-5.8s2.6 3.4 1.8 6m2.4-3.8s1.3 2.3.2 3.5m2-2.4s1.4 2.2.1 3m-1.8 4.2s3.7.8 4 3.5m-1.8-5.9s3.7.3 4.1 4.2m.9-5.6s2.5 4.2 2 5.7m2.7-5.3s1 4.2.3 5.5m2.9-3.8v4.7m-4.8-11.3s2.4 1 2.3 3.3m0-5.3s3 1.6 2.6 5m.9-6.4s2.4 3 1.4 6.5m3-5.7s-1 3.7-.6 5.3m3.3-2.8s-1.6 1.3-.6 3m-14 11.7s.4 3.1 0 3.5m-3.8-5s1.9 3.1 1.3 4.8m-5.3-5s2.1 2.4 2 4.3m-5.3-3.8s2 1.8 2 2.8m-3.6 0s1.9 2 1.8 2.3" transform="scale(.03125 .02917)" fill="none" stroke-width="1.1" stroke-linecap="round" stroke="#3ec26d"/><path d="M430.9 222.2l26.7-.5s17.6 0 19.6 5.8c3.4-7.7 18.6-7.2 18.6-7.2l27.7-1 .5 67a71.5 71.5 0 01-44.9 52 68.7 68.7 0 01-45.4-52.6l-3-63.5zm0 0" transform="scale(.03125 .02917)" fill-rule="evenodd" fill="#fff" stroke-width="1.1" stroke="#000"/><path d="M440.4 222l39 103.8 35.2-106.2c-11 .8-34.4-1.6-37.4 8.3-4.4-9-29-5.3-36.8-5.8zm0 0" transform="scale(.03125 .02917)" fill-rule="evenodd" fill="#006b00" stroke-width="1.1" stroke="#000"/><path d="M467 278.2c1.4.8 1.4-28.2 3.4-29l1.5-6.1c-1.6-3-9.3-2.8-12-.3a38.4 38.4 0 001.9 5.4c3.7 6.3 3 30.6 5 30zm0 0" transform="scale(.03125 .02917)" fill-rule="evenodd" fill="#ffc900" stroke-width=".6" stroke-linecap="round" stroke="#006b00"/><path d="M456.5 54.2s2.8-3 2.9-3.8c.1-.7 12.5-1.2 19.9-15 4-7.1 0-3 0-3l-.3-3.3s5.1-5 3.3-7.5c-2-2.7-1.3 3.3-4.3 3.2-3-.2-1.4-6.5-1.4-6.5s-.2-.8-1-1.2c-1.4.2-1 2.5-2 2.7-1.2.2-2.2-5.3-2.2-5.3s-1.9-2.4-3.5 5.5c.9 8.3 6.2 6.7 6.2 12.1 0 5.5-4.7 9.8-6 10-1.5 0-1-4.7-1-4.7s-.7-2.3-1.2-2.3 2.7-.5 2.2-6.7c-1-7.5-2 1.7-4 1.5-2-.4-.5-7.1.3-7.8.9-.7-.9-3.8-5.3 4.1-.4 4-.9-.9-1.7-.8-1.5 3.3-1.3 5.5.9 8.4 3 2.8 5 5.7 5 7.2-.2 1.5-1.8 5-4 5s0-4.2 0-5.6c-.2-1.4-4-6.4-4-6.4s-2.6-4.1-2.3-4.4c.3 0-.3-.7-1.5 3.7-1.3 4.3-2.8-3-2.8-3s-1.7 5.5 2 8.7c-2.8-.4-3 .8-3 .8 0 1.5 3.8 2.1 4.3 4.7s-4 4.3-4 4.3 1.9 2.5 7.1-2.6c.1 3.2-2 5.5-2 5.5 1.8.8 3.1.7 3.4 2.7zm0 0" transform="scale(.03125 .02917)" fill-rule="evenodd" fill="#cdad56" stroke-width="1.1" stroke-linejoin="round" stroke="#000"/><path d="M439.3 54.2s-2.3-3.4-2.4-4c-.1-.6-11.5.8-17-13-3.4-6.7 0-2.8 0-2.8l.4-3.2s-3.8-4.5-2.2-7c1.6-2.2 1 3.1 3 3.1 2.5 0 1.1-5.9 1.1-5.9s.2-.6 1-1c1 0 1.6 3.4 2.4 3.8 1 .2 3-4 3.6-5 1 0 .8-3.5 2.2 3.7-.6 7.6-7 6.2-7 11.3 0 5 4 8.7 5.2 9 1.1 0 .6-4.4.6-4.4s.7-2 1-2c.6 0-3.4.8-3-5 1-5.1 3 .3 4.7 0 1.7-.3-.1-5.6.4-6.4 0-.8 2.4-4.2 3.4 3.4.4 3.6 2.3-3 3-2.8 1.3 3-.4 6.7-2.3 9.4-2.6 2.5-4 5.4-3.8 6.7.1 1.4.6 3 2.6 3s.7-2.2.8-3.4c.1-1.4 3.3-5.4 3.3-5.4.6-1 0-3 .8-3.8 1 0 1.4-1.4 2.5 2.6 1 4 2.3-2.6 2.3-2.6s1.5 4.9-1.6 7.8c2.4-.3 2.6.7 2.6.7 0 1.5-1.1 2-1.6 4.3-.3 1.4.2 3 1.3 3.9 0 0-1.6 2.4-6.1-2.5 0 2 .6 3.7 1.8 5.1-1.6.7-2.8.7-3 2.4zm0 0" transform="scale(.03125 .02917)" fill-rule="evenodd" fill="#cdad56" stroke-width=".9" stroke-linejoin="round" stroke="#000"/><path d="M15.9 7l-.1-.1h-.1l-.1.2V7v-.2h-.1V7h-.2.1v-.1h.1l-.1-.1v-.1a.1.1 0 01.1 0l.1-.1v.1h.1a.3.3 0 01.2 0l-.1.1V7zM14 7c0-.1 0 0 .1 0v-.1h.1V7h.1v-.1H14.6l-.1-.1h.1v-.2a.1.1 0 00-.1 0v.1h-.1v-.1-.1l-.1.1v.1H14a.3.3 0 00-.1 0h.2v.1H14V7zm0 0" fill-rule="evenodd" fill="#ffc900"/><path d="M506 244.2c-2.1 1.6-15.8 5-15.9 17-.1 11.7 2.4 14.4-.1 14.7-5 0-5.8-13.3-5.5-19 .1-6 .3-5 .3-5s3.3 1 3 3.8c-.2 2.8 3.4-7 2.2-9.8 2.3 2.3 5.3 1.5 5.3 1.2 0-.1-1.8-2-2.6-3.3-.6-1.3 2.6.8 2.6.8s0-2.3-2.7-2c-3.6 0 .6-1.3.6-1.3s2 2 3.6-.2c-1.2-1.1-2.4-1.9-4-2.4 0 0-2-4-4.6-4.6-3-.8-2.6 1.3-6 1-.8 1.4-.8 1.6.6 2-2.4 1.6-1 5-1 5s3.7-1.7 3.4 1c0 2.7-2 2.3-3.4.6-1.4-.8-1.8.7-1.8.7l2 2.2s-3.9-.2-4.8 2.2c2 0 3.2.6 3.2.6s-4.3 2-4.8 3c-.4 1-.5-1.2-.7-1.2l-4.1-1.6-1.6 6.6s3 2.8 4.6 1.9c1.4-1 4.2-3.6 6-3-5 4-10 9.3-12.6 10-.7-.6-3-2.9-4-1.8-1 1.2-.4 2.7 1 2.5 1.2 0-4 1.3-3 3.5 1 2.3 1 2 2 1.5 1-.7-1-.7 2.7-1.7 3.7-1.1 3.5-2 3.5-2s-.6 1.6-2.6 2c-2 .4-3.6.4-3 .9.3.7 1 1.7 1 2.3-.4.6 4-3.1 5-.2 3 0 5-3.7 3.6-5.9.1 2.5 1.5 3.1.7 4-.9 1.1 6.6-3.3 3-6 1 2.3 1 4 1 4s1.8 0 2.1-.7c.6-.6-.8 1.7-.2 2.1.6.5 3.3 3 2 4.8-.6-1-.8-2.7-1.6-2.5-.8.1-4.3 2.7-6.5 2.8-2.1.1 2.6 7.8 2.6 7.8s-3.3-.4-3.8 0c-.3.2-2.4-2.9-3-1.1-.4 2.3 1 1.5 1 1.5s-2-1-3 0c-1 1.2-2 2.1-1.2 2.6.8.4 3.8.4 4.3.3.3-.3-3.6.3-4 .8-.2.4-.7 2 0 2.7 1 .7 3-.3 3.2-.8.3-.4.3 1.7.3 1.7s3.6.3 3.6-3.5.4 2.7.4 2.7 3.6.6 3.7-3c.1-3.8.4 2.3.4 2.3s2.4-.6 2.4-1.2 0 7.5-1.8 9.7c-2.8-1.8-4.4 1.2-4.4 1.2s.1 4.3-.1 5.3c-.3 1.1 1.8-.5 2-.9.1-.5 2.6-1.7 2.8-2l.8-1.7s-.5 2-1.5 2.2c-1 .4-2 1.4-1.6 2.3.5 1 2 1.5 2.6 2.4.5 1 2.5-5.2 2.5-5.2l.1 1.3s2.6-.6 3-1.8c0-1.2-2.8-2.2-.4-4.2 2.4-1.9 0 1.8 0 1.8s.8 2.9 1.4 2.9c.6 0 2-5.4.6-6.7-1.6-1.5 2 1.6 2 1.6s2-5.5 0-6.3l-3.2-1s1.1-1.5.6-1.7c-.4-.2 3 3.3 3.6 2.5.4-1 1.3-3.7-2.8-5.1-4-1.6-.1-5.8-.1-5.8s2.5 3 4.4 1.3c1.8-1.6-.2-1.6-.2-1.6s5.1-3.3 5.3-5l-2.6.2s3-2 2.2-5c-.6 1-1.6 1.5-2.8 1.7 0 0 2.7-2.7 2.2-5.1-1.5 1.2-1.4 2.1-2.3 1.9-.9-.4-2.7-9.8 1.1-10.4 4-.6 2 4.6 2 4.6s6-2.4 0-6.3c1.6-.4 4.6 2.3 4.6 2.3s-1.4-6.6-7.7-2.6c1.5-1.6 2.5-2.6 3.6-2.4 1.4.3 6-.1 6-1.5-1.2-.9-3.6.4-5 0-1-.4 9-1.2 8.3-6.2zm0 0" transform="scale(.03125 .02917)" fill-rule="evenodd" fill="#ffc900" stroke-width=".6" stroke-linecap="round" stroke-linejoin="round" stroke="#006b00"/><path d="M481.4 118.5s12.2-6.4 18.2 1.7m5 12c-.4 0-4.2 4-5.3 4m13.6 8.9s11.2 1 18.5-10.2" transform="matrix(.01438 0 0 .01458 7.5 5.5)" fill="none" stroke-width="1.3" stroke-linecap="round" stroke="#006b00"/><path d="M524.9 141.9s1 6.1 3 6.1c1.6 0-3 1.6-5 .3 2.3 2.7 3.3 7.5 0 9.4" transform="matrix(.01438 0 0 .01458 7.5 5.5)" fill="none" stroke-width="1.3" stroke-linecap="round" stroke="#006b00"/><path d="M519.2 219s-3.8 4.3-9 4.6" transform="matrix(.01438 0 0 .01458 7.5 5.5)" fill-rule="evenodd" fill="#e80000" stroke-width="1.3" stroke-linecap="round" stroke="#006b00"/><path d="M523.8 199.4s-2.4-12.3-.8-15.2c.8-4 4.9-5.6 7.9-10.7m-8.2 16.8s-3 7.5-16.6 5.1m20.1-23.3s1.1 10-11 6.2m-3.9-50.4s-4.9 4.3-3 10.2" transform="matrix(.01438 0 0 .01458 7.5 5.5)" fill="none" stroke-width="1.3" stroke-linecap="round" stroke="#006b00"/><path d="M15.1 7.2h.1a.3.3 0 000-.1V7h.2l-.1-.1h-.1V7.3zm0 0" fill-rule="evenodd" fill="#006b00"/><path d="M534.4 97.1c2.7-.5 3 0 2.7 2.4a4.8 4.8 0 01-2.7-2.4zm0 0" transform="matrix(.01438 0 0 .01458 7.5 5.5)" fill-rule="evenodd" fill="#ffc900" stroke-width="1.3" stroke-linecap="round" stroke-linejoin="round" stroke="#ffc900"/><path d="M514.6 233.5s-.8 6.4 1.6 7c0-2.5.5-4 1-4.9-.5-.3-2.4-1.9-2.6-1.9zm-5.5-7.8c-2.4-.3-6.2 1.6-5.1 4 1.9-1.9 3.5 0 4.9-1.6.5-.5.2-1.9.2-2.4zm0-4.6s-3.8-.5-4.3 2c2.7-.4 3.2-.6 4 0 .3-.6 0-2 .3-2.2zm0 0M493.4 185s2.4.8 3 3c1.6-.9 2.4-5.7-3-3zm-5.2 5.3s4.6-2.6 4.9-.2a6 6 0 01-1.9 1.8c-.8 0-2-1.8-3-1.6zm-.5 8.9s3-2.4 4-.8c1.1 1.6-1 1.6-1 1.6s-1.1-.6-3-.8zm-4.1-49.3s-3.5-1.3-4.9 1c2.2.6 3 1.4 4 2.2-.2-1-.5-2.7.9-3.2zm-6.8 18.5s.3-4 2.2-6c1 .9 1.3 2 2.1 3-1.6.3-3.5.6-4.3 3zm9.5-3s-4 1.9-2.7 3.8c1.3-1.1 2.7-.8 2.7-.8zm0 0" transform="matrix(.01438 0 0 .01458 7.5 5.5)" fill-rule="evenodd" fill="#e80000" stroke-width="1.3" stroke-linejoin="round" stroke="#006b00"/><path d="M480.6 125.5c-1.4 1.6 1.9 5.1 4.9 4.6 1-3.8-4-5.7-4.9-4.6zm0 0" transform="matrix(.01438 0 0 .01458 7.5 5.5)" fill-rule="evenodd" fill="#ffc900" stroke-width="1.3" stroke-linejoin="round" stroke="#006b00"/><path d="M484.4 122.8s.5 3 3.3 2.2c-.3-2.4-2.5-4-2.5-4 0 .5.6 1.6-.8 1.8zm1.9 8.6s1.4 1.6 4.6-1.9c-1.6.3-3.8-.8-3.8-.8s0 2.4-.8 2.7zm0 0" transform="matrix(.01438 0 0 .01458 7.5 5.5)" fill-rule="evenodd" fill="#e80000" stroke-width="1.3" stroke-linejoin="round" stroke="#006b00"/><path d="M480.6 118.8c-1.6 1.6.3 3.8 3.8 3.2.8-3.7-3-4.3-3.8-3.2zm0 0" transform="matrix(.01438 0 0 .01458 7.5 5.5)" fill-rule="evenodd" fill="#ffc900" stroke-width="1.3" stroke-linejoin="round" stroke="#006b00"/><path d="M14.4 7h.3c.1.1.1 0 .1 0l.2.1H15v-.2c-.1 0 0 0 0-.1h-.2-.1l-.2.2zm0 0" fill-rule="evenodd" fill="url(#b)"/><path d="M392 438c4-1.1 25.3 4.6 33.4 13.3-1.6-15.6-6-27.5-6-27.5s-12.8-3.7-14.5-2c-4.9 4.9-9.3 10.3-13 16.1zm-6.5-72.4c-1.5.2-3 1.2-4.5 3.6-1.8 4.3-3 15-5.4 17.5-2.5 2.5-4.9 2.8-4.9 5a9 9 0 007 9.4c6.8.3 17.6-10.7 17.6-10.7s5.4-6 7.6-12.5c-13 4.6-22.1-7.5-17.4-12.3zm187 69.8c-4-1-25.4 4.7-33.6 13.4 1-9.4 3-18.6 6-27.5 1.6-.4 12.5-3.6 14.2-1.8 2.5 2.6 10.6 10.5 13.4 15.9zm6-72c1.5.3 2 2.4 3.3 4.6 1.6 4.3 3.5 10.5 6 12.9 2.5 2.5 4.6 6.2 4.6 8.4s-.5 5.3-7.1 7.3c-6.8.2-16.4-8.3-16.4-8.3s-5.4-6-7.6-12.5c12.8 4.6 21-7 17.2-12.3zm0 0" transform="scale(.03125 .02917)" fill-rule="evenodd" fill="#c01500" stroke-width="1.1" stroke="#000"/><path d="M378 424.2s13.5 9.2 13.8 13.5c36-53.5 128-70 180.4-3.8 7-9.2 14.2-12.2 14.2-12.2-55.1-72.1-165.1-63-208.4 2.5zm0 0" transform="scale(.03125 .02917)" fill-rule="evenodd" fill="#fb0" stroke-width="1.1" stroke="#000"/><path d="M515 220l5.3-.4-9.5 12.1 11.3 13-22.2 28 21 25.2a65.5 65.5 0 01-8.6 15.4l-12-13.3 21.8-27.2-18-20.3L515 220zm-75.3 2.2l-5.4.3 10.4 11.3-11.2 13.8 23.3 25.2-19.3 25.7a75 75 0 009.3 16.5l11.3-14.5-23.4-26 17-21.6zm0 0" transform="scale(.03125 .02917)" fill-rule="evenodd" fill="#1e5aa6" stroke-width="1.1" stroke="#000"/><path d="M465.9 289.8l-8.3 11L487 335a80.7 80.7 0 0013.8-9.2L485.4 308l6.3-18.4 9 10.4-28.2 36a63 63 0 01-14.7-9l15-19zm-9.1-17.1l5.3 6.8-3.5-9.2zm38.4 6l4.4-5.8-1.6-2.2zm0 0" transform="scale(.03125 .02917)" fill-rule="evenodd" fill="#1e5aa6" stroke-width="1.1" stroke="#000"/><use xlink:href="#c" x="12.2" y="12.5"/><use xlink:href="#d" x="12.3" y="12.2"/><use xlink:href="#e" x="12.7" y="12.2"/><use xlink:href="#f" x="12.9" y="11.8"/><use xlink:href="#g" x="12.9" y="11.9"/><use xlink:href="#h" x="13.1" y="11.9"/><use xlink:href="#i" x="13.4" y="11.6"/><use xlink:href="#j" x="14.5" y="11.3"/><use xlink:href="#k" x="15.4" y="11.1"/><use xlink:href="#l" x="16.6" y="11.6"/><use xlink:href="#m" x="17.2" y="11.8"/><use xlink:href="#n" x="16.9" y="11.7"/><use xlink:href="#o" x="14.8" y="11.3"/><use xlink:href="#p" x="13.7" y="11.4"/><use xlink:href="#q" x="17.5" y="11.9"/><use xlink:href="#r" x="15.6" y="11.2"/><use xlink:href="#s" x="13.9" y="11.4"/><use xlink:href="#t" x="14.5" y="11.3"/><use xlink:href="#u" x="14.7" y="11.3"/><use xlink:href="#v" x="16.4" y="11.4"/><use xlink:href="#w" x="15.4" y="11.2"/><use xlink:href="#x" x="17.9" y="12.4"/><use xlink:href="#y" x="17.1" y="11.8"/><use xlink:href="#z" x="16" y="11.3"/><use xlink:href="#A" x="17.4" y="12"/><path d="M557.4 184.6s5.2-4.5 8.9-4.7m-8.2 4c.1-.1 31-4.4 32-5.4m-31.9 5.7l34.5-3.1m-34.6 3.2s36.6-1.8 39 0m-39.1-.1s36 .2 36.6 1m-36.5-1l34.6 2.8m-35-2.6c.2 0 35.3 3 38.7 7.5m1.9 6.3c-.2-.1-12-14.2-40.7-14m.1.4s20 1.3 26.2 8.3m-25.8-8.6s12.9-2.6 26.3 13.6" transform="scale(.03125 .02917)" fill="none" stroke-width="1.1" stroke-linecap="round" stroke="#fff700"/><path d="M247.5 217.7s20.6.9 20.6 3c0 2-15.4 5.8-15.5 14.2-.3 8.6 11.7 9.2 12.5 20.1.8 10.8-9.3 12.3-11.4 15.1-2 1.4-7 16.7-6.2 25.6.6 9 3.2 39.2 8 45.3 3.5 3 8.8 12 15 9.2 5.7-3 1.7-13.3 1.1-16-.6-2.9 2.5-7.5 2.5-11.7 0-4.4-2.4-7.8-2-9 0-.8 16.4 4 15.3 20.2-1 15.9-7.5 10.9-7.5 10.9s2 19.8-3 22.4c-9.2 5-16-1-16-1l1 4-7-3.6s-9-12.8-11-18.6c-2-5.6-4.4-31-3.6-36.4.8-5.4 1.4-37.5 1-39.2a229 229 0 01-1-32.4c1-4 7.3-22.1 7.2-22.1zm0 0" transform="matrix(.02687 0 0 .02508 10.5 .3)" fill-rule="evenodd" fill="url(#B)" stroke-width="1.3" stroke="#000"/><path d="M530.8 194.5s12.5-12 19.6-10.8c3.7 0 .2 2.7.2 2.7s6.3.6 7.1 3.2c.2 1.2-3 1.7-3 1.7s2.7.5 2.8 2.8c.1 2.2-26.5.5-26.8.4zm0 0" transform="scale(.03125 .02917)" fill-rule="evenodd" fill="#ff7000" stroke-width="1.1" stroke="#000"/><path d="M531.5 194s13.3-2 18.9-7.4m-5.4 3.6s9.8-.3 9.8 1" transform="scale(.03125 .02917)" fill="none" stroke-width="1.1" stroke="#000"/><path d="M579.8 333s8.3-1.8 10.6-4.7c1.4-1.1 8.7 11-10.6 5zm0 0" transform="scale(.03125 .02917)" fill-rule="evenodd" fill="#fff" stroke-width="1.1" stroke-linejoin="round" stroke="#000"/><path d="M577.5 263.8s1 6.3-2 10.8c-1.5 1.7-6.3 4.6-6.3 6.8s1.8 5 1.4 7.3c-.4 2.5-3 5-2.7 7 0 2.2 3 13.3 2.6 13.5m-8.4-66.4s-6.6 2.3-8 9" transform="scale(.03125 .02917)" fill="none" stroke-width="1.1" stroke-linecap="round" stroke="#fff"/><path d="M559.3 190.2s2.3 6.3 9.6.4c-4.6-6.4-9.6-.2-9.6-.4zm0 0" transform="scale(.03125 .02917)" fill-rule="evenodd" fill="#c75b00" stroke-width="1.1" stroke="#000"/><path d="M17.7 5.5h-.1zm0 0" fill-rule="evenodd"/><path d="M499.3 175.6s14 15 23 15c1.6 4.4-4.2 8.6-6.5 10.4-4.5-1.4-8.7.3-19.3-12.8.6-8.3 3-12.2 2.8-12.6zm18.8-35c1.8-5.6 5.4-10 8.5-10.6-.9-4.1 6.6-22.9 28-30.2 1.3 9.8-9.1 19.3-9.1 19.3s31.6-5.5 38-13.6c-.8 3.7-7.1 26.2-40.8 25.9 12.8 12-4 21.8-11.3 18.9 13.2-10.2-3.8-16.2-13.3-9.7zm0 0" transform="scale(.03125 .02917)" fill-rule="evenodd" fill="#fff" stroke-width="1.1" stroke="#000"/><path d="M529 132.9c6.3-4.2 8.6-4.2 13.8-3.4l-3.7.5s-.4.6 2 2.9c-2.7-.8-5-2.3-12.2 0zm0 0" transform="scale(.03125 .02917)" fill-rule="evenodd" fill="#cccccd" stroke-width="1.1" stroke="#ccc"/><path d="M526.5 130s12.6-6.7 19.6-11.2" transform="scale(.03125 .02917)" fill="none" stroke-width="1.1" stroke="#000"/><path d="M515.8 201s17.2 4.8 19.2-20c-3.8-11-9-34-1-41-7.4-4.9-15.4.4-15.4.4-.5 1-7 10.4 1.8 26.7-21-5.4-12.4 14.2-12.4 14.2.8-3 12-5.9 14.8 10 1 3.8-7.5 9.9-7 9.7zm0 0" transform="scale(.03125 .02917)" fill-rule="evenodd" fill="#00f" stroke-width="1.1" stroke="#000"/><path d="M535.1 181s18.4-9.8 17.9-32.9c-15.6.4-21.1 20.5-21.1 20.5l3.4 12.3zm0 0" transform="scale(.03125 .02917)" fill-rule="evenodd" fill="#00f" stroke-width="1.1" stroke="#000"/><path d="M453 179.9s-13.6 11.8-21.3 8c-5.7 3.4-12.4-2.5-12.4-2.5s7.8 28.9 36 7.9c-.6-6.3-2-13-2.3-13.4zm0 0" transform="scale(.03125 .02917)" fill-rule="evenodd" fill="#fff" stroke-width="1.1" stroke="#000"/><path d="M431.5 187.4c1.3-6 6-9 9.8-3.2 5 .9 10-19.9-8-16.4 5-27.2-10-37.4-10-37.4s-5.6 30-3 35.7-3.6-10.3-23-14.8c-.4 23 21.6 33.5 21.6 33.5s6.4 5.6 12.6 2.6zm0 0" transform="scale(.03125 .02917)" fill-rule="evenodd" fill="#00f" stroke-width="1.1" stroke="#000"/><path d="M433.3 167.5s-8.6 7.3-6.6 17m-6.3-17.9s-2 7 2.4 17M419 186s4-6.4 12.4 1.8" transform="scale(.03125 .02917)" fill="none" stroke-width="1.1" stroke="#000"/><path d="M420.8 141.8c0-.2-13 0-5.3 13-5.8 1.8-18.5-6.5-9.8-17.7-29-.6-40.6-14.6-40.6-27.3 8.5 8.9 28.8 5.2 36 10.7-8.9-8.1-7-19.5-7-19.5s24.6 7.3 29.1 29.3c-1.4 4.2-2 11.8-2.4 11.4zm0 0" transform="scale(.03125 .02917)" fill-rule="evenodd" fill="#fff" stroke-width="1.1" stroke="#000"/><path d="M400.9 119.9c4.7 5 17 6.3 23.2 11.8" transform="scale(.03125 .02917)" fill="none" stroke-width="1.1" stroke="#000"/><path d="M406.5 134.2s10.3-1.3 13 2.3c-3.9 0-5.3-1-11 1.2 1.8-1 1.3-2.3 2.1-2.3s-3.7-1.2-4.1-1.2zm0 0" transform="scale(.03125 .02917)" fill-rule="evenodd" fill="#cccccd" stroke-width=".8" stroke="#ccc"/><path d="M457 54.8s5.6-4.8 11.8-.4c-2.8 8.1-12.7 5-12.7 5s.3 4-.7 6c2 1.6 3.6 6.5 3.6 6.5s10.3-2.5 12.3 2c4-.6 6.7 0 6.7 0s7.9-2 10.8-2c2.6 0 11.4 2.3 12.3 3.9.8 1.6 3.8 12.6 5.6 12.5 2-.2-4.6 2.6-6.4-.2-1.8-2.8-1.3 3.6-1.3 3.6s5.5 6 6.3 7.1c.4 1.4-3.6 12-.4 19.5-2.8 0-3 3-3 3-.1 3.3-4.1 4-4.1 4l-1-4.4-3 1.6 1.2-3.3s3.8-9.2 4.1-12c.4-3.1-3.4-8.4-6.4-8.4-2.8 0-5 9.4-5 9.4s-1.4 7-1 7.6l-2-2.2s-1.3 4.3-2.3 5.6c-1 1.3-3 1.7-3 1.7s-1.5-4.2-1-5.9c.4-1.6 8-8 7.4-12.5-.7-4.6 0-3.5-.3-3.7-.1 0-3.9-3.4-4-5.2-.3-1.9-5 2.3-11.3 1-1.8 3.3-2 11.6-2 11.6s-.7 10 .7 11.3c1.4 1-3.3 3.4-3.3 3.4l-3.4 4.5-1-2.6-2.3 1.6 1.4-3.3c0-2.4 3-9.1 3-15 0-5.8.4-11.8.4-11.8s-6-.3-6 5.9c.4 6.1-1.3 6.5-1 8.3.4 1.9 2 7 1.6 8.4-.6 1.4-2.6 2-2.6 2l-.4.8s-6 2.7-6 4c.2 1 0-3.4 0-3.4l-.4-4.7s3.6-2.3 3.6-8c0-5.8-.8-6.6-.8-8 .3-1.2 1-6 1-6.5-.2-.4-3.4 1.5-4.4 1.5s1.7-3.7 2-6-3.2 2.3-6.2-.5c1.4-3 3.5-4 3.8-6.1.4-2.3-2.3 1.8-4.6.2.2-2.2 2.4-4.1 2.4-4.1s-1.8-.2-2.4 0c-1.6-.6 1.4-2.8 1.7-6 .1-3.3-1.8-4.6-1.8-4.7 0-.3-3.3-3.1-3.8-4.2-.5-1-.5-2.5-.5-2.5s-5.4 4-11.8-4.5c5.9-5 12.1-1.2 12.1-1.2s1.7-4.6 9.2-4.2c7.5.4 9 4.5 8.7 4zm0 0" transform="scale(.03125 .02917)" fill-rule="evenodd" fill="#923f00" stroke-width="1.1" stroke="#000"/><path d="M498.3 139.6s13.8.4 14 7.7c0 7.3-4.2 5.4-4.4 5.4l-10-1.2zm0 0" transform="scale(.03125 .02917)" fill-rule="evenodd" fill="#00f" stroke-width="1.1" stroke="#000"/><path d="M484.9 137.5s17.2-.2 16.2 7.3-5.4 6-5.4 6l-8.2-.7zm0 0" transform="scale(.03125 .02917)" fill-rule="evenodd" fill="#fffeff" stroke-width="1.1" stroke="#000"/><path d="M475.3 136.6l10 1s6 .7 5.6 6.4c-.3 5.7-6.1 5.9-6.1 5.9l-9.7-.6zm0 0" transform="scale(.03125 .02917)" fill-rule="evenodd" fill="#00f" stroke-width="1.1" stroke="#000"/><path d="M451.9 139.6c-.1 0-13.9.4-14 7.7-.1 7.3 4.2 5.4 4.4 5.4l10-1.2zm0 0" transform="scale(.03125 .02917)" fill-rule="evenodd" fill="#fff" stroke-width="1.1" stroke="#000"/><path d="M465.3 137.5s-17.2-.2-16.3 7.3c1 7.5 5.4 6 5.4 6l8.4-.7zm0 0" transform="scale(.03125 .02917)" fill-rule="evenodd" fill="#00f" stroke-width="1.1" stroke="#000"/><path d="M475 136.6l-10 1s-6 .7-5.8 6.4c.3 5.7 6.2 5.9 6.2 5.9l9.7-.6-.2-12.7zm0 0" transform="scale(.03125 .02917)" fill-rule="evenodd" fill="#fff" stroke-width="1.1" stroke="#000"/><path d="M501.6 219.4s7.1-10.6 10.1-9.4c2.7 1 .7 9-.6 9.8zm-49 1.8c-2.4-3.2-5.6-11.7-8.6-9.3-2.6.8-.6 9 .6 9.8zm0 0" transform="scale(.03125 .02917)" fill-rule="evenodd" fill="#5e0043" stroke-width="1.1" stroke="#000"/><path d="M457.3 200.4s14 8.7 18.4 8.8c4.7.3 19-11.1 19-11.1" transform="scale(.03125 .02917)" fill="none" stroke-width="1.1" stroke="#000"/><path d="M458.6 166.7l2.6-3.3 13.6 6.8 13.4-6 2.8 2.8-15.3 10.7zm0 0" transform="scale(.03125 .02917)" fill-rule="evenodd" fill="#5e0043" stroke-width="1.1" stroke="#000"/><path d="M448 166.6c1 1.3 9.8 12 11.3 20.6 1.6 8.7-1-12-1-12s10.8 5.3 11 8.6c.4 3.4 5.3-.2 5.4-.9l-31-20zm52.9-.7s-11.3 14.9-10 31.1c-2.3-7.8-.4-20.6-.4-20.6l-2.4 1.6s-2.6 11-5.9 12.6l-.4-1.8s-3.4 4.5-4 5c-.8.4 0 15 0 15s1.3 10.6 2.6 10.4l-3.4 2-1.4-28.3 3.1-3.3s4.4-5 4.7-10c-1.9 1.5-4 2-4 2s-.5 7.1-2.1 8c-1.7 1.1-1.8 3-1.8 3l-.4-9.3L501 166zm0 0" transform="scale(.03125 .02917)" fill-rule="evenodd" fill="#474747" stroke-width="1.1" stroke-linejoin="round" stroke="#474747"/><path d="M475.1 183l2.1 44.7" transform="scale(.03125 .02917)" fill="none" stroke-width="1.1" stroke-linecap="round" stroke="#000"/><path d="M447.8 204.4s5 3 7 12.2c16.6-1.2 22 4.6 22 4.6s13.6-6.5 20-5.3c2.2-4.7 8.6-10.7 8.6-10.7" transform="scale(.03125 .02917)" fill="none" stroke-width="1.1" stroke="#000"/><path d="M440.8 160.7l34.3 22.6 31-21s6.5-3.5 6-6-2.9-1.6-4-1.2c-1 .5-32.4 22.8-32.4 22.8l-33.4-21s-2.4-1-3 .6c-.4 1.6 1 2.4 1.4 3.2zm0 0" transform="scale(.03125 .02917)" fill-rule="evenodd" fill="#b4b6b9" stroke-width="1.1" stroke="#000"/><path d="M502.3 155s-8.8-4-8.8-.6c0 3.2.3 3.5 1.6 5.6 1.4 2-1 3.4-1 3.4l-.9-2.3c-.4-1.5-5.2-2.4-5.6-4-.4-1.7 1-4.4-1.9-4.7-1.4-.3-2.8 0-4 1-1.2.8-2 2-2 3.4a65.3 65.3 0 01-4.3 10.7l.5-17.1c6.2.4 17.7 1.7 26.6 2.8-2.8-.4 1 .1.9 1-.3.8-1.1 1-1.1.8zm-31.2-4.5a46 46 0 00-11.5 2c-2 1.3 3.3 3.1 2.6 4.7-.7 1.6-.7 4.7-3.2 4-2.5-.6-11-4.6-11.3-6.2 0-1.4-2-1.5-2-1.5s24.2-3.2 25.4-3zm0 0" transform="scale(.03125 .02917)" fill-rule="evenodd" fill="#474747" stroke-width="1.1" stroke-linejoin="round" stroke="#474747"/><path d="M474.9 148.7v21m-16.3-46l-9.9 16.1" transform="scale(.03125 .02917)" fill="none" stroke-width="1.1" stroke="#000"/><path d="M161.9 129.7s4.8 6.7 4.2 8.5c1.9 2.4 3.3 5 4.3 8" transform="matrix(.02687 0 0 .02508 10.5 .3)" fill-rule="evenodd" fill="url(#C)" stroke-width="1.3" stroke="#000"/><path d="M492.8 122.3s-9.2 12.8-9 13.8" transform="scale(.03125 .02917)" fill="none" stroke-width="1.1" stroke="#000"/><path d="M14 1.8h-.1-.1.1zm0 0h.2-.1zm0 0" fill-rule="evenodd"/><path d="M556.1 326.7s-3.4.5-3.2.9c.1.4-9.8.5-10 .3-.1-.4-1.5 1.6-1.5 1.6l1.6-1s2.4 2.6 3.1 2.4c.8-.2-.4 1 0 1.1.1.1.9-.4.9-.4l16.3-.3zm6.1 5l-13.3.4s-3.4 3-3.6 3.7c-.2.8 2.2 1 2.2 1l.8 2.4 1.6-.5s11.4 1.7 21.9-.7c5.2-1.8 6-4 2.5-5.5-3.8-1.2-12-.8-12-.9zm0 0" transform="scale(.03125 .02917)" fill-rule="evenodd" fill="#ff7000" stroke-width="1.1" stroke-linejoin="round" stroke="#000"/><path d="M208.4 404l28-1.3-5.4-4.4 75.8-3-2.6-6-84.6 3.2 10.1 4.9-23 .6.8 2.3-6-.1s6.6 2.6 6.9 3.7zm0 0" transform="matrix(.02687 0 0 .02508 10.5 .3)" fill-rule="evenodd" fill="url(#D)" stroke-width="1.3" stroke="#000"/><path d="M239.8 249.4c-2.4-1-12.1-2.5-22.9 4.7l.3 25s16.2-8.7 23.9-6.6c-.5-7.8-.5-17.8-1.3-23zm0 0" transform="matrix(.02687 0 0 .02508 10.5 .3)" fill-rule="evenodd" fill="url(#E)" stroke-width="1.3" stroke="#000"/><path d="M410.4 291.8L353.8 348m82-56l-46 60.7m44-76.4l-61.6 74.6m-1.8-1.1l6-7m69-29l-23.9 32.8m-1 4.3l.6 12.5m35.1-38.1L431 356.9m20.8-2.5l10.2-16.8m-6.3-3.3l-12.4 14M452 321l-8.5 10.3m-2.4-25.3s-25.7 37.7-25.4 40.7m22.7-45.6c-.6.4-22.1 29-22.1 29m-1.3 9l-4 4.8m-4.9 7.3l-6 7.7" transform="scale(.03125 .02917)" fill="none" stroke-width="1.1" stroke="#000"/><path d="M407.6 205.2s-1.7 5.5 0 8.1c1.6 2.9 12.6 25 12.6 25s7.6-9.1 10.3-9.6c2.8 0 1.5 24 1.5 24s-4.5 4.2-7.3 4c-2.6-.4 6.8 9.4 6.6 17.6-.2 8.2-12.6 49-17 49.7-4.4.8 2-7.4 1.8-9.7-.4-2.2-1.5-.6-2.5-3.2-1-2.5 1.5-6.1 1-8.7s-2.9-2-3-3.7c-.2-1.6 1.5-2.3 1.1-4.2 0-2-3-1.5-2.6-3.3.3-1.8.5-1 .3-4.2-.3-3.2-.8 2.2-3.5 2.6-2.8 0-5 6.2-5 6.2s-5.5 7.8-11 4.3c3.4 7.1.9 10-.4 10.3-1.3.2 1 5.4-2 5.7-3 .2 2.3 11.8-1.3 12.7 3.8 1.7.8 4 .8 4s-8.6.7-6.8 12c-25.3-9-37.7-24.4-37.4-40.1.2-15.7 5.2-29.9 17.3-35 3.5-13 9.5-27 9.5-27s-1-5.6-.4-9.4c1-3.7 4.4-7.4 4.4-7.4s-.5-9-.4-13.5c.4-4.4 2-6.4 2.3-9 .3-2.4-.8-15 1.8-17.2 2.4-2.4 7.2-2 9.7-3.7 2.5-1.4 5.8-4.1 9-3.8 3.3.1 6 2.4 6 2.4s12 0 12.8 4.7c.8 4.8-2.6 6.5-2.6 6.5s2 6.7-5.6 13zm0 0" transform="scale(.03125 .02917)" fill-rule="evenodd" fill="#8a9396" stroke-width="1.1" stroke="#2b2b2b"/><path d="M396.9 188c.4.8-.5 2-2 2.8-1.5.9-3 .9-3.4.2s.5-2 2-2.8c1.5-.8 3-.8 3.4-.2zm0 0" transform="scale(.03125 .02917)" fill-rule="evenodd" fill="#cecfcf" stroke-width="1.1" stroke="#2b2b2b"/><path d="M12.3 5.5zm0 0" fill-rule="evenodd"/><path d="M413 197.5s3 13.4-.8 22.8m1.6-28.6s6 7.7 5.2 17.4m-4.6-19.2c.2 0 5 4.2 4.9 7m-3.7-8.9s3.1 2.4 4 4.7" transform="scale(.03125 .02917)" fill="none" stroke-width=".5" stroke="#2b2b2b"/><path d="M414 186.8s-11.5 18.8-10 30.6" transform="scale(.03125 .02917)" fill="none" stroke-width="1.1" stroke="#000"/><path d="M414.8 186.2s-15.4 9.2-18.2 39" transform="scale(.03125 .02917)" fill="none" stroke-width=".5" stroke="#2b2b2b"/><path d="M413.1 191.8l-6 4.5" transform="scale(.03125 .02917)" fill="none" stroke-width="1.1" stroke="#000"/><path d="M390.9 226.9s8.5-35.5 23.7-40.7" transform="scale(.03125 .02917)" fill="none" stroke-width=".5" stroke="#2b2b2b"/><path d="M420.5 239s8.3-10.4 10-10c2 .4 1.4 23.9 1.4 23.9s-6 4.4-7.4 4.2c-1.3-.2 6.8 11 6.6 15.2l-.4 4.3s0-2.6-2-6.6c-1.7-4-.6-8.4-13-18.6-3-6.2 6 3.7 8 2.3 2-1.5-3.4-14.6-3.2-14.8zm0 0" transform="scale(.03125 .02917)" fill-rule="evenodd" fill="#2b2b2b" stroke-width="1.1" stroke="#2b2b2b"/><path d="M406 181s-3.5 1-4 2.3c-.4 1.5-2.4 2.9-3.5 2.5-1.1-.6-2.1-1.4-3.1-2.2" transform="scale(.03125 .02917)" fill="none" stroke-width="1.1" stroke="#2b2b2b"/><path d="M386.5 193.1s-5.3 5.2-2.8 5.8c2.6.7 5.3-4 5.3-4s0 7.9 2.1 6.7l8.6-5.8s2.2-.3 2.7 0c.5.1 6 4.8 9.5 3-2 5.4-4.4 6-4.4 6s-3.8 5-8.6 3.9c-4.8-1.2-6-3.3-6-3.3s-4.1.3-5.3-1.6c-1.4-1.8-1.9-3-1.9-3s-2.2 2.5-3 1.4c-.4-1 0-7.5 3.8-9zm0 0" transform="scale(.03125 .02917)" fill-rule="evenodd" fill="#2b2b2b" stroke-width="1.1" stroke-linejoin="round" stroke="#2b2b2b"/><path d="M415.8 186s-9.7-3-13 1.8c-3.2 4.7-2.4 7.3-.7 7.7" transform="scale(.03125 .02917)" fill="none" stroke-width="1.1" stroke="#2b2b2b"/><path d="M13 5.4zm0 0" fill-rule="evenodd"/><path d="M389.4 210s3.9 6 8.5 7.6c4.6 1.6-3.1 3-7.8 0-3.4-4.7-2.5-8-2.5-8s1-.8 1.8.4zm33.4 35.2s-11-15.1-14.2-16c-3.1-.9 2.4-1.5 5.6 1.8 3.6 3.2-.8-5.3-.8-5.3zm0 0" transform="scale(.03125 .02917)" fill-rule="evenodd" fill="#2b2b2b" stroke-width="1.1" stroke="#2b2b2b"/><path d="M388.4 332.8c4.2-1 22.4 10.5 26.5 13.4 4 3 12.7 1 12.7 1s-4 2.5-6.5 3c-2.5.6 7.4.7 7.4.7s-23.3 6.4-47-6c-2.3-9.8 5-12 6.9-12zm0 0" transform="scale(.03125 .02917)" fill-rule="evenodd" fill="#2b2b2b" stroke-width="1.1" stroke-linejoin="round" stroke="#2b2b2b"/><path d="M415 249s-3-.6-4.6-2.4c-1.6-1.8-3.8-6.2-6.1-8-2.3-2-14-8.2-18-7.8-4.3.4-5.6-.4-6-1.1-.6-.5-2.3.3-2 2.5.3 2-3.2 6.9-2 9.1a68 68 0 008.4 11.7c1.3.3.6 5.3.6 5.3s5.2 5.4 6.6 5.7c1.4.2 2.7 1.2 2.5 2.5-.1 1.4-5.8 8.2-5.8 8.2s-6.1 3.2-6.2 5c0 1.8 1.5 5.6 6.4 6.8 6 1 12.4.6 18.4-1 .8-1 2-7.9 1.4-8.4-.4-.7-3.7-2.7-5.4-2.4-1.4.3-3 1.6-3 1.9.3.4-2.2 1.6-2.2.4 0-1.2 4.8-6.6 5.3-6.2.4.5 7.3 1.2 8.6 4.6 1.4 3.4 1.4 5.8 4.9 5.4 3.4-.2 8.4-3.4 9-10.4.4-7-4-11.5-5.2-12.2-1-.7-4.9-3-5.1-4-.3-1-1-4.4-.5-5.2zm0 0" transform="scale(.03125 .02917)" fill-rule="evenodd" fill="#2b2b2b" stroke-width="1.1" stroke="#2b2b2b"/><path d="M350.4 279.2s11.6-2.9 14.6-2.9a48 48 0 0117.5 8.6c3.3 3.2 10 10.8 14.5 10.1 4.4-.6 5.6-1.6 5.6-1.6l-1.7 3.4s-3.6 1-5.4.5a18.2 18.2 0 01-8.8-5c-3.4-3.4-14.3-12.7-23.4-12-9.3.5-14.6 9.7-14.6 9.7s0-4.5.6-5.4c.2-1-2 2-2 2zm0 0" transform="scale(.03125 .02917)" fill-rule="evenodd" fill="#2b2b2b" stroke-width="1.1" stroke="#2b2b2b"/><path d="M393 288.3c.1 0 3 .9 7.8.9s7.3-2.2 7.3-2.2l-.4-1.9.8-2.6s3.8 3.7 3.6 4.5c0 .7-1.5 1-1.5 1l-.5-1.8-1.4 1.6s-7 5.5-10.6 4.7c-3.9-.8-7.4-3.3-6.4-3.9 1-.7 1.6-.4 1.4-.4zm-16.8 9.7s-4.2 0-6 1c-2 .9-2.6 2-4 1.7-1-.2-2-1.8-1.7-2.4.5-1 3-2.5 7.8-2 4.6.4 4 1.7 4 1.7zm14.6 11.4c0-.2-.3-6-2.6-8.5a7.3 7.3 0 00-6.4-2.1c-1.3.3 4.7 3 5.3 4.5.6 1.8 2.5 6.6 2 7.8s-1.5-3.3-5.2-4.5c-3.6-1.4-8.6-.7-7.6.9s5 .1 7.2 3.8c2.1 3.4 3.8 7 3.8 7l.4-2.4 2-.5.2-5 1-1zm0 0" transform="scale(.03125 .02917)" fill-rule="evenodd" fill="#2b2b2b" stroke-width="1.1" stroke="#2b2b2b"/><path d="M387.8 328.5L384 321s-1.3-5-4.4-6.2c-3.2-1.4-7.5-1-7.5.4-.1 1.8 6.8 3.8 7.3 4.7.5 1 .2 2.4-.4 2.6-.6 0-3.6-1.2-5.3-.8-1.4.4-2.4 2.4-4.7 1.8-2.3-.6-4.3-8-3.4-8.8 1-.7-1.7 1.3-2.2-.5-.5-2 .9-8-.1-8.7-1-.8-5.3-3.5-5.3-4-.1-.5.3-29.7 24.6-5.6-10.5-12.3-14.6-11-16.5-11-1.4 0-10.9.7-13.4 13-2.3 11.8-5 4.3-5 4.3s-.6 5.3 2 6.7c2.4 1.6-1.3 6-1.3 6s-4.6-11.2-3.9-16c-.9 3.9-.8 13.5 5 24a77 77 0 0029.9 21.1c8.9-13.6 8.4-15.2 8.4-15.4zm0 0" transform="scale(.03125 .02917)" fill-rule="evenodd" fill="#2b2b2b" stroke-width="1.1" stroke-linejoin="round" stroke="#2b2b2b"/><path d="M371.9 328.7s4.9.5 6.2 3c1 2 1.6 4.2 2 6.3.8-1.4 1.1-3 2.8-4.1s2.9-1.4 2.9-2.2c-.2-1-5.4-6.4-8-6.7-2.6-.4-7 2.9-7 2.9s-1 1.2 1 .8zm0 0" transform="scale(.03125 .02917)" fill-rule="evenodd" fill="#8a9396" stroke-width="1.1" stroke-linejoin="round" stroke="#2b2b2b"/><path d="M383.1 341.4s12.8 5.9 33.8 6.1" transform="scale(.03125 .02917)" fill="none" stroke-width="1.1" stroke-linecap="round" stroke="#8a9396"/><path d="M425.8 282s-1 10.8-9.4 32" transform="scale(.03125 .02917)" fill="none" stroke-width="1.1" stroke-linecap="round" stroke="#2b2b2b"/><path d="M424.1 288.8s-2.5 7.6-9.4 13.3" transform="scale(.03125 .02917)" fill="none" stroke-width="1.1" stroke="#2b2b2b"/></svg>