<svg xmlns="http://www.w3.org/2000/svg" width="20" height="14"><path fill="#ba0000" d="M0 0h20v14H0z"/><path d="M9.7 6.8s-1.5-.6-1.3-2.2c.2-.8.6-1.3 1.3-1.6l1-.1a.6.6 0 00-.3.2l.1.5.2.7a1 1 0 01-.4 1l-.6.3a.7.7 0 00-.3.5c0 .4.2.5.3.7zm0 0" fill-rule="evenodd" fill="#fff"/><path d="M232 164.6v-.5" transform="matrix(.02937 0 0 .02742 2.6 0)" fill="none" stroke-width="2.1" stroke="#000"/><path d="M235.2 241.8c-20-17.7-18.2-62.4-2.9-77.2" transform="matrix(.02937 0 0 .02742 2.6 0)" fill="none" stroke-width="2.1" stroke="#ba0000"/><path d="M9.8 4.2v.2h-.2v-.1h-.2l.2-.1V4l.1.1h.2" fill-rule="evenodd" fill="#ba0000"/><path d="M9.8 6.7s.2-1.5 1.9-1.8c.8 0 1.5.1 2 .7l.4.8a.8.8 0 00-.3-.1c-.2 0-.4 0-.5.2l-.6.4a1.1 1.1 0 01-1-.1l-.6-.5a.9.9 0 00-.6 0c-.4 0-.5.2-.7.4zm0 0" fill-rule="evenodd" fill="#fff"/><path d="M323 210.2h.3" transform="matrix(.02937 0 0 .02742 2.6 0)" fill="none" stroke-width="2.1" stroke="#000"/><path d="M250 236c11.2-24.4 54.4-35.8 73.1-25.6" transform="matrix(.02937 0 0 .02742 2.6 0)" fill="none" stroke-width="2.1" stroke="#ba0000"/><path d="M12.5 6l-.1.1V6l-.2-.1h.2v-.2l.1.1h.2l-.1.1v.2" fill-rule="evenodd" fill="#ba0000"/><path d="M10 6.8s1.6-.3 2.4 1c.3.8.3 1.4 0 2l-.8.7a.6.6 0 000-.3c0-.2-.2-.3-.3-.4a1.6 1.6 0 01-.6-.4 1 1 0 01-.2-1l.2-.6a.7.7 0 000-.6c-.3-.3-.5-.3-.7-.4zm0 0" fill-rule="evenodd" fill="#fff"/><path d="M306.5 310l.1.3" transform="matrix(.02937 0 0 .02742 2.6 0)" fill-rule="evenodd" fill="#ba0000" stroke-width="2.1" stroke="#000"/><path d="M259 249c26.6 2.9 51.1 40.2 47.4 61.3" transform="matrix(.02937 0 0 .02742 2.6 0)" fill="none" stroke-width="2.1" stroke="#ba0000"/><path d="M11.5 9l-.2-.1h.2v-.3l.1.2h.2-.1V9h-.1l-.1.1" fill-rule="evenodd" fill="#ba0000"/><path d="M10 7s.7 1.3-.5 2.4c-.7.5-1.3.7-2 .5a4.9 4.9 0 01-.9-.4.7.7 0 00.3 0c.2-.2.3-.3.3-.5 0-.3.1-.5.3-.7.2-.3.5-.5 1-.4H9a.8.8 0 00.6-.2c.2-.3.2-.5.2-.7zm0 0" fill-rule="evenodd" fill="#fff"/><path d="M205 325.3v.3" transform="matrix(.02937 0 0 .02742 2.6 0)" fill="none" stroke-width="2.1" stroke="#000"/><path d="M250.3 262.4c4.9 26.4-24.1 60.5-45.4 62.7" transform="matrix(.02937 0 0 .02742 2.6 0)" fill="none" stroke-width="2.1" stroke="#ba0000"/><path d="M8.2 9v-.3.2h.3l-.2.1.1.2-.1-.1-.2.1V9H8" fill-rule="evenodd" fill="#ba0000"/><path d="M9.7 7s-1 1-2.6.4C6.4 6.9 6 6.4 6 5.8l.2-1c0 .2 0 .2.2.3l.5.1a1.7 1.7 0 01.7 0c.4 0 .7.4.8.7.1.2 0 .4.2.6 0 .2.2.3.4.4.5.2.6 0 .8 0zm0 0" fill-rule="evenodd" fill="#fff"/><path d="M160.6 235.2v-.1" transform="matrix(.02937 0 0 .02742 2.6 0)" fill-rule="evenodd" fill="#ba0000" stroke-width="2.1" stroke="#000"/><path d="M235 256.9c-23.2 13.2-65-2.7-74.2-22" transform="matrix(.02937 0 0 .02742 2.6 0)" fill="none" stroke-width="2.1" stroke="#ba0000"/><path d="M7.2 6h.2l-.2.1.1.2H7v-.1L7 6H7v-.2" fill-rule="evenodd" fill="#ba0000"/></svg>