<svg xmlns="http://www.w3.org/2000/svg" width="20" height="14"><path fill="#006" d="M0 0h20v14H0z"/><path d="M0 0v.9l11.6 7h1.5v-.8L1.5 0zm13.1 0v.9l-11.6 7H0v-.8L11.6 0zm0 0" fill="#fff"/><path d="M5.5 0v8h2.1V0zM0 2.7v2.6h13.1V2.7zm0 0" fill="#fff"/><path d="M0 3.2v1.6h13.1V3.2zM5.9 0v8h1.3V0zM0 8l4.4-2.7h1L1 8zm0-8l4.4 2.7h-1L0 .6zm7.8 2.7L12 0h1L8.7 2.7zM13 8L8.7 5.3h1l3.4 2V8zm0 0" fill="#c00"/><path d="M4 12.1H3l.8-.4-.5-.7.8.3.3-.8.3.8.8-.3-.5.7.7.4H5v.8l-.5-.5-.6.5m11.6.1h-.6l.5-.3-.3-.5.5.2.2-.5.2.5.6-.2-.4.5.6.2-.6.1v.6l-.4-.4-.4.4m0-9h-.5l.5-.3-.3-.5.5.2.2-.5.2.5.6-.2-.4.5.6.3H16v.6l-.4-.4-.4.4M12 8h-.6l.5-.3-.3-.5.6.2.1-.5.2.5.6-.2-.3.5.5.3h-.6v.6l-.4-.4-.4.4m6.5-1.4h-.6l.5-.4-.3-.4.5.2.2-.6.2.6.6-.2-.4.4.5.3H19l.1.6-.4-.4-.4.4M17.6 9l-.3.2v.4l-.2-.2-.4.2.1-.3-.3-.3h.4l.2-.3.1.3" fill-rule="evenodd" fill="#fff"/></svg>