<svg xmlns="http://www.w3.org/2000/svg" width="20" height="14"><path fill="#171796" d="M0 0h20v14H0z"/><path d="M0 0h20v9.3H0zm0 0" fill="#fff"/><path d="M0 0h20v4.7H0zm10 10.6c1.6 0 3-1.2 3-2.7V4.7H7v3.2c0 1.5 1.4 2.7 3 2.7zm0 0" fill="red"/><path d="M10 10.6c1.6 0 2.9-1.2 2.9-2.7V4.7H7V8c0 1.5 1.3 2.7 2.9 2.7zm0 0" fill="#fff"/><path d="M8.3 4.8h-1V6h1zm0 2.3h1.1V5.9h-1zm-1 .8v.3h1V7.1h-1zm3.3-.8H9.5v1.1h1zm0 2.2h1V8.2h-1zm1 .7l.7-.7h-.6v.7zm-3.3-.7h1.1V8.2h-1zm-.6 0l.6.7v-.7zm2.5 1.2a2.7 2.7 0 00.4 0V9.2H9.4v1.1a2.8 2.8 0 00.8 0zm0 0M12.7 8.2V7.1h-1v1.1zm-2.1-1.1h1V5.9h-1zm0-2.3H9.5V6h1zM12.8 6V5h-1.2v1zm0 0" fill="red"/><path d="M12.8 4.6l.7-1.4-.5-.8-.9.3-.6-.6-.8.4-.7-.6-.7.6-.8-.4-.6.6-.9-.3-.5.8.7 1.4a7.1 7.1 0 012.8-.5c1 0 2 .2 2.8.5zm0 0" fill="#fff"/><path d="M8 2.8l-1-.3-.4.7.2.4.4 1 1.1-.4zm0 0" fill="#0093dd"/><path d="M251.4 119.3c1 2 1.6 4 1.6 6.2 0 7.4-6 13.3-13.4 13.3-6.3 0-11.8-4.6-13.1-10.8a13.4 13.4 0 0024.9-8.7zm0 0" transform="scale(.03125 .02917)" fill="#fff" stroke-width=".3" stroke="#000"/><path d="M7.1 3.3v-.2l.1-.2H7.5V3.2l-.1.2-.1-.1H7zm0 0"/><path d="M7.3 3.1l.1.1h.1zm0 0h.2zm-.3 0h.3-.1zm.3 0H7h.2zm0 0l.2-.1h-.2zm-.2.2l.2-.2H7zm.2-.2l-.2.2h.2zm.2-.1l-.2.1h.1zm-.2.1V3l-.1.1zm0 .3V3v.2zm0-.3v.3l.1-.2zm0-.2v.2V3zm0 0" fill="#f7db17"/><path d="M9.3 2.5l-.8-.4-.6.7.4 1.4A7.8 7.8 0 019.4 4zm0 0" fill="#171796"/><path d="M8.2 3.9l1.2-.2v-.4a8.1 8.1 0 00-1.3.2zM8 3A8.8 8.8 0 019.3 3v-.3c-.5 0-1 0-1.4.2zm0 0" fill="red"/><path d="M10.7 2.5L10 2l-.7.6.1 1.4a9 9 0 011.2 0l.1-1.4zm0 0" fill="#0093dd"/><path d="M10 3.2v.1h-.1-.1V3.7a.1.1 0 000 .1.1.1 0 00.1 0v.1H10.3v-.1-.1-.1a.1.1 0 000-.1v-.1H10zm0 0"/><path d="M10.2 3.3zm-.4 0zm.4 0zm-.3 0zm.3 0a1.2 1.2 0 00-.2 0h-.2.4zm0 0M9.8 3.4h.4v-.1H10 10h-.2zm.4 0h-.4v.2h.1v.1h.2a.1.1 0 00.1 0v-.1-.1-.1zm0 0" fill="#f7db17"/><path d="M10.2 3.4a2 2 0 00-.3 0H10.2zm0 0" fill="#f7db17"/><path d="M9.9 3.4H10.2a2.3 2.3 0 00-.2 0h-.2zm.2 0zm0 0zm-.1 0zm0 0zm0 0zm0 0zm0 0" fill-rule="evenodd" fill="#f7db17"/><path d="M10 3.3zm0 0zm0 .4zm0 0zm0 0zm0 0zm0 0v-.1zm0 0zm0-.2zm0 0zm0 0zm0 0h-.1.1zm0 0zm0 0h.1zm0 0zm0 0"/><path d="M10 3.5zm0 0zm0 0zm0 0zm0 0zm0 0zm0 0" fill-rule="evenodd"/><path d="M9.7 2.5v.1h-.1-.1v.1a.1.1 0 000 .1V3h.1v.1H10V3v-.1a.1.1 0 000-.2v-.1h-.1-.1zm0 0"/><path d="M9.9 2.6zm-.4 0zm.3 0v.1zm-.3.1zm.4 0h-.2a2.6 2.6 0 00-.2 0h.4zm0 0" fill="#f7db17"/><path d="M9.5 2.7a2.6 2.6 0 01.4 0v-.1h-.2-.1-.1zm.3 0h-.1-.1-.1V3h.1v.1h.2V3a.1.1 0 00.1 0v-.1-.1zm0 0" fill="#f7db17"/><path d="M9.8 2.7h-.1a2.6 2.6 0 00-.2 0 .9.9 0 01.2 0 1 1 0 01.1 0zm0 0" fill="#f7db17"/><path d="M9.5 2.7H9.7h-.2zm.3 0zm0 0zm-.1 0zm0 0zm-.1 0zm0 0zm0 0" fill-rule="evenodd" fill="#f7db17"/><path d="M9.7 2.6zm0 0zm0 .4zm0 0zm0 0zm0 0zm0 0zm0 0zm0-.2zm0 0h-.1zm0 0zm0 0h-.1zm0 0zm0 0h0zm0 0zm0 0"/><path d="M9.8 2.8zm0 0zm0 0zm-.2 0zm0 0zm0 0zm0 0" fill-rule="evenodd"/><path d="M10.3 2.5v.1H10V3a.1.1 0 00.1 0v.1H10.6V3v-.1a.1.1 0 000-.2v-.1h-.1zm0 0"/><path d="M10.5 2.6zm-.4 0zm.4.1zm-.3 0zm.3 0h-.2-.1a1.1 1.1 0 01.1 0h.2zm0 0" fill="#f7db17"/><path d="M10.2 2.7H10.5v-.1h-.1a.5.5 0 00-.1 0h-.1zm.3 0H10.1 10V3h.1v.1h.2V3h.1c0-.1 0 0 0 0v-.1a.1.1 0 000-.2v.1zm0 0" fill="#f7db17"/><path d="M10.5 2.7a1 1 0 00-.2 0h-.1H10.5zm0 0" fill="#f7db17"/><path d="M10.2 2.7a1 1 0 01.1 0h.2a1 1 0 00-.2 0 1.1 1.1 0 00-.1 0zm.2 0zm0 0zm0 0zm0 0zm-.2 0zm0 0zm0 0" fill-rule="evenodd" fill="#f7db17"/><path d="M10.3 2.6zm0 0zm0 .4zm0 0zm0 0zm0 0zm0 0zm0 0zm0-.2h.1zm0 0zm0 0zm0 0h-.1.1c.1 0 0 0 0 0zm0 0zm0 0h.1zm.1 0zm0 0"/><path d="M10.4 2.8zm0 0zm0 0zm-.1 0zm0 0zm0 0zm0 0" fill-rule="evenodd"/><path d="M12.1 2.8l-.6-.7-.8.5-.1 1.4 1.1.2zm0 0" fill="#171796"/><path d="M10.9 2.9h.1a.2.2 0 01.1-.1H11.4c0 .1.1.1.2 0V3h-.3a.4.4 0 01.1 0 .4.4 0 00.1.1.3.3 0 00.2 0 .1.1 0 01-.1 0 .3.3 0 01-.2 0 .3.3 0 00-.2 0H11v.1h.2v.1h.4V3.6h-.1v.1a.2.2 0 01-.1.1l-.1.1h-.1l.1-.1v-.1h-.1v.1h-.1v-.1H11v.1H11v-.1-.1.1h-.1v-.1-.2-.1V3 3v-.1zm0 0"/><path d="M11.4 3.6h-.1v.1h-.1v-.1l.1-.1zm0 0" fill="#f7db17"/><path d="M11 3.3v.2a.1.1 0 01-.1.1v-.1h.1v-.1V3.8v-.1h.1v-.1h.2v-.1.1h.1v.2c0 .1 0 .1 0 0a.3.3 0 00.1 0v-.1c.1 0 0 0 0 0h.1V3.2h.1-.1-.2a.1.1 0 000-.1h-.1-.1V3H11V3h0v-.1h.1-.1-.1.1-.1-.1v.2h.1v.1h-.1v.1zm0 0" fill="#f7db17"/><path d="M11 3h-.1v-.1zm0 0" fill="#f7db17"/><path d="M11.4 3.5zm0 .2zm.1 0zm0 0zm0-.1zm0 0zm0-.2zm0 0zm0 0a.1.1 0 010 .1zm0 0v.1zm0 0v.1zm0 0zm0 0zm0 0zm0-.1v0zm.2 0zm0 0zm-.1 0zm-.2 0zm0 0zm.1 0zm0 0zm-.1 0zm0 0v.1zm0 0v.1zm0 0zm0 0M11.3 3.3v.1zm.1.1zm0 0zm0 0zm.1.1zm0 0zm0 0zm0 0zm-.1 0zm-.2.2zm0 0zm0 0zm.1-.2zm0-.3zm0 0zm0 0zm0 .1zm0 0zm0 .1zm0 0zm0 0zm0 0zm-.1 0zm-.1 0zm0 0v.1zm0 .2zm0 0zm0 0zm-.1-.1zm0 0zm0-.1h.1zm0 0zm0 0zm0 0zm.2-.3zm0 0v.1zm-.2 0v.1zm.1 0zm0 0H11v.1zm0 0zm0 0v.1zm0 0zm.1.2zm0 0zm0 0zm0 0v.1zm-.1 0zm0 0zm0 0zm0 0H11zm-.1 0zm.1 0zm0 0zm.1-.1zm0 0zm-.2 0v.1zm0 0zm0 0zm.1 0v0zM11 3zm0 0M11 3zm0 0zm.2 0zM11 3zm0 0zM11 3zm0 0zm0 0zm0 0zm0 0zm0 0zm0 0zm0 0zm0 0zm0 0zm0 0zm0-.1zm0 .2zm0 0zm0 0zm0 0zm0 0zm0 0zm.7.1zm-.8.4zm0 0"/><path d="M11.5 3zm0-.1zm-.3 0h.2-.1a.1.1 0 00-.1 0zm0 0" fill="red"/><path d="M11 2.8a.2.2 0 01.1 0zm.3.1a.4.4 0 00-.1 0h.1zm0 0M11.4 3zm0 0M11.4 3zm0 0M11.5 3zm0 0M11.7 3h-.2.1zm-.3.7v.1zm-.5-.1zm.3.1zm-.2 0zm0-.8h.2-.1-.1zm0 0h.1-.1zm0 0" fill="red"/><path d="M12.8 4.6l.6-1.4-.4-.7-.9.3-.4 1.4 1 .4zm0 0" fill="#0093dd"/><path d="M12 3.3l1.2.4-.3.5a7.8 7.8 0 00-1-.3zm0 0" fill="#fff"/><path d="M13 4.1l.1-.3-1.2-.4v.4l1 .3zm0 0" fill="red"/><path d="M12 3.7h.1v-.1H12v-.1h.1l.1.1a.4.4 0 01.2 0h.1a.3.3 0 01.2.1.2.2 0 01.1 0 .3.3 0 01.1 0l.1.1h-.2V4a.5.5 0 00-.1-.1h-.2c-.1 0-.1 0 0 0a.1.1 0 010-.1h-.1-.1-.1v-.1H12 12zm0 0"/><path d="M12.5 3.8h-.1.1zm0 0" fill="#fff"/><path d="M12.6 2.8V3h-.1.2v.2h.2V3h.1l-.1-.1v-.2l-.2.1h-.1zm0 0"/><path d="M12.5 3H12.8zm.3 0v-.1h.2zm.2 0h-.2zm-.2 0H12.5zm-.2-.2h.1V3zm.2.2h.1v.1zm.1.1l-.1-.1zm-.1-.1h-.2v-.2zm0-.3V3zm0 .3V3h-.1zm-.1.2V3zm0-.2v-.2h.2zm0 0" fill="#f7db17"/></svg>