<svg xmlns="http://www.w3.org/2000/svg" width="20" height="14"><path fill="#d21034" d="M0 0h20v14H0z"/><path d="M0 0h20v7H0zm0 0" fill="#00209f"/><path d="M7.6 5.2h4.8v3.6H7.6zm0 0" fill="#fff"/><path d="M350.5 266.8l-31 1-30.8.3s-15.7 5.8-22.2 7.1c-6.4 1.4-5.6 3.4-10.5 4.6-4 1-4.5 1-6.8 1.3-1.4 0-3.2 1.2-5 2.4v16.6h151.6v-15.8a25 25 0 00-5-2c-2-.8-3.6-1.6-7.6-2.5-5-1.1-4.2-3.2-10.6-4.6-6.5-1.3-22.1-8.4-22.1-8.4zm0 0" transform="scale(.03125 .02917)" fill="#016a16" stroke-width=".3" stroke="#016a16"/><path d="M244.5 143.5h1.4l2.6 10.7-.6 3.4-3.4-14zm0 0" transform="matrix(.05 0 0 .04667 -2.5 0)" fill="#f1b517" stroke-width=".2" stroke="#000"/><path d="M243 136.3l1 8.3h1l-2-8.2zm0 0" transform="matrix(.05 0 0 .04667 -2.5 0)" fill="#fff" stroke-width=".2" stroke="#000"/><path d="M245.7 154.6l-4.3-11.5 1.6-.1 5 14zm0 0" transform="matrix(.05 0 0 .04667 -2.5 0)" fill="#f1b517" stroke-width=".2" stroke="#000"/><path d="M239.4 136.5l1.8 8h1.4zm0 0" transform="matrix(.05 0 0 .04667 -2.5 0)" fill="#fff" stroke-width=".2" stroke="#000"/><path d="M241.9 150.6l-2.5-5.5 1-.2 4.7 9zm0 0" transform="matrix(.05 0 0 .04667 -2.5 0)" fill="#f1b517" stroke-width=".2" stroke="#000"/><path d="M236 138.8l3 7.6h1.3l-4.2-7.6zm0 0" transform="matrix(.05 0 0 .04667 -2.5 0)" fill="#fff" stroke-width=".2" stroke="#000"/><path d="M242.3 151.4L230.8 139c-3.6 2.8-3 8-3 8l13.1 10.2 1.3-5.7zm0 0" transform="matrix(.05 0 0 .04667 -2.5 0)" fill="#0a328c" stroke-width=".2" stroke="#000"/><path d="M249 158.2l-8.6-8.6c-3.6.2-.8 5.5-.6 6.2l9 7.7v-5.3zm0 0" transform="matrix(.05 0 0 .04667 -2.5 0)" fill="#d20014" stroke-width=".2" stroke="#000"/><path d="M248.1 156.8L230.6 138l-.7.5 18.6 20.6zm-18.5-20l-.4-.5v-.9l-3.6-2.3 1.6 3.7 1.3.2.3.4zm0 0" transform="matrix(.05 0 0 .04667 -2.5 0)" fill="#f1b517" stroke-width=".2" stroke="#000"/><path d="M227.7 138.1a7.6 7.6 0 012.7-2.2l1 1.5-2.2 1.8-1.5-1zm0 0" transform="matrix(.05 0 0 .04667 -2.5 0)" fill="#f1b517" stroke-width=".2" stroke="#000"/><path d="M225.8 141.3l.6 1c.4 0 4-3.5 4-3.5h2.7l.7-1c-2-1.9-3.7.4-3.7.4l-4.3 3zm0 0" transform="matrix(.05 0 0 .04667 -2.5 0)" fill="#0a328c" stroke-width=".2" stroke="#0a328c"/><path d="M228 143c0-1 1.8-3.2 2-3.3 1.3.4 2.5 1.2 4-1.8-1.3 1.4-3.6 0-3.6 0l-1 .8v.4l-3 2.8 1.5 1zm0 0" transform="matrix(.05 0 0 .04667 -2.5 0)" fill="#d20014" stroke-width=".2" stroke="#d20014"/><path d="M237.3 154.7l-14.4-11.4c-2.5 2.5-.4 10.2-.4 10.2l14 7.6.7-6.4zm0 0" transform="matrix(.05 0 0 .04667 -2.5 0)" fill="#0a328c" stroke-width=".2" stroke="#000"/><path d="M249.2 164l-12-9.6c-4 .6-.7 6.5-.5 7.2l12.5 6.8V164zm0 0" transform="matrix(.05 0 0 .04667 -2.5 0)" fill="#d20014" stroke-width=".2" stroke="#000"/><path d="M248.7 162L223 142.8l-.5.6 26.8 21zm-26.8-20.2l-.4-.4-.2-.8-4-1.7 2.3 3.3h1.3l.4.4zm0 0" transform="matrix(.05 0 0 .04667 -2.5 0)" fill="#f1b517" stroke-width=".2" stroke="#000"/><path d="M220.3 143.4c.6-1 1.3-2 2.3-2.6l1.2 1.3-1.8 2.1zm0 0" transform="matrix(.05 0 0 .04667 -2.5 0)" fill="#f1b517" stroke-width=".2" stroke="#000"/><path d="M219 146.6v1.1c.4-.2 3.7-3.7 3.7-3.7l2.5-.5.6-.8c-1.8-2-3.7.7-3.7.7l-3.2 3.2zm0 0" transform="matrix(.05 0 0 .04667 -2.5 0)" fill="#0a328c" stroke-width=".2" stroke="#0a328c"/><path d="M221 148.5c-.2-1 1.2-3.8 1.4-4 1.6.5 3 1.2 3.5-2-1 1.6-3.5.4-3.5.4l-.8 1v.5l-2.5 3.3zm0 0" transform="matrix(.05 0 0 .04667 -2.5 0)" fill="#d20014" stroke-width=".2" stroke="#d20014"/><path d="M236.2 161.7l-18.5-10.5c-1.3 2.3-.1 5.5.5 6 0 1.5-.6 2.3.7 5.5.4 2 1.3 3.9 2.7 5 1.6 6.4 8.2 7 10.7 1.6l4-7.6zm0 0" transform="matrix(.05 0 0 .04667 -2.5 0)" fill="#0a328c" stroke-width=".2" stroke="#000"/><path d="M248.3 168.5l-12.5-7.3c-4 .5 0 8 .3 8.7l12.2 4.3zm0 0" transform="matrix(.05 0 0 .04667 -2.5 0)" fill="#d20014" stroke-width=".2" stroke="#000"/><path d="M246.2 165.8l-28.3-15-.5.6 30 16.7zM216.5 150l-.5-.3-.3-.8-4.1-1 2.7 3 1.2-.3.6.3zm0 0" transform="matrix(.05 0 0 .04667 -2.5 0)" fill="#f1b517" stroke-width=".2" stroke="#000"/><path d="M215.2 151.8c.4-1 .8-1.9 1.8-3l1.4 1.1-1.4 2.4zm0 0" transform="matrix(.05 0 0 .04667 -2.5 0)" fill="#f1b517" stroke-width=".2" stroke="#000"/><path d="M214 155.2l.7 1.2 3-4.6 2.5-.9.5-1c-2-1.8-3.5 1.4-3.5 1.4zm0 0" transform="matrix(.05 0 0 .04667 -2.5 0)" fill="#0a328c" stroke-width=".2" stroke="#0a328c"/><path d="M216.8 156.8c-.2-1 .5-4.2.7-4.3 1.5.5 2.8.6 3.2-2.6-1 1.5-3.3 1-3.3 1l-.7 1 .1.4-2 4zm0 0" transform="matrix(.05 0 0 .04667 -2.5 0)" fill="#d20014" stroke-width=".2" stroke="#d20014"/><path d="M244.5 143.5h1.4l2.6 10.7-.6 3.4-3.4-14zm0 0" transform="matrix(-.05 0 0 .04667 22.5 0)" fill="#f1b517" stroke-width=".2" stroke="#000"/><path d="M243 136.3l1 8.3h1l-2-8.2zm0 0" transform="matrix(-.05 0 0 .04667 22.5 0)" fill="#fff" stroke-width=".2" stroke="#000"/><path d="M245.7 154.6l-4.3-11.5 1.6-.1 5 14zm0 0" transform="matrix(-.05 0 0 .04667 22.5 0)" fill="#f1b517" stroke-width=".2" stroke="#000"/><path d="M239.4 136.5l1.8 8h1.4zm0 0" transform="matrix(-.05 0 0 .04667 22.5 0)" fill="#fff" stroke-width=".2" stroke="#000"/><path d="M242 150.6l-2.6-5.5 1-.2 4.7 9zm0 0" transform="matrix(-.05 0 0 .04667 22.5 0)" fill="#f1b517" stroke-width=".2" stroke="#000"/><path d="M236 138.8l2.9 7.6h1.4l-4.2-7.6zm0 0" transform="matrix(-.05 0 0 .04667 22.5 0)" fill="#fff" stroke-width=".2" stroke="#000"/><path d="M242.3 151.4L230.8 139c-3.6 2.8-3 8-3 8l13.1 10.2 1.3-5.7zm0 0" transform="matrix(-.05 0 0 .04667 22.5 0)" fill="#0a328c" stroke-width=".2" stroke="#000"/><path d="M248.9 158.2l-8.5-8.6c-3.6.2-.8 5.5-.6 6.2l9 7.7v-5.3zm0 0" transform="matrix(-.05 0 0 .04667 22.5 0)" fill="#d20014" stroke-width=".2" stroke="#000"/><path d="M248.1 156.8L230.6 138l-.7.5 18.6 20.6zm-18.5-20l-.4-.5v-.9l-3.6-2.3 1.6 3.7 1.3.2.3.4zm0 0" transform="matrix(-.05 0 0 .04667 22.5 0)" fill="#f1b517" stroke-width=".2" stroke="#000"/><path d="M227.7 138.1a7.6 7.6 0 012.7-2.2l1 1.5-2.2 1.8-1.5-1zm0 0" transform="matrix(-.05 0 0 .04667 22.5 0)" fill="#f1b517" stroke-width=".2" stroke="#000"/><path d="M225.8 141.3l.6 1c.4 0 4-3.5 4-3.5h2.7l.7-1c-2-1.9-3.7.4-3.7.4l-4.3 3zm0 0" transform="matrix(-.05 0 0 .04667 22.5 0)" fill="#0a328c" stroke-width=".2" stroke="#0a328c"/><path d="M228 143c0-1 1.8-3.2 2-3.3 1.3.4 2.5 1.2 3.9-1.8-1.2 1.4-3.5 0-3.5 0l-1 .8v.4l-3 2.8 1.5 1zm0 0" transform="matrix(-.05 0 0 .04667 22.5 0)" fill="#d20014" stroke-width=".2" stroke="#d20014"/><path d="M237.3 154.7L223 143.3c-2.5 2.5-.4 10.2-.4 10.2l14 7.6.7-6.4zm0 0" transform="matrix(-.05 0 0 .04667 22.5 0)" fill="#0a328c" stroke-width=".2" stroke="#000"/><path d="M249.2 164l-11.9-9.6c-4 .6-.8 6.5-.6 7.2l12.5 6.8V164zm0 0" transform="matrix(-.05 0 0 .04667 22.5 0)" fill="#d20014" stroke-width=".2" stroke="#000"/><path d="M248.7 162l-25.6-19.2-.5.6 26.8 21zM222 141.8l-.4-.4-.2-.8-4-1.7 2.3 3.3h1.3l.4.4zm0 0" transform="matrix(-.05 0 0 .04667 22.5 0)" fill="#f1b517" stroke-width=".2" stroke="#000"/><path d="M220.3 143.4c.5-1 1.3-2 2.3-2.6l1.2 1.3-1.8 2.1zm0 0" transform="matrix(-.05 0 0 .04667 22.5 0)" fill="#f1b517" stroke-width=".2" stroke="#000"/><path d="M219 146.6v1.1a60 60 0 003.7-3.7l2.5-.5.6-.8c-1.8-2-3.7.7-3.7.7l-3.2 3.2zm0 0" transform="matrix(-.05 0 0 .04667 22.5 0)" fill="#0a328c" stroke-width=".2" stroke="#0a328c"/><path d="M221 148.5c-.2-1 1.2-3.8 1.4-4 1.6.5 3 1.2 3.5-2-1 1.6-3.5.4-3.5.4l-.8 1v.5l-2.5 3.3zm0 0" transform="matrix(-.05 0 0 .04667 22.5 0)" fill="#d20014" stroke-width=".2" stroke="#d20014"/><path d="M236.2 161.7l-18.5-10.5c-1.3 2.3 0 5.5.5 6 0 1.5-.6 2.3.7 5.5.4 2 1.3 3.9 2.7 5 1.6 6.4 8.2 7 10.7 1.6l4-7.6zm0 0" transform="matrix(-.05 0 0 .04667 22.5 0)" fill="#0a328c" stroke-width=".2" stroke="#000"/><path d="M248.3 168.5l-12.5-7.3c-4 .5 0 8 .3 8.7l12.2 4.3zm0 0" transform="matrix(-.05 0 0 .04667 22.5 0)" fill="#d20014" stroke-width=".2" stroke="#000"/><path d="M246.2 165.8l-28.3-15-.5.6 30 16.7zM216.5 150l-.5-.3-.3-.8-4-1 2.6 3 1.2-.3.6.3zm0 0" transform="matrix(-.05 0 0 .04667 22.5 0)" fill="#f1b517" stroke-width=".2" stroke="#000"/><path d="M215.2 151.8c.4-1 .8-1.9 1.8-3l1.4 1.1-1.4 2.4zm0 0" transform="matrix(-.05 0 0 .04667 22.5 0)" fill="#f1b517" stroke-width=".2" stroke="#000"/><path d="M214.1 155.2l.6 1.2 3-4.6 2.5-.9.5-1c-2-1.8-3.5 1.4-3.5 1.4zm0 0" transform="matrix(-.05 0 0 .04667 22.5 0)" fill="#0a328c" stroke-width=".2" stroke="#0a328c"/><path d="M216.8 156.8c-.2-1 .5-4.2.7-4.3 1.5.5 2.8.6 3.2-2.6-1 1.5-3.3 1-3.3 1l-.7 1v.4l-1.9 4zm0 0" transform="matrix(-.05 0 0 .04667 22.5 0)" fill="#d20014" stroke-width=".2" stroke="#d20014"/><path d="M248.8 125.6l-.5 9h2.9l-.4-9 3-.3-.3-3.6-7.5.3v3.2zm0 0" transform="matrix(.05 0 0 .04667 -2.5 0)" fill="#016a16" stroke-width=".2" stroke="#016a16"/><path d="M249.8 121.9c-7.8-7.8-13.9-4-15.3-2.9 1 .2 1.8-.4 2.3-.5l-1 1.2s2.5-1 2.8-1c-.4.3-.8 1-.8 1l1.8-1c-.4.3-.5 1.4-.5 1.4l1.2-.5c.3.2 0 .6 0 .6 2.1-.2 4.8 1.7 5 2.3" transform="matrix(.05 0 0 .04667 -2.5 0)" fill="#016a16" stroke-width=".2" stroke="#000"/><path d="M247.9 123.3c-.8-1.8-15.6-5-18.6.3 1.2.3 2.3-1 2.3-1v1.2l2-1.6-.8 1.6 1.5-1.3v1.3l2-2-.3 1 1.7-.6-.2 1" transform="matrix(.05 0 0 .04667 -2.5 0)" fill="#016a16" stroke-width=".2" stroke="#000"/><path d="M247.2 123.6c-3.8-2.5-9.6-.8-9.6-.8-3.8 2-5.8 1.7-6.2 5.6.3 0 1.3-1.4 1.3-1.4l.8 1.5.2-2.1.6 1.7 1-2.8.2 2 1.4-2 .6.6.6-1.5.6 1s1-.6 1.5-.3l1-1.2.3.9 1-1 .3.7.9-.8v.6h3" transform="matrix(.05 0 0 .04667 -2.5 0)" fill="#016a16" stroke-width=".2" stroke="#000"/><path d="M246.4 124c-2.7 0-10.3 2.9-12.2 5.8l1.3-.6.3 1.2.5-1.2.1 1c.3-.8.6-.8 1.2-.1l.2-1.1.3 1 .5-1s.3 1 .5 1c0 0 .8-2.1 1.2-2.2v1.4l.6-1.4.5 1v-1.4l.6 1s.2-1 .6-1.2l.8.7 3.4-2.5" transform="matrix(.05 0 0 .04667 -2.5 0)" fill="#016a16" stroke-width=".2" stroke="#000"/><path d="M246.9 124.7c-3.5 1.3-6.7 6.2-6.4 8.2 1.5-2 1.2-1.7 2 .6 0 0 0-2 .4-2.2l.5 1.4.1-1.9h.5v-1.1l.6.5c-.2-.7-.3-.9.4-1.5 0 0-1 .1-.2-1.5l.7.6s-.2-.7 0-1l2.6-.8" transform="matrix(.05 0 0 .04667 -2.5 0)" fill="#016a16" stroke-width=".2" stroke="#000"/><path d="M247.2 125l-1.3 2.6.7.2-1.6 1.1h1.3s-2 .6-2.2 2.6l2-1s-1.7 1.8-2 3l1.3-1s-1.2 1-1 3l1-1c-.3 2.2-.3 2.4.7 4.1 0 0-.2-2.6 0-3l2.3 2.4-1.2-3.3s1.4 2 2.2 2l-1.8-2.8 1.8 1.4-2-3 1.8.6s-1.3-1.7-1.2-2.8l1.3 1.4s-.5-1.5-.4-2h.7l-1.3-1.3 1-.2-.2-1 .6-.1v-1m-1.1 0c-2.2 3-1.1 7.4-2.4 9.8" transform="matrix(.05 0 0 .04667 -2.5 0)" fill="#016a16" stroke-width=".2" stroke="#000"/><path d="M249.8 121.9c-7.8-7.8-13.9-4-15.3-2.9 1 .2 1.8-.4 2.3-.5l-1 1.2 2.8-1c-.4.3-.8 1-.8 1l1.8-1c-.4.3-.5 1.4-.5 1.4l1.2-.5c.3.2 0 .6 0 .6 2.1-.2 4.8 1.7 5 2.3" transform="matrix(-.05 0 0 .04667 22.5 0)" fill="#016a16" stroke-width=".2" stroke="#000"/><path d="M247.9 123.3c-.8-1.8-15.6-5-18.6.3 1.2.3 2.3-1 2.3-1v1.2l1.9-1.6-.7 1.6 1.5-1.3v1.3l2-2-.3 1 1.7-.6-.2 1" transform="matrix(-.05 0 0 .04667 22.5 0)" fill="#016a16" stroke-width=".2" stroke="#000"/><path d="M247.2 123.6c-3.8-2.5-9.6-.8-9.6-.8-3.8 2-5.8 1.7-6.2 5.6.3 0 1.3-1.4 1.3-1.4l.8 1.5.2-2.1.6 1.7 1-2.8.2 2 1.4-2 .6.6.6-1.5.6 1s1-.6 1.5-.3l1-1.2.3.9 1-1 .3.7 1-.8v.6h2.9" transform="matrix(-.05 0 0 .04667 22.5 0)" fill="#016a16" stroke-width=".2" stroke="#000"/><path d="M246.4 124c-2.7 0-10.3 2.9-12.2 5.8l1.3-.6.3 1.2.5-1.2v1c.4-.8.7-.8 1.3-.1l.2-1.1.3 1 .5-1s.3 1 .5 1c0 0 .8-2.1 1.2-2.2v1.4l.6-1.4.5 1v-1.4l.6 1s.2-1 .6-1.2l.8.7 3.4-2.5" transform="matrix(-.05 0 0 .04667 22.5 0)" fill="#016a16" stroke-width=".2" stroke="#000"/><path d="M247 124.7c-3.6 1.3-6.8 6.2-6.5 8.2 1.5-2 1.2-1.7 1.9.6 0 0 .2-2 .5-2.2l.5 1.4v-1.9h.6l-.1-1.1.7.5c-.2-.7-.3-.9.4-1.5 0 0-1 .1-.2-1.5l.7.6s-.2-.7 0-1l2.6-.8" transform="matrix(-.05 0 0 .04667 22.5 0)" fill="#016a16" stroke-width=".2" stroke="#000"/><path d="M247.2 125l-1.3 2.6.7.2-1.6 1.1h1.3s-2 .6-2.2 2.6l2-1s-1.7 1.8-2 3l1.3-1s-1.2 1-1 3l.9-1c-.2 2.2-.2 2.4.8 4.1 0 0-.2-2.6 0-3l2.3 2.4-1.2-3.3s1.4 2 2.2 2l-1.8-2.8 1.8 1.4-2-3 1.8.6s-1.3-1.7-1.2-2.8l1.3 1.4s-.5-1.5-.4-2h.7l-1.3-1.3.9-.2v-1l.5-.1v-1m-1.1 0c-2.2 3-1.1 7.4-2.4 9.8" transform="matrix(-.05 0 0 .04667 22.5 0)" fill="#016a16" stroke-width=".2" stroke="#000"/><path d="M251 166.5s1.1-10 1.1-14.2c0-3.4-.8-10.8-.8-10.8H248s-.5 7.4-.4 10.8c0 4.2 1 14.2 1 14.2zm0 0" transform="matrix(.05 0 0 .04667 -2.5 0)" fill="#f1b517" stroke-width=".2" stroke="#000"/><path d="M247.7 142h4l-.5-2.7h-3l-.5 2.6zm0 0" transform="matrix(.05 0 0 .04667 -2.5 0)" fill="#f1b517" stroke-width=".2" stroke="#000"/><path d="M248 139.8h3.5l-.7-2.7h-2.2l-.7 2.7zm0 0" transform="matrix(.05 0 0 .04667 -2.5 0)" fill="#f1b517" stroke-width=".2" stroke="#000"/><path d="M248.2 137.7h3l-.6-2.7h-2zm0 0" transform="matrix(.05 0 0 .04667 -2.5 0)" fill="#f1b517" stroke-width=".2" stroke="#000"/><path d="M250.7 134.7h-2l-.3 1h2.5zm.4 29.7h-2.6m2.8-2h-3m3.4-2H248m4-2.1h-4m4-2.2h-4m4.1-2h-4.4m4.4-1.7h-4.6m4.6-2.2h-4.6m4.5-2.1h-4.5m4.3-2.2h-4.1m3.9-2h-3.7" transform="matrix(.05 0 0 .04667 -2.5 0)" fill="#f1b517" stroke-width=".2" stroke="#000"/><path d="M250 119c-.8-.3-2.3-1.3-1.9-1.9l.7-1.2c1-2.2 0-1.4 0-2-.2-.8 3.8-.2 3.8 1.3 0 .5-.3.2-.2 2.6l-.8 1.5c-.6 0-1.1 0-1.7-.2zm0 0" transform="matrix(.05 0 0 .04667 -2.5 0)" fill="#0a328c" stroke-width=".2" stroke="#0a328c"/><path d="M250.4 125l-1-.9.3-7 1 .2-.3 7.6zm0 0" transform="matrix(.05 0 0 .04667 -2.5 0)" fill="#f1b517" stroke-width=".2" stroke="#000"/><path d="M251.7 119.3c.6-.4 1-1.5.6-2.1-1-1.3-1.7-.8-3.4-1.4-.3.4-1 1-1 1.6 2.4 1 1.5.2 2.3.3.4 0 .6.5 1.5 1.5zm0 0" transform="matrix(.05 0 0 .04667 -2.5 0)" fill="#d20014" stroke-width=".2" stroke="#d20014"/><path d="M238.5 160.1c-.2.5-1 1-2 1s-1.7-.5-2-1v.4c0 .7.9 1.2 2 1.2 1.2 0 2-.5 2-1.2.2-.1.2-.2 0-.4zm0 0" transform="matrix(.05 0 0 -.04667 -2.5 15)" fill="#016a16" stroke-width=".2" stroke-linecap="round" stroke="#fff"/><path d="M238.4 161.8c0 1.2-.9 2.3-2 2.3-1 0-1.7-1-1.7-2.4v-1.2h3.7zm0 0" transform="matrix(.05 0 0 .04667 -2.5 0)" fill="#016a16" stroke-width=".2" stroke-linecap="round" stroke="#fff"/><path d="M9.4 7.5h-.2.2zm0 0" fill="#fff"/><path d="M236 161l-.2-3.2h1.4l-.2 3.3h-1zm0 0" transform="matrix(.05 0 0 .04667 -2.5 0)" fill="#016a16" stroke-width=".2" stroke="#f1b517"/><path d="M238.5 160.1c-.2.5-1 .9-2 .9s-1.7-.4-2-.9v.4c0 .7.9 1.2 2 1.2 1.2 0 2-.5 2-1.2.2-.1.2-.3 0-.4zm0 0" transform="matrix(.05 0 0 .04667 -2.5 0)" fill="#016a16" stroke-width=".2" stroke-linecap="round" stroke="#fff"/><path d="M246 172.8l-7-2.2-3-5.3-11-.5.4 4 9.3 1.7.8 1.6 10.7 3zm0 0" transform="matrix(.05 0 0 .04667 -2.5 0)" fill="#f1b517" stroke-width=".2" stroke="#000"/><path d="M238.7 174.3l-11.2-16.5-.5.5 11 16.4zm0 0" transform="matrix(.05 0 0 .04667 -2.5 0)" fill="#503200" stroke-width=".2" stroke="#000"/><path d="M228.6 158.5l-1.2-2c-.3-.4-.6-.5-1-.2-.6.2-.5.7-.3 1l1 2zm0 0" transform="matrix(.05 0 0 .04667 -2.5 0)" fill="#fff" stroke-width=".2" stroke="#000"/><path d="M240 164l-22.5-2.2-.6 3.3 22.4 2.3zm0 0" transform="matrix(.05 0 0 .04667 -2.5 0)" fill="#f1b517" stroke-width=".2" stroke="#000"/><path d="M217 161l-.5 4.5h1l.6-4.1-1-.4zm3.8.7l-.2 4.1h.6l.5-3.5-.8-.6zm15.3 1.8l-.6 3.8h1l.6-3.8zm3.3 0l-.7 4.5 1.2.2.4-2.3c0 .5.5.8 1 .8.6 0 1-.5 1-1 0-.6-.4-1-1-1-.4 0-.8.2-1 .6l.3-1.6zm-8 .8l-3.2 3.5.4.4 4-2.7-1.3-1.2zM224 173l3.1-3.5-.3-.4-4 2.7zm8.1-.9l-3.7-3-.4.4 3 3.8zm-9.3-6.7l4 2.8.3-.3-3-3.8zm4.2-2.3l.4 4.6h.5l1.2-4.5zm1.2 11l-.3-4.5h-.6l-.7 4.6h1.6zm5-6l-4.7.4v.5l4.8.6V168zm-11.3 1.5l4.7-.7v-.4l-4.8-.5v1.6zm0 0" transform="matrix(.05 0 0 .04667 -2.5 0)" fill="#f1b517" stroke-width=".2" stroke="#000"/><path d="M229 168.6a1.3 1.3 0 01-1.3 1.2c-.7 0-1.3-.5-1.3-1.2s.6-1.2 1.3-1.2c.7 0 1.3.5 1.3 1.2zm0 0" transform="matrix(.05 0 0 .04667 -2.5 0)" fill="#f1b517" stroke-width=".2" stroke="#000"/><path d="M234.4 168.6c0 3.5-3 6.5-6.7 6.5a6.6 6.6 0 01-6.7-6.5c0-3.6 3-6.5 6.7-6.5 3.6 0 6.7 2.9 6.7 6.5zm-1.3 0c0 3-2.5 5.3-5.4 5.2a5 5 0 01-3.8-1.5c-1-1-1.6-2.4-1.6-3.8a5.4 5.4 0 015.4-5.1c3 0 5.3 2.3 5.4 5.2zm0 0" transform="matrix(.05 0 0 .04667 -2.5 0)" fill-rule="evenodd" fill="#f1b517" stroke-width=".2" stroke-linecap="round" stroke="#000"/><path d="M223.5 165.3l-1-.8m8.5 0l1-1m1 9.2l-1.1-1m-8.4 2l1-1m21.7-10.6l1 6-.8.4-1-6.3h.8zm0 0" transform="matrix(.05 0 0 .04667 -2.5 0)" fill="#f1b517" stroke-width=".2" stroke="#000"/><path d="M245.6 161.4c-.5-.3-1.2 0-2.4-1.3-1.9 1.7 0 2 .2 3.7.5.2.9-1.4 2.3-1.5l2.3-.2-.5-.7h-2zm0 0" transform="matrix(.05 0 0 .04667 -2.5 0)" fill="#fff" stroke-width=".2" stroke="#000"/><path d="M246.4 162.5l-.2-1.7c-.3-.7-1 0-1 .2l.2 1.7zm0 0" transform="matrix(.05 0 0 .04667 -2.5 0)" fill="#fff" stroke-width=".2" stroke="#000"/><path d="M240.8 167.4v1.6c-.6.2-.5.6-.5 1.2v4.7c0 .4-.7.4-1 .6-.3.3-.2.8 1 1l1 .1c1.5-.3 1.8-.8 1-1-.3-.2-.9-.4-1-.6v-1.2h1c.2 0 .7-.6.7-1.1v-2.5c0-1.4-1-1.6-1.4-1.5v-1.3zm1.6 2.7c0-.4-.6-.8-.8-.8-.2 0-.7.5-.7.9v1c0 .4.3 1.6.9 1.7.2 0 .6-.4.6-.8zm0 0" transform="matrix(.05 0 0 .04667 -2.5 0)" fill-rule="evenodd" fill="#f1b517" stroke-width=".2" stroke="#000"/><path d="M234.3 172.3c-.7-.2-.7 1.2-.7 1.2h1c.5.2.8.8.6 1.2-.3.2-2.2-.5-2.3 0 .3 2 2.9 2.6 3.8 1.8.9-.9 1.1-3-1.8-3.7zm.6.6l-.3.6" transform="matrix(.05 0 0 .04667 -2.5 0)" fill="#fff" stroke-width=".2" stroke="#000"/><path d="M215 173l-1-4m2 3.8l-1.4-3.1m4 2.3l-3.3-1.8m4.8 1.4l-6.2-2.7" transform="matrix(.05 0 0 .04667 -2.5 0)" fill="#f1b517" stroke-width=".2" stroke="#000"/><path d="M210.2 166h-2.6c-.2.2.5 1 .4 1.2-.6 1.1-4.4 1-4.7.8-.5-.5 3.5-.8 3.6-1 0-.4-.6-1.2-.5-1.7 0-.7 1.7-1 1.7-1zm0 0" transform="matrix(.05 0 0 .04667 -2.5 0)" fill="#d20014" stroke-width=".2" stroke="#d20014"/><path d="M213.2 168l-5-4.2s-.3-.2-.5 0 0 .4 0 .4l5.4 4.4.1-.5zm0 0" transform="matrix(.05 0 0 .04667 -2.5 0)" fill="#503200" stroke-width=".2" stroke="#000"/><path d="M218.2 172.2l-4.2-3.6-.3-1-.8.6c-.3.2-.6.8-.6.8h1.1l3.6 3.4 1.1-.2zm15 5c0 .3-.3.6-.7.6-.4 0-.7-.3-.7-.7 0-.4.3-.7.7-.7.4 0 .7.3.7.7zm-1.9-1.5c0 .4-.3.7-.7.7-.4 0-.7-.3-.7-.7 0-.4.3-.7.7-.7.4 0 .7.3.7.7zm-2.5 1c0 .3-.3.6-.7.6-.4 0-.7-.3-.7-.7 0-.4.3-.7.7-.7.4 0 .7.3.7.7zm-3.9.7c0 .4-.3.7-.7.7-.4 0-.7-.3-.7-.7 0-.4.3-.7.7-.7.4 0 .7.3.7.7zm-1.7.2c0 .4-.3.7-.7.7-.4 0-.7-.3-.7-.7 0-.4.3-.7.7-.7.4 0 .7.3.7.7zm-1.7 0c0 .4-.3.7-.7.7-.4 0-.7-.3-.7-.7 0-.4.3-.7.7-.7.4 0 .7.3.7.7zm-1.6 0c0 .4-.3.7-.7.7-.4 0-.7-.3-.7-.7 0-.4.3-.7.7-.7.4 0 .7.3.7.7zm.8-1.3c0 .4-.3.7-.7.7-.4 0-.7-.3-.7-.7 0-.4.3-.7.7-.7.4 0 .7.3.7.7zm0 0" transform="matrix(.05 0 0 .04667 -2.5 0)" fill="#f1b517" stroke-width=".2" stroke="#000"/><path d="M222.3 176.4c0 .4-.3.7-.7.7-.4 0-.7-.3-.7-.7 0-.4.3-.7.7-.7.4 0 .7.3.7.7zm1.5-.2c0 .4-.3.7-.7.7-.4 0-.7-.3-.7-.7 0-.4.3-.7.7-.7.4 0 .7.3.7.7zm0 0" transform="matrix(.05 0 0 .04667 -2.5 0)" fill="#f1b517" stroke-width=".2" stroke="#000"/><path d="M223.1 175c0 .4-.3.7-.7.7-.4 0-.7-.3-.7-.7 0-.4.3-.7.7-.7.4 0 .7.3.7.7zm-1.6-.1c0 .4-.3.7-.7.7-.4 0-.7-.3-.7-.7 0-.4.3-.7.7-.7.4 0 .7.3.7.7zm0 0" transform="matrix(.05 0 0 .04667 -2.5 0)" fill="#f1b517" stroke-width=".2" stroke="#000"/><path d="M236.5 178c0-.3-.8-.2-.8-.6 0-.4 1.2 0 1.3.3.7-.6 1-.2 1.4 0 .6-.8 1.3-.8 2-.2.4-.4 1.4-.3 1.7.2.7-.6 1.3-.5 1.7 0 .2-.3.5-.3.7 0 .3-.7 1.2-.5 1.6 0 .3-.4.7 0 1 0h.9c0 .5-.6.4-.6.7 0 .2.4 0 .4.4 0 .3-.6.4-.7 0-.3.4-1 .2-1.2-.2a.9.9 0 01-.6.3.9.9 0 01-.6-.3c-.3.2-.7.2-.8 0-.5.5-1.4.4-1.7-.2h-.3c-.2.2-.5.3-.7.3a1 1 0 01-.8-.3c-.9.6-1.4.4-1.9 0-.5.7-1.4.7-1.5 0-.4.3-1.2.4-1.2 0 0-.2.7-.1.7-.4zm1.6.1c0 .2-.2.3-.4.3s-.4-.1-.4-.3c0-.2.1-.2.4-.2.3 0 .4.1.4.2zm1.9-.2c0 .2-.3.3-.6.3s-.5 0-.5-.3c0-.1.2-.3.5-.3s.5.2.5.3zm3.5.2c0 .2-.2.3-.5.3s-.4-.1-.4-.3c0 0 .2-.3.4-.3s.5 0 .5.3zm-2 0c0 .2 0 .3-.4.3-.3 0-.4-.1-.4-.4 0-.2.2-.4.4-.4s.5.2.5.4zm4.1 0c0 .1-.1.3-.3.3-.3 0-.5-.2-.5-.4s.2-.3.5-.3c.2 0 .4 0 .4.3zm-1.2 0c0 .2 0 .3-.2.3s-.3-.1-.3-.3c0-.2 0-.2.3-.2zm2.4.1c0 .2 0 .4-.3.4 0 0-.3-.2-.3-.4s.2-.3.3-.3c.2 0 .3.1.3.3zm0 0" transform="matrix(.05 0 0 .04667 -2.5 0)" fill-rule="evenodd" fill="#f1b517" stroke-width=".2" stroke="#000"/><path d="M246 172.8l-7-2.2-3-5.3-11-.5.4 4 9.3 1.7.8 1.6 10.7 3zm0 0" transform="matrix(-.05 0 0 .04667 22.5 0)" fill="#f1b517" stroke-width=".2" stroke="#000"/><path d="M238.7 174.3l-11.2-16.5-.5.5 11 16.4zm0 0" transform="matrix(-.05 0 0 .04667 22.5 0)" fill="#503200" stroke-width=".2" stroke="#000"/><path d="M228.6 158.5l-1.2-2c-.3-.4-.6-.5-1-.2-.6.2-.5.7-.3 1l1 2zm0 0" transform="matrix(-.05 0 0 .04667 22.5 0)" fill="#fff" stroke-width=".2" stroke="#000"/><path d="M240 164l-22.5-2.2-.6 3.3 22.4 2.3zm0 0" transform="matrix(-.05 0 0 .04667 22.5 0)" fill="#f1b517" stroke-width=".2" stroke="#000"/><path d="M217 161l-.5 4.5h1l.6-4.1-1-.4zm3.8.7l-.2 4.1h.6l.5-3.5-.8-.6zm15.3 1.8l-.6 3.8h1.1l.5-3.8zm3.3 0l-.7 4.5 1.2.2.4-2.3c0 .5.5.8 1 .8.6 0 1-.5 1-1 0-.6-.4-1-1-1-.5 0-.9.2-1 .6l.3-1.6zm-8 .8l-3.2 3.5.4.4 4-2.7-1.3-1.2zM224 173l3-3.5-.2-.4-4 2.7zm8-.9l-3.6-3-.4.4 3 3.8zm-9.2-6.7l3.9 2.8.4-.3-3-3.8zm4.2-2.3l.4 4.6h.5l1.2-4.5zm1.2 11l-.3-4.5h-.6l-.7 4.6h1.6zm5.1-6l-4.8.4v.5l4.8.6V168zm-11.4 1.5l4.7-.7v-.4l-4.8-.5v1.6zm0 0" transform="matrix(-.05 0 0 .04667 22.5 0)" fill="#f1b517" stroke-width=".2" stroke="#000"/><path d="M229 168.6a1.3 1.3 0 01-1.3 1.2c-.7 0-1.3-.5-1.3-1.2s.6-1.2 1.3-1.2c.7 0 1.3.5 1.3 1.2zm0 0" transform="matrix(-.05 0 0 .04667 22.5 0)" fill="#f1b517" stroke-width=".2" stroke="#000"/><path d="M234.4 168.6c0 3.5-3 6.5-6.7 6.5a6.6 6.6 0 01-6.7-6.5c0-3.6 3-6.5 6.7-6.5 3.6 0 6.7 2.9 6.7 6.5zm-1.3 0c0 3-2.5 5.3-5.4 5.2-1.4 0-2.8-.5-3.8-1.5a5.3 5.3 0 01-1.6-3.8c.1-2.8 2.5-5.2 5.4-5.1 2.9 0 5.3 2.3 5.4 5.2zm0 0" transform="matrix(-.05 0 0 .04667 22.5 0)" fill-rule="evenodd" fill="#f1b517" stroke-width=".2" stroke-linecap="round" stroke="#000"/><path d="M223.5 165.3l-1-.8m8.5 0l1-1m1 9.2l-1-1m-8.5 2l1-1m21.7-10.6l1.1 6-1 .4-1-6.3h1zm0 0" transform="matrix(-.05 0 0 .04667 22.5 0)" fill="#f1b517" stroke-width=".2" stroke="#000"/><path d="M245.6 161.4c-.5-.3-1.2 0-2.4-1.3-1.9 1.7 0 2 .2 3.7.5.2.9-1.4 2.3-1.5l2.3-.2-.5-.7h-2zm0 0" transform="matrix(-.05 0 0 .04667 22.5 0)" fill="#fff" stroke-width=".2" stroke="#000"/><path d="M246.4 162.5l-.2-1.7c-.3-.7-1 0-1 .2l.2 1.7zm0 0" transform="matrix(-.05 0 0 .04667 22.5 0)" fill="#fff" stroke-width=".2" stroke="#000"/><path d="M240.8 167.4v1.6c-.6.2-.5.6-.5 1.2v4.7c0 .4-.7.4-1 .6-.3.3-.2.8 1 1l1 .1c1.5-.3 1.8-.8 1-1-.3-.2-1-.4-1-.6v-1.2h1c.2 0 .7-.6.7-1.1v-2.5c0-1.4-1-1.6-1.4-1.5v-1.3zm1.6 2.7c0-.4-.6-.8-.8-.8-.2 0-.7.5-.7.9v1c0 .4.3 1.6.9 1.7.2 0 .6-.4.6-.8zm0 0" transform="matrix(-.05 0 0 .04667 22.5 0)" fill-rule="evenodd" fill="#f1b517" stroke-width=".2" stroke="#000"/><path d="M234.3 172.3c-.7-.2-.7 1.2-.7 1.2h1c.5.2.8.8.6 1.2-.3.2-2.2-.5-2.3 0 .3 2 3 2.6 3.8 1.8 1-.9 1-3-1.8-3.7zm.6.6l-.3.6" transform="matrix(-.05 0 0 .04667 22.5 0)" fill="#fff" stroke-width=".2" stroke="#000"/><path d="M215 173l-1-4m2 3.8l-1.4-3.1m4 2.3l-3.3-1.8m4.8 1.4l-6.2-2.7" transform="matrix(-.05 0 0 .04667 22.5 0)" fill="#f1b517" stroke-width=".2" stroke="#000"/><path d="M210.2 166h-2.6c-.2.2.5 1 .4 1.2-.6 1.1-4.4 1-4.7.8-.5-.5 3.5-.8 3.6-1 0-.4-.6-1.2-.5-1.7 0-.7 1.7-1 1.7-1zm0 0" transform="matrix(-.05 0 0 .04667 22.5 0)" fill="#d20014" stroke-width=".2" stroke="#d20014"/><path d="M213.2 168l-5-4.2s-.3-.2-.5 0 0 .4 0 .4l5.4 4.4v-.5zm0 0" transform="matrix(-.05 0 0 .04667 22.5 0)" fill="#503200" stroke-width=".2" stroke="#000"/><path d="M218.2 172.2l-4.2-3.6-.3-1-.8.6c-.3.2-.6.8-.6.8h1.1l3.6 3.4 1.1-.2zm15 5c0 .3-.3.6-.7.6-.4 0-.7-.3-.7-.7 0-.4.3-.7.7-.7.4 0 .7.3.7.7zm-1.9-1.5c0 .4-.3.7-.7.7-.4 0-.7-.3-.7-.7 0-.4.3-.7.7-.7.4 0 .7.3.7.7zm-2.5 1c0 .3-.3.6-.7.6-.4 0-.7-.3-.7-.7 0-.4.3-.7.7-.7.4 0 .7.3.7.7zm-3.9.7c0 .4-.3.7-.7.7-.4 0-.7-.3-.7-.7 0-.4.3-.7.7-.7.4 0 .7.3.7.7zm-1.7.2c0 .4-.3.7-.7.7-.4 0-.7-.3-.7-.7 0-.4.3-.7.7-.7.4 0 .7.3.7.7zm-1.7 0c0 .4-.4.7-.7.7-.4 0-.7-.3-.7-.7 0-.4.3-.7.7-.7.3 0 .7.3.7.7zm-1.6 0c0 .4-.3.7-.7.7-.4 0-.7-.3-.7-.7 0-.4.3-.7.7-.7.4 0 .7.3.7.7zm.8-1.3c0 .4-.3.7-.7.7-.4 0-.7-.3-.7-.7 0-.4.3-.7.7-.7.4 0 .7.3.7.7zm0 0" transform="matrix(-.05 0 0 .04667 22.5 0)" fill="#f1b517" stroke-width=".2" stroke="#000"/><path d="M222.3 176.4c0 .4-.3.7-.7.7-.4 0-.7-.3-.7-.7 0-.4.3-.7.7-.7.4 0 .7.3.7.7zm1.5-.2c0 .4-.3.7-.7.7-.4 0-.7-.3-.7-.7 0-.4.3-.7.7-.7.4 0 .7.3.7.7zm0 0" transform="matrix(-.05 0 0 .04667 22.5 0)" fill="#f1b517" stroke-width=".2" stroke="#000"/><path d="M223.1 175c0 .4-.3.7-.7.7-.4 0-.7-.3-.7-.7 0-.4.3-.7.7-.7.4 0 .7.3.7.7zm-1.6-.1c0 .4-.4.7-.7.7-.4 0-.7-.3-.7-.7 0-.4.3-.7.7-.7.3 0 .7.3.7.7zm0 0" transform="matrix(-.05 0 0 .04667 22.5 0)" fill="#f1b517" stroke-width=".2" stroke="#000"/><path d="M236.5 178c0-.3-.8-.2-.8-.6 0-.4 1.2 0 1.3.3.7-.6 1-.2 1.4 0 .6-.8 1.3-.8 2-.2.4-.4 1.4-.3 1.7.2.7-.6 1.3-.5 1.7 0 .2-.3.5-.3.7 0 .3-.7 1.2-.5 1.6 0 .3-.4.7 0 1 0h1c0 .5-.7.4-.7.7 0 .2.4 0 .4.4 0 .3-.6.4-.7 0-.3.4-1.1.2-1.2-.2a.9.9 0 01-.6.3.9.9 0 01-.6-.3c-.3.2-.7.2-.8 0-.5.5-1.4.4-1.7-.2h-.3a1 1 0 01-.8.3 1 1 0 01-.7-.3c-.9.6-1.4.4-2 0-.4.7-1.3.7-1.4 0-.4.3-1.2.4-1.2 0 0-.2.7-.1.7-.4zm1.6.1c0 .2-.2.3-.4.3s-.4-.1-.4-.3c0-.2.1-.2.4-.2.3 0 .4.1.4.2zm1.9-.2c0 .2-.3.3-.6.3s-.5 0-.5-.3c0-.1.2-.3.5-.3s.5.2.5.3zm3.5.2c0 .2-.2.3-.5.3s-.4-.1-.4-.3c0 0 .2-.3.4-.3s.5 0 .5.3zm-1.9 0c0 .2-.2.3-.5.3s-.4-.1-.4-.4c0-.2.2-.4.4-.4s.5.2.5.4zm4 0c0 .1 0 .3-.3.3s-.5-.2-.5-.4.2-.3.5-.3c.2 0 .4 0 .4.3zm-1.2 0c0 .2 0 .3-.2.3s-.3-.1-.3-.3c0-.2 0-.2.3-.2zm2.4.1c0 .2 0 .4-.3.4-.1 0-.3-.2-.3-.4s.2-.3.3-.3c.2 0 .3.1.3.3zm0 0" transform="matrix(-.05 0 0 .04667 22.5 0)" fill-rule="evenodd" fill="#f1b517" stroke-width=".2" stroke="#000"/><path d="M249.8 165.7c-2.5 0-4.5 1-4.5 2.1 0 .2 0 .4.2.6.5.6 2.3 1 4.4 1 2 0 3.6-.3 4.2-.9.2-.2.3-.4.3-.7 0-1-2-2-4.6-2zm0 0" transform="matrix(.05 0 0 .04667 -2.5 0)" fill="#0a328c" stroke-width=".2" stroke="#0a328c"/><path d="M254.4 168v7c0 .9-2 1.5-4.5 1.5s-4.6-.6-4.6-1.5v-7c0 .8 2 1.5 4.5 1.5 2.6 0 4.6-.7 4.6-1.5zm0 0" transform="matrix(.05 0 0 .04667 -2.5 0)" fill="#f1b517" stroke-width=".2" stroke="#000"/><path d="M245.3 168v1l2.2 7 1.8-5.4 2 5.5 1.3-5.2 1.8 3.5v-1.9l-1.6-3.4-.6.2-1 3.8-1.5-3.6h-.7l-1.5 3.6-1.6-4.4c-.4-.2-.6-.5-.6-.7zm0 0" transform="matrix(.05 0 0 .04667 -2.5 0)" fill="#d20014" stroke-width=".2" stroke="#d20014"/><path d="M254.4 173.7v1.3c0 .9-2 1.5-4.5 1.5s-4.6-.6-4.6-1.5v-1.3c0 1 2 1.5 4.5 1.5 2.6 0 4.6-.6 4.6-1.5zm0 0" transform="matrix(.05 0 0 .04667 -2.5 0)" fill="#0a328c" stroke-width=".2" stroke="#0a328c"/><path d="M251.7 175l-1 .2v1.3l1.1-.1V175zm-4.8-.1v1.3l1 .2V175c-.2 0-.6 0-1-.2zm-1.6-1.2v1.3c0 .3.2.5.5.7v-1.3c-.3-.2-.5-.4-.5-.7zm9 .2c0 .2-.3.5-.7.7v1.3c.5-.2.8-.5.8-.9zm0 0" transform="matrix(.05 0 0 .04667 -2.5 0)" fill="#f1b517" stroke-width=".2" stroke="#000"/><path d="M254.4 168v7c0 .9-2 1.5-4.5 1.5s-4.6-.6-4.6-1.5v-7" transform="matrix(.05 0 0 .04667 -2.5 0)" fill="none" stroke-width=".2" stroke="#000"/><path d="M253.4 167.5c0 .5-1.6 1-3.5 1-2 0-3.6-.5-3.6-1s1.6-1 3.5-1c2 0 3.6.5 3.6 1zm0 0" transform="matrix(.05 0 0 .04667 -2.5 0)" fill="#fff" stroke-width=".2" stroke="#fff"/><path d="M248.7 168.2l.2 1.2h1l.1-1.2zm4.1-.3l-1 .2v1.2l1-.2V168zm-5.4-2l-.7.3.1 1 .6-.2zm2.4-.3h-.3l.2 1.2h.6l.2-1.2h-.7zm2.7.4v1l.6.3v-1a2.3 2.3 0 00-.6-.3zm-6.5 2.8l.2-1.3-1-.5v1.5zm8.4-.3v-1.3l-.8.3zm9.3-8.5c.8 0 2 1 2 2.5 0 1-1.6 1-1.6 1 0 .5-1 .9-1.8 1-.8 0 .2-1.5.2-1.5-.5-1.3.2-2.7.2-2.7zm0 0" transform="matrix(.05 0 0 .04667 -2.5 0)" fill="#f1b517" stroke-width=".2" stroke="#000"/><path d="M262.5 163h.8s0 .3.2.3.3-.4.3-.4h1.2" transform="matrix(.05 0 0 .04667 -2.5 0)" fill="#f1b517" stroke-width=".2" stroke="#000"/><path d="M264 160.9c.8-.5.2-1.5-.3-1.5h-1c-.6 0-1.4.6-1.3 1 0 .5.4.7.8.6.2 0 .6-.6.8-.6.3 0 1 .6 1 .5zm0 0" transform="matrix(.05 0 0 .04667 -2.5 0)" fill="#d20014" stroke-width=".2" stroke="#f1b517"/><path d="M214.2 174.8c-.6 0-.7.8-.5 1.5-2.6.7-5 1.7-7.4 2.4-.1-.5 1.2-1.8 1.2-1.8.3.1.6.9.6.9 0-1.6 1.6-2.6 1.6-2.6-1-.2-3.7 1-4 1.4 0 0 1-.2 1.2 0 0 0-2.2 2.3-2.3 3 .4.7 4 1.3 4 1.3 0 .2-1 1-1 1 1.5.2 3.7-.8 4.3-1.4 0 0-1.7-.2-3-1.3 0 0 .2.7 0 1 0 0-2-.6-2.3-1 0 0 5-1.2 7.4-2 0 .5.6 1.3 1.2 1 .3 0 .2-.7 0-1.3l.6.2c.4 0 .7-.3.7-.7 0-.4-.3-.7-.7-.7-.3 0-.6.2-.7.5-.1-.5-.4-1.4-.8-1.3zm2 1.6c0 .2-.2.3-.4.3h-.3l-.1-.3c0-.2.2-.4.4-.4s.3.2.3.4zm0 0" transform="matrix(.05 0 0 .04667 -2.5 0)" fill-rule="evenodd" fill="#f1b517" stroke-width=".2" stroke="#000"/><path d="M293 177.9c.2-.4 0-2.2 0-2.2-.5 0-1 .7-1 .7.5-1.6-.8-4-.8-4 1 .1 3.9 3 4 3.6 0 0-1.3-.5-1.5-.4.3 1.5 1.3 2.2 1.7 3 0 0-1.7.3-1.6 1.8h-1c-.5-.5 0-1.3 0-1.3l-7.7-3.2c-.5-.2-1.6-.8-1.4-1.4.1-.5 2 .3 2.4.5l7 2.9zm0 0" transform="matrix(.05 0 0 .04667 -2.5 0)" fill="#f1b517" stroke-width=".2" stroke="#000"/><path d="M285.6 176.5l1-1.6c.3-.5-.4-1-.9-.4l-1 1.5c-.4.9.5 1.1 1 .5zm0 0" transform="matrix(.05 0 0 .04667 -2.5 0)" fill="#f1b517" stroke-width=".2" stroke="#000"/><path d="M290.3 288.6l-.2-3-3.5.3-.2 3.1zm0 0" transform="scale(.03125 .02917)" fill="#fff" stroke-width=".3" stroke="#000"/><path d="M264.4 292.6l-4.6-2.6c19.3 1.8 23.3-5 28-5.3 3-.2 3.3 3.2-2.3 1.5l1.5 3.6s-13.8 7.8-27.4 4.6zm84.9-4v-3l4.3.2.1 3zm0 0" transform="scale(.03125 .02917)" fill="#fff" stroke-width=".3" stroke="#000"/><path d="M375.9 292l4.5-2.4c-22.4.6-17.3-3.7-28.4-4.9-3-.4-5 3.4 2.3 1.5l-1.6 3.6h3.6c7.6 5 17.8 5.5 24.6 3.9zm0 0" transform="scale(.03125 .02917)" fill="#fff" stroke-width=".3" stroke="#000"/><path d="M285.5 286.3v5s12.3 4.5 34.4 4.5c22.2 0 34.4-4.5 34.4-4.5v-5s-9.3 4.3-34.4 4.3c-25 0-34.4-4.3-34.4-4.3zm0 0" transform="scale(.03125 .02917)" fill="#fff" stroke-width=".3" stroke="#000"/><path d="M9 8.5v-.1.1zm0 0h.1zm.3 0h-.1zm0 0zm.1 0zm0 0h.1zm0 0h.1zm.2 0v.1zm.2.1v-.1.1zm0 0l.1-.1v.1zm0 0h.1zm.2 0v-.1.1zm0 0v-.1h.1v.1zm.2 0v-.1.1zm0 0l.1-.1v.1zm0 0h.1v-.1zm.2 0v-.1h.1zm.1 0v-.1h.1zm0 0h.1v-.1zm.2 0v-.1zm0-.1zm.2 0h-.1zm0 0v-.1.1h.1zm0 0"/></svg>