<svg xmlns="http://www.w3.org/2000/svg" width="20" height="14"><path fill="#fff" d="M0 0h20v14H0z"/><path d="M20.8 3.2H-.7V1.3h21.5zm0 9.6H-.7v-1.9h21.5zM6.6 5.2l3.2 5.3 3.3-5.2H6.6zm0 0" fill-rule="evenodd" fill="#00c"/><path d="M9.2 8.7l.6 1 .6-1H9.2zm0 0" fill-rule="evenodd" fill="#fff"/><path d="M6.6 8.8l3.2-5.3 3.3 5.3zm0 0" fill-rule="evenodd" fill="#00c"/><path d="M9.2 5.3l.6-1 .6 1H9.2zM7.9 7.4l-.6 1h1.2l-.6-1zm-.6-1.8h1.2l-.6 1zm4.4 1.8l.6 1h-1.2zm.6-1.8h-1.2l.6 1zM9 5.6L8 7 9 8.4h1.5l1-1.4-.9-1.4H9zm0 0" fill-rule="evenodd" fill="#fff"/></svg>