<svg xmlns="http://www.w3.org/2000/svg" width="20" height="14"><path fill="#ba0000" d="M0 0h20v14H0z"/><path d="M281 376c.2-.6.6-6.8.5-6.8-.3 0-9.5-10.9-9.3-10.9.2 0 11.8 2.6 11.8 2.2 0-.5 4.6-11.4 4.6-11.7l5.8 13.5 11.4 5-8 6.7 1.7 13c0 .3-8-7.6-8-7.6l-8.8 1s-1.2-4-1.6-4.4zm0 0" transform="matrix(.02937 0 0 .02742 2.3 0)" fill-rule="evenodd" fill="#ffef00" stroke-width="2.2" stroke="#000"/><path d="M218.7 206.9c-7.7 4-37 37.4-41 42.7A77.1 77.1 0 01161 273c-7.4 5.5-11.4 13-10.3 20 0 9 5 15 8.8 21.2 2.2 2.8 5.4 4.7 8.8 5 6.9.7 7.5 3 11 4 13.4 18.5 33.6 32.1 48 42.8a66.6 66.6 0 0118 12.4c4.2 8.1 3.4 16 2.8 20L237.3 439c-1.8 11 7.9 8.7 8.3 6.4 4.3-5.7 10.9-1.7 20-34.4l12.8-17s5-2 5-2.5c7.4-9 1.7-14-2.6-15.6l-9.2-3.5s-10.7-10.8-11.3-10.8c-5-15-30.3-46.6-36.2-51-4-4.3-6-6-9.7-8.4-6-2.9-7.8-3.9-11.4-5.1-3-1.3-1-4.6 1-6.2 20-10.8 35.7-22.8 54.9-35l2.9-2-7-39.2-31.7-11.2c-1.7 1.1-3 2.2-4.4 3.4zm0 0" transform="matrix(.02937 0 0 .02742 2.3 0)" fill-rule="evenodd" fill="#fff" stroke-width="2.6" stroke="#000"/><path d="M9.5 11.3h.6l-.1.1-.6.2v-.3zm0 0" fill-rule="evenodd" fill="#ffec00"/><path d="M193.6 338.5c4-9.5 12-16.8 21.6-20.3" transform="matrix(.02937 0 0 .02742 2.3 0)" fill="none" stroke-width="2.2" stroke="#000"/><path d="M244.6 413.3c1.4-.3 7-2 8.5-2.3 1.9-.4 3.6-.8 5.4-1.4 2-.4 3.1-.8 5.1-1.1 1.6-.6 3.4-1 5-1.4M241 425.6c.7-.7 1.6-1.4 2.6-2 1-.4 4.9-2 6.3-2.3 1.6-.4 3.2-.8 4.8-1.4l4.6-1.2a75 75 0 014.3-1.4" transform="matrix(.02937 0 0 .02742 2.3 0)" fill="none" stroke-width="2.4" stroke="#000"/><path d="M249 341.4h-.3c.8 0 .4 0-.7 1.4-.4 1.1-4 3.7-7 3.7-1.4.1-3 .3-4.6.3l-1.3-.3m13.7 53.4h1.4c1.5 0 3 .5 4.1.5l4.4.2c1.5.3 3.2.2 4.7.5 1.6 0 3 .3 4.8.3l3.6.2-3.6-.2 3.6.2M239 434.7c.8-.7 1.5-1.4 2.4-2 1-.3 4.6-2 6-2.1l4.1-1.6 4.4-1c1.4-.7 2.6-1.1 4-1.6m5.7-41.1c-.8 2.2.4 3 .8 4 1.5 1.5 3.5 2.7 5.8 3.4 1.2.3 2 .5 3.3 1.1 1 0 1.3.3 2 .4M153 299.5h.3c-1 0-.3.1 1-1 1.1-1.1 1.8-1.6 2.7-2.7m14.4 24c.3 0 16.6-8.2 18.3-10l3.8-2.9c.9-.4 1.6-1.1 2.5-1.7.7-1 1.7-1.7 2.3-2.7 1-.9.5-1.7 1.4-2.9l1.3-3.8M222 308c.1.6-.1 2.5-.1 3.7 0 1.8-2.2 6.6-4.7 8.2" transform="matrix(.02937 0 0 .02742 2.3 0)" fill="none" stroke-width="2.2" stroke="#000"/><path d="M192.6 307.8l6.7 2c5 2 15.4 8.5 16.5 9.3 1 .9 3 1.8 3.6 2.6 1.2 1 2 2.2 2.9 3.1 1 1.3 2 2.5 2.5 3.5a113.8 113.8 0 0113.4 24.5c.7.7 1 1.7 1.6 2.8.7 1.4 1.4 2 2 3.2 1.1.7 2.3 2 3.5 2.5 1.3 1.2 2.5 1.4 3.5 2.3 1.3.6 16.3 10 17 10.5 1.4 1 5.6 5.5 2.6 8.6-1.2 1-2.4 2.6-3.4 3-1 1.3-2.6 1.7-3.9 2.3-6.8 2-10.2 1.2-11.6 1.2h-1.3m-88.8-115c2 1 1.2.4 3 1 1.1.6 2 .6 2.8 1 1.4.3 4.8 1 6.4 2.8 1.2 1 2 2 3.3 2.5 1.5 1 3.1 1.9 4.7 2.5 1.6.7 3.5 1.2 5 1.2h7.8-4 4" transform="matrix(.02937 0 0 .02742 2.3 0)" fill="none" stroke-width="2.2" stroke="#000"/><path d="M159 293.4c4.2-.5 11.3 1 11.6 1l9.3-.3c5-.5 6-2.3 6.7-3.7 2-2.7 3.2-3.7 4.7-6 2.3-1.6 5.5 2.3 5.5 2.3 8 7.7 1.6 16.8 1.2 17-4 3.8-4.8 4-7.4 1.8-2.4-3-3-4.3-5-5.3-3.9-1.9-11.8-.4-12-.4l-4.1 1.5c-2 .8-3.2 2.5-6.5 3-3.5.3-4.5 0-6.3-2.8-2.4-3.4-1.2-7.9 2.3-8.1zm0 0" transform="matrix(.02937 0 0 .02742 2.3 0)" fill-rule="evenodd" fill="#ffe606" stroke-width="2.2" stroke="#000"/><path d="M381.9 120.7c-.7 0-6.4 2.8-6.3 3 .1.1-4.8 13.5-5 13.4 0-.2-3.4-11.7-3.8-11.4l-12.5 1.5 9-11.4-1.3-12.5 9.9 3.8 10.5-8c.3 0-2.7 10.7-2.7 10.7l5.2 7.3s-3 3-3 3.6zm0 0" transform="matrix(.02937 0 0 .02742 2.3 0)" fill-rule="evenodd" fill="#ffef00" stroke-width="2.2" stroke="#000"/><path d="M265 257.9c7.2 4.7 50.6 14 57.3 14.8 9.7-.7 19.4.3 28.6 3.1 8.4 3.7 16.9 3.5 22.5-1 7.8-4 10.6-11.4 14-18a11.9 11.9 0 000-9.9c-2.6-6.4-1-8-1.5-11.7 9.3-20.6 11.3-44.8 13.5-62.8-.3-10.5 1-18.5 2-21.7a32 32 0 0116-12.2l40.7-10.6c10.6-3.8 3.7-11 1.6-10.4-7-1-7-8.6-39.8-.7l-21.1-2.7s-4-3.3-4.6-3c-11.5-2.1-13.1 5.3-12.5 9.9l1.6 9.7s-4.1 14.6-4 15c-10.3 11.7-25.9 49.6-27 56.9-.4 6.8-2.9 5.6-2.4 12.3 0 5-.5 2 1.2 12.5.4 3.3-3.5 3-5.7 2-19.3-12-37.3-20-57.6-30.5l-3-1.6-30.9 25.2 5.9 33.2c1.8 1 3.4 1.5 5 2.2zm0 0" transform="matrix(.02937 0 0 .02742 2.3 0)" fill-rule="evenodd" fill="#fff" stroke-width="2.6" stroke="#000"/><path d="M15 3.7a9.8 9.8 0 01-.4-.5h.2l.4.4zm0 0" fill-rule="evenodd" fill="#ffec00"/><path d="M392 215.1a37.2 37.2 0 01-28.4-8.7" transform="matrix(.02937 0 0 .02742 2.3 0)" fill="none" stroke-width="2.2" stroke="#000"/><path d="M432.3 134c-1.1-.8-5.4-5-6.3-6.3a49 49 0 00-3.8-3.7c-1.2-1.6-2.3-2.5-3.6-4a87.9 87.9 0 01-3.6-3.7m29.6 15c-.2 0-2-.6-3-1.2-.8-.9-4.2-3.4-5-4.6-1.3-1.1-2.3-2.3-3.5-3.4-1.2-1.3-2.2-2-3.4-3.6a23 23 0 01-3.4-3" transform="matrix(.02937 0 0 .02742 2.3 0)" fill="none" stroke-width="2.4" stroke="#000"/><path d="M367.2 165.6l.2.2c-.4-.8-.2-.2 1.7 0 1.2-.2 5.2 1.8 6.5 4a26 26 0 012.5 4.2c.3.3.3 1 .4 1.2m40-38.1v-.3l-.7-1-1.8-3.9c-.8-1.2-1-2.7-1.7-4-.7-1.2-1.5-2.7-2-4-.8-1.7-1.2-3-2-4.5-.6-1.1-.8-2-1.6-3.3l1.6 3.3c-.6-1.1-.8-2-1.6-3.3m44.8 12.3c-1-.2-2-.6-2.8-1-.8-.7-4-3-5-4l-3.3-3c-1-1.3-1.9-2-3-3.3a21 21 0 01-3.1-2.7m-39 15c2.5-.5 2.5-1.6 3-2.5.6-1 1-3.5.3-6.6l-.7-3.5c-.4-1-.4-1.4-.4-2m-21.8 154.8v-.2c.4.7.2.3-1.6-.5l-3.5-1m14-24.3c-.2-.2-15.4-10.4-17.8-11-1.4-.6-2.8-1-4.4-1.8l-2.8-1.4c-1.1-.2-2.3-.7-3.4-.7-1.2-.5-1.9.4-3.2.3l-4 .5m.5-24c.4-.3 2.2-1 3.4-1.8 1.4-.7 6.7-1.2 9.1.2" transform="matrix(.02937 0 0 .02742 2.3 0)" fill="none" stroke-width="2.2" stroke="#000"/><path d="M365.6 231.2l-1.4-7a111 111 0 010-18.7c.2-1.3 0-3.5.5-4.6.3-1.4.8-2.7 1.3-4a114.5 114.5 0 0114.5-24.8l2-2.7c.3-1 1-1.8 1.6-3 1-1.1 1.2-2 1.8-3.3 0-1 .6-2.8.6-4 .3-1.8 0-3 .3-4.2-.2-1.5.6-19.3.8-20 .2-1.8 2-7.5 6.2-6.5 1.5.5 3.4.8 4.4 1.5 1.3.5 2.5 1.5 3.7 2.3 5 4.9 6.2 8.1 6.8 9.4l.7 1.2M352.6 276l-.1-.2c.4.7.2.3-.3-1.1-.1-1.3-.5-3-.7-4.1-.4-1.5-.9-2.7-.8-3.6-.4-1.3 0-2.3 0-3.6.4-1.7.6-2.7.6-4.2.2-2 0-3.2.1-5-.5-1.4-.7-2.7-1.3-4.2l-2-4-2-3.5 2 3.4-2-3.4" transform="matrix(.02937 0 0 .02742 2.3 0)" fill="none" stroke-width="2.2" stroke="#000"/><path d="M369.5 267.6c-2.3-3.6-4.7-10.4-4.8-10.6l-4.6-8c-2.8-4-5.1-4-6.7-4-3.5-.4-5-1-7.4-1.2-2.6-1.2-.7-5.9-.8-6 2.8-10.5 14-9.6 14.5-9.4 5 1.7 5.5 2.4 4.7 5.5-1.2 3.6-2 4.9-2 7 .4 4.3 5.6 10.6 5.6 10.7l3.4 2.9c1.6 1.2 3.7 1.5 5.8 4.2 1.9 2.9 2.1 4 .5 6.7-2 3.9-6 5-8.2 2.2zm0 0" transform="matrix(.02937 0 0 .02742 2.3 0)" fill-rule="evenodd" fill="#ffe606" stroke-width="2.2" stroke="#000"/><path d="M105.3 168.7c.4.4 5.7 3.7 6 3.6 0-.3 14-3.5 13.6-3.3 0 .3-7.7 9.2-7.3 9.5.4.2 8 9.4 8.1 9.6l-14.4-1.3-9.8 7.8-2.2-10.2-12.3-4.5a480 480 0 0110.6-3.5l3.1-8.3s4 .7 4.7.6zm0 0" transform="matrix(.02937 0 0 .02742 2.3 0)" fill-rule="evenodd" fill="#ffef00" stroke-width="2.2" stroke="#000"/><path d="M284 191.3c0-8.6-16.2-50.2-19-56a81 81 0 01-13-25.7c-1.5-9.2-6.3-16.1-13-18.6-8-4-15.5-2.4-22.8-1.7-3.6.7-6.7 2.7-8.4 5.4-4 5.7-6.1 5.3-9 7.7-22.4 3.6-43.7 15.1-59.9 23.1a66.7 66.7 0 01-19.3 10.1c-6.9 0-13.5-2.4-19-6.5l-31.1-28.4c-9-6.7-11.2 3.2-9.4 4.6 2.9 6.4-3.6 10.2 21.1 33.6l9.3 19.3s-.5 5 0 5.4c4.4 10.7 11.6 8 15 5l7.3-6.7s14.5-4.6 14.7-5c15.7 2.2 55.8-5.3 62.3-8.4 6.2-3.5 6.4-.6 11.6-4.7 4.3-3 2-.8 10-8 2.4-2 4.2 1.3 4.8 3.7.4 22.6 3.8 42.2 6 64.8l.4 3.4 37.9 12.1 24.6-23-1-5.6zm0 0" transform="matrix(.02937 0 0 .02742 2.3 0)" fill-rule="evenodd" fill="#fff" stroke-width="2.6" stroke="#000"/><path d="M4.9 3.3l-.2.5-.1-.1V3zm0 0" fill-rule="evenodd" fill="#ffec00"/><path d="M178.8 108.4c7.2 8 9.4 21.3 8.2 28.7" transform="matrix(.02937 0 0 .02742 2.3 0)" fill="none" stroke-width="2.2" stroke="#000"/><path d="M89 119.1l-2 8.7c-.5 1.7-.9 3.6-1.1 5.3l-1.5 5.2c-.1 1.8-.5 3.3-1 5m-3.7-33c0 .3.6 2 .6 3.1-.2 1.2-.6 5.4-1 6.9s-.6 3.2-.9 4.8l-1 4.6a29 29 0 01-.9 4.7" transform="matrix(.02937 0 0 .02742 2.3 0)" fill="none" stroke-width="2.4" stroke="#000"/><path d="M150.7 156.3v-.3c-.4.9 0 .3-.8-1.4-.8-1-1.3-5.3 0-7.8a30.8 30.8 0 012-4.3c0-.3.4-.7.7-1m-53.8-12.6v.3l-.7 1c-.5 1.4-1.6 2.6-2.1 3.7-.7 1.3-1.8 2.3-2.4 3.6l-2.4 4c-1 1.4-1.8 2.5-2.6 4l-2 3.2 2-3.2-2 3.2m-14.2-44.3c.2.2.7 1.9.8 3-.2 1-.4 5-.8 6.3l-.6 4.4-1.1 4.3c0 1.4-.3 2.8-.5 4.3m33.7 24.3c-1.6-2-2.6-1.3-3.7-1.3-2.2.6-4.1 1.8-5.7 3.5-.8 1-1.5 1.5-2.7 2.5-.4.7-.8 1-1.3 1.5M232 90.3l-.1.5c.4-.9 0-.5.5 1.4.5 1.3.5 2.3 1 3.4m-27.9 1.9c0 .1-.2 18.3.6 20.8.1 1.5.5 2.7.8 4.7 0 1 .2 2 .4 3 .5 1 .6 2.2 1.3 3.2.3 1.3 1.3 1.5 1.9 2.4.7 1 2 2.5 2.7 3m-20.4 13c-.6-.1-2-1.4-3.2-2-1.4-.8-5-4.8-5-7.8" transform="matrix(.02937 0 0 .02742 2.3 0)" fill="none" stroke-width="2.2" stroke="#000"/><path d="M206.5 121.5l-5 5.2c-4.9 3.8-10.2 7.4-15.8 10.2-1.2.6-2.6 2-4 2.2-1.3.5-2.8.7-4 1-9.4 1.7-19.1 2.2-28.7 1.5-1.2 0-2.2-.1-3.4-.3-1 .3-2 .2-3.4.3-1.6-.1-2.4.2-3.6.3-1 .6-2.7 1.1-4 1.9-1.4.5-2.3 1.5-3.5 2-1 1-16.4 9.8-17.2 10.2-1.6.7-7.3 2.4-8.8-1.6-.4-1.7-1-3.2-1.2-4.5-.4-1.4-.1-3-.1-4.4 1.5-6.9 3.6-9.6 4.3-10.9l.6-1.1M251 108l-.1.3c.2-.7.2-.4-.8.8-1 .8-2.1 2-3 3-1.1.7-2 2-2.7 2.5-.8 1-1.8 1.2-3 2-1.3.4-2.6 1-3.8 1.8-1.7.9-2.7 1.7-4.1 2.6-1.1 1.2-2 2-2.8 3.4-1 1.3-1.8 2.4-2.4 3.8l-1.8 3.6 1.8-3.6-1.8 3.6m11.7 73l.3-.3c-.5 1-.4.7.1-1 0-1.8.4-4 .4-5.7.4-1.9.7-3.7.7-5.6-.1-2-.1-4-.4-6l-.3-5.5c0-1.9-.2-3.5-.6-5.2a28 28 0 00-.4-4.7 7 7 0 00-.6-3.4l-1.2-5.1-.9-4.1c-.2-1.6-1-3.6-1.4-4.9-.6-1.1-.8-2.3-1.1-3.4-.5-1.2-1.2-2.4-1.3-3.6l-1.6-3.7-1.4-3.5c-.5-1.5-1.2-2.7-1.6-4l-.8-1.5" transform="matrix(.02937 0 0 .02742 2.3 0)" fill="none" stroke-width="2.2" stroke="#000"/><path d="M235 98.5a56.2 56.2 0 01-6.3 9.6l-4.2 8.4c-1.8 4.7-.7 6.6 0 7.9 1.8 3 2 4.5 3.2 6.8.6 2.9-4.3 3.9-4.3 3.9-10.6 3.5-15.7-6.4-15.7-6.9-1.5-5.2-1.2-6 2-7 3.5-1 4.9-1 6.7-2.2 3.5-2.7 5.9-10.4 6-10.4l.4-4.4c.3-2-.6-4 .4-7.3 1.3-3.2 2.1-4 5.3-4.3 4.3-.3 7.6 2.6 6.4 5.9zm0 0" transform="matrix(.02937 0 0 .02742 2.3 0)" fill-rule="evenodd" fill="#ffe606" stroke-width="2.2" stroke="#000"/><path d="M221.4 199.8c-1.6-1.6 29.3 11 33.6 11.2 5.9-2.1 30-22.4 30-22.4 0 2 1 7.2 3.2 8.2-9.3 7.5-17.6 14.8-27 22.3.7 12-1.4 24.7 4.6 38 0 0-7.2.2-7.2 0-6.4-6.3-8.7-37.3-8.7-37.3l-30.5-13.5c1.4-1 2.5-3.8 2-6.7zm0 0" transform="matrix(.02937 0 0 .02742 2.3 0)" fill-rule="evenodd" fill="#ffef00" stroke-width="2.2" stroke="#000"/><path d="M250.7 231.2l-7.1 3.7c-28.1 15-42.6 37-43.5 37.8l-2.1 3.4-2.4 3a55.2 55.2 0 01-3.6 4.7c-.2.6.4-.3.2.2m78-70.6c2 1.7 4.2 3.3 6.3 4.7 26.2 18.3 52.4 21.1 53.6 21.5 1 0 2.6.3 4 .5 1.2 0 2.5.4 3.7.5 1.5.2 4.4.8 5.9 1.2.7-.2-.5-.3 0-.4" transform="matrix(.02937 0 0 .02742 2.3 0)" fill="none" stroke-width="2.2" stroke="#000"/></svg>