<svg xmlns="http://www.w3.org/2000/svg" width="20" height="14"><path fill="#fff" d="M0 0h20v14H0z"/><path d="M30 12.2c-.3.2-.6.6-1.5.6-1.8 0-2.2-1-3.6-1-.9 0-1.3 1-2.2 1-1.8 0-2.3-1-3.6-1-.9 0-1.3 1-2.2 1-1.8 0-2.3-1-3.6-1-.9 0-1.3 1-2.2 1-1.8 0-2.3-1-3.6-1-.9 0-1.3 1-2.2 1-1.8 0-2.3-1-3.6-1-.9 0-1.2.7-1.7.7v1.2c.5 0 .8-.6 1.7-.6 1.3 0 1.8.9 3.6.9.9 0 1.3-1 2.2-1 1.3 0 1.8 1 3.6 1 .9 0 1.3-1 2.2-1 1.3 0 1.8 1 3.6 1 .9 0 1.3-1 2.2-1 1.3 0 1.8 1 3.6 1 .9 0 1.3-1 2.2-1 1.4 0 1.8 1 3.6 1 .9 0 1.2-.3 1.5-.5zm0-2.3c-.3.1-.6.6-1.5.6-1.8 0-2.2-1-3.6-1-.9 0-1.3 1-2.2 1-1.8 0-2.3-1-3.6-1-.9 0-1.3 1-2.2 1-1.8 0-2.3-1-3.6-1-.9 0-1.3 1-2.2 1-1.8 0-2.3-1-3.6-1-.9 0-1.3 1-2.2 1-1.8 0-2.3-1-3.6-1-.9 0-1.2.7-1.7.7v1.2c.5 0 .8-.7 1.7-.7 1.3 0 1.8 1 3.6 1 .9 0 1.3-1 2.2-1 1.3 0 1.8 1 3.6 1 .9 0 1.3-1 2.2-1 1.3 0 1.8 1 3.6 1 .9 0 1.3-1 2.2-1 1.3 0 1.8 1 3.6 1 .9 0 1.3-1 2.2-1 1.4 0 1.8 1 3.6 1 .9 0 1.2-.3 1.5-.5zm0-2.4c-.3.2-.6.7-1.5.7-1.8 0-2.2-1-3.6-1-.9 0-1.3 1-2.2 1-1.8 0-2.3-1-3.6-1-.9 0-1.3 1-2.2 1-1.8 0-2.3-1-3.6-1-.9 0-1.3 1-2.2 1-1.8 0-2.3-1-3.6-1-.9 0-1.3 1-2.2 1-1.8 0-2.3-1-3.6-1C.8 7.2.5 8 0 8v1.2c.5 0 .8-.7 1.7-.7 1.3 0 1.8 1 3.6 1 .9 0 1.3-1 2.2-1 1.3 0 1.8 1 3.6 1 .9 0 1.3-1 2.2-1 1.3 0 1.8 1 3.6 1 .9 0 1.3-1 2.2-1 1.3 0 1.8 1 3.6 1 .9 0 1.3-1 2.2-1 1.4 0 1.8 1 3.6 1 .9 0 1.2-.3 1.5-.5zm0-2.3c-.3.2-.6.6-1.5.6-1.8 0-2.2-.9-3.6-.9-.9 0-1.3 1-2.2 1-1.8 0-2.3-1-3.6-1-.9 0-1.3 1-2.2 1-1.8 0-2.3-1-3.6-1-.9 0-1.3 1-2.2 1-1.8 0-2.3-1-3.6-1-.9 0-1.3 1-2.2 1-1.8 0-2.3-1-3.6-1-.9 0-1.2.7-1.7.7v1.2C.5 6.8.8 6 1.7 6c1.3 0 1.8 1 3.6 1 .9 0 1.3-1 2.2-1 1.3 0 1.8 1 3.6 1 .9 0 1.3-1 2.2-1 1.3 0 1.8 1 3.6 1 .9 0 1.3-1 2.2-1 1.3 0 1.8 1 3.6 1 .9 0 1.3-1 2.2-1 1.4 0 1.8 1 3.6 1 .9 0 1.2-.3 1.5-.5zM30 3c-.3.2-.6.6-1.5.6-1.8 0-2.2-1-3.6-1-.9 0-1.3 1-2.2 1-1.8 0-2.3-1-3.6-1-.9 0-1.3 1-2.2 1-1.8 0-2.3-1-3.6-1-.9 0-1.3 1-2.2 1-1.8 0-2.3-1-3.6-1-.9 0-1.3 1-2.2 1-1.8 0-2.3-1-3.6-1-.9 0-1.2.8-1.7.8v1.1c.5 0 .8-.6 1.7-.6 1.3 0 1.8 1 3.6 1 .9 0 1.3-1 2.2-1 1.3 0 1.8 1 3.6 1 .9 0 1.3-1 2.2-1 1.3 0 1.8 1 3.6 1 .9 0 1.3-1 2.2-1 1.3 0 1.8 1 3.6 1 .9 0 1.3-1 2.2-1 1.4 0 1.8 1 3.6 1 .9 0 1.2-.3 1.5-.5zm0-2.3c-.3.2-.6.6-1.5.6-1.8 0-2.2-1-3.6-1-.9 0-1.3 1-2.2 1-1.8 0-2.3-1-3.6-1-.9 0-1.3 1-2.2 1-1.8 0-2.3-1-3.6-1-.9 0-1.3 1-2.2 1-1.8 0-2.3-1-3.6-1-.9 0-1.3 1-2.2 1-1.8 0-2.3-1-3.6-1C.8.3.5 1 0 1v1.2c.5 0 .8-.6 1.7-.6 1.3 0 1.8.9 3.6.9.9 0 1.3-1 2.2-1 1.3 0 1.8 1 3.6 1 .9 0 1.3-1 2.2-1 1.3 0 1.8 1 3.6 1 .9 0 1.3-1 2.2-1 1.3 0 1.8 1 3.6 1 .9 0 1.3-1 2.2-1 1.4 0 1.8 1 3.6 1 .9 0 1.2-.3 1.5-.5zm0 0" fill-rule="evenodd" fill="#000063"/><path d="M0 0h7.7v4.3H0zm0 0" fill-rule="evenodd" fill="#000063"/><path d="M0 0v.5l6.8 3.8h.9v-.5L.9 0H0zm7.7 0v.5L.9 4.3H0v-.5L6.8 0h.9zm0 0" fill="#fff"/><path d="M3.2 0v4.3h1.3V0zM0 1.4V3h7.7V1.4H0zm0 0" fill="#fff"/><path d="M0 1.7v.9h7.7v-.9zM3.4 0v4.3h.8V0zM0 4.3L2.5 3h.6L.6 4.3zM0 0l2.5 1.4H2l-2-1zm4.5 1.4L7.1 0h.6L5 1.4zm3.2 3L5 2.8h.6l2 1.1zm0 0" fill="#c00"/><path d="M815.2-301.3l-18 708.8c0 37.3 80 37.3 88.5 0l-17.5-708.8zm0 0" transform="matrix(.00605 0 0 .0134 6.2 7.3)" fill-rule="evenodd" fill="#a24300" stroke-width="6.9" stroke="#fff"/><path d="M496 549l17.9 71.3 35.5-53.7-18.2 89 35.4-35.4-34.9 88.3 35.4-35.4-35.6 88.8 35.4-35.4L531.4 833l35.7-36-35.5 106.4L567 868l-53.2 159.6-17.6 18-18.1-18-17.5-52.9-35.3-106.6 35.3 35.6L425.4 797l35.3 35.7-35.5-106 35.6 35-35.3-88.5 35.3 35.7-35.9-88.6 35.6 35-17.3-88 35 53.1 18.3-71.3zm0 0" transform="matrix(-.0069 .00184 -.00303 -.00533 17.3 8.8)" fill-rule="evenodd" fill="#006d00" stroke-width="8.3" stroke="#fff"/><path d="M496 549v495.9M425.3 868l70.5 106.4L567 868" transform="matrix(-.0069 .00184 -.00303 -.00533 17.3 8.8)" fill="none" stroke-width="1.3" stroke="#000"/><path d="M425.4 797L496 903.4 567 797" transform="matrix(-.0069 .00184 -.00303 -.00533 17.3 8.8)" fill="none" stroke-width="1.3" stroke="#000"/><path d="M425.2 726.6L496 832.4l71-105.9" transform="matrix(-.0069 .00184 -.00303 -.00533 17.3 8.8)" fill="none" stroke-width="1.3" stroke="#000"/><path d="M425.5 673.2l70.2 88.8 71.4-88.9" transform="matrix(-.0069 .00184 -.00303 -.00533 17.3 8.8)" fill="none" stroke-width="1.3" stroke="#000"/><path d="M425.2 619.7l70.8 89 70.6-88.5" transform="matrix(-.0069 .00184 -.00303 -.00533 17.3 8.8)" fill="none" stroke-width="1.3" stroke="#000"/><path d="M443.2 567.3l53 106.2L549 567.3" transform="matrix(-.0069 .00184 -.00303 -.00533 17.3 8.8)" fill="none" stroke-width="1.3" stroke="#000"/><path d="M495.8 549l17.9 71 35.2-53-17.4 88.7 35.2-35.4-35 88.4 35.2-35.5-35.4 88.9 35.2-35.5-35 106 35.2-35.5-35.5 106.4 35.5-35.1-35.5 106.3-17.9 53-17.3 17.6-18.1-17.5-17.9-53.4-35.4-106.3 35.7 35.4-35.4-106.3 35.7 35.4-35.4-106.2 35 35.4-35.2-88.4 35.4 35-35.2-88.4 35 35.4-17-88.4 35.1 53.4 17.6-71zm0 0" transform="matrix(.00519 -.00496 .00647 .004 2.2 2.6)" fill-rule="evenodd" fill="#006d00" stroke-width="8.3" stroke="#fff"/><path d="M495.8 549l.4 496.3m-71-176.8l71.2 105.9 70.5-106" transform="matrix(.00519 -.00496 .00647 .004 2.2 2.6)" fill="none" stroke-width="1.3" stroke="#000"/><path d="M425.1 797.2L496 903.5l70.9-106.4" transform="matrix(.00519 -.00496 .00647 .004 2.2 2.6)" fill="none" stroke-width="1.3" stroke="#000"/><path d="M425.4 726.4l70.8 106.2 70.5-106" transform="matrix(.00519 -.00496 .00647 .004 2.2 2.6)" fill="none" stroke-width="1.3" stroke="#000"/><path d="M425.2 673.4L496 762l70.8-88.9" transform="matrix(.00519 -.00496 .00647 .004 2.2 2.6)" fill="none" stroke-width="1.3" stroke="#000"/><path d="M425.4 620l71 88.8 70.3-88.5" transform="matrix(.00519 -.00496 .00647 .004 2.2 2.6)" fill="none" stroke-width="1.3" stroke="#000"/><path d="M443.3 567l52.8 106.3 53-106" transform="matrix(.00519 -.00496 .00647 .004 2.2 2.6)" fill="none" stroke-width="1.3" stroke="#000"/><path d="M496.1 549.5L514 620l35.3-53.4-17.8 88.7 35.4-35.2-35.4 88.2 35.5-35.2-35.6 88.7 35.6-35.7-35.2 106.5 35-35.5-35.1 106 35.4-35.1-35.7 106.2-17.3 53.1-18.2 18-17.7-17.7-17.7-53.6-35.2-106 35.3 35.5-35-106.4 35.1 35.8-35.5-106.7 35.3 35.4-35.4-88.4 35.4 35.4-35.2-88.8 35.3 35.4L443 567l35.7 53.2zm0 0" transform="matrix(.00333 .0059 -.0073 .00294 17 -1.6)" fill-rule="evenodd" fill="#006d00" stroke-width="8.3" stroke="#fff"/><path d="M496.1 549.5l-.3 495.9m-70.6-177.2l71 106.1L567 868.1" transform="matrix(.00333 .0059 -.0073 .00294 17 -1.6)" fill="none" stroke-width="1.3" stroke="#000"/><path d="M425.5 797.2l70.7 106.6 70.4-106.6" transform="matrix(.00333 .0059 -.0073 .00294 17 -1.6)" fill="none" stroke-width="1.3" stroke="#000"/><path d="M425 726.3l71 106.2 71-106.3" transform="matrix(.00333 .0059 -.0073 .00294 17 -1.6)" fill="none" stroke-width="1.3" stroke="#000"/><path d="M425 673.3l71.1 88.6 70.8-88.7" transform="matrix(.00333 .0059 -.0073 .00294 17 -1.6)" fill="none" stroke-width="1.3" stroke="#000"/><path d="M425.2 619.9l70.9 89 70.7-88.7" transform="matrix(.00333 .0059 -.0073 .00294 17 -1.6)" fill="none" stroke-width="1.3" stroke="#000"/><path d="M443 567l53 106 53-105.9" transform="matrix(.00333 .0059 -.0073 .00294 17 -1.6)" fill="none" stroke-width="1.3" stroke="#000"/><path d="M496 549l17.7 71.4L549 567l-17.3 88.5L567 620l-35.5 88.7 35.3-35.4-35.5 88.7 35.4-35.4-35 106L567 797l-35.6 106.4 35.4-35.4-35.7 106.3-17.3 52.9-17.5 17.9-18.1-17.4-17.6-53.4L425 867.9l35.4 36L425.3 797l35.4 35.9L425 726.5l35.7 35-35.6-88.3 35.2 35.4-35-88.7 35.3 35.9-17.6-89 35.3 53.4 18-70.8zm0 0" transform="matrix(-.0046 .00532 -.0069 -.0035 20.7 5.4)" fill-rule="evenodd" fill="#006d00" stroke-width="8.3" stroke="#fff"/><path d="M496 549l-.1 496.5m-70.6-177.2l70.8 106.3L567 868.1" transform="matrix(-.0046 .00532 -.0069 -.0035 20.7 5.4)" fill="none" stroke-width="1.3" stroke="#000"/><path d="M425.3 797L496 903.3 567 797" transform="matrix(-.0046 .00532 -.0069 -.0035 20.7 5.4)" fill="none" stroke-width="1.3" stroke="#000"/><path d="M425 726.5l70.8 106.2 71-106.1" transform="matrix(-.0046 .00532 -.0069 -.0035 20.7 5.4)" fill="none" stroke-width="1.3" stroke="#000"/><path d="M425.1 673.2l71 88.6 70.8-88.5" transform="matrix(-.0046 .00532 -.0069 -.0035 20.7 5.4)" fill="none" stroke-width="1.3" stroke="#000"/><path d="M425.2 619.9l71 88.6L567 620" transform="matrix(-.0046 .00532 -.0069 -.0035 20.7 5.4)" fill="none" stroke-width="1.3" stroke="#000"/><path d="M443 566.7l52.6 106.5L549 566.9" transform="matrix(-.0046 .00532 -.0069 -.0035 20.7 5.4)" fill="none" stroke-width="1.3" stroke="#000"/><path d="M496 549l17.6 71.3 35.5-53.3-17.7 88.5 35.5-35.2-35.5 88 35.5-35.1-35.3 88.8 35-35.6-35 106.5 35.3-36-35.4 106.9 35.4-36-35.4 106.9-18 52.8-17.2 18-18-18-17.7-53.3-35.3-105.8 35.3 34.9L424.8 797l35.9 35.3-35.4-105.7 35.4 34.8-35.5-88.5 35.4 35.7-35.5-88.5 35.5 35.6-18-88.9 35.8 53.3 18-70.8zm0 0" transform="matrix(-.00455 -.00454 .00518 -.00414 8 10.8)" fill-rule="evenodd" fill="#006d00" stroke-width="8.3" stroke="#fff"/><path d="M496 549l-.2 496m-70.5-176.6l71 106.2 70.6-106.8" transform="matrix(-.00455 -.00454 .00518 -.00414 8 10.8)" fill="none" stroke-width="1.3" stroke="#000"/><path d="M424.8 797.1l71 106.2L567 797" transform="matrix(-.00455 -.00454 .00518 -.00414 8 10.8)" fill="none" stroke-width="1.3" stroke="#000"/><path d="M425.3 726.7l71 106.2 70.3-106.5" transform="matrix(-.00455 -.00454 .00518 -.00414 8 10.8)" fill="none" stroke-width="1.3" stroke="#000"/><path d="M425.2 673l70.7 88.6 71-88.4" transform="matrix(-.00455 -.00454 .00518 -.00414 8 10.8)" fill="none" stroke-width="1.3" stroke="#000"/><path d="M425.1 620.2l70.7 88.5 71-88.4" transform="matrix(-.00455 -.00454 .00518 -.00414 8 10.8)" fill="none" stroke-width="1.3" stroke="#000"/><path d="M442.7 567L496 673.4l53-106.5" transform="matrix(-.00455 -.00454 .00518 -.00414 8 10.8)" fill="none" stroke-width="1.3" stroke="#000"/><path d="M460.7 549.3l28.6 70.5 42.5-53.1-10.7 89 27.9-35.4-17.2 88.3 25-35.5-25.3 88.6 35.2-35.2L531.5 833l35.5-35.8-35.5 106.4 35.4-35.8-35.5 106.4-17.6 53.2-17.9 18.2-17.5-18.1-18-53.2-35.3-106.1 35.4 35.5-35-106.7 35 35.4-35.4-106.1 35.5 35.5-45.7-88.4 45.5 35.2-53-88.5 43.2 35.1-25.6-88.4 35.7 53.1zm0 0" transform="matrix(-.00794 -.00175 -.0046 .00559 20 -.9)" fill-rule="evenodd" fill="#006d00" stroke-width="8.3" stroke="#fff"/><path d="M467.2 585l28.7 123.6v337" transform="matrix(-.00794 -.00175 -.0046 .00559 20 -.9)" fill="none" stroke-width="1.3" stroke="#000"/><path d="M436.1 885.6l60.2 88.8 60.3-88.8" transform="matrix(-.00794 -.00175 -.0046 .00559 20 -.9)" fill="none" stroke-width="1.3" stroke="#000"/><path d="M434.6 815.2l61.4 88.5 60.7-88.7" transform="matrix(-.00794 -.00175 -.0046 .00559 20 -.9)" fill="none" stroke-width="1.3" stroke="#000"/><path d="M435.4 744.2l61 88.3L556 744" transform="matrix(-.00794 -.00175 -.0046 .00559 20 -.9)" fill="none" stroke-width="1.3" stroke="#000"/><path d="M432.8 691l63.3 70.7 53.2-70.7" transform="matrix(-.00794 -.00175 -.0046 .00559 20 -.9)" fill="none" stroke-width="1.3" stroke="#000"/><path d="M425.4 637.5l71 71.2 45-71.2" transform="matrix(-.00794 -.00175 -.0046 .00559 20 -.9)" fill="none" stroke-width="1.3" stroke="#000"/><path d="M436.2 593.4l53.2 86.5 35-95.3" transform="matrix(-.00794 -.00175 -.0046 .00559 20 -.9)" fill="none" stroke-width="1.3" stroke="#000"/><path d="M460.7 549.3l28.5 71 42.4-53.6-10.1 88.5 28-35-18.1 88.4 25.4-35.6-25.4 88.7 35.3-35.4L531.2 833l36-36.1-35.6 106.6L567 868l-35.5 106-17.7 53.4-17.5 17.6-18.1-17.2-17.8-53.6-35-106.5 35.1 35.9-35-106.6 35.2 35.3L425 726.6l35.7 35.1-45.6-88.5 45.6 35.4-53-88.8 42.6 35.6-25.4-88.2 35.6 52.8zm0 0" transform="matrix(.00791 .00183 .00029 .0067 7 -3.8)" fill-rule="evenodd" fill="#006d00" stroke-width="8.3" stroke="#fff"/><path d="M467.3 584.8l29 124v336.3" transform="matrix(.00791 .00183 .00029 .0067 7 -3.8)" fill="none" stroke-width="1.3" stroke="#000"/><path d="M436 885.9l60 88.6 60.5-88.9" transform="matrix(.00791 .00183 .00029 .0067 7 -3.8)" fill="none" stroke-width="1.3" stroke="#000"/><path d="M434.7 815l61.4 88.3 60.5-88.4" transform="matrix(.00791 .00183 .00029 .0067 7 -3.8)" fill="none" stroke-width="1.3" stroke="#000"/><path d="M435.3 744.2l61 88.4 59.4-88.7" transform="matrix(.00791 .00183 .00029 .0067 7 -3.8)" fill="none" stroke-width="1.3" stroke="#000"/><path d="M432.8 691.2l63.5 70.7 53-71" transform="matrix(.00791 .00183 .00029 .0067 7 -3.8)" fill="none" stroke-width="1.3" stroke="#000"/><path d="M425.4 637.8l70.9 71 45-70.7" transform="matrix(.00791 .00183 .00029 .0067 7 -3.8)" fill="none" stroke-width="1.3" stroke="#000"/><path d="M435.9 593.4l53.5 87 35.2-96" transform="matrix(.00791 .00183 .00029 .0067 7 -3.8)" fill="none" stroke-width="1.3" stroke="#000"/><path d="M354.2 531.7l88.8 88.5 17.4-53.3.4 88.5 35.2-35-17.8 88.2L514 673l-17.7 88.8 35-35.5-17.6 106.3 35.8-35.1-35.3 106 35-35.5-17.6 106.3-18 53.3-17.5 17.8-17.7-17.7-17.4-53.2-53.7-82.6 35.7 11.9-35.4-106.5 35.5 35.4-53-106.1 35 35.5-53-88.7 53.2 35-71.1-88.2 53.1 35L337 585l70.8 35.4zm0 0" transform="matrix(.00101 -.00641 .00715 .00114 3.4 6.3)" fill-rule="evenodd" fill="#006d00" stroke-width="8.3" stroke="#fff"/><path d="M378.7 559.9l64.5 95.8 17.4 53.2 8.7 45.3 9 78.4 9.6 70.8 8.1 142" transform="matrix(.00101 -.00641 .00715 .00114 3.4 6.3)" fill="none" stroke-width="1.3" stroke="#000"/><path d="M425.1 903.6l63.8 70.7 50.6-88.6" transform="matrix(.00101 -.00641 .00715 .00114 3.4 6.3)" fill="none" stroke-width="1.3" stroke="#000"/><path d="M416.7 815.1l71.2 88.3 50.6-88.6" transform="matrix(.00101 -.00641 .00715 .00114 3.4 6.3)" fill="none" stroke-width="1.3" stroke="#000"/><path d="M407.5 752.5l70.8 80.2 45.8-88.5M372 638l88.7 71 25.8-70.8" transform="matrix(.00101 -.00641 .00715 .00114 3.4 6.3)" fill="none" stroke-width="1.3" stroke="#000"/><path d="M360.7 602.3l82.5 53.4 10-53.4m-63.4 88.8l80.9 71 34.2-71.4" transform="matrix(.00101 -.00641 .00715 .00114 3.4 6.3)" fill="none" stroke-width="1.3" stroke="#000"/><path d="M541.8 1173.3l-2-229.6L478.3 837c-14.6-52.2-7.8-77.2 17.6-79.5 24.4-1.1 48.8 13.6 85 14.8 35 2.2 28.2-59.1 81-56.8 52.6 1.1 144.4 31.8 222.5 37.5 78 4.5 119-27.3 208.9-30.7 89.8-3.4 113.2 42 119 42 5 0 30.3-18.2 55.7-21.6 25.4-3.4 34.2 10.3 34.2 10.3s-2 56.8-13.7 90.9-54.6 89.7-56.6 89.7c-1 0-14.6 250-14.6 252.3 0 1.1-675.5-6.9-675.5-12.5zm0 0" transform="matrix(.004 0 0 .00344 7.8 5.7)" fill-rule="evenodd" fill="#c00" stroke-width="1.3" stroke="#000"/><path d="M531 584.1s-67.3-51.1-69.3-176c-1-72.8 34.2-125 123-125 124 0 300.7 53.3 300.7 53.3v18.2s-141.6-53.4-300.7-53.4c-71.2 0-106.4 52.3-106.4 105.7 0 88.6 71.3 178.4 71.3 178.4v140.9H531zm0 0" transform="matrix(-.004 0 0 .00344 14.9 7)" fill-rule="evenodd" fill="#fff100" stroke-width="1.3" stroke="#000"/><path d="M478.8 549.4c0 9-8.8 17-18.5 17-9.8 0-17.6-8-17.6-17 0-10.3 7.8-18.2 17.6-18.2 9.7 0 18.5 8 18.5 18.2zm0 0" transform="matrix(-.004 0 0 .00344 14.8 6.9)" fill-rule="evenodd" fill="#fff" stroke-width="1.3" stroke="#000"/><path d="M478.8 549c0 10.2-8.8 18.2-18.5 18.2-9.8 0-17.6-8-17.6-18.2 0-9 7.8-17 17.6-17 9.7 0 18.5 8 18.5 17zm0 0" transform="matrix(-.004 0 0 .00344 14.9 6.8)" fill-rule="evenodd" fill="#fff" stroke-width="1.3" stroke="#000"/><path d="M478.6 549.5c0 9-7.8 17-17.6 17s-18.6-8-18.6-17c0-10.2 8.8-18.2 18.6-18.2s17.6 8 17.6 18.2zm0 0" transform="matrix(-.004 0 0 .00344 15 6.6)" fill-rule="evenodd" fill="#fff" stroke-width="1.3" stroke="#000"/><path d="M478.3 549c0 10.1-7.8 18-17.6 18a17.5 17.5 0 110-35.2c9.8 0 17.6 8 17.6 17.1zm0 0" transform="matrix(-.004 0 0 .00344 15 6.5)" fill-rule="evenodd" fill="#fff" stroke-width="1.3" stroke="#000"/><path d="M478.8 549c0 10.1-8.8 18-18.5 18a17.5 17.5 0 110-35.2c9.7 0 18.5 8 18.5 17.1zm0 0" transform="matrix(-.004 0 0 .00344 15 6.3)" fill-rule="evenodd" fill="#fff" stroke-width="1.3" stroke="#000"/><path d="M478.6 548.8c0 10.2-7.8 18.2-17.6 18.2s-18.6-8-18.6-18.2c0-9 8.8-17 18.6-17s17.6 7.9 17.6 17zm0 0" transform="matrix(-.004 0 0 .00344 14.7 7)" fill-rule="evenodd" fill="#fff" stroke-width="1.3" stroke="#000"/><path d="M478 548.8c0 10.2-7.7 18.2-17.5 18.2s-17.6-8-17.6-18.2c0-9 7.8-17 17.6-17s17.6 7.9 17.6 17zm0 0" transform="matrix(-.004 0 0 .00344 14.9 6.2)" fill-rule="evenodd" fill="#fff" stroke-width="1.3" stroke="#000"/><path d="M478.3 549.4c0 9-7.8 17-17.6 17-9.7 0-17.5-8-17.5-17 0-10.3 7.8-18.2 17.5-18.2 9.8 0 17.6 8 17.6 18.2zm0 0" transform="matrix(-.004 0 0 .00344 14.8 6)" fill-rule="evenodd" fill="#fff" stroke-width="1.3" stroke="#000"/><path d="M478.3 549.4c0 9-7.8 17-17.6 17-9.7 0-17.5-8-17.5-17 0-10.3 7.8-18.2 17.5-18.2 9.8 0 17.6 8 17.6 18.2zm0 0" transform="matrix(-.004 0 0 .00344 14.6 6)" fill-rule="evenodd" fill="#fff" stroke-width="1.3" stroke="#000"/><path d="M478.3 549.1c0 10.3-7.8 18.2-17.6 18.2-9.7 0-17.5-8-17.5-18.2S451 531 460.7 531c9.8 0 17.6 8 17.6 18.1zm0 0" transform="matrix(-.004 0 0 .00344 14.4 6)" fill-rule="evenodd" fill="#fff" stroke-width="1.3" stroke="#000"/><path d="M478.6 548.7c0 10.2-7.8 18.2-17.6 18.2s-18.6-8-18.6-18.2c0-9.1 8.8-17 18.6-17s17.6 7.9 17.6 17zm0 0" transform="matrix(-.004 0 0 .00344 14.2 6)" fill-rule="evenodd" fill="#fff" stroke-width="1.3" stroke="#000"/><path d="M478.8 549.5c0 9-8.8 17-18.5 17-9.8 0-17.6-8-17.6-17 0-10.2 7.8-18.2 17.6-18.2 9.7 0 18.5 8 18.5 18.2zm0 0" transform="matrix(-.004 0 0 .00344 14 6)" fill-rule="evenodd" fill="#fff" stroke-width="1.3" stroke="#000"/><path d="M478.8 548.8c0 10.2-8.8 18.2-18.5 18.2-9.8 0-17.6-8-17.6-18.2 0-9 7.8-17 17.6-17 9.7 0 18.5 7.9 18.5 17zm0 0" transform="matrix(-.004 0 0 .00344 13.8 6)" fill-rule="evenodd" fill="#fff" stroke-width="1.3" stroke="#000"/><path d="M478.3 548.8c0 10.2-7.8 18.2-17.6 18.2-9.7 0-17.5-8-17.5-18.2 0-9 7.8-17 17.5-17 9.8 0 17.6 7.9 17.6 17zm0 0" transform="matrix(-.004 0 0 .00344 13.6 6)" fill-rule="evenodd" fill="#fff" stroke-width="1.3" stroke="#000"/><path d="M478.3 549.7c0 9-7.8 17-17.6 17-9.7 0-17.5-8-17.5-17 0-10.2 7.8-18.2 17.5-18.2 9.8 0 17.6 8 17.6 18.2zm0 0" transform="matrix(-.004 0 0 .00344 13.5 6)" fill-rule="evenodd" fill="#fff" stroke-width="1.3" stroke="#000"/><path d="M478.8 549.4c0 9-8.8 17-18.5 17-9.8 0-17.6-8-17.6-17 0-10.3 7.8-18.2 17.6-18.2 9.7 0 18.5 8 18.5 18.2zm0 0" transform="matrix(.004 0 0 .00344 7.9 6.9)" fill-rule="evenodd" fill="#fff" stroke-width="1.3" stroke="#000"/><path d="M478.6 549c0 10.2-7.8 18.2-17.6 18.2s-18.6-8-18.6-18.2c0-9 8.8-17 18.6-17s17.6 8 17.6 17zm0 0" transform="matrix(.004 0 0 .00344 7.8 6.8)" fill-rule="evenodd" fill="#fff" stroke-width="1.3" stroke="#000"/><path d="M478.6 549.5c0 9-7.8 17-17.6 17s-18.6-8-18.6-17c0-10.2 8.8-18.2 18.6-18.2s17.6 8 17.6 18.2zm0 0" transform="matrix(.004 0 0 .00344 7.8 6.6)" fill-rule="evenodd" fill="#fff" stroke-width="1.3" stroke="#000"/><path d="M478.3 549c0 10.1-7.8 18-17.6 18a17.5 17.5 0 110-35.2c9.8 0 17.6 8 17.6 17.1zm0 0" transform="matrix(.004 0 0 .00344 7.7 6.5)" fill-rule="evenodd" fill="#fff" stroke-width="1.3" stroke="#000"/><path d="M478.8 549c0 10.1-8.8 18-18.5 18a17.5 17.5 0 110-35.2c9.7 0 18.5 8 18.5 17.1zm0 0" transform="matrix(.004 0 0 .00344 7.7 6.3)" fill-rule="evenodd" fill="#fff" stroke-width="1.3" stroke="#000"/><path d="M478.8 548.8c0 10.2-8.8 18.2-18.5 18.2-9.8 0-17.6-8-17.6-18.2 0-9 7.8-17 17.6-17 9.7 0 18.5 7.9 18.5 17zm0 0" transform="matrix(.004 0 0 .00344 7.8 6.2)" fill-rule="evenodd" fill="#fff" stroke-width="1.3" stroke="#000"/><path d="M478.8 549.4c0 9-8.8 17-18.5 17-9.8 0-17.6-8-17.6-17 0-10.3 7.8-18.2 17.6-18.2 9.7 0 18.5 8 18.5 18.2zm0 0" transform="matrix(.004 0 0 .00344 8 6)" fill-rule="evenodd" fill="#fff" stroke-width="1.3" stroke="#000"/><path d="M478 549.4c0 9-7.7 17-17.5 17s-17.6-8-17.6-17c0-10.3 7.8-18.2 17.6-18.2s17.6 8 17.6 18.2zm0 0" transform="matrix(.004 0 0 .00344 8.1 6)" fill-rule="evenodd" fill="#fff" stroke-width="1.3" stroke="#000"/><path d="M478 549.1c0 10.3-7.7 18.2-17.5 18.2s-17.6-8-17.6-18.2 7.8-18.1 17.6-18.1 17.6 8 17.6 18.1zm0 0" transform="matrix(.004 0 0 .00344 8.3 6)" fill-rule="evenodd" fill="#fff" stroke-width="1.3" stroke="#000"/><path d="M478.3 548.7c0 10.2-7.8 18.2-17.6 18.2-9.7 0-17.5-8-17.5-18.2 0-9.1 7.8-17 17.5-17 9.8 0 17.6 7.9 17.6 17zm0 0" transform="matrix(.004 0 0 .00344 8.5 6)" fill-rule="evenodd" fill="#fff" stroke-width="1.3" stroke="#000"/><path d="M478.6 549.5c0 9-7.8 17-17.6 17s-18.6-8-18.6-17c0-10.2 8.8-18.2 18.6-18.2s17.6 8 17.6 18.2zm0 0" transform="matrix(.004 0 0 .00344 8.7 6)" fill-rule="evenodd" fill="#fff" stroke-width="1.3" stroke="#000"/><path d="M478.8 548.8c0 10.2-8.8 18.2-18.5 18.2-9.8 0-17.6-8-17.6-18.2 0-9 7.8-17 17.6-17 9.7 0 18.5 7.9 18.5 17zm0 0" transform="matrix(.004 0 0 .00344 8.9 6)" fill-rule="evenodd" fill="#fff" stroke-width="1.3" stroke="#000"/><path d="M478 548.8c0 10.2-7.7 18.2-17.5 18.2s-17.6-8-17.6-18.2c0-9 7.8-17 17.6-17s17.6 7.9 17.6 17zm0 0" transform="matrix(.004 0 0 .00344 9 6)" fill-rule="evenodd" fill="#fff" stroke-width="1.3" stroke="#000"/><path d="M478 549.7c0 9-7.7 17-17.5 17s-17.6-8-17.6-17c0-10.2 7.8-18.2 17.6-18.2s17.6 8 17.6 18.2zm0 0" transform="matrix(.004 0 0 .00344 9.2 6)" fill-rule="evenodd" fill="#fff" stroke-width="1.3" stroke="#000"/><path d="M478.3 548.8c0 10.2-7.8 18.2-17.6 18.2-9.7 0-17.5-8-17.5-18.2 0-9 7.8-17 17.5-17 9.8 0 17.6 7.9 17.6 17zm0 0" transform="matrix(.004 0 0 .00344 8 7)" fill-rule="evenodd" fill="#fff" stroke-width="1.3" stroke="#000"/><path d="M531 584.1s-67.3-51.1-69.3-176c-1-72.8 34.2-125 123-125 124 0 300.7 53.3 300.7 53.3v18.2s-141.6-53.4-300.7-53.4c-71.2 0-106.4 52.3-106.4 105.7 0 88.6 71.3 178.4 71.3 178.4v140.9H531zm0 0" transform="matrix(.004 0 0 .00344 7.8 7)" fill-rule="evenodd" fill="#fff100" stroke-width="1.3" stroke="#000"/><path d="M1240.2 530.9s14.7-35.8 70.3-35.8c38 0 70.3 35.8 70.3 71.6v71.5h38v-71.5c0-35.8 35.2-71.6 70.3-71.6 52.7 0 70.3 35.8 70.3 35.8s0-104.4-70.3-104.4c-52.7 0-70.3 32.8-70.3 32.8s17.6-50.7 17.6-104.4-38-89.5-38-89.5c0 6-35.2 35.8-35.2 89.5s17.6 104.4 17.6 104.4-17.6-32.8-70.3-32.8c-70.3 0-70.3 104.4-70.3 104.4zm0 0" transform="matrix(.00133 0 0 .00131 8.8 8.4)" fill-rule="evenodd" fill="#fff100" stroke-width="3" stroke="#000"/><path d="M1240.2 530.9s14.7-35.8 70.3-35.8c38 0 70.3 35.8 70.3 71.6v71.5h38v-71.5c0-35.8 35.2-71.6 70.3-71.6 52.7 0 70.3 35.8 70.3 35.8s0-104.4-70.3-104.4c-52.7 0-70.3 32.8-70.3 32.8s17.6-50.7 17.6-104.4-38-89.5-38-89.5c0 6-35.2 35.8-35.2 89.5s17.6 104.4 17.6 104.4-17.6-32.8-70.3-32.8c-70.3 0-70.3 104.4-70.3 104.4zm0 0" transform="matrix(.00133 0 0 .00131 10.2 8.4)" fill-rule="evenodd" fill="#fff100" stroke-width="3" stroke="#000"/><path d="M531 833V672.8s36.1 53.4 88.9 53.4c43.9 0 88.8-70.5 88.8-70.5s42 53.4 88.8 53.4c42 0 87.9-69.3 87.9-69.3s43.9 69.3 88.8 69.3c45.9 0 88.8-53.4 88.8-53.4s46 70.5 106.4 70.5c52.7 0 70.3-53.4 70.3-53.4V833zm0 0" transform="matrix(.004 0 0 .00344 7.8 7)" fill-rule="evenodd" fill="#fff100" stroke-width="1.3" stroke="#000"/><path d="M709.2 833V709S814.6 744.3 814.6 833zm0 0" transform="matrix(.004 0 0 .00344 7.1 7)" fill-rule="evenodd" fill="#fff100" stroke-width="1.3" stroke="#000"/><path d="M708.4 833V709S814.8 744.3 814.8 833zm0 0" transform="matrix(-.004 0 0 .00344 15.6 7)" fill-rule="evenodd" fill="#fff100" stroke-width="1.3" stroke="#000"/><path d="M602.3 833c0-88.7 106.4-145.5 106.4-145.5S815 744.3 815 833zm0 0" transform="matrix(.004 0 0 .00344 7.8 7)" fill-rule="evenodd" fill="#fff100" stroke-width="1.3" stroke="#000"/><path d="M602.3 833c0-88.7 106.4-145.5 106.4-145.5S815 744.3 815 833zm0 0" transform="matrix(.004 0 0 .00344 9.2 7)" fill-rule="evenodd" fill="#fff100" stroke-width="1.3" stroke="#000"/><path d="M584.2 847.3c0-88.6 125-159 125-159s124 70.4 124 159zm0 0" transform="matrix(.004 0 0 .00344 8.5 6.9)" fill-rule="evenodd" fill="#fff100" stroke-width="1.3" stroke="#000"/><path d="M1275.3 655.6c-35.5-18.2-165.8-35.2-376.1-35.2s-349.5 17-385 35.2c-35.6 17-35.6 53.4 0 70.4 35.5 18.2 174.7 35.3 385 35.3s340.6-17 376.1-35.3c35.6-17 35.6-53.4 0-70.4zm0 0" transform="matrix(.00396 0 0 .00344 7.8 7.5)" fill-rule="evenodd" fill="#fff" stroke-width="1.3" stroke="#000"/><path d="M12.8 10l-1.4.1H9.9c0-.2 1.2-.2 1.5-.2l1.4.1zm0 0" fill-rule="evenodd" fill="gray"/><path d="M10 9.6zm2.8 0h-.1zm0 0" fill-rule="evenodd" fill="#c00"/><path d="M11.5 9.5l-.1.1h-.2l.2-.1zm0 0" fill-rule="evenodd"/><path d="M12.2 9.5l-.1.1H12v-.1h.2zm-1.5 0v.1h-.2l.1-.1h.1zm0 0" fill-rule="evenodd" fill="#006300"/><path d="M1258.6 495s34.2-51.6 70-51.6h36v35.8c0 51.7-53 69.6-53 69.6h141.7s-53-18-53-69.6v-35.8h34.2c36 0 71.8 53.7 71.8 53.7V353.9s-35.9 53.7-71.8 53.7h-34.1v-35.8c0-53.7 53-71.6 53-71.6h-141.8s53 18 53 71.6v35.8h-36c-35.8 0-70-53.7-70-53.7v143.2zm0 0" transform="matrix(.00229 0 0 .00196 8.2 8.1)" fill-rule="evenodd" fill="#fff100" stroke-width="2.2" stroke="#000"/><path d="M1381.8 549.7h71.8s-54.7-18.2-54.7-70.5V443h37.6c34.2 0 68.3 52.2 68.3 52.2V354.2s-34.1 52.3-68.3 52.3h-37.6v-34c0-54.6 54.7-70.5 54.7-70.5h-71.8zm0 0" transform="matrix(.00114 0 0 .00172 8.3 8.4)" fill-rule="evenodd" fill="#fff100" stroke-width="3.3" stroke="#000"/><path d="M1382.7 549.7h71.7s-54.6-18.2-54.6-70.5V443h34.1c37.6 0 71.8 52.2 71.8 52.2V354.2s-34.2 52.3-71.8 52.3h-34.1v-34c0-54.6 54.6-70.5 54.6-70.5h-71.7zm0 0" transform="matrix(-.00114 0 0 .00172 14.3 8.4)" fill-rule="evenodd" fill="#fff100" stroke-width="3.3" stroke="#000"/><path d="M904 602.3c0 10.2-8.9 18.2-18.6 18.2-9.8 0-17.6-8-17.6-18.2s7.8-17 17.6-17c9.7 0 18.5 6.8 18.5 17zm0 0" transform="matrix(.004 0 0 .00344 7.8 7)" fill-rule="evenodd" fill="#fff" stroke-width="1.3" stroke="#000"/><path d="M1258.6 496.3s34.2-53.7 70-53.7h36v35.8c0 53.7-53 71.6-53 71.6h141.7s-53-18-53-71.6v-35.8h34.2c36 0 71.8 53.7 71.8 53.7V355s-35.9 51.7-71.8 51.7h-34.1V371c0-51.7 53-69.6 53-69.6h-141.8s53 18 53 69.6v35.8h-36c-35.8 0-70-51.7-70-51.7zm0 0" transform="matrix(.00229 0 0 .00196 8.2 6.9)" fill-rule="evenodd" fill="#fff100" stroke-width="2.2" stroke="#000"/><path d="M903.4 602c0 10.3-7.8 18.3-17.5 18.3-9.8 0-17.6-8-17.6-18.2 0-9.1 7.8-17 17.6-17 9.7 0 17.5 7.9 17.5 17zm0 0" transform="matrix(.004 0 0 .00344 7.8 5.6)" fill-rule="evenodd" fill="#fff" stroke-width="1.3" stroke="#000"/><path d="M850.2 655.1h71.3v53.4h-71.3zm0 0" transform="matrix(.004 0 0 .00344 7.8 5.7)" fill-rule="evenodd" fill="#fff100" stroke-width="1.3" stroke="#000"/><path d="M850.2 683.6h71.3v202.2h-71.3zm0 0" transform="matrix(.004 0 0 .00344 7.8 5.7)" fill-rule="evenodd" fill="#fff100" stroke-width="1.3" stroke="#000"/><path d="M478.3 548.8c0 10.2-7.8 18.2-17.6 18.2-9.7 0-17.5-8-17.5-18.2 0-9 7.8-17 17.5-17 9.8 0 17.6 7.9 17.6 17zm0 0" transform="matrix(.004 0 0 .00344 9.5 6.7)" fill-rule="evenodd" fill="#fff" stroke-width="1.3" stroke="#000"/><path d="M478.3 548.7c0 10.2-7.8 18.2-17.6 18.2-9.7 0-17.5-8-17.5-18.2 0-9.1 7.8-17 17.5-17 9.8 0 17.6 7.9 17.6 17zm0 0" transform="matrix(.004 0 0 .00344 9.5 6.6)" fill-rule="evenodd" fill="#fff" stroke-width="1.3" stroke="#000"/><path d="M478.3 548.8c0 10.2-7.8 18.2-17.6 18.2-9.7 0-17.5-8-17.5-18.2 0-9 7.8-17 17.5-17 9.8 0 17.6 7.9 17.6 17zm0 0" transform="matrix(.004 0 0 .00344 9.5 6.4)" fill-rule="evenodd" fill="#fff" stroke-width="1.3" stroke="#000"/><path d="M478.3 549c0 10.2-7.8 18.2-17.6 18.2-9.7 0-17.5-8-17.5-18.2 0-9 7.8-17 17.5-17 9.8 0 17.6 8 17.6 17zm0 0" transform="matrix(.004 0 0 .00344 9.5 6.3)" fill-rule="evenodd" fill="#fff" stroke-width="1.3" stroke="#000"/><path d="M11.5 9.8H11.2 11.5zm1.3 0l-.2.1h.2zm-.5 0H12 12 12.3zm-2.4 0l.1.1H10zm.5 0H10.6h-.2zm0 0" fill-rule="evenodd"/></svg>