<svg xmlns="http://www.w3.org/2000/svg" width="20" height="14"><path d="M0 4.7h20v4.6H0zm0 0" fill="#fff"/><path d="M0 0h20v4.7H0zm0 0" fill="#ce1126"/><path d="M0 9.3h20V14H0zm0 0"/><path d="M12.2 6.1h.3V6H12.9c0-.1.1-.1.1 0a.1.1 0 010 .1h-.4a.3.3 0 01-.3 0zm.3-.2a.3.3 0 010-.2V6zm-3.7-.1L9 6H9L7.7 7.3H9c0-.3.3-.3.5-.4 0 .1.3 0 .4.3V8H6.2a.5.5 0 01-.2.3.6.6 0 01-.5 0c.2 0 .3 0 .4-.2l-.2-.7.4-.2c-.2.3.3.3.7.3l-.1-.3L7 7v.5h2.5V7c-.2 0 0 .3-.1.3h-2V7l.6-.6.8-.7zm5 0l.3.2v1.5l.2-.1.2.6h-.8zm-1.2.7l.3-.2v1.2h.2V6l.3-.3V8h-1.8c0-.5 0-1 .5-.8V7l.3-.3v.8h.2zm-.6 1h.1c0-.2-.2-.1-.1 0zm0 0" fill="#007a3d"/><path d="M6.8 8.3H6.5l.2-.2v.1zM10 5.8l.4.2v1.5l.2-.1.2.6h-.8zm0 0" fill="#007a3d"/></svg>