<svg xmlns="http://www.w3.org/2000/svg" width="20" height="14"><path fill="#fff" d="M0 0h20v14H0z"/><path d="M0 0h20v4.2H0zm0 0"/><path d="M0 9.8h20V14H0zm0 0" fill="#060"/><path d="M-28.6 47.5l1.8 1 46.7-81c2.7-.6 4.2-3.2 5.7-5.8 1-1.8 5-8.7 6.7-17.7a56.9 56.9 0 00-11.9 14.7c-1.5 2.6-3 5.2-2.3 8zm0 0" transform="matrix(.09375 0 0 .0875 10 7)" stroke="#000" stroke-miterlimit="10"/><path d="M7.3 11.2h.2l4.4-7c.2 0 .4-.3.5-.6 0-.1.5-.7.6-1.5a5 5 0 00-1 1.3c-.2.2-.4.4-.3.7zm0 0" fill="#fff"/><path d="M-28.6 47.5l1.8 1 46.7-81c2.7-.6 4.2-3.2 5.7-5.8 1-1.8 5-8.7 6.7-17.7a56.9 56.9 0 00-11.9 14.7c-1.5 2.6-3 5.2-2.3 8zm0 0" transform="matrix(-.09375 0 0 .0875 10 7)" stroke="#000" stroke-miterlimit="10"/><path d="M12.7 11.2h-.2l-4.4-7c-.2 0-.4-.3-.5-.6 0-.1-.5-.7-.6-1.5.4.4.8.8 1 1.3.2.2.4.4.3.7zm0 0" fill="#fff"/><path d="M20 4.9h-8.2c-.3-.7-1.2-2.1-1.8-2.1-.6 0-1.5 1.4-1.8 2.1H0v4.2h8.2c.3.7 1.2 2.1 1.8 2.1.6 0 1.5-1.4 1.8-2.1H20zm0 0" fill="#b00"/><path d="M11.8 9.1c.3-.7.4-1.4.4-2.1 0-.7-.1-1.4-.4-2.1-.3.7-.5 1.4-.5 2.1 0 .7.2 1.4.5 2.1m-3.6 0C8 8.4 7.8 7.7 7.8 7c0-.7.1-1.4.4-2.1.3.7.5 1.4.5 2.1 0 .7-.2 1.4-.5 2.1"/><path d="M10.4 7c0 .3-.2.5-.4.5s-.4-.2-.4-.5.2-.5.4-.5.4.2.4.5zm0 0M10 7.5s.5.7.5 1.8c0 1.2-.4 1.9-.4 1.9zm0-1s-.5-.7-.5-1.8c0-1.2.4-1.9.4-1.9zm0 1s-.5.7-.5 1.8c0 1.2.4 1.9.4 1.9zm0-1s.5-.7.5-1.8c0-1.2-.4-1.9-.4-1.9zm0 0" fill="#fff"/></svg>