<svg xmlns="http://www.w3.org/2000/svg" width="20" height="14"><defs><clipPath id="a"><path d="M0 0h20v14H0zm0 0"/></clipPath><clipPath id="b"><path d="M0 11h20v3H0zm0 0"/></clipPath><clipPath id="c"><path d="M0 0h20v14H0zm0 0"/></clipPath><clipPath id="d"><path d="M0 3h20v8H0zm0 0"/></clipPath><clipPath id="e"><path d="M0 0h20v14H0zm0 0"/></clipPath><clipPath id="f"><path d="M0 0h20v3H0zm0 0"/></clipPath><clipPath id="g"><path d="M0 0h20v14H0zm0 0"/></clipPath><clipPath id="h"><path d="M2 3h8v8H2zm0 0"/></clipPath><clipPath id="i"><path d="M0 0h20v14H0zm0 0"/></clipPath><clipPath id="j"><path d="M3 4h6v6H3zm0 0"/></clipPath><clipPath id="k"><path d="M0 0h20v14H0zm0 0"/></clipPath></defs><g clip-path="url(#a)"><path d="M776 511.4H-76V.5h852zm0 0" transform="matrix(.0293 0 0 .02735 -.1 0)" fill-rule="evenodd" fill="#fff" stroke="#000"/></g><g clip-path="url(#b)"><g clip-path="url(#c)"><path d="M22.6 11.5h-25V14h25zm0 0" fill-rule="evenodd" fill="#3e5698"/></g></g><g clip-path="url(#d)"><g clip-path="url(#e)"><path d="M22.6 10.9h-25V3h25zm0 0" fill-rule="evenodd" fill="#c60000"/></g></g><g clip-path="url(#f)"><g clip-path="url(#g)"><path d="M22.6 0h-25v2.5h25zm0 0" fill-rule="evenodd" fill="#3e5698"/></g></g><g clip-path="url(#h)"><g clip-path="url(#i)"><path d="M9.5 7c0 1.7-1.6 3.1-3.5 3.1S2.5 8.7 2.5 7c0-1.7 1.6-3.1 3.5-3.1 2 0 3.5 1.4 3.5 3.1zm0 0" fill-rule="evenodd" fill="#fff"/></g></g><g clip-path="url(#j)"><g clip-path="url(#k)"><path d="M5 7.4L3.3 6.3h2.1l.7-1.8.6 1.8h2l-1.6 1 .6 1.9L6 8.1 4.3 9.2zm0 0" fill-rule="evenodd" fill="#c40000"/></g></g></svg>