<svg xmlns="http://www.w3.org/2000/svg" width="20" height="14"><path fill="#6fdcff" d="M0 0h20v14H0z"/><path d="M1.9 13.6c0 .1 0 .3.3.2.5 0 .5-.2.5-.4S2 13 2 12.8c0-.3.1-.4.3-.4l.3.2h-.2c-.1 0 0 0 0 0l-.2.1s.2.1.4 0l-.2.4h.3v-.5a.2.2 0 00-.1-.2H2c-.3 0-.3.4-.2.4l.6.6c0 .1 0 .3-.2.3-.3 0-.4-.3-.4-.4-.1 0-.2.4-.5.4-.2 0-.3-.2-.2-.3l.6-.6s0-.3-.2-.4h-.5a.2.2 0 00-.1.2v.5h.3l-.2-.4h.4l-.2-.1s.1 0 0 0h-.2s.1-.2.3-.2c.1 0 .3.1.3.4 0 .2-.7.5-.7.7 0 .1 0 .3.5.3.2 0 .3 0 .4-.2zm0 0M1.8 10c.1 0 .2-.4.5-.3.4 0 .6.2.6.4 0 .1-.9 1.5-.9 1.8 0 .2.2.3.3.3l.3-.1-.2-.1c-.1 0 0 0 0 0-.2.1-.2 0-.2 0 0-.1.2-.1.4 0l-.2-.5h.3v.6a.2.2 0 01-.1.1H2c-.2 0-.2-.3-.1-.4l.8-1.7s0-.3-.3-.3-.4.3-.5.4h.4a3.3 3.3 0 00-.4 0v.3h.2H2v.2h-.1v-.2h-.2.1v-.2h-.3V10h.3s-.1-.3-.4-.3c-.3 0-.4.2-.3.3l.8 1.7c0 .1 0 .4-.2.5h-.5A.2.2 0 011 12v-.5h.3l-.2.3h.4l-.1.2c-.1 0 0-.1 0-.1H1c0 .1.1.2.3.2.1 0 .3 0 .3-.3s-1-1.7-1-1.8c0-.2.2-.4.7-.4.2 0 .4.2.5.3zm0 0" fill-rule="evenodd" fill="#ffe400"/><path d="M1.8 9.3c.1.1.2.4.5.4.4 0 .6-.3.6-.4C3 9 2 7.7 2 7.4c0-.2.2-.3.3-.3l.3.2h-.2c-.1 0 0 0 0 0h-.2c0 .1.2.2.4.1l-.2.4h.3v-.5a.2.2 0 00-.1-.2H2c-.2 0-.2.3-.1.4l.8 1.7s0 .3-.3.3-.4-.2-.5-.3h.4V9A6.5 6.5 0 012 9v-.2h.2v-.1H2v-.2h-.1v.2h-.2.1V9h-.3v.2h.3s-.1.4-.4.3c-.3 0-.4-.2-.3-.3l.8-1.7s0-.4-.2-.5h-.5a.2.2 0 00-.1.3s.1.3 0 .4l.3.1-.2-.4h.4s0-.2-.1-.1c-.1 0 0 0 0 0H1s.1-.2.3-.2c.1 0 .3 0 .3.3s-1 1.7-1 1.9c0 .1.2.4.7.4.2 0 .4-.3.5-.4zm0 0" fill-rule="evenodd" fill="#ffe400"/><path d="M1.8 4.7c.1-.1.2-.4.5-.4.4 0 .6.3.6.4C3 5 2 6.3 2 6.6c0 .2.2.3.3.3.1 0 .3 0 .3-.2h-.2c-.1 0 0 0 0 0h-.2c0-.1.2-.2.4-.1l-.2-.4h.3v.5a.2.2 0 01-.1.2H2c-.2 0-.2-.3-.1-.4l.8-1.7s0-.3-.3-.3-.4.2-.5.3h.4V5A3.3 3.3 0 002 5v.2h.2v.1H2v.2h-.1v-.2h-.2.2V5h-.4v-.2h.3s-.1-.4-.4-.3c-.3 0-.4.2-.3.3l.8 1.7s0 .4-.2.5h-.5a.2.2 0 01-.1-.3s.1-.3 0-.4l.3-.1-.2.4h.4s0 .2-.1.1c-.1 0 0 0 0 0H1s.1.2.3.2c.1 0 .3 0 .3-.3s-1-1.7-1-1.9c0-.1.2-.4.7-.4.2 0 .4.3.5.4zm0 0" fill-rule="evenodd" fill="#ffe400"/><path d="M1.8 4c.1 0 .2.4.5.3.4 0 .6-.2.6-.4C3 3.8 2 2.4 2 2.1c0-.2.2-.3.3-.3l.3.1-.2.1c-.1 0 0 0 0 0-.2-.1-.2 0-.2 0 0 .1.2.1.4 0l-.2.5h.3v-.6a.2.2 0 00-.1-.1H2c-.2 0-.2.3-.1.4l.8 1.7s0 .3-.3.3S2 4 2 3.8h.3a4.3 4.3 0 01-.3 0v-.3H2 2v-.2h-.1v.2h-.2.2v.2h-.4a.2.2 0 000 .2h.3s-.1.3-.4.3C1 4.2 1 4 1 4l.8-1.7c0-.1 0-.4-.2-.5h-.5A.2.2 0 001 2v.5h.3L1 2.2h.4l-.1-.2c-.1 0 0 .1 0 .1H1c0-.1.1-.2.3-.2.1 0 .3 0 .3.3S.7 3.8.7 4c0 .2.2.4.7.4.2 0 .4-.2.5-.3zm0 0M1.9.4c0-.1 0-.3.3-.2.5 0 .5.2.5.4S2 1 2 1.2c0 .3.1.4.3.4l.3-.2h-.2c-.1 0 0 0 0 0l-.2-.1s.2-.1.4 0L2.4.8h.3v.5a.2.2 0 01-.1.2H2c-.2 0-.2-.3-.1-.4l.6-.6c0-.1 0-.3-.2-.3-.3 0-.4.3-.4.4-.1 0-.2-.4-.5-.4-.2 0-.3.2-.2.2l.6.7s0 .3-.2.4h-.5a.2.2 0 01-.1-.2V.9h.3l-.2.4c.2-.1.4 0 .4 0l-.2.1s.1 0 0 0h-.2s.1.2.3.2c.1 0 .3-.1.3-.4C1.7 1 1 .7 1 .5c0-.1 0-.3.5-.3.2 0 .3 0 .4.2zm9 3.1c1.6 0 2.9 1.1 2.9 2.5S12.5 8.5 11 8.5C9.4 8.5 8 7.4 8 6S9.4 3.5 11 3.5zm0 0" fill-rule="evenodd" fill="#ffe400"/><path d="M10.8 2l-.2 1c0 .4.6.4.5 0zm.3 8l.2-1c.1-.3-.5-.4-.5 0zM6.5 6l1.2.2c.4.1.5-.5 0-.4L6.5 6zm9 0l-1-.1c-.5 0-.5.5 0 .4zm-8-2.7l.7.9c.3.3.7-.2.3-.4zm7 5.4l-.8-.8c-.3-.3-.7.2-.3.4l1.1.4zM9 2.4l.3 1c.2.4.7.2.4-.2L9 2.4zm4 7.3l-.1-1c-.2-.4-.8-.2-.5.1l.7.9zM14 3l-1 .6c-.3.3.2.7.4.3zM7.9 9l1-.5c.4-.3 0-.7-.4-.3zM6.7 4.5l1 .6c.4.2.7-.3.2-.4zm8.5 3.1l-1-.6c-.3-.3-.6.3-.2.4zm-2.7-5.4l-.6 1a.3.3 0 00.2.1h.3zM9.4 9.8L10 9c.2-.4-.4-.6-.5-.2zM6.8 7.7l1.1-.2c.5-.2.2-.7-.2-.4zm8.4-3.2l-1.2.1c-.4.1-.2.7.2.4zm0 0" fill-rule="evenodd" fill="#ffe400"/><path d="M11.7 2l-.4 1c-.1.4.5.5.5 0V2zm-1.6 8l.5-1c.2-.3-.4-.5-.4 0v1zm-.3-7.9v1c.1.5.8.3.5 0zm2.3 7.9V9c0-.5-.7-.4-.5 0l.5 1zM8.2 2.8l.5 1c.2.3.8 0 .4-.3zm5.5 6.5l-.4-1c-.2-.3-.8 0-.5.3zM7 3.9l.9.7c.3.2.7-.2.2-.4zm7.8 4.3l-.8-.7c-.3-.3-.7.1-.3.3zm-8.3-3l1 .4c.5.1.7-.4.2-.4zm9 1.8l-1.1-.5c-.4-.2-.6.4-.1.4zm-9-.2h1.2c.4 0 .3-.6-.1-.4zm9-1.4l-1.2-.1c-.5 0-.4.5 0 .4l1.2-.3zm-8.2 3l1-.4c.5-.2.1-.7-.2-.3zm7.4-4.7l-1 .4c-.5.1-.2.6.2.3zm-6 5.8l.8-.7c.3-.4-.3-.7-.5-.3zm4.6-7l-.8.8c-.3.3.2.6.4.2l.4-1zm0 0" fill-rule="evenodd" fill="#ffe400"/><path d="M6.6 7.7c0 .1 0 1 1.1 1.9 1 .9 2.8 1 2.8 1l-.1.2-1-.2c-.4 0-.6-.2-.6-.2s-.1.1-.2 0l-.7-.4a5.4 5.4 0 01-1-1l-.3-.5-.4.2-.4-.8c-.2-.5-.1-.7 0-.7l.1.6.4.5-.3-.6v-1-.2.7l.5 1-.1-.5.1-.5.1.5zm-.7.8l-.6-.7.5.9s.2.3 0 .3l-.6-.6c0 .2.6.7.6.7L5.3 9l.4.4-.3-.2.3.4-.1-.1.2.3h-.2l.4.1s.5.6.9.8a8 8 0 001.4.7l.2-.2-1.3-.6-1-.8H6h.2l-.3-.1H6l-.3-.2H6l-.3-.2.2.1-.1-.3s.2.3.3.2L6 8.7s.2.1.2 0l-.3-.2zm3.4 3.2c-.2 0-.2 0-.2-.2h.5l.3-.3c.1 0 .2 0 .1.2l-.3.1-.4.2zm.9-.4l.1-.2c.2 0 .1-.2.4-.3l2.3-1c.5-.3 2-1.3 2.4-2l.3-.7V8s.6-.4.8-.9l.5-1-.4 1.2-.3.5c0 .1.6-.3.8-.6l.4-.6a2 2 0 01-.5 1c-.3.4-.7.6-.6.7 0 0 .5 0 .9-.2.4-.3.5-.6.5-.6s0 .5-.4.8c-.5.4-1 .4-1 .5l1.2-.2-1.5.6h.6l.8-.3s-.2.3-.7.4c-.5 0-.7.2-.7.3l.8-.1-1 .3 1-.2-1.4.5 1-.2-1.9.5 1.7-.3-.9.3h.7l-1.8.4s1-.2 1 0l-2.1.5 1.2-.4h-.7l.4-.2s-.4.1-.4 0l.7-.3h-.2l1.4-.5H15l.9-.3-.5.1s.8-.3.7-.4c0 0-.4.2-.5.1l.7-.5h-.3c0-.1.6-.3.5-.4-.2 0-1 0-1.3.2-.3.1-1.3 1-1.5 1.2l-1.3.5-.6.3-.6.3-1 .3zm-1.2.5l-.2.3.3-.2H10.4l.7-.1h.2c0-.1-.5 0-.8 0H9zm0 0" fill-rule="evenodd" fill="#ffe400"/><path d="M9.8 11.6v.2l-.2-.1h.2zm3 0h.7c.4.2 1.2.1 1.2.2l-.2.2-.7-.1s.4.1.3.2c-.1 0-.4-.1-.4 0h-.2v.1h-.3s.1.1 0 .2l-.4-.1s.2 0 0 .1H12.6h-.2-.1-.2v.1c-.2 0-.2-.2-.2-.2l-.1.2-.2-.2v.2l-.2-.2v.2l-.2-.2v.1H11h-.2-.2-.2-.2l.1-.2V12h1l1.5-.5zm0 0" fill-rule="evenodd" fill="#ffe400"/></svg>