<svg xmlns="http://www.w3.org/2000/svg" width="20" height="14"><path d="M0 0h20v7H0zm0 0" fill="#002b7f"/><path d="M0 7h20v7H0zm0 0" fill="#ce1126"/><path d="M5.4 2.9v1.4H3.8c-.2-.3-.4-.6-.4-1s.3-.7.7-.7c.5 0 1 .2 1.3.3zm0 0" fill="#ffd83d"/><path d="M144.5 125.2v36m5-39.7v48m5.2-50.5v57.3m5-58.4v44.8m5.1-45.2V163m5-47v47m5.2-47v47m5.2-46.5v47m5-46.5v46.8m5.1-43.8v46.8m5-46.3v52.9m5.2-53v47m5-47v47" transform="scale(.025 .02333)" fill="#ffd83d" stroke-width="1.5" stroke-linecap="round" stroke-linejoin="round" stroke="#000"/><path d="M176.4 118c10.8 1.7 34.4 12.7 31.7 27.6-3.7 21.3-16.2 12.8-32.6 9.8l-12.4 4.1c-4.5 4.6-11 8.7-15.4 3.2h-7.4v28.8h81.4V122zm0 0" transform="scale(.025 .02333)" stroke-width="1.5" stroke-linecap="round" stroke-linejoin="round" stroke="#000"/><path d="M217.7 113a4.9 4.9 0 11-4.8-4.9c2.6 0 4.8 2.2 4.8 4.9zm-11.1-2.7a4.9 4.9 0 11-4.8-4.9c2.6 0 4.8 2.2 4.8 5zm-11.3-2.8c0 2.7-2.2 4.8-4.8 4.8-2.8 0-5-2.1-5-4.8 0-2.7 2.2-4.9 5-4.9 2.6 0 4.8 2.2 4.8 4.9zm-11.2-1.9c0 2.7-2.2 4.9-5 4.9a4.9 4.9 0 010-9.7c2.8 0 5 2.2 5 4.8zm-11.4-1.1a4.9 4.9 0 11-4.8-4.9c2.6 0 4.8 2.2 4.8 4.9zm-11 .6a4.9 4.9 0 01-9.8 0c0-2.6 2.2-4.8 5-4.8 2.6 0 4.8 2.2 4.8 4.8zm-10.6 3.6a5 5 0 01-4.9 5 5 5 0 01-5-5c0-2.7 2.2-4.9 5-4.9 2.7 0 4.9 2.2 4.9 4.9zm-9 6.6c0 2.7-2.1 4.9-4.8 4.9-2.8 0-5-2.2-5-4.9a5 5 0 015-5 5 5 0 014.9 5zm-6.2 9c0 2.8-2.1 5-5 5a4.9 4.9 0 010-9.8c2.9 0 5 2.2 5 4.9zm-3 11c0 2.6-2.3 4.8-5 4.8s-5-2.2-5-4.8a5 5 0 015-5c2.7 0 5 2.1 5 5zm0 11c0 2.7-2.1 4.9-5 4.9a4.9 4.9 0 010-9.7c2.9 0 5 2.1 5 4.8zm2.3 10.9c0 2.7-2.2 4.9-5 4.9a4.9 4.9 0 010-9.8c2.8 0 5 2.2 5 4.9zm0 0" transform="scale(.025 .02333)" fill="#ffd83d" stroke-width="2" stroke-linecap="round" stroke-linejoin="round" stroke="#000"/><path d="M215 119.5l-.5 6.6c-12.3-2-29.7-9-46-9-15 0-26.6 6.1-26.6 21.3 0 15 6.2 28.5 14.7 42.2l-8.6 4c-7.8-14.8-14.4-27.9-14.4-45.3 0-14.6 11.6-29 31.2-29 17.5 0 35.5 6 50.2 9.2zm0 0" transform="scale(.025 .02333)" fill="#ffd83d" stroke-width="2" stroke-linecap="round" stroke-linejoin="round" stroke="#000"/><path d="M5.7 2.9v1.4h1.6c.2-.3.4-.6.4-1s-.3-.7-.7-.7c-.5 0-1 .2-1.3.3zm0 0" fill="#ffd83d"/><path d="M144.5 125.2v36m5-39.7v48m5.1-50.5v57.3m5-58.4v44.8m5.2-45.2V163m5.1-47v47m5-47v47m5.2-46.5v47m5.2-46.5v46.8m5-43.8v46.8m5-46.3v52.9m5.3-53v47m5-47v47" transform="matrix(-.025 0 0 .02333 11.1 0)" fill="#ffd83d" stroke-width="1.5" stroke-linecap="round" stroke-linejoin="round" stroke="#000"/><path d="M176.3 118c10.8 1.7 34.6 12.7 31.8 27.6-3.8 21.3-16.1 12.8-32.5 9.8l-12.5 4.1c-4.6 4.6-11 8.7-15.4 3.2h-7.4v28.8h81.4V122zm0 0" transform="matrix(-.025 0 0 .02333 11.1 0)" stroke-width="1.5" stroke-linecap="round" stroke-linejoin="round" stroke="#000"/><path d="M217.8 113c0 2.7-2.2 4.9-5 4.9a4.9 4.9 0 010-9.8c2.8 0 5 2.2 5 4.9zm-11.1-2.7c0 2.7-2.2 4.9-5 4.9a4.9 4.9 0 010-9.7c2.8 0 5 2.1 5 4.8zm-11.4-2.8c0 2.7-2.2 4.8-4.9 4.8a4.9 4.9 0 010-9.7c2.7 0 4.9 2.2 4.9 4.9zm-11.3-1.9a4.9 4.9 0 01-9.8 0c0-2.6 2.1-4.8 5-4.8 2.6 0 4.8 2.2 4.8 4.8zm-11.3-1.1c0 2.6-2.1 4.8-5 4.8a4.9 4.9 0 010-9.7c2.9 0 5 2.2 5 4.9zm-11 .6a4.9 4.9 0 11-4.8-4.9c2.6 0 4.8 2.3 4.8 5zm-10.7 3.6a5 5 0 01-4.8 5 5 5 0 01-4.9-5 4.9 4.9 0 119.7 0zm-8.9 6.6c0 2.7-2.2 4.9-4.8 4.9a4.9 4.9 0 01-4.9-4.9 5 5 0 014.9-5 5 5 0 014.8 5zm-6.2 9c0 2.8-2.2 5-4.9 5-2.8 0-5-2.2-5-5 0-2.6 2.2-4.8 5-4.8 2.7 0 4.9 2.2 4.9 4.9zm-3.2 11c0 2.6-2.1 4.8-4.8 4.8a4.9 4.9 0 01-4.8-4.8c0-2.9 2.2-5 4.8-5 2.7 0 4.9 2.1 4.9 5zm.2 11a4.9 4.9 0 01-9.8 0c0-2.7 2.2-4.8 5-4.8 2.6 0 4.8 2.1 4.8 4.8zm2.2 10.9c0 2.7-2.2 4.9-4.9 4.9-2.8 0-5-2.2-5-4.9s2.2-4.9 5-4.9c2.7 0 4.9 2.2 4.9 4.9zm0 0" transform="matrix(-.025 0 0 .02333 11.1 0)" fill="#ffd83d" stroke-width="2" stroke-linecap="round" stroke-linejoin="round" stroke="#000"/><path d="M215 119.5l-.5 6.6c-12.4-2-29.7-9-46-9-15 0-26.5 6.1-26.5 21.3 0 15 6.2 28.5 14.7 42.2l-8.8 4c-7.8-14.8-14.4-27.9-14.4-45.3 0-14.6 11.6-29 31.4-29 17.5 0 35.4 6 50 9.2zm0 0" transform="matrix(-.025 0 0 .02333 11.1 0)" fill="#ffd83d" stroke-width="2" stroke-linecap="round" stroke-linejoin="round" stroke="#000"/><path d="M222 53l-5.1 9.8 5.1 9.5 5-9.5zm0 24.5l-5.1 9.6 5.1 9.7 5-9.7-5.1-9.8zM203.6 75l8.1 5 8.1-5-8-5.2zm20.5 0l8 5 8.4-5-8.3-5.2-8 5.2zm0 0" transform="scale(.025 .02333)" fill="#ffd83d" stroke-width="2" stroke-linecap="round" stroke-linejoin="round" stroke="#000"/><path d="M226 75.2a4 4 0 01-4 3.8 4 4 0 01-3.9-3.8 4 4 0 014-4 4 4 0 013.8 4zm6.5 24.7a10.5 10.5 0 11-21 .2 10.5 10.5 0 0121-.2zm0 0" transform="scale(.025 .02333)" fill="#ffd83d" stroke-width="2" stroke-linecap="round" stroke-linejoin="round" stroke="#000"/><path d="M219.4 89.9v6.5l-7.5.9m20.1 0c-2.3-.4-4.8-.7-7.5-.9V90M212 102.6a49.5 49.5 0 0120.2 0" transform="scale(.025 .02333)" fill="none" stroke-width="1.5" stroke-linecap="round" stroke-linejoin="round" stroke="#000"/><path d="M211.9 117.7c-1.1 17-3.2 34.5-9.9 47l11-4.3c3.7-14.3 4.5-32.8 5.6-41.5zm20.3 0l-6.9 1.2c1.3 8.7 2 27.2 5.6 41.5l11 4.3c-6.7-12.5-8.8-30-9.7-47zm0 0" transform="scale(.025 .02333)" fill="#ffd83d" stroke-width="2" stroke-linecap="round" stroke-linejoin="round" stroke="#000"/><path d="M222 154.7c-13 0-22.5 6-23 21.6-3.2-5.5-16.5-23-29-20.8-7.3 1.5-14 11.7-12.8 23.5-6.3-17.6-24-20.5-37.4-10 11.8 9.5 17 37.8 26.8 50h150.7c9.7-12.2 15-40.5 26.8-50-13.2-10.5-31.1-7.6-37.2 10 1-11.8-5.6-22-13.1-23.5-12.4-2.2-25.7 15.3-29 20.8-.4-15.4-10-21.6-23-21.6zm0 0" transform="scale(.025 .02333)" fill="#ffd83d" stroke-width="2" stroke-linecap="round" stroke-linejoin="round" stroke="#000"/><path d="M297 219c0 5.7-33.6 11.7-75 11.7-41.5 0-75.1-6-75.1-11.7 0-5.6 33.6-8.6 75.1-8.6 41.4 0 75 3 75 8.6zm0 0" transform="scale(.025 .02333)" stroke-width="1.5" stroke-linecap="round" stroke-linejoin="round" stroke="#000"/><path d="M225.5 114.3c0 2-1.6 3.6-3.5 3.6-2 0-3.6-1.6-3.6-3.6 0-1.8 1.6-3.5 3.6-3.5s3.5 1.7 3.5 3.5zm.1 7.7c0 2-1.5 3.7-3.6 3.7a3.7 3.7 0 110-7.4c2 0 3.6 1.7 3.6 3.7zm.5 8.2c0 2.2-1.9 4-4 4a4 4 0 01-4.1-4 4 4 0 014-4.1c2.2 0 4 1.8 4 4.1zm.6 9c0 2.8-2.2 4.8-4.7 4.8-2.6 0-4.7-2-4.7-4.7 0-2.5 2-4.7 4.7-4.7 2.5 0 4.7 2.2 4.7 4.7zm.3 10.1a5 5 0 01-5 5.2 5.2 5.2 0 01-5.1-5.2c0-2.6 2.3-5 5.1-5a5 5 0 015 5zm0 0" transform="scale(.025 .02333)" fill="#ffd83d" stroke-width="1.5" stroke-linecap="round" stroke-linejoin="round" stroke="#000"/><path d="M5.5 3.7v.1zm.1 0v.1zm-.2 0v.1zm.3 0v.1zm-.4 0v.1c0 .1 0 .1 0 0zm.5 0v.1c0 .1 0 .1 0 0zm-1.5 0v.1c0 .1 0 .1 0 0zm2.5 0v.1c0 .1 0 .1 0 0zm-2.4 0v.1c0 .1 0 .1 0 0zm2.3 0v.1c0 .1 0 .1 0 0zm-2.2.1V4h.1v-.1zm2 0v0zm-2.3 0V4zm2.7 0V4zm-1.7 0V4a.4.4 0 000-.1zm.7 0V4a.4.4 0 000 .1v-.1zm-.3.1l-.1.2h-.2l.2.5c0-.2.2-.4.3-.5h-.2a.2.2 0 010-.2zm-1 0c0 .1.1.1.1 0zm1.8 0c0 .1 0 .1 0 0zm-2.3 0V4h.1v-.1zm2.9 0h-.1v0zm-3.6 0V4zm4.3 0V4zM3.5 4V4zm4.1 0V4zM3.2 4V4h.1zM8 4a.2.2 0 00-.1.2V4zM5 4v0zM6 4v0zM4.4 4v.2a.3.3 0 01-.1 0l.3.4v-.4s0-.1 0 0h-.1a1.2 1.2 0 01-.1-.2zm2.3 0l-.1.2c-.1-.1-.1 0-.1 0v.4a.8.8 0 01.3-.4h-.1a.7.7 0 010-.2zm-3 0h-.1v.1zm3.8 0v.1zM4 4v.1V4zm3 0H7v0zM3.6 4v.2V4zm3.7 0v.2V4zM4 4.2l.1.1V4zm3 0v0zm-3.5 0v.1l.1.2h-.1l.3.3a.5.5 0 010-.3v-.1h-.1a1.1 1.1 0 00-.1 0v-.1zm4 0v.1a.9.9 0 00-.1.1h-.1v.1a.5.5 0 010 .3l.3-.3h-.1v-.2zm0 0"/><path d="M150.2 212.8l1.8 6m2-7.4l2 6.2m2.4-6.8l1.3 6.3m2.8-7.2l1.3 6.4m3.9-6.9l.9 6.6m4.5-6.6l1.1 6.4m4.2-8l1 6.3m4-6.2l1 6.6m4-7l.8 6.3m4-7l.6 6.5m4.6-6.5l.5 6.5m4.4-6.9l.3 6.5m4.8-6.7l.3 6.4m5.8-6.5l.3 6.3m79 .4l-2 6m-2-7.4l-1.7 6.2m-2.6-6.8l-1.1 6.3m-2.8-7.2l-1.4 6.4m-4-6.9l-1 6.6m-4.4-6.6l-1.1 6.6m-4.2-8.2l-.8 6.3m-4.2-6.2l-1 6.6m-3.9-7l-1 6.3m-4-7l-.4 6.5m-4.7-6.5l-.5 6.5m-4.4-6.9l-.1 6.5m-5-6.7l-.3 6.4m-5.8-6.5l-.2 6.3m-7.2-6.8v7.2" transform="scale(.025 .02333)" fill="#ffd83d" stroke-width="1.5" stroke-linecap="round" stroke-linejoin="round" stroke="#000"/></svg>