<svg xmlns="http://www.w3.org/2000/svg" width="20" height="14"><path fill="#ffb700" d="M0 0h20v14H0z"/><path d="M.8 7L3.6.8h2.7v12.4H3.6zm0 0" fill="#ff5b00"/><path d="M.8.8h2.8v12.4H.8zm0 0" fill="#005641"/><path d="M7.2.8h12v12.4h-12zm0 0" fill="#8d2029"/><path d="M579.3 408.6s3.6 7.2 7.6 10.5c6 4.2 18 3.8 23.4 9.2 6 6.2-.5 14.2-.5 15l.3 4.2s-4.2 0-6 .4c-2.6.4-3.6 2.5-8.6 2.2-12.3-.8-11.8-12-12.5-21.5-.6-3.6-2-8.5-2.9-12-.7-3-.9-8-.9-8zm0 0" transform="scale(.03125 .02917)" fill="#ffb700" stroke-width="1.1" stroke="#000"/><path d="M579.3 408.6s3.6 7.2 7.6 10.5c6 4.2 18 3.8 23.3 9.2 6.1 6.2-.5 14.2-.5 15l.3 4.2s-4 0-6 .4c-2.5.4-3.5 2.5-8.5 2.2-12.3-.8-11.8-12-12.5-21.5-.6-3.6-2-8.5-3-12-.6-3-.7-8-.7-8zm0 0" transform="matrix(-.03125 0 0 .02917 26.4 0)" fill="#ffb700" stroke-width="1.1" stroke="#000"/><path d="M579.3 408.6s3.6 7.2 7.6 10.5c6 4.2 18 3.8 23.4 9.2 6 6.2-.5 14.2-.5 15l.3 4.2s-4.2 0-6 .4c-2.6.4-3.6 2.5-8.6 2.2-12.3-.8-11.8-12-12.5-21.5-.6-3.6-2-8.5-2.9-12-.7-3-.9-8-.9-8zm0 0" transform="matrix(.03125 0 0 -.02917 0 14)" fill="#ffb700" stroke-width="1.1" stroke="#000"/><path d="M579.3 408.6s3.6 7.2 7.6 10.5c6 4.2 18 3.8 23.3 9.2 6 6.2-.6 14.2-.6 15l.5 4.2s-4.2 0-6 .4c-2.6.4-3.6 2.5-8.6 2.2-12.4-.8-11.9-12-12.5-21.5-.6-3.6-2-8.5-2.9-12-.7-3-.8-8-.8-8zm0 0" transform="matrix(-.03125 0 0 -.02917 26.4 14)" fill="#ffb700" stroke-width="1.1" stroke="#000"/><path d="M363.5 415.8l2.3-1.4 1 1.4c1.3 1.9 5 1.7 7.4 0l2-1.5 1.6 1.3c2 2 5.7 2 8.2 0 1.8-1.2 2-1.2 3-.2.8.6 2.8 1.2 4.4 1.4 3.2.5 3.2.5 5-2.4 1.6-2.2 1.9-3 1.5-5.5-.3-1.7-.5-3.4-.6-5.2-.2-2.7 0-2.7 3.6-4a37.3 37.3 0 005.4-2c1.4-1 5.7-5.8 5.7-6.8 0-.2-1.6-.6-3.6-.8-8-1-9.3-5.3-4.1-13 8.3-13 13.4-25.5 13.4-33.4 0-3.6.3-4.8.7-4 1.9 3-1.5 16.3-6.5 26l-2 3.7 1.9-.4c1-.2 7.4-3 14-5.9 18.2-8.3 24.4-9.7 36.2-9.3 9.9.4 14 2.2 21 9.6 3.8 4 7.3 6.7 13.8 10.9 13.8 8.5 14.4 9.3 15 19.5.8 10.3.5 10.9-7.4 12.6-6.6 1.5-10.9 4.6-12 9-.6 2.3.7 2.3 4 .1l2.5-1.6 1.1 1.6c1.5 2.2 4.5 2.2 7 0l2-1.5 2 1.5c3 2.6 7 1.9 8.3-1.2 0-.5.7-.4 2 .7 2.2 2 8 2.8 8.5 1.2.2-.6-.2-2-1-3.2-3.3-5-4.4-7.3-4.4-10 0-3.8 1-5.7 5.4-8.7 5.2-3.8 6.8-8.7 2.8-8.7-2.4 0-4.9-2.1-6.5-5.6-3.2-7.2-2.5-15.2 2.3-28.6a56.6 56.6 0 005.4-25.2c0-7.4-.2-8.6-1.8-12.7a42.6 42.6 0 00-4.6-8l-2.8-3.8 3.5-3c10.8-9 8.6-23.5-4.4-29-4-2-5-2-12-2-4 0-10.5.6-14 1.3-4.7.8-9.4 1.2-14.2 1.2-6.8 0-8-.1-10.6-1.6-2.6-1.4-3.1-2.2-3.6-5.5a2 2 0 00-1.2-1.5c-1-.2-5.2 3.4-5.9 5-.3 1-.4.8-1.4-.3-.8-1-1.6-2.3-2-3.6-1-3.4.3-5.8 4.2-7.6l3-1.4-1.8-1c-3.6-2.5-9.8-.9-12 2.9-.7 1-1.4 2-1.6 2-.2 0-1.4-1-2.6-2.3-4.8-4.7-3.1-11.4 3.3-13.4 3.2-1 6.2-.4 6.8 2 1 3.3 3.8-1.2 3.3-5.2-.3-2.7-.3-2.8 1.6-2.8 2.6 0 8 3.4 9.8 6 2 3.1 1.8 8-.4 11.6l-1.6 2.8 2.2-.4c3.3-.7 6.4-2.7 8-5.3 1.8-3.2 1.9-7 .4-10.3-1.5-2.6-1.3-3 .9-2.2 3.6 1.6 5.6 3.2 7 6.1 1.4 2.6 1.4 3.2.8 6-.5 1.6-1.2 3.4-2.2 4.9-1.1 1.4-1.3 1.8-.3 1.8 1.8 0 5.4-1.7 6.6-3 .8-.8 1.8-2.5 2.3-4l1-2.5 1 2c1.5 2.7 4.5 5.3 8.1 6.7 3.9 1.6 5.5 1.8 3.5.3-1.4-1-4-8.4-3.1-9.2a53 53 0 0111.8 9c5.6 5.2 9.2 6.8 14.5 6.8 6.6 0 10.5-5.8 7.5-11.3-1.7-3.2-5.5-3.7-8-1-1 1.3-1.3 2.4-1 3.7.5 1.6.3 1.7-1.2 1.7-2 0-5.9-2.4-12.6-8.1a100.7 100.7 0 00-32.1-18.7c-8-1.8-16.1-2.2-24.3-1.3-6.4 1.2-14 5-18.2 8.8-7.3 7-7.4 16.3-.3 24.8l2 2.4-1.4 2.2c-2 3.2-1.7 7.3.6 10.4 1 1.4 2 2.4 2.2 2.4s.4-.8.5-1.8c.3-2.9 1.4-4.6 3.4-5.3 1.9-.8 3-.4 11.2 3 8.6 3.5 23 3.6 38.1.7a42 42 0 0120 0c7.3 3 9 10.8 3.7 16.6-2.3 2.6-4.4 3.6-11.6 5.6-6.4 1.7-13 2.1-19.5 1.5-11 0-14.8 0-19 1-5 1-8 1.1-22 .8l-16.2-.4 1.8 1.4c1 1 2 1.6 3.1 2.2 1.3.9 1.3.9-.6 1.7-1 .4-3.4.6-5.3.6h-3.4l-.3 2.8c-.3 1.4-.3 2.7 0 4 .4 1 .2 1.3-.8.9-.7-.4-2.6-.8-4.4-1.2a18.1 18.1 0 01-5-1.7c-1.8-.9-2-.9-2.7.4-.6 1-6.3 5.1-7 5.1a27.1 27.1 0 00-2.3-7.5c-1-2-1.8-4.4-2-5-.4-1.3-.6-1.3-1-.5-.4.6-.8 2-1 3.3-.4 1.6-1 3.2-2 4.6l-1.4 2.2-1-1.9c-1-2-2.6-4.1-3.2-4.1-.2 0-.5.5-.7 1.4-.5 1.6-4.4 6.3-5.4 6.3-.3 0-.6-1.3-.6-3 0-1.5-.3-2.9-.6-2.9-.6 0-.8.4-.8 1 0 1.2-3.3 5-4.5 5-.4 0-1.3.3-1.8 1-1 1.3-2 1-1.6-.4.1-1.3 0-2.5-.4-3.7l-1-3.3c-.2-.5-1.4-.4-4 .4-4 1.4-5.4 1.1-3.3-.5.9-.7 2-2.7 2.6-4.6.8-2 1.8-3.7 2.3-3.8.6-.3.6 0-.3 1a5.6 5.6 0 00-1.1 2.7c0 .6-.5 1.8-1 3-.6.9-1 1.8-.9 2 .1.1 1.8-.6 3.5-1.2l3.3-1.6v1.3c0 .8.3 2.8.8 4.6l.9 2.9 2.3-1c2-1 4.2-4.6 4.2-7.4 0-1.5.8-1.2 1.3.2 0 .4.4 2 1 3.6l1 2.9 1.4-1.8c1-1 2-3 2.3-4.3.8-2.4 2-3.5 2-1.7 0 1.2 3.4 5.7 4 5.3.4 0 1-1.8 1.5-3.7 1-4 2.5-6.6 3.5-6 .4.2.5.6.3 1-.2.2.6 2.9 1.8 5.7l2.6 6.3c.4.9.8.9 3.3-1.4 1.5-1.5 3-3 3.1-3.5.3-.8.6-.6 2 .3 2.9 1.6 6.1 2.6 9.5 2.8.1-.2.4-2 .4-4l.1-3.7 2 .4c1 .4 3.3.4 5 0l3-.4-2.7-2c-1.5-1-3-2.3-3.4-2.9-.3-.6-1.8-1.2-3.3-1.3-4-.4-11.3-4.4-11.3-6.4 0-.4 1 .4 2.2 1.4 2.8 2.4 6.6 4 10 4h2.4l-1.5-2a11.6 11.6 0 01-2-5.2c-.3-3-.5-3.5-3.6-5.5-1.8-1.3-3.5-2.6-5-4.3l-1.6-2-1 2.4c-.6 1.3-1 2.3-1.3 2.3s-1.3-.8-2-1.7a7.7 7.7 0 00-2-1.6c-.3 0-1 1.2-1.8 2.7l-1.4 2.8-1-1.6-3-3.4c-1.2-1-1.7-1.9-1.3-1.9s1.8 1.1 3 2.4l2.3 2.3 1-1.7c.4-1.2.7-2.6.4-3.8-.4-1.8-.3-1.8.3-.6l3 3 2.3 1.6 1.4-2.6c1.6-2.8 1.6-2.8 2-1.1 1 2.1 7.6 7.5 13 10.6 1 .5.7-1-1-5-.3-1.3-.7-2.7-.7-4 0-1.7-.5-2.5-2.8-4.4-3-1.9-4.7-5-5-8.5-.3-1.6-1-3.4-1.4-4-.6-1-.8-.4-.6 2.6a15 15 0 01-.6 5.7l-.9 2-.4-1.6c-.6-.9-2-2.5-3.6-3.4-1.4-1.1-2.6-2-2.4-2.3.2-.2 1.8.6 3.4 2 2.8 2.1 3.3 2.3 3.7 1.5.4-1.1 0-5.7-.8-8.9-.4-1.6-.4-1.6 1.6.4 1.4 1.4 2.2 3.2 3 6.2.7 3.7 1 4.5 4.6 7.6 2 1.9 4 3.4 4 3.2.3-.2.4-5 .7-10.8.4-11.1 0-13.8-2.8-17.2l-1.3-1.8 2.2-2.3c2.5-2.4 4.1-5.5 4.6-8.9l.6-2.6-2.6 2.2c-2 2-3 2.5-5.2 2.5s-3.3-.4-4.8-2a19.3 19.3 0 00-8.2-4.9c-1.3-.4-1.6-.2-1.6.6 0 .6-.6 2.2-1.4 3.7l-1.4 2.6-3-3c-1.9-1.7-4-3.2-5.7-3.6-4.1-1-4.3-1-4.3 2.1 0 4.7-2 5.7-5.6 2.4-2.8-2.4-5-2.9-10.3-2.2l-4 .4.7 1.8c.6 1.5.5 2.2-.8 4-2.1 2.7-4.9 4-9 4-2 0-4.4.4-5.4.8-1 .5-3.6 1-5.7 1.2-2 .2-4.3.6-5 .8-1 .4-1 0-.8-2.2.6-3.5-2-6-5.6-6-4.9 0-7.1 4.4-5.2 10.2l1 3.9c1.4 2.4 3.1 4.6 5.2 6.5a39 39 0 015.4 6c.8 1 1.9 2 3 2.5l2.3 1.2-.4-2.4c-.3-2.6.2-3 1.6-1.1.5.6 1.8 1.7 2.8 2.3 1.7 1 2 1 2 .2 0-.6.3-1.9.7-3l.8-1.7 1.2 2.4c.8 1.5 3 4.6 5.1 7.1 4.1 4.7 6.6 10 5.4 11.2-.6.5-2 .5-5 0-2.3-.4-5-.8-6.3-.6-2.2.3-2.4 0-1-1.8 1.6-2 1.3-2.3-1.7-2.3a70 70 0 01-15.6-3c-3.1-1.3-4-1-5 2l-1.6 5.7-1 3 3.4-.4c2 0 3.8-.5 5.6-.9.7-.3 1.4-.4 2.2-.3.3 0-.3 1.2-1 2.7l-1.4 2.4 2.1-.4c1.3-.2 3-1 4-1.5 2-.8 2-.8 3.6 1.7 1.6 2.6 3 2.5 3.2-.4.3-3 1.3-2.6 3.3 1.4 1.7 3.8 3.4 5.3 4 3 0-.8 1-2 2-2.8 2.2-1.5 3.8-1 4.7 1.3 1 2.5-1.3 5-7.4 8.8a43.2 43.2 0 00-21.7 31c-1.9 11.8 4 24 15.6 33 5.6 4 14.5 8.5 13.9 6.9-2.4-7.2-2.3-21 .1-23.3.4-.4.3 1-.3 3-2 8-1 14.3 4 28.9 4.4 13 3.8 18.8-2.6 22.5-2 1.2-3.4 1.4-8.9 1.3-6 0-6.6 0-8.4 1.6a15.1 15.1 0 00-4.4 8.6c0 1.3 1.4 1 4-.4zm0 0" transform="matrix(.03125 0 0 .02917 0 -2.2)" fill="#ffb700" stroke-width="5.6" stroke="#000"/><path d="M460.5 415.5l2.5-1.6 1.8 1.6c2 2.2 4.8 2 7-.1 1-1 1.7-1.6 1.8-1.5l.9 1.6c.5 1 1.6 1.3 3.6 1.5 2.3.1 3 0 4-1.4l1-1.7 2.5 1.6c6.8 4.4 10.4-.3 7.3-9.4-1.5-4.5-.6-7 4.4-13 2-2.4 3.7-5 3.7-5.8 0-1.3-.4-1.4-3.3-1.3-2.4 0-3.3-.4-4.7-1.8-2.3-2.4-2.1-5.4.4-8.6l2-2.5-3.6-2.5a51 51 0 01-8-7c-4.4-5.1-10.7-8.5-17.6-9l-4.6-.6v3.7c0 4.5 2.1 9 8 16.3 6.6 8.4 7 9.6 7.3 20.8l.4 9.2-2 1.9c-1.8 1.4-2.6 1.8-8 2.1-5.4.3-6.6.5-8 2a9.1 9.1 0 00-3.6 5.2c-.2 1.6 0 2 1 2 .7 0 2.4-.8 3.8-1.7zm-142.3-24c.7-.9 1-2 1-3s.7-1.4 3.3-1.8l3.1-.4-2-1.7c-2.5-2-2.9-3.5-.6-3.5s5.8-2.2 6.4-3.9c.4-.8 0-1.7-.4-2.3-1.3-1.4-3.5-1.2-3.9.4-.5 1.6-1.2 1.6-3 0-2.5-2.5-2.6-7.6 0-10.6 1.1-1.4 1.1-1.4-.4-2.9-1.6-1.6-2.8-4.6-2-5.4.2-.2 1.6 0 2.8.4 2 .7 2.8.7 3.5 0 2.3-1.8-.3-4.2-4-3.6-1.6.2-2.3 0-2.4-.8-.2-.6-1.5-1.4-3-1.8-2.7-.7-2.7-.7-2.7 1.2 0 2-1.1 2.4-3.4 1.2-1.8-1.1-3.5-.3-3.5 1.6s1.8 2.6 5 2.4c2.4-.2 2.5 1.7.3 4.3l-1.8 2 1.3 1.9c2 2.8 1.8 7.5-.3 9.9l-1.8 1.8-1-1.4c-1.6-2-3.7-2-4.3.2-.3 1.4 0 2 1.9 3.6a8 8 0 003.8 1.8c2.3 0 2.1 1.9-.2 3.7l-2 1.5 3 .4c1.6.3 3 .7 3 1 0 1.3 2 5.2 2.6 5.2.4 0 1.3-.7 1.8-1.5zm0 0M356.5 375c2.8-1.1 8.5-6.1 8.5-7.2a15 15 0 00-3.6-4c-4-3.6-8.5-9.9-9.6-13.5-.7-2-3.6-5.2-11.8-13.1l-10.9-10.6-3.1.8c-1.8.4-3.9.8-4.8.8-1.4 0-1.4 0 .6 1.6l2 1.6 3-1.6c2.7-1.6 2.8-1.6 3-.3.3.7 0 2-1 2.8-.6 1-1 2-1 2.5.4.2-.3.9-1.4 1.6-2 .9-3.5 4.2-1.9 4.2 1.5 0 4.8-4 4.3-5.3-.2-.7 0-1.4.2-1.6 1.3-.7 1.3 2.4 0 4-.8.8-1.3 1.7-1 2.1.3.4-.5 1.1-1.6 1.6-2 1.1-3.5 4.5-1.9 4.5s4.8-4 4.4-5.3c-.1-.8-.1-1.6.1-1.7.9-.4 1.3 2 .6 3.2a2.2 2.2 0 000 2.2c.6 1.3 0 3.7-1.4 4.5-.4.3 0 1 1.3 2 2 1.4 2 1.6 2 8 0 5.4.3 6.8 1.3 7.7 1 1 1 1 1 0s2-2.4 3.6-2.4c.5 0 3.4 2.5 6.5 5.5s6.4 5.7 7.4 5.9l2 .4c.4 0 1.8-.4 3.2-1.1zm-33.3-26.2c0-1.7-3.6-3.6-8-4-3.4-.5-3.4-.4-3.4 1.3 0 1.4.4 2 3 3 3.8 1.7 8.4 1.5 8.4-.3zm0 0" transform="matrix(.03125 0 0 .02917 0 -2.2)" fill="#ffb700" stroke-width="5.6" stroke="#000"/><path d="M327.1 348.5c1.8-1.6 2.6-3.3 1.5-3.3-1.2 0-4.4 2.8-4.4 4 0 1.6.6 1.5 3-.7zm-3.7-5c.1-1-.5-1.7-2.3-2.5-4-1.7-8.6-2.6-9.7-1.7-2.1 1.7-.6 3.9 2.6 4.3 1.4.1 3.3.5 4.1 1 2.6.9 5 .5 5.3-1.1zm0-5.3c.2-1.3-.6-1.8-8-4.4-5.5-2-7.9-1-6.1 2.3.6 1 1.6 1.6 4 2l5 1c3 1.1 4.8.7 5-.9zm3.6-5c1.1-1 2-2.3 2-2.9 0-1.4-4.3 1.2-4.9 3.2-.6 2.5.5 2.3 3-.2zm-3.6-.2c.2-1.6-2.4-3-7.6-4.1-4-.8-5.6-.4-5.3 1.4.3 1 1.5 1.6 5 2.8 5.9 1.8 7.6 1.8 7.9 0zm5-7.4c6.9-3 7.4-10.5 1-12.5-2.6-.8-4.1-.3-5.1 1.4-1 1.4-.4 3.8.6 3.8.4 0 .7.5.7 1 0 2.7-10.2 3.8-14.4 1.7-1.4-.7-2-2.7-1-2.7s1.7-2 1.2-3.2c-.6-2-2.6-2.7-5.3-2-6.4 1.7-6.1 9 .3 12.1a34.4 34.4 0 0022 .4zm0 0" transform="matrix(.03125 0 0 .02917 0 -2.2)" fill="#ffb700" stroke-width="5.6" stroke="#000"/><path d="M324.3 319.8c.4-.5.2-1-.4-1.4-1.4-1-1.3-2.8.2-4.7 1.1-1.4 1.3-3.6 1.6-25.2.8-37 3.6-65 7.2-71.7 1.5-2.6 1.4-2.6-2.5 0a35 35 0 00-11.6 13.6c-6.3 11.5-8.4 27-8.4 60.2 0 18.8.1 21.2 1.2 23 1 1.9 1 2.4.4 4.1-.5 1.2-.8 2.5-.5 2.6 1.4 1.3 11.4 1 12.8-.5zm56-35.4c.4-.3 0-2-1-3.6-1-2.6-1.6-3-3.3-3-8-.6-15.8-3-23-6.4-5.1-2.3-7-2.8-7.5-2.1-1.6 1.4 1 5 5 6.8 5.9 2.1 12 3.3 18.3 3.7 2.7 0 2.8 0 1.2 2.3l-1 1.6h3l5 .6c3 .8 3 .8 3.4 0zm0 0" transform="matrix(.03125 0 0 .02917 0 -2.2)" fill="#ffb700" stroke-width="5.6" stroke="#000"/><path d="M412 301.1c0-1-2.9-3.4-5.8-5.2-2.2-1.3-2.6-1.5-2.6-.3 0 1.7-1.4 5.7-2 5.7-.4 0-.9-.8-1-1.6-.4-1.1-1.4-3.1-2.5-4.5l-2-2.4-1.4 2.3c-1.4 2.1-4 4.3-5 4.3-.2 0-.3-1.2 0-2.6 0-1.6 0-2.8-.4-2.9-.6-.3-1-.3-1 .1 0 .8-3.3 4.7-4 4.7-.3 0-.7-1-1-2.4l-.7-4.8c-.2-1.2.3-.4 1 2l1.6 4.2 1.6-2.6c.7-1 1.3-2.1 1.6-3.3 0-.6.4-.8.7-.6.4.2.9 1.9 1.1 3.6l.6 3.5 1.7-2c1-1 1.8-2.1 2.6-3.2.6-1.2.8-1.2 2.3 0 .9.8 2.1 2.5 2.9 3.9.8 1.5 1.4 2.4 1.6 2.3l.6-3.3.4-2.9c.1-.5 5.4 3 7.4 4.7 1.2 1 2.4 1.9 2.6 1.7.2-.2.4-1.8.4-3.7 0-2.8-.3-3.6-2-5.1-2-1.8-2-1.8-2.8-.5-1 1.7-2.1 1.7-2.1 0 0-1.3-3.8-6-4.6-6-.4 0-1.2 1.1-2 2.3a7.4 7.4 0 01-1.6 2.4c-1 0-6.3-6-6.3-7 0-.9.4-.6 1.4.8a20.3 20.3 0 003 3.6c2 1.8 2.8 1.4 3.6-2 .4-1.1.7-2 1-2 .9 0 5.4 5 6 6.6l.7 1.7.5-2c.6-2 1.3-2 2.3 0 .4.7 2.4 2.5 4.4 3.7l3.7 2.4.8-2.4c.3-1.3 1-2 1-1.6.4.5-.6 4.5-1.2 5.3 0 0-1.4-.6-2.6-1.6l-2.5-1.7v3.2c0 1.8-.3 3.8-.4 4.6-.5 1.6-1.7 2-1.7.6zm-18.5-25.4c-4.4-3.6-5-4.4-5-6.2l.1-1.8.3 1.7c.2 1 1.4 2.5 2.9 3.7l2.4 2 1.6-1.7c1-1 1.6-2.3 1.6-2.5 0-1.2.2-1.2 3.2 1.4 2.6 2.3 2.6 2.3 3 .8.3-.8.1-2.4 0-3.4-1-3.1-.9-3.5.5-1.6l2.4 2.8c1 1 1.1 1 1.5-.4.3-.8.5-2.4.5-3.4v-1.9l2.3 2.7c2.3 2.6 2.4 2.7 3 1.4.6-.7 1-2.5 1-3.7 0-1.8 0-2.2.4-1.6 1 1.2.4 4.2-1 6.9l-1 1.8-1.3-2c-1.6-2.6-2.3-2.6-3.3.2-1 2.6-1.7 3-2.7.8-.6-1.2-.8-1.1-1.1 1.7l-.6 3-6-4.6-1.4 1.5c-.8 1-1.4 2-1.4 2.4 0 1-.8 1-1.9 0zm39-13.5c-1.5-1.5-2.6-2.9-2.4-3.1.3-.3.5-.4.6-.2l3 3c3.4 3.6 2.7 3.7-1 .3zm-52-5.5c-1.4-2-1.3-3.2.5-5.4 1.3-1.5 1.8-1.7 4-1.5a22 22 0 016.9 2.9c3.4 2 7.1 3 11 3l-1.6-2.8c-2.3-3.3-2.3-3.7.3-1.7 2.6 2.1 5.6 2.7 12.6 2.5l3.6-.1-2-2c-2.8-2.7-2-3 1-.3 3 2.6 2.8 2.7-3.3 3.4-2.5.1-5.1 0-7.6-.6-3.4-1-3.6-1-2.9.2.4.8 1 1.2 1.3 1.2.4 0 .7.4.7.8 0 1.3-7.4.1-11-1.6-8-4-9-4.5-11-4-1.1.5-2 1.3-2.4 2.4-1.4 3.3 3.4 5.8 5.3 3 .6-.9.5-1.4-.5-2.5-1.4-1.4-1.1-1.6.6-1 1.3.5 1.4 3.5.3 4.7-1.4 1.4-4.6 1.1-5.8-.6zm0 0" transform="matrix(.03125 0 0 .02917 0 -2.2)" stroke-width="5.6" stroke="#000"/><path d="M412.4 248.6c-1-1-.1-1.2 4.4-1.3 5.4-.1 9-1 13-3.6 3-2 4-1.6 1 .5-2.8 2-7 3.4-11.4 3.8l-5.1.6c-.8.3-1.7.2-2 0zm0 0" transform="matrix(.03125 0 0 .02917 0 -2.2)" stroke-width="5.6" stroke="#000"/><path d="M11.4 10v-.1H12.5l.1-.2a2 2 0 010-.1v-.2a1.2 1.2 0 00.3 0l.1-.2c-.3 0-.4-.2-.2-.4a2 2 0 00.4-1.1s0 .5-.2.7v.2a6.8 6.8 0 00.5-.2c.5-.3.7-.3 1.1-.3.3 0 .4 0 .7.3l.4.3c.4.2.4.3.5.6 0 .3 0 .3-.3.3-.2 0-.3.2-.4.3h1.2l-.2-.4.2-.2c.2-.1.2-.3.1-.3l-.2-.1V8c.2-.2.2-.4.2-.7v-.4a1.2 1.2 0 00-.2-.2v-.2c.4-.3.3-.7 0-.9h-.9a2.9 2.9 0 01-.4 0h-.4v-.1h-.1-.2a.5.5 0 01-.1 0l.1-.3h.1c-.1-.1-.3 0-.4 0v.1a.4.4 0 01-.1 0c-.2-.2-.1-.4 0-.5l.3.1s.1 0 0-.2h.1l.3.1c.1.1 0 .3 0 .4l.3-.1a.3.3 0 000-.3s0-.1 0 0l.3.1v.2a.5.5 0 010 .1h-.1.2a.3.3 0 000-.1l.1-.1a.5.5 0 00.3.3h.1V5l.3.3.4.2c.2 0 .4-.2.3-.4h-.3v.1l-.4-.2a3.2 3.2 0 00-1-.5 2.4 2.4 0 00-.8 0c-.2 0-.4 0-.6.2-.2.2-.2.5 0 .7v.1a.3.3 0 000 .4h.1l.1-.2.4.1H16.3c.2.1.3.3.1.5l-.3.2h-.7a3 3 0 00-.5 0h-1.2a.5.5 0 00.1.2.6.6 0 01-.2 0v.1a.3.3 0 000 .1h-.1-.1a.6.6 0 01-.2 0 1 1 0 01-.3.1.8.8 0 000-.2l-.1-.1a.3.3 0 00-.1 0 .5.5 0 010 .2h-.1l-.1-.1-.2.2v-.1h-.1l-.1.1H12a.3.3 0 000-.1c0-.1-.1-.1-.2 0-.1 0-.2 0-.1-.1a.3.3 0 000-.1l.1-.1v.2h.1a.6.6 0 000 .1h.1a.3.3 0 00.2-.2V7h.1a.4.4 0 00.1-.1c0-.1 0-.1 0 0h.2c0-.2.1-.2.2-.2a.6.6 0 000 .2l.1.2h.1l.1-.2.4.1a.5.5 0 000-.1v-.1a.3.3 0 00.2 0h.1a.5.5 0 01-.2-.2l-.4-.2.3.2h.1a.3.3 0 01-.1-.2l-.1-.2-.2-.1H13l-.1.1a.7.7 0 00-.1-.1h.1a.2.2 0 000-.1.7.7 0 00.1 0l.1.1c.1-.1.1-.1.1 0l.4.2v-.1a.4.4 0 010-.1l-.1-.2a.3.3 0 01-.2-.2.3.3 0 000-.1.4.4 0 010 .2h-.1a.3.3 0 00-.1 0v-.2.1h.1a.7.7 0 000-.2l.1.2.2.2a.7.7 0 00.1.1v-.3V5a.4.4 0 00.1-.3H13.4a.6.6 0 00-.3-.1H13v.2l-.1-.1a.5.5 0 00-.2-.1h-.1c0 .2-.1.2-.2.1h-.5v.1l-.3.1a.6.6 0 00-.1 0 .6.6 0 01-.2 0l-.2.1c0-.1 0-.2-.2-.2-.1 0-.2.1-.1.3 0 .2.1.2.2.3l.1.2a.3.3 0 00.1 0h.1s0-.1 0 0h.2v-.1l.2.3c.2.1.2.3.2.3h-.1a.7.7 0 00-.2 0c-.1 0-.1 0 0 0l-.1-.1-.5-.1h-.2v.2h.2c.1 0 0 0 0 .1a.6.6 0 00.2 0h.1c0 .2.1.2.1 0l.1.1.1.1h.1c0-.1.1-.1.2 0l-.3.2c-.3.2-.6.5-.6 1-.1.3 0 .6.4.9l.5.2V8v1c.2.3.2.5 0 .6h-.5a.4.4 0 00-.2.3h.2zm0 0" fill="#ffb700"/><path d="M14.4 9.9h.7c.3.1.4 0 .3-.3l.1-.4.2-.1h-.1l-.2-.1v-.4a1.6 1.6 0 01-.3-.2.8.8 0 00-.5-.3h-.2v.1c0 .1 0 .3.3.5.2.2.2.3.2.6v.3h-.3l-.2.1a.3.3 0 00-.2.2.3.3 0 00.2 0zm-4.5-.7l.2-.1V9v-.1l.2-.1c0-.1-.1-.1-.1 0H10c-.1-.1-.1-.3 0-.4l-.1-.2h.2L10 8H10h-.1c0-.1 0-.1 0 0h-.2-.1s0 .1.2 0v.2h-.1v.4h-.2v.1a.3.3 0 00.2.1V9h.1v.2h.1zm0 0" fill="#ffb700"/><path d="M11.1 8.7l.3-.2a.4.4 0 00-.1-.1L11 8l-.4-.4-.3-.3h-.1a1 1 0 01-.2 0v.1H10.4v.1h-.1c0 .1-.1.2 0 .2v-.1c.1-.1.1 0 0 0v.1s-.1.2 0 .2v-.2h.1v.5l.1.3.1-.1.2.2.3.1a.4.4 0 00.1 0zm-1-.7l-.2-.2h-.2l.1.2h.3zm0 0" fill="#ffb700"/><path d="M10.2 8c0-.1.1-.1 0-.1 0 .1 0 .1 0 0zm0-.2H10l-.3-.1.1.1a.5.5 0 01.1 0h.2zm0-.2h-.3c-.2-.1-.3-.1-.2 0h.2c.1.1.2.1.2 0zm0-.1c0-.1 0 0 0 0zm0 0l-.3-.1h-.2l.2.1h.2zm0-.2c.3-.1.3-.3 0-.4v.2h-.5V7s0-.1-.1 0c-.2 0-.2.2 0 .3h.7zm0 0" fill="#ffb700"/><path d="M10.1 7.1v-.2-.7l.3-2.1a1 1 0 00-.4.4c-.2.3-.3.8-.3 1.8V7h.4zm1.8-1V6l-.2-.1a2.2 2.2 0 01-.7-.2h-.2l.2.1.5.1c.1 0 .1 0 0 .1H11.8c0 .1 0 .1 0 0zm0 0" fill="#ffb700"/><path d="M12.9 6.6l-.2-.2-.1.2a.5.5 0 00-.2-.2l-.2.1v-.1a.4.4 0 01-.2.1v-.2.2-.1a.3.3 0 00.1-.1h.1v.2l.1-.2h.1a.5.5 0 01.1.1v.1-.2l.3.2h.1v-.2h-.1-.1l-.1-.2h-.1a.2.2 0 010 .1l-.3-.2.2.1h.1l.2.1h.1a.4.4 0 00.2.1h.1v.1h-.2a1 1 0 010 .1s0 .1 0 0zm-.6-.8l-.2-.2.1.2h.1a.2.2 0 00.1-.1h.2v-.1h.1c0 .1 0 .1 0 0h.2v-.1c.1 0 0 .1 0 .2 0-.1-.1-.1-.1 0h-.1v.1h-.3-.1zm1.2-.4c.2.1.1.1 0 0zM12 5.3V5h.1a.7.7 0 01.2 0l.4.1c-.1-.1-.1-.2 0 0h.5-.1c0-.2 0-.2 0 0 .1 0 .1 0 0 0a1 1 0 01-.3 0h-.1-.3l-.3-.1a.1.1 0 00-.1 0c0 .2.1.2.2.2v-.1c-.1 0 0 0 0 0 0 .1-.2.1-.2 0zm0 0"/><path d="M12.9 5h.1a.7.7 0 00.4-.1c.1 0 .2 0 0 0a.8.8 0 01-.3.1h-.2zm0 0"/></svg>