<svg xmlns="http://www.w3.org/2000/svg" width="20" height="14"><path fill="#fff" d="M0 0h20v14H0z"/><path d="M0 9.8h20V14H0zm0 0" fill="#009543"/><path d="M0 0h20v4.2H0zm0 0" fill="#00209f"/><path d="M319.6 153c-2.7 0-5.4 3-5.4 3l.3 32.4-10.3 10.8h8.3v18.4l-49 66-7.3-2.6-12.6 27s31.3 19.6 76.7 19c49.8-.5 77-19.9 77-19.9l-13-26.7-6.6 2.9-49.6-65.7v-19h8.1l-11-10.6v-32.2s-2.8-3-5.6-2.9zm0 0" transform="scale(.03125 .02917)" stroke-width="1.6" stroke="#000"/><path d="M336.8 230.4h-34s-12.2-25.9-10.3-44c2-18.5 12.6-27.2 26.6-27.3 16.6-.1 25.1 8 27.8 26.7 2.6 18.2-10.1 44.6-10.1 44.6zm0 0" transform="scale(.03125 .02917)" fill="none" stroke-width="8" stroke="#000"/><path d="M8.1 8.5l-.1.3h.2zm.2.3H8l.3.2zm0-.3l.2.3h.3l-.1-.2zm.3.5l.4.2-.2-.3zm.4-.3L9 9l.3-.1-.1-.2zM9 9l.1.1h.4L9.4 9zm.5-.3l.1.2.4-.1v-.1h-.5zm.2.3v.2h.6l-.2-.3zm.5-.3l.2.2.3-.1v-.2zm.6.2l-.3.1v.1h.5zm0-.3l.2.2.3-.2zm.6.1l-.3.2v.1h.4zm.3-.4v.4l-.3-.2zm.1.3l.2.2h-.3l.1-.2zm0 0" fill="#fff"/></svg>