<svg xmlns="http://www.w3.org/2000/svg" width="20" height="14"><path d="M0 0h6.7v14H0zm0 0" fill-rule="evenodd" fill="#00319c"/><path d="M6.7 0h6.6v14H6.7zm0 0" fill-rule="evenodd" fill="#ffde00"/><path d="M13.3 0H20v14h-6.7zm0 0" fill-rule="evenodd" fill="#de2110"/><path d="M360.4 320.4l24.2 35c1.4 2 2.6 4 .6 5.1-2 1.4-1.3 6.5 0 8.5 2.8 3.9 6 4.5 8 3.2l18.6-11.7c2-1 2.6-4.4 0-8.3-1.6-2-6-4.5-8-3.2-2.2 1.4-3.6-.7-5-2.7l-24.2-35" transform="scale(.03125 .02917)" fill-rule="evenodd" fill="#ff1900" stroke-width=".7" stroke="#000"/><path d="M177.2 696.3c0 24.4-9.6 44.3-21.2 44.3-11.8 0-21.4-19.9-21.5-44.3.1-24.4 9.7-44.3 21.5-44.2 11.6 0 21.3 19.8 21.3 44.3zm0 0" transform="matrix(.01648 -.01236 .01386 .0147 -1 .6)" fill-rule="evenodd" fill="#a77b3b" stroke-width="2.5" stroke="#000"/><path d="M262 306.2l-21.5 36.7c-1.3 2-2.4 3.8-4.5 2.9-2.1-1.2-6.6 1.7-7.8 3.8-2.4 4-1.4 7.2.7 8.4l19.2 10.2c2 1 5.4.2 7.8-3.8 1.1-2.3 1.3-7.3-.7-8.4-2-1-1-3.2.3-5.2l21.4-36.7" transform="scale(.03125 .02917)" fill-rule="evenodd" fill="#ff1900" stroke-width=".7" stroke="#000"/><path d="M331.3 280.6h-19.7c-.6.6-6.2 35.6-12.2 49-7.3 16.3-29.1 30.7-29.1 30.7s13 4 17 6.7c1-.4 22-4.9 24.3-30.4C314 362 297 373.9 297 373.9s24.4 7 24.4 23.3c0-16.3 24.4-23.3 24.4-23.3s-12.2-11.8-14.7-37.3c5 25.5 23.5 30 24.5 30.4 3.9-2.7 17-6.7 17-6.7s-21.9-14.4-29.2-30.7c-6-13.4-11.6-48.4-12.1-49zm-83-116.7l36.4 11.7c12.2 0 24.6-11.7 24.6-23.5.3-26-10-35-12.3-35l4.8-4.5-7.3-7s2.5-12.1 26.9-11.7c24.4.5 24.4 11.6 24.4 23.3 0 11.6-12.2 11.6-12.2 35 0 11.7 12.1 23.4 24.4 23.4l36.6-11.7v116.7H248.1V163.9zm0 0" transform="scale(.03125 .02917)" fill-rule="evenodd" fill="#a77b3b" stroke-width="1.7" stroke="#000"/><path d="M302 292.3l15 14.9 14.2-14.9 15 14.9 29.3-14.9 14.2 15.7 15-15.7 21.8 15.7 22.5-15.7 14.2 14.9 15-14.9" transform="matrix(.00521 0 0 .01364 8 1)" fill="none" stroke-width=".5" stroke="#000"/><path d="M432.4 435.7l-7.3 39m10.7-39v39m7-39v39m7.2-39l3.4 39m3.6-39l3.7 39" transform="matrix(.02153 0 0 .0192 .5 -4.2)" fill="none" stroke-width=".2" stroke="#000"/><path d="M319 361.5c35.3 17.7 35.3 53 35.3 70.8-1.2 16 0 354.3 0 354.3s-2.3-20-17.7-35.4l-35.2-35.4c-13.1-11.8-17.8-35.6-17.8-53.3v-248s0-17.6 35.4-53zm0 0" transform="matrix(-.02153 0 0 .0192 13.9 -4.2)" fill-rule="evenodd" fill="#a77b3b" stroke-width="2.5" stroke="#000"/><path d="M283.6 574c.3 0 17.6-17.7 17.6-17.7L319 574l17.6-17.7 17.7 17.7" transform="matrix(-.02153 0 0 .0192 13.9 -7)" fill="none" stroke-width="2.5" stroke="#000"/><path d="M283.6 574c.3 0 17.6-17.7 17.6-17.7L319 574l17.6-17.7 17.7 17.7" transform="matrix(-.02153 0 0 -.0192 13.9 15.5)" fill="none" stroke-width="2.5" stroke="#000"/><path d="M283.6 574c.3 0 17.6-17.7 17.6-17.7L319 574l17.6-17.7 17.7 17.7" transform="matrix(-.02153 0 0 .0192 13.9 -5.6)" fill="none" stroke-width="2.5" stroke="#000"/><path d="M301.4 557l-.2 158.8" transform="matrix(-.02153 0 0 .03643 13.9 -16.5)" fill="none" stroke-width="2.5" stroke="#000"/><path d="M301.4 539.3l-.2 176.5" transform="matrix(-.02153 0 0 .0327 13.5 -13.5)" fill="none" stroke-width="2.5" stroke="#000"/><path d="M301.4 539.3l-.2 176.5" transform="matrix(-.02153 0 0 .03663 13.1 -16)" fill="none" stroke-width="2.5" stroke="#000"/><path d="M318.8 361.5c35.4 17.7 35.4 53 35.4 70.8-1 16 0 354.3 0 354.3s-2.2-20-17.6-35.4L319 733.5l-17.8-17.7c-12.8-11.8-17.5-35.6-17.5-53.3v-248s0-17.6 35.3-53zm0 0" transform="matrix(.02153 0 0 .0192 6.2 -4.2)" fill-rule="evenodd" fill="#a77b3b" stroke-width="2.5" stroke="#000"/><path d="M283.5 574a819 819 0 0017.7-17.7l17.6 17.7 17.8-17.7 17.6 17.7" transform="matrix(.02153 0 0 .0192 6.2 -7)" fill="none" stroke-width="2.5" stroke="#000"/><path d="M283.5 574a819 819 0 0017.7-17.7l17.6 17.7 17.8-17.7 17.6 17.7" transform="matrix(.02153 0 0 -.0192 6.2 15.5)" fill="none" stroke-width="2.5" stroke="#000"/><path d="M283.5 574a819 819 0 0017.7-17.7l17.6 17.7 17.8-17.7 17.6 17.7" transform="matrix(.02153 0 0 .0192 6.2 -5.6)" fill="none" stroke-width="2.5" stroke="#000"/><path d="M301.4 557l-.2 158.8" transform="matrix(.02153 0 0 .03643 6.2 -16.5)" fill="none" stroke-width="2.5" stroke="#000"/><path d="M301.5 539.3l-.2 176.5" transform="matrix(.02153 0 0 .0327 6.6 -13.5)" fill="none" stroke-width="2.5" stroke="#000"/><path d="M301.4 539.3l-.2 176.5" transform="matrix(.02153 0 0 .03663 7 -16)" fill="none" stroke-width="2.5" stroke="#000"/><path d="M177.1 696.2c0 24.5-9.6 44.4-21.2 44.4-11.8 0-21.2-19.8-21.4-44.2 0-24.5 9.8-44.5 21.4-44.4 11.8 0 21.4 19.7 21.5 44.4zm0 0" transform="matrix(.01988 .00739 -.00828 .01773 11.3 -4.8)" fill-rule="evenodd" fill="#a77b3b" stroke-width="2.5" stroke="#000"/><path d="M7.8 5.1h4.5v2H7.8zm0 0" fill-rule="evenodd" fill="red"/><path d="M7.8 7.2h4.5v1c0 .7-1.1.7-2.3 1.3C9 9 7.8 9 7.8 8.2v-1zm0 0" fill-rule="evenodd" fill="#564dff"/><path d="M336.6 485.4h212.6V645c0 35.4-53.2 35.4-106.3 70.8-53.2-35.4-106.3-35.4-106.3-71zm0 0" transform="matrix(.02153 0 0 .0192 .5 -4.2)" fill="none" stroke-width="2" stroke="#ff0"/><path d="M385.6 130s-50.5 55.4-50.5 108.7c0 52.8 53.1 70.6 53.1 70.6s-17.9 0-17.9 71c0 35.5 53.2 17.8 53.2 35.5s-.8 60.2 0 88.4c0 17.8-35.3 0-35.3 17.8 0 8.6 26.4 53.2 53.1 53.2 26.5 0 53.2-44.6 53.2-53.2 0-17.8-35.5 0-35.5-17.8v-88.4c0-17.7 53 0 53-35.5 0-71-17.5-71-17.5-71s53-17.8 53-70.6c0-53.3-50.7-108.8-50.7-108.8s28.5 73.2 28.5 108.8c0 17.7-13.2 52.8-48.7 52.8 0 0-8.8-17.8-17.6 0 0 0-10.1-17.8-17.7 0-2.6 6-7.2-17.8-17.8 0-4.4 4.8-8-17.8-17.7 0-17.6 0-53-17.8-53-52.8 0-35.6 32.8-108.8 32.8-108.8zm0 0" transform="matrix(.01507 0 0 .00902 3.4 4)" fill-rule="evenodd" fill="#ff0" stroke-width="2.5" stroke="#000"/><path d="M382.7 248c-3.6 3.6 4.7 61.2 7 63.8 3.6 3.4 24.9 3.4 28.5 0 2.4-2.6 0-56.8-3.6-60.2-3.6-3.5-29.3-6.1-31.9-3.5zm0 0" transform="matrix(.01507 0 0 .00902 3.5 5.9)" fill-rule="evenodd" fill="#ff0" stroke-width="2.5" stroke="#000"/><path d="M382.8 248c-3.6 3.6 4.4 61.2 7 63.8 3.4 3.4 24.9 3.4 28.3 0 2.6-2.6 0-56.8-3.4-60.2-3.6-3.5-29.5-6.1-32.1-3.5zm0 0" transform="matrix(-.01507 0 0 .00902 16.6 5.9)" fill-rule="evenodd" fill="#ff0" stroke-width="2.5" stroke="#000"/><path d="M414.5 228.4c0 9-7 16-16 16-8.8 0-15.8-7-15.8-16a16 16 0 1131.8 0zm0 0" transform="matrix(.01733 0 0 .01124 2.6 5.4)" fill-rule="evenodd" fill="#ff0" stroke-width="2.5" stroke="#000"/><path d="M414.6 228.4c0 9-7.2 16-16 16s-16-7-16-16c0-8.7 7.2-16 16-16s16 7.3 16 16zm0 0" transform="matrix(.01733 0 0 .01124 3.7 5.4)" fill-rule="evenodd" fill="#ff0" stroke-width="2.5" stroke="#000"/><path d="M10.5 9h-.1-.1v-.1h.2zm-.7 0h-.1-.1l.1-.1h.1zm0 0" fill-rule="evenodd"/><path d="M439.4 550l-7.8-10.4-12.9 1.7 1.9-12.7-10.2-7.7 10.2-7.7-1.9-13 12.9 2 7.8-10.3 7.8 10.2 12.6-1.9-1.6 13 10.2 7.7-10.2 7.9 1.6 12.5-12.6-1.7zm0 0" transform="matrix(.021 0 0 .01874 .8 -3.9)" fill-rule="evenodd" fill="#ff0" stroke-width="1.1" stroke="#000"/><path d="M496 591.7l21.3 10.6 21.4-10.6-21.4-10.5zm0 0" transform="matrix(.02153 0 0 .0192 .5 -4.2)" fill-rule="evenodd" fill="#ff0" stroke-width="1.1" stroke="#000"/><path d="M496 591.7l21.3 10.6 21.4-10.6-21.4-10.5zm0 0" transform="matrix(.02153 0 0 .0192 -2.8 -4.2)" fill-rule="evenodd" fill="#ff0" stroke-width="1.1" stroke="#000"/><path d="M535 659c-3.5-7-14.2-10.6-21.1-10.6-7.2.1-14.2 0-21.4 10.7 0-14.3 10.6-21.4 21.2-21.3 11.5.7 20.7 10 21.3 21.3zm0 0" transform="matrix(.01867 -.00956 .01072 .01665 -5.2 2.5)" fill-rule="evenodd" fill="#ff0" stroke-width="1.1" stroke="#000"/><path d="M386.1 652a7 7 0 01-6.9 7.1c-4 0-7-3.2-7-7s3-7.2 7-7.2a7 7 0 017 7.1zm0 0" transform="matrix(.02153 0 0 .0192 .4 -4.5)" fill-rule="evenodd" fill="#ff0" stroke-width="1.1" stroke="#000"/><path d="M386.1 652c0 4-3 7-7 7a6.9 6.9 0 01-7-7c0-4 3.2-7 7-7 4 0 7 3 7 7zm0 0" transform="matrix(.02153 0 0 .0192 .3 -4)" fill-rule="evenodd" fill="#ff0" stroke-width="1.1" stroke="#000"/><path d="M386.2 652a7 7 0 01-7 7c-3.9.1-7.2-3.2-7.2-7 0-3.9 3.3-7.1 7.1-7.1 4 0 7 3.2 7 7zm0 0" transform="matrix(.02153 0 0 .0192 .2 -4.3)" fill-rule="evenodd" fill="#ff0" stroke-width="1.1" stroke="#000"/><path d="M386.3 652a7 7 0 01-7.1 7c-4 0-7-3-7-7s3-7 7-7a7 7 0 017 7zm0 0" transform="matrix(.02153 0 0 .0192 .6 -4)" fill-rule="evenodd" fill="#ff0" stroke-width="1.1" stroke="#000"/><path d="M386.2 652c0 3.8-3.2 7-7 7s-7.1-3.2-7.1-7c0-3.9 3.2-7.1 7-7.1 3.9 0 7.1 3.2 7.1 7zm0 0" transform="matrix(.02153 0 0 .0192 .7 -4.3)" fill-rule="evenodd" fill="#ff0" stroke-width="1.1" stroke="#000"/><path d="M386.1 652a7 7 0 01-6.9 7 7 7 0 01-7-7c0-4 3-7 7-7a6.9 6.9 0 017 7zm0 0" transform="matrix(.02153 0 0 .0192 .4 -4.3)" fill-rule="evenodd" fill="#ff0" stroke-width="1.1" stroke="#000"/><path d="M9.3 3.5l-.6.1c0-.1.4-.3.8-.3 0 .1 0 .2-.2.2zm0 0" fill-rule="evenodd" fill="#da4500"/><path d="M9.9 3.1c0 .1 0 .2-.2.2L9.6 3H9.9zm0 0" fill-rule="evenodd" fill="#cac9c7"/><path d="M361.4 357.8v10.6H379v53.3h10.7v-53.3h17.8v-10.6h-17.8v-14H379v14h-17.7zm0 0" transform="matrix(.02153 0 0 .0192 .5 -4.2)" fill-rule="evenodd" fill="#ff0" stroke-width="1.1" stroke="#000"/><path d="M9.5 3.3a2.6 2.6 0 00-1 .1c0-.2.4-.5.8-.5l.2.4zm0 0" fill-rule="evenodd" fill="#da4500"/><path d="M67.3 613.1c-14.2-14.4-16.5-21.7 3.7-10.3l283.6 247.7-3.3 7zm0 0" transform="matrix(.01213 .00865 -.0044 .00691 7.4 2)" fill-rule="evenodd" fill="#008500" stroke-width=".7" stroke="#000"/><path d="M7.1 9.6c0-.3-.5-.6-.6-.6 0 0 0 .2.2.3l-.5-.1.4.3h-.3s.8.4.8.1zm-.6-.9c0-.3-.6-.6-.6-.6s0 .2.2.3l-.5-.1.4.3h-.3s.8.4.8.1zM6.1 8c0-.3-.6-.6-.6-.6l.1.3-.4-.1.3.2-.2.1s.7.4.8.1zM5.6 7c0-.3-.6-.6-.6-.6s0 .2.2.3l-.5-.1.4.3h-.3s.8.4.8.1zm0 0" fill-rule="evenodd" fill="#008f00"/><path d="M5.8 7c.3-.2.2-.8.2-.8s-.2.1-.2.3L5.6 6v.4l-.2-.1s0 .7.4.6zm.4.8c.3-.1.5-.7.5-.7s-.2 0-.3.2v-.4l-.2.4s0-.3-.1-.2c0 0-.2.7.1.7zm.5.8c.3-.2.3-.8.3-.8s-.2.1-.2.3l-.1-.5-.1.5-.2-.2s0 .8.3.7zm.5 1c.4-.1.4-.7.4-.8l-.2.3v-.4c-.2 0-.2.3-.2.4L7 8.9s0 .8.2.7zm0 0" fill-rule="evenodd" fill="#008f00"/><path d="M209 776c0 7.7-10.3 14.2-22.9 14.2-12.9 0-23.1-6.4-23-14.1-.1-8 10.2-14.4 23-14.3 12.6 0 22.8 6.4 22.8 14.3zm0 0" transform="matrix(.0188 .00936 -.0105 .01677 12.2 -4.3)" fill-rule="evenodd" fill="#ff1900" stroke-width="1.1" stroke="#000"/><path d="M156 414.5v-7.1l7 .2v-7.1h7v6.8l7.2.1v7.1l-7.2.2v17.6h-7v-17.6zm7 60.2l7 .2v205.4l-7 .1zm0 0" transform="matrix(.01559 .00458 -.0057 .01375 14.1 -.1)" fill-rule="evenodd" fill="#ff0" stroke-width=".5" stroke="#000"/><path d="M159.5 676.8l14 .1.2 56.5-14.2.2zM156 439.5h21.3c14-.1-3.6 39-3.6 39l-14.3-.1s-17.8-39-3.4-39zm17.5-5.6c0 3.1-3 5.6-7 5.5-3.9-.1-7.2-2.4-7-5.3 0-2.9 3-5.3 6.8-5.4 4 0 7.1 2.4 7.3 5.5zm0 0" transform="matrix(.01559 .00458 -.0057 .01375 14.1 -.1)" fill-rule="evenodd" fill="#ff0" stroke-width=".5" stroke="#000"/><path d="M209 776c0 7.9-10.2 14.3-23 14.2-12.8 0-23.1-6.4-23-14.1 0-7.8 10.4-14.4 23-14.3 12.8 0 22.9 6.4 23 14.2zm0 0" transform="matrix(.01795 -.0106 .01189 .01601 0 .1)" fill-rule="evenodd" fill="#ff1900" stroke-width="1.1" stroke="#000"/></svg>