<svg xmlns="http://www.w3.org/2000/svg" width="20" height="14"><path fill="#d3ae3b" d="M0 0h20v14H0z"/><path d="M.8.7h18.4v12.6H.9zm0 0" fill="#c40308"/><path d="M13.3 6.9a1.9 1.9 0 00.6-.3c.2-.1.2-.3.2-.3v-.1l-.3.2h-.3c0 .1-.1.1 0 .1l.4-.2.2-.5v-.1l-.3.3-.3.2c-.1 0-.2 0 0 0 0-.1.4-.3.5-.6a1 1 0 000-.5l-.4.5v.2h-.1c.2-.3.4-.6.4-1a.9.9 0 00-.1-.3l-.2.5a2.2 2.2 0 01-.2.4s-.1.1 0 0l.2-.8-.1-.6-.1-.1v.5L13 5c.1-.3.2-.7 0-1l-.1-.3c0 .3 0 .7-.2 1l-.3.6-.2.3v-.1l-.4.4c-.2.2-.3.3-.2.4 0 .2 0 .3.2.3v.2l-.1.1h-.3V7h-.1v-.5L11 6a.3.3 0 01-.1-.3c.1 0 0 0 0 0a.6.6 0 010-.2v-.1h.2a.3.3 0 01.1-.2h.4l.1-.2h.7v-.3h-.1l-.1.2H12a.7.7 0 00-.4 0 .5.5 0 01.2-.1h.2a.3.3 0 000-.2.2.2 0 00-.2-.1h-.2l-.1-.1a.7.7 0 00-.5 0h-.2a.7.7 0 01-.1 0v-.1c.1 0 0 0 0-.1.1 0 0 0 0 0l.1-.2h.2a.1.1 0 000-.2.1.1 0 00.1-.1v-.2a.2.2 0 00-.1 0v-.1c0-.1-.1 0-.1 0l-.1-.2a.1.1 0 00-.1 0h-.3l-.2-.1v-.2a.2.2 0 000-.1H10v-.2h-.2v.1a.2.2 0 00-.1.2.2.2 0 000 .1 1 1 0 00-.2.1h-.2-.1v.1l-.2.1H9v.1a.1.1 0 000 .1h-.1V4H9l.2.1v.2l.1.2a.8.8 0 01-.1 0H9a.7.7 0 00-.5 0l-.1.1h-.2H8a.3.3 0 000 .3c0 .1 0 0 0 0h.2a.5.5 0 01.2 0A.6.6 0 008 5h-.2v-.2h-.1V5h.6v.1l.3.1h.2a.3.3 0 010 .2H9a.8.8 0 010 .3h.1a.3.3 0 010 .3H9l-.5.5s.2.1.2.5h-.1l-.1-.2h-.3H8l.1-.3c.2 0 .2-.1.2-.3l-.2-.4-.3-.4h-.1l-.2-.2a1.7 1.7 0 01-.3-.6l-.2-1-.2.3v1c.1 0 0 0 0 0l-.1-.5V4l-.2.1v.6c0 .3 0 .6.2.8 0 .1 0 0 0 0a2.2 2.2 0 01-.3-.3 6 6 0 01-.2-.6.8.8 0 000 .3c0 .4 0 .7.3 1l-.1-.2a2.9 2.9 0 01-.4-.5v.5c.1.3.4.5.6.6a2.7 2.7 0 01-.4-.2L6 5.7v.1l.2.5.5.2h-.1a1.2 1.2 0 01-.3-.1 2.8 2.8 0 01-.3-.2c0 .1 0 .3.2.4l.6.3c.1 0 0 0 0 0h-.1a2.4 2.4 0 01-.6-.2s0-.1 0 0a.6.6 0 00.2.4l.6.1a1.7 1.7 0 01-.6 0V7H6V7H5.7l.1.2h-.1v.2H6v.1l.2.2.1.6c0 .4.3.5.3.5V9l.1.1v.2a.6.6 0 00.2.3v.1a.3.3 0 00-.1.1V10.1l.1.1a.5.5 0 00.1 0v.1l.1.1h.2V10.7H7.5v-.1h.2v-.1l-.2-.1v-.2l.1-.1.1-.1.1-.1a1 1 0 01.4-.3v.2l.2-.2.3-.1c.1.1.2 0 .4-.2l.4-.4v.2l-.2.2a.5.5 0 00-.1.3v.2a1 1 0 00-.1.2c-.1.2-.2.2-.3.2l-.2.2.1.2H9a.3.3 0 000 .2h.2v.2H9.4a.5.5 0 000 .1l.1.2h.1l.1-.2.1.2a.7.7 0 00.2.2l.2-.2V11l.2.1s0 .1 0 0a.3.3 0 00.1 0 .5.5 0 000-.2H10.8v-.2h.4a.3.3 0 000-.2s-.1 0 0 0l.2-.1v-.1l-.2-.2c-.1-.2-.2 0-.2-.1l-.1-.3-.1-.1v-.1a.5.5 0 000-.3l-.2-.2-.1-.1.5.3.2.3.1-.1.3.1.2.2a.1.1 0 000-.1 2.9 2.9 0 01.4.1l.2.2h.5a7.7 7.7 0 00.9-.4.5.5 0 000-.1v-.1-.1-.1a.4.4 0 00-.3-.4v-.2-.2h-.2c0-.1 0 0 0 0h-.1V8.7h-.4l-.2.3v.1h-.1v.5l-.3-.2a.5.5 0 01-.1-.2s.1-.1 0-.1H12V9v-.1h-.2a.6.6 0 01-.4-.4l.3.1h.1v-.2c-.1 0-.1 0 0 0 0 0 0 .2.3.2h.3l-.1-.2h.4l.2-.1h-.2v-.1h.4l.2-.2H13l-.1-.1h.4l.3-.3H13l.6-.1.2-.4-.3.1h-.3l.6-.1.2-.4c0-.1 0 0 0 0a2.4 2.4 0 01-.6.2h-.2zm-7 .4H6h.1zm2.3 1.3a.6.6 0 01-.2.2H8V9h-.2c-.1.1 0 .2 0 .2a.4.4 0 01-.1.1l.1.1a.6.6 0 01-.3.1H7a.6.6 0 000-.3L6.7 9v-.1l-.1-.1v-.1-.3L6.3 8a1 1 0 01-.1-.6c.3.2.7.2.7.2h-.5l.2.2c.2.1.4 0 .4 0V8h-.3c0 .2.1.2.2.3h.4-.2l.2.2h.4v.1H8c.2.1.3 0 .4 0 0-.1 0 0 0 0a.7.7 0 00-.1 0l.1.1c.2 0 .3 0 .3-.2a2 2 0 010 .2zm2.1-5.2h.1v.2c.1 0 0 0 0 .1v.1h.1c-.1.1-.2.1-.2 0v-.1a.5.5 0 000-.3zm-.5.3v-.2-.2h.1l.2.3v.1l-.1.1a.2.2 0 01-.1 0H10zm-.5-.4a.4.4 0 01.1 0v.4a.2.2 0 00.1.1h-.2a.4.4 0 00-.1 0v-.2a.3.3 0 010-.3zm-.4.6h-.2v-.2-.1-.1l.2-.1v.4zm1.4 1h-.2.1l-.2.2h-.1v.2l-.1.2a.6.6 0 01-.1 0V6H10l-.1-.2v-.1-.2a.5.5 0 01-.1 0 2.5 2.5 0 01-.2-.2.2.2 0 00.1-.1L9.6 5a.9.9 0 01-.2-.1v-.1l-.2-.2.2-.2h1.2l.2.2-.1.1zm0 0" fill="#b96b29"/><path d="M11.3 7l.1-.6L11 6c-.3.2-.7.2-1 0-.3.2-.7.2-1 0l-.4.4.1.5v.7c-.1.1-.2.4 0 .6a.8.8 0 00.4.5l.7.3a1 1 0 01.2.2l.2-.2.6-.3a.8.8 0 00.6-.5v-.6l-.1-.7zm0 0" fill="#d4af3a"/><path d="M11.2 7v-.5l-.3-.3H9l-.3.3s.2.3.1.6V8a.9.9 0 00.2.5l.5.2.5.3h.1l.4-.3.5-.2a.9.9 0 00.3-.5l-.1-1zm0 0" fill="#b96b29"/><path d="M11.1 7a1 1 0 01.1-.5l-.3-.3H9l-.2.3V8h.4l.2-.2v-.2-.1s-.2 0-.3-.2V7H9v-.2-.2h.2V7h.4v-.1l-.1-.1h-.1v-.1s0-.1 0 0c0 0 .1 0 0 0v-.1h.2v-.1a.2.2 0 01.2 0 .1.1 0 01.2 0h.1v.2s.1 0 0 0V7h.1V7a.2.2 0 01-.1 0v.1h.2a.6.6 0 01.2 0H10.8h-.3l-.2-.2.1-.2h.2a.5.5 0 01.2 0h.1c0-.1.1 0 .1 0h-.1a.6.6 0 01-.3 0h-.1s-.1.1 0 .2h.2l.3.1v.2h-.2v.2a.2.2 0 00.1 0v.1l.1.2v.1a1 1 0 010 .2h.2V7zm0 0" fill="#1d5e91"/><path d="M8.8 8.1c0 .2.2.3.4.4l.6.3.2.2.2-.2.6-.3a.8.8 0 00.4-.4zm0 0" fill="#6d8c3e"/><path d="M9 7h.1v.2h.2V7a.5.5 0 010-.2.4.4 0 010-.2H9V7c-.1 0-.1 0 0 0zm0-.2zm0-.1c0-.1 0 0 0 0zm.1-.1zm.1 0zm.2.7h.1c0-.1 0 0 0 0a.2.2 0 00.1 0c0 .1 0 .1 0 0h.1c0 .1.1 0 .1 0h.1v-.1h.1a.2.2 0 000-.1V7h.1v-.1h-.2v-.1h-.1v-.1h.1s.1-.1 0-.1a.3.3 0 00-.2 0h-.2v.1h.1v.1h.1V7h-.2l-.1.2H9.7s.1 0 0 0v.1h-.1V7h-.2v.2zm0 0" fill="#d4af3a"/><path d="M9.9 6.5c.1 0 0 0 0 0zm.1.1h0c-.1 0 0 0 0 0zm0 0v.1a.3.3 0 010 .1.2.2 0 00.1 0v-.1zm-.4.2c-.1 0-.2 0-.2-.2v.1h.2zM9.3 8h.1v-.2l.1-.1v-.1c0-.1 0 0 0 0l-.1.1a.4.4 0 01-.1.2h-.1zM9 8zm0 0M9.2 8zm.8 0zm0 0zm0 0M10.4 7.6a.2.2 0 000-.1.3.3 0 00-.2 0V8H10c-.1 0 0 0 0 0h.1a.2.2 0 01.1 0v-.1c0-.1 0 0 0 0v-.1-.1zm0 0" fill="#d4af3a"/><path d="M10.1 7.2H10a.1.1 0 010 .2h-.1-.1-.4.1v.1l.1.1.1-.1H10.5v-.1h-.2a1.5 1.5 0 01.2 0 .2.2 0 000 .1l.2.2h.2v.1h-.1V8c-.1 0 0 0 0 0h.2a.2.2 0 000-.1v-.2-.1h-.2v-.2l-.1-.1a.8.8 0 00-.3 0h-.2zm0 0M10.5 8h.1zm.2 0zm-2 0h2.5-2.4zm1.7-1h.4c.2 0 .1.1.1.1l-.2.1h.3V7h-.5l-.1-.2a.2.2 0 01.2 0h.2l.2-.2h-.1-.2-.2l-.2.2.1.1zm0 0" fill="#d4af3a"/><path d="M9.8 6.6zm1 0h-.2.2c0 .1 0 0 0 0zm0 0" fill="#b96b29"/><path d="M10.2 7.7H10v-.2H10s0 .1-.1 0h-.1c-.1 0 0 0 0 .1l-.1.1a.6.6 0 000 .2h.4a.1.1 0 01.1 0l.1-.1zm.6 0h-.1-.1a.4.4 0 01-.1 0h-.1V8h.1a.1.1 0 01.1 0h.2v-.2zm0 0" fill="#1d5e91"/><path d="M9.3 9.6l.2-.2v.1a.4.4 0 000 .2s0 .1 0 0h.1l.1-.2v.5l.1-.2v-.1h.1v.3h.1l.1-.2v-.1.1l.2.2v-.2-.2.1h.2c0 .1 0 0 0 0v-.3l.1.2h.1v-.2l-.1-.2a1 1 0 01-.2-.3.8.8 0 00-.2.2l-.2.2-.2-.2a.9.9 0 00-.2-.2l-.2.3a.3.3 0 00-.2.2v.2zm0 0" fill="#d4af3a"/><path d="M9.3 10a.8.8 0 000 .1s0 .1.1 0h.1v.2h.1l.2-.2c0 .2 0 .4.2.4s.2-.2.2-.4a1 1 0 00.2.2V10h.2c0 .1 0 0 0 0a.8.8 0 000-.2h.1a.2.2 0 00.2.1v-.2l-.2-.1v.1h-.1-.1v.1s-.1-.1-.1 0v.2a1 1 0 01-.1 0h-.1a.7.7 0 010-.2l-.1.1v.3H10c-.1 0 0 0 0 0V10h-.1v-.2l-.1.1-.1.1V10a.4.4 0 010-.2h-.1l-.1.2a.5.5 0 010-.1l-.1-.2-.1.1.1-.1h-.2v.3zm.8 1l-.1-.1a1.9 1.9 0 01-.2.2v.2l.2.1a.5.5 0 00.1-.1l.1-.2-.1-.1zm0 0" fill="#d4af3a"/><path d="M10 11.1v0-.1.1zm0 0" fill="#b96b29"/><path d="M10 4.4a2 2 0 01-.5 0h-.1 1.2-.6zm.6-.1a.7.7 0 000-.1l.1-.1H10h-.7.2v.1h-.1v.1a3.3 3.3 0 011.2 0zm0 0M10.4 4.3h-.8.8zM10 2.7h.1v-.1h-.2zm.2.2H10v-.1h-.2a.1.1 0 000 .1h.4zm0 0" fill="#d4af3a"/><path d="M10 3h.2-.4.2zm0-.2h.2a.2.2 0 00-.1 0zm0 0a.2.2 0 00-.2 0h.1zm0 0" fill="#1d5e91"/><path d="M10.1 4h-.2v.1l.1.1h.1V4zm0 0" fill="#b96b29"/><path d="M10 4l-.1.1h.2zm0-.3v0zm0 .2zm0 0M10 3.8v-.1h.2V3a.3.3 0 01-.2 0 .2.2 0 01-.1 0v.6zm0 0" fill="#d4af3a"/><path d="M10 3.6v-.1zm0-.2v-.1zm0-.2zm0 0" fill="#b96b29"/><path d="M10 3.5zm0-.1zm0-.2zm0 0" fill="#d4af3a"/><path d="M10 9.8v-.2.2zm0 0" fill="#b96b29"/><path d="M9 10.5l.2-.1a.3.3 0 00.2-.1h-.1V10 10H9v.1l-.3.2a1 1 0 01-.2.1l.2.1h.3zm0 0" fill="#d4af3a"/><path d="M9.6 10.4h-.1v-.2h-.1a.3.3 0 01-.1.2H9a.8.8 0 01-.1.2.2.2 0 00-.1.1h.2l.3-.1.2-.2zm0 0" fill="#d4af3a"/><path d="M9.8 10.5V10.2l-.1.1a.2.2 0 010 .1l-.1.1a.6.6 0 01-.2.1.6.6 0 00-.2.2v.1l.4-.1a.5.5 0 00.2-.3zm0 0M10 10.9v-.3h-.1a.4.4 0 01-.2.2l-.2.1v.3h.1l.1-.1.2-.2zm0 0" fill="#d4af3a"/><path d="M9.3 9.5a1 1 0 01.1-.2.6.6 0 000 .2zm.3 0v.2a.5.5 0 000-.2zm.2.2v-.1.1zm-.6.5l-.1.1a.2.2 0 01-.1 0v.1h.1a.7.7 0 000-.2zm.2.3h-.1l-.2.1h.2a.5.5 0 000-.1zm.2.1l-.1.1a.6.6 0 01-.1 0h.2zm.2.2a.4.4 0 00-.2.2l.2-.1a.2.2 0 000-.1zm0 0" fill="#b96b29"/><path d="M8.6 5A.8.8 0 008 5 .4.4 0 018 5a.2.2 0 01-.2-.3V5a.2.2 0 00.1.1h.7c.1 0 .1 0 0 0zm0 0" fill="#c52126"/><path d="M8.1 9.3H8a1.1 1.1 0 01-.2 0H8.1zm0 0" fill="#d4af3a"/><path d="M8.7 9.2h-.1l-.1.1v-.1a.4.4 0 01-.2-.1H8 8l.2.1a.6.6 0 000 .2.6.6 0 000 .2h.1a2.4 2.4 0 01.3-.2zm0 0" fill="#d4af3a"/><path d="M9.2 8.8a.5.5 0 00-.1.1S9 9 9 9a.6.6 0 010-.1 2 2 0 01-.2-.1h-.1a1 1 0 010-.2.6.6 0 01-.2.2l-.4.2h.4a1 1 0 01-.2 0h-.1l.2.1h.2v.4s0 .1 0 0l.2-.1v-.1.2l.2-.2V9l.2-.1a.7.7 0 010-.1zM7.1 5l.1.4.1.1-.2-.3-.2-.2v.3l.2.3v.1l-.2-.2a1.4 1.4 0 01-.1-.2v.1a.5.5 0 00.1.3L7 6 7 5.8l-.2-.2.1.4.2.1h-.1L6.6 6c0 .2.2.3.3.3l.1.2H7a1.3 1.3 0 00-.2-.1v.2a.4.4 0 00.3 0v.1h-.2V7l.3.1c.1 0 .1 0 0 0l-.2.1.1.1h.4v.1h-.2v.2h.4l-.1.1v.1a.3.3 0 00.3 0h.1a.3.3 0 01-.1 0l-.1.1.1.1a.8.8 0 00.3 0h.1a.6.6 0 01-.1 0v.2a.5.5 0 00.4 0 .2.2 0 000-.1.8.8 0 010-.2l-.2-.2a.2.2 0 01-.1 0 .2.2 0 01-.2 0v-.2h-.1a.4.4 0 01-.2 0v-.2h-.1-.1a.2.2 0 010-.2h-.2v-.3L7 6.4v-.2-.1V6 6v-.2h.2a.2.2 0 010-.2h.1c.1-.1.2 0 .2 0v-.3a2 2 0 01-.4-.7v.1A.6.6 0 007 5zm0 0" fill="#d4af3a"/><path d="M8.6 7a.2.2 0 01-.1 0l-.3-.2-.3-.1s0-.2.2-.3l.2-.2-.3-.4-.2-.4v.2h-.2-.2v.2h.1c0 .1 0 0-.1 0h-.2c-.1.1 0 .2 0 .2h.1A.3.3 0 007 6v.2l.2.1c-.2 0-.2.1-.2.2h.2l.1.1-.1.1v.1h.2V7.2H7.7v.2H8v.3l.3-.1.1.2h.2v-.2a3 3 0 000-.5zM6.3 5.5l.3.3v-.2l-.1-.1-.1-.3v.3l.2.1h.1v-.1L6.3 5a6.5 6.5 0 01-.1-.5c0-.1 0 0-.1 0a.8.8 0 000 .3l.1.6zm.2.6h.1l-.1-.2a1 1 0 01-.2-.1c0-.1 0 0 0 0 .2 0 .3.2.3.2v-.2c-.3-.2-.5-.4-.6-.7l.1.6.4.4zm.9 1.6H7l.3-.1H6.4c.1.2.3.2.5.2h.4zM7 7.5h.2v-.1H7h-.2.3v-.1H7h-.4l-.3-.1a.5.5 0 00.3.3H7zm0-.3C6.8 7 7 7 7 7h-.2L6.6 7h-.2.4A.5.5 0 007 7a.3.3 0 01-.2 0l-.4-.2a1.3 1.3 0 01-.4-.1v.2l.4.2H7zm-.7-.6l.4.2h.1v-.1h-.3l-.2-.2.2.1H6.5a1.6 1.6 0 01-.3-.2H6l-.2-.2a.6.6 0 000 .2l.4.2zm0-.3l.3.2v-.1h-.1a2.3 2.3 0 01-.2-.2c-.1 0 0 0 0 0h.1l.2.2h.1v-.1h-.2a2 2 0 01-.3-.3L6 5.7V6l.3.4zm.6-1.4V5A.7.7 0 017 5v-.4a1.6 1.6 0 010-.3v.5l.1-.2V4L7 3.6l-.2.6v.4l.1.3zm-.2.5v-.1V5a1.1 1.1 0 010-.2c-.1-.2-.1-.4 0-.1v.4l.1.1a.4.4 0 010-.1.8.8 0 010-.2l-.1-.4a2.2 2.2 0 01-.1-.7l-.1.4c0 .4 0 .8.2 1zm1 2.6v-.2h-.1a.9.9 0 01-.1.1h-.1l.3-.1h-.1-.1-.3A1.7 1.7 0 017 8V8h.5a1.5 1.5 0 00.3-.1zm.3.2V8l-.2.2c-.1 0-.1 0 0 0l.1-.2-.3.1-.4.2h.4l.4-.1zm.5-.1h-.2v.1a.5.5 0 01-.1.1H8h.2v-.1H8l-.1.1-.2.1.2.1h.2a.8.8 0 00.2-.2l.1-.2zm0 .3h.1a.5.5 0 010-.2l-.2.2v.2h.2a.2.2 0 000-.2zm.1-3.8zm0 0M8.4 4.5h.2a.8.8 0 01.2.1.5.5 0 00.4 0c.2 0 .1-.2.1-.2a.5.5 0 01-.3 0v.1a.6.6 0 00-.2-.1.4.4 0 00-.3 0c-.1 0-.1.1 0 .1zm1.5 1a.2.2 0 01-.1 0 2.4 2.4 0 01-.2-.2.2.2 0 000-.1V5a1.3 1.3 0 01-.3-.2v-.1L9 4.7a.6.6 0 01-.2 0 .9.9 0 01-.2 0h-.2v-.1h-.2s-.1-.1-.2 0l-.1.1c0 .1 0 0 0 0h.2l.2.1.2.1v.2h-.3.1a.4.4 0 00.3 0c.2.1.2.2.2.3a.1.1 0 00.1 0v-.1.4h.2v.2a.3.3 0 00.2.2V6a.8.8 0 000-.2v-.3l.2.2h.3v-.2zm0 0" fill="#d4af3a"/><path d="M9.2 5.9H9V6h.2-.1v-.1zm.6 0a1 1 0 010-.1.5.5 0 01-.3 0h.1l-.1-.1V6h.4a1 1 0 010-.2zm0 0" fill="#d4af3a"/><path d="M9.5 5.5v-.1a.4.4 0 00.2.2l-.2-.1zm-.2.3v-.2.3zm-.3-1V5l.1.1v.1a.4.4 0 00-.2 0H9l.2.1V5A.8.8 0 009 5zm-1 3zm.4.1l-.1.1zM7 5.8v-.1zM7 6h-.1zm0 .3h-.1zm0 .3zm0 .3h.1zm.4.3a.2.2 0 01-.1 0h-.1.2zm.2.2a.2.2 0 01-.1 0h.1zm.2.2zm-.4-2.2c0 .1 0 0 0 0v-.1zm-.1.3l-.1-.2a.7.7 0 010 .1zm.1.5h-.1.1zm-.1-.3h.1-.1zm.3-.2zm-.2.8zm0 .2h.2a.2.2 0 00-.1 0zm.4.2h-.1.1zm.2.2h-.1zm.3.2c-.1 0 0 0 0 0zm0 0" fill="#b96b29"/><path d="M9.2 4.2h.2-.1zm0 0" fill="#d4af3a"/><path d="M9.8 4.1l-.1.1h-.1V4h.2zm0 0" fill="#b96b29"/><path d="M9.7 4.1h-.1.1zm-.3-.3a.3.3 0 00.1 0zm.1 0V4zm-.1 0V4zm0 .2h-.1-.1.1a.3.3 0 00.2 0zm-.2 0v-.1H9h.1zM9 3.7V4zM9 4zm0-.2a.3.3 0 01.1-.3l.3-.1.1-.2h-.1v.1h-.1a.9.9 0 00-.2.1v.1H9a.6.6 0 000 .1V3.8s.1 0 0 0zm0 0" fill="#d4af3a"/><path d="M9.3 3.2zm-.2.2c-.1 0-.1 0 0 0zm-.2.2zm.9-.5a.4.4 0 00-.1 0v.1h-.1a.5.5 0 00-.3.2v.3l.1.1v-.1h.1v-.1a.4.4 0 01.1-.2.8.8 0 01.2-.2V3zm0 0M9.7 3.2zm.2.7zm0 0M10 4h-.1l-.1-.1h-.1-.1V4h.3zm0 0M9.6 3.9zm0 0" fill="#d4af3a"/><path d="M9.5 3.6h-.1v-.1zm0-.3c-.1 0 0 0 0 .1v-.1zm0 0" fill="#b96b29"/><path d="M9.4 3.5zm.1-.2zm-1.3 6h-.1l-.2.2a.6.6 0 01-.3 0 4.2 4.2 0 01-.5 0l-.2.1v.2c0 .1.1 0 .2 0v-.1h.3a.4.4 0 00-.2 0v.1h.1a.2.2 0 010 .1v.1h.1a.3.3 0 01.1 0h.1a.5.5 0 01.1-.2l.2-.1.2-.1.1-.2zm-2-2.1V7H6L6 7h-.1v.2c0 .1 0 0 0 0l.1.2h.1v-.2zm.7 2.8v-.1a.2.2 0 01-.1 0v-.2l-.1.1.1.2zm0 0H7zm0 0" fill="#d4af3a"/><path d="M7 10.2h.1a.5.5 0 01.2 0V10H7c0 .1 0 0-.1 0h-.2v.2H7zm.4 0a.2.2 0 01-.1 0H7v.1h.2a.3.3 0 01.1 0 .3.3 0 00.1 0zm0 0l.1-.2v.1zm0-.3h-.1zM7 10s0 .1 0 0zm0 0v-.2.1zm-.5-1.1v-.2a1.1 1.1 0 00-.1-.5 2 2 0 01-.2-.3 1 1 0 010-.3v-.1H6v.1a.9.9 0 01.2.3V8l.2.5.2.2zm.1.3v.2l.2.3.1-.2a.7.7 0 00-.1-.2c0-.1-.1-.2-.2-.1zm0-.2c-.1 0-.1.1 0 .1zm1 1.6a.2.2 0 01-.1 0 .3.3 0 01-.1-.2h-.2V10.6a.8.8 0 00.2-.1h.1c.1 0 0 0 0 0zm0 0M7.5 10.6zm0 0" fill="#d4af3a"/><path d="M13.6 9.5h-.2v.1h.2a.2.2 0 000-.1zm.1-.4a.4.4 0 00-.2-.3V9c-.1 0-.1 0 0 0l.1.1h.1zm-.6-.1v-.3H13l-.2.2h.1l.3.1zm-.4.3v.1l.3.1h.2v-.1h-.3zm0 0" fill="#1d5e91"/><path d="M12.7 9.2h.5v.1h.1v-.1h.1v.1H13.8v-.1l-.3-.1v-.3a.6.6 0 00-.2 0V9H13a38.4 38.4 0 01-.4 0 .5.5 0 000 .2zm0 0" fill="#d4af3a"/><path d="M13.8 9.4h-.1l-.1.2-.2.1-.1-.1.1-.1v-.2a.2.2 0 00-.2.1v.2a.4.4 0 01-.3 0l-.2-.1-.1-.3h-.1v.4c.1 0 .2.1 0 .1l-.4-.3a.5.5 0 01-.3-.1v.2l.3.2c.1 0 .2 0 .3.2h.8l.5-.2.1-.2zm-.6-.9h.1v.2c.1 0 0 0 0 0l.1-.1h.1v-.2h-.2l-.1.1zm.2.7s0 .1 0 0zm.3.2v-.1zm-1.1-.2V9zm0 0" fill="#d4af3a"/><path d="M12.9 9l-.1.1c-.1 0 0 0 0 0zm.2.1H13c-.1 0 0 0 0 0zm.6.1l-.1.1v-.1zm-.4 0h-.1V9zm0-.2h-.1.1zm0-.2v0zm0 0" fill="#b96b29"/><path d="M12.8 9v.1zm.2.1zm.6.1zm-.4 0zm0-.2zm.1-.2zM11 10.5l-.1-.1a.4.4 0 01-.2-.1h.1V10 10h.2v.1l.3.2.2.1-.2.1h-.3zm0 0" fill="#d4af3a"/><path d="M10.4 10.4h.1v-.2h.1l.1.2h.2a1 1 0 00.1.2.2.2 0 01.1.1h-.2l-.3-.1a.6.6 0 01-.2-.2zm0 0" fill="#d4af3a"/><path d="M10.2 10.5V10.2v.1a.1.1 0 00.2.1v.1a.5.5 0 00.2.1l.2.2v.1l-.4-.1a.5.5 0 01-.2-.3zm0 0M10 10.9v-.3h.1l.2.2.2.1v.3h-.1l-.1-.1-.2-.2zm0 0" fill="#d4af3a"/><path d="M10.7 9.5a1 1 0 00-.1-.2v.2zm-.3 0a.9.9 0 010 .2.4.4 0 010-.2zm-.2.2v-.1.1zm.6.5l.1.1h.1v.1h-.1zm-.2.3h.1l.2.1h-.2a.5.5 0 010-.1zm-.2.1l.1.1a.5.5 0 00.1 0h-.2zm-.2.2l.2.2-.2-.1a.3.3 0 010-.1zm0 0" fill="#b96b29"/><path d="M11.4 5a.8.8 0 01.6 0h.1a.2.2 0 00.2-.3V5a.2.2 0 01-.1.1h-.7c-.1 0-.1 0 0 0zm0 0" fill="#c52126"/><path d="M11.9 9.3H12.3 12h-.1zm0 0M11.3 9.2h.1l.1.1v-.1a.3.3 0 00.2-.1H12a.5.5 0 01-.2.1.6.6 0 010 .4h-.1a2.7 2.7 0 00-.3-.2zm0 0" fill="#d4af3a"/><path d="M10.8 8.8a.6.6 0 01.1.1s.1 0 0 0a.6.6 0 000-.1l.2-.1h.1v-.2a.5.5 0 00.2.2l.4.2h-.4s-.1 0 0 0h.2c.1 0 .2 0 0 0V9H11.2v.2a.6.6 0 010 .2s0 .1 0 0l-.2-.1v-.1.2l-.2-.2V9l-.2-.1a.7.7 0 000-.1zM12.9 5l-.1.4-.1.1.2-.3.2-.2v.3l-.2.3v.1l.3-.4v.1a.5.5 0 01-.1.3L13 6l.1-.1.2-.2-.1.4-.2.1h.1l.3-.1a.5.5 0 01-.3.3l-.1.2h.1l.2-.1v.2a.4.4 0 01-.3 0v.1h.2V7l-.3.1c-.1 0-.1 0 0 0l.2.1-.1.1h-.4v.1h.2v.2h-.3-.2.1l.1.1a.4.4 0 01-.3 0H12v.1h.1l.1.1-.1.1a.8.8 0 01-.3 0h-.1.1v.2a.4.4 0 01-.4-.1.8.8 0 000-.2l.2-.2h.1a.2.2 0 00.2 0v-.2h.1a.3.3 0 00.2 0v-.2h.2a.2.2 0 000-.2h.2v-.3l.2-.2v-.2-.1a.1.1 0 000-.1V6v-.2h-.2v-.2h-.1c-.1-.1-.2 0-.2 0v-.3a2 2 0 00.2-.3 2 2 0 00.2-.4v.1l.1.3zm0 0" fill="#d4af3a"/><path d="M11.4 7a.2.2 0 00.1 0l.3-.2.3-.1s0-.2-.2-.3l-.2-.2.3-.4.2-.4v.2h.4v.2h-.1c0 .1 0 0 .1 0h.2V6h-.1a.3.3 0 01.2 0v.2l-.2.1c.2 0 .2.1.2.2h-.2l-.1.1.1.1v.1h-.2V7.2a.3.3 0 01-.2 0h-.1.1v.2H12v.3l-.3-.1-.1.2h-.2a3 3 0 010-.2 2 2 0 010-.3V7zm2.3-1.5l-.3.3v-.2l.1-.1.1-.3v.3l-.2.1h-.1v-.1l.3-.4.1-.5c0-.1 0 0 .1 0V5a1.5 1.5 0 01-.1.6zm-.2.6h-.1l.1-.2a1 1 0 00.2-.1c0-.1 0 0 0 0l-.3.2v-.2c.3-.2.5-.4.6-.7l-.1.6-.4.4zm-.9 1.6h.3a1.1 1.1 0 01-.3-.1H13.6c0 .2-.3.2-.5.2h-.4zm.4-.2h-.2v-.1h.4-.3v-.1h.5l.4-.1a.5.5 0 01-.4.3 1.8 1.8 0 01-.4 0zm0-.3c.1-.1 0-.1 0-.1h.2l.2-.1h.1a3.4 3.4 0 01-.5 0 .3.3 0 00.2 0l.4-.2.4-.1v.2l-.4.2H13zm.7-.6l-.4.2h-.1v-.1h.3l.2-.2-.2.1h-.3H13.6l.3-.2h.1l.2-.2a.6.6 0 010 .2l-.4.2zm0-.3l-.3.2v-.1h.1l.2-.2c.1 0 0 0 0 0h-.1l-.2.2h-.1v-.1h.2a1.6 1.6 0 00.3-.3l.3-.3V6a.8.8 0 01-.3.4zm-.6-1.4V5H13v-.4-.3.5l-.1-.2V4l.1-.5.2.6v.4a.9.9 0 01-.1.3zm.2.5v-.2-.1-.2c.1-.2.1-.4 0-.1v.4h-.1a.5.5 0 000-.2l.1-.4.1-.7.1.4c0 .4 0 .8-.2 1zm-1 2.6v-.2l.2.1h.1l-.3-.1h.5l.3.2V8h-.5a1.3 1.3 0 01-.3-.1zm-.3.2V8l.2.2c.1 0 .1 0 0 0a1 1 0 01-.1-.2l.3.1.4.2h-.4l-.4-.1zm-.5-.1a.5.5 0 00.2 0v.1l.1.1h.1a.5.5 0 01-.1 0v-.1h.1l.1.1.2.1-.2.1a.4.4 0 01-.2 0 .7.7 0 01-.2-.2l-.1-.2zm0 .3l-.1-.1a.6.6 0 000-.1l.2.2v.2h-.2v-.2zm-.1-3.8zm0 0M11.6 4.5h-.2a.8.8 0 00-.2.1.5.5 0 01-.4 0c-.2 0-.1-.2-.1-.2h.3v.1a.5.5 0 01.2-.1h.3s.1.1 0 .1zm-1.5 1a.2.2 0 00.1 0l.2-.2v-.1V5l.3-.2v-.1l.2-.1H11.5v-.1h.2s.1-.1.2 0l.1.1c0 .1 0 0 0 0h-.2l-.2.1-.2.1v.2H11.4a.4.4 0 00-.2.3.1.1 0 01-.1 0v-.1.4h-.2a.6.6 0 010 .2l-.2.2V6a.8.8 0 010-.2v-.3l-.2.2H10v-.2zm0 0" fill="#d4af3a"/><path d="M10.8 5.9h.1V6a.4.4 0 01-.2 0h.1v-.1zm-.6 0v-.1a.5.5 0 00.3 0h-.2.1a.4.4 0 00.1-.1V6h-.4a1 1 0 000-.2zm0 0" fill="#d4af3a"/><path d="M10.5 5.5v-.1a.5.5 0 01-.1.1h-.1.2zm.2.3v-.2.3zm.3-1V5a.5.5 0 00-.1.1v.1h.2a.7.7 0 01-.1 0l-.2.1V5A.8.8 0 0111 5zm1 3zm-.4.1l.1.1zM13 5.8v-.1zm0 .2h.1zm0 .3a.7.7 0 00.1 0zm0 .3zm0 .3h-.1zm-.4.3a.4.4 0 00.1 0h.1-.2zm-.2.2a.2.2 0 00.1 0h-.1zm-.3.2h.1zm.5-2.2c0 .1 0 0 0 0v-.1zm.1.3l.1-.2v.1zm-.1.5h0zm.1-.3h-.1.1zm-.3-.2zm.2.8zm0 .2h-.2a.2.2 0 01.1 0zm-.4.2h0zm-.2.2h.1zm-.3.2zm0 0" fill="#b96b29"/><path d="M10.6 4.2h.1zm0 0" fill="#d4af3a"/><path d="M10.2 4.1l.1.1h.1V4h-.2zm0 0" fill="#b96b29"/><path d="M10.3 4.1h.1-.1zm.2-.3zm0 0V4zm.1 0V4zm0 .2h.1a.3.3 0 01-.2 0zm.2 0v-.1h0zm.2-.2V4zm0 .1zm0-.2a.3.3 0 00-.1-.3.5.5 0 00-.3-.1l-.1-.2h.1v.1h.1l.2.1v.1h.1v.4s-.1 0 0 0zm0 0" fill="#d4af3a"/><path d="M10.7 3.2zm.2.2c.1 0 .1 0 0 0zm.1.2h.1zm-.8-.5h.1v.1h.1c.2 0 .2.1.3.2v.3l-.1.1v-.1h-.1v-.1a.4.4 0 00-.1-.2.8.8 0 00-.2-.2V3zm0 0M10.3 3.2zm-.2.7zm0 0M10 4h.1c.1 0 0 0 0 0l.1-.1h.2V4H10zm0 0M10.4 3.9zm0 0" fill="#d4af3a"/><path d="M10.5 3.6h.1v-.1zm0-.3v0zm0 0" fill="#b96b29"/><path d="M10.6 3.5zm-.1-.2zm0 0" fill="#d4af3a"/></svg>