<svg xmlns="http://www.w3.org/2000/svg" width="20" height="14"><g fill-rule="evenodd"><path d="M0 0h20v14H0zm0 0" fill="#3b5aa3"/><path d="M0 13.6L20 0v2.5L0 14zm0 0" fill="#e2ae57"/><path d="M.7 14L20 5.2V2.4L0 14zM5.5.4l-.2 3-.9-1.9.4 2L3.5 2l.8 1.9-1.7-1.2L3.9 4l-2-.8 1.8 1.2-2.1-.2 2 .7-3.2.3 3.2.2-2 .7 2-.2L2 7l2-.8L2.6 8l1.7-1.2-.8 1.8L4.8 7l-.3 2 .8-1.8.2 2.9.3-3 .8 2-.3-2 1.3 1.5-.9-1.9L8.5 8 7 6.3l2 .8L7.3 6l2.2.3-2-.7 3.2-.2L7.4 5l2.2-.6-2.3.2 1.9-1.2-2 .8 1.3-1.6-1.7 1.2.8-1.9-1.3 1.7.3-2.1-.8 2-.3-3zm0 0" fill="#fff"/></g></svg>