<svg xmlns="http://www.w3.org/2000/svg" width="20" height="14"><path fill="#00785e" d="M0 0h20v14H0z"/><path d="M9.2 3.2l1.3.8-.5-1.4L9.5 4l1.3-.8zm0 0" fill="#fbd116"/><path d="M10 9.7H6.8l-.1-.1H10zm0-1a.4.4 0 000-.2L9 9a2.7 2.7 0 01-.8 0h-2l.3.3h1.9c.6 0 1.2-.2 1.6-.5zM6.6 8a1.1 1.1 0 01-.3.1c.5.5 1.1.8 1.9.8.7 0 1.3-.3 1.8-.7a11.8 11.8 0 000-3.7c-.2.2-.6.5-.8 1.1a2.2 2.2 0 00.4 2A2.2 2.2 0 019 6c0-.3.1-.7.3-1a1 1 0 01-.3-.3 2.2 2.2 0 00.2 2.5 3 3 0 00-2.3-.8l.2.2a3 3 0 012.2.9 3.1 3.1 0 00-2-.7 3 3 0 00-1 .2c.3 1 1.4 1.7 2.5 1.6h-.5c-.6 0-1.2-.2-1.7-.7zm3.4 2.6H8.3a4.8 4.8 0 001.7.3.3.3 0 000-.1.3.3 0 000-.2zm0-.7H7c.2 0 .2.1.3.2H10a.1.1 0 000-.2zm0 .4H7.6l.5.2H10a.2.2 0 000-.1.2.2 0 000-.1zm0 0" fill="#fff"/><path d="M6.3 5.1l.8.7-.2-1-.5 1 1-.6zm1.1-1h1.1l-.9-.5.4 1 .3-1zm0 0" fill="#fbd116"/><path d="M10 9.7h3.2l.1-.1H10zm0-1a.4.4 0 010-.2 2.6 2.6 0 001.8.6h2a3.5 3.5 0 01-.3.2h-1.9c-.6 0-1.2-.2-1.6-.5zm3.4-.7l.3.1c-.5.5-1.1.8-1.9.8a2.6 2.6 0 01-1.8-.7 12 12 0 01-.1-1.7l.1-2c.2.2.6.5.8 1.1a2.2 2.2 0 01-.4 2 2.2 2.2 0 00.3-2.5 1 1 0 00.3-.4 2.2 2.2 0 01-.2 2.6 3 3 0 012.3-.8.9.9 0 00-.2.2 3 3 0 00-2.2.9 3.1 3.1 0 012-.7l1 .2c-.3 1-1.4 1.7-2.5 1.6h.5c.6 0 1.2-.2 1.7-.7zM10 10.6h1.7a4.8 4.8 0 01-1.7.3.3.3 0 010-.1v-.2zm0-.7h3c-.2 0-.2.1-.3.2H10a.1.1 0 010-.2zm0 .4h2.4a5 5 0 01-.5.2H10a.2.2 0 010-.1.2.2 0 010-.1zm0 0" fill="#fff"/><path d="M13.7 5.1l-.8.7.2-1 .5 1-1-.6zm-1.1-1h-1.1l.9-.5-.4 1-.3-1zm0 0" fill="#fbd116"/></svg>