<svg xmlns="http://www.w3.org/2000/svg" width="20" height="14"><path fill="#012169" d="M0 0h20v14H0z"/><path d="M12 3.2h6.4v4.3c0 1.7-1 2.8-3.2 3.3-1.5-.4-3.2-1.1-3.2-3.2zm0 0" fill="#fff"/><path d="M389.4 115.4h196.4l-.2 140.1c1.6 56.4-33.4 91.2-97.9 107-45.7-11.3-98.4-35-98.4-105.4zm0 0" transform="scale(.03125 .02917)" fill="#00a2bd" stroke-width="1.8" stroke="#000"/><path d="M18.3 8c-.3 1.5-1.6 2.2-3 2.6-1.4-.4-2.8-1-3-2.7zm0 0" fill="#a53d08"/><path d="M15 4.1v-.5h.4v.5h1.2v.4h-1.2v4.7H15V4.5h-1.2v-.4zm0 0"/><path d="M449 278.8l35 36.3c12.1-13.4 3.8-63-12.3-72.2-1.8 6-5 13-8.4 15.3-7.6 5.2-26.2 11.3-20 15 1.4-1.9 5-3.7 7 .5 2 7-8 7.4-8 7.4s-6-.8-7.2-7c-1-6.4 9.3-12.1 10.1-12.5 1-.4 14.4-4 16.7-16 2.9-11.8 5.9-10 6.4-10.2 17.6 1.7 29 33.3 29.8 55.5.6 22.2-9 37-10.9 38-1.6 1-42-48-42-48l4-2zm0 0" transform="scale(.03125 .02917)" fill-rule="evenodd" fill="#ff9a08" stroke-width=".8" stroke="#000"/><path d="M474.6 245l.1 65.4m-4-64.1l.2 59.5m-4.5-51l.2 47.3m-3.7-43.9l.2 39.1" transform="scale(.03125 .02917)" fill="#ff9a08" stroke-width=".8" stroke="#000"/><path d="M459.3 260v33m-4-30.4v26.1m-3.6-24v20" transform="scale(.03125 .02917)" fill="none" stroke-width=".8" stroke="#000"/><path d="M849 362.3l45.2 51.8" transform="matrix(.025 0 0 .02333 -7.2 -.2)" fill="none" stroke-linecap="round" stroke="#ffdf00"/><path d="M896.3 329.8s20.4 44.7 1.5 81.6m-54.1-58.5s1.5-3.8 3.4-2.1m-6.9-9.2s-8.2 7.2-3.7 11.8" transform="matrix(.025 0 0 .02333 -7.2 -.2)" fill="none" stroke-width="1.8" stroke-linecap="round" stroke="#ffdf00"/><path d="M494 175.4c2.3-2 3.6-3.3 5.1-3 1.5.2 3.5 0 5-.4 3.9-1 8-1.1 12-.4 1 .2 2.5.8 4.6 2.5 2 1.7 5.2 5 4.2 13.5-1 8.7-.6 12.4-1.1 17.3-1 8.4-2.8 15.5-6 15 4.5 8 5 15 8 20.5s4.7 16.7 3.6 29-4.4 39.7 5.4 58.2c-1.7 1-5.5 0-9-3.8-3.5-3.6-5-3.4-8-1.3-8.7 6.7-17 14.9-29 6.7-2.8-1.7-3.6-4-1.6-9.6 5-14.1 7.6-33.5 6.7-42.5V175.4zm0 0" transform="scale(.03125 .02917)" fill="#008021" stroke-width=".3" stroke="#000"/><path d="M916.2 217.2c1 2.8 1 5.8-.2 8.5-1.2 3-1.5 6.4.7 10.6 3.4-5 8.2-4 11.2-6.7 3-3 3.4-5.7 5.6-6.2-2.2-2-5.4-4-4.7-9.6.7-5.3 8.3-9.8 1.5-18.2a10 10 0 00-8.8-3.7 9.5 9.5 0 00-8 5.2c-.4 1 .2 3-1 4.3a8 8 0 01-2.6 2.6c-.4.5-.9 1-.3 2 .3.1 1 .1 1.4.5l-1 1.6c-.4.5-.2.9.2 1.4-.6 1.7.5 1.8-.3 3.2-.6 1-1.4 2.5 1 3.6.6.4 3.7 1 5.3.9zM888 246c-4 1-10.5-.9-15.4-.2-2.1.2-3.9-.8-3.5-3a31 31 0 000-8.5c.1-6.6 1.7-12.8 4.8-18.5 2.5-4.5 4-9.5 4.8-14.5 0-2.4.2-4.9 2.2-6.2 1.4-1 1.8-1.9 2.4-2.7 1-1.8 2.3-2.2 2.5-1.2 0 .7-.2 1.4-.8 2 1.2-1 3.4-2.1 4-2.5.5-.5 3-2.2 3.2-.5 1-.5 1.7-.5 2 0 .2.7 0 .9-.5 1.4.8-.2 1.6 1 0 2.1.8-.1 1.8 1 .4 2.2-1.4 1.2-3.2 2-3.5 3-.4 1-4 3.5-5.3 4-1.4.7-1.6 1.6-1.6 3.6 0 22-2.5 20.2-2.5 25.7 0 1.4-.3 2.7 1.1 2.2a18 18 0 015.7-1zm.9 47.9c6.6-3.4 14-4.6 18-5.6 4.3-1.5 8.7-3.3 13-5.7 3-1.5 5.6-3.6 7.1-4.2a8 8 0 004.9-4c5-8.3 8-17.7 8.6-27.3 0-5-1.3-10.7-6.1-6.7-5.2 4.4-9 10-11.1 16.5-2 8-3.8 9.8-4 11.3-.6 1.7-2.3 1.7-4.1 2-6.3 1-12.2 3.9-17 8a205.4 205.4 0 01-17.7 11.6c-4.7 2.5-5.7 2.9-6.6 5-1 2-2 3.6-2.8 4.6-1 1-1.1 1.8-1 3.2.2 1-.3 5.1-.3 6.7 0 1.5.4 1.6 1 1.8.4 0 1.2-.2 1.5-2-.3 1.8 2 1.2 2.2-.2 0 2 2.5.9 2.5-.8 0 1.2 2 .3 2.2-.2.5-1.5.8-3 1.4-4.2.8-1.6 1.7-3.8 3.5-5 1.8-1.3.9-3 4.8-5zm46.7 118c.3 1.6 1.3 3.3 1.4 4.5.3 1-.1 1.3-.4 2a39 39 0 00-3.3 11c-.2 1.6-1.3 3-1.7 4-.7 1-.4 1.7.9 2.8.5.5 2.5-.2 2.6-1.2.8.6 2 .5 2.7-.5.6.5 1.7.1 2.5-1 .6.5 1.6-.4 2-1 1 .5 2 0 2-2 0-.5.2-1.2.5-1.5.3-.6.5-1.6.5-2.2 0-.9.5-2.5 1.1-3.5.6-1.2 1.9-3.2 1.4-5-.5-1.7-1.2-1.7-1.9-4-1.5-1.8-3.7-4.1-6-4.3-2.3-.1-3.5 1.4-4.3 1.9zm-41 12.4c2 2 6.5 2 9.8-1.4-1.1-.5-3.8-1.6-4.9-2.5-1.5 1.5-3.4 3.4-5 3.9zm0 0" transform="matrix(.025 0 0 .02333 -7.2 -.2)" fill="#ffe1cf" stroke-width=".4" stroke="#000"/><path d="M501.4 149c.6-4 3.5-4 5.4-3.6.7.2 2.4.4 4.3 0 3.4-1 6 .2 5.6 3.5 1 .7 2 2.3 1.7 3.6-.1 1.5.2 2 1.4 2.2 1.3.3 4 1.9 2.2 4 1.8 1 3 3.8 2.1 5.4-.9 1.8-3.6 2.1-4.9.5-1.2.5-3.2.7-4.5-.5-1 .9-3 .8-3.5 0-.4-1.1-1-1.5-2-1.8-.8-.2-1-2.8.6-3-.2-.9 0-1.7.2-2 .3-.5 0-1.3-.8-2-.8-.6-1.4-2.9-.7-4.4-1.4.6-4.4-.8-5-1.7-.8-1-1.6-1-2.1-.1zm0 0" transform="scale(.03125 .02917)" fill="#870f00" stroke-width=".3" stroke="#000"/><path d="M916.2 217.2c2.8-.4 3.7-2 5.8-2m-11.8-5.7l.7.3c.4.3 1.2.3 1.7.5m-1.6-3.8l1.1.6m5.3-12c-1.5-1.7 2.9-4.9 7.5-.4 1.1 1 3.2 1 4 .9m-4.9 1.8c2.2-.5 5.5-.5 6.4 2 1 2.5 2.8.9 4.2 3.9 1.6 2.8 4 6 6.3 3.8m-9.2 6.6a6 6 0 01-.5-4c-.8-1-.5-3 0-4m-5.6 2c0 1 1.2 2.4 3 2.8m8.8 4c-.9-1.3-.7-2.5-.4-4" transform="matrix(.025 0 0 .02333 -7.2 -.2)" fill="none" stroke-width=".4" stroke="#000"/><path d="M927 200.1c0 1.3.8 3 2 3.7.5.7 1.9 2.7 4.7 2.3m.6-11.2a14.3 14.3 0 00-6.5-3.2m-11.1 44.6c-2.5 3.3-4 7.8-3 14.4 1.2 6.5 3.1 16-1.6 20.4m23.3 12.5c-3.3-.8-8-.8-10.8 1-2.5 2-6.9 2-9.7.7" transform="matrix(.025 0 0 .02333 -7.2 -.2)" fill="none" stroke-width=".4" stroke="#000"/><path d="M928.4 283.3c-2.8.5-4.2 2.7-4.2 7.9 0 5.3-1.1 13-.2 20.7m-.8-26.3c-2 .5-3.9.5-3.6 5.6m-6.2.1c.1-3 1.2-6 3.3-5.3m17.5 6c.1-7-1.5-8.9-3.3-8.9 2.6 0 4.5.5 5.8 11.8.7 8.3 2.5 11.2 4.5 17.9 5.1 16.9 2.6 43.2 5.1 52.4m-16-71.2c5.4 15.8 8.2 33.3-.7 61.6 6.1 16.8 12 28.8 13.3 35.9m-29.8-60.1c.9-3.6-2.9-4 .4-16.6 1.4-5.5 1.6-8.9.7-10.6m0 7.6c-1.3 5.5 4.2 16 1.5 23.7m-6.9 1.4c0 5 1.1 11.4 1 16.2-.3 4.9 1.7 7 4 11.7 8.3 16.8 14 28.7 13.3 44.6-.1 2.8.8 8.8-2.2 10.7m-15.7 4.2c.7 0 1.7-.5 2.8-3a78 78 0 003-28.8m1.8 12c.3 3.4.3 10-1.7 15.6m7.2-25.5c1.2 7 1 13.4.1 18m-3 0c.2 2.6 1.5 9.8-.7 10.5m11.5-44c5.4 8.3 9.4 29 14 33.3m-9.4-3.4c-.2-2.3-.2-5.5-1.4-7M877 308c.2-1.4-.1-3 1.7-5.4m-4.2 6.3c.3-5.3.2-5.8 1.7-7.5m-3.9 7.7c0-4-.4-5.4 1.1-7.9m18.8-111l-5.6 4.4m7.1-3c-.6 0-2.6 1.6-6 4.5m6.2-2.4c-1.3.5-3.3 2.6-5.2 4m-3.7-4.3l-2 2M935.2 435c-.3-.4-.3-1.5.4-3m2.5 2.5c-.7-.5 0-2.4.3-3.4m2 2.4c-.5-.2-.6-1.2 0-2.5m1.9 1.5c-.3 0-.3-.7.1-2.2" transform="matrix(.025 0 0 .02333 -7.2 -.2)" fill="none" stroke-width=".4" stroke="#000"/><path d="M15.6 4.5h.1zm0 0h.2a.2.2 0 00-.1 0zm0 0"/><path d="M0 0h10v7H0zm0 0" fill="#012169"/><path d="M1.2 0L5 2.6 8.8 0H10v.9L6.2 3.5 10 6.1V7H8.7L5 4.4 1.3 7H0v-.9l3.7-2.6L0 1V0zm0 0" fill="#fff"/><path d="M6.6 4.1L10 6.4V7L5.8 4.1zm-2.8.3v.5L.8 7H0zM10 0L6.1 2.8V2L9.2 0zM0 0l3.7 2.6h-.9L0 .6zm0 0" fill="#c8102e"/><path d="M3.8 0v7h2.5V0zM0 2.3v2.4h10V2.3zm0 0" fill="#fff"/><path d="M0 2.8v1.4h10V2.8zM4.3 0v7h1.5V0zm0 0" fill="#c8102e"/></svg>