<svg xmlns="http://www.w3.org/2000/svg" width="20" height="14"><path fill="#cc0001" d="M0 0h20v14H0z"/><path d="M0 13h20v1H0zm0-2h20v1H0zm0-2h20v1H0zm0-2h20v1H0zm0-2h20v1H0zm0-2h20v1H0zm0-2h20v1H0zm0 0" fill="#fff"/><path d="M0 0h11.6v8H0zm0 0" fill="#010066"/><path d="M4.7 1.4C3 1.4 1.9 2.6 1.9 4c0 1.4 1.2 2.6 2.8 2.6.5 0 1-.2 1.5-.4a2.7 2.7 0 01-.8.1C4 6.3 2.9 5.3 2.9 4c0-.7.4-1.4 1-1.9A2.6 2.6 0 016.3 2a3 3 0 00-1.5-.5zm0 0" fill="#fc0"/><path d="M9.3 5.3L8 4.8l.4 1.1-.8-1-.3 1.3L7.2 5l-.8 1 .4-1.2-1.2.5.9-.9H5L6.4 4 5 3.5h1.4l-1-.8 1.3.5-.4-1.1.8 1 .2-1.3.3 1.2.8-1L8 3.3l1.2-.5-.9.9h1.3L8.5 4l1.2.5H8.4zm0 0" fill="#fc0"/></svg>