<svg xmlns="http://www.w3.org/2000/svg" width="20" height="14"><path fill="#fff" d="M0 0h20v14H0z"/><path d="M6.5 489.4h378.8l-248-251.3 257.4.3L6.7-9.4v498.8zm0 0" transform="matrix(.0293 0 0 .02734 0 .4)" fill-rule="evenodd" fill="#ce0000" stroke-width="13.8" stroke="#000063"/><path d="M5.3 10.2l-.8.2.6.6h-.8l.3.6-.7-.3v.8l-.6-.6-.3.7-.2-.7-.6.6v-.8l-.8.3.4-.7H.9l.7-.4-.8-.3.8-.3-.7-.5h.9l-.4-.7.8.3v-.7l.5.5.3-.7.3.7.6-.5V9l.7-.3-.3.7H5l-.6.5zm-1-5l-.3.1.2.2c.4-.3.7-.6.9-1a2 2 0 01-2 1.9 2.1 2.1 0 01-1.5-.6A1.9 1.9 0 011 4.5c.3.5.4.7 1 1v-.2l-.3-.2.4-.1-.2-.3h.4v-.4l.4.2v-.4l.3.3.3-.3.1.4.4-.2v.4H4L4 5zm0 0" fill-rule="evenodd" fill="#fff"/></svg>