<svg xmlns="http://www.w3.org/2000/svg" width="20" height="14"><path d="M0 0h20.1v9.3H0zm0 0" fill-rule="evenodd" fill="#fff"/><path d="M0 0v.7L4.8 3h1.8zm0 0" fill="#c00"/><path d="M2 0L8 2.8V0zm0 0" fill="#006"/><path d="M8.7 0v3.6H0v2.1h8.7v3.6h2.6V5.7H20v-2h-8.7V0zm0 0" fill="#c00"/><path d="M12.1 0v2.7L17.8 0zm0 0" fill="#006"/><path d="M12.3 3h1.6L20 0h-1.6l-6.2 3zm0 0" fill="#c00"/><path d="M0 6.3v2l4-2H0zm0 0" fill="#006"/><path d="M15.4 6.4h-1.7L20 9.3v-.7l-4.6-2.2zm-13.8 3l5.8-3H6L0 9.5" fill="#c00"/><path d="M20 .8L15.4 3H20v3.3h-4l4 2v1h-2L12 6.7v2.6H8V6.7L2.5 9.3H0v9.4h40V0H20.1M.1 1L0 3h4.2L0 1zm0 0" fill="#006"/><path d="M0 9.3h21.1v9.4H0zm0 0" fill-rule="evenodd" fill="#ffd900"/><path d="M11.7 4.7c0 .6-.3 1.2-.8 1.5a1.8 1.8 0 01-1.8 0c-.5-.3-.8-.9-.8-1.5 0-.8.8-1.5 1.7-1.5 1 0 1.7.7 1.7 1.5zm0 0" fill-rule="evenodd" fill="#000067"/><path d="M9.7 4.3l.3-1 .3 1h1.1l-.8.6.3.9-.9-.6-.9.6.4-1-.9-.5zm6 .2l.1-.5.2.5h.5l-.4.2.2.5-.5-.3-.4.3.2-.5-.5-.2zM9.8 7.7l.2-.5.2.5h.5l-.4.2.1.5L10 8l-.4.3.1-.5-.4-.2zm0-6.3L10 1l.2.4h.5l-.4.3.1.4-.4-.3-.4.3.1-.4-.4-.3zM4 4.4l.2-.4.1.4H5l-.5.3.2.4-.4-.2-.5.2.2-.4-.4-.2zm0 0" fill-rule="evenodd" fill="#fff40d"/></svg>