<svg xmlns="http://www.w3.org/2000/svg" width="20" height="14"><path fill="#fff" d="M0 0h20v14H0z"/><path d="M2.9 0h14.9v14h-15zm0 0" fill-rule="evenodd" fill="#fff"/><path d="M10 .1h11.3v6.5H10zm0 0" fill-rule="evenodd" fill="#db0000"/><path d="M.1 6.6h10V14H.1zm6.6-1.4l-1.3-.9-1.3.9.5-1.4-1.3-.9h1.6l.5-1.4.5 1.4h1.6l-1.3.9.5 1.4zm0 0" fill-rule="evenodd" fill="#0000ab"/><path d="M16.2 12l-1.4-.7-1.3.8.5-1.3-1.3-.9h1.6l.5-1.3.5 1.3H17l-1.4.8.5 1.4zm0 0" fill-rule="evenodd" fill="#d80000"/></svg>