<svg xmlns="http://www.w3.org/2000/svg" width="20" height="14"><path d="M0 0v14h20zm0 0" fill-rule="evenodd"/><path d="M20 14V0H0zm0 0" fill-rule="evenodd" fill="red"/><path d="M178 54l-3.8-.2c-1.2-2.8-4.5-3.8-6.6-2.6-3.8 0-7.7 0-11.6-.2l7 3.1c2 4.9 8 5.9 8 5.9-.6 8.8-8.9-1-16 3.9-5 3-5 6.5-7.6 12.3-.9 1.6-4.4 5.8-4.4 5.8l5.9-.5-2 2.5 7.1-1-1.5 1.4c1 .2 8-1.7 8-1.7L160 85l8-2.9s1.6 1.3 3 1.9l1-4 4 1 1-4c6 8 8 16 19 18l-1-4 8.7 4 .9-1.7c4.8 3.4 8.7 3.3 11.4 3.7l-2-5 2 1-3-8 3 1-4-6 1.5-1-.5-3c6 2 14 5 15 12 1 11-11 14-19 13 6 5 17 3 22-2 2-2 3-5 4-8 1 3 3 7 3 11-1 9-13 12-21 13 9 5 25-1 26-14 0-11-7-16-10-21l-1-5.4 3 1.4s-1.8-3.3-2-4c0 0-3-8.5-4.2-10.4l2.2.4-8.2-10.3 2.3-.2S215.6 44 213 43l3-1c-6-3-13-1-19 3l1-3-1.8.2v-3.5L198 36l-3-1 2-5-3 1 1-5s-2.2 1-3.6.9l1.6-3.4c-1-1.5 0-4.5 0-4.5-7 1-8 2-12 8-6 11-4 16-3 27zm0 0" transform="matrix(.06937 0 0 .06451 0 0)" fill="#fc0" stroke-width="1.1" stroke="#fc0"/><path d="M215.8 70.4c.5 1 6.2 3.6 10.4 6-1.1-4.6-9.4-5.6-10.4-6zm0 0" transform="matrix(.06937 0 0 .06451 0 0)" fill-rule="evenodd" fill="red" stroke-width="1.4" stroke="red"/><path d="M5.5 11.6l-.5-.2-.6.2.2-.4-.5-.5h.5l.3-.5.2.4.7.1-.4.3zm1.1-2.3h-.4v-.2L6.1 9h.2v-.2l.2.2h.2l-.1.1zm1-1.3l-.5-.2-.4.2v-.4l-.3-.3.5-.1.2-.4.3.4h.4l-.3.4zm-2-1.8L5 5.9l-.5.3v-.5l-.3-.4.5-.1.3-.5.3.5h.5l-.4.4zM3.5 8l-.5-.3-.5.3.1-.6-.5-.3L3 7l.2-.5.2.5H4l-.5.4zm0 0" fill-rule="evenodd" fill="#fff"/></svg>