<svg xmlns="http://www.w3.org/2000/svg" width="20" height="14"><path d="M0 0h20v7H0zm0 0" fill="#0038a8"/><path d="M0 7h20v7H0zm0 0" fill="#ce1126"/><path d="M13 7L0 14V0" fill="#fff"/><path d="M.8 1.2l.5.4.5-.3-.2.5.4.4h-.6l-.2.5L1 2H.4l.5-.3zm10.2 5v.6l.5.2-.5.2v.5l-.4-.4-.6.2.4-.5-.4-.5.6.2zm-9.8 5.1l.2.5H2l-.4.4.2.5-.5-.3-.5.4.1-.6-.5-.3H1zm3.5-7.2l-.2.1.1 1.4-.2-1.2-.2.1.2 1.1a1.6 1.6 0 00-.5.2L3.2 5H3l.8 1-1-1h-.3v.3l1.1.9-1.1-.7v.2l1 .6-.2.5L2 6.5l-.2.1 1.4.2a.4.4 0 000 .1H1.7l-.2.1.2.2L3.2 7 2 7.4l.2.2 1.2-.2c0 .1 0 .3.2.5l-1 .6v.2l1-.8.1.1-1.1 1V9h.3l1-1-.8 1h.2l.7-1 .5.3-.2 1 .2.2.1-1.2a.4.4 0 00.1 0v1.4l.1.1.2-.1V8.4l.2 1.2.2-.1L5 8.4l.6-.2.6 1h.3l-.9-1 .1-.2 1 1H7v-.2L5.9 8l1 .7v-.2l-1-.6c.2-.2.3-.3.3-.5l1.2.2.2-.2-1.4-.1a.3.3 0 000-.1h1.5l.2-.1-.2-.2-1.5.1 1.4-.2-.2-.2-1.2.2a1.3 1.3 0 00-.2-.5l1-.6v-.2l-1 .8a1 1 0 00-.1-.1l1-1V5h-.2l-1 1 .8-1h-.3l-.6 1a1.5 1.5 0 00-.6-.3l.3-1-.2-.2L5 5.6V4.2zm0 0" fill="#fcd116"/></svg>