<svg xmlns="http://www.w3.org/2000/svg" width="20" height="14"><defs><clipPath id="a"><path d="M0 0h20v14H0zm0 0"/></clipPath></defs><g clip-path="url(#a)"><path fill="#0c590b" d="M0 0h20v14H0z"/></g><path d="M-1.3 0h5.7v14h-5.7zm14.7 6.2l-1-.2-.4.7-.1-.8-1-.2.9-.4v-.9l.6.7.8-.3-.5.7.7.7zm0 0" fill-rule="evenodd" fill="#fff"/><path d="M13.7 8.4c-.4.8-1.1 1.4-2 1.7A3.8 3.8 0 019 10c-1.8-.8-2.6-2.8-1.8-4.4.4-.9 1.2-1.5 2.1-1.8a4.2 4.2 0 00-.3.3A3 3 0 009 8.4a3.5 3.5 0 004.6 0zm0 0" fill-rule="evenodd" fill="#fff"/></svg>