<svg xmlns="http://www.w3.org/2000/svg" width="20" height="14"><defs><clipPath id="a"><path d="M0 0h20v9.3H0zm0 0"/></clipPath></defs><path fill="#00247d" d="M0 0h20v14H0z"/><g clip-path="url(#a)"><path d="M23.3 4.7c0 6.8-6 12.4-13.3 12.4S-3.3 11.5-3.3 4.7c0-7 6-12.5 13.3-12.5S23.3-2.2 23.3 4.7zm0 0" fill="#00247d"/><path d="M-20-10l40 20m-40 0l40-20" transform="matrix(.66667 0 0 .62222 10 4.7)" stroke-width="3" stroke="#fff"/><path d="M-20-10l40 20m-40 0l40-20" transform="matrix(.66667 0 0 .62222 10 4.7)" stroke-width="2" stroke="#cf142b"/><path d="M10 4.7l13.3 6.2h-2L8 4.7m2 0l13.3-6.3h2L12 4.7m-2 0l-13.3 6.2h-2L8 4.7m2 0L-3.3-1.6h2L12 4.7" fill="#fff"/><path d="M-20 0h40M0-10v20" transform="matrix(.66667 0 0 .62222 10 4.7)" stroke-width="5" stroke="#fff"/><path d="M-20 0h40M0-10v20" transform="matrix(.66667 0 0 .62222 10 4.7)" stroke-width="3" stroke="#cf142b"/></g><path d="M410 310.4a60.2 60.2 0 00-20.1 29.2c-6 29-14 35.4-26.5 29.1 0 15.5 13.6 16.7 19.6 7.6 0 14.6 5.3 27.2 17.1 38 5 4.5 6 1.4 3.6-3.5-2.4-5.1-2.4-21.3-7-30.6 7.6 5.5 18.7 2.4 17.7-12.6-9.6 5.7-19.5 5.5-20.5-8.1-1.1-16 5-39.1 16-49zm-11.6-114.9c.6-5.6-.6-11.5-4.8-15.1-8-7.2-16-4.8-21.9 1-8.8-4.7-13.4 12-23.4 9.2 1.6 5.5 4.2 7.7 9.2 6-5.3 4.7 0 10.5-6.3 16.2 11.3 3.5 17.3-2.7 16.8-13.4 4.3 3.8 11 3.6 14.5-.6-6-2-6-7.1-3.6-12.1 3.6-7 20.4-6.8 19.5 9zm0 0" transform="scale(.03125 .02917)" fill="#f7e017" stroke-width=".6" stroke="#000"/><path d="M424.3 278.4c-12.7 6.7-35.8 4-38-12.6-2-16.3 13.8-23.7 18-26 6.8-3.1 12 2.7 10 9.6 3-1.1 5.6-3.6 6.6-6.7a11 11 0 00-1.1-9.5c9.6.6 18.7-6.6 22.4-17-3.3 3.2-12.7.9-20.4.4 2.4-2.6 2.4-7.7 1.7-10.3-8.1 8.3-19.8 4.5-35.3 28.6a820.8 820.8 0 0010.2-39.4c.9-15.6-15.9-15.9-19.5-8.7 4 4.4 2 9.5.5 17.4-1.6 9.3-5.1 30.7-8.3 38-1-11.3-8.4-12.1-9.9-17.5-2 1.4-3.2 5.3-2.8 7.8-2.6-2.8-11.6.7-15-3.5-3.5 7.1 2.2 14.3 8.2 17.3-3.5.3-4.4 4.5-8.2 4.5 4 5.1 10 8.4 16.5 8.8 6 .5 10.6 2.8 14.4 10.1 6 12 28.4 19.6 50 8.7zm0 0" transform="scale(.03125 .02917)" fill="#337321" stroke-width=".6" stroke="#000"/><path d="M455.8 264c-7.3 19.7-26.8 33.9-35.7 36-15 3.6-45.6 18.3-53.9 26" transform="scale(.03125 .02917)" fill="#f7e017" stroke-width=".6" stroke="#000"/><path d="M410 310.4c-11.4 9.6-17.3 33.1-16 49 .3 4.5 1.5 7.6 3.4 9.4.9-9 7.1-32.4 23.2-43 13.6-8.7 34.8-28.5 42.6-51.1a17.8 17.8 0 00-8.3-9.8c-7.8 21.4-28.6 31.6-45 45.5zm0 0" transform="scale(.03125 .02917)" fill="#337321" stroke-width=".6" stroke="#000"/><path d="M448.4 254.9a53.5 53.5 0 01-22 17.6c1.9-2.1 2.5-5 2.6-7a81.2 81.2 0 01-42.8.3c21 5.5 43.3-1.2 57.8-17 2 2 3.6 4 4.4 6zm0 0" transform="scale(.03125 .02917)" fill="#316d3a" stroke-width=".6" stroke="#000"/><path d="M362.8 304.7c-18.3 17-6.3 32 1 35.3-2 12 9.2 10.4 9 20.4 4.4-2.5 5.7-9.5 5-15 5.7 6.2 20.2-.7 23.3 10.8 2-12.7-7.9-25.3-20-24 5-4.6 2.1-12-2.6-13.9-1 9.3-11.5 9.3-15.5 6.3-4-2.6-7.4-12-.3-20zm0 0" transform="scale(.03125 .02917)" fill="#337321" stroke-width=".6" stroke="#000"/><path d="M402.3 413c-2 1.2-2 3.8-.7 5.4 2.5 3.3-1.9 11 6.3 12.6 2.4.5 4.2-1 5.1-3.6 2.5-7.5-5.5-8.5-6.3-12-.6-3.6-3-3.3-4.4-2.4zm0 0" transform="scale(.03125 .02917)" fill="#f7e017" stroke-width=".6" stroke="#000"/><path d="M409 427.2c-2.8 1.2-5 3-4 11.6.5 3.6.3 12.1-2.8 12.1 2 1.1 6 2 7.6-.2 1.6 2.6 5.2 2 6.7-1.4 1.9 1.6 4.5-1 4.5-3.3 1.8 1 5-.6 4.1-5.6 2 .8 4.6-.7 5.6-2-3-.6-10.4-4.7-12.2-8-1.8-3-6.4-4.6-9.5-3.2zm0 0" transform="scale(.03125 .02917)" fill="#f7e017" stroke-width=".6" stroke="#000"/><path d="M367.8 186.2c1-1.8 2.4-3.4 4-4.9m41.2 36.3c2.1-1 5.3-1.2 8.9-.9m-12.1 234c-.8-1.1-1-6.2-.6-9.1m7.3 7.7" transform="scale(.03125 .02917)" fill="none" stroke-width=".6" stroke="#000"/><path d="M535 305c29.3 24.5 31.3 44 26.8 55.4-2.5-10.7-14.5-27.3-27.3-31.6zm0 0" transform="scale(.03125 .02917)" fill="#f7e017" stroke-width=".6" stroke="#000"/><path d="M482.6 291.2H537v64.2c0 54.8-30.5 87.2-61.5 104.4A114.5 114.5 0 01414 355.4V291h38c0 3.4.4 8.5 4.3 13.4 9-1 19.2-7.7 26.2-13.4zm0 0" transform="scale(.03125 .02917)" fill="#337321" stroke-width=".6" stroke="#000"/><path d="M536.9 291.2v64.2c0 16.7-2.8 31.1-7.5 43.7l-54-99-53.9 99" transform="scale(.03125 .02917)" fill="#006ec7" stroke-width=".6" stroke="#000"/><path d="M500 429.6l5.3 2.6c2.7-6.6 3.4-14 2.3-21-3 7.9-13.6 7.6-16.4 12.4 1.7.8 3.3 1.9 4.8 3a53 53 0 01-16.8 11v-51c0-3.6-1-6.6-1-9.6v-10.4c0-2.4-.6-6-2.8-6-2.1 0-2.6 3.6-2.6 6V377c0 3-1.2 6.4-1.2 9.7v50.8c-2.6-7.5-12.9-5-17.6-12.5 1.9-.4 3.8-.6 5.8-.2-3.6-12.2-13.4-13.1-15.3-16.7 0 5-2.1 16.7 1.3 21.7.8-1.1 2-1.9 3-2.6 4 8.7 22.4 8.7 26.6 23.3 3.5-5.3 15.9-11.5 24.6-20.9zm0 0" transform="scale(.03125 .02917)" fill="#f7e017" stroke-width=".6" stroke="#000"/><path d="M475.4 387c4 0 17-1.2 21.6-1.2 1.3 0 2.3-1.8 2.3-4s-1-4-2.3-4c-4.6 0-17.5-1.5-21.5-1.5s-17 1.4-21.6 1.4c-1.1 0-2.1 1.9-2.1 4s1 4.1 2 4.1c4.7 0 17.6 1.3 21.6 1.3zm-2.6-20.8" transform="scale(.03125 .02917)" fill="#f7e017" stroke-width=".6" stroke="#000"/><path d="M453.9 385.8c1.2 0 2.2-1.8 2.2-4s-1-4-2.2-4" transform="scale(.03125 .02917)" fill="#f7e017" stroke-width=".6" stroke="#000"/><path d="M455.8 385.8c1 0 2-1.8 2-4s-1-4-2-4m11.6 8.9c1.5 0 2.7-2.2 2.7-4.9 0-2.6-1.2-5-2.7-5m2.9 10.1c1.4 0 2.7-2.3 2.7-5 0-2.9-1.3-5.2-2.8-5.2m9 10.2c1.7 0 3-2.3 3-5 0-3-1.3-5.3-3-5.3m3 10.2c1.6 0 2.8-2.3 2.8-5 0-2.8-1.3-5-2.8-5m12.8 9c1.3 0 2.3-1.7 2.3-4 0-2.2-1-4.1-2.3-4.1m-46.3 49.5c1.7-1 3.4-1.7 5.3-2.2m43.4 2.6l-1.4-1m4 3c3.3-3.4 6-7.6 7.6-12.1" transform="scale(.03125 .02917)" fill="#f7e017" stroke-width=".6" stroke="#000"/><path d="M464.5 336.6c0-1.2 1-1.6 2.1-2.4 1.3-1.1 1.9-1.7 3.1-1.7h15.6c1.2 0 1.4.4 1.4 1.5v21.2c0 1-.2 1.5-1.4 1.5h-20.8v-20.3" transform="scale(.03125 .02917)" fill="#fff" stroke-width=".6" stroke="#000"/><path d="M481.5 358.5c2 0 1.8 0 3-1.4 1.6-1.7 1.5-1.5 1.5-2.9v-19.4c0-1-.3-1.3-1.4-1.3h-14.4c-1 0-1.6.4-3 1.5-1 .8-1.8 1.2-1.8 2.2v21.3zm0 0" transform="scale(.03125 .02917)" fill="#e5e5e5" stroke-width=".6" stroke="#000"/><path d="M483 358c0 1-.3 1.5-1.4 1.5H466c-1.1 0-1.4-.4-1.4-1.5v-21.3c0-1 .3-1.3 1.4-1.3h15.7c1.1 0 1.4.4 1.4 1.4zm0 0" transform="scale(.03125 .02917)" fill="#fff" stroke-width=".6" stroke="#000"/><path d="M513.3 278.7a12 12 0 012.5 12.5h-4.5c1.8-5.8.6-11.3-7.6-12-12-1-26 22.4-47.3 25.4-6.1-7.5-5.9-21.6 2-28.2a86 86 0 00-18.6-30.2" transform="scale(.03125 .02917)" fill="#96877d" stroke-width=".6" stroke="#000"/><path d="M14.4 8.3a1.7 1.7 0 00-.5-1.1.8.8 0 00.6 0c.2-.2.9-.5 1-.4a.3.3 0 01.1.2l-.8.1c-.2.1-.3.2-.2.4l-.2-.2.1.4-.3-.4c.2.3.3.7.2 1l.4-.1-.4.2-.1.4v-.5zm1.6-.2c0-.1-.3-.2-.6 0a.8.8 0 01.2-.2v-.4l.1.4a.6.6 0 01.2 0 7.7 7.7 0 01-.2-.6h.1l.2.8zm0 0"/><path d="M511.3 291.2c1.8-5.8.6-11.3-7.6-12-6.2-.5-13 5.7-21 12zm-52.8-51.3" transform="scale(.03125 .02917)" fill="#96877d" stroke-width=".6" stroke="#000"/><path d="M458.4 276.4c1.4 3.8 2.2 7.4 2.4 10.7m-13.2-58.4c-2.2 3.3-4 6.7-4.7 9.6a53 53 0 0015.6 1.6" transform="scale(.03125 .02917)" fill="none" stroke-width=".6" stroke="#000"/><path d="M439.8 246.2l4.2.8c6.5 1.6 13.4.5 19-3 6-4.3 22.3-17.7 40.6-19.1" transform="scale(.03125 .02917)" fill="none" stroke-width=".6" stroke="#000"/><path d="M435 242c5.8 1.3 17.6 1.7 23.5-2.1a80.2 80.2 0 0140.5-15.7" transform="scale(.03125 .02917)" fill="none" stroke-width=".6" stroke="#000"/><path d="M535 305c20 13.7 34.8 27.1 39 48.6 4.4 21.4 12.5 27.2 22.5 21.4-2.4 12.5-14.8 13.8-25.3 4.3 1 14.3-4.8 31.5-19.5 37.6-1-8.6 4.7-15.2 3-22.3-.6-3.1-1-10.4 3.2-13.7-7.9 2.7-20.3-2.3-21.5-14 9 4.4 20.9 5 25.4-6.4 4.5-11.5 2.5-31-26.8-55.5zm25.3-111.5c6-16.3 22.5-14.6 27.8-7.7 16-9 18.1 11.5 31.6 7.5 0 3.7-4.7 7.3-9.6 7 5.1 4.7-2.2 12 9 16.3-9.5 4.6-22.9-.3-26.5-13.4-3 6.3-14.4 6.3-18.9 1.2 10-2.6 9-11.7 3.7-15.2-5.5-3.6-15.3-2.2-17.1 4.2zM511.9 229a87.3 87.3 0 0023.6 36.8c11.4 10.5 28.8 7.8 38.3-2.2.3 20-20.4 21.5-32 15.2-5-2.6-9-1.2-4.2 3.1 7.4 6.7 23.6 11.7 42.6 15.8 33.4 7.1 21.5 33.6 11.7 33.4 2.9-.2 5.2-3 1.1-6.7-29-26-87.8-15.7-86.8-74-6.2 15.4-31.7 9.4-19.8-8.7 3.9 3.1 10.5 3.3 12.4-1.4 1.4-3.6.4-10.2-6.2-15.7 1.1-.1 3.5 0 3.1-2.7.4 1.6 2 4 5.6 3.2 1 1.6 2.2 2.8 3.8 2.2.3-.2 1.1-.6.8-2.3.4 3 4 4.3 6 4zm0 0" transform="scale(.03125 .02917)" fill="#337321" stroke-width=".6" stroke="#000"/><path d="M542 279c13.8 9 29.3 9 43.8-7.7 4.5-5.2 11.6-9.7 16.6-10.1 5-.6 4.9-5.3 8.6-6.3-2.4-.7-3.3-3.5-6.9-3.2 9-3.1 6.3-10.2 10.6-13.7-3.5 1.3-9-4-14.2 2.8 1.3-3.2-.5-7-1.8-8.3.5 3.6-7 4.3-8.5 13.4-.7 5-3.5 4.7-4-3-.3-5.8-3-21.8-6.5-30-3.2-8-4-19.1.5-20.8m-33.5 234.3c3 1.5 5.5 3.5 4 13-.8 4-1 13.5 2.5 14-2 .9-6.7 1.8-8.5-.7-2 3-6 1.9-7.3-2-2.1 1.7-5-1.2-5-4-1.8 1.3-5.5-.6-4.3-6.3-2.4.8-5.2-1-6.2-2.5 3.4-.5 11.9-4.6 14-8.3 2.2-3.4 7.4-5 10.9-3.2zm0 0" transform="scale(.03125 .02917)" fill="#f7e017" stroke-width=".6" stroke="#000"/><path d="M544.8 452.7c1-1.4 1.5-6.9 1-10.3m-8.5 8.4c2.6-2.1 4.3-5 5-8.2m-10 4.3c2-.8 6.8-6.5 8-10.2m-12.3 3.7a26 26 0 0012.1-9" transform="scale(.03125 .02917)" fill="none" stroke-width=".6" stroke="#000"/><path d="M506.3 250.6c-.6 24.5 9.6 36.8 23.7 44.8-5.3-3-3-13.7-10-17.4 1.8 0 4.3 2.4 8.5 1.4-2-4.4-5.4-11.4-13.1-12.3 2-.3 6.4.4 9.2-.6-4-6.1-14.7-3.3-18.4-16zm-2.7-23.2c-.9-.3-1.6-1-2.4-2.3-3.6.8-5-1.4-5.4-3.2.2 2.8-2 2.7-3.2 2.8 6.6 5.5 7.6 12 6.1 15.7-2 4.7-8.4 4.6-12.3 1.3-.5 10.2 12.6 13.6 17.4.8 0 2.2 2.7 2 3.4 4.9 3.4-5.7 1-13.6-3.6-20zm0 0" transform="scale(.03125 .02917)" fill="#f7e017" stroke-width=".6" stroke="#000"/><path d="M487 150.7c0-2.2 3.6-5 8.6-5 6 .1 10.6 5.6 15.5 5.1 4.8-.5 2.5 2.1 1.4 3-1 .6-1.6 1.7-1.3 2.9.6 1.3-.2 2.1-2 1-4.4-2.7-8.7 1-14.4-1-5-1.7-7.7-2.8-7.8-6zm0 0" transform="scale(.03125 .02917)" fill="#cf142b" stroke-width=".6" stroke="#000"/><path d="M462.5 207a36.8 36.8 0 00-15.9-17.8l-.2-3.8c3.9-2.3 7.5-5 10.7-8 17.9 8.4 42.1-3.7 53.4-16.4l4.3 2.7-2.2 2.8-2.2-1.2c-2.8 3.5-13 13-16.1 15 3.7 1 7.6 1.4 11.4 1.7 10-7 18-13.7 21.7-14l3.2 4.2-2.9 2-2.2-1.2a114.9 114.9 0 00-27.8 41c-6.4-1.5-30.4-.5-35.2-7zm0 0" transform="scale(.03125 .02917)" fill="#96877d" stroke-width=".6" stroke="#000"/><path d="M463.4 204.2c-1.6-8.8 1-18.6 5.5-21.7a35.7 35.7 0 0036.9-.5" transform="scale(.03125 .02917)" fill="none" stroke-width=".6" stroke="#000"/><path d="M463.4 199.6a303 303 0 0128.4 1.7c4 .7 10.7 2.3 9.7 4.3m-34.6-7.3l2.2-2-2.2-2.2-2.1 2.1zm0 0" transform="scale(.03125 .02917)" fill="none" stroke-width=".6" stroke="#000"/><path d="M472.1 154c-2.7-3.9-10.4-5-11.9.2-.7 2.2-1.8 4.6-3.6 5.7-1.7 1-1.4 4.3-.6 5.6 2 3.5.3 6.9 4 9.1 0-2.6 4-5.6 7.5-6.3 3.4-.8 8.8-3.8 9.4-7.2.7-3.5 1.9-6.4-4.8-7zm0 0" transform="scale(.03125 .02917)" fill="#337321" stroke-width=".6" stroke="#000"/><path d="M455 188.3h.9v6.6l.6.2 5.6-3.2.5 1-5.7 3v.7l5.7 3.4-.5.8-5.7-3.3" transform="scale(.03125 .02917)" fill="#96877d" stroke-width=".6" stroke="#000"/><path d="M450.8 215c-.8-.8-2-3.1-2-4.9 1.4.2 2.8.7 4 1.6 0-1.2-.6-3.7-.3-5 1.3.6 4 2.1 5 3.8" transform="scale(.03125 .02917)" fill="#337321" stroke-width=".6" stroke="#000"/><path d="M15.3 4.4H16v.1H15.2zm0 0" fill="#f7e017"/><path d="M454.4 222.2c-3.6 4.1-7.1 3.5-7.9.8-.8-2.8 2-4 1-6.4-1-2.4 1.5-3.5 2.8-2.4 1 1 5-2.5 6.6 1.2 1.6 3.4 3 6 2 7.5-1 1.4-3.8.8-4.5-.7zm15.4-6.4c-.8-1.6 3-4.7 5-2.5 1.8 2 4.8-2.4 6.4 1s2.2 5.2 3 7c1 2-4.4 3.2-6 1.4 0 1-4.8 2-6-1.2zm24.7 1.8c-.9-1.6 3.5-3.9 5.8-.9.4-1.3 5-1.5 5 2.1l.6 7.1c.1 1.6-2.6 2.8-4.5-.8-3.5.8-5.1-1.2-5.6-3.3-.3-1.4-.7-2.8-1.3-4.2zm0 0" transform="scale(.03125 .02917)" fill="#f7e017" stroke-width=".6" stroke="#000"/><path d="M456.8 215.4c-.7-1.2 3-3.7 5.3-2 2.5 2 5.9-1.4 7.3 1.8 3 6.5 3.1 7 2.2 8.2-.9 1.3-4.7.8-5.6-1-.3 1.3-3.5 1-5.3 0-2-.9-3.3-4.9-4-7zm25 .2c-1-1.8 4.7-3.5 7-.2 1.4-1.2 4-1.2 5.7 2.2 1.5 3.6 1.8 5.7.6 6.5-.9.6-3.6 1-4.6-.4-1.3.8-5.4 0-6.3-2.2-.8-2.3-1.6-4.3-2.4-6zm23.7 3.5c-.3-1.6 2.9-2.4 4 0 1.1 2.6 4.8.3 5 4.3 0 1.9-.5 3.6-1.5 5.2-1.1 1.4-6.6 0-7-3" transform="scale(.03125 .02917)" fill="#337321" stroke-width=".6" stroke="#000"/><path d="M454.4 222.2c-1.3-1.8-3.1-4.7-5.4-1.6m17 1.9" transform="scale(.03125 .02917)" fill="none" stroke-width=".6" stroke="#000"/></svg>