<svg xmlns="http://www.w3.org/2000/svg" width="20" height="14"><path d="M8 0h12v14H8zm0 0" fill="red"/><path d="M0 0h8v14H0zm0 0" fill="#060"/><path d="M339.5 306.2c-32.3-1-180-93.3-181-108l8.1-13.5c14.7 21.3 165.7 111 180.7 107.8l-7.8 13.7" transform="scale(.03125 .02917)" fill-rule="evenodd" fill="#ff0" stroke-width=".6" stroke-linecap="round" stroke-linejoin="round" stroke="#000"/><path d="M164.9 182.8c-2.9 7.8 38.6 33.4 88.3 63.8 50 30.4 93 49 96 46.4l1.6-2.8c-.6 1-2 1.4-4.3.6-13.5-4-48.6-20-92.1-46.4-43.7-26.4-81.4-50.7-87.3-61-.5-1-.7-2-.6-3.1h-.3l-1 2.2zm175.3 123.8c-.4 1-1.6 1-3.4.8-12-1.2-48.7-19-92-45-50.4-30.2-92-57.6-87.4-64.9l1.2-2.1.2.1c-4 12.2 82 61.4 87.2 64.6 49.8 30.8 91.8 48.9 95.5 44.2zm0 0" transform="scale(.03125 .02917)" fill-rule="evenodd" fill="#ff0" stroke-width=".6" stroke-linecap="round" stroke-linejoin="round" stroke="#000"/><path d="M256.3 207.2c32-.3 72-4.4 95-13.5l-5-8c-13.6 7.4-53.6 12.4-90.4 13-43.4-.4-74.2-4.4-89.5-14.7l-4.7 8.6c28.3 12 57.3 14.5 94.6 14.6" transform="scale(.03125 .02917)" fill-rule="evenodd" fill="#ff0" stroke-width=".6" stroke-linecap="round" stroke-linejoin="round" stroke="#000"/><path d="M352.5 193.8c-.8 1.3-15.8 6.4-37.8 10.2-19.4 3-39 4.4-58.6 4.3a394.3 394.3 0 01-56.2-3.7c-23.2-3.4-35-8.5-39.5-10.3l1.1-2.2c12.8 5 24.8 8 38.8 10.3A431.5 431.5 0 00256 206c19.5 0 39-1.4 58.3-4.3 22.4-3.8 34.8-8.4 36.6-10.4l1.6 2.6zm-4.4-8c-2.4 1.8-14.6 6.3-36 9.6a389.4 389.4 0 01-55.9 4c-22 0-40-1.6-53.7-3.6-21.8-2.8-33.4-8-37.6-9.4l1.3-2.2a121 121 0 0036.6 9.3c17.7 2.4 35.6 3.5 53.4 3.4 18.7 0 37.2-1.4 55.6-4 21.4-3 33-8.3 34.8-9.8zM150.2 246c20 10.7 64 16 105.7 16.4 38 .1 87.3-5.8 105.8-15.6l-.4-10.7c-5.8 9-58.8 17.7-105.8 17.4-47-.4-90.8-7.6-105.3-17v9.5" transform="scale(.03125 .02917)" fill-rule="evenodd" fill="#ff0" stroke-width=".6" stroke-linecap="round" stroke-linejoin="round" stroke="#000"/><path d="M362.8 244.6v2.4c-2.8 3.4-20.2 8.4-42 12a444.5 444.5 0 01-65.4 4.4c-20.8.2-41.5-1.3-62-4.2A159.9 159.9 0 01149 247v-3c9.8 6.5 35.9 11.3 44.8 12.6 15.7 2.5 36 4.3 61.6 4.3 26.8 0 48.3-1.8 65-4.4 15.7-2.3 38-8.2 42.4-12zm0-9.2v2.6c-2.8 3.3-20.2 8.3-42 12a444.7 444.7 0 01-127.4 0 155.2 155.2 0 01-44.4-11.9v-3c9.8 6.5 36 11.2 44.8 12.5 20.3 3.1 41 4.6 61.6 4.5 26.8 0 48.5-2 65-4.6 15.7-2.1 38-8 42.4-12zm-107 68.9c-45.6-.1-84.7-12.3-93-14.3l6 9.3a253 253 0 0087.4 14.4c34.7-1.1 65-3.8 86.3-14.2l6.3-9.8c-14.6 7-64 14.6-93 14.6" transform="scale(.03125 .02917)" fill-rule="evenodd" fill="#ff0" stroke-width=".6" stroke-linecap="round" stroke-linejoin="round" stroke="#000"/><path d="M344.9 297.3l-2.8 4a289 289 0 01-86.4 13.4c-40.3-.6-73.4-8.5-89-15.2l-1.2-2.2.3-.4 2 1a290.5 290.5 0 0088.2 14.4c18.8 0 37.5-2.1 52.6-4.8 23.1-4.7 32.6-8.2 35.5-9.8l.6-.4zm5.4-8.8l-2 3.5c-5.6 2-20 6.3-41.4 9.2-14 1.9-22.6 3.8-50.6 4.3a344.8 344.8 0 01-94.2-14L161 289a389.5 389.5 0 0095.4 14c25.5-.5 36.4-2.5 50.4-4.3 24.7-3.8 37.2-8 41-9.1v-.2l2.4-1zm0 0" transform="scale(.03125 .02917)" fill-rule="evenodd" fill="#ff0" stroke-width=".6" stroke-linecap="round" stroke-linejoin="round" stroke="#000"/><path d="M350.8 237.6c0 30-15.3 57-27.6 68.8a99.8 99.8 0 01-67.8 28.2c-30.3.5-58.8-19.2-66.5-27.9a101 101 0 01-27.5-67.4c1.8-32.8 14.7-55.6 33.3-71.4a99 99 0 0164.2-22.6 98 98 0 0171 35.6c12.5 15.2 18 31.6 20.9 56.7zM255.6 135a106 106 0 01106 105.1 105.8 105.8 0 11-211.4 0c0-58 47.3-105.1 105.4-105.1" transform="scale(.03125 .02917)" fill-rule="evenodd" fill="#ff0" stroke-width=".6" stroke-linecap="round" stroke-linejoin="round" stroke="#000"/><path d="M255.9 134.5c58.2 0 105.6 47.4 105.6 105.6 0 58.2-47.4 105.6-105.5 105.6S150.4 298.3 150.4 240c0-58.2 47.3-105.6 105.6-105.6zM152.6 240c0 56.8 46.7 103.3 103.3 103.3S359.2 296.8 359.2 240 312.6 136.7 256 136.7 152.6 183.2 152.6 240zm0 0" transform="scale(.03125 .02917)" fill-rule="evenodd" fill="#ff0" stroke-width=".6" stroke-linecap="round" stroke-linejoin="round" stroke="#000"/><path d="M256 143.3a97 97 0 0196.8 96.7 97.3 97.3 0 01-96.8 96.8c-53 0-96.8-43.6-96.8-96.8a97.2 97.2 0 0196.8-96.7zM161.6 240c0 52 42.7 94.4 94.4 94.4s94.4-42.4 94.4-94.4-42.6-94.4-94.4-94.4a94.8 94.8 0 00-94.4 94.4zm0 0" transform="scale(.03125 .02917)" fill-rule="evenodd" fill="#ff0" stroke-width=".6" stroke-linecap="round" stroke-linejoin="round" stroke="#000"/><path d="M260.3 134h-9v212.3h9zm0 0" transform="scale(.03125 .02917)" fill-rule="evenodd" fill="#ff0" stroke-width=".6" stroke-linecap="round" stroke-linejoin="round" stroke="#000"/><path d="M259.3 132.9h2.3v214.6h-2.2V133zm-9 0h2.4v214.6h-2.3V133zm0 0" transform="scale(.03125 .02917)" fill-rule="evenodd" fill="#ff0" stroke-width=".6" stroke-linecap="round" stroke-linejoin="round" stroke="#000"/><path d="M361.6 244.2v-7.8l-6.4-6-36.3-9.6-52.1-5.3-63 3.2-45 10.6-9 6.7v7.9l23-10.3 54.4-8.5h52.3l38.4 4.2 26.6 6.4zm0 0" transform="scale(.03125 .02917)" fill-rule="evenodd" fill="#ff0" stroke-width=".6" stroke-linecap="round" stroke-linejoin="round" stroke="#000"/><path d="M256 223.8c24.9 0 49 2.3 68.3 6 19.8 4 33.7 9 38.4 14.5v2.8c-5.7-7-24.4-12-39-15-19-3.6-43-6-67.8-6-26.2 0-50.5 2.7-69.3 6.3-15 3-35.1 9-37.6 14.7v-3c1.3-4 16.3-9.9 37.3-14.1a371 371 0 0169.6-6.2zm0-9.1c22.9 0 45.8 2 68.3 6 19.8 4 33.7 9 38.4 14.6v2.7c-5.7-6.8-24.4-12-39-14.9-19-3.7-43-6-67.8-6-23.2-.1-46.4 2-69.2 6.2-14.4 2.6-35.4 9-37.7 14.7v-2.8c1.4-4 16.6-10.3 37.3-14.4a383 383 0 0169.7-6.1zm-.6-46.2c39.3-.2 73.6 5.5 89.3 13.5l5.7 10c-13.6-7.4-50.6-15-94.9-14-36.1.3-74.8 4-94 14.5l6.8-11.6c16-8.3 53.3-12.4 87-12.4" transform="scale(.03125 .02917)" fill-rule="evenodd" fill="#ff0" stroke-width=".6" stroke-linecap="round" stroke-linejoin="round" stroke="#000"/><path d="M256 176.7c20.5-.3 41 1.2 61.3 4.2 16 3.1 31.3 7.5 33.4 10l1.8 2.9c-5.3-3.4-18.6-7.2-35.6-10.5-17-3.2-38.6-4.2-61-4.2a346 346 0 00-61.8 4.2 108.1 108.1 0 00-33.3 10.4l1.7-3.3c6-2.9 15.3-6.7 31.1-9.5a361 361 0 0162.4-4.2zm0-9c21.4-.2 42.6 1 59.1 4 10.6 1.6 21 5 30.6 10l2.6 4c-4.3-4.8-20-9.2-34.2-11.6-16.4-3-36.7-4-58.1-4.1a354 354 0 00-59.5 4.2 100.6 100.6 0 00-29.6 9.1l2.2-3.2c5.8-3 15.2-5.9 27-8.1a373.3 373.3 0 0159.9-4.5zM308.4 284c-17.3-3.1-34.9-4.5-52.5-4-65.5.7-86.7 13.3-89.2 17.2l-5-8c16.8-12 52.4-18.8 94.6-18.2 22 .4 40.8 1.8 56.6 5l-4.5 8" transform="scale(.03125 .02917)" fill-rule="evenodd" fill="#ff0" stroke-width=".6" stroke-linecap="round" stroke-linejoin="round" stroke="#000"/><path d="M255.6 278.8c18.2.4 36 1.1 53.3 4.3l-1.1 2.2c-16-3-33.3-4-52-4-24.4-.2-48.8 2-70 8.3-6.8 1.8-18 6.1-19 9.7l-1.3-2c.4-2.3 7-6.5 19.6-10 24.4-7 47.2-8.3 70.5-8.5zm.8-9a330 330 0 0157.4 4.9l-1.4 2.3a302.3 302.3 0 00-56-4.9c-24.1 0-49.9 1.8-73.3 8.6-7.5 2.2-20.6 7-21 10.7l-1.2-2.2c.2-3.4 11.5-8 21.7-10.8 23.5-7 49.3-8.5 73.8-8.7zm0 0" transform="scale(.03125 .02917)" fill-rule="evenodd" fill="#ff0" stroke-width=".6" stroke-linecap="round" stroke-linejoin="round" stroke="#000"/><path d="M349.4 290.5l-7.8 12.3-22.7-20-58.6-39.6L194 207l-34.3-11.8 7.3-13.5 2.5-1.3 21.3 5.3 70.3 36.3 40.7 25.6L336 272l13.9 16zm0 0" transform="scale(.03125 .02917)" fill-rule="evenodd" fill="#ff0" stroke-width=".6" stroke-linecap="round" stroke-linejoin="round" stroke="#000"/><path d="M158.6 195.5c6-4 50.2 15.6 96.7 43.6 46 28 90.2 59.6 86.2 65.5l-1.3 2.1-.6.5c.1-.1.8-1 0-3-2-6.6-33.4-31.7-85.4-63-50.6-30.1-92.8-48.3-97-43.1zM351 290.4c3.8-7.5-37.3-38.5-88.1-68.6-52-29.5-89.6-46.9-96.5-41.7L165 183c0 .2 0 0 .4-.4 1.2-1 3.3-1 4.2-1 11.8.2 45.5 15.6 92.8 42.8 20.9 12 87.6 55 87.4 67 0 1 0 1.2-.4 1.7l1.7-2.5zm0 0" transform="scale(.03125 .02917)" fill-rule="evenodd" fill="#ff0" stroke-width=".6" stroke-linecap="round" stroke-linejoin="round" stroke="#000"/><path d="M180.6 211c0 15.7 6.3 30.7 17.4 41.7a59.1 59.1 0 0041.9 17.6 59.7 59.7 0 0042-17.3 59 59 0 0017.4-41.9V132l-118.7-.2zm0 0" transform="matrix(.03333 0 0 .03111 0 .8)" fill="#fff" stroke-width=".7" stroke="#000"/><path d="M182.8 211.1c0 15 6.1 29.4 16.8 40a56.9 56.9 0 0097.1-39.8v-77H183v76.8m91-53.7v48.8l-.1 5.2c0 9-3.5 17.7-10 24a33.8 33.8 0 01-24 10 34.4 34.4 0 01-33.9-34.3v-54zm0 0" transform="matrix(.03333 0 0 .03111 0 .8)" fill="red" stroke-width=".5" stroke="#000"/><path d="M6.3 5.6c0-.2.2-.2.2-.2l.1.2h-.3" fill="#ff0"/><path d="M186.8 147.7l-.7 6.3h4.2c0-5.3 4-6 4-6 .1 0 4 1.1 4.1 6h4.2l-.8-6.4h-15zm-1 6.4h17c.3 0 .6.3.6.7 0 .5-.3.8-.5.8h-17.2c-.2 0-.5-.3-.5-.8 0-.4.3-.7.7-.7zm0 0" transform="matrix(.03333 0 0 .03111 0 .8)" fill="#ff0" stroke-width=".5" stroke="#000"/><path d="M192 154c0-3.2 2.3-4.3 2.3-4.3s2.3 1 2.3 4.3H192m-5.8-9h16.3c.3 0 .6.4.6.9 0 .2-.2.5-.6.5h-16.3c-.3 0-.6-.3-.6-.7 0-.3.3-.6.6-.6zm.4 1.5H202c.3 0 .6.4.6.7s-.3.7-.6.7h-15.6c-.3 0-.5-.3-.5-.7s.2-.7.5-.7zm5-10.6h1.2v.8h1v-.8h1.2v1h1v-1h1.1v2c0 .3-.2.5-.5.5h-4.4c-.2 0-.6-.2-.6-.5zm4.6 2.7l.3 6.4h-4.3l.3-6.6h3.7m-5.2 3.2v3.4h-4v-3.4zm0 0" transform="matrix(.03333 0 0 .03111 0 .8)" fill="#ff0" stroke-width=".5" stroke="#000"/><path d="M191 141.6v3.4h-4v-3.4zm0 0" transform="matrix(.03333 0 0 .03111 .4 .8)" fill="#ff0" stroke-width=".5" stroke="#000"/><path d="M186.3 139h1.2v1h1v-1h1.1v1h1v-1h1.1v2c0 .5-.2.6-.5.6H187c-.3 0-.6-.3-.6-.6zm0 0" transform="matrix(.03333 0 0 .03111 0 .8)" fill="#ff0" stroke-width=".5" stroke="#000"/><path d="M186.3 139h1.1v1h1v-1h1.2v1h.9v-1h1.2v2c0 .5-.2.6-.5.6h-4.3a.7.7 0 01-.6-.6zm0 0" transform="matrix(.03333 0 0 .03111 .4 .8)" fill="#ff0" stroke-width=".5" stroke="#000"/><path d="M6.6 5.2"/><path d="M6.3 7l.2-.2.1.2h-.3" fill="#ff0"/><path d="M186.8 147.6l-.7 6.4h4.2c0-5.2 4-6 4-6 .1 0 4 1.1 4.1 6h4.2l-.8-6.4zm-1 6.4h17c.3 0 .6.4.6.8 0 .5-.3.8-.5.8h-17.2c-.2 0-.5-.3-.5-.8 0-.4.3-.8.7-.8zm0 0" transform="matrix(.03333 0 0 .03111 0 2.2)" fill="#ff0" stroke-width=".5" stroke="#000"/><path d="M192 154c0-3.3 2.3-4.2 2.3-4.2s2.3 1 2.3 4.2H192m-5.8-9h16.3c.3 0 .6.4.6.8s-.2.6-.6.6h-16.3c-.3 0-.6-.3-.6-.6s.3-.7.6-.7zm.4 1.5H202c.3 0 .6.3.6.6 0 .5-.3.8-.6.8h-15.6c-.3 0-.5-.3-.5-.8 0-.3.2-.6.5-.6zm5-10.7h1.2v1h1v-1h1.2v1h1v-1h1.1v2c0 .4-.2.5-.5.5h-4.4c-.2 0-.6 0-.6-.5zm4.6 2.8l.3 6.4h-4.3l.3-6.5h3.7m-5.2 3.1v3.4h-4v-3.4zm0 0" transform="matrix(.03333 0 0 .03111 0 2.2)" fill="#ff0" stroke-width=".5" stroke="#000"/><path d="M191 141.6v3.4h-4v-3.4zm0 0" transform="matrix(.03333 0 0 .03111 .4 2.2)" fill="#ff0" stroke-width=".5" stroke="#000"/><path d="M186.3 139h1.2v1h1v-1h1.1v1h1v-1h1.1v2c0 .4-.2.6-.5.6H187c-.3 0-.6-.2-.6-.6zm0 0" transform="matrix(.03333 0 0 .03111 0 2.2)" fill="#ff0" stroke-width=".5" stroke="#000"/><path d="M186.3 139h1.1v1h1v-1h1.2v1h.9v-1h1.2v2c0 .4-.2.6-.5.6h-4.3a.7.7 0 01-.6-.6zm0 0" transform="matrix(.03333 0 0 .03111 .4 2.2)" fill="#ff0" stroke-width=".5" stroke="#000"/><path d="M6.3 6.6v.1m.3 0"/><path d="M7 8.5c-.2-.1-.1-.2-.1-.2H7l-.2.2" fill="#ff0"/><path d="M186.8 147.7l-.7 6.3h4.2c0-5.2 4-6 4-6 .2 0 4 1.2 4 6h4.3l-.7-6.4h-15.1zm-1 6.4h17c.3 0 .5.3.6.7 0 .5-.3.8-.6.8h-17c-.3 0-.6-.4-.7-.8.1-.4.4-.7.7-.7zm0 0" transform="matrix(.02349 -.02208 .02365 .02192 -1.2 9.3)" fill="#ff0" stroke-width=".5" stroke="#000"/><path d="M192 154c0-3.4 2.3-4.2 2.3-4.2s2.3 1 2.3 4.2h-4.7m-5.7-9h16.3c.3 0 .6.4.6.8 0 .3-.3.6-.6.7h-16.3a.6.6 0 01-.5-.8c-.1-.3.2-.6.5-.5zm.4 1.5H202a.6.6 0 01.6.7c0 .4-.3.6-.6.7h-15.6c-.3 0-.5-.3-.5-.7 0-.4.2-.7.6-.7zm5-10.7l1.2.2v.7h1l-.1-.8h1.3v.8l1 .1-.1-1h1.2v2c0 .3-.2.5-.5.6h-4.4c-.4 0-.6-.3-.6-.4zm4.5 2.8l.4 6.4h-4.3l.3-6.5h3.7M191 141.6v3.4h-4v-3.5zm0 0" transform="matrix(.02349 -.02208 .02365 .02192 -1.2 9.3)" fill="#ff0" stroke-width=".5" stroke="#000"/><path d="M191 141.6v3.4h-4v-3.4zm0 0" transform="matrix(.02349 -.02208 .02365 .02192 -1 9.1)" fill="#ff0" stroke-width=".5" stroke="#000"/><path d="M186.3 139h1.2v1h.9v-1h1.2v1h.9v-1h1.2v2c0 .4-.2.6-.5.7H187a.7.7 0 01-.6-.7zm0 0" transform="matrix(.02349 -.02208 .02365 .02192 -1.2 9.3)" fill="#ff0" stroke-width=".5" stroke="#000"/><path d="M186.3 139h1.2v1h.9v-1h1.2v1h.8v-1h1.4l-.1 2c0 .4-.2.6-.5.6h-4.3a.5.5 0 01-.6-.6zm0 0" transform="matrix(.02349 -.02208 .02365 .02192 -1 9.1)" fill="#ff0" stroke-width=".5" stroke="#000"/><path d="M6.9 8.1"/><path d="M7.9 5.6l.1-.2.1.2H8" fill="#ff0"/><path d="M186.8 147.7l-.7 6.3h4.2c0-5.3 4-6 4-6 .1 0 4 1.1 4.1 6h4.2l-.8-6.4h-15zm-1 6.4h17c.3 0 .6.3.6.7 0 .5-.3.8-.5.8h-17.2c-.2 0-.5-.3-.5-.8 0-.4.3-.7.7-.7zm0 0" transform="matrix(.03333 0 0 .03111 1.5 .8)" fill="#ff0" stroke-width=".5" stroke="#000"/><path d="M192 154c0-3.2 2.3-4.3 2.3-4.3s2.3 1 2.3 4.3H192m-5.8-9h16.3c.4 0 .6.4.6.9 0 .2-.2.5-.6.5h-16.3c-.3 0-.6-.3-.6-.7 0-.3.3-.6.6-.6zm.4 1.5H202c.3 0 .6.4.6.7s-.3.7-.6.7h-15.6c-.3 0-.5-.3-.5-.7s.2-.7.5-.7zm5-10.6h1.2v.8h1v-.8h1.2v1h1v-1h1.1v2c0 .3-.2.5-.5.5h-4.4c-.2 0-.6-.2-.6-.5zm4.6 2.7l.3 6.4h-4.3l.3-6.6h3.7m-5.2 3.2v3.4h-4v-3.4zm0 0" transform="matrix(.03333 0 0 .03111 1.5 .8)" fill="#ff0" stroke-width=".5" stroke="#000"/><path d="M191 141.6v3.4h-4v-3.4zm0 0" transform="matrix(.03333 0 0 .03111 1.9 .8)" fill="#ff0" stroke-width=".5" stroke="#000"/><path d="M186.3 139h1.2v1h1v-1h1.1v1h1v-1h1.1v2c0 .5-.2.6-.4.6h-4.4c-.3 0-.6-.3-.6-.6zm0 0" transform="matrix(.03333 0 0 .03111 1.5 .8)" fill="#ff0" stroke-width=".5" stroke="#000"/><path d="M186.3 139h1.1v1h1v-1h1.2v1h.9v-1h1.2v2c0 .5-.1.6-.5.6h-4.3c-.4 0-.6-.3-.6-.6zm0 0" transform="matrix(.03333 0 0 .03111 1.9 .8)" fill="#ff0" stroke-width=".5" stroke="#000"/><path d="M8.2 5.2"/><path d="M9.7 5.6c0-.2-.2-.2-.2-.2a.2.2 0 00-.1.2h.3" fill="#ff0"/><path d="M186.8 147.7l-.7 6.3h4.2c0-5.3 4-6 4-6 .1 0 4 1.1 4.1 6h4.3l-.9-6.4h-15zm-1 6.4h17c.3 0 .6.3.6.7 0 .5-.3.8-.6.8h-17c-.3 0-.6-.3-.6-.8 0-.4.3-.7.7-.7zm0 0" transform="matrix(-.03333 0 0 .03111 16 .8)" fill="#ff0" stroke-width=".5" stroke="#000"/><path d="M192 154c0-3.2 2.3-4.3 2.3-4.3s2.3 1 2.3 4.3H192m-5.8-9h16.3c.3 0 .6.4.6.9 0 .2-.3.5-.6.5h-16.3c-.3 0-.7-.3-.7-.7 0-.3.4-.6.7-.6zm.4 1.5h15.3c.4 0 .8.4.8.7s-.4.7-.8.7h-15.4c-.4 0-.6-.3-.6-.7s.2-.7.6-.7zm5-10.6h1.2v.8h1v-.8h1.2v1h.9v-1h1.2v2c0 .3-.2.5-.5.5h-4.4c-.3 0-.6-.2-.6-.5zm4.6 2.7l.2 6.4h-4.2l.3-6.6h3.7m-5.1 3.2v3.4H187v-3.4zm0 0" transform="matrix(-.03333 0 0 .03111 16 .8)" fill="#ff0" stroke-width=".5" stroke="#000"/><path d="M191 141.6v3.4h-4v-3.4zm0 0" transform="matrix(-.03333 0 0 .03111 15.6 .8)" fill="#ff0" stroke-width=".5" stroke="#000"/><path d="M186.2 139h1.3v1h.9v-1h1.2v1h.9v-1h1.3v2c0 .5-.3.6-.6.6h-4.3c-.3 0-.7-.3-.7-.6zm0 0" transform="matrix(-.03333 0 0 .03111 16 .8)" fill="#ff0" stroke-width=".5" stroke="#000"/><path d="M186.3 139h1.2v1h1v-1h1v1h1v-1h1.2v2c0 .5-.2.6-.5.6H187c-.4 0-.6-.3-.6-.6zm0 0" transform="matrix(-.03333 0 0 .03111 15.6 .8)" fill="#ff0" stroke-width=".5" stroke="#000"/><path d="M9.399999999999999 5.2"/><path d="M9.7 7l-.2-.2a.2.2 0 00-.1.2h.3" fill="#ff0"/><path d="M186.8 147.6l-.7 6.4h4.2c0-5.2 4-6 4-6 .1 0 4 1.1 4.1 6h4.3l-.9-6.4zm-1 6.4h17c.3 0 .6.4.6.8 0 .5-.3.8-.6.8h-17c-.3 0-.6-.3-.6-.8 0-.4.3-.8.7-.8zm0 0" transform="matrix(-.03333 0 0 .03111 16 2.2)" fill="#ff0" stroke-width=".5" stroke="#000"/><path d="M192 154c0-3.3 2.3-4.2 2.3-4.2s2.3 1 2.3 4.2H192m-5.8-9h16.3c.3 0 .6.4.6.8s-.3.6-.6.6h-16.3c-.3 0-.7-.3-.7-.6s.4-.7.7-.7zm.4 1.5h15.3c.4 0 .8.3.8.6 0 .5-.4.8-.8.8h-15.4c-.4 0-.6-.3-.6-.8 0-.3.2-.6.6-.6zm5-10.7h1.2v1h1v-1h1.2v1h.9v-1h1.2v2c0 .4-.2.5-.5.5h-4.4c-.3 0-.6 0-.6-.5zm4.6 2.8l.2 6.4h-4.2l.3-6.5h3.7m-5.1 3.1v3.4H187v-3.4zm0 0" transform="matrix(-.03333 0 0 .03111 16 2.2)" fill="#ff0" stroke-width=".5" stroke="#000"/><path d="M191 141.6v3.4h-4v-3.4zm0 0" transform="matrix(-.03333 0 0 .03111 15.6 2.2)" fill="#ff0" stroke-width=".5" stroke="#000"/><path d="M186.2 139h1.3v1h.9v-1h1.2v1h.9v-1h1.3v2c0 .4-.3.6-.6.6h-4.3c-.3 0-.7-.2-.7-.6zm0 0" transform="matrix(-.03333 0 0 .03111 16 2.2)" fill="#ff0" stroke-width=".5" stroke="#000"/><path d="M186.3 139h1.2v1h1v-1h1v1h1v-1h1.2v2c0 .4-.2.6-.5.6H187c-.4 0-.6-.2-.6-.6zm0 0" transform="matrix(-.03333 0 0 .03111 15.6 2.2)" fill="#ff0" stroke-width=".5" stroke="#000"/><path d="M9.7 6.6v.1m-.3 0"/><path d="M9 8.5c.2-.1.1-.2.1-.2H9l.2.2" fill="#ff0"/><path d="M186.8 147.7l-.7 6.3h4.2c0-5.3 4-6 4-6 .1 0 4 1.1 4 6h4.3l-.8-6.5h-15zm-1 6.3l17 .1c.2 0 .6.3.6.8s-.3.7-.6.7h-17c-.2 0-.6-.4-.6-.8s.3-.7.7-.7zm0 0" transform="matrix(-.02349 -.02208 -.02365 .02192 17.2 9.3)" fill="#ff0" stroke-width=".5" stroke="#000"/><path d="M192 154c0-3.3 2.4-4.2 2.4-4.2s2.1 1 2.2 4.2H192m-5.8-9h16.3c.4 0 .6.4.6.8a.6.6 0 01-.6.6h-16.3c-.4 0-.6-.2-.6-.8l.5-.5zm.4 1.5H202c.4 0 .6.2.6.8a.6.6 0 01-.6.6h-15.5c-.4 0-.5-.3-.6-.7 0-.4.2-.7.6-.6zm5-10.6h1.1l.1.8h1l-.1-.7h1.4v.8h.8v-1h1.2v2c0 .4-.2.5-.5.6h-4.4a.7.7 0 01-.7-.5zm4.6 2.7l.3 6.4h-4.3l.3-6.5h3.7M191 141.6v3.4h-4v-3.4zm0 0" transform="matrix(-.02349 -.02208 -.02365 .02192 17.2 9.3)" fill="#ff0" stroke-width=".5" stroke="#000"/><path d="M191 141.6v3.4h-4v-3.4zm0 0" transform="matrix(-.02349 -.02208 -.02365 .02192 17 9.1)" fill="#ff0" stroke-width=".5" stroke="#000"/><path d="M186.3 139h1.2v1h.9v-1h1.2v1h.8v-1h1.4v2c-.1.4-.3.6-.6.6h-4.3a.5.5 0 01-.6-.6zm0 0" transform="matrix(-.02349 -.02208 -.02365 .02192 17.2 9.3)" fill="#ff0" stroke-width=".5" stroke="#000"/><path d="M186.3 139h1.2v1h.8v-1h1.4v1h.8v-1h1.2v2c0 .4-.2.6-.5.6h-4.3a.5.5 0 01-.6-.6zm0 0" transform="matrix(-.02349 -.02208 -.02365 .02192 17 9.1)" fill="#ff0" stroke-width=".5" stroke="#000"/><path d="M9.100000000000001 8.1"/><path d="M7.8 7v.3H8a.3.3 0 00.2 0 .3.3 0 000-.2v-.4h-.4v.4" fill="#039"/><path d="M8 6.9h-.1zm.2 0H8h.1zm-.1 0V7H8zm-.2.2zm.3 0H8h.1zm0 0" fill="#fff"/><path d="M7.8 6.3v.1l.2.1a.3.3 0 00.2 0 .3.3 0 000-.2v-.4h-.4v.4" fill="#039"/><path d="M8 6l-.1.1zm.2 0v.1H8h.1zm-.1.2H8zm-.2.1zm.3 0H8h.1zm0 0" fill="#fff"/><path d="M7 7l.1.3a.2.2 0 00.5-.2v-.4H7v.4" fill="#039"/><path d="M7.2 6.9zm.3 0h-.1.1zm-.1 0V7h-.1zm-.2.2zm.3 0h-.1.1zm0 0" fill="#fff"/><path d="M8.4 7l.1.3A.2.2 0 009 7v-.4h-.5v.4" fill="#039"/><path d="M8.6 6.9zm.3 0h-.1zm-.2 0V7zm0 .2h-.1zm.2 0h-.1zm0 0" fill="#fff"/><path d="M7.8 7.9V8H8a.3.3 0 00.2 0 .2.2 0 000-.2v-.4h-.4V8" fill="#039"/><path d="M8 7.7h-.1zm.2 0H8h.1zm-.1 0v.1H8zm-.2.2zm.3 0H8h.1zm0 0" fill="#fff"/></svg>