<svg xmlns="http://www.w3.org/2000/svg" width="20" height="14"><path d="M0 9.3h20V14H0zm0 0" fill="#0038a8"/><path d="M0 4.7h20v4.6H0zm0 0" fill="#fff"/><path d="M0 0h20v4.7H0zm0 0" fill="#d52b1e"/><path d="M342.2 165a42.2 42.2 0 11-84.4 0 42.2 42.2 0 0184.4 0zm0 0" transform="matrix(.04545 0 0 .04242 -3.6 0)" fill="none" stroke-width="1.1" stroke="#000"/><path d="M334.7 165a34.7 34.7 0 11-69.4 0 34.7 34.7 0 0169.4 0zm0 0" transform="matrix(.04545 0 0 .04242 -3.6 0)" fill="none" stroke-width=".5" stroke="#000"/><path d="M326.6 165a26.5 26.5 0 11-53.2 0 26.6 26.6 0 0153.2 0zm0 0" transform="matrix(.04545 0 0 .04242 -3.6 0)" fill="none" stroke-width=".4" stroke="#000"/><path d="M9 7.7l-.2.1h-.1v-.1-.1h.1v-.1.1H9zm-.2 0zm-.2-.2v-.1h.1v-.1l.1.2zm0-.2L8.4 7H8.9v.1zm0-.1zm-.1-.4h.2V7h-.2.1zm0-.2v-.1H8.9v.2zm.2 0zm0 0zm0-.3h.2v.2zm.1-.2l.3.1zm.4-.1a.1.1 0 010 .1H9L9 6a.1.1 0 010-.1h.1V6zm.2-.1l-.1.1v-.2h.2V6zm0 0v-.1zm.2-.3h.2a.4.4 0 01.1.2h-.2zm.1 0v.2h.1v-.1zm.3 0h.2-.1v.2H10zm.3 0v.2h.1-.2zm.4.1h.1V6h-.2zm0 .2v-.1zm.2.2h-.1l.2-.2v.3zm0 0L11 6zm0 .1l.3-.1v.1h.1v.1h-.1v.1H11v-.1zm.3 0zm0 .4v-.1h.2l-.2.2zm0 0l.2-.1h-.1zm.2.2V7a.2.2 0 01-.1 0 .1.1 0 010-.1.1.1 0 010-.1.2.2 0 01.1 0 .1.1 0 01.1 0v.1h-.1zm.1.4h-.1-.1V7 7h.2-.1v.1zm-.3.2v-.2l.3.2h-.3zm.1 0h.1zm.1.2h-.2v.2-.1H11v-.1h.1zm0 0"/><path d="M328.1 211.3s23.4 10 19.3 30.8c-4 21-17 20.7-22.1 23-5 2.4-8.7 5.6-10.7 5-2-.2-4.7-1.8-4.7-1.8s-.1 3.4 3.9 3.8c4 .8 9.4-5.2 12-5.9 2.6-.6 18.4-2.4 22.4-23.5 4.6-22.7-20-30.7-20-31.4zm0 0" transform="scale(.03125 .02917)" fill="#009b3a" stroke-width=".1" stroke="#000"/><path d="M339.9 215.8c.1 1.2 0 1.8-.3 1.8-.4 0-.9-.6-1.2-1.8a8.5 8.5 0 01-.6-3.8c0-.8.4-.8 1 0 .4 1 1 2.6 1 3.8zm0 0" transform="scale(.03125 .02917)" fill="#009b3a" stroke-width=".1" stroke="#000"/><path d="M339.1 216c.9 1.8 1.3 3.2.9 3.4-.5.1-1.5-1.2-2.3-2.8-.8-1.8-1.2-3.4-.8-3.5.4-.2 1.4 1.2 2.2 3zm-2.4 1.5c1.6.5 2.7 1.2 2.7 1.6-.1.4-1.3.4-2.8 0-1.5-.5-2.6-1.2-2.6-1.6.1-.4 1.3-.4 2.8 0zm0 0" transform="scale(.03125 .02917)" fill="#009b3a" stroke-width=".1" stroke="#000"/><path d="M337.1 216.7c1.5 1 2.8 2.3 2.5 2.5-.2.4-1.6 0-3.2-1.2-1.5-1-2.8-2.2-2.5-2.6.2-.3 1.6.2 3.2 1.3zm0 0" transform="scale(.03125 .02917)" fill="#009b3a" stroke-width=".1" stroke="#000"/><path d="M338.1 216.3c1.3 1.3 2 2.7 1.8 3-.3.2-1.5-.7-2.8-2-1.2-1.3-2.1-2.6-1.9-2.9.4-.2 1.7.6 3 1.9zm0 0" transform="scale(.03125 .02917)" fill="#009b3a" stroke-width=".1" stroke="#000"/><path d="M339.8 219.2l-1 .6c-.4 0-.7-.3-1.3 0s-1 1-1.1 1.2.2.5.9.1c.7-.3 1-1 1.2-1l1.3-.9.8-1.2c.3-.4 1.1-1 1.6-1.8.3-.6.2-1.1-.2-.8-.5.2-1 .6-1.3 1.2 0 .4 0 1-.2 1.4zm7.2 2.5c0 2.8-.4 5-1 5-.6-.2-1.1-2.6-1.3-5.6 0-3 .6-5 1-5 .7.2 1.3 2.6 1.3 5.6zm0 0" transform="scale(.03125 .02917)" fill="#009b3a" stroke-width=".1" stroke="#000"/><path d="M345.8 221.5c.6 3 .7 5.4 0 5.4s-1.6-2.4-2.2-5.2c-.6-2.9-.6-5.1 0-5.1.5 0 1.5 2.2 2.1 5zm0 0" transform="scale(.03125 .02917)" fill="#009b3a" stroke-width=".1" stroke="#000"/><path d="M342 222.7c2.1 1.5 3.8 3.1 3.5 3.8-.1.5-2-.2-4.3-1.6-2-1.5-3.7-3.1-3.4-3.8.2-.5 2 .2 4.2 1.6zm0 0" transform="scale(.03125 .02917)" fill="#009b3a" stroke-width=".1" stroke="#000"/><path d="M342.8 221.7c1.8 2 3 4.2 2.6 4.8-.4.4-2.1-1.1-4-3.2-1.8-2.3-2.9-4.3-2.5-4.7.4-.4 2.1 1 3.9 3zm0 0" transform="scale(.03125 .02917)" fill="#009b3a" stroke-width=".1" stroke="#000"/><path d="M344.3 221.5c1.3 2.6 2 4.8 1.6 5.1-.5.3-2-1.6-3.4-4.1-1.4-2.6-2.1-4.9-1.6-5.1.5-.3 2 1.6 3.4 4.1zm0 0" transform="scale(.03125 .02917)" fill="#009b3a" stroke-width=".1" stroke="#000"/><path d="M345.6 226.3l-1.9.4c-.2 0-.4-.6-1.4-.4-1 .2-1.7.8-2 1.2-.2.4 0 .8 1.2.6 1.3-.2 1.6-1 2.3-1 .4-.2 1.3-.4 2-.4 0-.4 1-1.2 1.4-1.6.6-.5 2-1 2.7-1.8.7-.8.7-1.6 0-1.5-.8.3-1.4.7-2 1.3-.5.6-.4 1.5-.9 2zm5.1 5c-.4 2.8-1.3 4.8-1.8 4.5-.6-.2-.6-2.8-.1-5.4.3-2.9 1.2-4.9 1.7-4.6.6.3.6 2.7.3 5.5zm0 0" transform="scale(.03125 .02917)" fill="#009b3a" stroke-width=".1" stroke="#000"/><path d="M349.6 231c.1 1.9-.1 3.8-.4 4.7-.2 1-.7.8-1-.1-.3-1-.6-3-.6-4.8-.1-2 0-3.8.4-4.7.3-1.1.6-1 1 .1.4 1 .6 3 .6 4.8zm0 0" transform="scale(.03125 .02917)" fill="#009b3a" stroke-width=".1" stroke="#000"/><path d="M345.8 231.4a16 16 0 013.3 4c.6 1.1.4 1.7-.6 1.3-1-.6-2.5-1.8-3.8-3.3a14.4 14.4 0 01-3.4-4c-.7-1.2-.4-1.7.6-1.2 1 .4 2.5 1.8 3.9 3.2zm0 0" transform="scale(.03125 .02917)" fill="#009b3a" stroke-width=".1" stroke="#000"/><path d="M346.8 230.5c1.3 2.5 2 5 1.6 5.3-.5.3-2-1.4-3.4-4-1.4-2.5-2.1-5-1.6-5.3.4-.3 1.9 1.4 3.4 4zm0 0" transform="scale(.03125 .02917)" fill="#009b3a" stroke-width=".1" stroke="#000"/><path d="M348.1 230.8c.9 2.6 1.1 5 .6 5.2-.6.1-1.7-1.9-2.4-4.6-1-2.8-1.3-5.3-.7-5.5.5-.2 1.6 2 2.6 4.9zm0 0" transform="scale(.03125 .02917)" fill="#009b3a" stroke-width=".1" stroke="#000"/><path d="M348.5 235.8h-1.8c-.2 0-.4-.8-1.3-.8-.8 0-1.5.3-2.1.8-.4.5 0 .9 1 .9s1.7-.6 2.3-.7h2l1.8-1.2c.6-.4 2.1-.6 3-1.4.7-.5.9-1.3.4-1.3-1 .1-1.7.4-2.4 1-.5.3-.6 1.1-1.1 1.5-.6.3-1.7 1.2-1.8 1.1m2.5 6.4c-1.5 2.3-3 3.8-3.4 3.4-.4-.5.5-2.8 2-5.1s3-3.9 3.4-3.3c.4.4-.5 2.6-2 5" transform="scale(.03125 .02917)" fill="#009b3a" stroke-width=".1" stroke="#000"/><path d="M350.1 241.3c-1 2.7-2.2 4.6-2.7 4.3-.5-.4-.1-2.8.9-5.5 1-2.5 2.3-4.5 2.7-4.1.5.3.1 2.7-.9 5.3m-3.7-1.2c1.1 2.7 1.5 5.3 1 5.7-.5.4-1.8-1.5-2.8-4.2-1.1-2.7-1.5-5.2-1-5.8.5-.4 1.8 1.5 2.8 4.3" transform="scale(.03125 .02917)" fill="#009b3a" stroke-width=".1" stroke="#000"/><path d="M347.6 239.7c.3 2.8 0 5.3-.5 5.4-.6.1-1.2-2-1.5-5-.2-2.8 0-5.2.5-5.3.5-.2 1.3 2 1.5 5" transform="scale(.03125 .02917)" fill="#009b3a" stroke-width=".1" stroke="#000"/><path d="M349 240.4c-.3 2.8-.9 5-1.5 5-.5 0-.8-2.2-.5-5.1.3-2.8.9-5.1 1.5-5.1.5 0 .8 2.4.5 5.2" transform="scale(.03125 .02917)" fill="#009b3a" stroke-width=".1" stroke="#000"/><path d="M347.3 245.4s-1.4-.6-1.6-.8c-.3-.2 0-.8-1-1.3a3.3 3.3 0 00-2.2 0c-.5 0-.4.6.6 1 1 .7 1.8.3 2.3.4l1.9 1c.4-.3 1.4-.3 2-.5s2.2.4 3.3 0c.9-.2 1.3-1 .6-1.2a3.3 3.3 0 00-2.2 0c-.8.2-1.1 1-1.8 1l-2 .4m1 7.6a14.8 14.8 0 01-4.6 3.2c-1.2.4-1.5-.1-.6-1.3.8-1.2 2.4-3 4.1-4.3 1.6-1.6 3.6-3.1 4.9-3.5 1.3-.5 1.5.1.6 1.5-.9 1.3-2.7 3-4.5 4.4" transform="scale(.03125 .02917)" fill="#009b3a" stroke-width=".1" stroke="#000"/><path d="M347.3 252c-2 2.5-4 4-4.3 3.5-.5-.6.9-3 2.8-5.6 2-2.5 4-4.1 4.3-3.6.4.5-.9 3-2.9 5.6" transform="scale(.03125 .02917)" fill="#009b3a" stroke-width=".1" stroke="#000"/><path d="M343.8 249.2c.2 2.2.3 4.7 0 6.3-.4 1.6-1 2-1.6.7-.4-1.2-1-3.6-1-6-.2-2.2-.3-4.7 0-6.3.4-1.6 1-1.9 1.6-.7.4 1.2 1 3.6 1 6" transform="scale(.03125 .02917)" fill="#009b3a" stroke-width=".1" stroke="#000"/><path d="M345.1 249.2c-.6 2.5-1.5 4-2 4s-.6-1.8-.4-4.2c.4-2.4 1-5 1.8-6.5.8-1.4 1.4-1.4 1.5 0 .1 1.5-.3 4.2-.9 6.6" transform="scale(.03125 .02917)" fill="#009b3a" stroke-width=".1" stroke="#000"/><path d="M346.3 250.4c-.8 2.3-2 4.9-3 6.2-1 1.3-1.6 1.2-1.3-.4.1-1.7 1.1-4.4 2.3-6.6.7-2.4 1.8-5 2.8-6.3 1-1.3 1.6-1 1.4.6a22 22 0 01-2.3 6.5" transform="scale(.03125 .02917)" fill="#009b3a" stroke-width=".1" stroke="#000"/><path d="M343 255.3a8.1 8.1 0 01-1.6-1.4c-.1-.2.1-1-.6-1.8-1-.8-2-1-2.6-1-.4.2-.4.7.4 1.6 1 1 2 .8 2.4 1.2a7 7 0 011.8 1.6l2.4.4c.8 0 2.3 1.1 3.6 1.1 1 0 1.8-.5 1.2-1-.8-.6-1.6-.9-2.6-1-.8 0-1.5.8-2.1.5l-2.4-.2m-2.3 7.3c-3.2.6-5.9.3-5.7-.5 0-.8 2.7-1.9 6-2.4 3.2-.5 5.9-.3 5.7.5 0 .8-2.7 1.9-6 2.4" transform="scale(.03125 .02917)" fill="#009b3a" stroke-width=".1" stroke="#000"/><path d="M340.5 261c-3.3 1.2-6.1 1.8-6.3 1 0-.7 2.6-2.3 5.8-3.7 3.4-1.2 6.3-1.7 6.5-.9.1.7-2.6 2.4-6 3.8m-2.1-4.9c-1.3 2.6-2.8 4.3-3.4 4.2-.8-.1-.5-2 .6-4.6.9-2.2 2.1-4.4 3.3-5.5 1-1.2 1.6-1 1.6.3-.1 1.4-1 3.6-2.1 5.6" transform="scale(.03125 .02917)" fill="#009b3a" stroke-width=".1" stroke="#000"/><path d="M339.9 257.1c-2.5 2.9-5 4.9-5.6 4.5-.7-.4.8-3.1 3.3-6 2.5-2.7 5-4.6 5.6-4.2.7.4-.8 3-3.3 5.7" transform="scale(.03125 .02917)" fill="#009b3a" stroke-width=".1" stroke="#000"/><path d="M340.3 259.2c-2 1.6-4.2 2.9-5.6 3.4s-1.7.2-.8-1c.9-1.2 2.7-3 4.9-4.5 2.4-1.8 4.6-2.8 5-2.2.3.4-1 2.2-3.6 4.3" transform="scale(.03125 .02917)" fill="#009b3a" stroke-width=".1" stroke="#000"/><path d="M334.4 261.7l-.6-2.1c-.2-.4.4-.8.2-2-.4-1.1-1-2-1.9-2.5-.5-.2-.9.3-.5 1.6.4 1.5 1.4 2 1.6 2.7l1 2.4 2 2c.7.4 1.6 2.3 2.8 3 1 .7 2 .5 1.8-.1-.4-1.1-1.2-2-2-2.5-.7-.6-1.8-.4-2.6-.8-.3-.5-2-1.6-2-1.7m-3.4 6.3c-2.8-.1-4.7-.8-4.7-1.6 0-1 1.9-1.6 4.6-1.9 2.8.1 4.8.8 4.8 1.6 0 1-2 1.6-4.8 1.9" transform="scale(.03125 .02917)" fill="#009b3a" stroke-width=".1" stroke="#000"/><path d="M330 262.5c-2.1 2.8-4.5 4.6-5.3 4-.7-.7.4-3.3 2.6-6.1 2-2.9 4.4-4.6 5.2-4 .6.6-.5 3.3-2.6 6.1" transform="scale(.03125 .02917)" fill="#009b3a" stroke-width=".1" stroke="#000"/><path d="M330.8 265.3c-3.3 1.4-6.2 1.8-6.4.8-.4-.8 2-2.7 5.2-4.1 3.3-1.4 6.1-1.8 6.5-.8.3.9-2.1 2.8-5.4 4.1m1.8-53.4c1.4 1.3 2.3 2.5 1.9 2.7-.5.2-1.9-.6-3.4-2-1.1-.9-2-1.8-2.3-2.5-.3-.6 0-.8.8-.4s2 1.2 3 2.2m-1.9 1.4c1.6.5 2.9.9 3 1.3 0 .4-1 .5-2.7.4-1.5-.2-3.3-.4-4.3-.8s-1-.9-.1-1c.9-.1 2.5-.1 4.1.1" transform="scale(.03125 .02917)" fill="#009b3a" stroke-width=".1" stroke="#000"/><path d="M331.4 212.4c2.1 1 3.7 2.3 3.5 2.6-.3.4-2.1-.2-4.3-1.3-2.1-1-3.7-2.2-3.5-2.6.3-.4 2.1.2 4.3 1.3M303.8 262s5 1 9.4 2.6c4.6 1.8 11.4 7.3 13.2 7.7 2 0 4.9-.7 6-3.6-3.1.8-5 2.1-8 .5-1.1-.4-4.6-3.6-8.5-5.4-3.8-1.6-11.5-3.4-11.5-3.4l-.6 1.6m5.4-46.5l6-3-6.6 1.7-.9 1 1.6.3" transform="scale(.03125 .02917)" fill="#009b3a" stroke-width=".1" stroke="#000"/><path d="M314.8 217c-2.3-.4-5.8-1.2-8-1.4l5-6.4c-1 1.7-2.3 4-2.8 5.5 1.5 1 4 1.6 5.8 2.3" transform="scale(.03125 .02917)" fill="#009b3a" stroke-width=".1" stroke="#000"/><path d="M308.1 215.9l5.3-4.2-6.1 2.9-.6 1.2h1.4" transform="scale(.03125 .02917)" fill="#009b3a" stroke-width=".1" stroke="#000"/><path d="M313.8 217c-2.4-.6-6-1.4-8-1.6l4.7-6.6c-.8 1.7-2.3 4.1-2.8 5.8 1.7.9 4.2 1.6 6 2.4" transform="scale(.03125 .02917)" fill="#009b3a" stroke-width=".1" stroke="#000"/><path d="M307.3 216.2l6-2.6-6.6 1-.8 1.2 1.4.4" transform="scale(.03125 .02917)" fill="#009b3a" stroke-width=".1" stroke="#000"/><path d="M313 217c-2.3-.3-6-.7-8.3-.6 1.4-2 3-5.3 4.2-7.3-.6 1.8-1.6 4.4-2 6.1 1.7.8 4.4 1.2 6.1 1.8" transform="scale(.03125 .02917)" fill="#009b3a" stroke-width=".1" stroke="#000"/><path d="M306.6 216.2l4.1-5-5.2 3.9-.3 1.3 1.4-.2" transform="scale(.03125 .02917)" fill="#009b3a" stroke-width=".1" stroke="#000"/><path d="M313 217.4c-2.5 0-6.4-.4-8.8 0 1.2-2.4 2.7-6 3.6-8.3-.4 2-1.3 5-1.4 6.8 1.9.7 4.6 1 6.6 1.5" transform="scale(.03125 .02917)" fill="#009b3a" stroke-width=".1" stroke="#000"/><path d="M305.8 217.4l5-4.9-6 3.5-.6 1.4h1.6" transform="scale(.03125 .02917)" fill="#009b3a" stroke-width=".1" stroke="#000"/><path d="M311.9 217.4c-2.6 0-6.8 0-9.5.2 1.9-2.5 4.2-6.7 5.6-9-1 2.2-2.4 5.3-3 7.4 1.9.7 4.8 1 6.9 1.4" transform="scale(.03125 .02917)" fill="#009b3a" stroke-width=".1" stroke="#000"/><path d="M304 217.8l6.6-5.5-7.4 3.9-.8 1.6h1.6" transform="scale(.03125 .02917)" fill="#009b3a" stroke-width=".1" stroke="#000"/><path d="M311 217.6c-2.8.4-6.9.8-9.4 1.5 1.3-2.7 3.1-7 4.1-9.6-.4 2.2-1.6 5.5-2 7.7 2 .4 5 .3 7.2.4" transform="scale(.03125 .02917)" fill="#009b3a" stroke-width=".1" stroke="#000"/><path d="M303.3 218.8l5-7-6.4 5.8-.3 1.6 1.6-.4" transform="scale(.03125 .02917)" fill="#009b3a" stroke-width=".1" stroke="#000"/><path d="M309.4 218.4c-2.6.3-6.8.4-9.4 1 1.5-2.6 3.5-6.9 4.8-9.4-.8 2.3-2 5.5-2.4 7.6 2 .6 5 .6 7 .8" transform="scale(.03125 .02917)" fill="#009b3a" stroke-width=".1" stroke="#000"/><path d="M302.3 219.6l6.4-5.4-7.3 3.8-.6 1.6h1.4" transform="scale(.03125 .02917)" fill="#009b3a" stroke-width=".1" stroke="#000"/><path d="M308.8 218.7c-2.8.5-7 1.3-9.6 2.1 1.3-2.8 3-7 4-9.9-.6 2.4-1.4 5.7-1.7 8 2 .2 5 0 7.3-.2" transform="scale(.03125 .02917)" fill="#009b3a" stroke-width=".1" stroke="#000"/><path d="M301.3 220l4-7.7-5.6 6.5v1.8l1.6-.7" transform="scale(.03125 .02917)" fill="#009b3a" stroke-width=".1" stroke="#000"/><path d="M308.8 219.1c-3 .8-7.6 1.7-10 2.8 1-3 2-8 2.8-11.1a73 73 0 00-.9 8.8c2.4.2 5.6-.4 8-.5" transform="scale(.03125 .02917)" fill="#009b3a" stroke-width=".1" stroke="#000"/><path d="M300.4 221.7l5.2-7.5-6.6 6-.3 2 1.7-.5" transform="scale(.03125 .02917)" fill="#009b3a" stroke-width=".1" stroke="#000"/><path d="M307.5 220c-2.8.8-7.3 2-9.8 3.3l2.4-11.2c-.1 2.7-.5 6.3-.4 8.7 2.3 0 5.6-.6 7.8-.8" transform="scale(.03125 .02917)" fill="#009b3a" stroke-width=".1" stroke="#000"/><path d="M299.4 222.9l3.9-8.5-5.6 7.3v2l1.7-.8" transform="scale(.03125 .02917)" fill="#009b3a" stroke-width=".1" stroke="#000"/><path d="M306.4 221.3c-2.8.5-7.3 1.4-10 2.4 1.1-3.1 2.5-8 3.4-11.2-.4 2.9-1 6.5-1 8.7 2 .5 5.3 0 7.6 0" transform="scale(.03125 .02917)" fill="#009b3a" stroke-width=".1" stroke="#000"/><path d="M298.4 223.7l6.4-6.7-7.6 5-.4 1.7h1.6" transform="scale(.03125 .02917)" fill="#009b3a" stroke-width=".1" stroke="#000"/><path d="M305.3 222.3c-3 .4-7.4.8-10 1.5 1.2-3 3-7.8 4-10.9-.7 2.9-1.6 6.3-1.8 8.8 2.3.5 5.4.4 7.8.6" transform="scale(.03125 .02917)" fill="#009b3a" stroke-width=".1" stroke="#000"/><path d="M297.3 223l4.2-8.3-5.9 7v2l1.6-.8" transform="scale(.03125 .02917)" fill="#009b3a" stroke-width=".1" stroke="#000"/><path d="M305.5 221.3c-3 1.3-8 3-10.9 4.6 1-3.7 2-9.5 2.6-13 0 3-.4 7.3-.3 10 2.5 0 6-1.1 8.6-1.7" transform="scale(.03125 .02917)" fill="#009b3a" stroke-width=".1" stroke="#000"/><path d="M296.6 225.4l5.1-9.4-6.8 8-.1 2.2 1.8-.8" transform="scale(.03125 .02917)" fill="#009b3a" stroke-width=".1" stroke="#000"/><path d="M304.3 222.5c-3 1.4-7.8 3.4-10.6 5 .8-3.4 1.6-9.5 2-13 0 3.1-.2 7.4 0 10.1 2.6-.3 6-1.5 8.6-2.1" transform="scale(.03125 .02917)" fill="#009b3a" stroke-width=".1" stroke="#000"/><path d="M295.5 226.7l3.8-10-5.7 9 .1 2.2 1.8-1.2" transform="scale(.03125 .02917)" fill="#009b3a" stroke-width=".1" stroke="#000"/><path d="M303 223.3c-3 1.6-7.8 3.4-10.6 5.3.7-3.7 1.4-9.5 1.9-13.1 0 3-.2 7.4.2 10 2.5-.4 6-1.6 8.5-2.2" transform="scale(.03125 .02917)" fill="#009b3a" stroke-width=".1" stroke="#000"/><path d="M294.8 228l5.7-8.9-7.4 7.2-.4 2.3 2-.7" transform="scale(.03125 .02917)" fill="#009b3a" stroke-width=".1" stroke="#000"/><path d="M302.8 222.9c-2.8 2.1-7 5.3-9.6 7.7 0-3.9-.4-9.5-.7-13 .6 2.8 1.3 7 2.3 9.5 2.4-.9 5.4-3 8-4.2" transform="scale(.03125 .02917)" fill="#009b3a" stroke-width=".1" stroke="#000"/><path d="M295 228.5l.6-10.7-2.9 10.4 1 2 1.3-1.7" transform="scale(.03125 .02917)" fill="#009b3a" stroke-width=".1" stroke="#000"/><path d="M302 223.8c-2.8 2.1-7 5.4-9.5 7.8 0-3.8-.5-9.5-.8-13.2.7 3.1 1.3 7.1 2.3 9.5 2.4-.8 5.5-2.9 8-4.1" transform="scale(.03125 .02917)" fill="#009b3a" stroke-width=".1" stroke="#000"/><path d="M294.3 230.4l2.7-10.6-4.8 9.6.4 2.2 1.6-1.2" transform="scale(.03125 .02917)" fill="#009b3a" stroke-width=".1" stroke="#000"/><path d="M301.6 224c-2.5 2.6-6.6 6.4-8.9 9-.4-3.7-1.4-9.6-2.2-13.2 1 3 2.1 7 3.4 9.5 2.4-1 5.4-3.6 7.7-5.2" transform="scale(.03125 .02917)" fill="#009b3a" stroke-width=".1" stroke="#000"/><path d="M294.3 231.6l.4-11.2-2.6 10.9.8 2 1.4-1.7" transform="scale(.03125 .02917)" fill="#009b3a" stroke-width=".1" stroke="#000"/><path d="M300.8 226c-2.7 2.2-7 5.6-9.6 8 0-3.8-.7-9.8-1-13.6.7 3.1 1.6 7.4 2.6 10 2.4-1 5.6-3.1 8-4.5" transform="scale(.03125 .02917)" fill="#009b3a" stroke-width=".1" stroke="#000"/><path d="M293.5 232.9l3.8-10.4-5.8 9.2.3 2.3 1.7-1.1" transform="scale(.03125 .02917)" fill="#009b3a" stroke-width=".1" stroke="#000"/><path d="M300.8 226c-2.6 2.5-6.3 6.4-8.6 9-.3-3.7-1.4-9.7-2-13.3 1 3 2 7.2 3.2 9.6 2.4-1.2 5.1-3.8 7.4-5.4" transform="scale(.03125 .02917)" fill="#009b3a" stroke-width=".1" stroke="#000"/><path d="M293.6 233.4l-.4-11-1.8 11 1 2 1.2-2" transform="scale(.03125 .02917)" fill="#009b3a" stroke-width=".1" stroke="#000"/><path d="M299.6 226.7c-2.4 2.7-6.1 6.6-8.2 9.4-.5-4-1.8-9.8-2.5-13.5 1 3 2.4 7.2 3.5 9.6 2.2-1.2 5-3.9 7.2-5.5" transform="scale(.03125 .02917)" fill="#009b3a" stroke-width=".1" stroke="#000"/><path d="M293 234.5l1.3-11.2-3.4 10.5.7 2.3 1.4-1.6" transform="scale(.03125 .02917)" fill="#009b3a" stroke-width=".1" stroke="#000"/><path d="M299 227.1c-2 3-5.5 7.1-7.4 10-.9-3.7-2.5-9.4-3.5-12.9 1.3 2.8 2.8 6.8 4.1 9.1 2.2-1.3 4.8-4.1 7-6" transform="scale(.03125 .02917)" fill="#009b3a" stroke-width=".1" stroke="#000"/><path d="M293 235.6l-.8-11.3-1.4 11.1 1 2 1-2" transform="scale(.03125 .02917)" fill="#009b3a" stroke-width=".1" stroke="#000"/><path d="M298.9 228c-2 2.9-5.3 7.2-7 10.3-1-3.8-3-9.6-4.1-13 1.3 2.8 3 6.8 4.6 9 2-1.5 4.5-4.5 6.5-6.4" transform="scale(.03125 .02917)" fill="#009b3a" stroke-width=".1" stroke="#000"/><path d="M293.6 236.7l1.1-11.4-3 10.5.6 2.5 1.3-1.6" transform="scale(.03125 .02917)" fill="#009b3a" stroke-width=".1" stroke="#000"/><path d="M298.4 229c-1.6 3.1-4.5 8-6 11.3-1.3-3.6-3.8-9-5.3-12.4 1.6 2.6 3.6 6.3 5.5 8.3 1.9-1.7 4-5 5.8-7.3" transform="scale(.03125 .02917)" fill="#009b3a" stroke-width=".1" stroke="#000"/><path d="M293.3 237.6l-3.2-10.9 1 11.4 1.5 1.6.6-2.1" transform="scale(.03125 .02917)" fill="#009b3a" stroke-width=".1" stroke="#000"/><path d="M298.4 230.2c-1.8 3.2-4.8 8-6.3 11.3-1.4-3.6-3.9-9-5.4-12.3 1.7 2.6 3.8 6.2 5.6 8.3 2-1.8 4.2-5.1 6-7.3" transform="scale(.03125 .02917)" fill="#009b3a" stroke-width=".1" stroke="#000"/><path d="M293.4 239.6l-1.1-11.3-1 11.3 1 2 1-2" transform="scale(.03125 .02917)" fill="#009b3a" stroke-width=".1" stroke="#000"/><path d="M298.6 231.2c-1.9 3-5 7.9-6.5 11L287 230c1.7 2.5 3.7 6.2 5.5 8.3 2-1.6 4.4-5 6.2-7.1" transform="scale(.03125 .02917)" fill="#009b3a" stroke-width=".1" stroke="#000"/><path d="M293.3 240.5l-2-11-.2 11.2 1.3 1.8.9-2" transform="scale(.03125 .02917)" fill="#009b3a" stroke-width=".1" stroke="#000"/><path d="M297.8 232.8c-2 3-5.3 7.5-7 10.7-1-3.6-3.3-9.4-4.6-12.7 1.6 2.6 3.4 6.5 5 8.7 2-1.6 4.6-4.7 6.6-6.7" transform="scale(.03125 .02917)" fill="#009b3a" stroke-width=".1" stroke="#000"/><path d="M292.3 241.7l1-11.3-3 10.7.6 2.2 1.4-1.6" transform="scale(.03125 .02917)" fill="#009b3a" stroke-width=".1" stroke="#000"/><path d="M297.9 233c-1.6 3.3-4.6 8.3-6 11.6a170 170 0 00-5.6-12c1.7 2.4 4 6 5.7 8 2-2 4-5.3 5.9-7.6" transform="scale(.03125 .02917)" fill="#009b3a" stroke-width=".1" stroke="#000"/><path d="M292 242.7l-3.5-10.6 1.3 11.2 1.4 1.7.7-2.3" transform="scale(.03125 .02917)" fill="#009b3a" stroke-width=".1" stroke="#000"/><path d="M297.4 233.8c-1.1 3.7-3.1 9.1-4 12.8-2-3.3-5.5-7.8-7.6-10.8 2 2.2 5 5.3 7 6.7 1.6-2.2 3.2-5.8 4.6-8.7" transform="scale(.03125 .02917)" fill="#009b3a" stroke-width=".1" stroke="#000"/><path d="M295 243.5l-3.8-10.5 1.7 11.3 1.5 1.5.6-2.3" transform="scale(.03125 .02917)" fill="#009b3a" stroke-width=".1" stroke="#000"/><path d="M297.4 235c-1.1 3.7-3.1 9.2-4 12.6-2-3-5.4-7.6-7.6-10.4 2 2 5 5 7 6.5 1.6-2.2 3.2-6 4.6-8.7" transform="scale(.03125 .02917)" fill="#009b3a" stroke-width=".1" stroke="#000"/><path d="M295 245.4l-4.8-9.8 2.8 10.8 1.8 1.2.3-2.2" transform="scale(.03125 .02917)" fill="#009b3a" stroke-width=".1" stroke="#000"/><path d="M297 235.8c-.8 3.8-2 9.6-2.5 13.3-2.3-3-6.3-7-8.8-9.4 2.4 1.6 5.6 4.5 7.8 5.5 1.3-2.5 2.4-6.5 3.5-9.4" transform="scale(.03125 .02917)" fill="#009b3a" stroke-width=".1" stroke="#000"/><path d="M295.4 246.8l-2.6-11 .4 11.4 1.4 1.6.8-1.8" transform="scale(.03125 .02917)" fill="#009b3a" stroke-width=".1" stroke="#000"/><path d="M297 237c-.4 4-1.3 9.8-1.3 13.4-2.4-2.4-6.8-5.8-9.4-8 2.4 1.3 5.7 3.6 8 4.4 1-2.6 2-6.8 2.7-9.7" transform="scale(.03125 .02917)" fill="#009b3a" stroke-width=".1" stroke="#000"/><path d="M295.5 247.6l-6.9-7.7 5.1 9.3 2 .7-.2-2.3" transform="scale(.03125 .02917)" fill="#009b3a" stroke-width=".1" stroke="#000"/><path d="M297.3 238.4a162 162 0 00-1.4 13.4c-2.6-2.6-6.9-6-9.5-8.2 2.5 1.4 5.9 3.8 8.1 4.4 1.1-2.5 1.8-6.7 2.8-9.6" transform="scale(.03125 .02917)" fill="#009b3a" stroke-width=".1" stroke="#000"/><path d="M296.3 249.4L291 240l3.3 10.7 1.7 1 .3-2.2" transform="scale(.03125 .02917)" fill="#009b3a" stroke-width=".1" stroke="#000"/><path d="M297.5 240c-.3 3.8-.8 9.6-.8 13.5-3-2.7-6.4-5.2-9.8-7.6 2.6 1.2 6 3.3 8.4 4 1-2.7 1.4-7 2.2-10" transform="scale(.03125 .02917)" fill="#009b3a" stroke-width=".1" stroke="#000"/><path d="M297 251.3l-6.6-8.4 4.9 9.8 1.7.8v-2.3" transform="scale(.03125 .02917)" fill="#009b3a" stroke-width=".1" stroke="#000"/><path d="M297.6 241.7c-.4 4-.9 9.8-.7 13.6-2.6-2.4-7.1-5.7-9.9-7.7 2.6 1.4 6 3.4 8.4 4 1-2.6 1.5-7 2.2-9.9" transform="scale(.03125 .02917)" fill="#009b3a" stroke-width=".1" stroke="#000"/><path d="M297.5 252.6l-4.5-10 2.5 11 1.6 1.3.4-2.3" transform="scale(.03125 .02917)" fill="#009b3a" stroke-width=".1" stroke="#000"/><path d="M297.8 243c0 3.8 0 9.7.4 13.5-3.3-2.2-6.7-4.3-10.3-6.2 2.6 1 6.1 2.4 8.6 2.8.8-3 .8-7 1.3-10.2" transform="scale(.03125 .02917)" fill="#009b3a" stroke-width=".1" stroke="#000"/><path d="M298.3 252.2l-8.3-5.6 7 7.7 2 .2-.8-2.3" transform="scale(.03125 .02917)" fill="#009b3a" stroke-width=".1" stroke="#000"/><path d="M298 243.3c.3 4 .8 9.8 1.3 13.4a140 140 0 00-10.8-5.7c2.8.8 6.3 2.3 8.8 2.5.4-3 .4-7 .7-10.2" transform="scale(.03125 .02917)" fill="#009b3a" stroke-width=".1" stroke="#000"/><path d="M299.3 254.3l-7-8 5.3 9.6 1.9.7-.3-2.3" transform="scale(.03125 .02917)" fill="#009b3a" stroke-width=".1" stroke="#000"/><path d="M298.6 244.8c.5 3.8 1 9.7 1.9 13.4-3-1.7-8-3.7-11-5 2.8.5 6.4 1.7 8.8 2 .4-3.1.2-7.3.3-10.4" transform="scale(.03125 .02917)" fill="#009b3a" stroke-width=".1" stroke="#000"/><path d="M300.6 255.7l-8.4-6 7 8.1 2 .1-.6-2.2" transform="scale(.03125 .02917)" fill="#009b3a" stroke-width=".1" stroke="#000"/><path d="M298.9 246.4c.7 3.8 1.7 9.7 2.7 13.3-3.1-1.5-8.2-3-11.4-4.2 3 .4 6.6 1.2 9 1.1.3-3-.2-7-.3-10.2" transform="scale(.03125 .02917)" fill="#009b3a" stroke-width=".1" stroke="#000"/><path d="M301.6 256.9l-7-8.2 5.1 9.6 2 .9v-2.3" transform="scale(.03125 .02917)" fill="#009b3a" stroke-width=".1" stroke="#000"/><path d="M299.3 247.4c1 3.7 2.6 9.5 4 13-3.3-1-8.4-2-11.6-2.6 2.8 0 6.6.3 9-.1 0-3-1-7.1-1.4-10.2" transform="scale(.03125 .02917)" fill="#009b3a" stroke-width=".1" stroke="#000"/><path d="M302 256.9l-9.8-2 9.2 4.5 1.9-.6-1.4-2" transform="scale(.03125 .02917)" fill="#009b3a" stroke-width=".1" stroke="#000"/><path d="M300 248.6c1 3.7 2.5 9.3 3.8 13-3.2-1.1-8.3-2-11.6-2.7 3 0 6.6.3 9 0 0-3-1-7.2-1.2-10.3" transform="scale(.03125 .02917)" fill="#009b3a" stroke-width=".1" stroke="#000"/><path d="M303.5 258l-9.3-4.6 8.3 6.7 2-.1-1-2" transform="scale(.03125 .02917)" fill="#009b3a" stroke-width=".1" stroke="#000"/><path d="M299.5 249.2c1.8 3.4 4.5 8.7 6.5 11.7h-11.8c2.7-.5 6.4-1 8.7-2-.6-3-2.4-6.7-3.4-9.7" transform="scale(.03125 .02917)" fill="#009b3a" stroke-width=".1" stroke="#000"/><path d="M305 258.9l-9.6-2.6 9 5 1.9-.5-1.4-2" transform="scale(.03125 .02917)" fill="#009b3a" stroke-width=".1" stroke="#000"/><path d="M300.4 250.7c1.9 3.4 4.6 8.6 6.7 11.7-3.4-.3-8.6 0-11.9.1 2.7-.7 6.6-1.2 8.7-2.1-.6-3-2.4-6.7-3.4-9.7" transform="scale(.03125 .02917)" fill="#009b3a" stroke-width=".1" stroke="#000"/><path d="M306.1 259.7l-8.9-5.2 7.8 7.3h2l-.9-2.1" transform="scale(.03125 .02917)" fill="#009b3a" stroke-width=".1" stroke="#000"/><path d="M301.3 251.5c2 3.1 5.2 8 7.4 10.9-3.8.4-7.7.9-11.4 1.7 2.4-1 6-2 8.3-3.3-1-2.9-3.1-6.5-4.4-9.3" transform="scale(.03125 .02917)" fill="#009b3a" stroke-width=".1" stroke="#000"/><path d="M306.8 260.5l-9.6-.3 9.6 2.8 1.6-1-1.6-1.5m5.6-46.6l6.9-1h-7l-1 .6 1 .4" transform="scale(.03125 .02917)" fill="#009b3a" stroke-width=".1" stroke="#000"/><path d="M316.3 215.4c-2-.6-5-1.7-7.2-2l7.4-3.5c-1.5 1-3.8 2.2-5 3.2 1.3.8 3.3 1.6 4.8 2.3" transform="scale(.03125 .02917)" fill="#009b3a" stroke-width=".1" stroke="#000"/><path d="M312 214.2l6.8-2-7 1-1 .7 1.3.3" transform="scale(.03125 .02917)" fill="#009b3a" stroke-width=".1" stroke="#000"/><path d="M316.5 215.9c-2.4-.3-6-.7-8.3-.7 1.8-1.6 4.2-4.1 5.7-5.7-1 1.4-2.6 3.4-3.3 4.8 1.6.7 4.1 1 5.9 1.6" transform="scale(.03125 .02917)" fill="#009b3a" stroke-width=".1" stroke="#000"/><path d="M309.6 214.6l7-.8-6.9-.2-1.2.6 1 .4" transform="scale(.03125 .02917)" fill="#009b3a" stroke-width=".1" stroke="#000"/><path d="M314.8 216.2l-7.6-1.4 7-3.9c-1.4 1.1-3.4 2.4-4.4 3.5 1.2.6 3.4 1.2 5 1.8" transform="scale(.03125 .02917)" fill="#009b3a" stroke-width=".1" stroke="#000"/><path d="M309 214.6l6.1-2.7-6.7 1.8-.8.9h1.4" transform="scale(.03125 .02917)" fill="#009b3a" stroke-width=".1" stroke="#000"/><path d="M314.5 217c-1.8-.8-4.5-2-6.3-2.6l4.6-4.8c-1 1.3-2 3-2.7 4.4 1.1 1 3 2 4.4 3" transform="scale(.03125 .02917)" fill="#009b3a" stroke-width=".1" stroke="#000"/><path d="M309.3 215l4.8-2-5.2.6-.6 1 1 .4m-4 44.6h-9.8l10 2.5 1.6-1-1.9-1.5" transform="scale(.03125 .02917)" fill="#009b3a" stroke-width=".1" stroke="#000"/><path d="M307.1 260.2l-10-2.3 9.6 4.7 2-.6-1.6-1.8" transform="scale(.03125 .02917)" fill="#009b3a" stroke-width=".1" stroke="#000"/><path d="M308.8 260.9l-10-.5 10 3 1.7-1-1.8-1.5" transform="scale(.03125 .02917)" fill="#009b3a" stroke-width=".1" stroke="#000"/><path d="M302.5 254c2.5 2.7 6.4 7.3 9.1 9.8a75 75 0 00-11.4 2.7c2.4-1.2 6-2.7 8-4-1.4-2.5-4-6-5.7-8.6" transform="scale(.03125 .02917)" fill="#009b3a" stroke-width=".1" stroke="#000"/><path d="M310.1 261.4l-10-3.3 9.4 5.6 2-.4-1.4-2" transform="scale(.03125 .02917)" fill="#009b3a" stroke-width=".1" stroke="#000"/><path d="M303.4 254.5c2.9 2.6 7 6.7 10 9-3.1.9-8 2.7-11 4 2.4-1.4 5.6-3.3 7.4-5-1.6-2.4-4.6-5.5-6.4-8" transform="scale(.03125 .02917)" fill="#009b3a" stroke-width=".1" stroke="#000"/><path d="M311 262l-9.5 1.8 10 .7 1.4-1.3-2-1.2" transform="scale(.03125 .02917)" fill="#009b3a" stroke-width=".1" stroke="#000"/><path d="M309 261.4l-9.8.8 10 1.6 1.7-1.2-2-1.2" transform="scale(.03125 .02917)" fill="#009b3a" stroke-width=".1" stroke="#000"/><path d="M310.8 262l-10.2-1.6 10 3.8 1.8-.6zm0 0" transform="scale(.03125 .02917)" fill="#009b3a" stroke-width=".1" stroke="#000"/><path d="M312.5 262.5l-10 .1 10.3 2.4 1.4-1.2zm0 0" transform="scale(.03125 .02917)" fill="#009b3a" stroke-width=".1" stroke="#000"/><path d="M305.8 256c2.7 2.6 7 6.8 9.8 9.2-3.4.6-8.4 2.4-11.4 3.5 2.6-1.4 6-3 7.8-4.6-1.6-2.5-4.4-5.8-6.3-8.2zm0 0" transform="scale(.03125 .02917)" fill="#009b3a" stroke-width=".1" stroke="#000"/><path d="M313.9 262.9l-10.1-2.5 9.7 5 1.9-.8zm0 0" transform="scale(.03125 .02917)" fill="#009b3a" stroke-width=".1" stroke="#000"/><path d="M306.6 256.5c3 2.4 7.6 6.1 10.6 8.1-3 1.2-7.7 3.7-10.4 5 2-1.7 5.2-3.8 7-5.5-2-2.4-5-5.4-7-7.6zm0 0" transform="scale(.03125 .02917)" fill="#009b3a" stroke-width=".1" stroke="#000"/><path d="M314.8 263.4l-9.3 2.6h10l1.3-1.5zm0 0" transform="scale(.03125 .02917)" fill="#009b3a" stroke-width=".1" stroke="#000"/><path d="M327.6 249.5l-7.6-5.3-7.6 5.3 2.9-8.4-6.7-5.3h8.6l2.8-8.3 2.8 8.3h8.6l-6.6 5.3zm0 0" transform="scale(.03125 .02917)" fill="#fedf00" stroke-width=".4" stroke="#000"/></svg>