<svg xmlns="http://www.w3.org/2000/svg" width="20" height="14"><path fill="#fff" d="M0 0h20v14H0z"/><path d="M-1 0h22.5v9.3H-1zm0 0" fill="#0c4076"/><path d="M-1 0h22.5v4.7H-1zm0 0" fill="#c6363c"/><path d="M6.9 4zm0 0zm-1.5.1H7 5.4zm0 0zm0 .5v-.5.5zm0 0zm1.6 0H5.4 7zm0 0zm1.6 0H7.1 8.7zm0 0zm.1-.5v.5-.5zm0 0zm-1.5 0h1.5H7.2zm0 0zm0 0zm0 0zM7 4h.2zm0 0zM7 4H7 7zm0 0zm0 0zm0 0" fill="#21231e"/><path d="M8.7 4.1l.2-.3c-.2.2-.3.1-.3 0-.2.2-.3.2-.5-.1-.2.3-.3.3-.5 0-.2.2-.4.2-.5 0H7c-.2.2-.3.2-.6 0 0 .3-.3.3-.4 0-.2.3-.3.3-.5 0 0 .3-.1.3-.3.1l.2.3h3.3zm0 0" fill="#edb92e"/><path d="M9 3.8h-.1V4l-.1.1v.1-.2H9zm-.4 0V4H9 8.5v-.1zm0 0zm0 0zm0 0zM8 3.7l.1.1h.1V4h.2v-.1.1H8.1v-.2zm0 0zm-.5 0h.1v.1H8v-.1h.1v.1h-.4v-.1zm0 0zm-.5 0l.1.1H7.6v-.1h.1l-.1.1H7.1L7 3.6zm0 0zm0 0zm0 0zm0 0zm0 0zm0 0zm0 0zm0 0zm0 0zm0 0zm0 0zm0 0zm0 0zm0 0H7zm-.1 0zm0 0zm0 0zm-.6 0h.1l.1.1H7v-.1H7l-.1.1h-.4v-.1zm0 0zm-.4 0v.1h.4v-.1.1H6L6 3.6zm0 0zm-.5 0v.1h.1V4h.2v-.1H6v-.1.1h-.1V4h-.2v-.1zm0 0zm0 0zm0 0zm-.3.1l.1.1h.1v-.1.1h-.2zm.1.3V4l-.1-.1V4h.1v.1zm0 0zm1.7 0H5.3 7zm0 0zm1.7 0H7 8.7zm0 0zm0 0zm0 0zm0 0" fill="#21231e"/><path d="M6.7 4.3l.3-.2.4.2-.4.2zm0 0" fill="#edb92e"/><path d="M6.9 4l-1.6.1.2.5h3.1l.1-.5a109.5 109.5 0 00-1.8 0zm0 0" fill="#edb92e"/><path d="M9 3.7h-.1c-.1.3-.2.3-.3 0h.1l-.2-.1c-.1.3-.2.3-.2 0H8c-.2.3-.3.3-.4 0v-.1h-.2c0 .4-.4.4-.4 0h-.2c.1.4-.3.4-.4 0h-.2c0 .4-.2.4-.3 0h-.2c0 .4 0 .4-.3.2v-.1h-.1v.1c0 .3-.1.2-.2 0v.2c.2.2.3.1.3-.1.2.3.4.2.4 0 .2.3.5.1.6 0 0 .2.5.2.5-.1 0 .3.5.3.6 0 0 .2.4.4.5 0 0 .3.3.4.5.1 0 .2.1.3.3 0a.3.3 0 000-.1zm0 0" fill="#edb92e"/><path d="M8.9 3.7zm0 0zm-.3 0v.1h.2v-.1H9v.1h-.1V4h-.1v-.2zm0 0zm.1 0zm0 0zm0 0zm0 0zm0 0zm0 0zm-.2 0v-.1h.1zm0 0v-.1zm0 0zm0 0zm-.2-.1v.2h.2v-.1.1h-.2v-.2zm0 0zm-.2 0h.1zm0 0zm-.4 0v.1l.1.1H8l.1-.1v-.1h.1v.1H8v.1h-.2l-.1-.2zm0 0zm0 0zm0 0v-.1zm0 0v-.1zm0 0zm-.2-.1h.1zm0 0zm.1 0zm0 0zm-.5 0v.2h.4v-.1.2H7.1V3.4zm0 0zm0 0zm0 0zm-.2 0H7zm0 0zm-.4 0v.2h.1l.1.1h.1l.1-.1v-.2.2l-.1.1h-.2v-.1h-.1v-.1zm0 0zm0 0zm0 0zm0 0zm0 0zm-.2 0h.1zm0 0zm.1 0zm0 0zm-.4 0v.2h.1v.1h.2v-.2h.1v.1l-.1.1H6v-.1H6v-.1zm0 0zm-.2 0H6h-.1zm0 0zm-.3.2h.1v.1h.1v-.2h.1v.2h-.2l-.1-.1zm0 0zm0 0zm0-.1zm0 0zm0 0zm-.1 0zm0 0zm0 0zm0 .1zm0 0zm-.2 0v.1h.2v-.1.2h-.1v-.1h-.1v-.1zm0 0zm0 0H5zm-.1 0zm0 .2v-.2.1zm.4-.1V4h-.2l-.1-.1h.1V4h.1v-.2h.1zm0 0zm.4 0V4h-.4v-.1l.1.1H6v-.1zm0 0zm.5 0V4H6v-.1.1h.4v-.1zm.6-.1v.1l-.1.1h-.4v-.1h.1V4H7v-.1H7v-.1zm.6 0v.1l-.1.1H7v-.2.2h.4v-.1h.1zm.5 0V4h-.4v-.1.1h.4v-.1zm0 0zm.5.1h-.1V4H8.1v-.1.1H8.6v-.1zm0 0zm.3 0V4h-.1V4h-.2v-.2.2h.2v-.1zm0-.1v.1-.1zm0 0zm0 0zm0 0zm0 0" fill="#21231e"/><path d="M7 4.1H5.3h3.4c.1 0 .1 0 0 0a16.8 16.8 0 00-.4 0H7.4zm0 0" fill="#edb92e"/><path d="M7 1.6c.2 0 .3.2.3.3 0 .2-.1.3-.3.3a.3.3 0 01-.2-.3c0-.1 0-.3.2-.3zm0 0" fill="#0c4076"/><path d="M7 1.3h.1v-.1H7v.2h-.1-.1v.1H7V2h.2v-.4h.2v-.1H7zm0 0" fill="#edb92e"/><path d="M7.1 1.3zm0 0zm0 0zm0-.1zm-.1 0zm0 0zm0 0zm0 .1zm0 0zm0 .1zm0 0zm-.1 0zm0 0zm0 0zm-.1 0zm0 0zm0 0zm0 .1zm0 0zm0 0zm0 0H7zm0 0zm.2 0h-.1zm0 0zM7 2v-.4.4zm0 0zm0 0h.1zm.1 0zm0-.4V2v-.4zm0 0zm0 0zm0 0zm.1 0zm0 0zm0 0zm.1 0zm0 0zm0 0zm0-.1zm-.1 0zm0 0zm-.1 0zm0 0zm0 0zm0 0zm0 0zm0 0zm0 0M7.3 2v-.2l-.1-.1H7h.2V2zm-.3.2h.2V2h.1V2v.1h-.1l-.1.1zm-.3-.3V2h.1v.1H7h-.2V2zm.3-.3h-.1v.1h-.1V2v-.2H7zm0 0" fill="#21231e"/><path d="M7.3 1.9H7h-.3.6zm0 0" fill="#edb92e"/><path d="M7.3 2v-.1zm0 0zm0 0zM7 2H7.3h-.2zm-.3 0H7h-.2zm0 0zm0 0zm0-.2V2zm0 0zm.3 0h-.2.2zm.3 0H7h.2zm0 0zm0 0" fill="#21231e"/><path d="M6.8 2V2.9c0 .1-.1.2 0 .2V3h.4l.2-.1V2h-.1a.5.5 0 01-.5 0zm0 0" fill="#edb92e"/><path d="M6.8 2.2V2zm0 .6v-.6V2.9zm0 .2h-.1v-.1zm0 .1V3h-.1.1v.1zm0 0zm.2 0h-.1zm0 0zm.2 0H7h.1zm0 0zm.2-.1h-.1v.1V3zm0-.2V3v-.2zm0-.6V2.9v-.5zM7.2 2zm-.5 0h.4H6.8zm0 0" fill="#21231e"/><path d="M5 3.3v-.2c-.2-.3-.2-.3 0-.4l.6-.3h.1c-.4 0-.8.1-1 .3-.2 0 0 .3.1.6h.3zm0 0" fill="#edb92e"/><path d="M5 3.1v.2-.1zm0 0zm0-.4h-.1V3H5v.1V3l-.1-.1v-.2zm.6-.3h-.1l-.1.1h-.2v.1H5 5.4l.1-.1h.2zm0 0zm.1 0v-.1.1-.1zm0-.1zm-1 .4v-.1h.1l.1-.1h.2v-.1h.5v-.1h.1-.4v.1H5v.1h-.1l-.1.1h-.1zm.2.6L4.7 3h-.1v-.2h-.1v-.2V3h.1v.1h.1v.1zm0 0zm.1 0h-.1.1zm0 0zm0 0zm0 0zm0 0" fill="#21231e"/><path d="M5 3.3A.2.2 0 015 3L4.8 3v-.1l.1-.2a1 1 0 01.2-.1l.5-.1-.6.3c-.2 0-.2.1 0 .4a.3.3 0 000 .2zm0 0" fill="#edb92e"/><path d="M5 3.3zm0 0zM5 3v.2-.1zm0 0zM4.8 3V3H5v.1V3zm0-.1V3v-.1zm.1-.2v.1h-.1.1zm.2-.1H5v.1h.1v-.1zm0 0zm.5-.1h-.4v.1h.2v-.1h.1zm0 0zm0 0zm0 0zm-.6.3v-.1h.2l.2-.1h.1H5.1v.1H5zM5 3V3l-.1-.1v-.2V3H5zm0 0zm0 .2v-.1.1zm0 0zm0 0zm0 0zm0 0zm0 0" fill="#21231e"/><path d="M6.8 2v.2c-.6 0-1 0-1 .2L6 3v.2a.4.4 0 01-.4 0V3h-.1l-.2-.5C5.2 2 6.6 2 6.8 2zm0 0" fill="#edb92e"/><path d="M6.8 2zm0 0v.1zm0 0zm0 0zm0 .2V2zm0 0zm0 0zm0 0zm-1 .2v-.1h.4l.1-.1h.4H6v.1h-.2v.1zM6 3v-.1h-.1v-.1l-.1-.1v-.2V2.9H6V3H6zm0 0zm0 .2V3zm0 0zm-.4 0H6h-.2zm0 0zm0-.1zm-.1 0zm-.2-.5v.1h.1V3h.1v-.1h-.1V2.5zM6.8 2H5.7l-.1.1h-.1l-.1.1h-.1v.2-.2h.2v-.1h.5V2H6.8zm0 0zm0 0zm0 0zm0 0" fill="#21231e"/><path d="M5.8 3v.2a.1.1 0 01-.2-.1l.1-.1zm0 0" fill="#fff"/><path d="M5.9 3a.1.1 0 00-.1 0zm-.2.2a.1.1 0 00.1-.1zm0-.1zm0-.1zm0 0" fill="#21231e"/><path d="M4.8 3.2H5v.2l-.2-.1.1-.1zm0 0" fill="#fff"/><path d="M5 3.3l-.1-.1zm-.2 0H5zm0 0zm0-.1zm0 0" fill="#21231e"/><path d="M4.8 3v.1a.1.1 0 01-.1 0zm0 0" fill="#fff"/><path d="M4.9 3.1h-.1V3v.1zm-.2.1h.1V3a.2.2 0 010 .1zm0-.1v0zm0-.1v.1a.1.1 0 010-.1zm0 0" fill="#21231e"/><path d="M4.7 2.8V3h-.1v-.2zm0 0" fill="#fff"/><path d="M4.8 3l-.1-.1zm-.1 0zm-.1 0zm0-.2V3zm0 0" fill="#21231e"/><path d="M6.4 3.2c0 .1 0 .1 0 0zm0 0" fill="#edb92e"/><path d="M6.4 3.3v-.1zm0 0zm0-.2v.1zm0 0" fill="#21231e"/><path d="M6.4 3.2v0zm0 0" fill="#fff"/><path d="M6.5 3.5V3.1v.2zm-.1 0zm0-.3v.2-.2zm0 0zm0 0" fill="#21231e"/><path d="M5.3 3.3s.1 0 0 0v0zm0 0" fill="#edb92e"/><path d="M5.4 3.4v-.1.1zm0 0zm0-.1v.1h-.1v-.1zm0 0" fill="#21231e"/><path d="M5.3 3.3c.2 0 .2.2.2.3h-.1s-.2-.2 0-.3zm0 0" fill="#fff"/><path d="M5.5 3.6v-.2h-.1.1v.2zm-.1 0zm0-.3h-.1V3.7v-.2zm0 0zm0 0" fill="#21231e"/><path d="M6.7 2.1a2 2 0 00-.8.2c-.3 0-.3.3 0 .7a.3.3 0 000 .2L6 3c-.2-.3-.3-.5-.2-.6 0-.1.4-.2 1-.2zm0 0" fill="#edb92e"/><path d="M5.9 2.3H6v-.1h.7H5.8zm0 .7v-.1l-.1-.1v-.1l-.1-.1V2.2h.1V3H6V3zm0 0zm0 .2V3v.1zm0 0zm0 0zm0 0zM6 3v.1zm0 0zm-.2-.6v.4H6V3H6h-.1v-.1l-.1-.1v-.2zm1-.2H6v.1h-.2v.1l.1-.1H6.3v-.1h.5zm0 0zm0 0zm0 0zm0 0zm0 0zm0 0zm0 0zm0 0" fill="#21231e"/><path d="M5.3 2.2l.1.1a.1.1 0 010 .1h-.2v-.1a.1.1 0 01.1 0zm0 0" fill="#fff"/><path d="M5.5 2.3h-.1zm-.2.1a.1.1 0 00.1 0zm0 0zm0-.2v.1zm0 0" fill="#21231e"/><path d="M5.5 2.2h.1v.2l-.2-.1a.1.1 0 01.1-.1zm0 0" fill="#fff"/><path d="M5.7 2.3l-.1-.1zm-.2 0h.1zm0 0zm0-.1zm0 0" fill="#21231e"/><path d="M5.6 2.2l-.2.3.2.5a.8.8 0 01.1.2.3.3 0 00-.2-.1l-.2-.5c0-.2 0-.3.3-.3zm0 0" fill="#edb92e"/><path d="M5.6 2.3zm0 0zm-.2.2v-.1h.1v-.1h.1-.1v.1h-.1v.1zm0 0zm.2.5h-.1V2.6h-.1v-.1.2h.1V3zm0 0zm.1.2V3h-.1.1zm0 0zm0 0zm0 0zm0 0zm0 0zm-.2 0V3h.1v.1zm0-.1zm0 0zm-.2-.5v.1h.1V3h.1v-.1h-.1V2.5zm.3-.4h-.1v.1h-.1v.2-.2h.2zm0 0zm0 0" fill="#21231e"/><path d="M5 3.4a.3.3 0 01-.2 0h.1zm0 0" fill="#edb92e"/><path d="M5 3.4zm0 0zm-.2 0H5h-.1zm0 0zm.1 0h-.1.1zm0 0zm0 0zm0 0zm0 0" fill="#21231e"/><path d="M5 3.3a.1.1 0 000 .2c.1 0 0 0 0 0 0 .1 0 0 0 0-.1-.1-.2-.2 0-.2zm0 0" fill="#edb92e"/><path d="M5 3.3zm0 0zm0 0zm0 0zm0 .2v-.1zm0 0h.1zm0 0zm0 0zm0 0zm0 0zm0 0zm-.1 0H5zm0-.2v.1-.1zm0 0zm0 0zm0 0zm0 0" fill="#21231e"/><path d="M5 3.3s0 .1 0 0l-.2.1c0-.1 0-.1.1 0zm0 0" fill="#edb92e"/><path d="M5 3.3zm0 0zm0 0v.1-.1.1zm-.2.1H5zm0 0zm.2 0h-.2v-.1H5zm0 0zm0 0" fill="#21231e"/><path d="M6.6 2h.2a.1.1 0 01-.2.1v-.2zm0 0" fill="#fff"/><path d="M6.8 2h-.1zm-.2.1a.1.1 0 00.1 0zm0 0zm0-.2V2zm0 0" fill="#21231e"/><path d="M6.4 2h.1a.1.1 0 010 .1.1.1 0 01-.2 0l.1-.2zm0 0" fill="#fff"/><path d="M6.5 2zm0 .1zm-.2 0h.1zm.1-.2a.1.1 0 000 .1zm0 0" fill="#21231e"/><path d="M6.2 2h.1a.1.1 0 010 .1.1.1 0 01-.2 0l.1-.1zm0 0" fill="#fff"/><path d="M6.3 2zm0 .2a.1.1 0 000-.1zM6 2a.1.1 0 00.1 0zm.1-.2a.1.1 0 000 .1zm0 0" fill="#21231e"/><path d="M6 2h.1v.2L5.8 2 6 2zm0 0" fill="#fff"/><path d="M6.1 2zm0 .2V2zM5.8 2a.2.2 0 00.1 0zM6 2zm0 0" fill="#21231e"/><path d="M4.8 2.5a.1.1 0 010 .2.1.1 0 01-.1-.1.1.1 0 010-.1zm0 0" fill="#fff"/><path d="M4.9 2.6v-.1h-.1zm-.1 0zm-.1 0zm0-.1zm0 0" fill="#21231e"/><path d="M5 2.4v.2l-.2-.1a.1.1 0 01.1-.1zm0 0" fill="#fff"/><path d="M5 2.5v-.1zm0 0zm-.2 0H5zm.1-.1zm0 0" fill="#21231e"/><path d="M5.1 2.3a.1.1 0 01.1 0 .1.1 0 010 .2.1.1 0 01-.2-.1.1.1 0 01.1-.1zm0 0" fill="#fff"/><path d="M5.3 2.4h-.1a.1.1 0 000-.1zm-.2.1a.1.1 0 00.1 0v-.1.1zm0-.1v0zm0-.1zm0 0" fill="#21231e"/><path d="M4.6 2.6h.1v.2a.1.1 0 01-.2 0 .1.1 0 01.1-.2zm0 0" fill="#fff"/><path d="M4.7 2.7zm0 .1zm-.2 0a.2.2 0 00.1 0zm.1-.2a.1.1 0 000 .1zm0 0" fill="#21231e"/><path d="M6.6 4.3l-.4.2-.4-.1.4-.2zm0 0" fill="#edb92e"/><path d="M6.2 4.2l-.4.2.4-.3zm0 0zm.4.1l-.4-.1.4.1zm0 0zm-.4.2l.4-.2-.4.2zm0 0zm-.4-.2l.4.2-.4-.1zm0 0zm0 0" fill="#21231e"/><path d="M6.2 4.2l.2.1-.2.1H6c0-.1 0-.2.2-.2zm0 0" fill="#c6363c"/><path d="M6.4 4.3h-.2.1zm-.2.2l.1-.1h-.1zM6 4.3v.1h.1zm.2 0H6zm0 0" fill="#21231e"/><path d="M5.4 4.2l.4.2-.4.2s-.1-.3 0-.4zm0 0" fill="#edb92e"/><path d="M5.8 4.4l-.4-.2.4.1zm0 0zm-.4.2l.4-.3-.4.3zm0 0zm0-.4V4.6v-.2zm0 0zm0 0zm0 0zm0 0" fill="#21231e"/><path d="M5.4 4.3h.2l-.2.2-.1-.1v-.1zm0 0" fill="#0c4076"/><path d="M5.6 4.4h-.1v-.1h-.1.1zm-.2.1h.1v-.1h-.1zm-.1-.1h.1v.1h-.1v-.1zm0-.1zm0 0" fill="#21231e"/><path d="M6.6 4.4zm0 0" fill="#fff"/><path d="M6.7 4.4zm0 0zm-.1 0zm0 0zm0 0" fill="#21231e"/><path d="M5.8 4.4v.1zm0 0" fill="#fff"/><path d="M5.9 4.5zm0 0zm-.2 0h.1zm.1 0zm0 0" fill="#21231e"/><path d="M5.8 4.2zm0 0" fill="#fff"/><path d="M5.8 4.2zm0 0zm0 0v.1zm0 0zm0 0" fill="#21231e"/><path d="M6.6 4.2zm0 0" fill="#fff"/><path d="M6.7 4.2zm0 0zm-.1 0zm0 0zm0 0" fill="#21231e"/><path d="M5.2 3.7h.1v-.2H5c0-.1 0-.1 0 0v.2zm0 0" fill="#edb92e"/><path d="M5.3 3.8h-.1v-.1h.1zm0 0zm-.1-.3v.1h.1v.1-.1h-.1zm0 0zm0 0zm0 0H5v-.1zm0 0H5zm-.1 0zm0 0zm0 .2v-.1.1zm0 0zm0 0zm0 0" fill="#21231e"/><path d="M5.1 3.4v.1a.2.2 0 00.1 0v.1l.1.2a.1.1 0 010-.1v-.1-.1h-.1zm0 0" fill="#edb92e"/><path d="M5.1 3.5zm0 0zm.1 0zm0 0v.1zm0 .2v-.1zm0 0zm.1 0zm0 0zm0 0zm0 0zm0 0zm0 0zm0 0zm0-.1zm0-.1zm-.1 0zm0 0zm0 0v-.1zm0 0zm0 0v-.1zm0 0" fill="#21231e"/><path d="M5 3.5a.1.1 0 01.1 0s.1.2 0 .2a.3.3 0 000-.1H5zm0 0" fill="#edb92e"/><path d="M5 3.5zm.1 0zm0 .3v-.2h.1v.1zm0 0zm0-.1zm0 0zM5 3.6v.1-.1zm0 0zm0 0zm0 0zm0 0zm0 0zm0 0" fill="#21231e"/><path d="M5 3.6c.1 0 .2 0 .1.1 0 0-.1-.1 0-.1zm0 0" fill="#edb92e"/><path d="M5.1 3.7v-.1.1zm0 0zm0-.2v.1H5zm0 0" fill="#21231e"/><path d="M5 3.6h.1zm0 0" fill="#0c4076"/><path d="M5.1 3.7v-.1.1zm0 0zm0-.1zm0 0zm0 0" fill="#21231e"/><path d="M5.7 2.8V3a.1.1 0 010 .1h-.1v-.2zm0 0" fill="#fff"/><path d="M5.8 2.9h-.1v-.1a.1.1 0 010 .1zm-.1.1a.1.1 0 000-.1V3zM5.6 3v0zm0-.1a.2.2 0 000 .1.1.1 0 010-.1zm0 0" fill="#21231e"/><path d="M5.6 2.6l.1.1a.1.1 0 01-.1.1.1.1 0 01-.1 0v-.2zm0 0" fill="#fff"/><path d="M5.7 2.7h-.1.1zm-.1.1h.1a.2.2 0 01-.1 0zm-.1 0zm0-.2v.1zm0 0" fill="#21231e"/><path d="M5.8 2l.1.1a.1.1 0 010 .1.1.1 0 01-.2 0V2h.1zm0 0" fill="#fff"/><path d="M6 2.1h-.1zm-.2.2l.1-.1zm0-.2v.1zm0 0zm0 0" fill="#21231e"/><path d="M5.7 2.1v.1a.1.1 0 010 .1.1.1 0 01-.1 0V2zm0 0" fill="#fff"/><path d="M5.8 2.2h-.1zm-.1.1zm-.1 0zm0-.2v.1zm0 0" fill="#21231e"/><path d="M5.5 2.3h.2l-.2.2v-.1-.1zm0 0" fill="#fff"/><path d="M5.7 2.4a.1.1 0 00-.1-.1zm-.2 0h.1zm0 0zm0-.1zm0 0" fill="#21231e"/><path d="M5.5 2.4l.1.1v.1h-.2l.1-.2zm0 0" fill="#fff"/><path d="M5.6 2.5zm0 .2v-.1zm-.2-.2v.1h.1zm.1 0zm0 0" fill="#21231e"/><path d="M7 3a.3.3 0 00-.2 0V2v.5l-.1.4h.1c.1.1.1.1.1 0zm0 0" fill="#edb92e"/><path d="M6.8 3H7h-.1zm0 0zm0-.9V3 2.1zm0 0zm0 0zm0 0zm0 0zm0 .5v-.4.2zm-.1.4V2.6 3zm0 0zm0 0zm.1 0v.1zm0 .1zm0 0zM7 3zm0 0zm0 0zm0 0" fill="#21231e"/><path d="M6.6 3.3c0-.1.1-.1.2 0H7v.2l-.1.1h-.1v-.1a.1.1 0 01-.1 0v-.1zm0 0" fill="#edb92e"/><path d="M6.7 3.3zm0 0zm0 0v-.1zm.2 0h-.1zm0 0zm0 0zm0 .1zm0 0zm0 0zm0 0zm0 .1zm0 0zm0 0zm-.1.1zm-.1 0zm0 0zm0 0v-.1zm0-.1zm-.1 0zm0 0zm0-.1zm0 0zm0 0zm0 0M7 3.4a.3.3 0 00-.2.1h.1zm0 0a.3.3 0 01-.2 0h.1zm0 0" fill="#21231e"/><path d="M6.7 3.2V3.6h-.1v-.1-.1zm0 0" fill="#edb92e"/><path d="M6.8 3.3h-.1zm0 0zm0 .1h-.1zm0 0h-.1zm0 .2v-.1zm-.1 0zm0 0zm0 0zm0 0zm0 0v-.1zm0 0v-.1zm-.1-.1zm0 0zm0 0zm0-.1zm0 0zm0 0zm0-.1h.1zm0 0h.1zm0 0h.1zm0 0zM5 3.4zm0 0" fill="#21231e"/><path d="M5.8 3.1H6c.1 0 .1 0 0 .2v.1h-.1-.2v-.2l.1-.1h.1zm0 0" fill="#edb92e"/><path d="M5.9 3.2zm0 0zm0 0zm.1 0zm0 .2v-.1zm0 0h-.1zm0 0zm-.2 0H6zm0 0zm0 0zm0 0zm0 0zm0 0zm0 0zm-.2 0h.1zm0-.2v.1-.1zm0 0zm0 0zm0 0h.1zm.1-.1zm0 0zm0 0zm0 0zm.1 0zm0 0zm0 0zm0 0zm0 0zm0 0M5.8 3.4a.4.4 0 000-.1.3.3 0 010 .1zm0 0a.3.3 0 010-.2.3.3 0 000 .2zm0 0" fill="#21231e"/><path d="M6 3.2h-.2-.1-.1.1V3H6zm0 0" fill="#edb92e"/><path d="M6 3.2zm-.2 0H6zm0 0zm0 0zm-.2 0h.1zm0 0zm0 0zm0 0zm0 0h.1zm0 0zm0 0h.1zm.1-.1zm0 0zm0 0zm0 0zm.1 0zm0 0zm0 0zm0 0zm0 0zm.1 0zm0 0zm0 0zm0 0" fill="#21231e"/><path d="M5.5 3.5v-.1h.2v.1h.1v.1l-.1.1v-.1h-.1v-.1zm0 0" fill="#edb92e"/><path d="M5.5 3.4zm0 0zm0 0zm.1 0zm0 0zm0 0zm.1 0zm0 0zm0 .1zm0 0zm0 0zm0 0zm.1 0zm0 0zm0 .1zm0 0zm-.1.1zm0 0zm0 0v-.1zm-.1-.1zm0 0zm0 0zm0-.1zm0 0zm0 0zm0 0zm0 0zm0 0zm0 0M5.8 3.5a.2.2 0 00-.1.1zm0 0a.2.2 0 01-.1 0 .2.2 0 01-.1 0 .2.2 0 00.2 0zm0 0" fill="#21231e"/><path d="M5.5 3.3v.1a.1.1 0 00.1.1c0 .1.1.2 0 .2v-.1s-.1-.1 0-.1v-.1zm0 0" fill="#edb92e"/><path d="M5.6 3.4zm0 0zm0 0zm0 0zm0 .1zm0 0zm0 .2v-.1h.1zm0 0zm0 0zm0 0zm0 0zm0 0zm0-.1zm0 0zm0-.1h-.1zm0-.1zm0 0zm0 0zm0 0zm0 0zm0 0" fill="#21231e"/><path d="M6.2 3.5v.1H6v-.1-.1-.1h.2v.1a.1.1 0 010 .1zm0 0" fill="#edb92e"/><path d="M6.2 3.6zm0 0zm0 0zm0 0zm-.2 0h.1zm0 0zm0 0zm0 0zm0-.1zm0 0zm0 0zm0 0zm0 0zm0 0zm0-.1zm0-.1zm.2 0H6zm0 0zm0 0zm0 0zm0 .1zm0 0zm0 0zm0 .1zm0 0zm0 0zm0 0M6 3.5a.2.2 0 000-.1zm0 0a.3.3 0 01.1 0 .3.3 0 00-.1 0zm0 0" fill="#21231e"/><path d="M6.2 3.6v-.1L6 3.2h.1v.1a.1.1 0 010 .1v.1zm0 0" fill="#edb92e"/><path d="M6.1 3.6h.1zm0 0zm0-.1zm0 0v-.1zm0 0zm0-.2v.1-.1zm0 0zm0 0zm0 0zm0 0zm.1 0zm0 .1zm0 0zm0 0zm0 .1zm0 0zm0 0zm0 0zm0 0zm0 .1zm0 0zm0 0zm0 0zm0 0zm0 0zm0 0" fill="#21231e"/><path d="M5.8 3.4l.2.1-.1.1a.1.1 0 01-.2-.1l.1-.1zm0 0" fill="#edb92e"/><path d="M6 3.5v-.1h-.1v.1zm-.1.1v-.1.1zm-.2-.1h.1v.1zm.1-.1v.1-.1zm0 0" fill="#21231e"/><path d="M5.9 3.4v.1a.1.1 0 01-.1 0zm0 0" fill="#edb92e"/><path d="M6 3.5h-.1v-.1zm-.1 0zm0 0zm-.1 0zm0 0zm0-.1v.1zm0 0" fill="#21231e"/><path d="M5.9 3.4v.1zm0 0" fill="#0c4076"/><path d="M6 3.5h-.1zm-.1 0zm-.1 0zm0 0zm0 0zm0 0zm0 0zm0 0" fill="#21231e"/><path d="M7 2.9h.1v.2a.1.1 0 01-.2-.1l.1-.1zm0 0" fill="#fff"/><path d="M7.2 3a.1.1 0 00-.1-.1zM7 3a.1.1 0 00.1 0zm0 0zm0-.2V3zm0 0" fill="#21231e"/><path d="M7 2.7h.1V3a.1.1 0 01-.2-.1l.1-.1zm0 0" fill="#fff"/><path d="M7.2 2.8a.1.1 0 00-.1-.1zm-.2 0a.1.1 0 00.1 0zm0 0zm0-.1zm0 0" fill="#21231e"/><path d="M7 2.5l.1.1v.1a.1.1 0 01-.2-.1l.1-.1zm0 0" fill="#fff"/><path d="M7.2 2.6a.1.1 0 00-.1 0 .1.1 0 000-.1v.1zm-.2.1h.1a.1.1 0 000-.1.1.1 0 010 .1zm0-.1v.1a.1.1 0 010-.1zm0-.1v0zm0 0" fill="#21231e"/><path d="M7 2a.1.1 0 01.1 0v.2a.1.1 0 01-.2-.1L7 2zm0 0" fill="#fff"/><path d="M7.2 2A.1.1 0 007 2zm-.2.2a.1.1 0 00.1 0V2v.1zm0-.1v.1A.1.1 0 017 2zM7 2zm0 0" fill="#21231e"/><path d="M7 2.1l.1.1a.1.1 0 010 .2.1.1 0 01-.2-.2H7zm0 0" fill="#fff"/><path d="M7.2 2.2a.1.1 0 00-.1 0zm-.2.2l.1-.1zm0-.2v.1zm0 0zm0 0" fill="#21231e"/><path d="M7 2.3l.1.1a.1.1 0 010 .1.1.1 0 01-.2 0l.1-.2zm0 0" fill="#fff"/><path d="M7.2 2.4a.1.1 0 00-.1 0zm-.2.1h.1zm0 0zm0-.2a.1.1 0 000 .1zm0 0" fill="#21231e"/><path d="M7.1 3c0 .1 0 .1.1 0V3.4H7l-.2-.1V3H7C7 3 7 3 7 3S7 3 7 3h.1zm0 0" fill="#edb92e"/><path d="M7.1 3zm0 0zm.1 0v.1zm0 .2V3zm0 0zm0 .1zm0 0zm-.2 0h.1zm0 0zm0 0zm0 0zm0 0zm0 0zm0 0zm-.2-.1H7zm0-.1v.1V3zM7 3zm0 0zm0 0zm0 0H7zM7 3zm0 0zm0 0zm.1 0zm0 0zm0 0zm0 0zm0 0M7 3.3a.3.3 0 000-.1v.1zm0 0" fill="#21231e"/><path d="M7.2 3v.1h-.1H7h-.1C7 3 7 3 7 3S7 3 7 3a.1.1 0 01.1 0 .1.1 0 00.1 0zm0 0" fill="#edb92e"/><path d="M7.2 3.2V3zm-.1 0h.1H7zm0 0zm0 0V3zm-.1 0V3zm-.1 0zm0-.1zm0 0zm0 0zm0 0zm0 0zm0 0zm0 0H7zM7 3zm0 0zm0 0zm.1 0zm0 0zm0 0zm.1 0v.1zm0 .1zm0 0zm0 0zm0 0zm0 0" fill="#21231e"/><path d="M7 3.3l.2.1-.2.1v-.2zm0 0" fill="#edb92e"/><path d="M7 3.3a.3.3 0 01.1-.1.2.2 0 000 .1zm0 0" fill="#21231e"/><path d="M9 3.3v-.2c.2-.3.3-.3.1-.4l-.6-.3h-.2c.5 0 .9.1 1.1.3l-.2.6H9zm0 0" fill="#edb92e"/><path d="M9 3.1v.2-.1zm0 0zm.1-.4h.1V3L9 3v.1-.2h.1v-.2zm-.6-.3h.1v.1H9v.1h.2H8.7v-.1H8.4zm0 0zm-.2 0v-.1l.1.1v-.1zm0-.1zm1.1.4v-.1h-.2v-.1H9l-.1-.1h-.4v-.1h-.1.4v.1H9l.1.1h.1l.1.1h.1zm-.2.6v-.1h.1V3l.1-.1V2.6v.4h-.1v.1zm0 0zm-.2 0h.2H9zm0 0zm0 0zm0 0zm0 0" fill="#21231e"/><path d="M9 3.3h.1a.2.2 0 000-.2l.1-.2v-.1-.2a.8.8 0 00-.3-.1 1.3 1.3 0 00-.4-.1l.6.3c.2 0 .2.1 0 .4a.3.3 0 010 .2zm0 0" fill="#edb92e"/><path d="M9.1 3.3zm0 0zm0-.2v.2-.1zm0 0zm.1-.2v.2H9h.1V3zm0-.1V3l.1-.1zm0-.2v.1zm-.3-.1h.2v.1H9v-.1zm0 0zm-.4-.1H8.9l.1.1h-.2v-.1h-.2zm0 0zm0 0zm0 0zm.6.3L9 2.5h-.2v-.1h-.2H9v.1h.2zm0 .4v-.2h.1v-.2.2L9 3zm0 0zm0 .2v-.1.1zm0 0zm0 0H9zm0 0zm0 0zm0 0" fill="#21231e"/><path d="M7.3 2v.2c.6 0 .9 0 1 .2L8 3v.2a.4.4 0 00.3 0l.1-.1.2-.5C9 2 7.5 2 7.3 2zm0 0" fill="#edb92e"/><path d="M7.3 2zm0 0v.1zm0 0zm0 0zm0 .2V2zm0 0zm0 0zm0 0zm1 .2l-.1-.1H7.8v-.1H7.2 8.1v.1h.1v.1zM8 3v-.1l.1-.1v-.1l.1-.1v-.1.2h-.1V3H8zm0 0zm0 .2V3zm0 0zm.4 0H8 8.5zm0 0zm0-.1zm0 0zm.3-.5h-.1V3h-.1V3v-.2h.1v-.2zM7.3 2H8.4l.1.1h.1l.1.1h.1v.2-.2h-.2l-.1-.1H8L7.8 2h-.6zm0 0zm0 0zm0 0zm0 0" fill="#21231e"/><path d="M8.3 3v.2l.1-.1V3zm0 0" fill="#fff"/><path d="M8.2 3h.1zm.1.2a.1.1 0 010-.1zm.1-.1zm0-.1zm0 0" fill="#21231e"/><path d="M9.2 3.2v.2a.1.1 0 00.1-.1.1.1 0 000-.1zm0 0" fill="#fff"/><path d="M9.1 3.3v-.1a.1.1 0 01.1 0zm.1 0zm.1 0zm0-.1zm0 0" fill="#21231e"/><path d="M9.3 3v.1a.1.1 0 00.1 0zm0 0" fill="#fff"/><path d="M9.2 3.1h.1V3a.1.1 0 000 .1zm.1.1V3v.1zm.1-.1v.1a.1.1 0 000-.1zm0-.1v0zm0 0" fill="#21231e"/><path d="M9.4 2.8V3a.1.1 0 00.1 0v-.2zm0 0" fill="#fff"/><path d="M9.3 3v-.1h.1a.1.1 0 00-.1 0zm.1 0h-.1a.1.1 0 00.1 0zm.1 0zm0-.2V3zm0 0" fill="#21231e"/><path d="M7.7 3.2c0 .1 0 .1 0 0zm0 0" fill="#edb92e"/><path d="M7.6 3.3v-.1zm0 0zm0-.2v.1h.1zm0 0" fill="#21231e"/><path d="M7.7 3.2c-.2 0-.1.2-.1.3h.1v-.3zm0 0" fill="#fff"/><path d="M7.6 3.5V3.1v.2zm.1 0h-.1.1zm0-.3v.2-.2zm0 0zm0 0" fill="#21231e"/><path d="M8.7 3.3v.1s.1 0 0-.1zm0 0" fill="#edb92e"/><path d="M8.7 3.4v-.1zm0 0zm0-.1v.1-.1zm0 0" fill="#21231e"/><path d="M8.7 3.3l-.1.3c.1 0 .3-.2.1-.3zm0 0" fill="#fff"/><path d="M8.6 3.6v-.2h.1-.1v.1zm0 0zm.1-.3V3.7v-.1h.1v-.1zm0 0zm0 0" fill="#21231e"/><path d="M7.3 2.1a2 2 0 011 .2c.2 0 .1.3-.2.7a.3.3 0 010 .2V3c.1-.3.3-.5.2-.6 0-.1-.4-.2-1-.2zm0 0" fill="#edb92e"/><path d="M8.2 2.3H8L8 2.1H7.3 8.3zm0 .7v-.2h.1v-.5h-.1.1v.5h-.1V3zm0 0zm0 .2V3v.1zm0 0zm-.1 0zm0 0zM8 3v.1zm0 0zm.2-.6V2.8h-.1v.1L8 3l.1-.1v-.1h.1v-.2zm-1-.2H8l.1.1h.1v.1h.1-.1v-.1H7.8v-.1H7.2zm0 0zm0 0zm0 0zm0 0zm0 0zm0 0zm0 0zm0 0" fill="#21231e"/><path d="M8.7 2.2v.1a.1.1 0 000 .1h.1v-.1zm0 0" fill="#fff"/><path d="M8.6 2.3h.1zm.1.1zm.1 0zm0-.2v.1zm0 0" fill="#21231e"/><path d="M8.5 2.2v.2l.1-.1a.1.1 0 000-.1zm0 0" fill="#fff"/><path d="M8.4 2.3v-.1h.1zm.1 0zm.1 0zm0-.1zm0 0" fill="#21231e"/><path d="M8.5 2.2l.2.3a9 9 0 01-.2.5.7.7 0 00-.1.2.4.4 0 01.1-.1l.2-.5c0-.2 0-.3-.2-.3zm0 0" fill="#edb92e"/><path d="M8.5 2.3zm0 0zm.2.2v-.1h-.1v-.1h-.1.1v.2zm0 0zm-.2.5l.1-.2v-.2.4zm0 0zm-.2.2h.1V3h.1-.1zm0 0zm0 0zm0 0zm.1 0zm0 0zm.1 0V3v.1zm0-.1zm0 0zm.2-.5V3l-.1.1v-.2h.1v-.2zm-.2-.4v.1h.2v.2-.2h-.2zm0 0zm0 0" fill="#21231e"/><path d="M9.1 3.4h0zm0 0" fill="#edb92e"/><path d="M9.2 3.4zm0 0zm0 0zm0 0zm0 0zm0 0zm0 0zm0 0zm0 0" fill="#21231e"/><path d="M9.1 3.3H9a.1.1 0 010 .2c0 .1 0 0 0 0h.2v-.2zm0 0" fill="#edb92e"/><path d="M9.1 3.3zm0 0zm0 0zm-.1.1v-.1zm0 0v.1-.1zm0 .2v-.1zm0 0zm0 0zm0 0zm0 0zm0 0zm.2-.2v.1H9zm0-.1v.1-.1zm0 0zm0 0zm0 0zm0 0" fill="#21231e"/><path d="M9.1 3.3s0 .1 0 0l.2.1c0-.1-.1-.1-.2 0zm0 0" fill="#edb92e"/><path d="M9 3.3h.1zm0 0zm.1 0v.1-.1.1zm.2.1h-.1zm0 0zm-.2 0h.2v-.1H9zm0 0zm0 0" fill="#21231e"/><path d="M7.4 2v.1a.1.1 0 00.1 0 .1.1 0 000-.2zm0 0" fill="#fff"/><path d="M7.3 2h.1zm.1.1zm.1 0zm0-.2a.1.1 0 010 .1zm0 0" fill="#21231e"/><path d="M7.6 2v.1a.1.1 0 00.1 0v-.2zm0 0" fill="#fff"/><path d="M7.5 2h.1zm.1.1zm.1 0zm0-.2V2zm0 0" fill="#21231e"/><path d="M7.8 2v.1a.1.1 0 00.1 0V2zm0 0" fill="#fff"/><path d="M7.7 2h.1zm.1.2a.1.1 0 010-.1zM8 2h-.1zm-.2-.2L8 2zm0 0" fill="#21231e"/><path d="M8 2v.2l.1-.1V2zm0 0" fill="#fff"/><path d="M8 2zm0 .2V2zm.1-.1zm0-.1zm0 0" fill="#21231e"/><path d="M9.3 2.5a.1.1 0 00-.1 0l.1.2a.1.1 0 00.1-.1.1.1 0 00-.1-.1zm0 0" fill="#fff"/><path d="M9.2 2.6v-.1h.1a.1.1 0 00-.1 0zm.1 0h-.1a.1.1 0 00.1 0zm.1 0h-.1.1zm-.1-.1h.1a.1.1 0 00-.1 0zm0 0" fill="#21231e"/><path d="M9.1 2.4v.2l.1-.1v-.1zm0 0" fill="#fff"/><path d="M9 2.5v-.1a.1.1 0 01.1 0zm.1 0zm.1 0zm0-.1zm0 0" fill="#21231e"/><path d="M9 2.3a.1.1 0 00-.2 0l.1.2a.1.1 0 00.1-.1.1.1 0 000-.1zm0 0" fill="#fff"/><path d="M8.8 2.4l.1-.1zm.1.1v-.1.1zm.1-.1v.1a.1.1 0 000-.1zm0-.1zm0 0" fill="#21231e"/><path d="M9.4 2.6v.2h.1v-.2zm0 0" fill="#fff"/><path d="M9.3 2.7h.1zm.1.1zm.1 0zm0-.2v.1zm0 0" fill="#21231e"/><path d="M7.5 4.3l.4.2.4-.1-.4-.2zm0 0" fill="#edb92e"/><path d="M7.9 4.2l.4.2-.4-.3zm0 0zm-.4.1l.4-.1-.4.1zm0 0zm.4.2l-.4-.2.4.2zm0 0zm.3-.2l-.3.2.4-.1zm0 0zm0 0" fill="#21231e"/><path d="M7.9 4.2l-.2.1.2.1H8l-.2-.2zm0 0" fill="#c6363c"/><path d="M7.7 4.3h.1-.1zm.2.1h-.2.1zm.2 0h-.2.1zm-.2-.2H8v.1h-.1zm0 0" fill="#21231e"/><path d="M8.7 4.2l-.4.2.3.2c.1 0 .2-.3 0-.4zm0 0" fill="#edb92e"/><path d="M8.3 4.4l.4-.2-.4.1zm0 0zm.3.1l-.3-.2.3.3zm0 0zm0-.3h.1V4.6v-.2zm.1 0zm0 0zm0 0zm0 0" fill="#21231e"/><path d="M8.7 4.3h-.2c0 .1 0 .2.2.2v-.1-.1zm0 0" fill="#0c4076"/><path d="M8.5 4.4v-.1h.1zm.2.1h-.1v-.1h-.1.1v.1zm0-.1v.1-.1zm0-.1zm0 0" fill="#21231e"/><path d="M7.4 4.4h.1zm0 0" fill="#fff"/><path d="M7.4 4.4zm0 0zm.1 0zm0 0zm0 0" fill="#21231e"/><path d="M8.3 4.4v.1zm0 0" fill="#fff"/><path d="M8.2 4.5zm0 0zm.1 0zm0 0zm0 0" fill="#21231e"/><path d="M8.3 4.2zm0 0" fill="#fff"/><path d="M8.2 4.2zm0 0zm.2 0h-.1v.1zm-.1 0zm0 0" fill="#21231e"/><path d="M7.5 4.2h-.1.1zm0 0" fill="#fff"/><path d="M7.4 4.2zm0 0zm.1 0zm0 0zm0 0" fill="#21231e"/><path d="M8.9 3.7h-.1v-.2H9c0-.1 0-.1 0 0v.2zm0 0" fill="#edb92e"/><path d="M8.8 3.8v-.1zm0 0zm0-.3v.2-.1zm0 0zm.1 0zm0 0v-.1zm0 0zm0 0zm0 0H9zm0 .2v-.1.1zm0 0zm0 0zm0 0" fill="#21231e"/><path d="M9 3.4v.1a.3.3 0 01-.1 0v.1l-.1.2v-.1-.1-.1H9zm0 0" fill="#edb92e"/><path d="M9 3.5zm0 0zm-.1 0zm0 0v.1zm-.1.2v-.1zm0 0zm0 0zm0 0zm0 0zm0 0zm0 0zm0 0zm0 0zm0-.1zm0-.1zm.1 0zm0 0zm0 0v-.1zm0 0zm0 0v-.1zm0 0" fill="#21231e"/><path d="M9 3.5c-.1 0-.2.2 0 .2a.2.2 0 010-.1zm0 0" fill="#edb92e"/><path d="M9 3.5zm0 0zm0 .3h-.1v-.2.1zm0 0zm0-.1zm0 0zm0-.1v.1-.1zm0 0zm0 0zm0 0zm0 0zm0 0zm0 0" fill="#21231e"/><path d="M9 3.6s-.1 0 0 .1c0 0 .1-.1 0-.1zm0 0" fill="#edb92e"/><path d="M9 3.7v-.1.1zm0 0zm0-.2v.1zm0 0" fill="#21231e"/><path d="M9 3.6zm0 0" fill="#0c4076"/><path d="M9 3.7v-.1.1zm0 0zm0-.1zm0 0zm0 0" fill="#21231e"/><path d="M8.4 2.8l-.1.1.1.1h.1l-.1-.2zm0 0" fill="#fff"/><path d="M8.3 2.9h.1v-.1h-.1a.1.1 0 000 .1zm.1.1l-.1-.1a.1.1 0 00.1.1zm.1-.1l-.1.1h.1v-.1zm-.1-.1l.1.1a.1.1 0 000-.1zm0 0" fill="#21231e"/><path d="M8.5 2.6l-.1.1v.1a.1.1 0 00.2 0l-.1-.2zm0 0" fill="#fff"/><path d="M8.4 2.7zm0 .1zm.2 0a.1.1 0 01-.1 0zm-.1-.2v.1zm0 0" fill="#21231e"/><path d="M8.2 2v.2a.1.1 0 00.1 0V2zm0 0" fill="#fff"/><path d="M8.1 2.1h.1zm.1.2a.1.1 0 010-.1zm.1-.2v.1zm0 0zm0 0" fill="#21231e"/><path d="M8.4 2.1l-.1.1.1.1a.1.1 0 00.1 0L8.4 2zm0 0" fill="#fff"/><path d="M8.3 2.2h0zm.1.1h-.1.1zm.1 0h-.1.1zM8.4 2l.1.1a.1.1 0 00-.1 0zm0 0" fill="#21231e"/><path d="M8.5 2.3v.2l.1-.1v-.1zm0 0" fill="#fff"/><path d="M8.4 2.4v-.1a.2.2 0 01.1 0zm.1 0zm.1 0zm0-.1zm0 0" fill="#21231e"/><path d="M8.5 2.4v.2h.2a.1.1 0 00-.2-.2zm0 0" fill="#fff"/><path d="M8.4 2.5h.1zm.1.2a.1.1 0 010-.1zm.2-.2a.1.1 0 01-.1.1zm-.2 0h.1zm0 0" fill="#21231e"/><path d="M7.2 3a.4.4 0 01.1 0V2 3c-.1.1-.1.1-.1 0zm0 0" fill="#edb92e"/><path d="M7.3 3h-.1.1zm0 0zm0-.9V3 2.1zm0 0zm0 0zm0 0zm0 0zm0 .5v-.4.2zm0 .4V2.6 3zm0 0zm0 0zm0 0v.1zm0 .1zm0 0zm-.1 0zm0 0zm0 0zm0 0" fill="#21231e"/><path d="M7.4 3.3c0-.1 0-.1-.1 0h-.1V3.7h.2v-.1-.1zm0 0" fill="#edb92e"/><path d="M7.4 3.3zm0 0zm-.1 0v-.1zm-.1 0zm0 0zm0 0zm0 .1zm0 0zm0 0zm0 0zm0 .1zm0 0zm0 0zm0 .1zm.2 0h-.1zm0 0zm0 0v-.1zm0-.1zm0 0zm0 0zm0-.1zm0 0zm0 0zm0 0M7.1 3.4a.3.3 0 01.2.1.2.2 0 00-.2 0zm0 0a.3.3 0 00.2 0 .2.2 0 01-.2 0zm0 0" fill="#21231e"/><path d="M7.4 3.2c-.1 0 0 .1 0 .2s-.1.2 0 .2v-.1-.1-.1zm0 0" fill="#edb92e"/><path d="M7.3 3.3zm0 0zm0 .1zm0 0zm0 .2v-.1zm.1 0zm0 0zm0 0zm0 0zm0 0v-.1zm0 0v-.1zm0-.1zm0 0zm0 0zm0-.1zm0 0zm0 0zm0-.1zm0 0zm0 0zm0 0zm1.7.2zm0 0" fill="#21231e"/><path d="M8.2 3.1l-.1.2v.1H8.5c0-.1.1-.2 0-.2a.1.1 0 000-.1h-.1zm0 0" fill="#edb92e"/><path d="M8.2 3.2zm0 0zm0 0zm-.1 0zm0 .2v-.1zm0 0zm0 0zm.1 0zm0 0zm0 0zm0 0zm0 0h.1zm0 0h.1zm.1 0zm.1 0zm0-.2v.1-.1zm0 0zm0 0zm0 0zm0-.1zm0 0zm0 0zm0 0zm-.1 0zm0 0zm0 0zm0 0zm0 0zm0 0M8.2 3.4a.4.4 0 01.2-.1.3.3 0 00-.2.1zm0 0a.3.3 0 000-.2v.2zm0 0" fill="#21231e"/><path d="M8.1 3.2H8.4V3h-.2H8zm0 0" fill="#edb92e"/><path d="M8.1 3.2zm.1 0zm0 0zm.1 0zm.1 0zm0 0zm0 0zm0 0zm0 0zm0 0zm0 0zm0-.1zm0 0zm0 0zm0 0zm-.1 0zm0 0zm0 0zm-.1 0zm0 0zm0 0zm-.1 0zm0 0zm0 0" fill="#21231e"/><path d="M8.5 3.5v-.1h-.1l-.1.1v.1l.1.1v-.1h.1v-.1zm0 0" fill="#edb92e"/><path d="M8.5 3.4zm0 0zm0 0zm0 0zm0 0zm-.1 0zm0 0zm0 0zm-.1.1zm0 0zm0 0zm0 0zm0 0zm0 0zm0 .1zm0 0zm.1.1zm0 0zm0 0v-.1zm0-.1zm.1 0zm0 0zm0-.1zm0 0zm0 0zm0 0zm0 0zm0 0zm0 0M8.3 3.5a.1.1 0 010 .1zm0 0a.2.2 0 00.2 0 .2.2 0 01-.1 0zm0 0" fill="#21231e"/><path d="M8.5 3.3v.1a.1.1 0 010 .1l-.1.2v-.1h.1v-.1-.1zm0 0" fill="#edb92e"/><path d="M8.5 3.4zm0 0zm0 0zm0 0zm0 .1zm0 0zm-.1.2v-.1zm0 0zm0 0zm0 0zm0 0zm0 0zm.1-.1zm0 0zm0-.1zm0-.1zm0 0zm0 0zm0 0zm0 0zm0 0" fill="#21231e"/><path d="M7.8 3.5v.1H8l.1-.1v-.1-.1h-.2v.1h-.1v.1zm0 0" fill="#edb92e"/><path d="M7.9 3.6zm0 0zm0 0zm0 0zm.1 0zm0 0zm.1 0zm0 0zm0-.1zm0 0zm0 0zm0 0zm0 0zm0 0zm0-.1zm0-.1zm-.2 0H8zm0 0zm0 0zm0 0zm0 .1zm0 0zm-.1 0zm0 .1zm0 0zm0 0zm0 0M8.1 3.5a.2.2 0 01-.1-.1.2.2 0 00.1 0zm0 0a.3.3 0 00-.2 0 .3.3 0 01.2 0zm0 0" fill="#21231e"/><path d="M7.9 3.6v-.1c0-.1.1-.2 0-.2a.1.1 0 000 .1h-.1v.2zm0 0" fill="#edb92e"/><path d="M8 3.6h-.1zm0 0zm0-.1h-.1zm0 0v-.1h-.1zm0 0zm0-.2v.1-.1zm0 0zm0 0zm0 0zm-.1 0zm0 0zm0 .1zm0 0zm-.1 0zm0 .1zm0 0zm0 0zm0 0zm0 0zm0 .1zm0 0zm0 0zm0 0zm0 0zm0 0zm0 0" fill="#21231e"/><path d="M8.2 3.4l-.1.1v.1a.1.1 0 00.2-.1.1.1 0 000-.1zm0 0" fill="#edb92e"/><path d="M8 3.5h.1v-.1h.1H8v.1zm.2.1H8v-.1.1zm.1-.1v.1h-.1.1zm0-.1v.1-.1zm0 0" fill="#21231e"/><path d="M8.2 3.4a.1.1 0 000 .1h.1zm0 0" fill="#edb92e"/><path d="M8.1 3.5h.1v-.1zm0 0zm.1 0zm.1 0h-.1.1zm0 0zm0-.1v.1zm0 0" fill="#21231e"/><path d="M8.2 3.4v.1zm0 0" fill="#0c4076"/><path d="M8.1 3.5h.1zm.1 0zm0 0zm0 0zm0 0zm0 0zm0 0zm0 0" fill="#21231e"/><path d="M577 293.6c2 .2 3 1.5 3 2.7s-1 2.8-3 3a1106.7 1106.7 0 01-188.2.3c-.4 0-1-.3-1.6-.3-1.9-.2-2.8-1.7-2.8-3s1-2.5 2.8-2.7c.7 0 1.2-.3 1.6-.3 60.7-5.2 125.7-5.2 186.4 0 .7 0 .9.3 1.6.3zm0 0" transform="matrix(.01667 0 0 .01562 -1 0)" fill="#edb92e" stroke="#21231e"/><path d="M5.9 4.7H6.3 6h.1H5.8zm0 0zm.7-.1H6.2h.4zm.4 0h-.4zm.4 0H7zm.4 0h-.4.4zm.4 0H7.8 8h-.1.2zm0 0zm-2 0zm1.6 0zM7 4.2zm0 0zm0 0zm0 0zm0 0zm0 0zm0 0zm0 0zm0 0zm0 0zm0 0zm-.1 0zm0 0zm0 0zm0 0zm0 0zm0 0zm0 0zm-.1 0zm0 0zm0 0zm0 0zm0 0zm0 0zm0 0zm0 0zm0 0zm0 0zm0 0zm0 0zm0 0zm0 0zm0 0zm0 0zm0 0zm0 0zm-.1 0zm0 0zm0 0zm0 0zm0 0zm0 0zm0 0zm0 0zm0 0zm0 0zm0 0zm0 0zm0 0zm0 0zm-.1 0zm0 0zm0 0zm0 0zm0 0zm0 0zm0 0zm0 0zm-.1 0zm0 0zm0 0zm0 0zm0 0zm0 0zm0 0zm0 0zm0 0zm0 0zm0 0zm0 0zm0 0zm0 0zm-.1 0zm0 0zm0 0zm0 0zm0 0zm0 0zm0 0zm-.1 0zm0 0zm0 0zm0 0zm-.2 0h.1H6zm0 0zm0 0zm0 0zm0 0zm-.3 0H6h-.2zm0 0zm0 0zm0 0zm0 0zm0 0zm-.5 0h.4H5.3zm0 0zm0 0zm0 0zm.5 0h-.4H5.7zm0 0zm0 0zm0 0zm.6 0h-.6.5zm0 0zm0 0zm0 0zm0 0zm0 0zm0 0zm0 0zm0 0zm0 0zm.3 0h-.2zm0 0zm0 0zm0 0zm0 0zm0 0zm0 0zm0 0zm0 0zm0 0zm0 0zm0 0zm0 0zm0 0zm0 0zm0 0zm0 0zm.1 0zm0 0zm0 0zm0 0zm0 0V4zm0 0V4zm0-.1zM7 4zm0 0zm0 0zm0 0zm0 0zm0 0zM7 4zm.1 0zm0 0zm0 0zm0 0zm0 0zm0 0zm0 0h.1zm.1 0zm0 0zm0 0zm0 0zm0 0zm0 0zm0 0zm0 0zm.1 0zm0 0zm0 0zm0 0zm0 0zm0 0zm0 0zm0 0zm0 0zm0 0zm0 0zm0 0zm0 0zm0 0zm0 0zm.3 0h-.2.2zm0 0zm0 0zm0 0zm0 0zm0 0zm0 0zm0 0zm0 0zm0 0zm.7 0h-.6.5zm0 0zm0 0zm0 0zm.4 0v.1h-.4.4zm0 .1zm0 0h.1zm0 0zm-.4 0h.4-.4zm0 0zm0 0zm0 0zm0 0zm0 0zm-.3 0h.2H8zm0 0zm0 0zm0 0zm0 0zm-.2 0H8zm0 0zm0 0zm0 0zm0 0zm0 0zm0 0zm0 0zm-.1 0zm0 0zm0 0zm0 0zm0 0zm0 0zm0 0zm0 0zm0 0zm0 0zm0 0zm0 0zm0 0zm0 0zm0 0zm-.1 0zm0 0zm0 0zm0 0zm0 0zm0 0zm0 0zm0 0zm0 0zm-.2 0h.1zm0 0zm0 0zm0 0zm0 0zm0 0zm0 0zm0 0zm0 0zm0 0zm0 0zm0 0zm0 0zm0 0zm0 0zm0 0zm0 0zm0 0zm0 0zm0 0zm0 0zm0 0zm0 0zm0 0zm0 0zm0 0zm-.1 0zm0 0zm0 0zm0 0zm0 0zm0 0zm0 0zm0 0zm0 0zm0 0zm-.1 0zm0 0zm0 0zm0 0zm0 0zm0 0zm0 0zm0 0zm0 0zm0 0zm0 0zm0 0zm-.1 0zm0 0zm0 0zm0 0l-.4.2.3-.2zm0 0zm.3.2L7 4.1l.4.2zm0 0zm-.4.2l.4-.2-.4.2zm0 0zm-.3-.2l.3.2-.3-.2zm0 0zm0 0" fill="#21231e"/><path d="M7 4.2l.2.1-.2.1H7l.1-.2zm0 0" fill="#0c4076"/><path d="M7.2 4.3H7v-.1h.1v.1zm-.2.1h.2H7zm-.1 0H7h-.1zm.1-.2h-.1v.1H7v-.1zm0 0" fill="#21231e"/><path d="M7 3.3l.2.1-.2.1v-.2zm0 0" fill="#edb92e"/><path d="M7.2 3.4H7v-.1.1zm-.2.2h.1v-.1zM7 3.4v.1H7h-.1zm.1-.1v.1h-.1l.1-.1zm0 0" fill="#21231e"/><path d="M7 3.3l.1.1v.1a.1.1 0 01-.2 0l.1-.2zm0 0" fill="#edb92e"/><path d="M7.1 3.4zm0 .1zm-.2 0H7zm.1-.2v.1zm0 0" fill="#21231e"/><path d="M7 3.4zm0 0" fill="#0c4076"/><path d="M7.1 3.4zm0 0zm-.1 0zm0 0zm0 0" fill="#21231e"/><path d="M4.2 4.7v4.2c0 .8.4 1.4.9 2a2.8 2.8 0 002 .8 2.8 2.8 0 002-.9c.4-.5.7-1.1.7-1.9V4.7zm0 0" fill="#c6363c"/><path d="M4.2 4.7v4.8h.1v.4h.1v.1l.1.1v.1h.1v.2h.1v.1l.1.1.1.1.2.2v-.1H5l-.2-.3-.1-.1v-.1l-.1-.1V10l-.1-.1v-.2h-.1V9.4l-.1-.1V4.6h5.5v4.8l-.1.1V10l-.1.1v.1l-.1.1v.1h-.1l-.1.2-.2.2-.1.1-.1.1-.1.1h-.1v.1h-.1v.1h-.2v.1h-.2v.1H8l-.1.1H7.6l-.1.1H7 8l.1-.1h.1l.2-.1h.1l.2-.2.2-.1V11H9l.1-.1.1-.1.1-.1v-.1l.2-.2v-.1h.1v-.1l.1-.2.1-.3v-.2l.1-.1V4.6zm0 0" fill="#fff"/><path d="M483.8 734.8c1.4-.3 4 0 5.6-1.3 2.6-2 1.4-9.8 1.4-14.8-1.2-25.4-2.4-68-3.5-128-2.1-.3-3.8 0-5.2.2a8.2 8.2 0 00-5 0c-1.3 59.7-2.5 102.4-3.4 127.8-.3 5-1.2 12.8 1.1 14.8 1.7 1.5 4.3 1 5.7 1.3zm0 0" transform="matrix(.01667 0 0 .01556 -1 0)" fill="#fff" stroke="#21231e"/><path d="M499.7 734c-1.6 0-4 .5-6.1-.7-2.6-1.8-2.8-9.8-3-14.9-2.2-42.4-4.7-85-7.6-127.5 2-.5 3.6-.5 5-.5.2 0 .4 0 .7-.3 9.6 59.3 13.1 101.2 19.7 126.6.9 3.5 2.8 12.3-.3 15-1.6 1.8-4.2 1.6-5.6 2zm0 0" transform="matrix(.01667 0 0 .01556 -1 0)" fill="#fff" stroke="#21231e"/><path d="M518.2 731.5c-1.4 0-3.7.8-6-.5-2.7-1.3-2.7-9.3-3.8-14-6.6-25.4-10.1-67.4-19.7-126.6 2-.8 3.5-.8 4.9-1h.2c15 57.5 19.7 98.2 31.4 123.3 1.2 3.5 4 12.5 1.2 15.8-1.4 1.7-4 2-5.4 2.5zm0 0" transform="matrix(.01667 0 0 .01556 -1 0)" fill="#fff" stroke="#21231e"/><path d="M537 726c-1.4.2-4 1.5-5.9.7-3-1.2-3.5-9.8-5.6-14.3-12-24.8-16.4-66-31.9-123.8 2.1-1 3.5-1 5.2-1.5 1.1-.5.9-1 3-1 17.8 57.3 23.7 97 40.3 121.8 2.8 4 4.7 11.8 3 14.3-1.3 2-4 2.5-5.1 3zm-72.2 8c1.4 0 3.7.5 5.8-.7 2.6-1.8 3-9.8 3-14.9a5818.2 5818.2 0 017.8-127.5c-2.1-.5-3.7-.5-5.1-.5-.3 0-.5 0-.8-.3-9.6 59.3-13 101.2-19.6 126.6-1 3.5-3 12.3 0 15 1.8 1.8 4.4 1.6 5.6 2l3 .3zm0 0" transform="matrix(.01667 0 0 .01556 -1 0)" fill="#fff" stroke="#21231e"/><path d="M446 731.5c1.7 0 4 .8 6.1-.5 2.6-1.3 2.6-9.3 4-14 6.3-25.4 9.8-67.4 19.4-126.6-1.8-.8-3.5-.8-4.9-1h-.2c-15 57.5-19.7 98.2-31.4 123.3-1.2 3.5-4.2 12.5-1.4 15.8 1.4 1.7 4 2 5.4 2.5zm0 0" transform="matrix(.01667 0 0 .01556 -1 0)" fill="#fff" stroke="#21231e"/><path d="M427.3 726c1.6.2 4 1.5 6 .7 3.1-1.2 3.6-9.8 5.7-14.3 11.7-24.8 16.2-66 31.4-123.8-1.9-1-3.3-1-5-1.5-1.1-.5-.9-1-3-1-17.8 57.3-23.6 97-40.3 121.8-2.8 4-4.7 11.8-2.8 14.3 1.4 2 4 2.5 5.2 3l3 .8zm99.8-43c-1.4 0-3.5 1-5.6 0-2.6-1.5-4.5-9-5.9-14-12-23.4-23-65.3-40.8-123.3 1.7-.8 3-1 4.5-1 1-.5 2.3-1 4.2-1.3 19.5 57.5 28.1 99 46.9 122 2.8 3.8 5.4 12.1 4 14.4-1.2 1.7-3.5 2-4.7 2.5zm0 0" transform="matrix(.01667 0 0 .01556 -1 0)" fill="#fff" stroke="#21231e"/><path d="M512.1 685.8c-1.6 0-3.7.5-5.6-.5-2.6-1.5-3.5-9.3-4.7-14.3-5-25.1-13.6-67-26.2-126 1.8-.6 3.2-.8 4.4-.8 1.4-.3 2.8-.8 4.7-.8 15 58.8 18.3 102.5 32.3 125 2.6 4 4 12.4 2.4 14.9-1.4 1.5-3.5 1.5-5 2l-2.5.5zm0 0" transform="matrix(.01667 0 0 .01556 -1 0)" fill="#fff" stroke="#21231e"/><path d="M496.4 687.6c-1.4-.3-3.5.2-5.4-1-2.3-1.8-2.3-9.6-2.8-14.6-2.1-25.4-6-68-11.7-127.6 2.1-.5 3.5-.5 4.7-.2 1.1-.3 2.6-.5 4.4-.5 8 59.5 13 102.7 18 127.3 1 5 2.4 12.5.5 14.8-1.4 1.5-3.7 1.3-5.1 1.8l-2.6.2zm0 0" transform="matrix(.01667 0 0 .01556 -1 0)" fill="#fff" stroke="#21231e"/><path d="M437.1 682.8c1.4 0 3.5 1 5.6 0 2.9-1.5 4.5-9 5.9-14 12.2-23.4 23.2-65.4 41-123.4-1.9-.7-3-1-4.7-1-1-.5-2.3-1-4.2-1.2-19.2 57.5-27.9 99-46.6 122-3 3.8-5.4 12-4 14.3 1.2 1.8 3.3 2 4.4 2.8zm0 0" transform="matrix(.01667 0 0 .01556 -1 0)" fill="#fff" stroke="#21231e"/><path d="M452.3 685.8c1.5 0 3.6.5 5.7-.5 2.3-1.5 3.3-9.3 4.2-14.3 5-25.1 13.6-67 26.2-126a15 15 0 00-4.4-.8c-1.4-.5-2.8-.8-4.5-.8-15 58.8-18.2 102.5-32.3 125-2.6 4-4 12.4-2.1 14.9 1.2 1.5 3.5 1.5 4.7 2zm0 0" transform="matrix(.01667 0 0 .01556 -1 0)" fill="#fff" stroke="#21231e"/><path d="M468 687.6c1.2-.3 3.3.2 5.2-1 2.6-1.8 2.6-9.6 2.8-14.6 2.1-25.4 6.1-68 11.7-127.6a9.3 9.3 0 00-4.4-.2c-1.2-.3-2.6-.5-4.5-.5-8 59.5-12.9 102.7-18 127.3-1 5-2.4 12.5-.5 14.8 1.7 1.5 3.8 1.3 5.2 1.8l2.6.2zm0 0" transform="matrix(.01667 0 0 .01556 -1 0)" fill="#fff" stroke="#21231e"/><path d="M483.5 688c1.2 0 3.5.3 5.2-1.2 2.3-2 1.4-9.8 1.1-14.8-1.1-25.6-1.8-68-3.2-128a13.3 13.3 0 00-4.5 0c-1.4-.3-2.6-.3-4.4 0-1.2 60-2.2 102.4-3.3 128-.3 5-1 12.8 1.2 14.6 1.6 1.5 4 1 5.1 1.5zm0 0" transform="matrix(.01667 0 0 .01556 -1 0)" fill="#fff" stroke="#21231e"/><path d="M516.6 647.9c-1.2 0-2.6 1-4 0-2.4-1.5-3.8-9-5-13.8-9-23.6-17.3-65.6-31.1-123.6 1.4-.7 2.3-1 3.5-1 .7-.5 1.6-1 3.3-1 14.5 57.5 21.3 99 35.6 121.8 2.4 3.8 4 12 3 14.6-.9 1.7-2.5 2-3.5 2.5zm0 0" transform="matrix(.01667 0 0 .01556 -1 0)" fill="#fff" stroke="#21231e"/><path d="M505 650.9c-1 0-2.7.8-4.4-.5-1.8-1.5-2.5-9.3-3.3-14.3-3.7-24.9-10.5-67-20.1-126 1.4-.6 2.3-.6 3.5-.6 1-.5 2.1-.7 3.3-1 11.7 58.8 14 102.7 25 125.3 2.2 4 3.1 12.3 1.7 14.6-1 1.7-2.8 1.7-3.5 2.2l-2.1.5zm0 0" transform="matrix(.01667 0 0 .01556 -1 0)" fill="#fff" stroke="#21231e"/><path d="M492.9 652.7c-1 0-2.6.5-4-1-1.9-1.8-1.9-9.6-2.1-14.6-1.4-25.4-4.5-67.8-9-127.6 1.5-.5 2.7-.5 3.6-.2 1-.3 1.9-.8 3.5-.5 5.9 59.5 9.6 102.7 13.6 127 .7 5 1.9 12.8.5 15.1-1.2 1.5-3 1.3-4 1.5zm0 0" transform="matrix(.01667 0 0 .01556 -1 0)" fill="#fff" stroke="#21231e"/><path d="M447.9 647.9c1 0 2.3 1 4 0 2-1.5 3.5-9 4.7-13.8 9.1-23.6 17.5-65.6 30.9-123.6-1.2-.7-2.1-1-3-1-1.2-.5-2.2-1-3.6-1-14.5 57.5-21.3 99-35.6 121.8-2.3 3.8-4.2 12-3 14.6 1 1.7 2.5 2 3.5 2.5l1.9.5zm0 0" transform="matrix(.01667 0 0 .01556 -1 0)" fill="#fff" stroke="#21231e"/><path d="M459.4 650.9c1 0 2.6.8 4-.5 2.3-1.5 3-9.3 3.7-14.3 3.5-24.9 10.3-67 20-126-1.2-.6-2.4-.8-3.6-.6-1-.5-1.9-.7-3.3-1-11.4 58.8-14 102.7-24.8 125.3-2.1 4-3 12.3-1.6 14.6.9 1.7 2.5 1.7 3.5 2.2l2 .5zm0 0" transform="matrix(.01667 0 0 .01556 -1 0)" fill="#fff" stroke="#21231e"/><path d="M471.3 652.7c1 0 2.6.5 4-1 1.9-1.8 1.9-9.6 2.1-14.6 1.7-25.4 4.7-67.8 9.2-127.6-1.2-.2-2.4-.5-3.8-.2-1-.3-1.9-.8-3.5-.5-6 59.5-9.8 102.7-13.6 127-.7 5-2.1 12.8-.5 15.1 1.2 1.5 3 1.3 4 1.5l1.9.3zm0 0" transform="matrix(.01667 0 0 .01556 -1 0)" fill="#fff" stroke="#21231e"/><path d="M483.3 653.2c1-.3 2.6 0 4-1.3 1.6-2 1-9.8 1-14.8-1-25.4-1.7-68-2.7-128-1.4 0-2.5 0-3.5.2a8 8 0 00-3.5 0c-1 59.7-1.4 102.4-2.3 128 0 5-.7 12.6.9 14.6 1.4 1.5 3 1.3 4.2 1.5h1.9zm0 0" transform="matrix(.01667 0 0 .01556 -1 0)" fill="#fff" stroke="#21231e"/><path d="M475 559c-.2 4.5-.4 9-.4 14l-10.5 2.3c0 4.8 12 55.5 18 55.5 6.3 0 18.3-50.7 18.3-55.5l-10.8-2V559c-2.3 2-5 5.3-7.5 8l-6.8-8zm0 0" transform="matrix(.01667 0 0 .01556 -1 0)" fill="#fff" stroke="#21231e"/><path d="M412 584.6c-3 0-7 2-18.5 11.8-4.9 10.3-10 20.6-17 29.4a47 47 0 01-6 3.3 78 78 0 01-17-.6c-4.5-4-11.3-1.2-9 3.3-1.8 1.5 2.1 7.8 5.2 5.3 3-2.5 13.1-.3 16.4-1.5-1.2 3-10.3 5-16.6 5.5-5.9.3-5.4 6-3 10.5 2.5 1.8.4-.5 1.3.8 2.6 4 8.2 3.5 8.5-.5.2-4 13.8-8.8 15.7-11.8-2.4 5.8-8.2 11.3-11 17-3.1 3-5 3.8-1 10.1 4.5-.5 4.7-1.5 7.3 1 6-.7 7-2.5 6-7.3-1.1-5 3.1-14 4.5-16.5 1.2-2.5 1.7-4.8 2.8-6.3 2.4-2.5 12.7-7.8 15.3-6.3 4.9 2.5 8.6 1 9.3-3.8-1.6-1.2-.4-8-3.7-8.2-2.8-.3-4.5.7-7 2.7-4 3.3-6.1 5-7.5 4.5-3-.7 5.8-5 13.8-15.5 11-14.6 11.7-21.9 11.2-26.9zm0 0" transform="matrix(.01667 0 0 .01556 -1 0)" fill="#edb92e" stroke="#21231e"/><path d="M387.7 701.1c8.2 6.3 15.2-8.3 8.2-27.6-5.2-14-30.7-8.5-16.4 10.5.7 1 1.4.8 1.4-.2-1-4 1.6-6.3 5.4-5.5 10.5 2 11 21.8-.5 17.5-2-.2-.5 4 1.7 5.6zm0 0" transform="matrix(-.01667 0 0 .01556 12.4 0)" fill="#edb92e" stroke="#21231e"/><path d="M345.2 634.6c-4-2.3-6.3-2.3-8-.5-.6 1-1.8.5-1.1-1 2.6-6.3 6.8-7 10.5-4.3l2.9 2.8c-.5 1-3.8 2.2-4.3 3zm57.5-5.8c4.2-3 8.2-3.5 10.5-2 1.2 1 2.3.5 1.4-1-4.4-6.3-9.6-6.5-13.6-3-1.2 1-2 2-2.8 3 1.4 1.5 4.2 3 4.5 3zm-33.8 35.7c.2-.3-1-5.6-2.6-7-1.4 1-3 2-4.2 3.4-4.2 4.6-4 11 2.6 16.6 1.4 1.5 2.3 0 1.6-1.5-1-2.8.3-6.5 3-11.5zm-16.4-13.6c-4 1.8-5.4 3.8-5.2 6.5 0 1.5-.9 2-1.4.3-4.9-11.3.3-13.3 7.5-13 .5 2-.7 6.2-.9 6.2zm0 0" transform="matrix(.01667 0 0 .01556 -1 0)" fill="#edb92e" stroke="#21231e"/><path d="M5.4 9.7zm.1 0h-.1.1zm0 0M5.5 9.6zm0 0zm0 0M5.5 9.5v.1zm.1 0zm0 0M5.6 9.5zm.1 0h-.1.1zm0 0M5.6 9.4h.1zm.2 0h-.1zm0 0" fill="#21231e"/><path d="M462.7 580.6l-9.6-5.3c-4 3-6.8 13.3 0 22.1 8.4 11 11.9 18.6 14 27.4 6.1-7.8 8.2-16 4.5-24.4-5.4-11-8.7-17-9-20zm0 0" transform="matrix(.01667 0 0 .01556 -1 0)" fill="#fff" stroke="#21231e"/><path d="M470.4 573l-9.6-5.5c-4 3-12.4 13.3-5.4 22.1 8.4 10.8 17.1 19.1 19.2 27.6 6.3-8 9-16 5.2-24.3-5.4-11-9.4-17-9.4-20.1zm0 0" transform="matrix(.01667 0 0 .01556 -1 0)" fill="#fff" stroke="#21231e"/><path d="M449.3 569.3l-9.4-5.5c-4 3-7 13.5-.2 22.3a64.1 64.1 0 0114 27.4c6.1-8 8.5-16.3 4.5-24.4-5.4-11-8.9-17-8.9-19.8zm0 0" transform="matrix(.01667 0 0 .01556 -1 0)" fill="#fff" stroke="#21231e"/><path d="M5.8 7.3v1.2a.3.3 0 01-.2.2.5.5 0 01-.1-.3v-1c.1-.3.2-.3.3-.1zm0 0" fill="#fff"/><path d="M5.7 8.5V7.2v1.2zm-.1.2v-.1h.1v-.1.2h-.1zm0 0zm-.1-.3V8.8h.1v-.1h-.1v-.1zm0-1v1-1zm0 0zm.3-.1v-.1h-.2v.1h-.1v-.1h.2zm0 0zm0 0" fill="#21231e"/><path d="M5.1 7v1.3l.2 1c.2-.2.3-.6.2-1v-1-.2h-.4zm0 0" fill="#fff"/><path d="M5 8.3l.1-1.2v1.2zm.1 0zm.2.9V9h-.1v-.4H5v-.2.4l.1.1v.2h.1v.1zm0 0zm.2-1v.9h-.1v.1V8.8h.1v-.6zm0-.8v.8V7.3zm0 0zm0-.3v.2V7zm0 0zm-.4 0h.4-.3zm0 0zm0 0zm0 0zm0 0" fill="#21231e"/><path d="M4.9 7.3v1.2l.3.9c.2-.2.2-.8.1-1v-.9-.3h-.4zm0 0" fill="#fff"/><path d="M5 8.5l-.1-1.2v1.2zm0 0zm.2.9v-.1H5V9H5v-.4.5l.1.2zm0 0zm.1-1V9.4l-.1.1v-.1l.1-.1V8.4zm0-.9V8.5 7.5zm0 0zm0-.3v.4-.4zm0 0zm-.4 0H5.3 4.8zm0 0zm0 0zm0 0zm0 0" fill="#21231e"/><path d="M4.7 7.6h.4v.8c0 .3.1 1.1-.2 1.3-.2-.4 0-.8-.1-1.2l-.1-1zm0 0" fill="#fff"/><path d="M5 7.6h-.3.4zm0 0zm.1.8V7.5v.8zM5 9.7l.1-.1v-.1h.1v-1 1.1H5v.1zm0 0zm-.2-1.2v.2h.1V9.6l.1.2v-.2h-.1V8.5zm0 0zm0-1V8.6 7.5zm0 0zm0 0zm0 0zm0 0" fill="#21231e"/><path d="M6 7v1.2a.4.4 0 01-.2.3.5.5 0 010-.3A68.6 68.6 0 016 7zm0 0" fill="#fff"/><path d="M6 8.2V7 8.3zm-.2.3H6v-.2.1zm0 0zm0-.3v.2-.2zm0-1.1v1-.9zm0 0zm.2 0V7h-.2v.1V7H6v-.1H6V7zm0 0zm0 0zm0 0zm0 0" fill="#21231e"/><path d="M5.4 6.3v1a.8.8 0 00.1.4.3.3 0 00.2-.3v-.9a1.1 1.1 0 01-.2-.1zm0 0" fill="#fff"/><path d="M5.4 7.3V6.4 7zm.1.4v-.2h-.1v-.1.2h.1zm0 0zm.1-.3v.2-.2zm0-.9v.9-.9zm0 0zm-.1-.1h.1v.1h-.1v-.1zm0 0zm0 0zm0 0zm0 0" fill="#21231e"/><path d="M5.7 6.5v.9a.5.5 0 000 .3.4.4 0 00.2-.3 8.3 8.3 0 000-.7l-.2-.2zm0 0" fill="#fff"/><path d="M5.7 7.4v-.8zm0 .3V7.3v.2zm0 0zm.2-.3v.2h-.1v-.1H6zm0-.7v.7-.7zm0 0zm-.2-.2v.1h.1v.1H6h-.1v-.1h-.1zm0 0zm0 0" fill="#21231e"/><path d="M5.5 6.3L5.2 6v1.7c.2 0 .2-.2.2-.3v-1zm0 0" fill="#fff"/><path d="M5.2 6l.3.3-.3-.3zm0 0zm0 1.4V6v1.3zm0 0zm0 .3V7.3v.2zm0 0zm.2-.3v.2h-.1.1v-.1zm0-1v-.1 1.1-1.1zm0-.1zm0 0zm0 0zm0 0" fill="#21231e"/><path d="M5 7v.4a.5.5 0 000 .3l.2-.3V6h-.1A3 3 0 005 7zm0 0" fill="#fff"/><path d="M5 7.4V7v.2zm0 .3V7.4v.2zm0 0zm.2-.3v.2H5v-.1zm0-1.4v1.4V6zm0 0zm-.1 0v-.1h.1V6H5zm0-.1zM5 7V5.8 7zm0 0zm0 0zm0 0zm0 0" fill="#21231e"/><path d="M4.7 7.3v.3l.2.3a.2.2 0 00.1-.3 4 4 0 01.1-1.8c-.3.3-.5.8-.4 1.5zm0 0" fill="#fff"/><path d="M4.8 7.6v-.3.3zm0 0zm.1.3v-.2h-.1v-.1.1l.1.1zm0 0zm.1-.3v.2-.1zm.1-1.8V6.7l-.1.1V7.6 6l.1-.1v-.1zm0 0zm-.4 1.5V6.3l.1-.1V6H5V6H5v-.1h.1l-.2.1v.2h-.1V6.6l-.1.2V7.3zm0 0zm0 0zm0 0zm0 0" fill="#21231e"/><path d="M4.7 7.6l-.3-.1.1 1.2v1c.4 0 .5-.5.3-1.3a3.5 3.5 0 010-.8zm0 0" fill="#fff"/><path d="M4.4 7.5h.3-.3zm0 0zm.1 1.2V8h-.1v-.5.9l.1.1v.2zm0 1V8.6v1zm0 0zm.3-1.3V8.7H5v.8h-.1v.1h-.1l-.1.1h-.1.2v-.1l.1-.1V8.4zm0-.8V8.4v-.8zm0 0zm0 0M4.7 9zm0-.5V9.2v-.6zm-.1-.8v.7-.7zm0 0zm0 0" fill="#21231e"/><path d="M4.7 5.7H5l-.1.4a3.8 3.8 0 00-.1 1.3l.1.5c-.2 0-.4-.3-.4-.7l.1-1 .1-.5zm0 0" fill="#fff"/><path d="M5 5.8h-.3v-.1H5zm0 0zm-.1.3V5.7 6.2zm0 1.3h-.1V6v1.3zm0 .5v-.4h-.1v.2H5v.1zm0 0zm-.4-.7v.2l.1.2v.1h.1v.1H5h-.2v-.1l-.1-.1v-.4zm0 0zm0-1h.1V7.3v-1zm.2-.5v.4h-.1V5.7h.1v-.1zm0 0zm0 0zm0 0zm0 0" fill="#21231e"/><path d="M4.6 5.8h.1v.7 1.3c-.2 0-.3-.3-.3-.7a5 5 0 010-1 .4.4 0 01.2-.3zm0 0" fill="#fff"/><path d="M4.7 5.9l-.1-.1h.1zm0 0zm0 .3V5.8v.2zm0 0zm0 .3h-.1V6.1h.1v.2zm0 1.3V7.5h-.1v-1V7.8h.1zm0 0zM4.4 7v.5h.1v.1h.1-.1v-.1l-.1-.1V7zm0-1v1V6.1zm0 0zm.2-.3h-.1V6v-.2h.1zm0 0zm0 0" fill="#21231e"/><path d="M5.2 6H5l-.1.4a.6.6 0 000 .4c.2 0 .2-.1.2-.3l.1-.4zm0 0" fill="#fff"/><path d="M5 6h.2H5zm0 0zm0 .4h-.1V6 6.4zm0 .4v-.1h-.1V6.3v.4zm0 0zm.1-.3V6.9H5v-.1h.1v-.1zm.1-.4v.4V6zm0 0zm0 0zm0 0zm0 0" fill="#21231e"/><path d="M5.8 6.5h-.2V7a.5.5 0 000 .2.4.4 0 00.2-.2v-.4zm0 0" fill="#fff"/><path d="M5.6 6.5h.2-.2zm0 0zm0 .4V6.6v.1zm0 .2v-.2.2zm0 0zm.2-.2v.2h-.1V7zm0-.4V7 6.6zm0 0zm0 0" fill="#21231e"/><path d="M6 6.6h-.2V7a.6.6 0 00.1.2A.3.3 0 006 7v-.4zm0 0" fill="#fff"/><path d="M5.8 6.6H6h-.2zm0 0zm0 .4v-.4.3zm.1.2V7v.2zm0 0zM6 7v.2h-.1L6 7zm0-.4V7 6.5zm0 0zm0 0zm0 0" fill="#21231e"/><path d="M5.6 6.4h-.2v.3a.5.5 0 000 .3.4.4 0 00.2-.2v-.4zm0 0" fill="#fff"/><path d="M5.4 6.4h.2-.2zm0 0zm0 .3V6.3 6.8zm0 .3V6.6 7zm0 0zm.2-.2V7h-.1V7v-.1zm0-.4v.4V6.4zm0 0zm0 0" fill="#21231e"/><path d="M5.4 6.2h-.2v.7a.4.4 0 00.2-.3v-.4zm0 0" fill="#fff"/><path d="M5.2 6.1l.2.1h-.2zm0 0zm0 .8v-.7.7zm0 0zm.1-.3V7h-.1v-.1h.1v-.1zm0-.4h.1v.4V6.2zm.1 0zm0 0zm0 0zm0 0" fill="#21231e"/><path d="M387.9 701.1c8 6.3 15-8.3 8-27.6-5.2-14-30.7-8.5-16.4 10.5.7 1 1.6.8 1.4-.2-1-4 1.6-6.3 5.6-5.5 10.3 2 11 21.8-.7 17.5-2.1-.2-.5 4 1.6 5.6zm0 0" transform="matrix(.01667 0 0 .01556 -1 0)" fill="#edb92e" stroke="#21231e"/><path d="M400 639c-1 3.6-5 7.9-7.9 10.9-4.7 5-3.5 12.3-.2 16 3.5 4.6 4.9 9.4 5.6 13.1.7 2.3 1.6 7.3 1 15.6-.5 4-2.9 6-5.2 7.5-1 1 .7 3 4.4 6 .5.3 1.4 1 2 3 .1.6 2 .6 2.3 0 .2-2 1.6-2.7 1.8-3 3.8-3 5.4-5 4.2-6a10.8 10.8 0 01-4.9-7.5c-.7-8 .3-13.3.7-15.6 1-3.7 2.4-8.5 6.1-13 3-3.8 4.2-11-.4-16.1-3-3-7-7.3-8-10.6 0-.7-.5-1-.7-1-.5 0-.7.3-.7 1zm0 0" transform="matrix(.01667 0 0 .01556 -1 0)" fill="#edb92e" stroke="#21231e"/><path d="M5.6 10.7h.2-.2zm0 0" fill="#edb92e"/><path d="M5.8 10.7h-.2.2zm0 0zm0 0zm0 0zm-.2 0h.2-.2zm0 0zm0 0zm0 0zm0 0" fill="#21231e"/><path d="M6 9v-.2c-.1 0-.3 0-.4.2a1 1 0 01-.3.4l.4-.1L6 9zm0 0" fill="#fff"/><path d="M6 8.8V9v-.2zm0 0zm-.4.2v-.1H6h-.2zm-.3.4h.1v-.1l.1-.1V9h.1V9v.2h-.1v.1h-.1zm0 0zm.4-.1h-.1v.1h-.2.2l.1-.1zM6 9v.1l-.1.1V9H6V9zm0 0zm0 0" fill="#21231e"/><path d="M6 9H6a3.4 3.4 0 00-.2.3.5.5 0 000 .3.3.3 0 00.2-.2l.2-.4zm0 0" fill="#fff"/><path d="M5.9 9H6h-.2zm0 0zm-.2.3v-.1l.1-.1V9v.2zm0 .3V9.2v.2zm0 0zm.2-.2v.1h-.2.2v-.1zm.2-.4v.2H6v.1V9zm0 0zm0 0" fill="#21231e"/><path d="M6.1 9H6v.6a.3.3 0 00.2-.2V9zm0 0" fill="#fff"/><path d="M6 9H6 6zm0 0zm-.1.3V9 9.4zm0 .3v-.2.2zm0 0zm.2-.2v.1H6v.1h-.1.1v-.1zM6 9v.4V9zm0 0zm0 0zm0 0" fill="#21231e"/><path d="M6.2 8.8h.1V9a1 1 0 00-.1.5c-.1-.1-.2-.3-.1-.4v-.4zm0 0" fill="#fff"/><path d="M6.3 8.8h-.1.1zm0 0zm0 .3V8.7h.1V9.2zm-.1.5V9.2l.1-.1V9v.4h-.1zm0 0zm-.1-.4V9.6h.1H6V9.1zm0-.4v.4-.4zm0 0zm0 0zm0 0zm0 0" fill="#21231e"/><path d="M6.2 8.7H6a4.3 4.3 0 00-.1.2.5.5 0 000 .3.3.3 0 00.2-.1l.1-.4zm0 0" fill="#fff"/><path d="M6 8.6h.2H6zm0 0zM6 9v-.2H6V9h-.1zm0 .3V9v.2zm0 0zm.2-.1H6v.1h-.1.1V9h.1zm.1-.4V9H6v-.2h.1v-.1zm0 0zm0 0zm0 0zm0 0" fill="#21231e"/><path d="M6 8.6v-.3l-.1.1a.3.3 0 00-.1.2 1 1 0 01-.2.4l.3-.1.2-.3zm0 0" fill="#fff"/><path d="M6 8.3l.1.3v-.3zm0 0zm-.1.1v-.1H6v.1h-.1zm0 0zm-.1.2v-.1.1zm-.2.4v-.1h.1V8.5 9l-.1.1zm0 0zm.3-.2V9l-.1.1h-.2.2v-.1H6zm.2-.3v.2H6v.1-.2h.1zm0 0zm0 0" fill="#21231e"/><path d="M412.1 584.6c-3 0-7 2-18.5 11.8-5.2 10.3-10 20.6-17.1 29.4a35.8 35.8 0 01-6.1 3.3 76 76 0 01-16.9-.6c-4.4-4-11.2-1.2-8.9 3.3-1.9 1.5 2.1 7.8 5.2 5.3 3-2.5 13-.3 16.4-1.5-1.2 3-10.3 5-16.9 5.5-5.6.3-5.4 6-2.8 10.5 2.6 1.8.5-.5 1.4.8 2.6 4 8.2 3.5 8.2-.5.2-4 13.8-8.8 16-11.8-2.6 5.8-8.3 11.3-11 17-3.1 3-5 3.8-1 10.1 4.2-.5 4.4-1.5 7.2 1 5.9-.7 7-2.5 5.9-7.3-1-5 3.3-14 4.7-16.5 1.2-2.5 1.4-4.8 2.8-6.3 2.1-2.5 12.7-7.8 15.2-6.3 5 2.5 8.7 1 9.4-3.8-1.6-1.2-.5-8-4-8.2-2.8-.3-4.2.7-7 2.7-4 3.3-5.9 5-7.3 4.5-3-.7 5.9-5 13.9-15.5 11-14.6 11.7-21.9 11.2-26.9zm0 0" transform="matrix(-.01667 0 0 .01556 15 0)" fill="#edb92e" stroke="#21231e"/><path d="M387.9 701.1c8 6.3 15.2-8.3 8-27.6-5-14-30.8-8.5-16.5 10.5.7 1 1.7.8 1.4-.2-1-4 1.7-6.3 5.6-5.5 10.6 2 11 21.8-.7 17.5-2-.2-.2 4 2 5.6zm0 0" transform="matrix(.01667 0 0 .01556 1.7 0)" fill="#edb92e" stroke="#21231e"/><path d="M345.3 634.6c-4.2-2.3-6.3-2.3-8.2-.5-.7 1-1.6.5-1.2-1 2.8-6.3 7-7 10.8-4.3l2.8 2.8c-.7 1-3.7 2.2-4.2 3zm57.2-5.8c4.5-3 8.4-3.5 10.5-2 1.5 1 2.6.5 1.5-1-4.5-6.3-9.7-6.5-13.4-3-1.4 1-2.1 2-2.8 3 1.2 1.5 4.2 3 4.2 3zM369 664.5c.2-.3-1-5.6-2.6-7-1.4 1-3 2-4.2 3.4-4.2 4.6-4 11 2.3 16.6 1.7 1.5 2.6 0 2-1.5-1.3-2.8.1-6.5 2.7-11.5zm-16.4-13.6c-4 1.8-5.4 3.8-5.2 6.5 0 1.5-1 2-1.4.3-5-11.3 0-13.3 7.5-13 .2 2-.7 6.2-1 6.2zm0 0" transform="matrix(-.01667 0 0 .01556 15 0)" fill="#edb92e" stroke="#21231e"/><path d="M8.7 9.7zm-.1 0zm0 0M8.6 9.6zm0 0zm0 0M8.6 9.5v.1h-.1zm-.2 0h.1zm0 0M8.5 9.5zm-.1 0zm0 0M8.4 9.4zm-.1 0h.1-.1zm0 0" fill="#21231e"/><path d="M462.5 580.6l-9.4-5.3c-4 3-6.8 13.3 0 22.1 8.5 11 12 18.6 14 27.4 6.2-7.8 8.3-16 4.3-24.4-5.1-11-8.7-17-8.7-20zm0 0" transform="matrix(-.01667 0 0 .01556 15 0)" fill="#fff" stroke="#21231e"/><path d="M470.5 573l-9.6-5.5c-4 3-12.5 13.3-5.7 22.1 8.7 10.8 17.4 19.1 19.5 27.6 6.3-8 8.9-16 5-24.3-5.5-11-9.5-17-9.5-20.1zm0 0" transform="matrix(-.01667 0 0 .01556 15 0)" fill="#fff" stroke="#21231e"/><path d="M449.4 569.3l-9.4-5.5c-4 3-7 13.5-.2 22.3a63.7 63.7 0 0113.8 27.4c6.3-8 8.4-16.3 4.4-24.4-5.1-11-8.6-17-8.6-19.8zm0 0" transform="matrix(-.01667 0 0 .01556 15 0)" fill="#fff" stroke="#21231e"/><path d="M8.3 7.3a38 38 0 000 1.2.3.3 0 00.2.2.6.6 0 000-.3 59.7 59.7 0 000-1c0-.3-.1-.3-.2-.1zm0 0" fill="#fff"/><path d="M8.3 8.5V7.2 8.4zm.2.2l-.1-.1v-.1.2zm0 0zm0-.3V8.8v-.2zm0-1v1-1zm0 0zm-.2-.1v-.1h.2v.1-.1h-.2zm0 0zm0 0" fill="#21231e"/><path d="M9 7v1.3l-.2 1c-.2-.2-.3-.6-.3-1v-1-.2H9zm0 0" fill="#fff"/><path d="M9 8.3V7.1v1.2zm0 0zm-.2.9V8.8H9v-.5.6l-.1.1v.1zm0 0zm-.2-1V9.2h.1v.1V9L8.5 9V8.3zm0-.8h-.1v.8V7.3zm-.1 0zm0-.3v.2V7zm0 0zM9 7h-.3.3zm0 0zm0 0zm0 0zm0 0" fill="#21231e"/><path d="M9.2 7.3v1.2l-.3.9c-.2-.2-.2-.8-.1-1v-.9-.3h.4zm0 0" fill="#fff"/><path d="M9.2 8.5V7.3v1.2zm0 0zm-.3.9v-.2H9v-.4h.1v-.2.4l-.1.1v.2h-.1zm0 0zm-.1-1v1V8.4zm0-.9V8.5v-.8zm0 0zm0-.3V7.6v-.2zm0 0zm.4 0h-.4H9.2zm0 0zm0 0zm0 0zm0 0" fill="#21231e"/><path d="M9.4 7.6H9v.8c0 .3-.2 1.1.2 1.3.2-.4 0-.8.1-1.2v-1zm0 0" fill="#fff"/><path d="M9 7.6h.4H9zm0 0zm0 .8v-.8.8zm.2 1.3H9v-.2H9v-1 1.1h.1v.1zm0 0zm.1-1.2V9.6l-.1.2v-.9l.1-.1v-.1zm0 0zm0-1v1V8h.1v-.5zm0 0zm0 0zm0 0zm0 0" fill="#21231e"/><path d="M8 7a29.5 29.5 0 00.2 1.5.5.5 0 00.1-.3A81.2 81.2 0 008 7zm0 0" fill="#fff"/><path d="M8.1 8.2V7v1.1zm.2.3h-.1v-.2H8v.1h.1zm0 0zm0-.3v.2-.2zm0-1.1V8.1 7.1zm0 0zm-.3 0V7h.2v.1h.1V7h-.1v-.1H8V7zm0 0zm0 0zm0 0zm0 0" fill="#21231e"/><path d="M8.7 6.3v1a.8.8 0 01-.1.4.3.3 0 01-.2-.3v-.9a.9.9 0 00.2-.1zm0 0" fill="#fff"/><path d="M8.7 7.3v-.9.5zm-.1.4V7.3v.2zm0 0zm-.2-.3v.2h.1v-.2zm0-.9v.9-.8zm0 0zm.2-.1h-.1v.1h-.1.1v-.1h.1zm0 0zm0 0zm0 0zm0 0" fill="#21231e"/><path d="M8.4 6.5a28 28 0 010 1.2.4.4 0 01-.2-.3 8.8 8.8 0 010-.7l.2-.2zm0 0" fill="#fff"/><path d="M8.4 7.4v-.8V7.3zm0 .3V7.3v.2zm0 0zm-.2-.3v.2h.1-.1v-.1zm0-.7v.7-.7zm0 0zm.2-.2l-.1.1h-.1v.1h.1v-.1h.1zm0 0zm0 0" fill="#21231e"/><path d="M8.6 6.3L9 6v1.4a.5.5 0 01-.1.3s-.2-.2-.1-.3v-1zm0 0" fill="#fff"/><path d="M8.9 6l-.3.3L9 6zm0 0zm0 1.4V6 7.4zm0 0zm-.1.3v-.2H9v-.1.2h-.1zm0 0zm-.1-.3v.2-.1zm0-1v-.1 1.1V6.2zm0-.1zm0 0zm0 0zm0 0" fill="#21231e"/><path d="M9.1 7v.4a.5.5 0 010 .3l-.2-.3L8.8 6H9c.1.5.2.9.1 1zm0 0" fill="#fff"/><path d="M9.1 7.4V7v.1zm0 .3V7.3v.2zm0 0zm-.2-.3v.2H9v-.1h-.1zM8.8 6V7.5l.1-.1V6h-.1zm0 0zM9 6v-.1h-.1V6h-.1.2zm0-.1zM9.1 7V6L9 5.9v.7h.1V7zm0 0zm0 0zm0 0zm0 0" fill="#21231e"/><path d="M9.3 7.3v.3l-.2.3a.3.3 0 010-.3 4 4 0 00-.2-1.8c.4.3.6.8.4 1.5zm0 0" fill="#fff"/><path d="M9.3 7.6v-.3.3zm0 0zm-.2.3l.1-.1v-.2.2zm0 0zm0-.3v.2-.1zm-.2-1.8V6l.1.1V7.6 5.8zm0 0zm.4 1.5V6.2L9.1 6V6H9v-.1H9h.1V6l.1.1v.1l.1.1v1zm0 0zm0 0zm0 0zm0 0" fill="#21231e"/><path d="M9.3 7.6l.4-.1c0 .3 0 .7-.2 1.2v1c-.3 0-.4-.5-.3-1.3l.1-.8zm0 0" fill="#fff"/><path d="M9.7 7.5h-.4.4zm0 0zm-.2 1.2v-.1l.1-.1V7.4 8.7zm0 1V8.7 9.8zm0 0zm-.3-1.3v1.1h.1v.1h.1v.1h.1-.1v-.1h-.1v-.2h-.1v-.9zm.1-.8V8.4v-.8zm0 0zm0 0M9.3 9zm.1-.5V9.2v-.6zm.1-.8v.7h-.1V8l.1-.1V7.7zm0 0zm0 0" fill="#21231e"/><path d="M9.3 5.7h-.2v.4c.2.4.2.8.2 1.3A1.4 1.4 0 019 8c.3 0 .4-.3.4-.7v-1l-.2-.5zm0 0" fill="#fff"/><path d="M9.1 5.8h.2v-.1h-.2zm0 0zm0 .3h.1V5.7 6.2zm.2 1.3V6h-.1V7.4zM9 8v-.1h.1V7.4 7.9zm0 0zm.4-.7v.5h-.1l-.1.1h-.1.2v-.2h.1v-.4zm0 0zm0-1V7.3v-1zm-.2-.5V6h.1v.2-.4zm0 0zm0 0zm0 0zm0 0" fill="#21231e"/><path d="M9.5 5.8h-.1v2c.2 0 .3-.3.3-.7v-1a.4.4 0 00-.2-.3zm0 0" fill="#fff"/><path d="M9.4 5.9v-.1zm0 0zm0 .3V5.8v.2zm0 0zm0 .3V6.1v.2zm0 1.3v-.6h.1v-.7V7.6l-.1.2zm0 0zm.3-.7v.5h-.1v.1h-.2.2v-.2h.1V7.1zm0-1v1V6.1zm0 0zm-.2-.3V6h.1V6v-.2h-.1zm0 0zm0 0" fill="#21231e"/><path d="M8.9 6H9v.4a.6.6 0 010 .4l-.2-.3v-.4zm0 0" fill="#fff"/><path d="M9 6H9 9zm.1 0zm0 .4V6 6.4zm0 .4V6.4 6.9zm0 0zm-.2-.3v.2H9v.1-.2zm0-.4v.4V6zm0 0zm0 0zm0 0zm0 0" fill="#21231e"/><path d="M8.3 6.5h.2V7a.5.5 0 01-.1.2.3.3 0 01-.1-.2v-.4zm0 0" fill="#fff"/><path d="M8.5 6.5h-.2.2zm0 0zm0 .4v-.3.1zm0 .2h-.1V7h.1v-.1.2h-.1zm-.1 0zM8.3 7v.2h.1V7h-.1zm0-.4V7 6.6zm0 0zm0 0" fill="#21231e"/><path d="M8 6.6h.3V7a.5.5 0 01-.1.2A.3.3 0 018 7v-.4zm0 0" fill="#fff"/><path d="M8.3 6.6H8h.2zm0 0zm0 .4v-.4.3zm-.1.2V7v.2zm0 0zM8 7v.2V7zm0-.4V7 6.5zm0 0zm0 0zm0 0" fill="#21231e"/><path d="M8.5 6.4h.2v.3a.6.6 0 010 .3.4.4 0 01-.2-.2v-.4zm0 0" fill="#fff"/><path d="M8.7 6.4h-.2.2zm0 0zm0 .3V6.3v.2zm0 .3V6.6 7zm0 0zm-.2-.2V7l.1.1v-.1zm0-.4v.4V6.4zm0 0zm0 0" fill="#21231e"/><path d="M8.7 6.2h.2v.7a.4.4 0 01-.2-.3v-.4zm0 0" fill="#fff"/><path d="M8.9 6.1l-.2.1h.2zm0 0zm0 .8v-.7.7zm0 0zm-.2-.3v.2h.1V7v-.2zm0-.4v.4V6.2zm0 0zm0 0zm0 0zm0 0" fill="#21231e"/><path d="M387.7 701.1c8 6.3 15.3-8.3 8-27.6-5-14-30.5-8.5-16.4 10.5.7 1 1.6.8 1.6-.2-.9-4 1.7-6.3 5.4-5.5 10.6 2 11 21.8-.4 17.5-2.4-.2-.5 4 1.6 5.6zm0 0" transform="matrix(-.01667 0 0 .01556 15 0)" fill="#edb92e" stroke="#21231e"/><path d="M400 639c-1 3.6-5 7.9-8 10.9-4.5 5-3.3 12.3-.3 16 3.5 4.6 5.2 9.4 5.9 13.1.4 2.3 1.4 7.3 1 15.6-.6 4-2.9 6-5.2 7.5-1 1 .4 3 4.4 6 .2.3 1.4 1 1.9 3 .2.6 2.1.6 2.1 0 .5-2 1.6-2.7 2.1-3 3.8-3 5.4-5 4.2-6-2-1.5-4.7-3.7-4.9-7.5-.7-8 .2-13.3.7-15.6.7-3.7 2.3-8.5 6.1-13 2.8-3.8 4-11-.7-16.1a40 40 0 01-8.7-11.6c-.2 0-.7.3-.7 1zm0 0" transform="matrix(-.01667 0 0 .01556 15 0)" fill="#edb92e" stroke="#21231e"/><path d="M8.5 10.7h-.2.2zm0 0" fill="#edb92e"/><path d="M8.3 10.7h.2-.2zm0 0zm0 0zm0 0zm.2 0h-.2.2zm0 0zm0 0zm0 0zm0 0" fill="#21231e"/><path d="M8.1 9v-.2s.3 0 .3.2l.3.4-.4-.1c0-.2-.1-.3-.2-.3zm0 0" fill="#fff"/><path d="M8.1 8.8V9v-.2zm0 0zm.3.2v-.1h-.2.2zm.3.4v-.1h-.1v-.1L8.4 9V9v.2h.1v.1h.1zm0 0zm-.3-.1h.1v.1h.2H8.4v-.1zM8 9l.1.1v.1h.1V9h-.1V9zm0 0zm0 0" fill="#21231e"/><path d="M8 9h.2l.1.3a.5.5 0 010 .3.4.4 0 01-.2-.2L8 9zm0 0" fill="#fff"/><path d="M8.2 9H8h.2zm0 0zm.1.3V9h-.1v.1h.1v.1zm0 .3l.1-.1v-.2.2zm0 0zm-.1-.2v.1h.1-.1v-.1zM8 9V9.4h.1V9H8zm0 0zm0 0" fill="#21231e"/><path d="M8 9H8l.1.3a.5.5 0 010 .3.4.4 0 01-.2-.2V9zm0 0" fill="#fff"/><path d="M8.1 9H8h.2zm0 0zm.1.3V9 9.4zm0 .3v-.2.2zm0 0zM8 9.5v.2h.1v-.1H8zM8 9v.4V9zm0 0zm0 0zm0 0" fill="#21231e"/><path d="M7.9 8.8h-.1c-.1 0-.2.2 0 .3v.5c.2-.1.2-.3.2-.4l-.1-.4zm0 0" fill="#fff"/><path d="M7.8 8.8h.1-.1zm0 0zm-.1.3V8.7 9.2zm.2.5V9.3h-.1V9v.4zm0 0zm.1-.4V9.6h-.1.1V9.1zM8 8.8v.4H8V8.8h-.1v-.1zm0 0zm0 0zm0 0zm0 0" fill="#21231e"/><path d="M7.8 8.7H8l.2.2a.5.5 0 010 .3.3.3 0 01-.2-.1l-.2-.4zm0 0" fill="#fff"/><path d="M8 8.6h-.2.2zm0 0zm.2.3v-.1H8v-.1.2zm0 .3V9v.2zm0 0zM8 9.2v.1h.2H8L8 9zm-.2-.4v.1H8V9 8.6zm0 0zm0 0zm0 0zm0 0" fill="#21231e"/><path d="M8 8.6v-.3l.2.1a.3.3 0 010 .2.9.9 0 00.3.4L8.1 9 8 8.6zm0 0" fill="#fff"/><path d="M8 8.3v.3-.3zm0 0zm.2.1H8v-.1.1zm0 0zm0 .2h.1v-.1.1zm.3.4v-.1h-.1v-.2l-.1-.1v.2h.1V9h.1zm0 0zm-.4-.2V9h.1V9H8.6h-.2l-.1-.1zM8 8.5v.2h.1v.1-.1L8 8.5zm0 0zm0 0" fill="#21231e"/><path d="M536.5 415.1l4.7-1.5a64.2 64.2 0 01-21.4-22.1c-7.7-12 3.3-32.9 8-44.2a54 54 0 0021.1-31.1c1.2-7.3-19-4.8-32.8 2-17.1 8-19.5 5.7-25.5 7-2.2 10.5 2.3 11.3 6.7 11a104 104 0 00-15 51.3 113 113 0 00-15.2-51.5c4.2.7 9-.3 6.6-10.6-5.9-1.5-8.5.8-25.3-7.2-14.1-6.6-34-9-33-1.8a51.7 51.7 0 0021.2 30.9c4.5 11.3 15.7 32.4 8 44.2a64.9 64.9 0 01-21.5 22 17.7 17.7 0 005.1 1.6c-1.4 1.5-11 4.5-12.4 3.8-7.5-5.3-15-18.1-21.3-25.4-18.3-20.6-27.5-36.7-24.2-49.5 4.7-14 20.9-29.6-.7-27-21.8 3-39.6 32.6-45.5 68.2-1.8 13.3-3.2 24.6-4.6 33.7 12-4.3 17-8.6 20.1-13.8-1.4 5-2.3 9.7-3 14.3 9.6-1.8 16.6-6.6 19.2-15.1 1-3.5 2-6.5 3.5-9 3 1 7 1 11.5 0 1.9 4 15 19 22.2 30 8 12.1 20.2 21.7 24.2 22 2.1.4 2.8-4 2.3-10.1 20.9 0 42.2.2 63-.5 20.7.7 41.8.5 62.9.5-.5 6 0 10.5 2.1 10.3 4-.5 16.2-10 24.4-22.4 7-10.8 20.4-25.6 22-29.8 3.8 1.2 8 1.2 11.7.2 1.2 2.5 2.6 5.3 3.5 8.8 2.4 8.8 9.4 13.3 19.3 15-.7-4.5-2-9-3.3-14 3.3 5 8.4 9.3 20.1 13.8-1.4-9-2.5-20.3-4.6-33.6-6-35.7-23.7-65.6-45.5-68-21.6-2.9-5.4 12.7-.7 26.8 3.3 12.8-5.9 28.6-24 49.5-6.5 7.2-13.8 20-21.5 25.3-1.2.8-11-2.2-12.2-4zm0 0" transform="matrix(.01667 0 0 .01556 -1 0)" fill="#fff" stroke="#21231e"/><path d="M6.3 5.5H6l-.4-.1.3.1h.4zm0 0" fill="#edb92e"/><path d="M6 5.6H6.3h-.1zm0 0zm-.4-.2v.1H6 5.6v-.1zm.3.1h-.2v-.1h.1v.1H6zm.4 0H6h.2zm0 0zm0 0zm0 0zM6 5zm.2 0H6h.2zm.2.1h-.1zm0 0zm.4.1zm-.2 0h.1zm0 0zm0 0M6.2 5.2H6V5zm.1-.1h-.1.1zm0 0M6.2 5.1c-.1 0 0 0 0 0zM6 6.4zm.4 0H6 6.5zm0 0zm0 0zm0 0M6.5 6.2zm0 .3v-.2.2zm0 0zm.2-.2v.1h-.2v.1h.1v-.1zm0 0zm0 0M6.7 6.2zm0 .3v-.2.1zm0 0zm.2-.2v.1h-.1v-.1zm0 0zm0 0" fill="#21231e"/><path d="M5.8 5c-.3 0-.3.1 0 .4 0-.1.2-.2.2 0h.1c.2 0 .3.2.1.2H6h.4C6.6 5.6 6 5 6 5s-.2-.2-.2 0zm0 0" fill="#edb92e"/><path d="M5.8 5.4h-.1v-.1l-.1-.1V5h.1-.1v.2l.1.1zm0 0zm.2-.1h-.1.1zm.2 0H6h.2zm0 0zm0 .3h.1v-.1h-.1v-.1l.1.1zm-.2 0h.2H6zm0 0zm0 0zm0 0zm.4 0H6h.4zM6 5v.1h.1v.1h.1v.1l.1.1v.1h.1v.1-.1h-.1v-.2h-.1L6 5.1 6 5zm-.2 0v-.1H6V5v-.1h-.1zm0 0zm0 0zm0 0zm0 0" fill="#21231e"/><path d="M5.8 5zm.1.1h-.1V5H6v.1zm0 0zm-.2 0zm-.7.5zm-.4 1v-.4h.1V6h.1v-.2H5v-.1.2h-.1v.2l-.1.2v.2h-.1zm0 1.2V6.6 7.8h.1zm.1 0zm0 0" fill="#21231e"/><path d="M7.7 5.5H8l.4-.1-.3.1h-.3zm0 0" fill="#edb92e"/><path d="M8 5.6h-.2.1zm0 0zm.4-.2v.1H8h.4v-.1zm-.3.1H8.5v-.1h-.1v.1H8zm-.3 0H8.2h-.2zm0 0zm0 0zm0 0zM8 5zm-.3 0H8h-.1zm-.1.1h.1-.1zm0 0zm-.4.1zm.2 0h-.2.1zm0 0zm0 0M7.9 5.2V5H8h-.1zM7.8 5zm0 0" fill="#21231e"/><path d="M8 5.1a1 1 0 01-.2 0H8zm0 1.3zm-.4 0H8 7.6zm0 0zm0 0zm0 0M7.5 6.2zm.1.3v-.2.2zm0 0zm-.2-.2v.1h.1v.1h.1-.1v-.1h-.1zm0 0zm0 0" fill="#21231e"/><path d="M7.4 6.2zm0 .3h-.1v-.2h.1v.1h-.1zm0 0h-.1zm-.2-.2v.1h.1-.1v-.1zm0 0zm0 0" fill="#21231e"/><path d="M8.3 5c.3 0 .3.1 0 .4 0-.1-.2-.2-.2 0h-.2c-.1 0-.2.2 0 .2H8h-.4c-.2 0 .4-.6.4-.6s.1-.2.2 0zm0 0" fill="#edb92e"/><path d="M8.3 5.4l.1-.1v-.1h.1V5h-.1.1v.2h-.1v.1zm0 0zM8 5.3h.1H8zm-.2 0H8zm0 0zm0 .3h-.1v-.2H8h-.1v.1zm.2 0h-.2.2zm0 0zm0 0zm0 0zm-.4 0H8 7.6zm.4-.6v.1H8v.1h-.1v.1h-.1v.1l-.1.1v.1-.1l.1-.1v-.1l.2-.1V5h.1zm.2 0v-.1H8V5l.1-.1h.1zm0 0zm0 0zm0 0zm0 0M8.3 5zm-.1.1V5h.1-.1v.1zm0 0zm.1 0zm.8.5zm.4 1V6.2l-.1-.1V6L9.2 6v-.2h-.1v-.1H9v.1h.1V6l.1.1v.2h.1V6.6zm-.1 1.2v-.5l.1-.1v-.6V7.7h-.1v.1zm0 0zM6.9 6.2V6.6h.2V6.1 6.6H7v-.2l-.1-.1zm0 0" fill="#21231e"/><path d="M8.2 6.6v1.7l-.4.7c-.2.2-.5.3-.8.3a1.1 1.1 0 01-1-1V6.6h2.2zm0 0" fill="#c6363c"/><path d="M459 567.4v-39.5c-8.5-2.2-29.3-10.5-30.3 7.6-.4 8.5 10.4 14 13.4 6.5 1.4-3.3 0-6-2.1-6.5-2.3-1-4.7 1-4 3.5-8.9-4.8 8-14.6 15.5-1.8 2 3.8-3.8 7.8-3.8 10.6 0 2.5 5.9 7 3.8 10.3-7.7 12.8-24.4 3-15.5-1.8-.7 2.8 1.7 4.5 4 3.8 2.1-1 3.5-3.5 2.1-6.8-3-7.5-13.8-2-13.4 6.3 1 18.3 22 10 30.3 7.8zm0 0" transform="matrix(-.01667 0 0 .01556 15 -1.4)" fill="#fff" stroke="#21231e"/><path d="M549.1 488.7v27.8h-53v83.2a67 67 0 01-14 1.5c-4.7 0-9.4-.5-13.8-1.5v-83.2h-53v-27.8h53v-66.8h27.9v66.8zm0 0" transform="matrix(.01667 0 0 .01556 -1 0)" fill="#fff" stroke="#21231e"/><path d="M459 567.4v-39.5c-8.3-2.2-29.4-10.5-30.3 7.6-.5 8.5 10.3 14 13.3 6.5 1.4-3.3 0-6-2-6.5-2.4-1-4.5 1-4 3.5-8.7-4.8 8-14.6 15.4-1.8 2.4 3.8-3.5 7.8-3.5 10.6 0 2.5 5.6 7 3.5 10.3-7.5 12.8-24.1 3-15.5-1.8-.4 2.8 1.7 4.5 4 3.8 2.1-1 3.5-3.5 2.1-6.8-3-7.5-13.8-2-13.3 6.3 1 18.3 22 10 30.4 7.8zm0 0" transform="matrix(.01667 0 0 .01556 -1 -1.4)" fill="#fff" stroke="#21231e"/><path d="M459 567.3V528c-8.3-2.5-29.4-10.8-30.3 7.5-.5 8.3 10.3 14.1 13.3 6.6 1.4-3.6 0-6-2-6.8-2.4-.8-4.5 1-4 3.5-8.7-4.5 8-14.6 15.4-1.5 2.4 3.5-3.5 7.5-3.5 10.3 0 2.8 5.6 7 3.5 10.3-7.5 12.8-24.1 3-15.5-1.5-.4 2.5 1.7 4.5 4 3.5 2.1-.8 3.5-3.3 2.1-6.8-3-7.5-13.8-2-13.3 6.5 1 18.1 22 10 30.4 7.6zm0 0" transform="matrix(.01667 0 0 .01556 -1 0)" fill="#fff" stroke="#21231e"/><path d="M459 567.3V528c-8.5-2.5-29.3-10.8-30.3 7.5-.4 8.3 10.4 14.1 13.4 6.6 1.4-3.6 0-6-2.1-6.8-2.3-.8-4.7 1-4 3.5-8.9-4.5 8-14.6 15.5-1.5 2 3.5-3.8 7.5-3.8 10.3 0 2.8 5.9 7 3.8 10.3-7.7 12.8-24.4 3-15.5-1.5a2.9 2.9 0 004 3.5c2.1-.8 3.5-3.3 2.1-6.8-3-7.5-13.8-2-13.4 6.5 1 18.1 22 10 30.3 7.6zm0 0" transform="matrix(-.01667 0 0 .01556 15 0)" fill="#fff" stroke="#21231e"/><path d="M5.9 6.5v2.1H6v.2h.1V9l.1.1h.1v.1l.2.1h.1v.1H7.7v-.1h.1V9h.1V9H8v-.1H8v-.2h.1V6.6zm0 0h2.2v2.2H8v.1l-.1.1V9h-.1v.1h-.2v.1h-.2v.1h-.7l-.2-.1h-.1V9h-.1V9h-.1v-.1H6v-.2H6v-.4zm0 0" fill="#21231e"/></svg>