<svg xmlns="http://www.w3.org/2000/svg" width="20" height="14"><path fill="#199d00" d="M0 0h20v14H0z"/><path d="M4.4 4c0 .3 0 .9.3 1 .3 0 .1-.6.3-.7 0-.1 0-.1 0 0v.5l.2.2.2.1V6s.3 0 .3-.5v-.7h.1l.3.1c.2 0 .4-.2.4-.3a1.1 1.1 0 00-.1-.5V4l-.1-.3-.3.1c0 .2 0 .4.2.5a.4.4 0 010 .2h-.1l-.2-.1V4l-.1-.2h-.2v.5l.1.2h-.1a1.8 1.8 0 010-.5l-.2-.5h-.1v1c0 .3-.1 0-.1 0v-.6h-.1c-.1 0-.2 0-.3.3v.3c0 .1-.1.2-.2 0 0-.2 0-.6-.2-.5zm0 0" fill-rule="evenodd" fill="#fff"/><path d="M5.4 5.3l-1 .4c0-.2.5-.5.8-.5l.2.1zm0 0" fill-rule="evenodd" fill="#fff"/><path d="M5.2 5.6c-.5 1.2 1.2 1.3 1.4 0 0 1.2-1.2 1.3-1.4.9a1 1 0 010-.4c-.1-.2-.2-.1-.3 0v.4c0 1 1.7.5 2-.3v-.7c.1.2.4 0 .4 0h.1l.4-.1v-.5l-.1.1v.1h-.1c0-.1-.2-.2-.3 0 0 .1-.2.1-.2 0s0-.1-.2 0l-.2-1H7l-.3-.6c-.1 0-.2 0-.2.2L6.6 5v.1L6.1 5c-.2 0-.3.2-.3.3v.3c0 .2.2.1.3.1 0 0 .2-.1.2 0 0 0 0 .2-.4.4-.3.1-.5.2-.6 0 0-.2 0-.6-.2-.5zm0 0" fill-rule="evenodd" fill="#fff"/><path d="M7.3 4.4l.6-.6c-.1 0-.1 0 0 0v-.3a.3.3 0 00-.3 0s-.1.1 0 .2v.1l-.6.6h.3zM4.5 6.2c-.2.2-.2.6-.1.7 0 0 .1.1.2 0l.1-.2c0-.1 0-.1 0 0l-.2-.1v-.4c0-.1 0-.1 0 0zm7.5-.5l-.5-.8a14.5 14.5 0 00-.7-1c-.2-.2.3.1 0-.3l-.3-.2s-.2-.1-.2 0a.7.7 0 000 .3l.1.2A15.2 15.2 0 0112 6.2v-.5zm0 0" fill-rule="evenodd" fill="#fff"/><path d="M11.3 6.9s0 .2.2.2c.3 0 .5-.2.7-.5a.9.9 0 00.1-.4 8 8 0 00-.1-2 .3.3 0 010-.1V4l-.1-.5s0-.1-.1 0a.7.7 0 00-.1.4L12 6v.2a2.4 2.4 0 01-.8.6zm3.4 0c-.2 0-.2.2 0 .2s.5 0 .7-.3l.1-.5a8 8 0 00-.1-2v-.1h.1l-.3-.6h-.1a.6.6 0 000 .4l.2 2.3v.2l-.3.2-.3.2zm0 0" fill-rule="evenodd" fill="#fff"/><path d="M14.8 6.1v-.5a.9.9 0 000-.4l-.1-.3v-.4a1.4 1.4 0 01-.1-.3h.1l-.2-.6c0-.1-.1 0-.2 0v.3c.2 1 .3 1.7.3 2.6l.2-.4zm-1.3-1l-.4-.4a.2.2 0 010-.2H13.4c0-.2.1-.2.2-.1v.2l-.1.4zm-2.1 1.2v-.9l-.1-1.2v-.1l-.3-.6h-.1V4a7.8 7.8 0 01.2 2.7l.3-.4zm0 0" fill-rule="evenodd" fill="#fff"/><path d="M15.2 6l-.6-.9-.8-1c-.3-.3 0 0 0-.2l-.4-.3s0-.1 0 0a2 2 0 000 .3v.2c.6.7 1.3 1.4 1.8 2.3v-.5zm0 0" fill-rule="evenodd" fill="#fff"/><path d="M6 5.3v.1h.2c0-.1 0-.1-.1 0zm0 0" fill-rule="evenodd" fill="#1ba400"/><path d="M12.9 10H13.8c.4-.1.4.3.4.3 0 .3-.1.3-.3.3h-.1a.5.5 0 01-.2 0h-.7-.1l-.1-.3-3.3-.1H7c-.4 0-.8 0-1-.4H9l3.6.1v-.3l.1.1c.2 0 .1.2 0 .2zM8 3.6c-.2.5.1 1 .3 1 .2 0 .3-.2.3-.5 0 0 .1-.1.1 0l.1.5c.3.2.5 0 .5 0l.2-.1h.1l.2.1h.3l.1-.2h.2c0 .1 0 .1 0 0 .2 0 .2-.2.2-.2h-.1-.3v-.4s-.1-.1 0-.1v-.3h-.3l-.1.1a.3.3 0 000 .3l.2.4-.2.1-.2-.3v-.7s-.1-.2-.2 0v.3a1 1 0 010 .5l-.1.2H9l-.2-.2v-.5c0-.1-.1-.1-.2 0s-.3.3-.3.6c0 .1-.1 0-.2 0 0 0 0-.7-.2-.6zm0 0M8.6 4.8s0-.1.1 0c.2.2.3.5.3.8v.1c.1-.1.5-.4 1-.4v-.2a.4.4 0 01.3-.4c.3 0 .4.2.4.4 0 .4-.5.5-.8.5H11v.1a.8.8 0 00-.1.4l-1 .2c-.1 0-.2.1-.1.2l.3.2v.2c-.6 0-1-.2-1.1-.5h-.1c-.3.3-.5.5-.8.6a.5.5 0 01-.5-.1l-.1-.2c-.1 0-1 .4-1 .2l1-.6.2-.4V6l.5-.4v-.2c0-.2-.1-.2-.2-.3v-.3h.3l.2.3h-.2a.5.5 0 01.1.2V6c-.2.4-.4.5-.6.6v.2h.3l.7-.7-.1-.6a6.4 6.4 0 01-.2-.4v-.2zM5.8 3.7l.3-.1v-.1H6 5.6v.2zm0 0" fill-rule="evenodd" fill="#fff"/><path d="M9.4 5.1c.1 0 .4 0 .3-.1v-.1H9.3s-.1 0 0 0c-.1 0-.1.2 0 .2zm2.1-.6c.1.1.4 0 .3-.1v-.1h-.1-.1-.1v.2zm1 1.5v.7l.3.3h.3l.1-.5c0-.1.2-.1.2 0h.2a.3.3 0 00.4 0 .4.4 0 00.2-.1V4.5A3.7 3.7 0 0014 4h.1l-.3-.6a.2.2 0 00-.1.2V4l.1.6.1 1.2-.1.4h-.2l-.2-.3h-.2l-.4.7h-.2c-.2-.3 0-.8-.1-.7zm-1-2.5c.2 0 .2.2.2.3l-.1.3v-.3l-.2-.2.2-.1zm0 0" fill-rule="evenodd" fill="#fff"/><path d="M13 6.2v-.6a17.8 17.8 0 00-.3-1.4c0-.2.2 0 .2-.1l-.4-.5c0-.1 0-.2 0 0l-.1.5.3 2.4.2-.3zm1.8-2.4l.2.4-.1.3v-.3l-.2-.3s0-.1.1 0zM7.3 5.7l.2.3-.1.2V6l-.2-.2.1-.1zm0 0" fill-rule="evenodd" fill="#fff"/><path d="M9.7 6c.1 0 .2 0 0 .1 0 0-.2 0-.2.2s0 .2-.1.1c0 0-.3-.1-.3-.4h.6zm0 0" fill-rule="evenodd" fill="#1b9d00"/><path d="M4.8 3.4l.1.3-.1.2v-.2l-.1-.2v-.1zm2.8 1c-.1 0-.2.1-.1.2 0 .1.2 0 .2 0l.1-.1h-.2a.2.2 0 010-.1s0-.1 0 0zm.8-1s-.2 0-.2.2v.1h.2v-.1-.2s0-.1 0 0zm.7 0a1.4 1.4 0 000 .3c-.1.1 0 .1 0 0l.1-.3h-.1zm4.1 2zm.5 0l.2.4c0 .1-.1.3-.2.2v-.2-.3c-.1 0 0-.1 0 0zm-3.4 1.2a.7.7 0 01.2-.1h.1v.2a.4.4 0 01.3 0c.1 0 .1 0 0 0l-.3.2h-.1v-.2h-.2v-.1zm4 .1V7s-.1.1 0 .1l.3-.1v-.1h-.1a.2.2 0 000-.1v-.1h-.2v.1zm0 0" fill-rule="evenodd" fill="#fff"/><path d="M10.4 5.2h-.2V5h.2zM7.7 3.7v-.1.1zm0 0" fill-rule="evenodd" fill="#259f00"/><path d="M13 10.3h.7v.1h-.2-.3-.3v-.1zm0 0" fill-rule="evenodd" fill="#209000"/></svg>