<svg xmlns="http://www.w3.org/2000/svg" width="20" height="14"><path fill="#fff" d="M0 0h20v14H0z"/><path d="M-.6 0h22.5v7H-.6zm0 0" fill-rule="evenodd" fill="#df0000"/><path d="M4.6 1.2c-1.3.2-2.1 1.2-2.1 2.4s.9 2.2 2 2.4a2.9 2.9 0 01-2-.2 2.6 2.6 0 01-1.2-1.5C.9 2.9 1.7 1.6 3 1.2c.5-.2 1-.2 1.5 0zm0 0" fill-rule="evenodd" fill="#fff"/><path d="M4.2 3.2l.1.4-.4-.2-.4.3.1-.5-.4-.3h.5l.2-.4.2.4h.5zm.5 1.5l.2.5-.4-.3-.4.3.1-.5-.4-.2h.5l.1-.5.2.4h.5zm1.8 0l.2.5-.4-.3-.4.3.1-.5-.4-.3h.5l.2-.4.1.4H7zm.6-1.5l.1.4-.4-.2-.4.3.2-.5-.4-.3h.5l.1-.4.2.4h.5zm-1.5-1l.2.5-.4-.3-.4.3.1-.5-.4-.3h.5l.2-.4.1.4H6zm0 0" fill-rule="evenodd" fill="#fff"/></svg>