<svg xmlns="http://www.w3.org/2000/svg" width="20" height="14"><path fill="#006" d="M0 0h20v14H0z"/><path d="M0 2.1h2.4L0 .8V0h1.4l3.3 1.9V0h1.9v1.9L9.9 0h1.4v.8L8.9 2h2.3v2.2H9l2.3 1.3v.8H10L6.6 4.5v2h-2v-2l-3.2 2H0v-.9l2.4-1.3H0zm0 0" fill="#fff"/><path d="M10.4 0L6.6 2.1h1L11.2 0zm.9 6.4L7.5 4.3h1l2.7 1.6v.5zM3.8 2.1L0 0v.5l2.9 1.6zm0 2.2L0 6.4h.9l3.8-2.1h-1zm0 0" fill="#ce1126"/><path d="M0 2.6h5V0h1.2v2.6h5v1.2h-5v2.6H5V3.8H0V2.6zm0 0" fill="#ce1126"/><path d="M399.7 640.8c0 16.3-2.6 33.9-23.8 42.3-21.1-8.4-23.7-26-23.8-42.3zm0 0" transform="matrix(.1402 0 0 .13086 -37.2 -76.1)" fill="#8fc5ff" stroke-width="1.1" stroke="#fff"/><path d="M376 683a34.1 34.1 0 0018.7-16h-2c-.6-.1-20.3-2-22.7-3-2-.7-9.8.7-13.4 2a33.9 33.9 0 0019.3 17zm0 0" transform="matrix(.1402 0 0 .13086 -37.2 -76.1)" fill="#366cc9" stroke-width="1.1" stroke="#000"/><path d="M361.1 673h1.2c.3 0 .3 0 .4-.3.1-.3.4-.2.6-.1.2 0 .6 0 .8-.2.2-.2.2-.2.4 0s.3.1.5 0c.1 0 .5-.2.6-.5.1-.3.4-.4.5-.2.1.2.3.2.5.2s.2.1.2.4c0 .2 0 .3.5 0 .4.3.5 0 .5-.3 0-.4 0-2-.2-2-.2-.2-.3-.9-.4-1.4 0-1 0-1-1-1.5 0-.3-.2-.4-1-.4 0-.1 0-.4-.2-.5-.2-.1-.2-.2 0-.6.2 0 .6 0 .7-.3.2-.2.8-.2 1.2 0 .4.2.8.2 1.5 0l1.2-.6c.5-.3.6-.4.6-.8 0-1-.3-2-.5-2.5-.3-.5-.3-1-.7-1.9-.4-.8-.4-1-.8-1.5-.2-.2-.3-.3-.3-.6a1.7 1.7 0 00-.5-1c-.8-.7-1-3-1.4-4.7-.2-1 0-3.3-.4-3.7-.7-.5-1-.4-1.5-.6-.4-.5-.5-1.4-.9-2.3-.5.1-.8.6-1.1.8-.3.2-.4.2-.4.7 0 .4-.3 1-.7 1.8-.4.8-1.3.5-2 1.6-1.4-1.7-1.4-2.2-1.5-2.7 0-.5-.3-.6-1.1-1.3v-1.5c-.7-.5-1.1-.4-1.4 0-.3.3-.5.8-1 1-.2.4-1 1.2-1.6 2.3.6 9 2.6 18 8.7 25.2zm0 0" transform="matrix(.1402 0 0 .13086 -37.2 -76.1)" fill="#5d3100" stroke-width=".1" stroke="#000"/><path d="M399.7 640.8c0-6.2-.3-12.2-.2-17.4a63.2 63.2 0 00-23.6-4.3c-5.3 0-15.7.8-23.6 4.3.2 5.2-.2 11.2-.2 17.4zm0 0" transform="matrix(.1402 0 0 .13086 -37.2 -76.1)" fill="#ff0" stroke-width="1.1" stroke="#fff"/><path d="M12.3 8.7l.1.2v-.1l.1-.1v.9h.4l.1.1V10c.1 0 0 0 0 0l.1.2a.9.9 0 01.2.4v.2l.1.5h.4v.4l.1.1v-.2-.1-.1h.1v.2h.1v.2h.2a.8.8 0 000-.2.6.6 0 010-.2h-.1v-.1H14v-.1H14V11l-.1-.1v-.1l-.1-.2V11s0-.1-.1 0v-.1-.2a3 3 0 00-.1-.3s0-.1 0 0v.1c.1.1.1.1.1 0l-.2-.4v-.5h-.1v-.2V9.7s-.1 0 0 .2l-.1-.1v-.1.1h-.1v-.2a.5.5 0 000-.3v-.2l-.3-.3v-.2a.6.6 0 00-.2-.1v-.2h-.2v.2c-.1 0-.2 0-.2.2zm0 0" fill="#cf6200"/><path d="M12.6 9.7h.3v.2l.1.3.2.3v.3l.2.3v.1s0 .1 0 0h-.1v.1h.1l.1.1h.2v.1l.1.2v.1h-.1s0-.1 0 0h-.1-.1v-.1h-.1-.1v-.1l-.1-.1v-.1-.1l-.1-.1-.1-.2-.1-.3v-.1h-.1a.3.3 0 00-.1-.3h-.1v-.1-.2-.1a.2.2 0 000-.2zm.9-1a.9.9 0 01-.2.2s-.2 0-.1.1v.2l.2.1V9.6l.1.1.1.4.2.4v.2a.4.4 0 01.1.2.3.3 0 00.2 0h.4l.1-.2v-.2a.5.5 0 00-.1-.2l-.1-.3-.1-.1v-.1l-.2-.2v-.3L14 9a.1.1 0 010-.1v-.2l-.1-.1-.1-.1-.1-.2h-.1v.7l-.1.1c0 .1 0 .1 0 0v-.1s.1 0 0-.1v-.3zm0 0" fill="#cf6200"/><path d="M12.6 9.9V10zm.6.9v-.3c0-.1 0-.2-.2-.3V10h-.1v.2l.1.2v.1c.1.1.1.2 0 .2h.1l.2.1zm.5.7h-.1l-.2-.1a.1.1 0 01-.2-.1c0-.1 0-.1 0 0h.1v-.1-.1l-.1-.1H13v-.1H13V11.2h.2V11.6h.2s0 .1 0 0h.1c0 .1.1 0 .1 0v.1h.1c0-.1 0-.1 0 0zm.1-1.8v-.3h.2v.3h-.1v.4l.1.1.1.2.1.2.1.1c.1 0 0 0 0 0v.1h-.1l-.2-.1v-.1a.2.2 0 00-.2-.1v.2a.4.4 0 01.1.2.3.3 0 00.2 0h.4l.1-.2v-.2a.5.5 0 00-.1-.2l-.1-.3a.3.3 0 01-.1-.1v-.1l-.2-.2v-.3H14h-.1V9l-.1.2v.4zm-.9-.8V9l-.1-.1V9.3s0 .1 0 0c-.1 0 0 0 0-.1l-.1-.1v-.2l.1-.1.1.2zm.5.5v.2l.1.1.1.4v.2l.2-.1-.1-.2V10v-.1l-.1-.1v-.2-.1s0-.1-.1 0zm0 0" fill="#00b800"/><path d="M14 9.6v.4a.2.2 0 00.1.2v.1h.1v.1h.1l.1.1h.1l-.1-.3-.2-.3v-.1a.1.1 0 01-.1-.1v-.1H14zm0 0" fill="#5d3100"/><path d="M13.7 12H13.7zm.2.1h.2v.1h.3s-.4.2-.5 0zm.1.2a.4.4 0 01.2 0H14zm0 0" fill="#00d860"/><path d="M14.2 12.3H14.2zm0 0"/><path d="M14.3 12.4h.3a.4.4 0 01-.3 0zm0 0M14.4 12.5h.2a.5.5 0 00.1 0h.2a.6.6 0 01-.3 0 .8.8 0 00-.3 0zm0 0" fill="#00d860"/><path d="M14.3 12h.4-.5zm0 0"/><path d="M15.4 11.8a1 1 0 01-.9 0l.3.1s0 .1 0 0a.8.8 0 01.4.1h.1v-.1-.1zm0 0" fill="#00d860"/><path d="M15 11.8s.4 0 .5-.2a.6.6 0 00.2 0v.1a.5.5 0 01-.2 0 1 1 0 01-.6.1zm0 0"/><path d="M14.4 11h.3a.6.6 0 00.2.2h-.2c-.1 0-.1 0 0 0l.2.1h-.4c0-.2 0-.2-.3-.1 0 0-.1-.1 0-.1l.2-.1zm0 0" fill="#00d860"/><path d="M14.5 11.2h-.2v.1h.2zm.2.2h-.2-.1v.1h.2s.1-.1 0-.1zm0 0" fill="#00d860"/><path d="M14.5 11.5h.3c.1 0 .1.1 0 .1a.4.4 0 01-.3 0v-.1zm0 0"/><path d="M15.5 11.6a.8.8 0 01-.4 0s-.1 0 0 0h.2l-.4.1a1.4 1.4 0 00-.3 0 .2.2 0 01-.1 0c.1 0 .1 0 0 0h.4a.7.7 0 00.6-.1zm-.8-.2h.1a.2.2 0 00.1 0 .1.1 0 01-.2 0zm.4 0a.4.4 0 01-.1 0s.1.1.2 0a.3.3 0 00.2.1h.2v-.1a.3.3 0 00-.1 0h-.1-.1a.5.5 0 01-.2 0H15h.1zm0 0M15.6 11.4h.4a.1.1 0 01.1 0h.1a.4.4 0 01.1 0 .5.5 0 00-.2 0 .8.8 0 01-.1 0h-.2-.2zm0 0" fill="#00d860"/><path d="M16.4 11.4H16h.5zm0 0"/><path d="M15.7 11.5h.2s.1 0 0 0h.2a.1.1 0 00-.1 0h-.2-.1zm0 0M16.3 11.5h1.3s.1 0 0 0v.1h-.1s0 .1-.1 0h-.2s0 .1 0 0a.4.4 0 00-.3 0s0 .1-.1 0h-.2-.1-.2zm.2.1h-.1s-.1 0 0 0h.1c.1 0 0 0 0 0zm0 0l.1.1s.1 0 0 0h-.1s-.1 0 0 0zm-1 .3c.1 0 .4 0 .4-.2l.4.1s.1 0 0 0H16l-.4.1c-.1 0 0 0 0 0zm0 0" fill="#00d860"/><path d="M16 11.7a.4.4 0 01-.1 0h-.2s-.1 0 0 0a.4.4 0 00.1.1h.2s.1.1.1 0a.4.4 0 01.2 0v.1h-.2l.2.1s.1.1.2 0v.1h-.1s.2.1.4 0h-.1.1s.1 0 0 0h-.2V12s-.2 0 0-.1h-.1a1 1 0 01-.2 0v-.1a.5.5 0 01-.3-.1zm1.1 0a.5.5 0 01-.2 0h.1s.1.1.2 0a.6.6 0 01.1 0 .5.5 0 00-.2 0zm0 .1a.4.4 0 01-.2 0l.1.2h.5a.4.4 0 01-.2 0 .1.1 0 000-.1.4.4 0 01-.2 0zm0 0" fill="#00d860"/><path d="M17 12a.7.7 0 01-.4-.1.4.4 0 00.4.1zm.2.2a.6.6 0 01-.3 0 .5.5 0 00-.2 0h.4zm-1.6-.2a2 2 0 01-.3 0 .6.6 0 01-.2.1h.2l-.1.1h.2a.4.4 0 01-.3 0l.1.1a.4.4 0 01-.2 0H15l.3.1a.7.7 0 00.3-.1.7.7 0 01-.2 0l.3-.1h.2a.2.2 0 01-.1-.2h.6a1.2 1.2 0 01-.4 0h.2-.5zm0 0" fill="#00d860"/><path d="M15.2 12.2a.5.5 0 00.1-.1H15 15a.5.5 0 01-.2 0v.1l.4.1c-.1 0-.1 0 0 0l.1-.1zm0 0" fill="#00d860"/><path d="M15 12.4l.6-.1a1 1 0 01-.6.2s-.1 0 0 0zm0 0"/><path d="M16.3 12.2a.7.7 0 01-.2 0 .2.2 0 00-.1 0 .4.4 0 01.2.1h.4a.2.2 0 010 .1.4.4 0 00.2 0 1 1 0 01-.2 0 .2.2 0 01.1 0 .5.5 0 00-.2 0 .1.1 0 010-.1h-.3l.3-.1h-.2zm-.4 0h-.2v.1h.2zm-.1.2h.2a.4.4 0 00.1 0c.1 0 0 0 0 0a.4.4 0 01-.2 0h-.1zm-.9.4c.1 0 .3.1.4 0l.3.1a.5.5 0 01.2 0h.1v.1l-.4.1a.2.2 0 01.2-.1h-.3c-.2 0-.4 0-.5-.2zm-.3-.1a.5.5 0 00.3-.1h.2a1 1 0 00-.2 0l-.3.1zm0 0" fill="#00d860"/><path d="M15.1 12.6a1 1 0 00-.2 0v.1h.6v.1h.3a.8.8 0 01-.2 0v-.1l-.2-.1a.4.4 0 00.2 0 .2.2 0 00-.1 0 .5.5 0 01.4 0h.2l.2-.1c-.2 0-.6 0-.6-.2a.4.4 0 01-.3.2.8.8 0 01-.2 0l.1.1h-.2zm0 0" fill="#00d860"/><path d="M15.6 12.9h.2v-.1l.4-.1h.2-.2.1l-.1.2H16a.3.3 0 00-.2 0h-.2zm.7-.4h.2a.3.3 0 00-.1 0 2 2 0 01.3 0h-.1s.1.1 0 .1a1.5 1.5 0 00-.2 0c-.1 0-.1 0 0 0 0 0 0-.1-.1 0a.3.3 0 00-.2 0l.2-.1zm0 0" fill="#00d860"/><path d="M15.7 12.5a.3.3 0 00.3.1h-.3zm1-1.1h.3a.7.7 0 01-.4 0zm0 0"/><path d="M16.7 11.4h.5a1 1 0 00-.3 0h-.2zm.5 0H17.4a.4.4 0 00-.2 0zm0 0" fill="#00d860"/><path d="M17.7 11.4h-.2-.3.2a.4.4 0 01.2 0c0-.1 0 0 .2 0a.8.8 0 010-.1zm0 0" fill="#00d860"/><path d="M373.4 664.2l-.2-22.2c0-1-.5-.8-.5 0v22zm7.2-23.4l.8 23.4v.2h-.6l-.5-23.6zm6.8 19.8l-.4-19c0-.6-.5-.5-.5.1l.4 18.9zm0 0" transform="matrix(.1402 0 0 .13086 -37.2 -76.1)" fill="#ff0" stroke-width=".1" stroke="#000"/><path d="M376.6 644.7l-7-.1c-.3 1.4 1.4 1.3 2 1 .8.5 1.4.5 1.8 0 .6.5 1.4.4 1.7 0 .8.7 1.7 0 1.5-1zm.5 3.4h-7c-1.3 1.2.3 1.8 1.7 1 .2.4 1 .6 1.6.3.6.4 1.4.1 1.8-.3.7.3 1.6.4 2-1zm-.2 4.5h-6.8c-.1 1.1 1.3 1 1.8.7.5.8 1.7.6 2.1.1.7.5 1.3.4 1.6 0 .7.6 1.4-.2 1.3-.8zm.4 4.4l-7.7-.1c-.4 1.3.8 1.5 1.3 1.2.2.7 1.2.5 1.5 0 .4.3.9.1 1.1-.2.1.7 1 .8 1.7.2 1.4 1 2.7-.2 2-1.1zm6.7-1.8h-6.3c.3 1.2 1 1.5 1.9.8.8.8 2 .5 2.3 0 1.4 1.2 2 0 2-.9zm-.6-4.4l-6.2-.2c.1 1.6 1.6 1.5 2.4.9.5.7 1.5.5 2 0 .7.8 2 .3 1.8-.7zm.8-4.9h-6.6c0 1 1.5 1.7 2.6.7.3 1.3 1.5.9 2 .4.8 1 2.5-.2 2-1zm-.4-3.3h-6c0 1.1 1.4 1.5 1.9.7.3.5 1.3.4 1.6 0 .4.7 1 .2 1.2 0 .7.5 1.4.2 1.3-.7zm6.9 2.2l-7.2-.1c0 .7.7 1 1.2.7 0 .8 1 1 1.7.4.4.7 1.7.8 2.2 0 1 .9 2.2.2 2-1zm-.1 5.9h-7c0 1 1.1 1.3 1.8.8 0 .8 1 .9 1.5.4.7.7 1.7.8 2.3 0 .8.3 1.5-.4 1.4-1.2zm-.4 5.3h-5.6c0 1 1.2 1 1.7.5.6.7 1.4.7 1.9.2.7.6 1.9.4 2-.7zm0 0" transform="matrix(.1402 0 0 .13086 -37.2 -76.1)" fill="#fff" stroke-width=".1" stroke="#000"/><path d="M381.3 664.4c-3 0-6 0-8.2-.2-2.1-.2-2.7-.6-4.2-1.5l-5.6-3.4c-.5-.2-1 .1-.3.5l5.6 3.7c1.5 1 2.5 1.9 3.4 3 1.2 1.3 2 1.3 2.6 1.1.6-.2 1.4-.5 2.3-.3.8.2 2 .3 2.6.2.5.5 1.8.4 2.5.2a3 3 0 011.7 0h1.7c.5 0 1.8-.4 2.7-.3 1 .2 2 0 2.5 0a5 5 0 012-.1c.6-.4.8-1 1-1.4.6-.1.8-.2.9-.5l.6-1.6h.2v-.6l-.4-.6.2-1 .5-.2-.2-1-8.8.2a2 2 0 00-.6 1.1l-2.6.4c-.3.1-.6.1-.9.5zm0 0" transform="matrix(.1402 0 0 .13086 -37.2 -76.1)" stroke-width=".1" stroke="#000"/><path d="M391.8 660.5l1.3-4.9c.2-.5-.3-.6-.5 0l-1.3 5zm0 0" transform="matrix(.1402 0 0 .13086 -37.2 -76.1)" stroke-width=".1" stroke="#000"/><path d="M396.9 655c-1.1.5-1.7.8-2.2.6-.5-.2-1.1-.3-1.5-.1v.1l-1.1 3.8c.8.3 2.2.3 2.5 0 .4-.4 1.3-.3 1.8-.3.3-.4.4-.9.3-1.1v-1c0-.3.4-1.4.2-2zm0 0" transform="matrix(.1402 0 0 .13086 -37.2 -76.1)" fill="#fff" stroke-width=".1" stroke="#000"/><path d="M371.7 645.6a53.3 53.3 0 01-8 14m2 1.2a55.2 55.2 0 0011.4-12.6m-7 4.3c-.3 2.7-1.1 7.5-1.5 10m2.6-4c-1 1-2.3 2.6-3.4 3.5m12.7-8.9c-.8.8-1.7 1.8-2.6 2m3.1-1.8c.7.9 1.7 1.5 2.7 1.9m-3.2-6.2a8.5 8.5 0 01-3 1.7m3.4-1.6c.6.6 1.3 1.3 2.2 1.7m-5.4-4.9a6.9 6.9 0 002.7-1.5m.3 0c.7.7 2 1.4 2.7 1.6m-5.5-3.3a4 4 0 002.4-1.4m.3-.2c.7.6 2 1.4 2.7 1.5m3.2.8c-.4.5-1.5 1.3-2.2 1.3m2.7-1.3c.3.5 1.1 1.3 1.6 1.3m-4.8 6c1-.4 2-1 2.8-1.9m.5.1a5.1 5.1 0 001.9 1.8m-4 5.2c.3 0 1.4-.6 1.7-1.3m.6-.3a7.1 7.1 0 002 1.7m-18.7.9c1.3-.4 3.8-2 5.1-3.5m-2.4 1.9c1 .7 2.3 1.5 3.2 1.7m-6.2-4.5a8 8 0 002.4-1.5m.5-.1c.3.4 2.4 1.7 3.3 1.7m-3.8-6a9.2 9.2 0 01-2.5 1.5m3-1.4c.7.5 2.2 1.4 3.1 1.4m-3.6-5.4c-.6.6-1.6 1.6-2.4 1.9m3-1.8c.3.7 1.5 1.7 2.3 1.8m8 2.6c1.9 3.3 5.3 7.4 8.7 9.6m-14.1-13.3c2.8 4 8.2 12.7 13.4 16m1-3.5a18.6 18.6 0 01-4.9 4.6m4.5-3.5c-1.7-2.8-2.6-6.3-4-11m-14 12.4l2 6m-2.4-6.1l2 6m-2.5-6.3l1.8 6.2m-2-6l1.4 6m0-.2h1.7m-.2-.6h-1.6m1.4-.5h-1.6m1.4-.5H374m1.3-.6H374m-.1-.5h1.3m-1.4-.4h1.3m-1.4-.5h1.2m-1.3-.4h1.1m-1.2-.5h1m-1.1-.4h1m-1.1-.3h1m-1-.4h1m-2.7 0l-1.2 5m1.5-5l-1 5.2m1.3-5.4l-.8 5.5m1.2-5.6l-.6 5.8m.7-.4h-2m2-.5h-2.3m2.3-.6h-2.1m2-.5h-1.9m2-.5h-1.9m1.9-.6H371m1.7-.5H371m1.6-.5H371m1.5-.5h-1.3m1.3-.5h-1.2m1.2-.3h-1m1 5.5v-5.9m6.4-2l-4 8.1m4.3-8.2l-3.4 8.3m3.6-8.4l-2.7 8.4m3-8.2l-2.2 8.2m0-.3h-2.4m2.7-.8h-2.4m2.5-.6h-2m2.4-.6h-2m2.1-.6h-1.9m2.1-.6h-1.8m2-.7h-1.6m1.7-.5h-1.5m1.7-.6h-1.4m1.5-.4H378m1.4-.4H378m1.3-.4h-1m1-.3h-1m1-.4h-.7m1-.4h-.8m.8-.3h-.7m3.4-.1l1.7 5.6m-1.4-5.5l2.1 5.4m-1.8-5.4l2.5 5.3m.6-.5l-2.8-5m2.8 5.1h-2m1.8-.8h-2m1.7-.6h-1.9m1.5-.7h-1.7m1.3-.6h-1.5m1.1-.7H383m1-.7h-1.2m.8-.6h-1m3.2.1L384 662m2.3-5.4l-1.6 5.3m.7-.1l1.2-5m.3.2l-1 4.7m-1.7-.3h1.7m-1.5-.6h1.7m-1.5-.7h1.6m-1.3-.6h1.5m-1.3-.7h1.4m-1.2-.6h1.3m-1-.7h1.2m-1-.6h1m.9 0l.8 3.7m-.5-3.8l1 3.7m-.6-3.7l1.2 3.7m-.7-3.5l1.3 3.5m-.1-.3h-1.7m1.5-.5h-1.6m1.4-.5h-1.5m1.3-.6H388m1.2-.5h-1.4m1.2-.5h-1.3m1.1-.5h-1.2" transform="matrix(.1402 0 0 .13086 -37.2 -76.1)" fill="none" stroke-width=".1" stroke="#000"/><path d="M15 11a.4.4 0 01.4.1h.8a.4.4 0 01.5 0h.4a.4.4 0 00-.4 0h-.5a.3.3 0 00-.2 0 .3.3 0 00-.2 0h-.4a.5.5 0 00-.4 0zm0 0" fill="#00b800"/><path d="M17 11a9 9 0 01-2.1-.1h1.3l.3-.3h.4v.3s.1 0 0 0zm0 0M18 11l.2-.3H18v-.3h.1H17 17c0 .3 0 .6.3.8a.8.8 0 01-.2-.2h.2v.2h.1V11h.1v.2-.2h.3v.2-.2h.1v0zm0 0" fill="#cf6200"/><path d="M17.1 11a.9.9 0 010-.3h.2v.2zm.2-.3v.2h.3v-.2zm-.3-.3a1 1 0 000 .2h.3v-.2zm.3 0v.2h.2v-.2zm.3 0v.2h.2v-.2zm.2 0v.2h.2v-.2zm.3.3h-.3v.2h.2l.1-.2zm-.5 0v.2h.2v-.2zm-1 0c-.2 0-.2.1-.3.2h.3v-.3zm0 0v.2h.3v-.3zm0 0"/><path d="M377.3 657h-7.7v-.2l7.7.1zm6-6.2c.1 0 .1 0 0 0l-6-.1c-.1 0-.1 0 0 0h6zm-6.4 1.7c.1 0 .1.1 0 .1h-6.8c-.1 0 0 0 0 0zm.2-4.4v.1H370c-.1 0-.1-.1 0-.1zm-.5-3.5s0 0 0 0h-6.9s0 0 0 0h7zm0 0" transform="matrix(.1402 0 0 .13086 -37.2 -76.1)" stroke-width=".1" stroke="#000"/><path d="M383.8 642.6h-6zm0 0" transform="matrix(.1402 0 0 .13086 -37.2 -76.1)" fill="#fff" stroke-width=".1" stroke="#000"/><path d="M384.1 646c.1 0 .1 0 0 0h-6.5c-.1 0-.1 0 0 0zm6.5 4.6v0h-7c-.2 0-.2 0 0 0h7zm0-6c.2 0 .2.2 0 .2h-7.1c-.1 0-.1-.1 0-.1h7.2zm-6.6 10.5c.1 0 .1.1 0 .1h-6.4v0zm6.2.9c.1 0 .1 0 0 0h-5.6zm0 0" transform="matrix(.1402 0 0 .13086 -37.2 -76.1)" stroke-width=".1" stroke="#000"/><path d="M395.3 657a2.9 2.9 0 000-1.4 2.1 2.1 0 01-.6 0l-.3-.2c0 .4-.2 1.5-.4 1.9-.3 0-1 0-1.3-.2l-.3 1h1.5c0 .6-.1 1.1-.4 1.5.5 0 1 0 1.1-.3.3-.4.3-1 .4-1.3h.5l.5-.3h.7v-.7l.2-.4-1.6.5zm0 0" transform="matrix(.1402 0 0 .13086 -37.2 -76.1)" fill="#ef072d" stroke-width=".1" stroke="#000"/><path d="M370.5 623.2c-.8 0-2.6 0-3 .2-.3.2-.4.3.2.4.6.1 1.7.5 2.3.8.6.4 1 1 1 2a6 6 0 003 6.3c.1 0 .2.2.1.6l-.3 1.1c0 .2 0 .4.2.3l-1 1.6c-1.6-.2-3 0-3 1.8 0 .2 0 .4.2 0 .3-.4.6-.8 1.3-1-.4.7-.6 1.3-.5 1.7 0 .3.2.5.4 0 .1-.4.5-.8.8-1 .2-.2.2-.2 0 0 0 .4.2 1 .4 1.2.2.2.3 0 .2-.2 0-.4 0-1 .5-1.3.6-.4 1.2-.2 1.4.2.3.5.5 0 .2-.4s-.6-.9-1-.9l1-1.7c0-.2.2-.3.4-.2 0 .1.2.1.3-.2l.7-1.4.6-.2 1 1.5v.6c0 .4-.4 1.3-.5 1.6-1.2 0-1.8 0-2.2.7-.2.3.1.4.4.3a2 2 0 011-.3c.2 0 .3.2 0 .3-.7.3-1.2.8-1.2 1.5 0 .2.2.3.3 0 .3-.5.8-.9 1.3-1 0 .5.1 1.3.5 1.5.3.2.3 0 .2-.3-.2-.5 0-1 .3-1.3.5-.6 1.7.2 2 .4.2.2.4.3.2-.3-.1-.7-1-1-2-1.2l1.2-4.2c.5.3 1-.5 1.8-.2 1.4.6 3.5 1.9 3.8 2.2.4.3.5.2.7 0 .2-.1.5 0 .8 0 .2.1.4.2.1-.4a7.4 7.4 0 00-2.4-2.6c.8 0 1.8 0 1.8-.2s-1.2-.6-1.7-.6a3.4 3.4 0 001.6-.8c.2-.2 0-.3-.8-.3-2 0-3.2 0-4.3-.6-1.8-1-3-2.2-3.8-2.6-.4-.3-.7-.9-1-1.4-.5-1.5-.5-2.3-1.8-2.8a4 4 0 00-3.7.8zm0 0" transform="matrix(.1402 0 0 .13086 -37.2 -76.1)" stroke-width=".1" stroke="#000"/><path d="M370.6 623.6h-1.7s-.2 0 0 0l1.5.4c.3 0 .2.3 0 .2-.2-.1-.4 0-.2.2 1 .7 1.2 1 1 3.7l.5.4c.2 0 .1.2 0 .1s-.5 0-.2.2.5.2.2.2-.6.2 0 .1c.5 0 .8.2 0 .3-.6 0-.4.2 0 .2.7 0 .5.2.3.2s-.3.2.2.2h.7c.1 0 .2 0 0 0s-.2.3.1.3h.2c-.1 0-.3.2 0 .3.7 0 .8.2.6.3-.2 0-.3 0 0 0s.6.2.3.3c-.2 0-.3.2 0 .2s.5.2.3.3c-.2 0-.3.2 0 .2s.4.1.2.2c-.2.2-.3.2-.5 0 0-.2-.2-.2-.2 0l-.2-.3c-.1-.3-.3-.3-.3 0s-.2.1-.4 0a3.3 3.3 0 004 .8c.1 0 .2 0 .3.3l.6 1.1c.1.2.3 0 .3-.2l.6-1.7c0-.3.4-.5.3.3.3-.2 1.5-.3 2.5 0 1 .4 1.9.9 2.7 1.5l.5.1c.3 0 .4 0 0-.5-.6-.5-.4-.7 0-.5.2.2.4.1.1-.2l-1-.9c-.1 0-.1-.2-.6-.2h-1.5c-.2 0-.4 0 .2.2.6.2 1.7 1 2 1.2.3.2.4.6 0 .2-.6-.4-2.5-1.5-3.7-2-2.7.3-4.9.6-6.5-1-.8-1-.8-2.9.5-3.7-.2-.2-.2-.4 0-.4v-.6c-.3-.1-.5-.3-.5-.5-.3 0-.5-.5-1-.3s-.6 0-.8-.1c-.1-.2-.2-.2-.5-.2s-.5 0-.5-.2.2-.2.6 0c.7.3 1.3.5 1.8-.2.4-.6-.2-1.1-1-1.3-.9-.2-1.5.5-1.9.8zm0 0" transform="matrix(.1402 0 0 .13086 -37.2 -76.1)" fill="#fff" stroke-width=".1" stroke="#000"/><path d="M375 623.3a3 3 0 00-1-.6c-.3 0-.3.2-.2.3v.6c.2.1.3.3 0 .3-.2.2 0 1 .3.7h.2s0 .3.2.3 0 .2 0 .3h.2c.2 0 0 .4-.1.5.3 0 .4 0 .4.2.1.2.4.3.4.6s0 .3-.4.2c-.4-.1-.4 0-.5.2-.1.2-.2.3 0 .3s.4 0 .1.2c-.3.1-.6 0-.7.3 0 .3 0 .4.2.3l.7-.4.5.1c.2 0 0 .5-.2.3s-.4 0-.5 0l-.5.3c-.2 0-.4 0-.3.5 0 1.4 1.1 2.4 3.1 2.4h3.3c-.6-.4-1-.6-1.3-.6h-.3l-.1-.3c-.1 0-.3-.2-.5 0l-1 .5c-.2 0-.5 0-.2-.2l.9-.4c.2 0 .1-.2.1-.2s0-.3.3-.2c.6.4 1.5.9 1.8.9.3 0 .4-.2.2-.3a.5.5 0 01-.3-.4s0-.2.5 0c.4.3 1 .5 1.3.6.3 0 .5 0 0-.2l-2.3-1.7c-.3-.3-.3 0-.2.2.1.2-.3.3-.5 0-.2 0-.3-.2 0-.3.3 0 .2-.2-.1-.5-.4-.3-.5-.3-.4 0 0 .3 0 .5-.2.4-.3-.1-.6-.3-.3-.4.2-.2.5-.3 0-.6s-.2 0-.3.2a.3.3 0 01-.5 0c-.1-.2-.3-.3-.2-.4 0-.1 0-.2.3 0 .2.2.4 0 .1-.3-.3-.3-.4-.2-.3 0 .1.2-.2.4-.6 0-.2-.1-.2-.3 0-.4.2 0 .2 0 0-.3-.7-1.2-.4-2-1.2-3zm0 0" transform="matrix(.1402 0 0 .13086 -37.2 -76.1)" fill="#fff" stroke-width=".1" stroke="#000"/><path d="M15.4 5.5s-.1 0 0 0zm-.2 0h.1zm0 0v.1h0zm.2.3v-.2l-.1.1.1.1zm0 0" fill="#cf6200"/><path d="M15.4 6.1h-.1l-.1.1c0 .1 0 0 0 0v.1h.2v.1l.3.1h-.1v-.1-.1-.1l-.1-.1zm0 0" fill="#ff0"/><path d="M15.2 6.5s.1 0 0 0l.1.1h-.1-.1.2l.1.1v-.1l-.1-.1h-.1zm0 0" fill="#cf6200"/><path d="M15.6 6.7h-.4.4zm-.4-.9H15L15 6l-.1.2v.1s.1 0 0 0v.1l.1-.1V6l.2-.1a.1.1 0 000-.2zm0 0" fill="#ff0"/><path d="M15.1 5.8V6a.1.1 0 00-.1.1v.2l.1-.2v-.1zm0 0" fill="#cf6200"/><path d="M15.1 5.8zm0 0zm0 .1zm0 0s0 .1 0 0zm0 0M15 6zm0 0zm0 0M15 6zm0 0s0 .1 0 0zm0 0M15 6v.1zm0 0M15 6.1zm0 0"/><path d="M15 6.4v0zm0 0" fill="#cf6200"/><path d="M15.8 6.2h.1l.4.2a1.5 1.5 0 01-.2 0H16l-.1-.2zm0 0" fill="#ff0"/><path d="M17.7 11.8s-.2 0-.1.1l.5-.6a.8.8 0 01-.2 0l-.1.2v.1h-.1l-.1.1s.1 0 0 0zm0 0" fill="#00d860"/><path d="M376 628.4c-.4-.3-.5-.1-.4 0 .1.1 0 .4-.3.5h-1c-.2 0-.5.4 0 .3l1.6-.3c.2 0 .4-.2 0-.5zm.7.6c-.3-.3-.4-.2-.3 0 0 .2-.1.3-.3.3l-1.4.4c-.4 0-.4.3 0 .3.6 0 1.6-.5 1.7-.5 0 0 .2-.3.3-.2.1.1.3 0 0-.3zm.3.8l-1 .5c-.3 0-.5.3 0 .3s1-.5 1.2-.6l.4-.2s.4-.1 0-.4c-.4-.3-.8 0-.6.1.2.1 0 .3 0 .3zm0 0" transform="matrix(.1402 0 0 .13086 -37.2 -76.1)" stroke-width=".1" stroke="#000"/><path d="M15 5.5s-.1 0 0 0c0 .1.1 0 0 0zm0 0"/><path d="M15 5.5c0 .1 0 0 0 0zm.3 1.3h.2-.1c0 .1-.1.1-.1 0zm0 0" fill="#fff"/><path d="M399.7 640.8c0 16.3-2.6 33.9-23.8 42.3-21.1-8.4-23.7-26-23.8-42.3zm0 0c0-6.2-.3-12.2-.2-17.4a63.2 63.2 0 00-23.6-4.3c-5.3 0-15.7.8-23.6 4.3.2 5.2-.2 11.2-.2 17.4zm0 0" transform="matrix(.1402 0 0 .13086 -37.2 -76.1)" fill="none" stroke-width=".3" stroke="#000"/></svg>