<svg xmlns="http://www.w3.org/2000/svg" width="20" height="14"><path fill="#ee1c25" d="M0 0h20v14H0z"/><path d="M0 0h20v9.3H0zm0 0" fill="#0b4ea2"/><path d="M0 0h20v4.7H0zm0 0" fill="#fff"/><path d="M7.3 10.8C5.9 10.2 4 9 4 6.6l.1-3.4h6.3l.1 3.4c0 2.4-1.9 3.6-3.2 4.2zm0 0" fill="#fff"/><path d="M7.3 10.5c-1.3-.6-3-1.7-3-3.8V3.5h5.9v3.2c0 2.1-1.7 3.2-3 3.8zm0 0" fill="#ee1c25"/><path d="M7.5 6.1c.4 0 1 0 1.6-.2v.9c-.5-.2-1.2-.2-1.6-.2v1.2H7V6.6c-.4 0-1 0-1.5.2v-.4-.5c.5.2 1.2.2 1.5.2v-.8a4 4 0 00-1.2.2v-.4-.4a4 4 0 001.2.1l-.1-1a10.4 10.4 0 00.8 0l-.2 1a4 4 0 001.3-.1v.8a4 4 0 00-1.3-.2zm0 0" fill="#fff"/><path d="M7.3 7.7c-.6 0-1 .8-1 .8S6.1 8 5.6 8c-.3 0-.6.3-.7.6.6.9 1.6 1.4 2.4 1.8.8-.4 1.8-1 2.4-1.8-.2-.3-.4-.6-.8-.6-.5 0-.7.4-.7.4s-.3-.8-1-.8zm0 0" fill="#0b4ea2"/></svg>