<svg xmlns="http://www.w3.org/2000/svg" width="20" height="14"><path fill="#12ad2b" d="M0 0h20v14H0z"/><path d="M0 4h20v6H0zm0 0" fill="#ffce00"/><path d="M0 0v14l7.5-7" fill="#d21034"/><path d="M11 5l-.7 1.9 1 .3"/><path d="M11 5l.6 1.9-1 .3"/><path d="M13 6.4H11v1"/><path d="M13 6.4l-1.7 1.2-.6-.8"/><path d="M12.2 8.6l-.6-1.9-1 .3"/><path d="M12.2 8.6l-1.7-1.2.6-.8"/><path d="M9.7 8.6l1.8-1.2-.7-.8"/><path d="M9.7 8.6l.7-1.9 1 .3"/><path d="M9 6.4l1.7 1.2.6-.8"/><path d="M9 6.4h2v1M16.6 5L16 6.9l1 .3"/><path d="M16.5 5l.7 1.9-1 .3"/><path d="M18.6 6.4h-2.2v1"/><path d="M18.6 6.4l-1.8 1.2-.6-.8"/><path d="M17.8 8.6L17 6.7l-1 .3"/><path d="M17.8 8.6L16 7.4l.7-.8"/><path d="M15.3 8.6L17 7.4l-.6-.8"/><path d="M15.3 8.6l.6-1.9 1 .3"/><path d="M14.5 6.4l1.7 1.2.6-.8"/><path d="M14.5 6.4h2.1v1"/></svg>