<svg xmlns="http://www.w3.org/2000/svg" width="20" height="14"><path d="M0 0h22.5v7H10zm0 0" fill-rule="evenodd" fill="#ed2939"/><path d="M0 14h22.5V7H10zm0 0" fill-rule="evenodd" fill="#002395"/><path d="M0 0l10 7-10 7zm0 0" fill-rule="evenodd" fill="#fff"/><path d="M5 5.3v-.1V5v-.2s-.2 0-.2-.2l-.2-.1-.2-.1h-.2L4 4.1s-.1.1-.2 0c0 .1-.2 0-.2 0 0 .2-.2.1-.2.1 0 .1-.2 0-.2 0 0 .2-.2.2-.2.2l-.2.1a.2.2 0 01-.1.2l-.1.2v.2H5" fill="#ff0"/><path d="M377.2 843v-3.4s-1.8-3 .4-6c0 0-4.6-2.5-3.4-6.4 0 0-4.3-1-4-5.4 0 0-4.5-.4-5-4.2 0 0-4.4.7-6.3-3 0 0-4.4.8-5.6-2.2 0 0-4.3 1.5-6.8-2.1 0 0-4.4 1.9-6.3-1.6-1.9 3.5-6.4 1.6-6.4 1.6-2.4 3.5-6.7 2-6.7 2-1.2 3.1-5.5 2.4-5.5 2.4-2 3.6-6.5 3-6.5 3-.4 3.6-5 4-5 4a5.2 5.2 0 01-3.6 5.5c1 3.8-3.5 6.1-3.5 6.1 2.2 3.3.3 6.3.3 6.3v3.2zm0 0" transform="matrix(.03359 0 0 .03134 -7.6 -21.1)" fill="none" stroke-width=".3" stroke="#000"/><path d="M5 5.1l-1.2.1c-.2-.1-.5-.1-.8 0h-.5L1.7 5l.2 1.3c0 .6-.3 1.2-.2 1.8.1.3.5.5.8.5a7 7 0 011.1.2.5.5 0 01.2.1c.2-.2.5-.2.7-.2.5 0 1 0 1.3-.4.2-.3.2-.6.1-.9v-.2c-.3-.7 0-1.5 0-2.2a1.8 1.8 0 01-.4.2 2.4 2.4 0 01-.5 0" fill="red"/><path d="M5.6 7.1v.2c0 .3.1.7-.2.9-.4.2-.9.1-1.3.2a.7.7 0 00-.3.2l-.1-.1c-.4-.2-.8-.1-1.2-.2-.2 0-.4-.2-.5-.4-.1-.5.2-1 .2-1.5a5.6 5.6 0 00-.2-1h1l.8.1.5-.1h1.3c0 .5-.3 1.2 0 1.7" fill="#80cfe1"/><path d="M5 7.3v-.6l-.8-.5v-.3l-.4-.3-.5.3h.1v.3l-.9.5h.1v.6H5" fill="#fff"/><path d="M376 906.5v-17.8h2.1l-27-17.5v-9h2.5l-13.6-9.8-13.5 9.7h2.6v9.1l-27 17.5h2.3v17.7H376zm0 0" transform="matrix(.03359 0 0 .03134 -7.6 -21.1)" fill="none" stroke-width="1.2" stroke="#000"/><path d="M5.3 8v.2h-3V8h3" fill="#fff"/><path d="M384.4 929.8v5.5H297v-5.6h87.4zm0 0" transform="matrix(.03359 0 0 .03134 -7.6 -21.1)" fill="none" stroke-width="1.2" stroke="#000"/><path d="M2.5 8v-.6h.2V8v-.6h-.2v-.1h2.6v.1H5V8v-.6.6" fill="#fff"/><path d="M302.7 929.5v-18.9h3.7l-.3 19 .2-18.8-5-.2v-4h78v4.2h-4.8l.1 18.9-.2-19h3.6l.1 18.8" transform="matrix(.03359 0 0 .03134 -7.6 -21.1)" fill="none" stroke-width="1.2" stroke="#000"/><path d="M319.6 924.8v-13H309v13h10.5" transform="matrix(.03359 0 0 .03134 -7.6 -21.1)" fill="none" stroke-width="1.2" stroke="#000"/><path d="M312 914.4v7.6h4.8v-7.6H312m59 10.4l-.1-13h-10.4v13H371" transform="matrix(.03359 0 0 .03134 -7.6 -21.1)" fill="none" stroke-width="1.2" stroke="#000"/><path d="M363.2 914.5v7.6h4.8v-7.6h-4.8m7.6-11v-13h-10.5v13zm0 0" transform="matrix(.03359 0 0 .03134 -7.6 -21.1)" fill="none" stroke-width="1.2" stroke="#000"/><path d="M363.1 893.2v7.6h4.8v-7.6H363m-43.6 10.3v-13H309v12.9h10.5zm0 0" transform="matrix(.03359 0 0 .03134 -7.6 -21.1)" fill="none" stroke-width="1.2" stroke="#000"/><path d="M312 893v7.7h4.7V893h-4.8m26.6 10.4v-13H328v12.9h10.5" transform="matrix(.03359 0 0 .03134 -7.6 -21.1)" fill="none" stroke-width="1.2" stroke="#000"/><path d="M330.8 893v7.7h4.7V893h-4.7m22.3 10.4v-13h-10.5v12.9l10.5.1" transform="matrix(.03359 0 0 .03134 -7.6 -21.1)" fill="none" stroke-width="1.2" stroke="#000"/><path d="M345.4 893v7.7h5V893h-5" transform="matrix(.03359 0 0 .03134 -7.6 -21.1)" fill="none" stroke-width="1.2" stroke="#000"/><path d="M4.3 7v1h-1V7h1" fill="#fff"/><path d="M355.7 899.5v30.2h-30.2v-30.2zm-30.5 8.6h30.6M329 929.7v-21.4m23 21.4v-21.3m14.8-21.8l-17-12.4h-19.3l-17 12.4h53.3m-34.7-22.8v7.6h16.1v-7.6h-16.1" transform="matrix(.03359 0 0 .03134 -7.6 -21.1)" fill="none" stroke-width="1.2" stroke="#000"/><path d="M336.4 865.8v3.7h7.4v-3.7h-7.4M340 855l9 6.4h-17.9l9-6.4" transform="matrix(.03359 0 0 .03134 -7.6 -21.1)" fill="none" stroke-width="1.2" stroke="#000"/><path d="M5 5.5l.1.5a.9.9 0 01.3.2h-.8A.8.8 0 015 6l.1-.5" fill="#fff"/><path d="M376.3 850.8c2.6 0 3.2 10.5 3.2 15.8 2.2.7 7.1 3.6 9.2 6.4h-24.5c2-2.8 7-5.7 9-6.4 0-5.3.6-15.8 3-15.8m-49.4 49.5h2.2l-.6 1.2s1 1.4 0 3l.6 1h-2.2l.6-1s-1-1.8 0-3l-.6-1.2m4.6 0h2l-.5 1.2s1 1.4 0 3l.6 1h-2.1l.5-1s-1-1.8 0-3l-.5-1.2m5 0h2l-.6 1.2s1 1.4 0 3l.7 1h-2.1l.4-1s-1-1.8 0-3l-.6-1.2zm5.4 0h2.2l-.7 1.4s1 1.2 0 2.8l.6 1h-2l.5-1s-1-1.8 0-3l-.6-1zm5 0h2.1l-.7 1.4s1 1.2 0 2.8l.6 1h-2l.5-1s-1-1.8 0-3l-.6-1m4.9 0h2.2l-.7 1.2s1 1.2 0 2.8l.6 1h-2l.5-1s-1-1.8 0-3l-.6-1" transform="matrix(.03359 0 0 .03134 -7.6 -21.1)" fill="none" stroke-width="1.2" stroke="#000"/><path d="M3.8 9.2c.4 0 .9 0 1-.2h.6v.5c-.4.3-1.4.3-1.6.3-.2 0-1.1 0-1.6-.3V9h.5a3.1 3.1 0 001.1.2" fill="#ff0"/><path d="M340.7 968.3a85 85 0 0032-5.6l14.3-1.2.2 17.6c-12.1 6.6-40.3 8-46.4 8-6.2 0-34.7-1.4-47-8.2l.2-17.5 14.4 1.3c6.6 3.4 21 5.6 32.3 5.6" transform="matrix(.03359 0 0 .03134 -7.6 -21.1)" fill="none" stroke-width=".3" stroke="#000"/><path d="M1 6.9h.4l-.1.7H.9s0-.2.1-.7" fill="#ff0"/><path d="M257 893.6l12.5 4-3.9 20.5-12 1.9s-2-10.7 3.3-26.4zm0 0" transform="matrix(.03359 0 0 .03134 -7.6 -21.1)" fill="none" stroke-width=".3" stroke="#000"/><path d="M1.3 7.6H.9l.3-.2.1.2" fill="#7e7e7e"/><path d="M265.6 917.9l-12 2 7.7-10.6 4.3 8.6" transform="matrix(.03359 0 0 .03134 -7.6 -21.1)" fill="none" stroke-width=".3" stroke="#000"/><path d="M.8 7.3h.4c0 .4 0 1.6 1.6 1.7v.4c-2 0-2.1-1.5-2-2" fill="#ff0"/><path d="M249.2 908.4l12.3.9c.3 10.3 1.5 49.7 48.7 52l-1.5 14.3c-57.4.6-61.7-48.4-59.5-67.2zm45 70.2l14.2-3.2" transform="matrix(.03359 0 0 .03134 -7.6 -21.1)" fill="none" stroke-width=".3" stroke="#000"/><path d="M6.6 6.9l-.4.1.1.6.4.1s0-.3-.1-.8" fill="#ff0"/><path d="M423.5 893.7l-12.6 4 4 20.5 12 2s2-10.8-3.4-26.5zm0 0" transform="matrix(.03359 0 0 .03134 -7.6 -21.1)" fill="none" stroke-width=".3" stroke="#000"/><path d="M6.3 7.6h.4l-.2-.2-.2.2" fill="#7e7e7e"/><path d="M414.9 918l12 2.1-7.7-10.7-4.3 8.6" transform="matrix(.03359 0 0 .03134 -7.6 -21.1)" fill="none" stroke-width=".3" stroke="#000"/><path d="M6.9 7.3h-.4c0 .4 0 1.6-1.7 1.7v.4c2 0 2.1-1.5 2-2" fill="#ff0"/><path d="M431.1 908.5l-12 .8c-.3 10.4-1.1 50-48.3 52l1.6 14.3c57.4.7 61.3-48.3 58.7-67zm-44.2 70l-14.3-3" transform="matrix(.03359 0 0 .03134 -7.6 -21.1)" fill="none" stroke-width=".3" stroke="#000"/><path d="M3.6 9.5h-.1v-.1m0 .2l.1-.1v-.1h-.2v.2m.3-.2h.1m0 .2H4a.2.2 0 000-.1v-.1h-.2v.2m.3 0v-.2h.1v.2M4 9.4a.2.2 0 000 .1v.1h.2a.1.1 0 000-.1.1.1 0 000-.1H4 4M5.3 9a.1.1 0 010 .1h-.1v.2a.1.1 0 00.2 0v-.1h-.1.1a.1.1 0 01-.1.1.1.1 0 01-.1 0 .1.1 0 010-.1.1.1 0 010-.1m.3 0l.1-.1v.1m0 .1V9h.2L5.6 9h-.2v.3h.1M6 9L5.8 9l.2-.1-.2.1H6L6 9h.2l-.2.1m.2-.4h.2v.1H6m.2 0a.2.2 0 000-.1.2.2 0 00-.1 0 .1.1 0 00-.1 0l.1.2h.1m.2-.3l-.3-.1.3.1m0-.1l-.2-.1v-.2h.1v.2l.1-.1v.1l.1-.1v.2m0-.3h-.2V8l.3-.1h-.2.2l-.2.1h.2m0-.2v-.1-.1.1h-.1-.1v-.1.1h.1v-.1h.1a.1.1 0 010 .1m-5.8 0V8H1v-.1h.1V8H1 .9a.1.1 0 010-.1m0 .3l.3-.1v.2V8H1v.2-.1H1v.1-.1m0 .3l.3-.1-.2.2h.3l-.2.1.2-.1H1l.2-.2-.2.1m.4.3v-.1.1m-.2 0H1.7l-.1-.2-.2.2m.3.3l.1-.3.2.1h-.2l.1.1h-.1v.1h-.1M2 9h.1H2m0 .1h.1V9L2 9l-.1.2" fill="#009fc5"/><path d="M2.3 4.8s.3-.3 1.3-.2l.3.1h-.1c-.1-.1-.1-.2 0-.2h.9l-.5.1c-.1 0-.1.1 0 .1.4 0 .9-.2 1.3.2h-.3-.6-.3s0 .3-.6.1c0 0-.4.1-.4 0h-.2l.3-.2h-.8-.3" fill="#bc715f"/><path d="M2.5 5.6h.2c0 .1.1 0 .2 0a.6.6 0 01.3 0l-.1.2v.1h-.2V6h-.1v.3h-.1V6a.5.5 0 01-.2.2V6a.1.1 0 010-.1h-.1c0-.1-.1 0-.2 0a.2.2 0 010-.3L2 5.5a.4.4 0 01.4.1" fill="#008737"/><path d="M2.6 5.6s0 .1 0 0v.1h-.1v-.1m.3 0v.1h-.1s0-.1 0 0m-.2 0v.1h.1-.1V6h-.1v-.1h.1" fill="#ff0"/><path d="M2.7 5.8h-.1m.2 0" fill="#fff"/><path d="M2.8 5.8V6h-.2v-.1-.1h.2" fill="#ff0"/><path d="M2.7 5.9"/><path d="M2.7 6v-.1" fill="#fff"/></svg>