<svg xmlns="http://www.w3.org/2000/svg" width="20" height="14"><path fill="#002395" d="M0 0h20v14H0z"/><path d="M0 0h9.1v5.7H0zm0 0" fill="#fff"/><path d="M0 0h3v5.6H0zm0 0" fill="#002395"/><path d="M6 0h3v5.6H6zm0 0" fill="#ed2939"/><path d="M13.3 6.4l.5.7h1.4v2.5l-1-1.5-1.4 2h.6l.7-1.1 1.5 2.4L17.1 9l.7 1.2h.6l-1.3-2-1 1.4V8.2h.5l.5-.6h-1V7h1.3l.5-.7zm1.6 3h-1.5v.6H15zm2.9 0h-1.5v.6h1.5zM15.6 12l.5 1.4-1.2-.9h1.5l-1.3.9zm-1.7-1.2l.5 1.4-1.2-.8h1.5l-1.2.8zm3.4 0l.4 1.4-1.2-.8H18l-1.2.8zm0 0" fill="#fff"/><path d="M12.5 7.2l.4 1.3-1.2-.8h1.5l-1.2.8zm6.2 0l.5 1.3-1.2-.8h1.5l-1.2.8zm0 0" fill="#fff"/></svg>