<svg xmlns="http://www.w3.org/2000/svg" width="20" height="14"><path fill="#28ae66" d="M0 0h20v14H0z"/><path d="M6.5 3.8c.8.3 1.8 0 2.1-.5.4-.5.4-1.3-.2-2 1 .7 1.2 1.5.7 2.3-.7.8-2 .7-2.6.2zm0 0" fill-rule="evenodd" fill="#fff"/><path d="M8 1.9v.2H7.7V2h.1v-.1zm-.9 1h.2H7v.2h-.2v-.2H7v-.2zm0-.8h.2l-.1.1v.1H7v-.1L7 2.1H7v-.2zm0-.8h.2l-.1.1v.2H7v-.1L7 1.4H7l.1-.2zm-.8 1h.1l-.1.1v.1h-.2v-.1L6 2.3H6l.1-.2zm0 0" fill-rule="evenodd" fill="#fff"/><path d="M.1 0H5v14H0zm0 0" fill-rule="evenodd" fill="#ca3745"/><path d="M.1 3.6l.2-.3.1-.2H.2l.2-.4v.1l.1.2.2-.3-.2-.2v.1l-.3-.3h.1l-.1-.1V2l-.2-.2v-.1l.3.3.1.2v.2l.1-.1.3.3-.3.4v-.2L.3 3l.1.1-.1.1v.1l-.3.4zm0 0" fill-rule="evenodd" fill="#faae29"/><path d="M.1 2.4V2.7h.2-.1V3v-.6zM.1 6l.2-.3.1-.2H.2l.2-.4v.1l.1.2.2-.3-.2-.2V5l-.3-.3h.1l-.1-.2-.2-.3.3.3.1.2v.2l.1-.2.3.4-.3.3-.1-.1v.2l-.1.1v.1L.1 6zm0 0" fill-rule="evenodd" fill="#faae29"/><path d="M.1 4.8V5.1h.2-.1V5.4v-.6zm0 3.6L.3 8l.1-.2H.2l.2-.3.1.1.2-.2-.2-.2v.1l-.3-.3h.1l-.1-.2-.2-.3.3.3.1.2v.2l.1-.2.3.4-.3.4-.1-.2v.2l-.1.2zm0 0" fill-rule="evenodd" fill="#faae29"/><path d="M.1 7.2V7.5h.2-.1V7.8v-.6zm0 3.5v-.1l.2-.2v-.1l.1-.2v.1H.2l.2-.4v.1l.1.1.2-.3-.2-.2v.2l-.3-.4v.1h.1l-.1-.2-.2-.3v-.1l.3.3v.1l.1.1v.2l.1-.1.3.4-.3.3-.1-.2v.2l-.1.2zm0 0" fill-rule="evenodd" fill="#faae29"/><path d="M.1 9.4V9.8h.2v.1H.2v.2-.6zM5 3.6l-.2-.3-.1-.2h.1l-.2-.4v.1l-.1.1-.2-.2.2-.2v.1l.3-.3h-.1l.1-.2.2-.3-.3.3-.1.2v.2l-.1-.2-.3.4.3.3.1-.1v.2l.1.1v.1zm0 0" fill-rule="evenodd" fill="#faae29"/><path d="M5 2.4V2.7h-.2.1V3zM5 6l-.2-.3-.1-.2h.1l-.2-.4v.1l-.1.2-.2-.3.2-.2V5l.4-.3h-.2l.1-.1v-.1l.2-.2v-.1l-.3.3V5l-.2-.2-.3.4.3.3.1-.1.1.1V5.7L5 6zm0 0" fill-rule="evenodd" fill="#faae29"/><path d="M5 4.8V5.1h-.2.1V5.4zm0 3.6L4.8 8l-.1-.2h.1l-.2-.3-.1.1-.2-.2.2-.2v.1l.3-.3h-.1l.1-.2.2-.3-.3.3-.1.2v.2l-.1-.2-.3.4.3.4.1-.2v.2l.1.2.3.3zm0 0" fill-rule="evenodd" fill="#faae29"/><path d="M5 7.2V7.5h-.2.1V7.8zm0 3.5v-.1l-.2-.2v-.1l-.1-.2.1.1-.2-.4v.1l-.1.1-.2-.3.2-.2v.2l.3-.3v-.1.1h-.1l.1-.2.2-.3v-.1l-.3.4v.2l-.1.1-.1-.1-.3.4.3.3.1-.1v.2l.1.1.3.4zm0 0" fill-rule="evenodd" fill="#faae29"/><path d="M5 9.4V9.8h-.2v.1h.1v.2zM0 1L.3.6.4.4H.2L.5.1l.1.1.2-.2H1L.6.4.5.2v.2L.4.6.1 1zm0-.9h.3-.2V.4zM5 1V.8L4.8.6 4.7.3h.1L4.6 0v.1l-.1.1-.2-.2h-.1l.3.4.1-.2v.2l.1.2zm0-1h-.3.2V.3zM2.2 13.8s.1-.3.6-.4c.4 0 .5.2.7.2l.7-.2s-.4.4-.7.4l-.8-.2c-.3 0-.5.2-.5.2zm0 0" fill-rule="evenodd" fill="#faae29"/><path d="M3 13.8s-.2-.3-.6-.4c-.5 0-.5.2-.8.2l-.6-.2s.4.4.7.4l.7-.2.6.2zm0 0" fill-rule="evenodd" fill="#faae29"/><path d="M1.6 13.3l-.1-.4s.3.3.2.6l-.5-.1c0-.1.3-.1.4 0zm0 0" fill-rule="evenodd" fill="#faae29"/><path d="M1.3 13v-.4s.2.4.1.7L1 13c0-.1.3 0 .4 0zm0 0" fill-rule="evenodd" fill="#faae29"/><path d="M1 12.7l.1-.4s.2.4.1.7c-.1 0-.6-.3-.5-.4l.4.1zm0 0" fill-rule="evenodd" fill="#faae29"/><path d="M.9 12.4v-.5c.2 0 .2.5 0 .7l-.4-.4s.3 0 .4.2zm0 0" fill-rule="evenodd" fill="#faae29"/><path d="M.8 12l.1-.4v.7c-.2 0-.5-.5-.5-.5.1-.1.3.1.4.2zm0 0" fill-rule="evenodd" fill="#faae29"/><path d="M.8 11.6c0 .4 0 .4-.2.1v-.5l.2.4zm2.8 1.8v-.5l-.2.6H4c0-.2-.3-.2-.4-.1zm0 0" fill-rule="evenodd" fill="#faae29"/><path d="M3.8 13s.1-.3 0-.4c0 0-.2.4-.1.7.1 0 .6-.2.5-.3h-.4zm0 0" fill-rule="evenodd" fill="#faae29"/><path d="M4 12.8v-.5s-.2.4 0 .7c0 0 .5-.3.4-.4 0 0-.2 0-.3.2zm0 0" fill-rule="evenodd" fill="#faae29"/><path d="M4.2 12.4V12c-.1 0-.2.4 0 .7l.4-.5-.4.2zm0 0" fill-rule="evenodd" fill="#faae29"/><path d="M4.4 12l-.2-.4v.7c.2 0 .5-.4.5-.5l-.4.3zm0 0" fill-rule="evenodd" fill="#faae29"/><path d="M4.3 11.7c0 .3.1.3.2 0v-.5l-.2.5zm0 0" fill-rule="evenodd" fill="#faae29"/><path d="M-3.5 290.6H-9v3.5h-5.3v3.5h-21.2l-3.6 3.6 1.8 1.8h9l1.6-1.8h-8.8l1.7-1.8h12.4l-5.3 5.3H-39l-3.5-1.7-3.6 1.7h-12.4l-5.3-5.3h12.4l1.8 1.8h-8.9l1.8 1.8h8.9l1.7-1.8-3.5-3.6H-69V294h-5.3v-3.5h-5.3v-16h5.3v-3.5h5.3v-3.6h19.5l3.5-3.5-1.7-1.8h-8.9l-1.8 1.8h9l-1.9 1.7h-12.4l5.3-5.3H-46l3.6 1.8 3.5-1.8h12.4l5.3 5.3h-12.4l-1.7-1.7h8.8l-1.8-1.8H-37l-2 1.8 3.7 3.5h21.2v3.6h5.3v3.5h5.4zm0 0" transform="matrix(.0436 0 0 .0429 4.4 -3.5)" fill-rule="evenodd" fill="#ca3745" stroke-width=".1" stroke="#000"/><path d="M375.6 499.7v24.7h10.6v7.1h10.6v7h35.5l14.1 10.7 14.2-10.6h39v-7h10.6v-7.2H521v-24.7h-10.8v-7.1h-10.6v-7.1h-38.8l-14.2-10.8-14.2 10.8H397v7h-10.8v7.2zm0 0" transform="matrix(.0218 0 0 .02145 -7.2 -2.3)" fill-rule="evenodd" fill="#28ae66" stroke-width="1.4" stroke="#faae29"/><path d="M2 8.2l-.4.3v-.3zm1 0l.4.3v-.3zm-1 1l-.4-.4V9zm1 0l.4-.4V9zm.1-.8l-.1.1h.3zM2 8.4l-.2.1h.4zm0 .5l-.2-.1h.4zm1.2 0L3 8.8h.3zm0 0" fill-rule="evenodd" fill="#ca3745"/><path d="M2.5 9.3l-.1-.2h.3zm0-.8l-.1-.1h.3zm0-.5l-.1.2h.3zm0 .8l-.1.1h.3zm0 0" fill-rule="evenodd" fill="#faae29"/><path d="M467.7 506.8h14.4v3.4h-14.4zm0 0" transform="matrix(.0218 0 0 .02145 -7.2 -2.3)" fill-rule="evenodd" fill="#faae29" stroke-width=".1" stroke="#000"/><path d="M414.5 510.2h7v3.7h-7zm56.8 0h7v3.7h-7zm0 0" transform="matrix(.0218 0 0 .02145 -7.2 -2.3)" fill-rule="evenodd" fill="#c00" stroke-width=".1" stroke="#000"/><path d="M439.4 489h14v3.6h-14zm0 7h14v3.7h-14zm-3.5-3.4h21.3v3.4h-21.3zm3.5 31.8h14v3.5h-14zm0 7.1h14v3.5h-14zm-3.5-3.4h21.3v3.4h-21.3zm0 0" transform="matrix(.0218 0 0 .02145 -7.2 -2.3)" fill-rule="evenodd" fill="#900" stroke-width=".1" stroke="#000"/><path d="M467.7 513.9h14.4v3.4h-14.4zm-56.8-7.1h14.4v3.4h-14.4zm0 6.9h14.4v3.6h-14.4zm-3.4-3.5h7v3.7h-7zm14.2 0h7v3.7h-7zm42.5 0h7v3.7h-7zm14.1 0h7.2v3.7h-7.2zm0 0" transform="matrix(.0218 0 0 .02145 -7.2 -2.3)" fill-rule="evenodd" fill="#faae29" stroke-width=".1" stroke="#000"/><path d="M2.3 9zm.2 0zm.2 0zm-.3 0zm.3 0zm-.3.1zm.3 0zm.3-.5zm.2 0zm.1 0zm-.3 0zm.3 0zm-.3.1zm.3 0zm-1-.4zm.2 0zm.2 0zm-.3-.1zm.3 0zm-.3.1zm.3 0zm-1 .4zm.2 0zm.2 0zm-.3-.1zm.2 0zm-.2.1zm.2 0zM2.8 7H3zm-.4 0h.2zM2 7h.2zm.8-1.3H3zm-.4 0h.2zm-.4 0h.2zm0 0" fill-rule="evenodd" fill="#fff"/><path d="M2.7 7.2h-.6v.2h.2v-.1h.2v.1h.1v-.1h.2v.1H3v-.1H3v-.1H2.7zm0-1.7l-.1-.1H2v-.2l.1.1h.1l.1.1h.1v-.2.1h.1l.1.1h.1v-.2.1H3l.1.1H2.7zm1.2 1l.2-.2-.2-.1.2-.1-.2-.2.2.1h.1v.1H4l-.1.1h.2v.2H4v.1h.2v.1H4l-.1.1h-.1l.2-.1-.2-.2zm-2.7 0l-.1-.2.1-.1-.1-.1.1-.2L1 6H.9v.1h.2v.1H.9v.2h.2v.1H.9v.1h.2v.1h.1l-.1-.1zm0 0" fill-rule="evenodd" fill="#28ae66"/><path d="M-26.6 214.4h1.8v1.7h-1.8zm-1.8 1.7h1.8v1.8h-1.7zm-8.8 8.9h1.8v1.8h-1.8zm1.8-1.8h1.7v1.8h-1.7zm-58.5 0h1.7v1.8H-94zm-8.9-8.8h1.8v1.7h-1.8zm1.8 1.7h1.8v1.8h-1.8zm0-39h1.8v1.8h-1.8zm-1.8 1.8h1.8v1.8h-1.8zm10.6-10.6h1.8v1.8H-92zm-1.7 1.8h1.7v1.8H-94zm56.7-1.8h1.8v1.8h-1.8zm1.8 1.8h1.7v1.8h-1.7zm7 7h1.8v1.8h-1.7zm1.8 2h1.8v1.6h-1.8zM-92 225h1.7v1.8H-92zm0 0" transform="matrix(.0375 0 0 .0328 5 -.2)" fill-rule="evenodd" fill="#28ae66" stroke-width=".3" stroke="#000"/><path d="M2.4 6.3h-.2V6h.2V6h.1v.1a.2.2 0 00-.1.2zm0 0" fill-rule="evenodd" fill="#fff"/><path d="M2.7 6.3H3V6h-.2V6h-.2v.1c.2 0 .2.1.2.2zm0 0" fill-rule="evenodd" fill="#faae29"/><path d="M2.7 6.3H3v.2h-.2v.1h-.2c.2 0 .2-.2.2-.3zm0 0" fill-rule="evenodd" fill="#fff"/><path d="M2.4 6.3h-.2v.2h.2v.1h.1a.2.2 0 01-.1-.3zm0 0" fill-rule="evenodd" fill="#faae29"/><path d="M2.7 6.3h-.2v-.2c.2 0 .2.1.2.2zm0 0" fill-rule="evenodd" fill="#28ae66"/><path d="M2.7 6.3h-.2v.2c.2 0 .2 0 .2-.2zm0 0" fill-rule="evenodd" fill="#ca3745"/><path d="M2.4 6.3h.1v.2a.2.2 0 01-.1-.2zm0 0" fill-rule="evenodd" fill="#28ae66"/><path d="M2.4 6.3h.1v-.2l-.1.2zm0 0" fill-rule="evenodd" fill="#ca3745"/><path d="M2.8 7H2v-.1h.2l.2.1v-.1h.2l.1.1H3v-.1H3l.1.1H3zm0-1.4l-.2.1-.2-.1-.2.1-.2-.1v.2h.2l.2-.1v.1h.2l.1-.1H3v.1H3l.1-.1v-.1l-.2.1-.2-.1zm.7.9l-.1-.2V6h-.1v.2h.1v.2h-.1v.1h.1v.2h-.1v.1h.1zm0 0" fill-rule="evenodd" fill="#28ae66"/><path d="M-101 177.2l-7 7v26.6l7 7h32l7-6.9v-26.6l-7.1-7zm-1.8-5.4l-17.7 17.8v16l17.7 17.6h35.5l17.7-17.7v-16l-17.7-17.7zm0 0" transform="matrix(.0375 0 0 .0328 5.7 -.2)" fill-rule="evenodd" fill="#28ae66" stroke-width=".4" stroke="#000"/><path d="M-94 147l3.6 5.4 3.6-5.4zm0 0" transform="matrix(.03 0 0 .02187 5 3.8)" fill-rule="evenodd" fill="#faae29" stroke-width=".3" stroke="#000"/><path d="M-94 147l3.6 5.4 3.6-5.4zm0 0" transform="matrix(.03 0 0 -.02187 5 8.8)" fill-rule="evenodd" fill="#faae29" stroke-width=".3" stroke="#000"/><path d="M-93.9 147l3.5 5.4 3.5-5.4H-94zm0 0" transform="matrix(.03 0 0 -.02187 5.5 8.8)" fill-rule="evenodd" fill="#faae29" stroke-width=".3" stroke="#000"/><path d="M-93.9 147l3.5 5.4 3.5-5.4H-94zm0 0" transform="matrix(.03 0 0 .02187 5.5 3.8)" fill-rule="evenodd" fill="#faae29" stroke-width=".3" stroke="#000"/><path d="M-94 147l3.6 5.4 3.6-5.4zm0 0" transform="matrix(.03 0 0 -.02187 4.8 8.8)" fill-rule="evenodd" fill="#ca3745" stroke-width=".3" stroke="#000"/><path d="M-94 147l3.6 5.4 3.6-5.4H-94zm0 0" transform="matrix(.03 0 0 -.02187 5.3 8.8)" fill-rule="evenodd" fill="#ca3745" stroke-width=".3" stroke="#000"/><path d="M-93.9 147l3.5 5.4 3.5-5.4H-94zm0 0" transform="matrix(.03 0 0 -.02187 5.7 8.8)" fill-rule="evenodd" fill="#ca3745" stroke-width=".3" stroke="#000"/><path d="M-104.5 180.7l3.5-3.5h-3.5zm0 0" transform="matrix(.05624 0 0 -.0492 7.6 15.8)" fill-rule="evenodd" fill="#ca3745" stroke-width=".3" stroke="#000"/><path d="M1.6 6.5l.1-.2V6h.1v.2h-.1v.2h.1v.1h-.1v.2h.1v.1h-.1zm0 0" fill-rule="evenodd" fill="#28ae66"/><path d="M-76.2 154.1h7l2 1.9-2 1.7h-7V154zm0 0" transform="matrix(.0375 0 0 .02952 6.4 1.6)" fill-rule="evenodd" fill="#ca3745" stroke-width=".3" stroke="#000"/><path d="M-99.2 180.7l-3.6 3.6v26.5l3.6 3.6h-5.3v-33.7zm0 0" transform="matrix(.0375 0 0 .0328 5.5 -.2)" fill-rule="evenodd" fill="#ca3745" stroke-width=".4" stroke="#000"/><path d="M-94 147l3.6 5.4 3.6-5.4zm0 0" transform="matrix(.03 0 0 .02187 4.8 3.8)" fill-rule="evenodd" fill="#ca3745" stroke-width=".3" stroke="#000"/><path d="M-94 147l3.6 5.4 3.6-5.4H-94zm0 0" transform="matrix(.03 0 0 .02187 5.3 3.8)" fill-rule="evenodd" fill="#ca3745" stroke-width=".3" stroke="#000"/><path d="M-93.9 147l3.5 5.4 3.5-5.4H-94zm0 0" transform="matrix(.03 0 0 .02187 5.7 3.8)" fill-rule="evenodd" fill="#ca3745" stroke-width=".3" stroke="#000"/><path d="M-99.2 180.7l-3.6 3.6v26.5l3.6 3.6h-5.3v-33.7zm0 0" transform="matrix(-.0375 0 0 .0328 -.4 -.2)" fill-rule="evenodd" fill="#ca3745" stroke-width=".4" stroke="#000"/><path d="M-104.5 180.7l3.5-3.5h-3.5zm0 0" transform="matrix(-.05624 0 0 -.0492 -2.5 15.8)" fill-rule="evenodd" fill="#ca3745" stroke-width=".3" stroke="#000"/><path d="M-104.5 180.7l3.5-3.5h-3.5zm0 0" transform="matrix(-.05624 0 0 .0492 -2.5 -3.1)" fill-rule="evenodd" fill="#ca3745" stroke-width=".3" stroke="#000"/><path d="M-104.5 180.7l3.5-3.5h-3.5zm0 0" transform="matrix(.05624 0 0 .0492 7.6 -3.1)" fill-rule="evenodd" fill="#ca3745" stroke-width=".3" stroke="#000"/><path d="M-101 177.2l-7 7v26.6l7 7h32l7-6.9v-26.6l-7.1-7zm0-1.7l-8.8 8.6v26.7l8.8 9h32l8.8-9v-26.7l-8.9-8.6zm0 0" transform="matrix(.0375 0 0 .0328 5.7 -.2)" fill-rule="evenodd" fill="#28ae66" stroke-width=".4" stroke="#000"/><path d="M-76.2 154.2h7l2 1.7-2 1.8h-7V154zm0 0" transform="matrix(.0375 0 0 .02952 6.4 1.7)" fill-rule="evenodd" fill="#faae29" stroke-width=".3" stroke="#000"/><path d="M-76.2 154h7l2 2-2 1.7h-7v-3.8zm0 0" transform="matrix(.0375 0 0 .02952 6.4 1.8)" fill-rule="evenodd" fill="#ca3745" stroke-width=".3" stroke="#000"/><path d="M-76.2 154.1h7l2 1.7-2 1.9h-7V154zm0 0" transform="matrix(.0375 0 0 .02952 6.4 2)" fill-rule="evenodd" fill="#faae29" stroke-width=".3" stroke="#000"/><path d="M-76.2 154.1h7l2 1.8-2 1.8h-7V154zm0 0" transform="matrix(.0375 0 0 .02952 6.4 1.5)" fill-rule="evenodd" fill="#faae29" stroke-width=".3" stroke="#000"/><path d="M-76.2 154.1h7l2 1.9-2 1.7h-7V154zm0 0" transform="matrix(-.0375 0 0 .02952 -1.3 1.6)" fill-rule="evenodd" fill="#ca3745" stroke-width=".3" stroke="#000"/><path d="M-76.2 154.2h7l2 1.7-2 1.8h-7V154zm0 0" transform="matrix(-.0375 0 0 .02952 -1.3 1.7)" fill-rule="evenodd" fill="#faae29" stroke-width=".3" stroke="#000"/><path d="M-76.2 154h7l2 2-2 1.7h-7v-3.8zm0 0" transform="matrix(-.0375 0 0 .02952 -1.3 1.8)" fill-rule="evenodd" fill="#ca3745" stroke-width=".3" stroke="#000"/><path d="M-76.2 154.1h7l2 1.7-2 1.9h-7V154zm0 0" transform="matrix(-.0375 0 0 .02952 -1.3 2)" fill-rule="evenodd" fill="#faae29" stroke-width=".3" stroke="#000"/><path d="M-76.2 154.1h7l2 1.8-2 1.8h-7V154zm0 0" transform="matrix(-.0375 0 0 .02952 -1.3 1.5)" fill-rule="evenodd" fill="#faae29" stroke-width=".3" stroke="#000"/><path d="M-101 179v37h8.9v8.9h56.7v-9h8.8V179h-8.8v-8.8H-92v8.8zm1.8 1.7v33.7h8.8v8.8h53.2v-8.8h9v-33.7h-9V172h-53.2v8.8h-8.8zm0 0" transform="matrix(.0375 0 0 .0328 5 -.2)" fill-rule="evenodd" fill="#970000" stroke-width=".3" stroke="#000"/><path d="M-28.4 69l-5.3-7v-5.3l-5.3-5.3h-10.6l-9-5.3h-28.2l-9 5.3h-10.5l-5.3 5.3V62l-5.3 7v14.3l5.3 7v5.4l5.3 5.3h10.6l9 5.2h28.1l9-5.2H-39l5.3-5.3v-5.3l5.4-7V69zm0 0" transform="matrix(.0375 0 0 .03154 5.3 -1)" fill-rule="evenodd" fill="#ca3745" stroke-width=".3" stroke="#000"/><path d="M1 1.4v.2l.2.2V2l.2.1h.4l.3.2h.5v-.9H1zm0 0" fill-rule="evenodd" fill="#faae29"/><path d="M2 1.8l-.3.1h-.1v.2h.2V2l.3-.2zm0 0" fill-rule="evenodd" fill="#ca3745"/><path d="M1.7 1.7l-.2.1h-.2V2h.2V2l.3-.2zm-.1-.2l-.2.1h-.2v.1h.2l.3-.2h-.1zm0 0" fill-rule="evenodd" fill="#ca3745"/><path d="M4.1 1.4v-.2L4 1V.8L3.7.7h-.3L3 .5h-.4v.9zm0 0" fill-rule="evenodd" fill="#faae29"/><path d="M2.6 2.3h-.2l-.1-.1h-.4L2 2h.2l.2-.1h.2v.1h-.2zm0 0" fill-rule="evenodd" fill="#ca3745"/><path d="M1 1.4v-.2l.2-.2V.8l.2-.1h.4L2 .5h.5v.9zm0 0" fill-rule="evenodd" fill="#fff"/><path d="M2.6.5h-.2l-.1.1h-.4l.1.1h.2l.2.1h.2V.7h-.2zm0 0" fill-rule="evenodd" fill="#ca3745"/><path d="M2.6.5l.2.1h.4v.1H2.8l-.2.1h-.2V.7h.2L2.6.5zm0 0" fill-rule="evenodd" fill="#ca3745"/><path d="M4.1 1.4v.2l-.2.2V2l-.2.1h-.3l-.4.2h-.4v-.9H4zm0 0" fill-rule="evenodd" fill="#fff"/><path d="M2.6 2.3l.2-.1h.4V2H2.8L2.7 2h-.1v.1h.1l-.1.2zM1.7 1L1.5 1h-.2V.7h.2v.1l.3.2zm1.4 0l.3-.2h.1V.6h-.1l-.1.1L3 1zm0 0" fill-rule="evenodd" fill="#ca3745"/><path d="M2 1L1.7 1h-.1V.6h.2v.1l.3.2zm-.4.3l-.3-.1h-.1V1h.2l.3.2h-.1zm0 0" fill-rule="evenodd" fill="#ca3745"/><path d="M1 1.4h1.5v.9l-.1-.2-.4-.3h-.4v-.2l-.2-.1H1zm0 0" fill-rule="evenodd" fill="#fff"/><path d="M1 1.4h1.5V.6h-.1v.1L2 1h-.4v.2l-.2.1h-.2zm0 0" fill-rule="evenodd" fill="#faae29"/><path d="M1.4 1.4h1.2v.7L2 1.8h-.4v-.2zm0 0" fill-rule="evenodd" fill="#28ae66"/><path d="M3.4 1.1l.2-.1h.2V.7h-.2v.1l-.3.2zm.1.2l.3-.1h.1V1h-.2l-.3.2zm0 0" fill-rule="evenodd" fill="#ca3745"/><path d="M4 1.4H2.5V.6h.1v.1L3 1h.4v.2l.2.1H4zm0 0" fill-rule="evenodd" fill="#fff"/><path d="M3.8 1.4H2.5V.7L3 1h.4v.2zm0 0" fill-rule="evenodd" fill="#28ae66"/><path d="M3.1 1.8l.3.1h.1v.2h-.1L3.2 2 3 1.8zm0 0" fill-rule="evenodd" fill="#ca3745"/><path d="M3.4 1.7l.2.1h.2V2h-.2V2l-.3-.2zm.1-.2l.3.1h.1v.1h-.2l-.3-.2h.1zm0 0" fill-rule="evenodd" fill="#ca3745"/><path d="M4 1.4H2.5v.9l.1-.2.4-.3h.4v-.2l.2-.1H4zm0 0" fill-rule="evenodd" fill="#faae29"/><path d="M3.8 1.4H2.5v.7l.5-.3h.4v-.2zm-2.4 0h1.2V.7L2 1h-.4v.2zm0 0M2.7 1.4l.3-.2h.2V1H3l-.4.2zm-.3 0l-.3.2h-.2v.1H2l.5-.2zm0 0" fill-rule="evenodd" fill="#ca3745"/><path d="M2.4 1.4l-.3-.2h-.2V1h.2l.5.2zm.3 0l.3.2h.2v.1H3l-.4-.2zm0 0" fill-rule="evenodd" fill="#28ae66"/><path d="M2.2 1.4l.4-.3.4.3-.4.3zm0 0" fill-rule="evenodd" fill="#fff"/><path d="M1.3 1.5v.1h-.1L1 1.4l.2.2v-.1h.2zm0-.2v-.1h-.1l-.2.2.2-.2v.1h.2zm2.5.2v.1H4l.2-.2-.2.2v-.1h-.2zm0-.2v-.1H4l.2.2-.2-.2v.1h-.2zm-1.3-.1h.1v.4h-.1zm0 0" fill-rule="evenodd" fill="#ca3745"/><path d="M2.3 1.3h.5v.2h-.5zm0 0" fill-rule="evenodd" fill="#ca3745"/><path d="M333 170l-10.6 5.4v8.8l10.7 5.4h10.6l10.6-5.4v-8.8l-10.6-5.3h-10.6zm0 0" transform="matrix(.10415 0 0 .1052 -32.7 -8)" fill-rule="evenodd" fill="#28ae66" stroke-width=".1" stroke="#000"/><path d="M1.3 10.8h.2v-.2h-.2zm1.7 1v-.2h.2v.1-.2H3v.2zm-1-1.4v-.1h.1v-.2.1H2v.2zm1 0v-.1H3v-.2.1H3v.2zm.5.4H3.8v-.2h-.2zm0 .5h.1v-.1h.2V11v.1h-.2zm0 0" fill-rule="evenodd" fill="#c00"/><path d="M2.6 12v-1h1.6v.4l-1.1.5h-.6zm0-2v1H.9v-.5L2 9.9zm0 0" fill-rule="evenodd" fill="#faae29"/><path d="M2.6 10v1h1.6v-.5L3 9.9h-.6zm0 2v-1H.9v.4l1.1.5zm0 0" fill-rule="evenodd" fill="#fff"/><path d="M-177.2 368.4h21.3l-21.3-10.5zm24.8-1.7v17.7H-186v-14.1h-7.1l-9-5.3v-12.4l5.5-5.4h-7.1V365h-1.8v-19.6h17.7zm0 0" transform="matrix(.03024 0 0 .02516 8.8 1.3)" fill-rule="evenodd" fill="#faae29" stroke-width=".1" stroke="#000"/><path d="M2 10.6v.6h.2l.4.2.3-.2h.2v-.6h-.2l-.3-.2-.4.2zm0 0" fill-rule="evenodd" fill="#ca3745"/><path d="M-177.1 368.5h21.1l-21.1-10.7zm24.8-1.8v17.7h-33.8v-14.2h-7l-8.9-5.2v-12.5l5.3-5.2h-7V365h-1.7v-19.4h17.7zm0 0" transform="matrix(-.03024 0 0 -.02516 -3.7 20.6)" fill-rule="evenodd" fill="#faae29" stroke-width=".1" stroke="#000"/><path d="M-177.1 368.4h21.1L-177 358zm24.8-1.7v17.7h-33.8v-14.1h-7l-8.9-5.3v-12.4l5.3-5.4h-7V365h-1.7v-19.6h17.7zm0 0" transform="matrix(-.03024 0 0 .02516 -3.7 1.3)" fill-rule="evenodd" fill="#fff" stroke-width=".1" stroke="#000"/><path d="M-177.2 368.5h21.3l-21.3-10.7zm24.8-1.8v17.7H-186v-14.2h-7.1l-9-5.2v-12.5l5.5-5.2h-7.1V365h-1.8v-19.4h17.7zm0 0" transform="matrix(.03024 0 0 -.02516 8.8 20.6)" fill-rule="evenodd" fill="#fff" stroke-width=".1" stroke="#000"/><path d="M1.3 11.3V11h.2v.2-.3.1h-.2V11zm.6.4v-.1h.2v.1-.3.2H2v-.2.3zm-.6-1.1v.1h.2v-.1.3-.2h-.2v.2-.3zm.6-.5v.2h.2V10v.3-.1H2v.1zm1 1.6H3v-.1h.1v.1h.1v-.3.2H3v-.2.3zm.7-.8v-.2h.2v.2-.3.1h-.2v-.1.3zm0 0" fill-rule="evenodd" fill="#ca3745"/><path d="M3 11.7v-.1h.1v.1-.3.2H3v-.2.3zm0 0" fill-rule="evenodd" fill="#ca3745"/><path d="M3 11.7v-.1h.1v.1-.3.2H3v-.2.3zm.6-.4V11h.2v.2-.3.1h-.2V11v.3zm-.7-.9H3v-.1h.1v.1-.3.2H3V10zm0 0" fill-rule="evenodd" fill="#ca3745"/><path d="M2.6 11l.2-.2H3v-.2h-.3v.1h.2l-.2.2-.3-.2h.2v-.1h-.2v.1H2v.2h.2-.1v-.1l.3.1-.2.2h-.1V11 11.3h.3V11v.1h-.2l.3-.2.2.1v.1h-.1H3V11h-.2.1zm0 0" fill-rule="evenodd" fill="#fff"/><path d="M1 4h.8l.4-.5H3l.4.4H4v.2h-.7l-.4.5h-.7L1.8 4h-.6zm0 0" fill-rule="evenodd" fill="#ca3745"/><path d="M372 391.4l2-2h22.9l17-19.3h19l17.2 19.5H473l2 2-2 2h-22.8l-15.4 17.3H412l-15.1-17.3h-23zm0 0" transform="matrix(.02815 0 0 .02382 -9.4 -5.3)" fill-rule="evenodd" fill="#ca3745" stroke-width=".3" stroke="#000"/><path d="M2.8 4l.2.3h-.1v.1h.2v-.2L2.9 4l.2-.2-.1-.2h-.1v.1H3l-.2.3-.2-.2.2-.2-.2.1-.3-.2.2.3-.2.2-.2-.2.1-.1h.1H2v.1l.1.2-.2.2v.1l.1.1h.2-.1L2 4.3l.2-.2.2.2-.2.2.3-.2.2.2-.2-.2.2-.2zm-.2-.2l-.3.2.3.2.2-.2zm-.4.8v.3h.6v-.3zM3 3.5V3h-.6v.4zm.8.4v-.4H3.3V4h.3zm-2 0v-.4H1.3V4zm2 .2v.4H3.3v-.4zm-2 0v.4H1.3v-.4zm0 0" fill-rule="evenodd" fill="#faae29"/><path d="M2.9 4.6v.2h.4V4zm-.7 0v.2h-.4V4zm0-1.1v-.3h-.4V4zm.7 0v-.3h.4V4zm-1.5 1v-.1H1v-.8H1.4V4h-.1L1 4v.1h.3zm2.3 0l.1-.1H4.1v-.8H3.7V4H4v.2h-.3zm0 0" fill-rule="evenodd" fill="#28ae66"/><path d="M2 4.6v0h.1v-.1h-.2c0 .1 0 0 0 0zm0 0" fill-rule="evenodd" fill="#fff"/><path d="M2.5 4.7V5h.1v-.2-.1l-.2.1c0 .1.1 0 .1 0zm0 0" fill-rule="evenodd" fill="#ca3745"/><path d="M2 4h-.1.2zm.7 0h-.2.2zm.5 0H3h.2zm0 0" fill-rule="evenodd" fill="#28ae66"/><path d="M2 3.5v-.1.1h.1-.2c0-.1 0 0 0 0zm0 0" fill-rule="evenodd" fill="#fff"/><path d="M2.5 3.3V3l.1.1v.2h-.2c0-.2.1 0 .1 0v-.1zm0 0" fill-rule="evenodd" fill="#ca3745"/><path d="M3 4.6l.1.1v-.1h.1v-.1H3c0 .1 0 0 0 0zm0-1.1v-.1h.1v.1h.1H3c0-.1 0 0 0 0zm0 0" fill-rule="evenodd" fill="#fff"/><path d="M1.5 4.3v.1h.1v-.2 0l-.2.1h.1zm0-.5v-.1h.1v.1h-.2.1zm2 .5v.1h.1v-.1-.1h-.2c0 .1.1 0 .1 0zm0-.6h.1v.1h-.2c0-.1.1 0 .1 0zm0 0" fill-rule="evenodd" fill="#ca3745"/><path d="M1.1 4.3v-.1h.1v.1zm0-.6v.1h.1zm2.8.6v-.1H4v.1zm0-.6v.1H4zm0 0" fill-rule="evenodd" fill="#fff"/><path d="M115.2 177.2v-5.4h-16v-10.6H85v-3.6H72.6v-31.9H85v-3.5h14.2v-10.6h16v-5.2h21.2v5.2h16v10.6h14v3.5H179v32h-12.4v3.5h-14v10.6h-16v5.4zm-1.8 1.8v-5.4h-16V163H83.3v-3.6H70.9V124h12.4v-3.5h14v-10.7h16.1v-5.4h24.8v5.4h16v10.7h14.1v3.5h12.4v35.4h-12.4v3.6h-14.2v10.6h-16v5.4zm0 0" transform="matrix(.03024 0 0 .0262 -1.3 .3)" fill-rule="evenodd" fill="#ca3745" stroke-width=".1" stroke="#000"/></svg>