<svg xmlns="http://www.w3.org/2000/svg" width="20" height="14"><path fill="#e30a17" d="M0 0h20v14H0z"/><path d="M12.7 7.2c0 2-1.7 3.5-3.8 3.5-2.1 0-3.8-1.6-3.8-3.5 0-2 1.7-3.5 3.8-3.5 2.1 0 3.8 1.6 3.8 3.5zm0 0" fill-rule="evenodd" fill="#fff"/><path d="M13 7.2c0 1.6-1.5 2.8-3.1 2.8-1.7 0-3-1.2-3-2.8 0-1.5 1.3-2.8 3-2.8 1.6 0 3 1.3 3 2.8zm0 0" fill-rule="evenodd" fill="#e30a17"/><path d="M13.5 5.6v1.3l-1.4.3 1.3.4v1.2l.8-1 1.3.5-.8-1 1-1-1.4.4-.8-1.1zm0 0" fill-rule="evenodd" fill="#fff"/></svg>