<svg xmlns="http://www.w3.org/2000/svg" width="20" height="14"><path fill="#fe0000" d="M0 0h20v14H0z"/><path d="M0 0h11.3v7H0zm0 0" fill-rule="evenodd" fill="#000095"/><path d="M8.3 4.9l-1.4-.3.3 1.3-1-.9-.5 1.3L5.2 5l-1 1 .3-1.4L3 5l1-1-1.4-.4L4 3.1 3 2l1.5.3L4.2 1l1 .9.5-1.3L6 2l1-1L7 2.5 8.3 2l-1 1 1.4.4-1.4.4zm0 0" fill-rule="evenodd" fill="#fff"/><path d="M7 4.8l-.5.2-.4.2h-1L4.7 5l-.4-.2-.3-.5-.2-.3V3l.3-.4.2-.4.4-.2.5-.2h1l.4.2.4.3.2.4.3.4V4l-.3.4zm0 0" fill-rule="evenodd" fill="#000095"/><path d="M7.2 3.5c0 .5-.3 1-.8 1.3a1.6 1.6 0 01-1.5 0C4.4 4.5 4 4 4 3.5c0-.8.7-1.3 1.5-1.3.9 0 1.5.5 1.6 1.3zm0 0" fill-rule="evenodd" fill="#fff"/></svg>