<svg xmlns="http://www.w3.org/2000/svg" width="20" height="14"><path d="M-1.3 9.3h22.6v2.4H-1.4zm0 0" fill-rule="evenodd" fill="#ffe700"/><path d="M-1.3 7h22.6v2.3H-1.4zm0 0" fill-rule="evenodd"/><path d="M-1.3 4.7h22.6V7H-1.4zm0 0" fill-rule="evenodd" fill="#de3908"/><path d="M-1.3 2.3h22.6v2.4H-1.4zm0 0" fill-rule="evenodd" fill="#ffe700"/><path d="M-1.3 0h22.6v2.3H-1.4zm0 0" fill-rule="evenodd"/><path d="M335.7 256a79.8 79.8 0 11-159.5-.1 79.8 79.8 0 01159.5.1zm0 0" transform="matrix(.0293 0 0 .02734 2.5 0)" fill-rule="evenodd" fill="#fffdff" stroke="#000"/><path d="M242 194.9l-5.2-9.5c2-2 5.3-3.5 10.7-3.5l-.6 10.4-5 2.6zm0 0" transform="matrix(.0293 0 0 .02734 2.5 0)" fill-rule="evenodd" fill="#de3108" stroke="#000"/><path d="M247 192.3l.7-10.4s10.7-.8 16.6 6.2l-5.8 8.3-11.6-4zm0 0" transform="matrix(.0293 0 0 .02734 2.5 0)" fill-rule="evenodd" fill="#ffe700" stroke="#000"/><path d="M258.7 196.3l5.2-8.2c3.6 3.8 5 6.3 5.4 10.3.2.2-8.2 2.2-8.2 2zm0 0" transform="matrix(.0293 0 0 .02734 2.5 0)" fill-rule="evenodd" fill="#de3108" stroke="#000"/><path d="M244.5 331.1s10-11.2 29.2-9c-2.9-4.5-12.4-4-12.4-4s-2.6-22-.5-23.2c2.1-1.2 12 .1 12 .1 1.2 0 3.3-3.4 1.6-5.6-1.7-2.3-6.8-10.5-4.7-12.3 2-1.5 13.4 1 13.4 1l-32-41s-3.4-15.4 3.3-23c7.9-6.4 7-13.5 6.8-13.4-1-7.1-12-12.3-19.3-5.7-4.4 5.1-1.5 9.1-1.5 9.1s-11.5 3.2-11.9 5.2c-.5 2 12.8-.3 12.8-.3l-1.2 9.1s-26 23.6-6 44l.6-.8s7 8.6 14.4 10.6c6.9 7 6.2 6 6.2 6s1.2 11 0 13.2a102 102 0 00-22-.2c-2.4.8-11.3.2-9 15.1l3.2-7.4s-.3 5.3 1.8 7.1c-.2-5.6 2.2-9.4 2.2-9.4s.4 6.3 1.8 7c1.4 1 1.4-10 9-9 7.4.8 12.9.6 12.9.6s2.5 21.4 1.7 23.4c-5.4-1.3-18.4.6-19.2 3.8 7.6-.5 11.1.5 11.1.5s-6.1 5.4-4.1 8.5zm0 0" transform="matrix(.0293 0 0 .02734 2.5 0)" fill-rule="evenodd" stroke-width=".9" stroke-linecap="round" stroke-linejoin="round" stroke="#000"/><path d="M247.6 214.9s-19 20.7-10.7 36.5c.4-2.1.2-3.5.4-3.4-.4-.3 2.4 1.9 2.2 1.4 0-1.1-.8-3.5-.8-3.5l2.5.7-1.5-2.9 3.8.4s-1.4-3.4-1-3.4l3 .2c-5.4-9.6-.3-17.6 2.1-26.2zm0 0" transform="matrix(.0293 0 0 .02734 2.5 0)" fill-rule="evenodd" fill="#9ca69c" stroke-width=".9" stroke-linecap="round" stroke-linejoin="round" stroke="#9ca69c"/><path d="M254.1 196.9s1.1 7.2-2.9 9.2c-.5.5-3 1.3-2.7 2.8.6 2 1.6 1.7 3.1 1.2 4.1-.7 9-9.4 2.5-13.2zm0 0" transform="matrix(.0293 0 0 .02734 2.5 0)" fill-rule="evenodd" fill="#9ca69c" stroke="#9ca69c"/><path d="M9.7 5.5zm0 0" fill-rule="evenodd" fill="#fff"/><path d="M241 209c-.9.9-6 6.3-.9 8.3 5.2-1.4 3.8-2.4 5-3.6 0-2.6-2.6-3.1-4-4.6zm0 0" transform="matrix(.0293 0 0 .02734 2.5 0)" fill-rule="evenodd" fill="#de3108" stroke="#000"/><path d="M252.5 260.6c-.2 1.1-1.4 5.5.2 8.8 4.6-2 6.8-1.3 8.2-.3-3.7-3-5.2-4.2-8.4-8.5zm0 0" transform="matrix(.0293 0 0 .02734 2.5 0)" fill-rule="evenodd" fill="#9ca69c" stroke-width=".9" stroke-linecap="round" stroke-linejoin="round" stroke="#9ca69c"/><path d="M260.4 281.1l.1 10.2s3.8.6 5.2 0c1.6-.6 0-7-5.3-10.2zm0 0" transform="matrix(.0293 0 0 .02734 2.5 0)" fill-rule="evenodd" fill="#fff" stroke-width=".9" stroke-linecap="round" stroke-linejoin="round" stroke="#fff"/><path d="M286 282.4s-6.5-15.8-23.2-19.8-14.5-21.7-13.2-22.9c.8-1.6 1.3-3.8 6.1-1.6 4.8 2.3 27 13.3 30.2 14 3.2.6.4 30.8.2 30.3zm0 0" transform="matrix(.0293 0 0 .02734 2.5 0)" fill-rule="evenodd" fill="#9ca69c" stroke="#000"/><path d="M270.1 262.6c-.2.1 22.4 13.3 15.6 24.5 6.4-4.2 4.4-11.7 4.4-11.7s5.2 13.7-7.6 20.5c1.4 1.2 2.3 1 2.3 1l-2.3 2.1s-.9 1.7 7.6-2.4c-2.2 1.8-2.4 3.3-2.4 3.3s.6 1.7 6.2-3.2c-4.6 4.9-5.5 7.4-5.5 7.3 12.3-1 39-41-8.4-52.7l2.1 2.1zm0 0" transform="matrix(.0293 0 0 .02734 2.5 0)" fill-rule="evenodd" fill="#de3108" stroke-width=".9" stroke-linejoin="round" stroke="#000"/><path d="M271.2 258.6c3 2.3 4.1 3 4.5 4-2.8-.6-5.3-.5-5.3-.5s-6.1-5.7-7.2-6.2c-.8 0-5.6-3-5.6-3-2.3-1.2-4.5-9.3 4.1-7 3.5 1.7 6.8 3.2 10.4 4.7l10.7 3.3 6.1 7s-10.9-5.5-12.4-5.6c3.1 2.4 4.8 5.8 4.8 5.8-3.6-1-6.5-2-10.1-2.5zm0 0" transform="matrix(.0293 0 0 .02734 2.5 0)" fill-rule="evenodd" fill="#fff" stroke-width=".9" stroke-linecap="round" stroke-linejoin="round" stroke="#000"/><path d="M228.4 209.9s10.5-2.6 11.9-2.2" transform="matrix(.0293 0 0 .02734 2.5 0)" fill="none" stroke-width=".9" stroke-linecap="round" stroke="#fff"/><path d="M-1.3 11.7h22.6V14H-1.4zm0 0" fill-rule="evenodd" fill="#de3908"/></svg>