<svg xmlns="http://www.w3.org/2000/svg" width="20" height="14"><path d="M0 9.3h20V14H0zm0 0" fill="#1eb53a"/><path d="M0 0h20v4.7H0zm0 0" fill="#0099b5"/><path d="M0 4.5h20v5H0zm0 0" fill="#ce1126"/><path d="M0 4.8h20v4.4H0zm6-2.6C6 3.2 5.2 4 4.2 4s-1.8-.7-1.8-1.7c0-.9.8-1.6 1.8-1.6S6 1.3 6 2.2zm0 0" fill="#fff"/><path d="M6.6 2.2c0 1-.8 1.7-1.8 1.7S3 3.2 3 2.2C3 1.3 3.8.6 4.8.6s1.8.7 1.8 1.6zm0 0" fill="#0099b5"/><path d="M8.2 3.3l-.2.3h.2" fill="#fff"/><path d="M8.2 3.3v.3h-.1" fill="#fff"/><path d="M8.5 3.5h-.4v.1" fill="#fff"/><path d="M8.5 3.5l-.3.2-.1-.2" fill="#fff"/><path d="M7.8 3.5l.3.2.1-.2" fill="#fff"/><path d="M7.8 3.5h.4v.1" fill="#fff"/><path d="M8.4 3.9l-.1-.4H8" fill="#fff"/><path d="M8.4 3.9L8 3.7v-.2" fill="#fff"/><path d="M8 3.9l.2-.2v-.2" fill="#fff"/><path d="M8 3.9v-.4h.2m0-1.6l-.2.3h.2" fill="#fff"/><path d="M8.2 2v.2h-.1" fill="#fff"/><path d="M8.5 2.1h-.4v.2" fill="#fff"/><path d="M8.5 2.1l-.3.2-.1-.1" fill="#fff"/><path d="M7.8 2.1l.3.2.1-.1" fill="#fff"/><path d="M7.8 2.1h.4v.2" fill="#fff"/><path d="M8.4 2.5l-.1-.3H8" fill="#fff"/><path d="M8.4 2.5L8 2.3v-.1" fill="#fff"/><path d="M8 2.5l.2-.2v-.1" fill="#fff"/><path d="M8 2.5v-.3h.2m0-1.6L8 .9h.2" fill="#fff"/><path d="M8.2.6v.3h-.1" fill="#fff"/><path d="M8.5.8h-.4V1" fill="#fff"/><path d="M8.5.8l-.3.2-.1-.1" fill="#fff"/><path d="M7.8.8l.3.2.1-.1" fill="#fff"/><path d="M7.8.8h.4V1" fill="#fff"/><path d="M8.4 1.2L8.3.8 8 1" fill="#fff"/><path d="M8.4 1.2L8 1V.8" fill="#fff"/><path d="M8 1.2l.2-.2V.8" fill="#fff"/><path d="M8 1.2V.8l.2.1m1.4 2.4l-.1.3h.2" fill="#fff"/><path d="M9.6 3.3l.1.3h-.2" fill="#fff"/><path d="M10 3.5h-.4v.1" fill="#fff"/><path d="M10 3.5l-.3.2-.2-.2" fill="#fff"/><path d="M9.3 3.5l.2.2.2-.2" fill="#fff"/><path d="M9.3 3.5h.3v.1" fill="#fff"/><path d="M9.8 3.9l-.1-.4h-.2" fill="#fff"/><path d="M9.8 3.9l-.3-.2.1-.2" fill="#fff"/><path d="M9.4 3.9l.3-.2-.1-.2" fill="#fff"/><path d="M9.4 3.9l.1-.4h.2M9.6 2l-.1.3h.2" fill="#fff"/><path d="M9.6 2l.1.2h-.2" fill="#fff"/><path d="M10 2.1h-.4v.2" fill="#fff"/><path d="M10 2.1l-.3.2-.2-.1" fill="#fff"/><path d="M9.3 2.1l.2.2.2-.1" fill="#fff"/><path d="M9.3 2.1h.3v.2" fill="#fff"/><path d="M9.8 2.5l-.1-.3h-.2" fill="#fff"/><path d="M9.8 2.5l-.3-.2.1-.1" fill="#fff"/><path d="M9.4 2.5l.3-.2-.1-.1" fill="#fff"/><path d="M9.4 2.5l.1-.3h.2M9.6.6l-.1.3h.2" fill="#fff"/><path d="M9.6.6l.1.3h-.2" fill="#fff"/><path d="M10 .8h-.4V1" fill="#fff"/><path d="M10 .8l-.3.2-.2-.1" fill="#fff"/><path d="M9.3.8l.2.2.2-.1" fill="#fff"/><path d="M9.3.8h.3V1" fill="#fff"/><path d="M9.8 1.2L9.7.8l-.2.1" fill="#fff"/><path d="M9.8 1.2L9.5 1l.1-.2" fill="#fff"/><path d="M9.4 1.2l.3-.2-.1-.2" fill="#fff"/><path d="M9.4 1.2l.1-.4.2.1M11 3.3v.3h.1" fill="#fff"/><path d="M11 3.3l.2.3H11" fill="#fff"/><path d="M11.4 3.5H11v.1" fill="#fff"/><path d="M11.4 3.5l-.3.2-.1-.2" fill="#fff"/><path d="M10.7 3.5l.3.2.1-.2" fill="#fff"/><path d="M10.7 3.5h.4v.1" fill="#fff"/><path d="M11.3 3.9l-.2-.4H11" fill="#fff"/><path d="M11.3 3.9l-.3-.2v-.2" fill="#fff"/><path d="M10.8 3.9l.3-.2v-.2M10.8 3.9l.1-.4h.2m0-1.6l-.2.3h.2" fill="#fff"/><path d="M11 2l.2.2H11" fill="#fff"/><path d="M11.4 2.1H11v.2" fill="#fff"/><path d="M11.4 2.1l-.3.2-.1-.1" fill="#fff"/><path d="M10.7 2.1l.3.2.1-.1" fill="#fff"/><path d="M10.7 2.1h.4v.2" fill="#fff"/><path d="M11.3 2.5l-.2-.3H11" fill="#fff"/><path d="M11.3 2.5l-.3-.2v-.1" fill="#fff"/><path d="M10.8 2.5l.3-.2v-.1M10.8 2.5l.1-.3h.2m0-1.6l-.2.3h.2" fill="#fff"/><path d="M11 .6l.2.3H11" fill="#fff"/><path d="M11.4.8H11V1" fill="#fff"/><path d="M11.4.8L11 1 11 .9" fill="#fff"/><path d="M10.7.8l.3.2.1-.1" fill="#fff"/><path d="M10.7.8h.4V1" fill="#fff"/><path d="M11.3 1.2L11 .8 11 1" fill="#fff"/><path d="M11.3 1.2L11 1V.8" fill="#fff"/><path d="M10.8 1.2l.3-.2V.8" fill="#fff"/><path d="M10.8 1.2l.1-.4.2.1M5.3 3.3l-.1.3h.1M5.3 3.3v.3M5.6 3.5h-.3v.1" fill="#fff"/><path d="M5.6 3.5l-.3.2v-.2M5 3.5l.2.2.1-.2" fill="#fff"/><path d="M5 3.5h.3v.1" fill="#fff"/><path d="M5.5 3.9l-.1-.4h-.2" fill="#fff"/><path d="M5.5 3.9l-.3-.2.1-.2" fill="#fff"/><path d="M5 3.9l.4-.2-.1-.2" fill="#fff"/><path d="M5 3.9l.2-.4h.2m1.3-.3v.4M6.7 3.3l.1.3h-.1" fill="#fff"/><path d="M7 3.5h-.3v.1" fill="#fff"/><path d="M7 3.5l-.2.2-.1-.2M6.4 3.5l.3.2v-.2" fill="#fff"/><path d="M6.4 3.5h.3v.1" fill="#fff"/><path d="M7 3.9l-.2-.4h-.2" fill="#fff"/><path d="M7 3.9l-.4-.2.1-.2" fill="#fff"/><path d="M6.5 3.9l.3-.2-.1-.2" fill="#fff"/><path d="M6.5 3.9l.1-.4h.2m0-1.6l-.2.3h.2" fill="#fff"/><path d="M6.7 2l.1.2h-.1" fill="#fff"/><path d="M7 2.1h-.3v.2" fill="#fff"/><path d="M7 2.1l-.2.2-.1-.1M6.4 2.1l.3.2v-.1" fill="#fff"/><path d="M6.4 2.1h.3v.2" fill="#fff"/><path d="M7 2.5l-.2-.3h-.2" fill="#fff"/><path d="M7 2.5l-.4-.2.1-.1" fill="#fff"/><path d="M6.5 2.5l.3-.2-.1-.1" fill="#fff"/><path d="M6.5 2.5l.1-.3h.2" fill="#fff"/></svg>