<svg xmlns="http://www.w3.org/2000/svg" width="20" height="14"><path fill="#fff" d="M0 0h20v14H0z"/><path d="M204.3 315s-.6-3.6 6.2-6.2c6.6-2.5 7.3-12.1 5.8-18.4 0 0-3.4 5.8-7.7 8 0 0-6.8 3.6-7.2 10.4 0 0 0 2.4-.5 4.5-.3 1-3.4-8.6 2.3-15.8 6-7.3 7.7-13.3 3-25 0 0-.4 7-5 11.2-4.8 3.8-5.4 4.2-5.3 13.9 0 0 0 3.3-1.7 4.5 0 0-3.6-5.3-4.6-8.8-1-3.5-1.3-5 2.8-9 0 0 13.2-8.7 3.7-27.4 0 0-.3 6.4-5 10.2-4.5 3.8-4.2 6.4-4.3 13-.3 6.6-.7 6.2-1.2 7.2 0 0-8.5-15.6-2-23.9 6.5-8.3 10.2-9.9 3-25.3 0 0 .3 8-5.5 11.8-5.7 4-4.3 13-4.3 13s.3 3.5-1 6c0 0-8-16-.3-24.3 6.6-7.4 7-12.5 3.5-22.7 0 0-.4 4.7-4 7.3-3.8 2.6-6.6 5-5.9 15 0 0 .3 7-.6 9 0 0-3.4-6.4-4.4-10.5-1-4.2-1.3-6.6 1.2-10.7 2.4-4 12.4-16 .6-33 0 0-.3 5.5-3.4 10.5-3 5-1.6 11-1 15.4.8 4.5-1.5 9-1.5 9s-5.3-9.6-4-20.6c1-11-3.4-20-13.5-26.3 0 0-7.3 17 2.8 25.7 0 0 8.4 8.4 10.6 18.6 0 0-6.5-.5-12.3-12-5.8-11.4-18-9.6-18.8-9.7 0 0 2 17.5 20.6 22.6 0 0 12 2 14.2 10.7 0 0 2 6 2.8 9.3 0 0-3.8-1.5-7.3-6.7-3.5-5-3-5.6-14.8-6.8 0 0-4.7-.6-7.2-4 0 0 5 18.6 17.7 18.6 0 0 11.6-1.4 18 13.9l-3-2c-1.6-1-6-3.2-14.4-2.3-8.5 1-10.9-.4-13-1 0 0 8.6 15.7 20.7 11 12.2-4.6 18 12.4 18.2 12.6 0 0-1.7-1-3.8-3.2-2.3-2.1-6.6-4.7-15-2 0 0-6.1 2.3-12.3.4 0 0 6 11.5 19.8 9.5a15 15 0 0117.3 10.2s-1.8-1-3-2c-1.3-1-6-3.8-16-.8s-13.6-.4-13.6-.4 5.6 10 16.2 11.2c0 0 6 0 8.3-.9 2.6-1 9.3-2.5 14 4.2 0 0-1.4.2-3.3-.7 0 0-7-2.6-12.5 2 0 0-4.8 5-11.7 4 0 0 9 8.4 23 1.3 0 0 4.6-3.4 8-.8 3.6 2.7 11.6-2.6 11.6-2.6zm0 0" transform="scale(.03125 .02917)" fill="#369443" stroke-width="1.5" stroke="#010002" stroke-miterlimit="10"/><path d="M282.3 103.7s-1.7-14.5 10-16a37.4 37.4 0 0118 1.2l5.4 10.6-2 7.2-7.4 3.4s1.3-11-8.8-11.3c-2.6 0-4 1.1-8.1.4-4.1-.8-6.3 3.8-7.1 4.5zm0 0" transform="scale(.03125 .02917)" fill="#f4c53d" stroke-width="1.5" stroke="#010002" stroke-miterlimit="10"/><path d="M363.8 139.6c-1.8 2.2-8.7 3-8.7 3s7.1 5.5 10.1 13.3c3 7.8-82.3 0-82.3 0s3.9-2.6 6.4-7.6c0 0-4 1.4-7.7-2.5 0 0 2.8 1.1 6.5-4.5 0 0 5.5-7 9.4-9 0 0-1.8 1.2-6.1-1.2 0 0 7.4-1 10-13.5 0 0 .5-2.8 3.4-7 2.7-4 2 1 7.3-5.5 0 0 2.4-4.3.3-7-2-2.7-4.3-1.7-8.6-4.3-4.4-2.6-6.3-4-4.8-8s5.3-3.4 5.9-3.4.9-3.5 5.5-6a36 36 0 0119.2-.2c2 1 9.5 3.4 14 14.5 4.4 11.2-1.2 15.4 10.8 32.4 0 0-4.8 1-7.9 0a44 44 0 0017.3 16.5zm0 0" transform="scale(.03125 .02917)" fill="#f4c53d" stroke-width="1.5" stroke="#010002" stroke-miterlimit="10"/><path d="M311 92.1c-10-.4-6.1-9.7-6.1-9.7" transform="scale(.03125 .02917)" fill="none" stroke-width="1.5" stroke="#010002" stroke-miterlimit="10"/><path d="M328 93.5s-1.8-.8-3.3-2.8c-2-2.7-6.6-4-9-1.4 0 0-2.4 2.8-4.8 3 0 0 2.6.6 4.4 2.3 1.6 1.6 3.4 2.8 6 2.4 2.6-.3 3-1.6 4.2-2.4 1.3-.8 2.5-1.1 2.5-1.1zm0 0" transform="scale(.03125 .02917)" fill="#f4c53d" stroke-width="1.5" stroke="#010002" stroke-miterlimit="10"/><path d="M202.8 336.6s-.2-6.5 7.8-6.9l23.5 32.7s-.8 2.2-11.5 1.9c0 0-1.2 0-1.8 1.2-1 2-18-29-18-29zm0 0" transform="scale(.03125 .02917)" fill="#369443" stroke-width="1.5" stroke="#010002" stroke-miterlimit="10"/><path d="M1494.7 1808s-49.8 85.4-109.6 87.2c0 0-103.8-12.5-133.7 14.2-20 18.7-40.7 34.7-49.8 82.7-8.3 48 16.6 58.7 22.4 60.5 0 0 5 34.7 39 25.8 0 0 1.7 36.5 62.3 18.7 59.8-16.9 84.7-11.6 97.2-72 11.6-59.7 22.4-58.8 33.2-65.9 14-9.8 41.5-18.7 61.4-30.2 18.3-10.7 87.2-46.3 111.3-49 23.2-2.6 18.2-81.8 18.2-81.8h-61.4l-29-43.6zm192.6-429.7s-61.4 49.8-113 0c0 0-19.8 25-61.3 17.8-41.6-7.1-48.2-29.3-52.4-41.8 0 0-35.7 21.3-65.5 4.4-30-16-30-40.9-30-40.9s-53 10.7-79.6-24.9c-26.6-35.6-10.8-71.2 4.1-75.6 0 0-57.3 15.1-72.2-33.8a55.5 55.5 0 0116.6-62.3s-119.6-.9-168.6-38.2c0 0-40.7-25.8-16.6-52.5 0 0-107-17-134.5-59.6 0 0-11.6-12.5-7.5-33 0 0 0-11.5 12.5-12.4 0 0-122.9-18.7-158.6-59.6 0 0-16.6-18.7-8.3-43.6 0 0 1.7-6.2 5-10.7 0 0-112.1-23-166.9-72.9 0 0-31.5-28.5-15-66.7 0 0-186.8-50.7-143.6-132.6 0 0-87.2-28.4-59.8-107.6 0 0-72.2-36.5-40.6-94.3 29.8-55.2 122.8 9.8 232.4 40 0 0 296.4 93.4 441.7 118.3l415.2 616.5 241.6 93.4zm0 0" transform="matrix(.0047 0 0 .0044 .1 .8)" fill="#f4c53d" stroke-width="10" stroke="#010002"/><path d="M1689.8 923.7s-39-29.3-108 5.4c0 0-23.2 16-41.4-1.8a35.7 35.7 0 01-11.7-29.4 36 36 0 0115.8-27.5c51.5-38.3 70.6-154-8.3-201 0 0-113.7-67.7-532.2-174.5 0 0-34.9-9.7-54-5.3a54.1 54.1 0 00-37.3 38.3s-18.3 53.3 44 83.6c0 0 29 13.3 58 21.3 0 0-32.3-7-45.6 25-13.3 30.2 5.8 61.3 64.8 81.8 0 0 15.8 6.2 38.2 11.6 0 0-49.8 14.2-25.8 55.1 0 0 21.6 42.7 98 50.7 0 0-57.3 6.2-16.6 60.5 0 0 17.4 29.4 73 40 0 0-42.3 1.8-20.7 39.2 21.6 38.2 71.4 59.6 120.4 63.1 0 0 27.4 1.8 45.7-2.6 0 0-47.4 23.1-19.1 63.1 0 0 19.9 27.6 70.5 26.7 0 0-12.4 43.6 24.1 60.5 29 12.5 53.2-8 53.2-8s-10 47.2 32.3 63.2c0 0 21.6 11.5 53.2 0 0 0 24 54.2 109.6 16 85.5-37.4 19.9-355 19.9-355zm5 489.3s-12.5 67.6-112.1 152.1c0 0-76.4 68.5-74.7 146 1.6 80-13.3 88.9-44 115.6 0 0 62.2 4.4 92.1-36.5 0 0-.8 68.5-10 74.7 0 0 19.2 1.8 47.4-29.3 0 0 17.4-17.8 33.2-25 0 0-18.3 48.1-4.1 91.7 0 0 5-17 29-25 0 0 44-8.8 60.6-72 0 0 11.6-41.8 80.6-80 0 0 78-29.4 75.5-67.7-1.6-38.2-173.5-244.6-173.5-244.6zm0 0" transform="matrix(.0047 0 0 .0044 .1 .8)" fill="#f4c53d" stroke-width="10" stroke="#010002"/><path d="M2056.8 2282.1s-18.3 79.2-80.5 73c0 0-44-4.5-40.7-77.4 0 0-64.8 33.8-74.8-51.6 0 0-59 14.2-59-65.8 0 0-54.7 8.9-48-61.4 0 0-59.8 16-59.8-51.6 0 0-139.5-23.1 151-288.2l260 154.8zm0 0" transform="matrix(.0047 0 0 .0044 .1 .8)" fill="#f4c53d" stroke-width="10" stroke="#010002" stroke-miterlimit="10"/><path d="M2085 1928s-43.2 38.3-73.9-18.6c0 0-41.5-1.8-48.1-33.8 0 0-34-3.6-40.7-35.6 0 0-46.5-5.3-45.7-44.5 0 0-84.7-6.2 0-102.3s228.3 159.3 228.3 159.3zm49-24c41.5 0 88.8 262.5 76.4 420.8-4.2 57-34.9 104.1-76.4 104.1-42.3 0-73-47.1-77.2-104-12.5-158.4 34.9-420.8 77.2-420.8" transform="matrix(.0047 0 0 .0044 .1 .8)" fill="#f4c53d" stroke-width="10" stroke="#010002"/><path d="M2191.3 1902.3c0 48-25.7 86.3-57.3 86.3-32.4 0-58.1-38.3-58.1-86.3 0-47.2 25.7-85.4 58.1-85.4 31.6 0 57.3 38.2 57.3 85.4zm0 0" transform="matrix(.0047 0 0 .0044 .1 .8)" fill="#f4c53d" stroke-width="10" stroke="#010002"/><path d="M1935.6 2277.7s6.6-138.8 127-338M1860.8 2226s-19-80 150.3-316.7c0 0-19.9-57 40.7-92.5m-250 343.4s-4.9-87.2 161.2-284.7c0 0-15-50.7 44.8-91.6m-254 314.9s5.7-88 168.5-258.9c0 0-8.3-52.5 49.8-85.4M1694 2047.3s11.6-99.6 182.6-251.8c0 0-5.8-39.1 51.5-79.1" transform="matrix(.0047 0 0 .0044 .1 .8)" fill="none" stroke-width="10" stroke="#010002" stroke-miterlimit="10"/><path d="M372.1 431.8s134.5 78.3 553 155.7m-493.2-48S795.6 657.6 965 672m-390.2 0s213.4 67.6 463.3 109.4m-280.6 30.2s240.8 57.9 356.2 67.7m-194.3 46.2s203.4 42.7 254.9 48m-125.4 57s148.6 22.2 207.6 21.3m-22.4 69.4s59.8-3.5 88.8-8m-33.2 104.1s50.7-13.3 81.4-33m-6.7 133.5s39.9-15.1 59-57m37.3 93.5s30.8-26.7 32.4-57m81.4 81s-10.8-9.8-3.3-52.5m-10.8-63.1s-5.8-11.6-4.2-31.2m-210.9-581.8s69 27.6 91.4 65.9c23.2 38.2 8.3 74.7 0 96-3.4 10.7-52.3 104.1 5 171.7m-95.5 73.9s0-1 24.9-8m-170.2-91.7s40.6 8 81.3 9M1144.3 856s48.2 5.4 93 4.5M1072.1 751s69.7 13.4 107 14.3m-164.3-132.6s85.5 25 149.4 33m141.2 50.7s-61.5 56.9 12.4 110.3c0 0-30.7 48.9 31.6 98.7m-16.6 24s-9.2 92.5 103.8 92.5c0 0-22.5 81.9 87.1 79.2 0 0 12.5 65.9 90.5 52.5m-172.7 721.5s-18.2 3.5-56.4 0m-109.6 48s-54-8-51.5 110.3m84.7-83.6s-49-6.2-45.7 108.5m520.6-384.3s-24 4.5-39.8 23.2c-16.6 18.6-48.2 15-48.2 15s16.6-13.3 23.3-48c5.8-34.7 24.9-44.4 24.9-44.4m-56.5-33s-24 4.5-39.8 23.2c-16.6 18.7-48.2 15-48.2 15s16.6-13.3 23.3-48c5.8-34.6 24.9-44.4 24.9-44.4m23.2 187.7s-20.8 4.4-34.9 21.3c-14 16-41.5 12.5-41.5 12.5s15-11.6 20-41.8c5-30.3 21.5-39.2 21.5-39.2" transform="matrix(.0047 0 0 .0044 .1 .8)" fill="none" stroke-width="10" stroke="#010002"/><path d="M1495.2 1808s-49.8 85.4-110.4 87.2c0 0-103.8-12.5-132.9 14.2-20.7 18.7-41.5 34.7-49.8 82.7-8.3 48 16.6 58.7 22.4 60.5 0 0 4.2 34.7 38.2 25.8 0 0 2.5 36.5 62.3 18.7 60.6-16.9 85.5-11.6 97.1-72 11.6-59.7 22.4-58.8 33.2-65.9 15-9.8 41.5-18.7 62.3-30.2 17.4-10.7 87.2-46.3 110.4-49 23.3-2.6 18.3-81.8 18.3-81.8h-60.6l-29.9-43.6zm191.8-429.7s-60.6 49.8-112.1 0c0 0-20.8 25-62.3 17.8-40.7-7.1-48.1-29.3-51.5-41.8 0 0-36.5 21.3-66.4 4.4-29.9-16-29.9-40.9-29.9-40.9s-52.3 10.7-79.7-24.9c-26.5-35.6-10-71.2 4.2-75.6 0 0-56.5 15.1-72.3-33.8a55.5 55.5 0 0116.6-62.3s-119.5-.9-168.5-38.2c0 0-40.7-25.8-16.6-52.5 0 0-107.1-17-133.7-59.6 0 0-12.4-12.5-8.3-33 0 0 .8-11.5 12.5-12.4 0 0-123-18.7-157.8-59.6 0 0-17.4-18.7-8.3-43.6 0 0 1.7-6.2 4.2-10.7 0 0-111.3-23-166.1-72.9 0 0-32.4-28.5-15.8-66.7 0 0-186.8-50.7-143.6-132.6 0 0-87.2-28.4-59-107.6 0 0-72.2-36.5-40.6-94.3 29.8-55.2 122 9.8 231.6 40 0 0 296.4 93.4 442.5 118.3l414.4 616.5 241.6 93.4zm0 0" transform="matrix(-.0047 0 0 .0044 20.1 .8)" fill="#f4c53d" stroke-width="10" stroke="#010002"/><path d="M1690.3 923.7s-39-29.3-108.8 5.4c0 0-23.2 16-41.5-1.8a35.7 35.7 0 01-11.6-29.4 36 36 0 0115.8-27.5c51.4-38.3 70.5-154-7.5-201 0 0-114.6-67.7-532.2-174.5 0 0-34.9-9.7-54-5.3a52.7 52.7 0 00-37.3 38.3s-19.1 53.3 44 83.6c0 0 28.2 13.3 57.2 21.3 0 0-31.5-7-45.6 25-13.3 30.2 5.8 61.3 64.7 81.8 0 0 15.8 6.2 39 11.6 0 0-50.6 14.2-26.5 55.1 0 0 21.6 42.7 98 50.7 0 0-56.5 6.2-16.6 60.5 0 0 17.4 29.4 73 40 0 0-41.5 1.8-20.7 39.2 21.6 38.2 71.4 59.6 121.2 63.1 0 0 26.6 1.8 44.8-2.6 0 0-46.5 23.1-19 63.1 0 0 20.7 27.6 71.3 26.7 0 0-13.2 43.6 24.1 60.5 29 12.5 53.2-8 53.2-8s-10 47.2 32.3 63.2c0 0 20.8 11.5 52.3 0 0 0 24.1 54.2 109.6 16 85.6-37.4 20.8-355 20.8-355zm5 489.3s-13.3 67.6-112.1 152.1c0 0-77.2 68.5-75.6 146 2.5 80-13.2 88.9-43.1 115.6 0 0 62.2 4.4 92.1-36.5 0 0-1.6 68.5-10.8 74.7 0 0 20 1.8 48.2-29.3 0 0 16.6-17.8 32.4-25 0 0-18.3 48.1-3.4 91.7 0 0 4.2-17 28.3-25 0 0 44-8.8 61.4-72 0 0 10.8-41.8 79.7-80 0 0 78-29.4 76.4-67.7-2.5-38.2-173.5-244.6-173.5-244.6zm0 0" transform="matrix(-.0047 0 0 .0044 20.1 .8)" fill="#f4c53d" stroke-width="10" stroke="#010002"/><path d="M2056.5 2282.1s-18.3 79.2-79.7 73c0 0-44-4.5-40.7-77.4 0 0-64.8 33.8-75.6-51.6 0 0-59 14.2-58.1-65.8 0 0-54.8 8.9-49-61.4 0 0-59.8 16-59.8-51.6 0 0-139.5-23.1 152-288.2l259 154.8zm0 0" transform="matrix(-.0047 0 0 .0044 20.1 .8)" fill="#f4c53d" stroke-width="10" stroke="#010002" stroke-miterlimit="10"/><path d="M2085.5 1928s-43.2 38.3-73.9-18.6c0 0-42.3-1.8-49-33.8 0 0-34-3.6-40.6-35.6 0 0-46.5-5.3-44.9-44.5 0 0-84.7-6.2 0-102.3s227.5 159.3 227.5 159.3zm48.2-24c41.5 0 89.6 262.5 77.2 420.8-5 57-35.7 104.1-77.2 104.1-42.4 0-73-47.1-77.2-104-12.5-158.4 34.8-420.8 77.2-420.8" transform="matrix(-.0047 0 0 .0044 20.1 .8)" fill="#f4c53d" stroke-width="10" stroke="#010002"/><path d="M2191.8 1902.3c0 48-26.6 86.3-58.1 86.3-32.4 0-58.1-38.3-58.1-86.3 0-47.2 25.7-85.4 58-85.4 31.6 0 58.2 38.2 58.2 85.4zm0 0" transform="matrix(-.0047 0 0 .0044 20.1 .8)" fill="#f4c53d" stroke-width="10" stroke="#010002"/><path d="M1936 2277.7s6.7-138.8 127.1-338M1860.5 2226s-19-80 151.1-316.7c0 0-19.9-57 40.7-92.5m-250 343.4s-5.7-87.2 160.3-284.7c0 0-15-50.7 45.7-91.6m-254.9 314.9s6.6-88 168.6-258.9c0 0-7.5-52.5 49.8-85.4m-277.3 292.7s11.6-99.6 182.6-251.8c0 0-5.8-39.1 50.7-79.1" transform="matrix(-.0047 0 0 .0044 20.1 .8)" fill="none" stroke-width="10" stroke="#010002" stroke-miterlimit="10"/><path d="M372.6 431.8s133.7 78.3 553 155.7m-494-48s363.7 118.2 533 132.5m-389.4 0s213.4 67.6 463.3 109.4m-281.4 30.2s240.7 57.9 356.2 67.7M919 925.5s204.2 42.7 255.7 48m-126.2 57s149.4 22.2 208.4 21.3m-23.3 69.4s59.8-3.5 88.9-8m-33.2 104.1s51.5-13.3 81.3-33m-5.8 133.5s39-15.1 58.1-57m38.2 93.5s30-26.7 32.4-57m81.4 81s-11.6-9.8-3.3-52.5m-11.7-63.1s-5.8-11.6-4.1-31.2m-210.9-581.8s69 27.6 92.2 65.9c22.4 38.2 7.4 74.7 0 96-4.2 10.7-52.3 104.1 4.1 171.7m-95.5 73.9s.9-1 25-8m-170.3-91.7s41.5 8 81.4 9M1144 856s48.1 5.4 93.8 4.5M1072.6 751s69.7 13.4 106.2 14.3m-164.4-132.6s86.4 25 149.5 33m142 50.7s-61.5 56.9 12.4 110.3c0 0-30.7 48.9 30.8 98.7m-16.7 24s-9 92.5 103.8 92.5c0 0-21.6 81.9 87.2 79.2 0 0 12.5 65.9 91.3 52.5m-173.5 721.5s-17.4 3.5-56.4 0m-108.8 48s-54.8-8-51.5 110.3m83.9-83.6s-49-6.2-45.7 108.5m520.6-384.3s-23.3 4.5-39.9 23.2c-16.6 18.6-48.1 15-48.1 15s17.4-13.3 23.2-48c5.8-34.7 25-44.4 25-44.4m-56.5-33s-23.3 4.5-39.9 23.2c-16.6 18.7-48.1 15-48.1 15s17.4-13.3 23.2-48c5.8-34.6 25-44.4 25-44.4m24 187.7s-20.8 4.4-34.9 21.3c-15 16-42.3 12.5-42.3 12.5s15-11.6 20-41.8c5.7-30.3 22.3-39.2 22.3-39.2" transform="matrix(-.0047 0 0 .0044 20.1 .8)" fill="none" stroke-width="10" stroke="#010002"/><path d="M466 256l-14.3 61.7-6-4.2 14-59.2-9.7.2 23.1-42.4 1.5 48.8zm37 13l-43 50.8-4.6-5.2 42.9-50.2-8.8-4.6 39.3-26-20.4 43.8zm0 0" transform="scale(.03125 .02917)" fill="#0081c6" stroke-width="1.5" stroke="#010002" stroke-miterlimit="10"/><path d="M492.6 242l-38.5 74-5.9-3.5 38.7-73.8-9.4-2.4 32.8-34.6-10.6 47.5zm-48 96.6l-2.9 11.8 8 7.9-11.2 47-10-13.3-14.6 6.8 11.1-47 10.4-3L438 337s3.3-1.2 6.6 1.5zm0 0" transform="scale(.03125 .02917)" fill="#0081c6" stroke-width="1.5" stroke="#010002" stroke-miterlimit="10"/><path d="M447.3 330.8l-5.7 10.6 5.6 9.8-22.3 42.4-6.3-15.7-15.9 2.7 22.4-42.4h10.6l5.6-10.6s4 0 6 3.2zm0 0" transform="scale(.03125 .02917)" fill="#0081c6" stroke-width="1.5" stroke="#010002" stroke-miterlimit="10"/><path d="M448.3 333.9l-15 19.1 3.3 10.9-30.9 36-2.8-16.6-16-1.2 30.9-36 10.3 2.5 16-20.3s4.4 2.1 4.1 5.6zm-382.8-45c3.6-1.5 6.3-3 6.3-6.7 0-1-.5-3-1.5-6L46 202a46.3 46.3 0 00-3-8c-1.1-2-3.3-2.8-6.1-4h30.7c-3.3 1.7-6.3 2.9-6.3 6.3 0 1.4.5 3.3 1 5.8l18.7 58 18.5-58c.6-1.9 1-3.8 1.1-5.8 0-3.6-3.2-5-6.3-6.3H124c-2.7 1.1-5 2-6 4a71 71 0 00-3.1 8.1l-24.3 74a53 53 0 00-1.5 6s-1 4.6 6.3 6.6h-30zm515.3-7.6v-83.8a6 6 0 00-.8-3.2c-.5-.8-2.5-3-5.5-4.3h27.8c-2.3.8-4.3 2.3-5.5 4.3a6 6 0 00-.8 3.2v83.8c0 1.6.3 2.6.8 3.4a14 14 0 005.5 4.2h-27.8c3-1.4 5-3.4 5.5-4.2.5-.8.8-1.8.8-3.4zm0 0" transform="scale(.03125 .02917)" fill="#0081c6" stroke-width="1.5" stroke="#010002" stroke-miterlimit="10"/><path d="M324.8 309.8S399 277 399 201H250.5c.3 76 74.3 108.8 74.3 108.8zm0 0" transform="scale(.03125 .02917)" fill="#fff" stroke-width="1.5" stroke="#010002"/><path d="M262 201v48.5s5.6 11.3 11.4 18.4V201zm22.8 0v80s7.2 7 11.4 10.4V201zm23 0V300s8 5.2 11.3 7V201h-11.4zm80 0v48.5s-5.8 11.3-11.6 18.4V201zm-23 0v80s-7 7-11.4 10.4V201zm-22.8 0V300s-8.3 5.2-11.5 7V201H342zm0 0" transform="scale(.03125 .02917)" fill="#a60032" stroke-width="1.5" stroke="#010002"/><path d="M399.1 145.8s-36.4 19-74.4-1.6c-37.8 20.7-74.2 1.6-74.2 1.6V201h148.6zm0 0" transform="scale(.03125 .02917)" fill="#162667" stroke-width="1.5" stroke="#010002" stroke-miterlimit="10"/></svg>