<svg xmlns="http://www.w3.org/2000/svg" width="20" height="14"><g fill-rule="evenodd"><path d="M0 0l10.2 6h12.3v2H10.2L0 14zm0 0"/><path d="M0 13.5l10.4-6.2h12.1v-.6H10.4L0 .5v.9L9.8 7 0 12.6zm0 0" fill="#ff0"/><path d="M0 14l10.4-6.2h12.1V14zm0 0" fill="#40aa40"/><path d="M0 0l10.4 6.2h12.1V0zm0 0" fill="#ce0000"/><path d="M2.8 7.3l.1-.1h.2V7 7h.1c-.1 0-.1 0 0-.1h.1v-.1h-.1c0-.1 0 0 0 0l.2-.1h-.1v-.1h.2v-.1h-.2.2v-.1c0-.1 0-.1 0 0v-.1h-.1v-.1.1h-.2.1v.1h-.1v.1c0 .1 0 0 0 0H3v.2L3 6.6v.2h-.1V7h-.1v.2c.1 0 0 0 0 0v.1zm0 0" fill="#ff0"/><path d="M3.5 7.3V7 7c0-.1 0-.1 0 0h-.1v-.2h-.1v-.1-.1h-.1v-.1l-.1.1v-.2c0-.1 0 0-.1 0v-.2l-.1.1v-.1h-.1a.2.2 0 000 .1h-.1v.1h.1v.1l.1.1H3v.1h-.1.1V7H3v.2h.1v.1h.2l.1.1zm0 0" fill="#ff0"/><path d="M2.9 8.6v-.3c1.3 0 1.7-.9 1.7-1.4 0-.6-.5-1.2-1.4-1.2-1 0-1.4.6-1.4 1.2 0 .5.5 1 1 1 .8 0 1-.2 1.4-.8-.1.8-1 1-1.3 1-.7 0-1.4-.4-1.4-1.2 0-.8.5-1.5 1.7-1.5 1 0 1.7.7 1.7 1.5 0 1-.8 1.7-2 1.7zm0 0" fill="#ff0"/></g></svg>