<svg xmlns="http://www.w3.org/2000/svg" width="48" height="48"><path fill="#D38C2D" d="M4 6v36c0 1.105.895 2 2 2h4c1.105 0 2-.895 2-2V14c1.105 0 2.91-.04 3.984.2 2.082.46 3.356 1.734 3.817 3.816C20.039 19.09 20 20.895 20 22v20c0 1.105.895 2 2 2h4c1.105 0 2-.895 2-2v-4h6v4c0 1.105.895 2 2 2h4c1.105 0 2-.895 2-2v-4h4c1.105 0 2-.895 2-2v-4l-2-2h-4v-6l-2-2h-4l-2 2v6h-6v-8L13 4H6L4 6Zm0 0"/><path fill="#F9AA40" d="M4 6v34c0 1.105.895 2 2 2h4c1.105 0 2-.895 2-2V12c1.105 0 2.91-.04 3.984.2 2.082.46 3.356 1.734 3.817 3.816C20.039 17.09 20 18.895 20 20v20c0 1.105.895 2 2 2h4c1.105 0 2-.895 2-2v-4h6v4c0 1.105.895 2 2 2h4c1.105 0 2-.895 2-2v-4h4c1.105 0 2-.895 2-2v-2c0-1.105-.895-2-2-2h-4v-6c0-1.105-.895-2-2-2h-4c-1.105 0-2 .895-2 2v6h-6V20c0-1.105.004-2.898-.137-3.992-.558-4.274-3.004-10.926-10.867-11.89C15.898 3.983 14.106 4 13 4H6c-1.105 0-2 .895-2 2Zm0 0"/></svg>