<svg xmlns="http://www.w3.org/2000/svg" viewBox="0 0 24 24" width="96" height="96"><path fill="#d38c2d" d="M2 3v18a1 1 0 0 0 1 1h2a1 1 0 0 0 1-1V7c.552 0 1.455-.02 1.993.1 1.04.231 1.676.867 1.908 1.907.12.538.099 1.44.099 1.993v10a1 1 0 0 0 1 1h2a1 1 0 0 0 1-1v-2h3v2a1 1 0 0 0 1 1h2a1 1 0 0 0 1-1v-2h2a1 1 0 0 0 1-1v-2l-1-1h-2v-3l-1-1h-2l-1 1v3h-3v-4L6.5 2H3L2 3Z"/><path fill="#f9aa40" d="M2 3v17a1 1 45 0 0 1 1h2a1 1 135 0 0 1-1V6c.552 0 1.455-.02 1.993.1 1.04.231 1.676.867 1.908 1.907.12.538.099 1.44.099 1.993v10a1 1 45 0 0 1 1h2a1 1 135 0 0 1-1v-2h3v2a1 1 45 0 0 1 1h2a1 1 135 0 0 1-1v-2h2a1 1 135 0 0 1-1v-1a1 1 45 0 0-1-1h-2v-3a1 1 45 0 0-1-1h-2a1 1 135 0 0-1 1v3h-3v-5c0-.552.003-1.45-.069-1.997-.278-2.137-1.5-5.463-5.433-5.944C7.95 1.992 7.052 2 6.5 2H3a1 1 135 0 0-1 1Z"/></svg>
