<svg xmlns="http://www.w3.org/2000/svg" xmlns:xlink="http://www.w3.org/1999/xlink" width="21" height="15"><defs><linearGradient id="b" x1="50%" x2="50%" y1="0%" y2="100%"><stop offset="0%" stop-color="#FFF"/><stop offset="100%" stop-color="#F0F0F0"/></linearGradient><linearGradient id="d" x1="50%" x2="50%" y1="0%" y2="100%"><stop offset="0%" stop-color="#EE1B44"/><stop offset="100%" stop-color="#DD153C"/></linearGradient><linearGradient id="f" x1="50%" x2="50%" y1="0%" y2="100%"><stop offset="0%" stop-color="#0543A8"/><stop offset="100%" stop-color="#003893"/></linearGradient><path id="a" d="M0 0h1.495c.279 0 .693.126.918.275L13.175 7.45c.456.304.372.55-.172.55H6l7.247 6.341c.416.364.303.659-.254.659H0V0Z"/><path id="e" d="M0 0h1.495c.279 0 .693.126.918.275L13.175 7.45c.456.304.372.55-.172.55H6l7.247 6.341c.416.364.303.659-.254.659H0V0Z"/></defs><g fill="none" fill-rule="evenodd"><mask id="c" fill="#fff"><use xlink:href="#a"/></mask><use xlink:href="#a" fill="url(#b)"/><g mask="url(#c)"><use xlink:href="#e" fill="url(#d)"/><path stroke="url(#f)" d="M.5.5v14h12.17l-8-7h7.679L2.136.691A1.483 1.483 0 0 0 1.496.5H.5Z"/></g><path fill="url(#b)" d="M5.138 5.85a3.52 3.52 0 0 0 .789-.318 2 2 0 0 1-3.857 0c.236.132.502.24.791.32L3.25 5.5l-.636-.574.856.044-.044-.856L4 4.75l.574-.636-.044.856.856-.044-.636.574.388.35ZM4 12l-.765.848.058-1.14-1.14.057L3 11l-.848-.765 1.14.058-.057-1.14L4 10l.765-.848-.058 1.14 1.14-.057L5 11l.848.765-1.14-.058.057 1.14L4 12Z" mask="url(#c)"/></g></svg>