<svg xmlns="http://www.w3.org/2000/svg" xmlns:xlink="http://www.w3.org/1999/xlink" width="21" height="15"><defs><linearGradient id="a" x1="50%" x2="50%" y1="0%" y2="100%"><stop offset="0%" stop-color="#FFF"/><stop offset="100%" stop-color="#F0F0F0"/></linearGradient><linearGradient id="c" x1="50%" x2="50%" y1="0%" y2="100%"><stop offset="0%" stop-color="#E01B41"/><stop offset="100%" stop-color="#C51335"/></linearGradient><linearGradient id="d" x1="50%" x2="50%" y1="0%" y2="100%"><stop offset="0%" stop-color="#0E4B9C"/><stop offset="100%" stop-color="#053677"/></linearGradient><linearGradient id="f" x1="50%" x2="50%" y1="0%" y2="100%"><stop offset="0%" stop-color="#262626"/><stop offset="100%" stop-color="#0D0D0D"/></linearGradient><circle id="b" cx="3.5" cy="3.5" r="3.5"/></defs><g fill="none" fill-rule="evenodd"><path fill="url(#a)" d="M0 0h21v15H0z"/><g transform="translate(7 4)"><mask id="e" fill="#fff"><use xlink:href="#b"/></mask><use xlink:href="#b" fill="url(#c)"/><path fill="url(#d)" d="M0 4c1 .937 2.5 1.5 3.5 0s3-1.5 3.5 0 0 3 0 3H0s-1-3.937 0-3Z" mask="url(#e)"/></g><path fill="url(#f)" d="M14.208 3.922a.25.25 0 0 1 .09-.347l.43-.248a.254.254 0 0 1 .346.095l1.244 2.156a.25.25 0 0 1-.09.347l-.43.248a.254.254 0 0 1-.346-.095l-1.244-2.156Zm1.3-.75a.25.25 0 0 1 .09-.347l.429-.248a.254.254 0 0 1 .346.095l1.244 2.156a.25.25 0 0 1-.09.347l-.43.248a.254.254 0 0 1-.346-.095l-1.244-2.156Zm-12.125 7a.25.25 0 0 1 .09-.347l.43-.248a.254.254 0 0 1 .346.095l1.244 2.156a.25.25 0 0 1-.09.347l-.43.248a.254.254 0 0 1-.346-.095l-1.244-2.156Zm1.299-.75a.25.25 0 0 1 .09-.347l.43-.248a.254.254 0 0 1 .346.095l1.244 2.156a.25.25 0 0 1-.09.347l-.43.248a.254.254 0 0 1-.346-.095L4.682 9.422Zm10.77-.5a.25.25 0 0 1 .347-.095l.429.248c.12.07.161.225.09.347l-1.244 2.156a.25.25 0 0 1-.346.095l-.43-.248a.254.254 0 0 1-.09-.347l1.244-2.156Zm1.3.75a.25.25 0 0 1 .346-.095l.429.248c.12.07.161.225.09.347l-1.244 2.156a.25.25 0 0 1-.346.095l-.43-.248a.254.254 0 0 1-.09-.347l1.244-2.156Zm-12.125-7a.25.25 0 0 1 .346-.095l.43.248c.12.07.16.225.09.347L4.249 5.328a.25.25 0 0 1-.347.095l-.429-.248a.254.254 0 0 1-.09-.347l1.244-2.156Zm1.299.75a.25.25 0 0 1 .346-.095l.43.248c.12.07.16.225.09.347L5.548 6.078a.25.25 0 0 1-.347.095l-.429-.248a.254.254 0 0 1-.09-.347l1.244-2.156Z" opacity=".75"/></g></svg>