<svg xmlns="http://www.w3.org/2000/svg" width="21" height="15"><defs><linearGradient id="a" x1="50%" x2="50%" y1="0%" y2="100%"><stop offset="0%" stop-color="#FFF"/><stop offset="100%" stop-color="#F0F0F0"/></linearGradient><linearGradient id="b" x1="50%" x2="50%" y1="0%" y2="100%"><stop offset="0%" stop-color="#1EC160"/><stop offset="100%" stop-color="#169E4D"/></linearGradient><linearGradient id="c" x1="50%" x2="50%" y1="0%" y2="100%"><stop offset="0%" stop-color="#DF2A40"/><stop offset="100%" stop-color="#CC162C"/></linearGradient><linearGradient id="d" x1="50%" x2="50%" y1="16.742%" y2="82.422%"><stop offset="0%" stop-color="#FFD956"/><stop offset="100%" stop-color="#FCD036"/></linearGradient><linearGradient id="e" x1="50%" x2="50%" y1="0%" y2="100%"><stop offset="0%" stop-color="#262626"/><stop offset="100%" stop-color="#0D0D0D"/></linearGradient></defs><g fill="none" fill-rule="evenodd"><path fill="url(#a)" d="M0 0h21v15H0z"/><path fill="url(#b)" d="m.001 10 21-10h-21z"/><path fill="url(#c)" d="M.001 15h21V5z"/><path fill="url(#d)" d="M.59 19 25.182 3.632 20.413-4-4.18 11.368z"/><path fill="url(#e)" d="M-.47 17.304 24.122 1.936l-2.65-4.24L-3.12 13.064z"/><path fill="url(#a)" d="m15.233 5.848-.709 1.123-.46-1.246-1.287-.327 1.043-.823-.087-1.325 1.105.738 1.234-.492-.36 1.278.848 1.022zM7.233 10.698l-.709 1.123-.46-1.246-1.287-.327 1.043-.823L5.733 8.1l1.105.738 1.234-.492-.36 1.278.848 1.022z"/></g></svg>