<svg xmlns="http://www.w3.org/2000/svg" width="21" height="15"><defs><linearGradient id="a" x1="50%" x2="50%" y1="0%" y2="100%"><stop offset="0%" stop-color="#FFF"/><stop offset="100%" stop-color="#F0F0F0"/></linearGradient><linearGradient id="b" x1="50%" x2="50%" y1="0%" y2="100%"><stop offset="0%" stop-color="#1E8BD6"/><stop offset="100%" stop-color="#1074BA"/></linearGradient><linearGradient id="c" x1="50%" x2="50%" y1="0%" y2="100%"><stop offset="0%" stop-color="#A9A7A9"/><stop offset="100%" stop-color="#8C8A8C"/></linearGradient></defs><g fill="none" fill-rule="evenodd"><path fill="url(#a)" d="M0 0h21v15H0z"/><path fill="url(#b)" d="M0 0h21v15H0z"/><path fill="url(#a)" fill-rule="nonzero" d="M10.5 12.5a5 5 0 1 0 0-10 5 5 0 0 0 0 10Zm0-1a4 4 0 1 1 0-8 4 4 0 0 1 0 8Z"/><path fill="url(#c)" d="M8.938 5.997C8.972 5.447 9.443 5 9.999 5h1.002c.552 0 1.027.453 1.061.997l.376 6.006a.927.927 0 0 1-.947.997H9.509a.935.935 0 0 1-.947-.997l.376-6.006Z"/><path fill="url(#a)" d="m10.5 9.515-2.057 1.467.759-2.41-2.03-1.504 2.526-.022.802-2.396.802 2.396 2.527.022-2.03 1.504.758 2.41z"/></g></svg>