/* XPM */
static char * nicotine_xpm[] = {
"32 32 292 2",
"  	c None",
". 	c #DB7C00",
"+ 	c #E37F00",
"@ 	c #EB7F00",
"# 	c #EC7B00",
"$ 	c #EC7A00",
"% 	c #EA7700",
"& 	c #DE6D00",
"* 	c #D26800",
"= 	c #C25D00",
"- 	c #DB8300",
"; 	c #E98400",
"> 	c #EF8100",
", 	c #F17D03",
"' 	c #F07E0D",
") 	c #EF841E",
"! 	c #EF8A2C",
"~ 	c #EF8C30",
"{ 	c #EE892A",
"] 	c #ED801B",
"^ 	c #ED780A",
"/ 	c #EC7302",
"( 	c #E26D00",
"_ 	c #BD5A00",
": 	c #E48700",
"< 	c #F18300",
"[ 	c #F07802",
"} 	c #EE7E14",
"| 	c #F2A155",
"1 	c #F8D3B0",
"2 	c #FCEFE3",
"3 	c #FEFBF9",
"4 	c #FEFDFD",
"5 	c #FDF9F4",
"6 	c #FBE8D7",
"7 	c #F6C79A",
"8 	c #EE943E",
"9 	c #EA780E",
"0 	c #E46E01",
"a 	c #C96000",
"b 	c #964500",
"c 	c #EB8800",
"d 	c #F27D00",
"e 	c #EE7604",
"f 	c #F8D2AE",
"g 	c #FEFCFC",
"h 	c #FEFEFE",
"i 	c #FDF6F0",
"j 	c #F3BB86",
"k 	c #EA811E",
"l 	c #E67002",
"m 	c #D16400",
"n 	c #8D4100",
"o 	c #F17A00",
"p 	c #EC7404",
"q 	c #EF8F34",
"r 	c #FAE4D0",
"s 	c #F9F9F9",
"t 	c #F4F4F4",
"u 	c #F3F3F3",
"v 	c #F7F7F7",
"w 	c #FBFBFB",
"x 	c #FDFDFD",
"y 	c #F5F5F5",
"z 	c #F0C49C",
"A 	c #EB8220",
"B 	c #CC6100",
"C 	c #863E00",
"D 	c #E98800",
"E 	c #F17B00",
"F 	c #EE8622",
"G 	c #F9DDC2",
"H 	c #E1E1E1",
"I 	c #C9C9C9",
"J 	c #C0C0BE",
"K 	c #C5C3C1",
"L 	c #D2D1D1",
"M 	c #E4E4E4",
"N 	c #FCFCFC",
"O 	c #F8F8F8",
"P 	c #EAE9E9",
"Q 	c #EAB685",
"R 	c #EB7C14",
"S 	c #E36D00",
"T 	c #C05C00",
"U 	c #662E01",
"V 	c #DF8400",
"W 	c #F28000",
"X 	c #EC7402",
"Y 	c #EC7A0E",
"Z 	c #F4BA82",
"` 	c #F6F6F6",
" .	c #CFCFCF",
"..	c #AEAAA6",
"+.	c #B69C82",
"@.	c #CB996A",
"#.	c #D49C66",
"$.	c #D6A67B",
"%.	c #D8C2AE",
"&.	c #E6E4E2",
"*.	c #EEEEEE",
"=.	c #DFDAD5",
"-.	c #EA984B",
";.	c #EA7507",
">.	c #DC6900",
",.	c #9F4C00",
"'.	c #EF8500",
").	c #EE7500",
"!.	c #ED7504",
"~.	c #EF8A2B",
"{.	c #FCECDD",
"].	c #D5D5D5",
"^.	c #ABA49E",
"/.	c #C69262",
"(.	c #E4862C",
"_.	c #EB7C12",
":.	c #EB7A0E",
"<.	c #EC7E17",
"[.	c #EB923F",
"}.	c #E9C19C",
"|.	c #F6F4F2",
"1.	c #DBDBDB",
"2.	c #DEB894",
"3.	c #EC7F18",
"4.	c #E77002",
"5.	c #CE6200",
"6.	c #6E3300",
"7.	c #DE8000",
"8.	c #F17C00",
"9.	c #EC7403",
"0.	c #ED7809",
"a.	c #F3A862",
"b.	c #B6B6B5",
"c.	c #C0956D",
"d.	c #E78122",
"e.	c #EC7606",
"f.	c #ED7708",
"g.	c #EE913A",
"h.	c #F8DEC4",
"i.	c #E0E0E0",
"j.	c #D0C4B7",
"k.	c #E88930",
"l.	c #EC7504",
"m.	c #DE6A00",
"n.	c #904400",
"o.	c #E88100",
"p.	c #EE7601",
"q.	c #ED7B0F",
"r.	c #F6C494",
"s.	c #B2A9A0",
"t.	c #DC8D44",
"u.	c #EC7708",
"v.	c #F4B67C",
"w.	c #FEFDFC",
"x.	c #E7E7E7",
"y.	c #C6C3C1",
"z.	c #E49144",
"A.	c #B15300",
"B.	c #401B00",
"C.	c #ED7F00",
"D.	c #ED7402",
"E.	c #EE7D12",
"F.	c #F8CDA5",
"G.	c #D8D8D8",
"H.	c #BCAA9A",
"I.	c #E58932",
"J.	c #ED7605",
"K.	c #F2A45B",
"L.	c #FDF9F5",
"M.	c #EAEAEA",
"N.	c #BFBFBF",
"O.	c #DF924B",
"P.	c #EC7608",
"Q.	c #EA7203",
"R.	c #C55E00",
"S.	c #542600",
"T.	c #D67A00",
"U.	c #F17D00",
"V.	c #F8CFA8",
"W.	c #D7D7D7",
"X.	c #C0AD9A",
"Y.	c #E7882E",
"Z.	c #ED7604",
"`.	c #ED7606",
" +	c #F2A053",
".+	c #FDF8F3",
"++	c #EBEBEB",
"@+	c #BCBCBC",
"#+	c #DE924C",
"$+	c #D56600",
"%+	c #723400",
"&+	c #D97600",
"*+	c #F07901",
"=+	c #ED7404",
"-+	c #F8CFA9",
";+	c #C2AE9B",
">+	c #E8882E",
",+	c #F2A052",
"'+	c #FDF8F2",
")+	c #DD934C",
"!+	c #DB6A01",
"~+	c #7A3900",
"{+	c #D87400",
"]+	c #F07702",
"^+	c #BDBDBD",
"/+	c #DD6C01",
"(+	c #D87200",
"_+	c #F07701",
":+	c #DC6B01",
"<+	c #773700",
"[+	c #CF6800",
"}+	c #EF7500",
"|+	c #D26500",
"1+	c #622D00",
"2+	c #EA7300",
"3+	c #EB7202",
"4+	c #EA7303",
"5+	c #401D00",
"6+	c #E57000",
"7+	c #EB7201",
"8+	c #A54E00",
"9+	c #2B1300",
"0+	c #D46600",
"a+	c #EC7200",
"b+	c #150801",
"c+	c #B85500",
"d+	c #E56E00",
"e+	c #EA7201",
"f+	c #E87306",
"g+	c #BE5B00",
"h+	c #472000",
"i+	c #C15C00",
"j+	c #DC924C",
"k+	c #D56804",
"l+	c #793800",
"m+	c #190A01",
"n+	c #E67710",
"o+	c #F7CEA8",
"p+	c #D28C4A",
"q+	c #A04D04",
"r+	c #301400",
"s+	c #924500",
"t+	c #D06B11",
"u+	c #F4CCA8",
"v+	c #AF7A4A",
"w+	c #452104",
"x+	c #935218",
"y+	c #E9C8A9",
"z+	c #725D4D",
"A+	c #130C08",
"B+	c #DED2C7",
"C+	c #C1AE9B",
"D+	c #F09F52",
"E+	c #73706F",
"F+	c #FAF9F9",
"G+	c #D6D6D6",
"H+	c #BDAB9A",
"I+	c #DA7E2A",
"J+	c #E26E02",
"K+	c #E87102",
"L+	c #EA7403",
"M+	c #E97203",
"N+	c #DA6B04",
"O+	c #D99250",
"P+	c #FAF6F2",
"Q+	c #D2D2D2",
"R+	c #ADA49C",
"S+	c #945C2C",
"T+	c #A14C01",
"U+	c #B85700",
"V+	c #BB5A00",
"W+	c #BA5900",
"X+	c #B25400",
"Y+	c #944600",
"Z+	c #743803",
"`+	c #896B53",
" @	c #F6F5F4",
".@	c #BBBBBB",
"+@	c #F1F1F1",
"@@	c #D1D1D1",
"#@	c #B0B0AF",
"$@	c #331702",
"%@	c #411C00",
"&@	c #401C00",
"*@	c #3E1C00",
"=@	c #371800",
"-@	c #1F0D00",
";@	c #979594",
">@	c #C5C5C5",
",@	c #B5B5B5",
"'@	c #CACACA",
")@	c #D0D0D0",
"                                                                ",
"                                                                ",
"                                                                ",
"                        . + @ # $ % & * =                       ",
"                  - ; > , ' ) ! ~ { ] ^ / ( _                   ",
"                : < [ } | 1 2 3 4 5 6 7 8 9 0 a b               ",
"              c d e ! f g h h h h h h h i j k l m n             ",
"            c o p q r h h h s t u v w h x y z A 0 B C           ",
"          D E / F G h h s H I J K L M y N O P Q R S T U         ",
"        V W X Y Z h h `  ...+.@.#.$.%.&.O w *.=.-.;.>.,.        ",
"        '.).!.~.{.h w ].^./.(._.:.<.[.}.|.x y 1.2.3.4.5.6.      ",
"      7.8.9.0.a.h h *.b.c.d.e.!.!.!.f.g.h.h w i.j.k.l.m.n.      ",
"      o.p.!.q.r.h h i.s.t.u.!.!.!.!.!.q.v.w.x x.y.z.e.l A.B.    ",
"      C.D.!.E.F.h N G.H.I.J.!.!.!.!.!.f.K.L.h M.N.O.P.Q.R.S.    ",
"    T.U.X !.} V.h N W.X.Y.Z.!.!.!.!.!.`. +.+h ++@+#+P.p $+%+    ",
"    &+*+=+!.} -+h w W.;+>+Z.!.!.!.!.!.`.,+'+h ++@+)+P.!.!+~+    ",
"    {+]+e !.} -+h w W.;+>+Z.!.!.!.!.!.`.,+'+h ++^+)+P.!./+~+    ",
"    (+_+!.!.} -+h w W.;+>+Z.!.!.!.!.!.`.,+'+h ++^+)+P.!.:+<+    ",
"    [+}+9.!.} -+h w W.;+>+Z.!.!.!.!.!.`.,+'+h ++^+)+P.l.|+1+    ",
"      2+3+!.} -+h w W.;+>+Z.!.!.!.!.!.`.,+'+h ++^+)+P.4+T 5+    ",
"      6+7+!.} -+h w W.;+>+Z.!.!.!.!.!.`.,+'+h ++^+)+P.l 8+9+    ",
"      0+a+9.} -+h w W.;+>+Z.!.!.!.!.!.`.,+'+h ++^+)+P.!+~+b+    ",
"      c+d+e+} -+h w W.;+>+Z.!.!.!.!.!.`.,+'+h ++^+)+f+g+h+      ",
"        i+d+_.-+h w W.;+>+Z.!.!.!.!.!.`.,+'+h ++^+j+k+l+m+      ",
"          m n+o+h w W.;+>+Z.!.!.!.!.!.`.,+'+h ++^+p+q+r+        ",
"          s+t+u+h w W.;+>+Z.!.!.!.!.!.`.,+'+h ++^+v+w+          ",
"            x+y+h w W.;+>+Z.!.!.!.!.!.`.,+'+h ++^+z+A+          ",
"              B+h w W.C+Y.Z.!.!.!.!.!.`.D+'+h ++^+E+            ",
"              F+h w G+H+I+J+K+4+L+M+J+N+O+P+h M.@+              ",
"              h h ` Q+R+S+T+U+V+W+X+Y+Z+`+ @x M .@              ",
"              h +@@@.@#@  $@%@&@*@=@-@  ;@s i.>@,@              ",
"                  G+'@                      i.)@                "};
