<svg width="21" height="15" xmlns="http://www.w3.org/2000/svg" xmlns:xlink="http://www.w3.org/1999/xlink"><defs><linearGradient x1="50%" y1="0%" x2="50%" y2="100%" id="a"><stop stop-color="#FFF" offset="0%"/><stop stop-color="#F0F0F0" offset="100%"/></linearGradient><linearGradient x1="50%" y1="0%" x2="50%" y2="100%" id="b"><stop stop-color="#05AB41" offset="0%"/><stop stop-color="#019C39" offset="100%"/></linearGradient><linearGradient x1="50%" y1="0%" x2="50%" y2="100%" id="d"><stop stop-color="#053087" offset="0%"/><stop stop-color="#012877" offset="100%"/></linearGradient><circle id="c" cx="3.5" cy="3.5" r="3.5"/></defs><g fill="none" fill-rule="evenodd"><path fill="url(#a)" d="M0 0h21v15H0z"/><path fill="url(#b)" d="M0 0h21v15H0z"/><path d="M2.422 7.773c-.233-.15-.228-.398 0-.546l7.656-4.954a.85.85 0 0 1 .844 0l7.656 4.954c.233.15.228.398 0 .546l-7.656 4.954a.85.85 0 0 1-.844 0L2.422 7.773z" fill="#FDD216"/><g transform="translate(7 4)"><mask id="e" fill="#fff"><use xlink:href="#c"/></mask><use fill="url(#d)" xlink:href="#c"/><path d="M-.1 2.974c.265-.215 1.463-.04 3.534.512 1.474.394 3.173 1.262 3.562 1.742l.314.388.778-.629-.315-.388c-.55-.68-2.421-1.636-4.081-2.079-2.586-.69-3.758-.86-4.422-.323l-.388.314.629.777.389-.314z" fill="#FFF" fill-rule="nonzero" mask="url(#e)"/></g></g></svg>