<svg width="21" height="15" xmlns="http://www.w3.org/2000/svg"><defs><linearGradient x1="50%" y1="0%" x2="50%" y2="100%" id="a"><stop stop-color="#FFF" offset="0%"/><stop stop-color="#F0F0F0" offset="100%"/></linearGradient><linearGradient x1="50%" y1="0%" x2="50%" y2="100%" id="b"><stop stop-color="#FFCB49" offset="0%"/><stop stop-color="#FFC638" offset="100%"/></linearGradient><linearGradient x1="50%" y1="0%" x2="50%" y2="100%" id="c"><stop stop-color="#DC1D34" offset="0%"/><stop stop-color="#CC162C" offset="100%"/></linearGradient><linearGradient x1="50%" y1="0%" x2="50%" y2="100%" id="d"><stop stop-color="#4985D4" offset="0%"/><stop stop-color="#3D77C2" offset="100%"/></linearGradient><linearGradient x1="50%" y1="0%" x2="50%" y2="100%" id="e"><stop stop-color="#4BA343" offset="0%"/><stop stop-color="#408D39" offset="100%"/></linearGradient></defs><g fill="none" fill-rule="evenodd"><path fill="url(#a)" d="M0 0h21v15H0z"/><path fill="url(#b)" d="M0 0h21v4H0z"/><path fill="url(#c)" d="M0 7h21v4H0z"/><path fill="url(#d)" d="M0 11h21v4H0z"/><path fill="url(#a)" d="M0 4h21v3H0z"/><path fill="url(#e)" d="M0 15l10-7.5L0 0z"/><path d="M4.75 4.595a3 3 0 1 0 0 5.811 3.001 3.001 0 0 1 0-5.811zM5.5 6a.5.5 0 1 1 0-1 .5.5 0 0 1 0 1zm0 2a.5.5 0 1 1 0-1 .5.5 0 0 1 0 1zm0 2a.5.5 0 1 1 0-1 .5.5 0 0 1 0 1z" fill="url(#a)"/></g></svg>