<svg xmlns="http://www.w3.org/2000/svg" width="128" height="128"><path d="m 8,16 v 96 c 0,2.20914 1.790861,4 4,4 h 12 c 2.209139,0 4,-1.79086 4,-4 V 36 h 4 c 2.209139,0 5.820113,-0.08124 7.972182,0.39786 4.160438,0.926201 6.703758,3.46952 7.629958,7.629959 C 48.081236,46.179887 48,49.790861 48,52 v 60 c 0,2.20914 1.790861,4 4,4 h 12 c 2.209139,0 4,-1.79086 4,-4 v -12 h 16 v 12 c 0,2.20914 1.790861,4 4,4 h 12 c 2.20914,0 4,-1.79086 4,-4 v -12 h 12 c 2.20914,0 4,-1.790861 4,-4 V 84 l -4,-4 H 104 V 64 c -4,-4 0,0 -4,-4 H 88 c -4,4 0,0 -4,4 V 80 H 68 V 52 C 36,12 68,52 36,12 H 12 c -4,4 0,0 -4,4 z" fill="#d38c2d"/><path d="m 8,16 v 92 a 4,4 45 0 0 4,4 l 12,0 a 4,4 135 0 0 4,-4 l 0,-76 h 4 c 2.209139,0 5.820113,-0.08124 7.972182,0.39786 4.160438,0.926201 6.703758,3.46952 7.629958,7.629959 C 48.081236,42.179887 48,45.790861 48,48 l 0,60 a 4,4 45 0 0 4,4 l 12,0 a 4,4 135 0 0 4,-4 V 96 h 16 v 12 a 4,4 45 0 0 4,4 l 12,0 a 4,4 135 0 0 4,-4 V 96 h 12 a 4,4 135 0 0 4,-4 v -8 a 4,4 45 0 0 -4,-4 H 104 V 64 a 4,4 45 0 0 -4,-4 H 88 a 4,4 135 0 0 -4,4 V 80 H 68 V 48 c 0,-2.209139 0.02285,-5.798566 -0.24528,-7.989999 C 66.137545,26.792938 56.678077,14.498315 43.981118,12.335735 41.805928,11.965251 38.209139,12 36,12 H 12 a 4,4 135 0 0 -4,4 z" fill="#f9aa40"/></svg>
