<svg width="21" height="15" xmlns="http://www.w3.org/2000/svg"><defs><linearGradient x1="50%" y1="0%" x2="50%" y2="100%" id="a"><stop stop-color="#FFF" offset="0%"/><stop stop-color="#F0F0F0" offset="100%"/></linearGradient><linearGradient x1="50%" y1="0%" x2="50%" y2="100%" id="b"><stop stop-color="#F22A46" offset="0%"/><stop stop-color="#E71834" offset="100%"/></linearGradient><linearGradient x1="50%" y1="0%" x2="50%" y2="100%" id="c"><stop stop-color="#FFF04D" offset="0%"/><stop stop-color="#FFEE35" offset="100%"/></linearGradient></defs><g fill="none" fill-rule="evenodd"><path fill="url(#a)" d="M0 0h21v15H0z"/><path fill="url(#b)" d="M0 0h21v15H0z"/><circle fill="url(#c)" cx="10.5" cy="7.5" r="2.5"/><path d="M10.5 11.035l-1.224 1.827-.31-2.177L7.071 11.8l.665-2.096-2.191.182 1.508-1.6L5 7.5l2.053-.787-1.508-1.6 2.191.183L7.071 3.2l1.895 1.115.31-2.177L10.5 3.965l1.224-1.827.31 2.177L13.929 3.2l-.665 2.096 2.191-.182-1.508 1.6L16 7.5l-2.053.787 1.508 1.6-2.191-.183.665 2.096-1.895-1.115-.31 2.177-1.224-1.827zm0-.035a3.5 3.5 0 1 0 0-7 3.5 3.5 0 0 0 0 7z" fill="url(#c)"/></g></svg>