<svg width="21" height="15" xmlns="http://www.w3.org/2000/svg"><defs><linearGradient x1="50%" y1="0%" x2="50%" y2="100%" id="a"><stop stop-color="#FFF" offset="0%"/><stop stop-color="#F0F0F0" offset="100%"/></linearGradient><linearGradient x1="50%" y1="0%" x2="50%" y2="100%" id="b"><stop stop-color="#0744A7" offset="0%"/><stop stop-color="#00307D" offset="100%"/></linearGradient><linearGradient x1="50%" y1="0%" x2="50%" y2="100%" id="c"><stop stop-color="#FCC747" offset="0%"/><stop stop-color="#FEC539" offset="100%"/></linearGradient></defs><g fill="none" fill-rule="evenodd"><path fill="url(#a)" d="M0 0h21v15H0z"/><path fill="url(#b)" d="M0 0h21v15H0z"/><path fill="url(#c)" d="M0 6h21v2H0z"/><path fill="url(#a)" d="M5.5 12.25l-.773 1.128.038-1.367-1.288.458.834-1.083L3 11l1.311-.386-.834-1.083 1.288.458-.038-1.367L5.5 9.75l.773-1.128-.038 1.367 1.288-.458-.834 1.083L8 11l-1.311.386.834 1.083-1.288-.458.038 1.367z"/></g></svg>