<svg width="21" height="15" xmlns="http://www.w3.org/2000/svg"><defs><linearGradient x1="50%" y1="0%" x2="50%" y2="100%" id="a"><stop stop-color="#FFF" offset="0%"/><stop stop-color="#F0F0F0" offset="100%"/></linearGradient><linearGradient x1="50%" y1="0%" x2="50%" y2="100%" id="b"><stop stop-color="#1132C7" offset="0%"/><stop stop-color="#0522A5" offset="100%"/></linearGradient><linearGradient x1="50%" y1="0%" x2="50%" y2="100%" id="c"><stop stop-color="#08379D" offset="0%"/><stop stop-color="#042A7D" offset="100%"/></linearGradient><linearGradient x1="50%" y1="0%" x2="50%" y2="100%" id="d"><stop stop-color="#FFCC50" offset="0%"/><stop stop-color="#FFC63C" offset="100%"/></linearGradient><linearGradient x1="50%" y1="0%" x2="50%" y2="100%" id="e"><stop stop-color="#262626" offset="0%"/><stop stop-color="#0D0D0D" offset="100%"/></linearGradient></defs><g fill="none" fill-rule="evenodd"><path fill="url(#a)" d="M0 0h21v15H0z"/><path fill="url(#b)" d="M0 0h21v15H0z"/><path fill="url(#c)" d="M10 0h11v15H10zM0 0h7v15H0z"/><path fill="url(#d)" d="M7 0h7v15H7z"/><path d="M10.378 4.709c.079-.116.206-.11.278 0l.708 1.082c.075.116.019.209-.118.209h-.242a.221.221 0 0 0-.23.249l.201 2.002a.285.285 0 0 0 .275.249.695.695 0 0 0 .43-.179l.14-.137c.1-.099.18-.286.18-.432v-.498a.696.696 0 0 0-.18-.435l-.14-.138c-.1-.1-.082-.214.054-.26l1.032-.343c.13-.043.214.03.188.17l-.368 2.003a.918.918 0 0 1-.227.423l-.678.652a.726.726 0 0 1-.431.174.247.247 0 0 0-.25.252v.496a.248.248 0 0 1-.252.252h-.496a.249.249 0 0 1-.252-.252v-.496a.254.254 0 0 0-.25-.252.69.69 0 0 1-.424-.174l-.652-.652a.956.956 0 0 1-.224-.423l-.4-2.002c-.028-.138.048-.216.184-.17l1.032.343c.13.043.156.156.053.259l-.138.138c-.1.1-.181.289-.181.435v.498c0 .14.078.33.18.432l.14.137c.1.1.296.179.43.179a.28.28 0 0 0 .275-.249l.2-2.002A.225.225 0 0 0 9.996 6h-.242c-.14 0-.187-.098-.112-.209l.736-1.082z" fill="url(#e)"/></g></svg>