<svg width="21" height="15" xmlns="http://www.w3.org/2000/svg"><defs><linearGradient x1="50%" y1="0%" x2="50%" y2="100%" id="a"><stop stop-color="#FFF" offset="0%"/><stop stop-color="#F0F0F0" offset="100%"/></linearGradient><linearGradient x1="50%" y1="0%" x2="50%" y2="100%" id="b"><stop stop-color="#E71924" offset="0%"/><stop stop-color="#D6101B" offset="100%"/></linearGradient><linearGradient x1="50%" y1="0%" x2="50%" y2="100%" id="c"><stop stop-color="#EA1824" offset="0%"/><stop stop-color="#D6101B" offset="100%"/></linearGradient><linearGradient x1="50%" y1="0%" x2="50%" y2="100%" id="d"><stop stop-color="#262626" offset="0%"/><stop stop-color="#0D0D0D" offset="100%"/></linearGradient><linearGradient x1="50%" y1="0%" x2="50%" y2="100%" id="e"><stop stop-color="#ECCE3E" offset="0%"/><stop stop-color="#D9BC2D" offset="100%"/></linearGradient></defs><g fill="none" fill-rule="evenodd"><path fill="url(#a)" d="M0 0h21v15H0z"/><path fill="url(#a)" d="M0 0h21v10H0z"/><path fill="url(#b)" d="M0 10h21v5H0z"/><path d="M9 6H8V4.49A.495.495 0 0 0 7.495 4h-.99A.49.49 0 0 0 6 4.49V8L5 9h11l-1-1V4.49a.495.495 0 0 0-.505-.49h-.99a.49.49 0 0 0-.505.49V6h-1V3.49a.49.49 0 0 0-.495-.49h-2.01A.49.49 0 0 0 9 3.49V6z" fill="url(#c)"/><path d="M7 8a.5.5 0 1 1 0-1 .5.5 0 0 1 0 1zm0-2a.5.5 0 1 1 0-1 .5.5 0 0 1 0 1zm3.5 2a.5.5 0 1 1 0-1 .5.5 0 0 1 0 1zm0-3a.5.5 0 1 1 0-1 .5.5 0 0 1 0 1zM14 8a.5.5 0 1 1 0-1 .5.5 0 0 1 0 1zm0-2a.5.5 0 1 1 0-1 .5.5 0 0 1 0 1z" fill="url(#d)"/><path d="M10 9.943V12H9v1h2V9.943c.583-.137 1-.508 1-.943 0-.552-.672-1-1.5-1S9 8.448 9 9c0 .435.417.806 1 .943z" fill="url(#e)"/></g></svg>