<svg width="21" height="15" xmlns="http://www.w3.org/2000/svg"><defs><linearGradient x1="50%" y1="0%" x2="50%" y2="100%" id="a"><stop stop-color="#FFF" offset="0%"/><stop stop-color="#F0F0F0" offset="100%"/></linearGradient><linearGradient x1="50%" y1="0%" x2="50%" y2="100%" id="b"><stop stop-color="#E81B26" offset="0%"/><stop stop-color="#D00914" offset="100%"/></linearGradient><linearGradient x1="50%" y1="0%" x2="50%" y2="100%" id="c"><stop stop-color="#FFE94F" offset="0%"/><stop stop-color="#FFE633" offset="100%"/></linearGradient></defs><g fill="none" fill-rule="evenodd"><path fill="url(#a)" d="M0 0h21v15H0z"/><path fill="url(#b)" d="M-.004-.002h21v15h-21z"/><circle fill="url(#c)" cx="10.496" cy="7.498" r="2.5"/><path d="M13.961 7.993l7.035 1.005v-3l-7.035 1.005a3.53 3.53 0 0 1 0 .99zm-6.93-.99L-.004 5.998v3l7.035-1.005a3.53 3.53 0 0 1 0-.99zm4.152-2.938l.813-4.067h-3l.814 4.067a3.517 3.517 0 0 1 1.373 0zM9.81 10.931l-.814 4.067h3l-.813-4.067a3.517 3.517 0 0 1-1.373 0zM7.652 9.539L-.54 15.417l2.007 2.229 6.703-7.533a3.52 3.52 0 0 1-.518-.574zm5.688-4.082L21.532-.42l-2.007-2.23-6.702 7.533c.192.172.366.364.517.574zm-.517 4.656l6.702 7.533 2.007-2.23L13.34 9.54a3.52 3.52 0 0 1-.517.574zM8.17 4.883L1.467-2.65-.54-.42l8.192 5.877a3.52 3.52 0 0 1 .518-.574z" fill="url(#c)"/></g></svg>