<svg width="21" height="15" xmlns="http://www.w3.org/2000/svg" xmlns:xlink="http://www.w3.org/1999/xlink"><defs><linearGradient x1="50%" y1="0%" x2="50%" y2="100%" id="a"><stop stop-color="#FFF" offset="0%"/><stop stop-color="#F0F0F0" offset="100%"/></linearGradient><linearGradient x1="50%" y1="0%" x2="50%" y2="100%" id="b"><stop stop-color="#07319C" offset="0%"/><stop stop-color="#00247E" offset="100%"/></linearGradient><linearGradient x1="50%" y1="0%" x2="50%" y2="100%" id="d"><stop stop-color="#A7D2FF" offset="0%"/><stop stop-color="#91C6FD" offset="100%"/></linearGradient><path d="M0 3.5V.51C0 .228.215 0 .498 0h4.004C4.777 0 5 .227 5 .51V3.5C5 5.5 2.5 6 2.5 6S0 5.5 0 3.5z" id="c"/><linearGradient x1="50%" y1="0%" x2="50%" y2="100%" id="e"><stop stop-color="#EE7B2D" offset="0%"/><stop stop-color="#CC621A" offset="100%"/></linearGradient><linearGradient x1="50%" y1="0%" x2="50%" y2="100%" id="g"><stop stop-color="#FFFC4B" offset="0%"/><stop stop-color="#FFFC38" offset="100%"/></linearGradient><linearGradient x1="50%" y1="0%" x2="50%" y2="100%" id="h"><stop stop-color="#DB1E36" offset="0%"/><stop stop-color="#D51931" offset="100%"/></linearGradient></defs><g fill="none" fill-rule="evenodd"><path fill="url(#a)" d="M0 0h21v15H0z"/><path fill="url(#b)" d="M0 0h21v15H0z"/><g transform="translate(13 6)"><mask id="f" fill="#fff"><use xlink:href="#c"/></mask></g><path d="M3 3.23L-1.352-.5H.66L4.16 2h.697L9.5-.902V.25c0 .303-.167.627-.418.806L6 3.257v.513l3.137 2.69c.462.395.204 1.04-.387 1.04-.245 0-.545-.096-.75-.242L4.84 5h-.697L-.5 7.902v-1.66l3.5-2.5V3.23z" fill="url(#a)" fill-rule="nonzero"/><path d="M3.5 3L0 0h.5L4 2.5h1L9 0v.25a.537.537 0 0 1-.208.399L5.5 3v1l3.312 2.839c.104.089.072.161-.062.161a.898.898 0 0 1-.458-.149L5 4.5H4L0 7v-.5L3.5 4V3z" fill="url(#h)"/><path d="M0 2.5v2h3.5v2.505c0 .273.214.495.505.495h.99a.496.496 0 0 0 .505-.495V4.5h3.51a.49.49 0 0 0 .49-.505v-.99a.495.495 0 0 0-.49-.505H5.5V0h-2v2.5H0z" fill="url(#a)"/><path fill="url(#h)" d="M0 3h4V0h1v3h4v1H5v3H4V4H0z"/></g><g><path fill="#FFFFFF" d="M18,7.8c0,1.7-0.3,3.6-2.5,4.5c-2.2-0.9-2.5-2.7-2.5-4.5L18,7.8L18,7.8z"/><path fill="#29DBFF" d="M18,8.5c-0.1,1.5-0.5,3-2.5,3.7c-2-0.8-2.4-2.3-2.5-3.7"/><path fill="#FFFFFF" d="M17.9,9.2c-0.1,1.1-0.7,2.4-2.4,3c-1.7-0.7-2.2-1.9-2.4-3"/><path fill="#29DBFF" d="M17.7,9.9c-0.2,0.8-0.8,1.7-2.3,2.3c-1.4-0.6-2-1.5-2.3-2.3"/><path fill="#FFFFFF" d="M17.4,10.7c-0.3,0.5-0.8,1.1-1.9,1.6c-1.2-0.5-1.6-1.1-1.9-1.6"/><path fill="#29DBFF" d="M16.8,11.5c-0.4,0.3-0.5,0.5-1.3,0.8c-0.9-0.3-1-0.5-1.3-0.8"/><path fill="#33aa33" d="M15.5,10c0,0-1.2,1.6-1.2,1.6c-0.1-0.1-0.4-0.4-0.6-0.7l1.8-2.2l1.8,2.2c-0.2,0.3-0.5,0.6-0.6,0.7"/></g><polygon fill="#33aa33" points="15.5,3.6 14.3,5.5 15.5,7.2 16.6,5.5 "/><ellipse transform="matrix(0.9881 -0.1541 0.1541 0.9881 -1.2349 3.0397)" fill="#dc9f47" cx="19" cy="9.5" rx="0.6" ry="2"/><ellipse transform="matrix(0.1353 -0.9908 0.9908 0.1353 0.9755 20.0862)" fill="#dc9f47" cx="12" cy="9.5" rx="2" ry="0.6"/></svg>