<svg xmlns="http://www.w3.org/2000/svg" width="20" height="14"><path d="M0 0h20v7.1H0zm0 0" fill-rule="evenodd" fill="red"/><path d="M0 6.9h20V14H0zm0 0" fill-rule="evenodd"/><path d="M7.1 4.3C12.3 5.6 9 11.8 5 9.2l-.3.4c2.4 1.6 4.8.3 5.5-1.4.7-1.7-.3-4-3-4.3zm0 0" fill-rule="evenodd" fill="#ffec00"/><path d="M5.3 9.6l.7.3-.3.7-.7-.3zM10 6.7h.7v.7H10zm-.4-1l.7-.3.3.6-.7.3zm-.8-1l.5-.4.6.5-.6.5zM8 3.7l.7.2-.3.7-.7-.2zm1.9 4.3l.7.2-.3.7-.7-.3zm-2.2 2l.7-.3.3.7-.7.3zm-1.2.1h.7v.7h-.7zm1.2-3.4l-.6-.4-.6.4.2-.7-.6-.4h.8l.2-.7.3.7H8l-.6.4.2.7zm0 0" fill-rule="evenodd" fill="#ffec00"/><path d="M10.5 10.1l-.3.5h.1c.4.2.6.3.8.6h.3l.2-.2v-.3l-1.1-.6zm0 0" fill-rule="evenodd" fill="#fe0"/><path d="M11.4 10.9l-.1.1-.2-.1a.1.1 0 01.2-.2l.1.2zm-.7-.4v.1a.1.1 0 01-.2-.1l.1-.1h.1zm.4.2a.1.1 0 01-.1.1l-.2-.1.2-.1zm0 0" fill-rule="evenodd"/><path d="M10.1 10.6l-4-2.2c-.6-.3-.6-1-.2-1.4 0-.1 0 0 0 0l.4.6 4.1 2.5-.3.5zm0 0" fill-rule="evenodd" fill="#fe0"/><path d="M9.3 9l.5.4-.5.5-.5-.5zm0 0" fill-rule="evenodd" fill="#ffec00"/><path d="M331.5 348.8l-125-75.5m109.6 58L274 304.2m18.3 42.5l-43-24.7" transform="scale(.03125 .02917)" fill="none" stroke-width="3" stroke="#000"/></svg>