<svg xmlns="http://www.w3.org/2000/svg" width="20" height="14"><path fill="#74acdf" d="M0 0h20v14H0z"/><path d="M0 4.7h20v4.6H0zm0 0" fill="#fff"/><path d="M396.7 251.3l28.6 62s.5 1.2 1.3.9c.7-.4.4-1.6.4-1.6l-23.7-63.9m-.8 24c-.4 9.5 5.4 14.7 4.7 23-.8 8.6 3.7 13.3 5 16.7 1 3.2-1.3 5.1-.4 5.5 1 .6 3-2 2.5-6.7-.8-4.6-4.1-6-3.4-16.3.8-10.3-4.3-12.7-3-22" transform="matrix(.03 0 0 .028 -2 0)" fill="#f6b40e" stroke-width="1.1" stroke="#85340a"/><path d="M396.8 251.3l28.5 62s.4 1.2 1.3.9c.8-.4.3-1.5.3-1.5l-23.7-64m-.7 24.1c-.4 9.4 5.4 14.6 4.6 23-.7 8.5 4 13.2 5 16.5 1.1 3.3-1.2 5.2-.1 5.7.9.5 2.9-2.1 2.4-6.8-.8-4.6-4.4-6-3.6-16.3.8-10.3-4-12.7-2.9-22" transform="matrix(.02772 .01072 -.01148 .02587 1.8 -3.8)" fill="#f6b40e" stroke-width="1.1" stroke="#85340a"/><path d="M396.8 251.2l28.5 62s.5 1.3 1.3 1c.7-.4.3-1.6.3-1.6l-23.7-63.8m-.7 24c-.3 9.4 5.5 14.6 4.7 23-.8 8.5 3.8 13.3 5 16.5 1 3.3-1.3 5.1-.3 5.7 1 .5 3-2 2.4-6.7-.7-4.6-4.2-6-3.4-16.4.9-10.3-4.2-12.8-3-22" transform="scale(.03 .028) rotate(45 366.7 169.5)" fill="#f6b40e" stroke-width="1.1" stroke="#85340a"/><path d="M396.7 251.3l28.6 62s.5 1.2 1.3.8c.7-.3.3-1.4.3-1.4l-23.6-64m-.8 24c-.4 9.5 5.4 14.7 4.7 23.1-.8 8.4 3.9 13.2 5 16.5 1 3.3-1.3 5.2-.4 5.7 1 .5 3-2.1 2.6-6.8-.9-4.6-4.3-6-3.6-16.3.9-10.3-4-12.7-2.9-22" transform="matrix(.01148 .02587 -.02772 .01072 12.3 -6)" fill="#f6b40e" stroke-width="1.1" stroke="#85340a"/><path d="M10.1 7.7l.2.6-.1-.6M10 7l.5 1.2L10 7" fill="#85340a"/><path d="M9.8 7.7v0M10 7l.1 1.3V7M9.6 7.6l-.4.5.4-.5M10 7l-.5 1.2L10 7M9.4 7.4c-.3 0-.3.3-.6.3l.6-.3M10 7L9 8l1-1" fill="#85340a"/><path d="M396.8 251.3l28.5 62s.5 1.2 1.3.9c.7-.4.3-1.4.3-1.4l-23.7-64.1m-.7 24c-.4 9.5 5.5 14.7 4.8 23.1-.9 8.5 3.7 13.2 4.8 16.4 1.2 3.4-1.2 5.2-.2 5.8 1 .5 3-2.1 2.5-6.8-.9-4.6-4.4-6-3.5-16.3.8-10.3-4.2-12.7-3-22" transform="matrix(0 .028 -.03 0 17.5 -4.2)" fill="#f6b40e" stroke-width="1.1" stroke="#85340a"/><path d="M396.8 251.3l28.5 62s.5 1.1 1.3 1c.7-.5.3-1.6.3-1.6l-23.7-64m-.7 24c-.3 9.5 5.5 14.7 4.7 23-.9 8.6 3.8 13.3 5 16.6 1 3.3-1.3 5.2-.4 5.7 1.2.5 3-2.2 2.5-6.8-.7-4.6-4.3-6-3.4-16.3.9-10.3-4.2-12.7-3-22" transform="matrix(-.01148 .02587 -.02772 -.01072 21.5 -.7)" fill="#f6b40e" stroke-width="1.1" stroke="#85340a"/><path d="M396.8 251.3l28.4 62s.6 1.1 1.3 1c1-.6.5-1.6.5-1.6l-23.8-64m-.7 24c-.5 9.5 5.4 14.7 4.7 23.2-.8 8.5 3.8 13 5 16.4 1 3.3-1.3 5.2-.3 5.7s3-2.1 2.4-6.8c-.7-4.6-4.2-6-3.4-16.3.8-10.3-4.2-12.7-3-22" transform="scale(-.03 -.028) rotate(-45 -570.2 885.2)" fill="#f6b40e" stroke-width="1.1" stroke="#85340a"/><path d="M396.8 251.2l28.5 62.1s.6 1.2 1.3.9c.8-.4.3-1.6.3-1.6l-23.7-63.8m-.7 24c-.3 9.4 5.4 14.6 4.7 23-.8 8.5 3.7 13.2 5 16.5 1 3.2-1.3 5.2-.4 5.7 1.1.5 3-2 2.5-6.8-.7-4.5-4.2-6-3.4-16.4.8-10.2-4.2-12.6-3-22" transform="matrix(-.02772 .01072 -.01148 -.02587 24 9.2)" fill="#f6b40e" stroke-width="1.1" stroke="#85340a"/><path d="M9.3 7.1l-.7.2.7-.1M10 7l-1.3.5L10 7M9.3 6.9c-.3-.1-.4 0-.7-.2.2.2.4 0 .6.2m.8 0L8.6 7H10M9.4 6.6l-.6-.3.6.3m.6.4l-1.3-.5L10 7" fill="#85340a"/><path d="M9.6 6.4L9.2 6c0 .2.3.3.4.5m.4.6L9 6l1 1" fill="#85340a"/><path d="M396.7 251.3l28.6 62s.5 1.2 1.3.9c.7-.4.4-1.6.4-1.6l-23.7-63.9m-.8 24c-.4 9.5 5.4 14.7 4.7 23-.8 8.6 3.7 13.3 5 16.7 1 3.2-1.3 5.1-.4 5.5 1 .6 3-2 2.5-6.7-.8-4.6-4.1-6-3.4-16.3.8-10.3-4.3-12.7-3-22" transform="matrix(-.03 0 0 -.028 22 14)" fill="#f6b40e" stroke-width="1.1" stroke="#85340a"/><path d="M396.8 251.3l28.5 62s.4 1.2 1.3.9c.8-.4.3-1.5.3-1.5l-23.7-64m-.7 24.1c-.4 9.4 5.4 14.6 4.6 23-.7 8.5 4 13.2 5 16.5 1.1 3.3-1.2 5.2-.1 5.7.9.5 2.9-2.1 2.4-6.8-.8-4.6-4.4-6-3.6-16.3.8-10.3-4-12.7-2.9-22" transform="matrix(-.02772 -.01072 .01148 -.02587 18.2 17.8)" fill="#f6b40e" stroke-width="1.1" stroke="#85340a"/><path d="M396.8 251.2l28.5 62s.5 1.3 1.3 1c.7-.4.3-1.6.3-1.6l-23.7-63.8m-.7 24c-.3 9.4 5.5 14.6 4.7 23-.8 8.5 3.8 13.3 5 16.5 1 3.3-1.3 5.1-.3 5.7 1 .5 3-2 2.4-6.7-.7-4.6-4.2-6-3.4-16.4.9-10.3-4.2-12.8-3-22" transform="scale(-.03 -.028) rotate(45 636.9 -885.2)" fill="#f6b40e" stroke-width="1.1" stroke="#85340a"/><path d="M396.7 251.3l28.6 62s.5 1.2 1.3.8c.7-.3.3-1.4.3-1.4l-23.6-64m-.8 24c-.4 9.5 5.4 14.7 4.7 23.1-.8 8.4 3.9 13.2 5 16.5 1 3.3-1.3 5.2-.4 5.7 1 .5 3-2.1 2.6-6.8-.9-4.6-4.3-6-3.6-16.3.9-10.3-4-12.7-2.9-22" transform="matrix(-.01148 -.02587 .02772 -.01072 7.7 20)" fill="#f6b40e" stroke-width="1.1" stroke="#85340a"/><path d="M9.9 6.3l-.2-.6.1.6m.2.7l-.5-1.2L10 7M10.2 6.3v-.6.6M10 7L10 5.7V7M10.4 6.4l.4-.5-.4.5M10 7l.5-1.2L10 7M10.6 6.6c.3 0 .3-.3.6-.3l-.6.3M10 7l1-1-1 1" fill="#85340a"/><path d="M396.8 251.3l28.5 62s.5 1.2 1.3.9c.7-.4.3-1.4.3-1.4l-23.7-64.1m-.7 24c-.4 9.5 5.5 14.7 4.8 23.1-.9 8.5 3.7 13.2 4.8 16.4 1.2 3.4-1.2 5.2-.2 5.8 1 .5 3-2.1 2.5-6.8-.9-4.6-4.4-6-3.5-16.3.8-10.3-4.2-12.7-3-22" transform="matrix(0 -.028 .03 0 2.5 18.2)" fill="#f6b40e" stroke-width="1.1" stroke="#85340a"/><path d="M396.8 251.3l28.5 62s.5 1.1 1.3 1c.7-.5.3-1.6.3-1.6l-23.7-64m-.7 24c-.3 9.5 5.5 14.7 4.7 23-.9 8.6 3.8 13.3 5 16.6 1 3.3-1.3 5.2-.4 5.7 1.2.5 3-2.2 2.5-6.8-.7-4.6-4.3-6-3.4-16.3.9-10.3-4.2-12.7-3-22" transform="matrix(.01148 -.02587 .02772 .01072 -1.5 14.7)" fill="#f6b40e" stroke-width="1.1" stroke="#85340a"/><path d="M396.8 251.3l28.4 62s.6 1.1 1.3 1c1-.6.5-1.6.5-1.6l-23.8-64m-.7 24c-.5 9.5 5.4 14.7 4.7 23.2-.8 8.5 3.8 13 5 16.4 1 3.3-1.3 5.2-.3 5.7s3-2.1 2.4-6.8c-.7-4.6-4.2-6-3.4-16.3.8-10.3-4.2-12.7-3-22" transform="scale(.03 .028) rotate(-45 366.7 330.5)" fill="#f6b40e" stroke-width="1.1" stroke="#85340a"/><path d="M396.8 251.2l28.5 62.1s.6 1.2 1.3.9c.8-.4.3-1.6.3-1.6l-23.7-63.8m-.7 24c-.3 9.4 5.4 14.6 4.7 23-.8 8.5 3.7 13.2 5 16.5 1 3.2-1.3 5.2-.4 5.7 1.1.5 3-2 2.5-6.8-.7-4.5-4.2-6-3.4-16.4.8-10.2-4.2-12.6-3-22" transform="matrix(.02772 -.01072 .01148 .02587 -4 4.8)" fill="#f6b40e" stroke-width="1.1" stroke="#85340a"/><path d="M10.7 6.9l.7-.2-.7.1M10 7l1.3-.5L10 7M10.7 7.1c.3.1.4 0 .7.2-.2-.2-.4 0-.6-.2m-.8 0l1.4-.1H10M10.6 7.4l.6.3-.6-.3M10 7l1.3.5L10 7M10.4 7.6l.4.5c0-.2-.3-.3-.4-.5M10 7l1 1-1-1" fill="#85340a"/><path d="M346.8 240a26.7 26.7 0 11-53.5-.1 26.7 26.7 0 0153.4.1zm0 0" transform="scale(.03125 .02917)" fill="#f6b40e" stroke-width="1.4" stroke="#85340a"/><path d="M10.3 6.8a.2.2 0 00-.2.1h.3a.2.2 0 00-.1 0zm0 0h.1c0 .2-.2.1-.2.1zm0 0" fill="#843511"/><path d="M10.3 6.8h-.1-.1s0 .1 0 0h.2l.2.1-.2-.1zm0 0M10.5 6.8c-.1 0-.3-.1-.4 0v0c0-.1.3-.1.4 0zm0 0M10.3 6.9zm0 0M10.4 7h-.2c-.1 0-.1 0 0 0h.2zM10 7v.1a.2.2 0 00.1 0h.1V7a.1.1 0 01-.1 0h-.1zm0 .2h-.1H10zm0 0M10 7.3a.5.5 0 00-.2 0h.4-.2zm0 0M9.8 7.4h.4-.4zm.3.2l-.1-.2-.1.2a.1.1 0 01.1-.1h.1zm-.6-.8c.1 0 .3-.1.4 0v.3a.4.4 0 000-.3c0-.1-.3-.1-.4 0zm0 0" fill="#85340a"/><path d="M9.7 6.8h.2s0 .1 0 0h-.2l-.2.1.2-.1zm0 0" fill="#85340a"/><path d="M9.7 6.8a.2.2 0 00-.1.1h.3a.2.2 0 00-.2 0zm0 0h.1c0 .2-.1.1-.2.1a.2.2 0 01.1 0zm0 0" fill="#843511"/><path d="M9.8 6.9h-.1zm0 0M9.6 7h.2c.1 0 .1 0 0 0h-.2zm0 0" fill="#85340a"/></svg>