<svg xmlns="http://www.w3.org/2000/svg" width="20" height="14"><path fill="#009" d="M0 0h20v14H0z"/><path d="M4.2 0l15 14V0zm0 0" fill-rule="evenodd" fill="#fc0"/><path d="M15.4 13.2l-.8-.6-.9.6.3-1-.8-.5h1l.4-1 .3 1h1l-.8.6zm2.4.2h-1l-.4-.9-.3 1h-1l.8.5-.3 1 .8-.6.9.5-.4-.9zm-4.6-2.9l.8-.5h-1l-.3-1-.3 1h-1l.8.5-.3 1 .8-.6.8.5zm-1.9-1.7l.8-.6h-1l-.3-1-.3 1h-1l.8.5-.3 1 .8-.6.8.6zM9.5 7l.8-.6h-1l-.4-.9-.3 1h-1l.8.5-.3 1 .9-.6.8.5-.3-.9zm-2-1.7l.9-.6h-1l-.3-1-.4 1h-1l.8.6-.3.9.9-.6.8.6-.3-1zM5.8 3.5l.8-.6h-1L5.2 2l-.3 1h-1l.8.5-.3 1 .8-.6.8.5zM3.8 1.8l.9-.6h-1l-.4-1-.3 1H2l.8.6-.3.9.8-.6.8.6zM2 0l.8-.6h-1l-.4-.9-.3 1h-1l.8.5-.3 1 .8-.6.9.5zm0 0" fill-rule="evenodd" fill="#fff"/></svg>