<svg xmlns="http://www.w3.org/2000/svg" width="20" height="14"><path fill="#007934" d="M0 0h20v14H0z"/><path d="M0 0h20v9.3H0zm0 0" fill="#ffe000"/><path d="M0 0h20v4.7H0zm0 0" fill="#d52b1e"/><path d="M368.6 210.7l-98 97.9-1.4-1 98-97.7c.6.2 1 .5 1.4.9zm0 0" transform="scale(.03125 .02917)" fill="#a05a2c" stroke-width=".1" stroke="#000"/><path d="M374.8 204.5c-.6.7-1.6 2.6-1 3.8l-2-1.5c.4 1 .3 1.5-.2 1.9-.4.4-1.4.2-2.1 0 .8.5 1.5.9 2.4 1.2h2l-3.3.9a5 5 0 01-2 0c-.6.5-1.9-.4-1.4-1-.2-.3-.2-.7-.3-1.4 0-.7.1-1.9.7-3l.5 1.7c.1.5.6 1 1.1 1.4-.2-.5-.4-1.2 0-1.8.6-.5 1.4-.5 2-.2l-1.8-1.3c.9 0 3.4-1 4.1-1.5 1.8-1.2 3.4-2.4 4.9-3.7-1.3 1.4-2.5 2.9-3.6 4.5zm0 0" transform="scale(.03125 .02917)" fill="#e7e7e7" stroke-width=".1" stroke="#000"/><path d="M387 222.9l-125.8 70.8c-.2-.4-.4-.8-.8-1.2l125.7-71c.4.4.8.8 1 1.4zm0 0" transform="scale(.03125 .02917)" fill="#a05a2c" stroke-width=".1" stroke="#000"/><path d="M394.9 218.3c-.6.5-2.1 2-2.1 3.4l-1.6-2c.3 1 0 1.6-.6 1.7-.4.4-1.4 0-2-.3.5.7 1.3 1.2 2 1.5l1.6.7c-.4 0-2.2.2-3.3 0-.5 0-1.5 0-1.9-.4-.8.4-1.6-.8-1-1.2 0-.5 0-.9.3-1.5a7 7 0 011.4-2.8v1.8c0 .4.4 1 .6 1.6 0-.5 0-1.3.7-1.7.8-.4 1.4-.3 2 .3l-1.4-1.8c.8.2 3.5-.1 4.4-.4 1-.2 4.1-1.6 6-2.5-1.8 1-4.6 3-5.1 3.6zm0 0" transform="scale(.03125 .02917)" fill="#e7e7e7" stroke-width=".1" stroke="#000"/><path d="M376.3 217.5l-113 85.2-1-1 113-85.3 1 1zm0 0" transform="scale(.03125 .02917)" fill="#a05a2c" stroke-width=".1" stroke="#000"/><path d="M383.4 212.1c-.5.6-1.8 2.3-1.6 3.7L380 214c.3 1 .1 1.5-.4 1.8-.4.4-1.5 0-2.1 0 .6.4 1.3.9 2.3 1.2l1.8.2c-.7.3-2.4.6-3.4.6-.4 0-1.6 0-2-.3-.6.5-1.7-.5-1-1-.3-.3-.2-.9-.2-1.5.1-1.1.5-2 1.1-3l.1 1.8 1 1.6c-.2-.4-.2-1.2.4-1.8.6-.4 1.3-.3 2 0l-1.6-1.5c.8 0 3.3-.6 4.3-1s3.7-2 5.4-3.1a71 71 0 00-4.4 4zm0 0" transform="scale(.03125 .02917)" fill="#e7e7e7" stroke-width=".1" stroke="#000"/><path d="M271.4 210.7l98 97.9 1.4-1-98-97.7c-.6.2-1 .5-1.4.9zm0 0" transform="scale(.03125 .02917)" fill="#a05a2c" stroke-width=".1" stroke="#000"/><path d="M265.3 204.5c.4.7 1.4 2.6 1 3.8l2-1.5c-.6 1-.4 1.5 0 1.9.4.4 1.4.2 2.2 0-.8.5-1.5.9-2.4 1.2h-2l3.3.9a5 5 0 002 0c.6.5 1.9-.4 1.4-1 .2-.3.2-.7.3-1.4a6 6 0 00-.7-3l-.5 1.7c-.1.5-.6 1-1.1 1.4.2-.5.4-1.2 0-1.8-.6-.5-1.4-.5-2-.2l1.8-1.3c-.9 0-3.4-1-4.1-1.5a48.6 48.6 0 01-4.9-3.7c1.3 1.4 2.5 2.9 3.6 4.5zm0 0" transform="scale(.03125 .02917)" fill="#e7e7e7" stroke-width=".1" stroke="#000"/><path d="M253 222.9l125.8 70.8c0-.3.4-1 .8-1.2l-125.7-71c-.4.4-.8.8-1 1.4zm0 0" transform="scale(.03125 .02917)" fill="#a05a2c" stroke-width=".1" stroke="#000"/><path d="M245.1 218.3c.7.5 2.2 2 2.2 3.4l1.4-2c-.2 1 0 1.6.7 1.7.3.4 1.3 0 2-.3-.5.7-1.3 1.2-2 1.5l-1.8.7c.7 0 2.3.2 3.4 0 .6 0 1.6 0 2-.4.8.4 1.6-.8 1-1.2 0-.5 0-.9-.3-1.5a6 6 0 00-1.4-2.8v1.8c0 .4-.4 1-.6 1.6 0-.5 0-1.3-.7-1.7-.8-.4-1.4-.3-2 .3l1.4-1.8c-1.5.2-2.9-.1-4.4-.4l-6-2.5c1.8 1 4.6 3 5.1 3.6zm0 0" transform="scale(.03125 .02917)" fill="#e7e7e7" stroke-width=".1" stroke="#000"/><path d="M263.8 217.5l113 85.2 1-1-113-85.3c-.4.3-.8.6-1 1zm0 0" transform="scale(.03125 .02917)" fill="#a05a2c" stroke-width=".1" stroke="#000"/><path d="M256.6 212.1c.5.6 1.8 2.3 1.6 3.7l1.7-1.8c-.3 1-.1 1.5.4 1.8.4.4 1.4 0 2 0-.6.5-1.3.9-2 1.2l-2 .2c.7.3 2.3.6 3.4.6.6 0 1.6 0 2-.3.6.5 1.7-.5 1-1 .3-.3.2-.9.2-1.5-.1-1.1-.5-2-1.1-3 0 .5 0 1.2-.2 1.8-.2.6-.5 1-.9 1.6.2-.4.2-1.2-.4-1.8-.6-.4-1.3-.3-2 0l1.6-1.5a14.5 14.5 0 01-4.1-1c-1-.4-4-2-5.6-3.1 1.4 1.2 4 3.5 4.4 4zm0 0" transform="scale(.03125 .02917)" fill="#e7e7e7" stroke-width=".1" stroke="#000"/><path d="M300.1 283.4c4-2.6 15.1-4 16.6-3.6-8 6-16 6.3-16.6 3.7zm0 0" transform="scale(.03125 .02917)" fill="#00e519" stroke-width=".1" stroke="#000"/><path d="M300.3 283.5c.6 2.6 8.6 2.4 16.4-3.6a70.1 70.1 0 01-16.4 3.6zm0 0" transform="scale(.03125 .02917)" fill="#ffe533" stroke-width=".1" stroke="#000"/><path d="M300.3 283.5c.6 2.6 8.6 2.4 16.4-3.6a70.1 70.1 0 01-16.4 3.6zm0 0" transform="scale(.03125 .02917)" fill="none" stroke-width=".1" stroke-linecap="round" stroke="#000"/><path d="M300.1 283.4a39.7 39.7 0 0116.6-3.6c-8 6-16 6.3-16.6 3.6zm0 0" transform="scale(.03125 .02917)" fill="none" stroke-width=".1" stroke="#000"/><path d="M347.6 220.2L322 272.5c-1.3 1-2.3-.4-2.8-.2-1.4 1.7-3.4 2-4 2.5-1.7 2.4-.7 4.3-.6 4.4 1.3 2-1.6 3.7-1.5 4-.6 1.1-2.7 1-3.1 2l-4.8 9.4c-.6.4-3.7 6-3.7 6-2 0-10.3-5.2-10.4-5 4.6-7.3 15.6-18.5 15.3-19.2 3.1-5.2 8-11 10.1-10.8 3-1.6 4.5-5.6 4-6.6 2.3 0 3.5-1.5 3.6-1.5L343 220c1.6-.5 1.4.1 1.9 1l1-1.3c.8-.4 1.7.2 1.7.6zm0 0" transform="scale(.03125 .02917)" fill="#a05a2c" stroke-width=".1" stroke="#000"/><path d="M348.6 208.8c-.6 1 .1 1 .5 1l1 .3c1.3 0 2 .8 2 1.1l-30 61.3c-1.4 1-2.5-.4-2.9 0l20.6-41.9 10-18.9-2.8-1.2c-.8-.1-1-.6-.8-1.4l12.7-21.7-10.1 21-.2.4" transform="scale(.03125 .02917)" fill="#cce5e5" stroke-width=".1" stroke="#000"/><path d="M348.6 208.8c-.6 1 .1 1 .5 1l1 .3c1.3 0 2 .8 2 1.1l-30 61.3c-1.4 1-2.5-.4-2.9 0l20.6-41.9 10-18.9-2.8-1.2c-.8-.1-1-.6-.8-1.4l12.7-21.7-10.1 21-.2.4" transform="scale(.03125 .02917)" fill="#e7e7e7" stroke-width=".1" stroke="#000"/><path d="M308.8 272.4c-3 0-4.6 2-2.7 4.7m1.4-2.4c-1 .7-1.8-.3-1.8-.3m15.3-13c-1.5 5.7-4.3 9.3-5 10.3-2 2.3-3.9 7.3-3.5 8.2l-8.1 13.3" transform="scale(.03125 .02917)" fill="none" stroke-width=".1" stroke="#000"/><path d="M322 272.7c-1.4-.6-5.8-4.4-10-3.8-3.3 3.8-5.3 7.7-5.9 8.2 4 3.3 6.6 5 7.6 5.4.7-.4 1-1.5 1-1.5 1-1-.2-1.8-.2-1.8.3-2.4 2-4.1 3.8-4.2 2.2-.2 1.6-.4 2-.4 1-.6 1.7-2 1.7-2zm0 0" transform="scale(.03125 .02917)" fill="#cce5e5" stroke-width=".1" stroke="#000"/><path d="M322 272.7c-1.4-.6-5.8-4.4-10-3.8-3.3 3.8-5.3 7.7-5.9 8.2 4 3.3 6.6 5 7.6 5.4.7-.4 1-1.5 1-1.5 1-1-.2-1.8-.2-1.8.3-2.4 2-4.1 3.8-4.2 2.2-.2 1.6-.4 2-.4 1-.6 1.7-2 1.7-2zm0 0" transform="scale(.03125 .02917)" fill="none" stroke-width=".1" stroke="#000"/><path d="M317.6 272.8c-2 0-4 1-4.9 2.6l5-2.6" transform="scale(.03125 .02917)" fill="#cce5e5" stroke-width=".1" stroke="#000"/><path d="M317.6 272.8c-2 0-4 1-4.9 2.6m-3.4.8c0 .4.7.5 1 .4.7-.2 1-.7.7-1-.3-.5-.8-.6-1.3-.5s-.6.7-.4 1zm2.4-3.5c.2.4.8.6 1.3.4.5-.2.8-.6.5-1s-.8-.6-1.3-.5-.6.7-.4 1zm0 0" transform="scale(.03125 .02917)" fill="none" stroke-width=".1" stroke="#000"/><path d="M345.3 226c.8 0 1.2-1 .8-2l-4.7-1.5s-.6 0-1 .6c-.5.7.1 1.2.1 1.2l4.8 1.8" transform="scale(.03125 .02917)" fill="#cce5e5" stroke-width=".1" stroke="#000"/><path d="M345.3 226c.8 0 1.2-1 .8-2l-4.7-1.5s-.6 0-1 .6c-.5.7.1 1.2.1 1.2l4.8 1.8" transform="scale(.03125 .02917)" fill="none" stroke-width=".1" stroke="#000"/><path d="M294.5 286c3.9-2.7 15-4.2 16.6-3.8-7.9 6.1-15.9 6.5-16.6 3.9zm0 0" transform="scale(.03125 .02917)" fill="#00e519" stroke-width=".1" stroke="#000"/><path d="M294.6 286c.6 2.7 8.6 2.3 16.5-3.8-5.4 2-10.9 3.3-16.5 3.9zm0 0" transform="scale(.03125 .02917)" fill="#ffe533" stroke-width=".1" stroke="#000"/><path d="M294.6 286c.6 2.7 8.6 2.3 16.5-3.8-5.4 2-10.9 3.3-16.5 3.9zm0 0" transform="scale(.03125 .02917)" fill="none" stroke-width=".1" stroke-linecap="round" stroke="#000"/><path d="M294.6 286a41.6 41.6 0 0116.6-4c-8 6.3-16 6.7-16.6 4zm0 0" transform="scale(.03125 .02917)" fill="none" stroke-width=".1" stroke="#000"/><path d="M340.8 222l-24.6 52.8c-1.2 1-2.3-.2-2.6-.2-1.5 1.7-3.6 2.1-4 2.5-1.9 2.5-.7 4.4-.6 4.6 1.3 1.8-1.5 3.4-1.4 4-.6 1-2.7 1-3.1 2.1a181 181 0 00-4.6 9.3c-.6.5-3.5 6.2-3.5 6.2-2.1 0-10.3-5-10.5-5 4.4-7.3 15.1-18.7 14.9-19.5 3-5.2 7.7-11 10-11 3-1.6 4.2-5.6 3.6-6.5 2.4-.1 3.5-1.5 3.7-1.6l18-37.8c1.6-.7 1.3 0 1.9 1 0 0 1-1.2.9-1.4.9-.4 1.7.2 1.9.6zm0 0" transform="scale(.03125 .02917)" fill="#a05a2c" stroke-width=".1" stroke="#000"/><path d="M340.8 222l-24.6 52.8c-1.2 1-2.3-.2-2.6-.2-1.5 1.7-3.6 2.1-4 2.5-1.9 2.5-.7 4.4-.6 4.6 1.3 1.8-1.5 3.4-1.4 4-.6 1-2.7 1-3.1 2.1a181 181 0 00-4.6 9.3c-.6.5-3.5 6.2-3.5 6.2-2.1 0-10.3-5-10.5-5 4.4-7.3 15.1-18.7 14.9-19.5 3-5.2 7.7-11 10-11 3-1.6 4.2-5.6 3.6-6.5 2.4-.1 3.5-1.5 3.7-1.6l18-37.8c1.6-.7 1.3 0 1.9 1 0 0 1-1.2.9-1.4.9-.4 1.7.2 1.9.6zm0 0" transform="scale(.03125 .02917)" fill="none" stroke-width=".1" stroke="#000"/><path d="M341.4 210.5c-.5 1.1.4 1.1.6 1.2l1 .4c1.3 0 2 .6 2 1l-28.8 61.7c-1.2 1-2.4-.2-2.8 0l19.7-42.2 9.6-19-2.8-1c-.8-.3-1-.9-.6-1.7l12-21.8-9.7 21-.2.4" transform="scale(.03125 .02917)" fill="#cce5e5" stroke-width=".1" stroke="#000"/><path d="M341.4 210.5c-.5 1.1.4 1.1.6 1.2l1 .4c1.3 0 2 .6 2 1l-28.8 61.7c-1.2 1-2.4-.2-2.8 0l19.7-42.2 9.6-19-2.8-1c-.8-.3-1-.9-.6-1.7l12-21.8-9.7 21-.2.4" transform="scale(.03125 .02917)" fill="#e7e7e7" stroke-width=".1" stroke="#000"/><path d="M303 275c-3-.2-4.6 2-2.6 4.6m1.4-2.4c-1 .6-1.8-.2-1.8-.2m15-13.4c-1.5 5.7-4.3 9.3-4.8 10.6-2 2.2-3.8 7.3-3.4 8.1l-7.8 13.4" transform="scale(.03125 .02917)" fill="none" stroke-width=".1" stroke="#000"/><path d="M316.1 275c-1.4-.4-5.9-4.5-10-3.7-3.4 4-5.1 7.8-5.7 8.3 2.4 2 5 3.8 7.7 5.3.6-.4 1-1.5 1-1.5.8-1-.2-1.7-.2-1.7 0-2.5 1.9-4.3 3.6-4.3 2.3-.3 1.6-.4 1.9-.4 1-.7 1.7-2 1.7-2zm0 0" transform="scale(.03125 .02917)" fill="#cce5e5" stroke-width=".1" stroke="#000"/><path d="M316.1 275c-1.4-.4-5.9-4.5-10-3.7-3.4 4-5.1 7.8-5.7 8.3 2.4 2 5 3.8 7.7 5.3.6-.4 1-1.5 1-1.5.8-1-.2-1.7-.2-1.7 0-2.5 1.9-4.3 3.6-4.3 2.3-.3 1.6-.4 1.9-.4 1-.7 1.7-2 1.7-2zm0 0" transform="scale(.03125 .02917)" fill="none" stroke-width=".1" stroke="#000"/><path d="M311.8 275c-2 0-4 1.2-4.7 2.8l4.6-2.7" transform="scale(.03125 .02917)" fill="#cce5e5" stroke-width=".1" stroke="#000"/><path d="M311.8 275c-2 0-4 1.2-4.7 2.8m-3.6.8c.3.4.8.6 1.3.4.4-.2.6-.6.4-1-.2-.5-.7-.6-1.2-.5s-.8.5-.5 1zm2.4-3.5c.2.4.9.7 1.4.5.4-.2.6-.6.4-1-.2-.4-.7-.7-1.2-.4-.5 0-.8.5-.6.9zm0 0" transform="scale(.03125 .02917)" fill="none" stroke-width=".1" stroke="#000"/><path d="M338.5 228c.8-.2 1.1-1.1.8-2l-4.8-1.5s-.5 0-1 .6c-.4.7.3 1.2.3 1.2l4.7 1.8" transform="scale(.03125 .02917)" fill="#cce5e5" stroke-width=".1" stroke="#000"/><path d="M338.5 228c.8-.2 1.1-1.1.8-2l-4.8-1.5s-.5 0-1 .6c-.4.7.3 1.2.3 1.2l4.7 1.8" transform="scale(.03125 .02917)" fill="none" stroke-width=".1" stroke="#000"/><path d="M340.6 283.3c-5.2-2.5-11-3.8-16.9-3.7 8 6 16.2 6.3 17 3.7zm0 0" transform="scale(.03125 .02917)" fill="#00e519" stroke-width=".1" stroke="#000"/><path d="M340.6 283.3c-.7 2.6-8.9 2.4-16.9-3.7a61.4 61.4 0 0017 3.7zm0 0" transform="scale(.03125 .02917)" fill="#ffe533" stroke-width=".1" stroke="#000"/><path d="M340.6 283.3c-.7 2.6-8.9 2.4-16.9-3.7a61.4 61.4 0 0017 3.7zm0 0" transform="scale(.03125 .02917)" fill="none" stroke-width=".1" stroke-linecap="round" stroke="#000"/><path d="M340.6 283.3c-4.2-3-15.9-4-16.9-3.7 8 6 16.2 6.3 17 3.7zm0 0" transform="scale(.03125 .02917)" fill="none" stroke-width=".1" stroke="#000"/><path d="M292.8 219.2l25.6 53c1.4 1 2.4-.3 2.7-.2 1.6 1.8 3.6 2.2 4.1 2.6 2 2.4 1 4.2.8 4.5-1.4 1.7 1.5 3.5 1.4 4.2.6.9 2.7.8 3.2 1.8l4.8 9.4c.7.5 3.7 6.2 3.7 6.2 2.1 0 10.3-5.3 10.5-5.3-4.6-7.2-15.7-18.6-15.4-19.2-3-5.3-8-11.2-10.2-11-3-1.6-4.5-5.6-4-6.6a5.3 5.3 0 01-3.8-1.6l-19-37.9c-1.4-.5-1.2.1-1.8 1l-.9-1.3c-.9-.5-1.8.2-1.8.4zm0 0" transform="scale(.03125 .02917)" fill="#a05a2c" stroke-width=".1" stroke="#000"/><path d="M291.8 207.9c.4.9-.3.9-.6 1.2l-1 .2c-1.3 0-2 .7-2 1l30.2 61.8c1.4 1.1 2.5-.2 3 0l-20.8-42.3-10-19 2.6-1c1-.3 1-.9.8-1.7l-12.8-22 10.3 21.4.3.4" transform="scale(.03125 .02917)" fill="#cce5e5" stroke-width=".1" stroke="#000"/><path d="M291.8 207.9c.4.9-.3.9-.6 1.2l-1 .2c-1.3 0-2 .7-2 1l30.2 61.8c1.4 1.1 2.5-.2 3 0l-20.8-42.3-10-19 2.6-1c1-.3 1-.9.8-1.7l-12.8-22 10.3 21.4.3.4" transform="scale(.03125 .02917)" fill="#e7e7e7" stroke-width=".1" stroke="#000"/><path d="M331.9 272.1c3 0 4.6 2 2.7 4.7m-1.4-2.2c1 .5 1.7-.4 1.7-.4M319.5 261c1.6 5.7 4.4 9.5 5 10.6a15 15 0 013.8 8.2l8 13.4" transform="scale(.03125 .02917)" fill="none" stroke-width=".1" stroke="#000"/><path d="M318.6 272.4c1.3-.4 5.6-4.5 10-3.7 3.4 3.7 5.4 7.6 6 8.1-4 3.4-6.7 5-7.7 5.5-.6-.4-1-1.5-1-1.5-.9-1 .2-1.8.2-1.8-.1-2.4-2-4.2-3.9-4.3-2.2-.1-1.4-.4-2-.4-1-.6-1.6-1.9-1.6-1.9zm0 0" transform="scale(.03125 .02917)" fill="#cce5e5" stroke-width=".1" stroke="#000"/><path d="M318.6 272.4c1.3-.4 5.6-4.5 10-3.7 3.4 3.7 5.4 7.6 6 8.1-4 3.4-6.7 5-7.7 5.5-.6-.4-1-1.5-1-1.5-.9-1 .2-1.8.2-1.8-.1-2.4-2-4.2-3.9-4.3-2.2-.1-1.4-.4-2-.4-1-.6-1.6-1.9-1.6-1.9zm0 0" transform="scale(.03125 .02917)" fill="none" stroke-width=".1" stroke="#000"/><path d="M323 272.5c2 0 4 1 4.8 2.7l-4.8-2.7" transform="scale(.03125 .02917)" fill="#cce5e5" stroke-width=".1" stroke="#000"/><path d="M323 272.5c2 0 4 1 4.8 2.7m3.6.6c-.3.5-.8.6-1.1.5-.3 0-.6-.1-.6-.4v-.5c0-.6.7-.7 1.2-.6s.7.6.5 1zm-2.5-3.4c-.1.4-.8.5-1.3.5-.4-.2-.7-.8-.5-1 .1-.6.6-.7 1.1-.6s1 .7.7 1.1zm0 0" transform="scale(.03125 .02917)" fill="none" stroke-width=".1" stroke="#000"/><path d="M295 225.4c-.4-.1-.8-.4-.9-.8s-.1-.8.1-1.2l4.8-1.7s.5 0 1 .6-.3 1.2-.3 1.2l-4.7 1.9" transform="scale(.03125 .02917)" fill="#cce5e5" stroke-width=".1" stroke="#000"/><path d="M295 225.4c-.4-.1-.8-.4-.9-.8s-.1-.8.1-1.2l4.8-1.7s.5 0 1 .6-.3 1.2-.3 1.2l-4.7 1.9" transform="scale(.03125 .02917)" fill="none" stroke-width=".1" stroke="#000"/><path d="M345.6 286a39.8 39.8 0 00-16.6-3.8c7.9 6.1 15.9 6.5 16.6 3.9zm0 0" transform="scale(.03125 .02917)" fill="#00e519" stroke-width=".1" stroke="#000"/><path d="M345.6 286c-.9 2.7-8.7 2.3-16.5-3.8a63.3 63.3 0 0016.5 3.9zm0 0" transform="scale(.03125 .02917)" fill="#ffe533" stroke-width=".1" stroke="#000"/><path d="M345.6 286c-.9 2.7-8.7 2.3-16.5-3.8a63.3 63.3 0 0016.5 3.9zm0 0" transform="scale(.03125 .02917)" fill="none" stroke-width=".1" stroke-linecap="round" stroke="#000"/><path d="M345.6 286a42.1 42.1 0 00-16.6-4c7.8 6.3 15.9 6.7 16.6 4zm0 0" transform="scale(.03125 .02917)" fill="none" stroke-width=".1" stroke="#000"/><path d="M299.5 222l24.4 52.8c1.4 1 2.4-.2 2.7-.2 1.5 1.7 3.6 2.1 4 2.5 1.6 2.5.6 4.4.6 4.6-1.4 1.7 1.6 3.4 1.4 4 .5 1 2.6 1 3 2.1.1-.1 4.1 8.4 4.6 9.3.7.5 3.6 6.2 3.6 6.2 2 0 10.3-5 10.4-5-4.3-7.4-15-18.7-15-19.5-2.8-5.2-7.6-11-9.7-11-3-1.6-4.3-5.6-3.8-6.5a5.5 5.5 0 01-3.6-1.6L304 222c-1.6-.7-1.4 0-2 .9 0 0-.9-1.2-.8-1.3-1-.4-1.8 0-1.8.5zm0 0" transform="scale(.03125 .02917)" fill="#a05a2c" stroke-width=".1" stroke="#000"/><path d="M299.5 222l24.4 52.8c1.4 1 2.4-.2 2.7-.2 1.5 1.7 3.6 2.1 4 2.5 1.6 2.5.6 4.4.6 4.6-1.4 1.7 1.6 3.4 1.4 4 .5 1 2.6 1 3 2.1.1-.1 4.1 8.4 4.6 9.3.7.5 3.6 6.2 3.6 6.2 2 0 10.3-5 10.4-5-4.3-7.4-15-18.7-15-19.5-2.8-5.2-7.6-11-9.7-11-3-1.6-4.3-5.6-3.8-6.5a5.5 5.5 0 01-3.6-1.6L304 222c-1.6-.7-1.4 0-2 .9 0 0-.9-1.2-.8-1.3-1-.4-1.8 0-1.8.5zm0 0" transform="scale(.03125 .02917)" fill="none" stroke-width=".1" stroke="#000"/><path d="M298.8 210.5c.4 1.1-.3 1.1-.6 1.2l-1 .4c-1.3 0-2 .6-2 1l28.7 61.7c1.4 1 2.5-.2 2.9 0L307 232.5l-9.6-19 2.7-1c.9-.4 1.1-.8.8-1.7L288.8 189l9.7 21.1.3.4" transform="scale(.03125 .02917)" fill="#cce5e5" stroke-width=".1" stroke="#000"/><path d="M298.8 210.5c.4 1.1-.3 1.1-.6 1.2l-1 .4c-1.3 0-2 .6-2 1l28.7 61.7c1.4 1 2.5-.2 2.9 0L307 232.5l-9.6-19 2.7-1c.9-.4 1.1-.8.8-1.7L288.8 189l9.7 21.1.3.4" transform="scale(.03125 .02917)" fill="#e7e7e7" stroke-width=".1" stroke="#000"/><path d="M337.3 275c3-.2 4.4 2 2.4 4.6m-1.3-2.4c1 .6 1.9-.2 1.9-.2m-15-13.4c1.3 5.7 4 9.3 4.6 10.6 2.1 2.2 3.9 7.3 3.5 8.1l7.9 13.4" transform="scale(.03125 .02917)" fill="none" stroke-width=".1" stroke="#000"/><path d="M324 275c1.4-.4 5.8-4.5 10.1-3.7 3.1 4 5.1 7.8 5.6 8.3-2.3 2-5 3.8-7.7 5.3-.6-.4-1-1.5-1-1.5-.8-1 .3-1.7.3-1.7 0-2.5-1.8-4.3-3.6-4.3-2.3-.3-1.6-.4-2-.4-1-.7-1.7-2-1.7-2zm0 0" transform="scale(.03125 .02917)" fill="#cce5e5" stroke-width=".1" stroke="#000"/><path d="M324 275c1.4-.4 5.8-4.5 10.1-3.7 3.1 4 5.1 7.8 5.6 8.3-2.3 2-5 3.8-7.7 5.3-.6-.4-1-1.5-1-1.5-.8-1 .3-1.7.3-1.7 0-2.5-1.8-4.3-3.6-4.3-2.3-.3-1.6-.4-2-.4-1-.7-1.7-2-1.7-2zm0 0" transform="scale(.03125 .02917)" fill="none" stroke-width=".1" stroke="#000"/><path d="M328.4 275c2 0 4 1.2 4.7 2.8l-4.7-2.7" transform="scale(.03125 .02917)" fill="#cce5e5" stroke-width=".1" stroke="#000"/><path d="M328.4 275c2 0 4 1.2 4.7 2.8m3.6.8c-.2.4-.7.5-1.2.4s-.8-.6-.6-1c.2-.5.9-.6 1.4-.5.3.1.6.5.4 1zm-2.4-3.5c-.3.4-.8.7-1.3.5-.5-.2-.8-.6-.5-1 .3-.4.8-.7 1.3-.4.4 0 .6.5.4.9zm0 0" transform="scale(.03125 .02917)" fill="none" stroke-width=".1" stroke="#000"/><path d="M301.6 228c-.9-.2-1-1.1-.7-2l4.7-1.5s.6 0 1 .6c.5.7-.2 1.2-.2 1.2l-4.8 1.8" transform="scale(.03125 .02917)" fill="#cce5e5" stroke-width=".1" stroke="#000"/><path d="M301.6 228c-.9-.2-1-1.1-.7-2l4.7-1.5s.6 0 1 .6c.5.7-.2 1.2-.2 1.2l-4.8 1.8" transform="scale(.03125 .02917)" fill="none" stroke-width=".1" stroke="#000"/><path d="M315.3 250.7l35.4-38-1.3-1-35.6 38c.4.5 1 .7 1.4 1zm0 0" transform="scale(.03125 .02917)" fill="#a05a2c" stroke-width=".1" stroke="#000"/><path d="M349.8 212.1c-1.2-.9-3.4-2.1-5-1.7-.6-2.1 2.4-4.4 3.8-4-.4 2.3 3.1 3.7 3.1 3.7zm0 0" transform="scale(.03125 .02917)" fill-rule="evenodd" fill="#e7e7e7" stroke-width=".1" stroke="#000"/><path d="M352.1 210.4c1 .8 1.4.8 2.8 1.6 1.4.7 3.2-1 4.1-1.7 0 0 1 3.4-1.1 5.6-2 2.3-4.6 2.8-6.5 2.1 0 0 2.6-2.5 1.5-3.6-1-1-1.4-1.2-2.5-1.9" transform="scale(.03125 .02917)" fill="#e7e7e7" stroke-width=".1" stroke="#000"/><path d="M-27.7-406.5h4l.2 2.2h-4.2zm0 0" transform="matrix(-.02116 .02146 -.02572 -.01656 0 0)" fill="#e7e7e7" stroke-width=".1" stroke="#000"/><path d="M308.3 290.4l-1 9 1.7-2.3c.3-.6 1.5-2 1.8-7.4 0 0-1-3-1.4-3-.6-.4-1.1 3.7-1.1 3.7zm2-20.3l-2.6 15.8c0 .6 1.3 1.6 2-1l1.6-10.6-1-4.2zm0 0" transform="scale(.03125 .02917)" fill-rule="evenodd" fill="#007934" stroke-width=".1" stroke="#000"/><path d="M315.9 284.6c-.5-.5-1-1.2-1.4-2l-.4 3s2 1.5 1.6 4.4l.6-.6v-1s.6-2 .6-3.1c0 0-.5-.2-1-.7zm0 0" transform="scale(.03125 .02917)" fill-rule="evenodd" fill="#d52b1e" stroke-width=".1" stroke="#000"/><path d="M307.3 299.5s3.3-3.1 3.4-9.8l.6-1.9s0 1.5.7.4c.6-1.5.6-2.8.6-2.8s1.1-1.6 1.6.3l-1.2 9.6c-.1.7-.1 1.4-.3 2 0 0-.7-1-1.4.2s-1.8 2.6-4 2zm4-25.2l-1.6 10.6s1.3.5 1.6 3c0 1.1.4.4.7.3.3-.8 0-2.3 0-2.3l.6-7.3s-1.2-3.4-1.4-4.3zm0 0" transform="scale(.03125 .02917)" fill-rule="evenodd" fill="#ffe000" stroke-width=".1" stroke="#000"/><path d="M310.1 298.8l-.2 2.5s1 0 1.7-1.2c.8-1 1-2.6 1-2.6s-.7-1.2-1.4 0c-.4.9-1 1.3-1 1.3zm1.8-10.6c.6-1 .9-2.7.7-2.8l-.7.5c.2 1.2 0 2.3 0 2.3zm0 0" transform="scale(.03125 .02917)" fill-rule="evenodd" fill="#ffe000" stroke-width=".1" stroke="#000"/><path d="M315.3 287.1c-.3-.6-.8-1.2-1.3-1.6l-1.5 12s-.4 3-2.3 3.8c0 0 1 10.4 4.6 7.5.3-.4 1-3.6.8-5.5l-.9-6c0-1.6.2-3.2.6-4.7l.4-2.6c.3-.2 0-1.8-.4-2.9zm0 0" transform="scale(.03125 .02917)" fill-rule="evenodd" fill="#d52b1e" stroke-width=".1" stroke="#000"/><path d="M316.9 285.3l1 1c.4 0-2.3 19.3-2.3 19.3s0-2-.7-6c-.6-3.2.2-7.5.9-9.6 0 0 .8-.4 1-4.7zm0 0" transform="scale(.03125 .02917)" fill-rule="evenodd" fill="#d52b1e" stroke-width=".1" stroke="#000"/><path d="M312.6 278.8l-.7 7.1s1.9-2.4 2.2-.2l.4-3.2s-1.5-2.5-2-3.7zm0 0" transform="scale(.03125 .02917)" fill-rule="evenodd" fill="#f7e214" stroke-width=".1" stroke="#000"/><path d="M311.3 287.8s-.6-6.1-3.6-1.9a6.4 6.4 0 000 3.1c0 .8 1 1.8 1.2 2.3.7 1 1.4-.1 1.4-.1s.6-1.1 1-3.4zm0 0" transform="scale(.03125 .02917)" fill-rule="evenodd" fill="#007934" stroke-width=".1" stroke="#000"/><path d="M287.8 237c0-3.6-1.2-9.3-1.3-13.3l-12-12.2s-1.4 9.9-5.8 15.5l19 10" transform="scale(.03125 .02917)" fill="#d52b1e" stroke-width=".1" stroke="#000"/><path d="M288.8 237.3c.4-2.4 1-5 1.4-10.2l-7.7-7.6c0 3.2-3.6 8-3.9 14" transform="scale(.03125 .02917)" fill="#ffe000" stroke-width=".1" stroke="#000"/><path d="M295.3 244.7c1-4.3-1.3-4.8 2-10.9l-7.2-6.7c-1.4 4-2.2 6.6-2 10l6 4.4" transform="scale(.03125 .02917)" fill="#007934" stroke-width=".1" stroke="#000"/><path d="M267.6 270c-1.5-4.2.5-12.7.1-18 0-3.6 2.6-16.7 2.6-20.6l-14.2-8.8s-.6 14.3-2.4 29.9c-1.3 8-1.3 15.4-.3 21.5 1.5 8.7 3 12.2 6.5 16 6.4 6.4 19.7 2.6 19.7 2.6 11.3-2.2 17.8-9.3 17.8-9.3s-3.6.8-9.6 1.3c-13-1-18.2 2.4-18.6-11" transform="scale(.03125 .02917)" fill="#d52b1e" stroke-width=".1" stroke="#000"/><path d="M305.4 278.8l.2-.1-5.9 1.9-8 .6c-17.2.5-15-10.3-14.3-27.5.1-6.6 1.4-14.8 1-17.7l-11.5-6.6c-3.8 10.6-2.6 18-3.3 23.5-.4 6-1.7 17.4.1 22.5 2.8 11.5 12 11 24.3 10 6.1-.5 9.4-2 9.4-2l8-4.6" transform="scale(.03125 .02917)" fill="#f7e214" stroke-width=".1" stroke="#000"/><path d="M305.6 278.4c-2 1-4 1.8-6 2.3l-8 .8c-12.5 1-19.9-7.8-18.2-27.6 0-7 .2-10.2 2.6-19.5l7 4v.7c-.5 2-1.5 7-1.5 9.2 0 16 10.1 28.3 23.9 30.3h.2" transform="scale(.03125 .02917)" fill="#007a3d" stroke-width=".1" stroke="#000"/><path d="M260 230.6c1 2 8 12.5 12 14.5m-11-7.6c1.3 2 9.8 14 13.6 14.6m-15.5 3.6c2 2.4 4 7 9.6 10m-7 3.4c4 3.6 13.7 11.5 23 11.9m-23-6c2 2.4 6.3 13.3 24 8.3m-26.6-6.3c1.1 2.6 10.1 17.2 26 11.6" transform="scale(.03125 .02917)" fill="none" stroke-width=".1" stroke="#000"/><path d="M277.8 264.8c-1.6-4.3.4-12.7.2-18.1-.1-3.5 1.5-15.5 1.5-19.6l-13.3-9.7s-.4 14.2-2.2 30a84.5 84.5 0 00-1.5 23.8c1.8 10 6.6 12.9 7.5 13.7 6.8 5.9 22 5.3 23.5 4.8 10.8-4 15.6-10.9 15.6-10.9s-5.2 0-11.1.6c-13-1-19.8-.4-20.1-13.8" transform="scale(.03125 .02917)" fill="#d52b1e" stroke-width=".1" stroke="#000"/><path d="M315.6 273.5h.1l-5.8 1.9-8 .5c-17.1.5-15-10.2-14.3-27.5.1-6.5.3-12.4 0-15.4l-10.4-7.5c-3.7 10.8-2.7 16.6-3.4 22.1-.4 6-1.7 17.4.2 22.4 2.8 11.7 11.8 11.3 24.3 10.2 6-.6 9.3-2.2 9.3-2.2l8-4.5" transform="scale(.03125 .02917)" fill="#ffe000" stroke-width=".1" stroke="#000"/><path d="M315.9 273.3c-2.4 1.3-6 2.2-6 2.2l-8 .8c-12.5 1-19.8-7.6-18.1-27.6 0-7-.4-7.5 2-16.9 4 2.4 11.2 8.7 11.2 8.7s-2 2.8-1.5 6.9c0 15.9 6.4 24 20.3 26l1.4-13" transform="scale(.03125 .02917)" fill="#007934" stroke-width=".1" stroke="#000"/><path d="M270.1 225.3c1.1 2 8.1 12.6 12 14.6m-10.9-7.7c1.3 2 9.8 14 13.6 14.8m-15.6 3.4c2 2.5 4 7.1 9.8 10m-7 3.4c4 3.7 13.6 11.6 23 12m-23-6c2 2.3 6.3 13.2 24 8.2m-26.8-6.3c1.3 2.7 10.2 17.3 26 11.7" transform="scale(.03125 .02917)" fill="none" stroke-width=".1" stroke="#000"/><path d="M256.3 224l-.8 6c-.3 4.4-.1 7.7.1 9.9 0 .1.9 5.5.7 5.7-1 1.1-1.2 1.2-2.3.4-.1-.2.5-5.6.5-6.3l.4-9.9c0-1 1-6.4 1-6.4s0-1.2.3.5" transform="scale(.03125 .02917)" fill="#e8a30e" stroke-width=".1" stroke="#000"/><path d="M256.3 224l-.8 6c-.3 4.4-.1 7.7.1 9.9l.7 5.7c-1 1.1-1.2 1.6-2.3.7-.1-.1.5-5.9.5-6.6l.4-9.9c0-1 1-6.4 1-6.4s0-1.2.3.5zm0 0" transform="scale(.03125 .02917)" fill="none" stroke-width=".1" stroke="#000"/><path d="M256 222.2s-1 6-1.3 9.6l-.2 8-.5 4.4c-.1.8.1.2 0 .2-.9.6-1.5.2-2-.2-.3-.2 1.4-4 1.4-4.6.8-10.9 2.3-17 2.3-17s-.4 3.7.4-.4" transform="scale(.03125 .02917)" fill="#f7e214" stroke-width=".1" stroke="#000"/><path d="M256 222.2s-1 6-1.3 9.6l-.2 8-.5 4.4c-.1.8.1.2 0 .2-.9.6-1.5.2-2-.2-.1-.2 1.4-4 1.5-4.6.8-10.9 2.3-17.1 2.3-17.1s-.6 3.8.3-.3zm-.4 17.3s-1 .4-1 .2m0-1.3s.7 0 .8-.1m0-1.1s-.7.3-.8 0m.8-1.6h-.7m.7-1.5h-.7m.6-2.1s-.3.1-.4 0m.5-1.8h-.5m-.5 9.5s-.9.2-1-.1m1.1-2s-.9.1-1-.1m1-1.2h-.8m1-1.7h-.7m.8-1.6h-.6m.7-1.4h-.7m.7-1.8s-.4.3-.4 0m0 9s-.9 0-.9-.3m12.8-19.8l-.6 6a63.8 63.8 0 000 9.8c0 .3 1 5.5.6 5.8-1 1.2-1.1 1.3-2.1.4-.2-.2.4-5.5.4-6.3l.4-9.8c0-1 1-6.6 1-6.6s0-1 .3.7" transform="scale(.03125 .02917)" fill="#e8a30e" stroke-width=".1" stroke="#000"/><path d="M266.4 218.7l-.6 6a63.8 63.8 0 000 9.8l.7 5.8c-1 1.2-1.3 1.6-2.3.6l.6-6.5.3-9.8c0-1 1-6.6 1-6.6s0-1 .3.7zm0 0" transform="scale(.03125 .02917)" fill="none" stroke-width=".1" stroke="#000"/><path d="M266.3 217s-1.2 6-1.3 9.5l-.3 8-.4 4.4v.3c-1 .5-1.6 0-2-.4-.3 0 1.3-3.8 1.3-4.6.4-5.6 1.3-11.3 2.4-16.8l.3-.4" transform="scale(.03125 .02917)" fill="#e8a30e" stroke-width=".1" stroke="#000"/><path d="M266.3 217s-1.2 6-1.3 9.5l-.3 8-.4 4.4v.3c-1 .5-1.6 0-2-.4-.3 0 1.3-3.8 1.3-4.6.9-10.7 2.4-16.8 2.4-16.8zm-.6 17.2s-1 .4-1 .2m0-1.2s.8 0 1-.3m0-1s-.7.5-1 0m.8-1.5h-.5m.6-1.7h-.6m.5-2s-.4 0-.4 0m.5-1.8h-.5m-.5 9.6s-.9.1-1-.3m1.1-1.8s-1 0-1-.2m1-1.3h-.7m.9-1.3h-.6m.6-1.8l-.5-.1m.7-1.4l-.6-.1m.6-1.6s-.4.3-.4 0m0 9s-1 0-1-.4" transform="scale(.03125 .02917)" fill="none" stroke-width=".1" stroke="#000"/><path d="M274.3 211.3s.4 5.1.2 8c-.3 3.6-.3 4.5-.6 6.6v4c.9.5 1.5 0 2 0 .4-.2-1-3.4-1-4.1.5-8.8-.4-14.3-.4-14.3l-.3-.2" transform="scale(.03125 .02917)" fill="#e8a30e" stroke-width=".1" stroke="#000"/><path d="M274.3 211.3s.4 5.1.2 8c-.3 3.6-.3 4.5-.6 6.6v3.8c0 .5-.1 0 0 .1.9.6 1.4.2 2 0 .2-.1-1-3.3-1-4 .5-9-.4-14.3-.4-14.3zM274 226s.9.2 1 0m-.8-1.7s1 .3 1 0m-1-1.2h1m-1-1.2h.8m-.5-1.4h.5m-.5-1.3h.5m-.4-1.5s.4.3.4 0m-1 7.5s1 0 1-.1" transform="scale(.03125 .02917)" fill="#e8a30e" stroke-width=".1" stroke="#000"/><path d="M306 221.7h.8zm0 0" transform="scale(.03125 .02917)" fill="none" stroke-width=".1" stroke="#000"/><path d="M316.8 256.3s-.4-.1-.6 0l.2.3zm-1 1.2h2" transform="scale(.03125 .02917)" fill-rule="evenodd" fill="#fff" stroke-width=".1" stroke="#000"/><path d="M292.3 284.2c-.3 3-7.6 6.6-12.8.1-5.8-4.5-4.5-11.4 0-12.3l54.8-53.3c2-1.2 2.3-2.3 3.4-3.5 2.3 2.4 7 6.9 9.6 9-1.6 1.2-3 2.5-3.2 3.5l-52 56.5zm0 0" transform="scale(.03125 .02917)" fill-rule="evenodd" fill="#e8a30e" stroke-width=".1" stroke="#000"/><path d="M337.8 215c2.6-3.5 12.8 5.8 10 8.7-2.6 2.8-12.4-5-10-8.6zm0 0" transform="scale(.03125 .02917)" fill-rule="evenodd" fill="#e7e7e7" stroke-width=".1" stroke-linejoin="round" stroke="#000"/><path d="M347 223c-2 1.5-9.3-4.8-8.1-7.2 2-2.2 10.1 5.7 8 7.2zm0 0" transform="scale(.03125 .02917)" fill-rule="evenodd" fill="#cccccf" stroke-width=".1" stroke="#000"/><path d="M344 228a15.7 15.7 0 01-9.9-9.2m-23 44.9c-5.6-1.6-10-6-11.4-11.6m9 14.3c-5.4-1.6-9.8-6-11.3-11.5m-2.1 25.7c-5.8-1.8-10.4-6-12.2-12m9.8 14.7a17.9 17.9 0 01-12.3-12.2" transform="scale(.03125 .02917)" fill="none" stroke-width=".1" stroke="#000"/><path d="M279.4 285c-.3 1.3-1 1.7-2.1 1.3m13.7-1.8c-2.1 3.4-4.5 2.2-6.5 2.4" transform="scale(.03125 .02917)" fill="none" stroke-width=".1" stroke-linecap="round" stroke="#000"/><path d="M276.4 285.1c0 1.1.9 1.6 1.7 1.6s1.6-.6 1.6-1.6c0-.9-.6-1.4-1.6-1.4s-1.7.9-1.7 1.8" transform="scale(.03125 .02917)" fill="#e8a30e" stroke-width=".1" stroke="#000"/><path d="M279.5 284.9c-.3 1.3-1 1.7-2 1.3m13.5-1.7c-2.1 3.4-4.5 2.2-6.5 2.4" transform="scale(.03125 .02917)" fill="none" stroke-width=".1" stroke-linecap="round" stroke="#000"/><path d="M331.8 290.4l1 9-1.8-2.3c-.3-.6-1.5-2-1.8-7.4 0 0 1-3 1.4-3 .6-.4 1.1 3.7 1.1 3.7zm-2.2-20.3l2.6 15.8c0 .6-1.2 1.6-2-1l-1.4-10.6 1-4.2zm0 0" transform="scale(.03125 .02917)" fill-rule="evenodd" fill="#007934" stroke-width=".1" stroke="#000"/><path d="M324.1 284.6l1.4-2 .4 3s-2 1.5-1.6 4.4l-.6-.6v-1s-.6-2-.6-3.1c0 0 .5-.2 1-.7zm0 0" transform="scale(.03125 .02917)" fill-rule="evenodd" fill="#d52b1e" stroke-width=".1" stroke="#000"/><path d="M332.8 299.5s-3.4-3.1-3.6-9.8l-.4-1.9s0 1.5-.8.4c-.6-1.5-.6-2.8-.6-2.8s-1.1-1.6-1.6.3l1.2 9.6.3 2s.7-1 1.4.2 1.8 2.6 4 2zm-4-25.2l1.4 10.6s-1.2.5-1.4 3c0 1.1-.6.4-.8.3-.3-.8 0-2.3 0-2.3l-.6-7.3s1.2-3.4 1.4-4.3zm0 0" transform="scale(.03125 .02917)" fill-rule="evenodd" fill="#ffe000" stroke-width=".1" stroke="#000"/><path d="M329.9 298.8l.2 2.5s-1 0-1.7-1.2c-.8-1-1-2.6-1-2.6s.7-1.2 1.4 0c.4.9 1 1.3 1 1.3zm-1.8-10.6a6 6 0 01-.7-2.8l.7.5a5.9 5.9 0 000 2.3zm0 0" transform="scale(.03125 .02917)" fill-rule="evenodd" fill="#ffe000" stroke-width=".1" stroke="#000"/><path d="M324.8 287.1c.3-.6.7-1 1.2-1.6l1.5 12s.4 3 2.3 3.8c0 0-1 10.4-4.6 7.5-.3-.4-1-3.6-.8-5.5l.9-6c0-1.6-.2-3.2-.6-4.7 0-.9-.3-1.7-.4-2.6-.3-.2 0-1.8.4-2.9zm0 0" transform="scale(.03125 .02917)" fill-rule="evenodd" fill="#d52b1e" stroke-width=".1" stroke="#000"/><path d="M323.1 285.3l-1 1c-.4 0 2.3 19.3 2.3 19.3s0-2 .7-6c.6-3.2-.2-7.5-.9-9.6 0 0-.8-.4-1-4.7zm0 0" transform="scale(.03125 .02917)" fill-rule="evenodd" fill="#d52b1e" stroke-width=".1" stroke="#000"/><path d="M327.4 278.8l.7 7.1s-1.9-2.4-2.2-.2l-.4-3.2s1.5-2.5 2-3.7zm0 0" transform="scale(.03125 .02917)" fill-rule="evenodd" fill="#f7e214" stroke-width=".1" stroke="#000"/><path d="M328.8 287.8s.4-6.1 3.4-1.9c0 0 .3 2.4 0 3.1 0 .8-.8 1.8-1 2.3-.8 1-1.4-.1-1.4-.1s-.7-1.1-1-3.4zm0 0" transform="scale(.03125 .02917)" fill-rule="evenodd" fill="#007934" stroke-width=".1" stroke="#000"/><path d="M352.3 237c0-3.6 1-9.3 1.2-13.3l12-12.2s1.4 9.9 5.8 15.5l-19 10" transform="scale(.03125 .02917)" fill="#d52b1e" stroke-width=".1" stroke="#000"/><path d="M351.3 237.3c-.6-2.4-1-5-1.6-10.2l7.8-7.6c0 3.2 3.6 8 3.9 14" transform="scale(.03125 .02917)" fill="#ffe000" stroke-width=".1" stroke="#000"/><path d="M344.8 244.7c-1-4.3 1.2-4.8-2-10.9l7-6.7c1.4 4 2.3 6.6 2 10l-6 4.4" transform="scale(.03125 .02917)" fill="#007934" stroke-width=".1" stroke="#000"/><path d="M372.4 270c1.5-4.2-.5-12.7-.1-18 0-3.6-2.6-16.7-2.6-20.6l14.2-8.8s.6 14.3 2.4 29.9c1.3 8 1.3 15.4.3 21.5-1.5 8.7-3 12.2-6.5 16-6.4 6.4-19.7 2.6-19.7 2.6-11.3-2.2-17.8-9.3-17.8-9.3s3.6.8 9.6 1.3c13-1 18.2 2.4 18.6-11" transform="scale(.03125 .02917)" fill="#d52b1e" stroke-width=".1" stroke="#000"/><path d="M334.6 278.8l-.2-.1 5.9 1.9 8 .6c17.2.5 15-10.3 14.3-27.5-.1-6.6-1.4-14.8-1-17.7l11.5-6.6c3.8 10.6 2.6 18 3.3 23.5.4 6 1.7 17.4-.1 22.5-2.8 11.5-12 11-24.3 10-6.1-.5-9.4-2-9.4-2l-8-4.6" transform="scale(.03125 .02917)" fill="#f7e214" stroke-width=".1" stroke="#000"/><path d="M334.4 278.4c2 1 4 1.8 6 2.3l8 .8c12.5 1 19.9-7.8 18.2-27.6 0-7-.2-10.2-2.6-19.5l-7 4v.7c.5 2 1.5 7 1.5 9.2 0 16-10.1 28.3-23.9 30.3h-.2" transform="scale(.03125 .02917)" fill="#007a3d" stroke-width=".1" stroke="#000"/><path d="M380 230.6c-1 2-8 12.5-12 14.5m11-7.6c-1.3 2-9.8 14-13.6 14.6m15.5 3.6c-2 2.4-4 7-9.6 10m7 3.4c-4 3.6-13.7 11.5-23 11.9m23-6c-2 2.4-6.3 13.3-24 8.3m26.6-6.3c-1.1 2.6-10.1 17.2-26 11.6" transform="scale(.03125 .02917)" fill="none" stroke-width=".1" stroke="#000"/><path d="M362.3 264.8c1.4-4.3-.6-12.7-.4-18.1.2-3.5-1.4-15.5-1.4-19.6l13.3-9.7s.4 14.2 2.2 30a84.5 84.5 0 011.5 23.8c-1.8 10-6.6 12.9-7.5 13.7-6.8 5.9-22 5.3-23.5 4.8-10.8-4-15.6-10.9-15.6-10.9s5.2 0 11.1.6c13-1 19.8-.4 20.1-13.8" transform="scale(.03125 .02917)" fill="#d52b1e" stroke-width=".1" stroke="#000"/><path d="M324.4 273.5h-.1l5.8 1.9 8 .5c17.1.5 15-10.2 14.3-27.5-.1-6.5-.3-12.4 0-15.4l10.4-7.5c3.7 10.8 2.7 16.6 3.4 22.1.4 6 1.7 17.4-.2 22.4-2.8 11.7-11.8 11.3-24.3 10.2-6-.6-9.3-2.2-9.3-2.2l-8-4.5" transform="scale(.03125 .02917)" fill="#ffe000" stroke-width=".1" stroke="#000"/><path d="M324.1 273.3c1.9 1 3.9 1.7 6 2.2l8 .8c12.5 1 19.8-7.6 18.1-27.6 0-7 .4-7.5-2-16.9-4 2.4-11.2 8.7-11.2 8.7s2 2.8 1.5 6.9c0 15.9-6.4 24-20.3 26l-1.4-13" transform="scale(.03125 .02917)" fill="#007934" stroke-width=".1" stroke="#000"/><path d="M369.9 225.3c-1.1 2-8.1 12.6-12 14.6m10.9-7.7c-1.3 2-9.8 14-13.6 14.8m15.6 3.4c-2 2.5-4 7.1-9.8 10m7 3.4c-4 3.7-13.6 11.6-23 12m23-6c-2 2.3-6.3 13.2-24 8.2m26.8-6.3c-1.3 2.7-10.2 17.3-26 11.7" transform="scale(.03125 .02917)" fill="none" stroke-width=".1" stroke="#000"/><path d="M383.8 224l.7 6c.3 4.4.1 7.7-.1 9.9 0 .1-.8 5.5-.6 5.7 1 1.1 1 1.2 2.2.4.1-.2-.5-5.6-.5-6.3l-.4-9.9c0-1-1-6.4-1-6.4s0-1.2-.4.5" transform="scale(.03125 .02917)" fill="#f7e214" stroke-width=".1" stroke="#000"/><path d="M383.8 224l.7 6c.3 4.4.1 7.7-.1 9.9l-.6 5.7c1 1.1 1 1.6 2.2.7.1-.1-.5-5.9-.5-6.6l-.4-9.9c0-1-1-6.4-1-6.4s0-1.2-.4.5zm0 0" transform="scale(.03125 .02917)" fill="#e8a30e" stroke-width=".1" stroke="#000"/><path d="M384 222.2s1 6 1.3 9.6l.2 8 .5 4.4c.1.8 0 .2 0 .2.9.6 1.5.2 2-.2.3-.2-1.4-4-1.4-4.6-.9-10.9-2.4-17-2.4-17s.6 3.7-.3-.4" transform="scale(.03125 .02917)" fill="#f7e214" stroke-width=".1" stroke="#000"/><path d="M384 222.2s1 6 1.3 9.6l.2 8 .5 4.4c.1.8-.1.2 0 .2.9.6 1.5.2 2-.2.3-.2-1.4-4-1.4-4.6-.9-10.9-2.4-17.1-2.4-17.1s.6 3.8-.3-.3zm.4 17.3s1 .4 1 .2m0-1.3s-.6 0-.8-.1m0-1.1s.6.3.8 0m-.6-1.6h.4m-.6-1.5h.6m-.4-2.1s.3.1.3 0m-.5-1.8h.5m.5 9.5s.9.2 1-.1m-1.1-2s.9.1 1-.1m-1-1.2h.8m-1-1.7h.7m-.8-1.6h.6m-.7-1.4h.6m-.6-1.8s.4.3.4 0m0 9s.9 0 .9-.3" transform="scale(.03125 .02917)" fill="#e8a30e" stroke-width=".1" stroke="#000"/><path d="M373.6 218.7l.6 6c.3 3.2.3 6.6 0 9.8 0 .3-.8 5.5-.6 5.8 1 1.2 1.1 1.3 2.1.4.2-.2-.4-5.5-.4-6.3l-.4-9.8c0-1-1-6.6-1-6.6s0-1-.3.7" transform="scale(.03125 .02917)" fill="#f7e214" stroke-width=".1" stroke="#000"/><path d="M373.6 218.7l.6 6c.3 3.2.3 6.6 0 9.8l-.7 5.8c1 1.2 1.3 1.6 2.3.6l-.6-6.5-.3-9.8c0-1-1-6.6-1-6.6s0-1-.3.7zm0 0" transform="scale(.03125 .02917)" fill="#e8a30e" stroke-width=".1" stroke="#000"/><path d="M373.8 217s1 6 1.2 9.5l.3 8 .4 4.4v.3c1 .5 1.6 0 2-.4.3 0-1.3-3.8-1.3-4.6-.4-5.6-1.3-11.3-2.4-16.8l-.3-.4" transform="scale(.03125 .02917)" fill="#f7e214" stroke-width=".1" stroke="#000"/><path d="M373.8 217s1 6 1.2 9.5l.3 8 .4 4.4v.3c1 .5 1.6 0 2-.4.3 0-1.3-3.8-1.3-4.6-.9-10.7-2.4-16.8-2.4-16.8zm.4 17.2s1 .4 1 .2m0-1.2s-.7 0-.8-.3m0-1s.6.5.9 0m-.8-1.5h.5m-.6-1.7h.6m-.5-2s.4 0 .4 0m-.5-1.8h.5m.5 9.6s.9.1 1-.3m-1.1-1.8s1 0 1-.2m-1-1.3h.7m-.9-1.3h.6m-.6-1.8l.5-.1m-.7-1.4l.6-.1m-.6-1.6s.4.3.4 0m0 9s1 0 1-.4m-10.6-22s-.4 5.2-.2 8c.3 3.7.3 4.6.6 6.7v4c-.9.5-1.4 0-2 0-.2-.2 1-3.4 1-4.1-.5-8.8.4-14.3.4-14.3l.3-.2" transform="scale(.03125 .02917)" fill="#e8a30e" stroke-width=".1" stroke="#000"/><path d="M365.8 211.3s-.6 5.1-.3 8c.3 3.6.3 4.5.6 6.6v3.8c0 .5.1 0 0 .1-.9.6-1.4.2-2 0-.2-.1 1-3.3 1-4-.5-9 .4-14.3.4-14.3zm.2 14.6s-.9.2-1 0m.8-1.7s-1 .3-1 0m1-1.2h-1m1-1.2h-.8m.5-1.4h-.5m.5-1.3h-.5m.4-1.5s-.4.3-.4 0m1 7.5s-1 0-1-.1" transform="scale(.03125 .02917)" fill="#e8a30e" stroke-width=".1" stroke="#000"/><path d="M334 221.7h-.8zm0 0" transform="scale(.03125 .02917)" fill="none" stroke-width=".1" stroke="#000"/><path d="M323.3 256.3s.3-.1.4 0v.3zm1 1.2h-2" transform="scale(.03125 .02917)" fill-rule="evenodd" fill="#fff" stroke-width=".1" stroke="#000"/><path d="M291.8 215.5c0-2.2 2-3.4 2-3.6 1-.6 1.8-1.2 3.8-1.5l.1 1c0 .2-.4 1.5-2 2.6-1.2.8-2.6 1.2-4 1.5zm0 0" transform="scale(.03125 .02917)" fill="#d52b1e" stroke-width=".1" stroke="#000"/><path d="M291.6 214.7l29.6 38.4 1.6-1.3-30.3-39.1zm0 0" transform="scale(.03125 .02917)" fill-rule="evenodd" fill="#a05a2c" stroke-width=".1" stroke="#000"/><path d="M291.3 207.2s3-.4 2.7-2.2c-.5-1.8-2.6-1.8-3.5-2-1 0-4 .8-4.8 1.6-1 1-2.7 2.5-2 5s1.2 4.4 2.2 6c.9 1.6.7 3.2.4 4 0 .2-.4 1.2.4 1.5 1.2.6 1.6.6 2.6-.7 1-1 2.4-2.9 2.4-5 0-2 2-3.3 2.2-3.5 1-.6 1.7-1.2 3.7-1.5 0 0-.7-1.2-1.9-1-1 0-3.3-1-4.4-2.2zm0 0" transform="scale(.03125 .02917)" fill="#d52b1e" stroke-width=".1" stroke="#000"/><path d="M291.3 207.2s3-.4 2.7-2.2c-.5-1.8-2.6-1.8-3.5-2-1 0-4 .8-4.8 1.6-1 1-2.7 2.5-2 5s1.2 4.4 2.2 6c.9 1.6.7 3.2.4 4 0 .2-.4 1.2.4 1.5 1.2.6 1.6.6 2.6-.7 1-1 2.4-2.9 2.4-5 0-2 2-3.3 2.2-3.5 1-.6 1.7-1.2 3.7-1.5 0 0-.7-1.2-1.9-1-1 0-3.3-1-4.4-2.2zm0 0" transform="scale(.03125 .02917)" fill="none" stroke-width=".1" stroke="#000"/><path d="M291.3 207.2c-.6 0-1.8-.5-2.7-.3-.9.4-2.7 1.4-2.4 3m10.4-.3s-1.9.8-3.1 1.7c-.6.3-2.4 2-3.5 3.3-1 .9-1.3 2.4-3.5 3.8m9-9l-1.4 1c-.7.3-.9 1-1.2 1.3" transform="scale(.03125 .02917)" fill="none" stroke-width=".1" stroke="#000"/><path d="M347.8 284.2c.2 3 7.4 6.6 12.7.1 5.8-4.5 4.5-11.4 0-12.3l-54.8-53.3c-2-1.2-2.3-2.3-3.4-3.5-3 3.1-6.3 6.2-9.6 9 1.3 1 2.4 2.1 3.2 3.5zm0 0" transform="scale(.03125 .02917)" fill-rule="evenodd" fill="#e8a30e" stroke-width=".1" stroke="#000"/><path d="M302.3 215c-2.7-3.5-13 5.8-10 8.7 2.4 2.8 12.3-5 10-8.6zm0 0" transform="scale(.03125 .02917)" fill-rule="evenodd" fill="#e7e7e7" stroke-width=".1" stroke-linejoin="round" stroke="#000"/><path d="M293 223c2 1.5 9.3-4.8 8.1-7.2-2-2.2-10.1 5.7-8 7.2zm0 0" transform="scale(.03125 .02917)" fill-rule="evenodd" fill="#cccccf" stroke-width=".1" stroke="#000"/><path d="M296 228c4.5-1.5 8.1-4.7 9.9-9.2m23 44.9a16 16 0 0011.4-11.6m-9 14.3c5.6-1.8 9.6-5.5 11.3-11.5m2.1 25.7c5.8-1.8 10.4-6 12.2-12m-9.8 14.7a17.9 17.9 0 0012.3-12.2" transform="scale(.03125 .02917)" fill="none" stroke-width=".1" stroke="#000"/><path d="M360.6 285c.3 1.3 1 1.7 2.1 1.3m-13.7-1.8c2.1 3.4 4.5 2.2 6.5 2.4" transform="scale(.03125 .02917)" fill="none" stroke-width=".1" stroke-linecap="round" stroke="#000"/><path d="M363.6 285.1c0 1.1-.9 1.6-1.7 1.6s-1.6-.6-1.6-1.6c0-.9.6-1.4 1.6-1.4s1.7.9 1.7 1.8" transform="scale(.03125 .02917)" fill="#e8a30e" stroke-width=".1" stroke="#000"/><path d="M360.5 284.9c.3 1.3 1 1.7 2 1.3m-13.5-1.7c2.1 3.4 4.5 2.2 6.5 2.4" transform="scale(.03125 .02917)" fill="none" stroke-width=".1" stroke-linecap="round" stroke="#000"/><path d="M339.6 175.4c1.8 3 4.4 8 5.1 12.1a22 22 0 01-7 20.8c-5 4.6-13.2 6-16.6 6.8-3.4.7-5.7 1.9-6.4 2.5 0-.5 0-1 .6-1.6 1.6-.6 4-1 7.8-1.8 7.1-1.5 14.8-4.2 19-12.2 5.4-10.3 2.1-18.4-2.5-26.4zm0 0" transform="scale(.03125 .02917)" fill-rule="evenodd" fill="#007934" stroke-width=".1" stroke="#000"/><path d="M341.6 206.3c-.2 0-.6.2-.7 0-.3-.2-.1-.5.1-.7s.6-.3.8-.2 0 .6-.2.8zm0 0" transform="scale(.03125 .02917)" fill="#d52b1e" stroke-width=".1" stroke="#000"/><path d="M346.6 205c-1.1.6-2.2.7-3 1l-3.7 1.5c-.8.2-1.6 1.2-1.6 1.2s1.2 1.3 2.6 1.2c1.2-.2 1.7-.4 2.4-.8.4-.3.4-.6 1.3-1.2 1-.7 1.6-2 2-3zm-5.7 1.1c-.3.6-1.1.6-1.6.6h-.2c.6 0 1.5 0 2-.5zm0 0" transform="scale(.03125 .02917)" fill-rule="evenodd" fill="#007934" stroke-width=".1" stroke="#000"/><path d="M346.6 205c-1 1-2.9 2-4.7 2.9-1.6.5-3.3.9-5 .9l-.1.3c1.3 0 3.3-.4 5-1.1 1.7-.7 3.3-1.8 4.8-3zm-2.4 4.6c-2-.1-3 .5-4.8 1-1.6.3-3.6-.6-4.8 1 4.4 3 7.6 1 9.6-2zm0 0" transform="scale(.03125 .02917)" fill-rule="evenodd" fill="#007934" stroke-width=".1" stroke="#000"/><path d="M340.3 213.6c-1-.8-8-3.2-9.3-.5 1.8 2 6.8 2.4 9.3.5zm0 0" transform="scale(.03125 .02917)" fill-rule="evenodd" fill="#007934" stroke-width=".1" stroke="#000"/><path d="M338.5 215.5l-2.5-.4c-1-.1-1.3-.3-1.9-.4-1-.1-2.4-1.6-6-.5 1.4 3.4 6.4 4 10.4 1.3zm1.6-1.9c-3.9.8-8.4 0-10.1-1l-.3.2c3.3 1.4 7 1.6 10.4.8zm4-4c-2.2 1.5-5.2 2.5-11.4 1.7v.3c8.6.7 9.3-.8 11.4-2zm0 0" transform="scale(.03125 .02917)" fill-rule="evenodd" fill="#007934" stroke-width=".1" stroke="#000"/><path d="M338.5 215.5c-3 .1-4.8 1.5-10.3-1.3l-1.4-.6-.6.2 1.6.4c7 3 6.7 1.6 10.7 1.3zm0 0" transform="scale(.03125 .02917)" fill-rule="evenodd" fill="#007934" stroke-width=".1" stroke="#000"/><path d="M327.3 211.6c-.3.1-.4.4-.3.7.1.1.4.1.8 0 .2-.2.3-.4.2-.6-.1-.2-.4-.2-.8 0zm0 0" transform="scale(.03125 .02917)" fill="#d52b1e" stroke-width=".1" stroke="#000"/><path d="M327.1 212.3c-.6.1-.9 1-.9 1.3l-.3.1c.2-.5.4-1.3 1.2-1.6zm0 0" transform="scale(.03125 .02917)" fill-rule="evenodd" fill="#007934" stroke-width=".1" stroke="#000"/><path d="M346 186.8c-.1.4-.4.7-.6.7-.4-.1-.5-.5-.4-1 .1-.3.4-.6.6-.6.4.1.5.5.4 1zm0 0" transform="scale(.03125 .02917)" fill="#d52b1e" stroke-width=".1" stroke="#000"/><path d="M341.6 203.2c-.1-2-1.1.8-3.2-4-.6-1.3-.6-2-1-4.2 1.2 1.7 3 2.3 3.9 3.6.6 1.4.4 3.5.3 4.6zm0 0" transform="scale(.03125 .02917)" fill-rule="evenodd" fill="#007934" stroke-width=".1" stroke="#000"/><path d="M337.5 195.1s1 2.4 2.4 4c1 1.1 1.5 2.5 1.9 3.8" transform="scale(.03125 .02917)" fill-rule="evenodd" fill="#007934" stroke-width=".1" stroke="#000"/><path d="M338.5 197.1c1.3 1.8 3 4 3 6h.3c-.3-2.7-2-4-3-5.6zm10.8 2.9c-1 .6-2 .9-2.7 1.3l-1.4 1c-.4 0-1 0-1.4.3l-2 2s1.3 1.2 2 1.1c2.4-.5 3-1.5 4.3-2.3 1-.8 1-2.5 1.1-3.4zm0 0" transform="scale(.03125 .02917)" fill-rule="evenodd" fill="#007934" stroke-width=".1" stroke="#000"/><path d="M340.8 204.8l-.3.4c1.3-.2 3.5-1.5 5-2.2 1.8-1 3-1.7 3.8-3a9.5 9.5 0 01-4 3c-1.6.7-3.7 2-4.6 1.8zm9.3-9.5c-.9.9-1.7 1.3-2.4 1.8l-1.3 1.1-1.1.8c-.7.6-1.6 2.2-1.6 2.2s.7.8 1.4.4c2.4-.3 3.1-1.4 4-3.5.5-1 1-1.8 1-2.8zm0 0" transform="scale(.03125 .02917)" fill-rule="evenodd" fill="#007934" stroke-width=".1" stroke="#000"/><path d="M341.5 199.4c.1.3.5.6.6.4.3-.1.4-.4.1-.6 0-.4-.3-.6-.6-.6-.2.2-.2.4-.1.8zm0 0" transform="scale(.03125 .02917)" fill="#d52b1e" stroke-width=".1" stroke="#000"/><path d="M342.5 201.6l-.3.4c3-1.4 6.7-4 8-6.6-2 2.8-4.6 5-7.7 6.2zm8.3-10.8c-.7 1.1-1.6 1.5-2.2 2l-1 1.3-1.2.8c-.5.6-1.1 2.2-1.1 2.2s.7.8 1.4.4c.8-.4 1.4-.9 2-1.6.6-.4.7-1.3 1.3-2.1.8-1 .8-1.9.8-3zm0 0" transform="scale(.03125 .02917)" fill-rule="evenodd" fill="#007934" stroke-width=".1" stroke="#000"/><path d="M348.8 193.8c-1.6 1.6-3 3-4.7 3.7l-.2.4c2.6-1.4 3.7-2.8 4.9-4zm1-5.6c-.6 1-1 1.4-1.7 2l-.9 1.2-1 1-.6 2s.6.6 1.1.2c.8-.5 1.3-1 2-1.6l1-2.2a4 4 0 000-2.6zm-4.4-1.1l-.5 1.6v-.4c0-.4.2-1 .4-1.3zm0 0" transform="scale(.03125 .02917)" fill-rule="evenodd" fill="#007934" stroke-width=".1" stroke="#000"/><path d="M348.4 191a14 14 0 01-3.8 4v.3c2.1-1.6 3-3 3.8-4.2zm-5.6 10a4 4 0 00-.6-1.4c.2.5.4 1 .4 1.6l.1-.3zm0 0" transform="scale(.03125 .02917)" fill-rule="evenodd" fill="#007934" stroke-width=".1" stroke="#000"/><path d="M341.9 181.3c.2.2.2.4.1.6s-.4.1-.6-.2c-.1 0-.3-.4-.1-.5.2-.1.4-.1.6.1zm0 0" transform="scale(.03125 .02917)" fill="#d52b1e" stroke-width=".1" stroke="#000"/><path d="M343.1 182.5l-1.2-.8 1.4 1v-.2zm5.6.4c-1.2 2.5-4 4-2.8 7.5 2.9 2.6 3-4.5 2.9-7.5zm0 0" transform="scale(.03125 .02917)" fill-rule="evenodd" fill="#007934" stroke-width=".1" stroke="#000"/><path d="M346.1 177.7c-.5 2.4-2.6 4.4-1.2 7.7 4 .9 2-4.5 1.2-7.7zm0 0" transform="scale(.03125 .02917)" fill-rule="evenodd" fill="#007934" stroke-width=".1" stroke="#000"/><path d="M343.8 174c2 3.7 2.4 5.9 0 8.3 0 0-1.2-1-1.6-3.2 0-2 1.3-4 1.6-5.1zm0 0" transform="scale(.03125 .02917)" fill-rule="evenodd" fill="#007934" stroke-width=".1" stroke="#000"/><path d="M340.4 171.8c.5 2.4-1.5 3.5 1.4 6.5 2-2.5 1-3-1.4-6.5zm0 0" transform="scale(.03125 .02917)" fill-rule="evenodd" fill="#007934" stroke-width=".1" stroke="#000"/><path d="M339.6 176c-3.4.2-2-2.6-3-5.2 2 1.4 4.6 2 3 5.2zm2.1 4.4c-1-4.4-4-2.5-5.4-4.6.8 2.9 2 4.7 5.4 4.6zm1.6 4.2a7 7 0 01-6.3-4.5c2.8 1.2 5.8 1.4 6.3 4.5zm0 0" transform="scale(.03125 .02917)" fill-rule="evenodd" fill="#007934" stroke-width=".1" stroke="#000"/><path d="M343.6 188.3c-1-1.2-1-2-1.5-2.7a9.5 9.5 0 00-3-3.7c0 3 .4 6.5 4.5 6.4zm0 0" transform="scale(.03125 .02917)" fill-rule="evenodd" fill="#007934" stroke-width=".1" stroke="#000"/><path d="M344.3 191.7a19.9 19.9 0 00-5.7-5.8c1 2.1.6 6.3 5.6 5.8zm0 0" transform="scale(.03125 .02917)" fill-rule="evenodd" fill="#007934" stroke-width=".1" stroke="#000"/><path d="M343.8 196c-5 0-4.6-4.8-4.6-7l2.8 3.5c.9 1 1.8 2.2 1.8 3.4zm0 0" transform="scale(.03125 .02917)" fill-rule="evenodd" fill="#007934" stroke-width=".1" stroke="#000"/><path d="M343.1 198.8c-.4-1 0-1.4-1-2.3s-2.9-2.7-3.7-4.6c-.1 1.8-.1 4.4 1.2 5.2 1 .8 2 1 3.5 1.7zm-4.4 7.3c-3.8-3-1.4-5.6-1-7.9 1 2.6 3.6 4.8 1 8zm1.7-29.2c-1.3-2.3-2-3.6-3.6-6 2 2.7 2.7 4.5 3.8 6.4" transform="scale(.03125 .02917)" fill-rule="evenodd" fill="#007934" stroke-width=".1" stroke="#000"/><path d="M338.9 206.8c.1-3-.6-5.6-1.3-8.5.5 3 1.3 6 1 8.8zm4.6-7.4c-.4-1.9-4.1-3-5-7.5.8 4.4 4.5 5.5 4.8 8zm.8-2.5v.5c-.7-3-4-4.4-5-8.4 1.4 4.3 4.2 5 5 7.9zm.7-4.4c-1.8-2.6-4.1-3.7-6.4-6.7 2.1 3 4.8 4.4 6.4 7zm0-3.5c-2-.8-3.9-3-6-7.1 1.4 3 3 5.7 6 7.6zm-1-4c-2.1-1.7-5-2.9-7-4.9 1.8 2 5 3.2 7.1 5.3v-.4zm-1.6-4.3c-2.1-1.5-4.4-2-6.1-4.9 1.4 2.9 3.7 3.7 6.2 5.1zm6.4 2.2c-1 3.1-1.6 6.3-3.7 8.4v-.5c1-.4 2.5-3.6 3.6-7.9zm-2.7-5c-.1 3 0 6.4-1.7 8.3l-.1-.4c1.6-1.4 1.4-5 1.8-8zm-2.2-3.7c.5 2.9.6 5.3-.1 9.6l-.2-.5c.4-2.4 1-5 .3-9zm-3.4-2.2c1.1 2.2 2 4.7 1.3 7.3l-.3-.2c.9-2.4-.1-4.9-1-7.1zm-4.4 31c1.4 3.3-.4 5.7-2.5 7.1-1.6-4.7 1.8-4.3 2.5-7zm0 0" transform="scale(.03125 .02917)" fill-rule="evenodd" fill="#007934" stroke-width=".1" stroke="#000"/><path d="M336.3 203c0 2-2 4.3-2.7 7.7l-.4.2c1-4 3-5.6 3-7.9zm0 0" transform="scale(.03125 .02917)" fill-rule="evenodd" fill="#007934" stroke-width=".1" stroke="#000"/><path d="M343.8 181.2l-.4.4c-.1-.1-.3-.3-.3-.5s.1-.4.4-.3c.1 0 .3.1.3.4zm0 0" transform="scale(.03125 .02917)" fill="#d52b1e" stroke-width=".1" stroke="#000"/><path d="M343.5 183v-1.7h-.3v1.8zm0 0" transform="scale(.03125 .02917)" fill-rule="evenodd" fill="#007934" stroke-width=".1" stroke="#000"/><path d="M342.8 181s0 .2-.2.2l-.4-.1.3-.3.3.1zm0 0" transform="scale(.03125 .02917)" fill="#d52b1e" stroke-width=".1" stroke="#000"/><path d="M343.3 182.3l-.6-1.1.4 1.3v0zm0 0" transform="scale(.03125 .02917)" fill-rule="evenodd" fill="#007934" stroke-width=".1" stroke="#000"/><path d="M344.8 187c0 .1-.2.4-.4.4l-.4-.4c0-.3.1-.6.4-.6l.4.6zm0 0" transform="scale(.03125 .02917)" fill="#d52b1e" stroke-width=".1" stroke="#000"/><path d="M344.9 188.6l-.4-1.4h-.1l.4 1.6v-.2zm0 0" transform="scale(.03125 .02917)" fill-rule="evenodd" fill="#007934" stroke-width=".1" stroke="#000"/><path d="M343.6 187.2v.6c0 .2-.4.1-.5-.2-.2-.1-.2-.4-.1-.5.3-.1.4-.1.6.1zm0 0" transform="scale(.03125 .02917)" fill="#d52b1e" stroke-width=".1" stroke="#000"/><path d="M344.8 188.6a7 7 0 00-1.2-1l1.3 1.2zm0 0" transform="scale(.03125 .02917)" fill-rule="evenodd" fill="#007934" stroke-width=".1" stroke="#000"/><path d="M343.4 199.2c0 .2-.3.4-.5.2-.1 0-.3-.2-.1-.5 0-.3.2-.4.3-.4.3.1.4.4.3.7zm0 0" transform="scale(.03125 .02917)" fill="#d52b1e" stroke-width=".1" stroke="#000"/><path d="M342.8 200.8c.2-.4.2-1 .2-1.5l-.4 1.7zm0 0" transform="scale(.03125 .02917)" fill-rule="evenodd" fill="#007934" stroke-width=".1" stroke="#000"/><path d="M344 200c-.1 0-.1.4 0 .4a.4.4 0 00.5 0v-.6c-.1-.1-.4-.1-.5.2zm0 0" transform="scale(.03125 .02917)" fill="#d52b1e" stroke-width=".1" stroke="#000"/><path d="M342.8 201l1.2-.8v.2c-.5.2-.9.5-1.3.9zm0 0" transform="scale(.03125 .02917)" fill-rule="evenodd" fill="#007934" stroke-width=".1" stroke="#000"/><path d="M340.8 205c-.3.2-.6.2-.7 0-.1-.2 0-.5.1-.6.3-.2.6-.2.6 0v.5zm0 0" transform="scale(.03125 .02917)" fill="#d52b1e" stroke-width=".1" stroke="#000"/><path d="M339.5 206.3l.9-1.4h-.1l-1 1.3zm0 0" transform="scale(.03125 .02917)" fill-rule="evenodd" fill="#007934" stroke-width=".1" stroke="#000"/><path d="M338.8 204.5c0 .3.2.7.4.7s.6-.3.6-.6c0-.2 0-.5-.2-.6h-.5c-.2.1-.4.4-.4.6zm0 0" transform="scale(.03125 .02917)" fill="#d52b1e" stroke-width=".1" stroke="#000"/><path d="M339.4 205c-.3.7 0 1 0 1.2l-.1.3c-.2-.4-.3-.8 0-1.5zm-12.1 9.6c-.7 0-1-.4-1.3-.9h-.3c.4.5.8 1 1.6 1v-.3zm0 0" transform="scale(.03125 .02917)" fill-rule="evenodd" fill="#007934" stroke-width=".1" stroke="#000"/><path d="M327.3 215.2c-.4-.1-.7-.4-.6-.6 0-.2.4-.3.8-.3.4.1.5.3.5.5 0 .3-.4.4-.8.3zm0 0" transform="scale(.03125 .02917)" fill="#d52b1e" stroke-width=".1" stroke="#000"/><path d="M332.8 206a5.7 5.7 0 01-4 6.4c-1-4 2.7-4 4-6.3zm0 0" transform="scale(.03125 .02917)" fill-rule="evenodd" fill="#007934" stroke-width=".1" stroke="#000"/><path d="M332.8 206.1c-1.2 2.7-2.8 5.1-5 7.2h-.4c2.7-2 4.2-5 5.4-7.2zm0 0" transform="scale(.03125 .02917)" fill-rule="evenodd" fill="#007934" stroke-width=".1" stroke="#000"/><path d="M327.8 213.3a.4.4 0 01-.6 0c-.2 0-.3-.2-.2-.4 0-.2.1-.4.4-.4s.4.2.5.3c.1.1.1.4-.1.5zm0 0" transform="scale(.03125 .02917)" fill="#d52b1e" stroke-width=".1" stroke="#000"/><path d="M326 213.8l1.4-.7h-.1l-1.7.7zm2.5-5c0 1.2-1 2.4-2 3.2-.9 1-1 1.2-2.3 1.6-1-2.8 3-3.3 4.3-4.8zm0 0" transform="scale(.03125 .02917)" fill-rule="evenodd" fill="#007934" stroke-width=".1" stroke="#000"/><path d="M328.5 208.8c-1.3 2.5-3.5 3.7-4.8 5.4 1.6-2.2 3-2.7 4.8-5.4zm-28.1-33.4c-1.6 3-4.4 8-5.1 12.1a22.7 22.7 0 007 20.8c5.2 4.6 13.3 6 16.6 6.8 3.4.7 5.9 1.9 6.4 2.5 0-.5 0-1-.6-1.6-1.4-.6-4-1-7.7-1.8-7.3-1.5-14.9-4.2-19-12.2-5.4-10.3-2.3-18.4 2.5-26.4zm0 0" transform="scale(.03125 .02917)" fill-rule="evenodd" fill="#007934" stroke-width=".1" stroke="#000"/><path d="M314.1 213.6c-.2.4-4 3.8-7.5 3.5-2.5-.1-2.9-.8-2.9-.8s-.2-.7 2-1c2.3-.6 6.2-2 8.4-1.7zm0 0" transform="scale(.03125 .02917)" fill-rule="evenodd" fill="#007934" stroke-width=".1" stroke="#000"/><path d="M303.8 216.3c2.7.3 5.4-.8 7.7-1.6" transform="scale(.03125 .02917)" fill="#007934" stroke-width=".1" stroke="#000"/><path d="M311.3 208.7a11.4 11.4 0 014.4 3.7c1 1.5.8 1.9.8 1.9s-.3.3-1.3-1c-1-1.2-3.4-3.3-4-4.6zm0 0" transform="scale(.03125 .02917)" fill-rule="evenodd" fill="#007934" stroke-width=".1" stroke="#000"/><path d="M316.5 214.2c-.9-1.7-2.5-3-3.8-4.2" transform="scale(.03125 .02917)" fill="#007934" stroke-width=".1" stroke="#000"/><path d="M300.3 175.8c0-.4.3-3.4 2-4.4 1.3-.6 1.8-.5 1.8-.5s.3.3-.5 1.3c-1 1-2.1 3.2-3.4 3.6zm0 0" transform="scale(.03125 .02917)" fill-rule="evenodd" fill="#007934" stroke-width=".1" stroke="#000"/><path d="M304 171c-1.4.7-2.3 2.2-3 3.4" transform="scale(.03125 .02917)" fill="#007934" stroke-width=".1" stroke="#000"/><path d="M299.4 177.5c-.1-.3-1-3.1-.1-4.9.4-1.2.8-1.3.8-1.3s.3 0 .1 1.3c-.2 1.2-.2 3.8-.8 4.9zm0 0" transform="scale(.03125 .02917)" fill-rule="evenodd" fill="#007934" stroke-width=".1" stroke="#000"/><path d="M300 171.4c-.6 1.2-.6 3-.6 4.4" transform="scale(.03125 .02917)" fill="#007934" stroke-width=".1" stroke="#000"/><path d="M299.4 177.5c.2 0 2.7-.8 3.9-2 .8-1.1.8-1.4.8-1.4s-.2-.3-1.1.5c-1 .8-3 2-3.6 2.9zm0 0" transform="scale(.03125 .02917)" fill-rule="evenodd" fill="#007934" stroke-width=".1" stroke="#000"/><path d="M304 174.1c-.9 1-2.3 2-3.3 2.6" transform="scale(.03125 .02917)" fill="#007934" stroke-width=".1" stroke="#000"/><path d="M298.3 179.6c-.8-1.6-1.2-3.5-1-5.2.3-1.6.6-1.8.6-1.8s.4 0 .4 1.5.3 4.2 0 5.5zm0 0" transform="scale(.03125 .02917)" fill-rule="evenodd" fill="#007934" stroke-width=".1" stroke="#000"/><path d="M298 172.6c-.5 1.8-.3 3.6 0 5.1" transform="scale(.03125 .02917)" fill="#007934" stroke-width=".1" stroke="#000"/><path d="M297.3 181.6c-.3-.3-2.3-3-2-5.2 0-1.8.4-2 .4-2s.4-.2.7 1.4c.4 1.7 1.2 4.3.9 5.8zm0 0" transform="scale(.03125 .02917)" fill-rule="evenodd" fill="#007934" stroke-width=".1" stroke="#000"/><path d="M295.8 174.5c-.3 1.7.4 3.8 1 5.2" transform="scale(.03125 .02917)" fill="#007934" stroke-width=".1" stroke="#000"/><path d="M296.3 184.2a10 10 0 01-2.6-4.7v-2s.6 0 1 1.4c.3 1.4 1.6 4 1.6 5.3zm0 0" transform="scale(.03125 .02917)" fill-rule="evenodd" fill="#007934" stroke-width=".1" stroke="#000"/><path d="M293.9 177.7c.1 1.8 1 3.4 1.5 4.8" transform="scale(.03125 .02917)" fill="#007934" stroke-width=".1" stroke="#000"/><path d="M298.3 179.6c.2 0 3-.1 4.4-1.7 1-1 1-1.5 1-1.5s0-.3-1.3.4c-1.1.8-3.4 1.9-4.1 2.8zm0 0" transform="scale(.03125 .02917)" fill-rule="evenodd" fill="#007934" stroke-width=".1" stroke="#000"/><path d="M303.8 176.5c-1 1.2-2.8 1.9-4 2.6" transform="scale(.03125 .02917)" fill="#007934" stroke-width=".1" stroke="#000"/><path d="M297.3 181.6c.2 0 3.2 0 4.6-1.5 1.1-.9 1-1.3 1-1.3s0-.3-1.1.3c-1.3.8-3.7 1.4-4.6 2.5zm0 0" transform="scale(.03125 .02917)" fill-rule="evenodd" fill="#007934" stroke-width=".1" stroke="#000"/><path d="M303 179c-1.3.9-2.8 1.5-4.1 2" transform="scale(.03125 .02917)" fill="#007934" stroke-width=".1" stroke="#000"/><path d="M296.4 184.2c.2 0 3.4-.2 4.9-1.7 1-1.2 1-1.6 1-1.6s0-.4-1.4.4c-1.1.8-3.6 1.8-4.5 2.9zm0 0" transform="scale(.03125 .02917)" fill-rule="evenodd" fill="#007934" stroke-width=".1" stroke="#000"/><path d="M302.3 181c-1.2 1.3-3 2-4.3 2.5" transform="scale(.03125 .02917)" fill="#007934" stroke-width=".1" stroke="#000"/><path d="M296.8 183s-.3-.5-.3-1c0-.7.3-.8.3-.8l-.3-.3-.1 1v.2l-.5-.4-.1-.4h-.2l.3.7c.5.4.9 1 .9 1" transform="scale(.03125 .02917)" fill-rule="evenodd" fill="#007934" stroke-width=".1" stroke="#000"/><path d="M295.6 180.3c.3 0 .4.2.4.5.1.3-.1.5-.3.5-.2 0-.4-.2-.4-.5s0-.5.3-.5zm1.1 0c.3.1.4.4.3.6 0 .3-.3.4-.5.4-.3-.1-.4-.4-.3-.6.2-.3.4-.4.6-.4zm0 0" transform="scale(.03125 .02917)" fill-rule="evenodd" stroke-width=".1" stroke="#000"/><path d="M296.8 183l1-.7.2-.7h.3l-.6.8v.1h.6l.3-.2.1.1-.6.4a5 5 0 00-1.4.3" transform="scale(.03125 .02917)" fill-rule="evenodd" fill="#007934" stroke-width=".1" stroke="#000"/><path d="M299.4 181.6c-.1-.1-.5-.1-.8.1-.1.2-.2.6 0 .7.1.1.5.1.8-.1.1-.2.2-.6 0-.7zm-1-.8c-.3 0-.5.1-.5.4-.1.3 0 .5.2.5.3.2.5 0 .5-.2.1-.4 0-.7-.2-.7zm0 0" transform="scale(.03125 .02917)" fill-rule="evenodd" stroke-width=".1" stroke="#000"/><path d="M295.4 187c-.1-.3-2.4-2.7-2.8-4.9-.4-1.6 0-2 0-2s.3 0 .8 1.4c.6 1.4 2 4 2 5.5zm0 0" transform="scale(.03125 .02917)" fill-rule="evenodd" fill="#007934" stroke-width=".1" stroke="#000"/><path d="M292.6 180.3c.1 1.8 1.1 3.4 2 5" transform="scale(.03125 .02917)" fill="#007934" stroke-width=".1" stroke="#000"/><path d="M295.6 187c.3 0 3.5-.4 5-2 1-1.4 1-1.8 1-1.8s-.2-.4-1.4.6c-1.2.8-3.8 2-4.6 3.2zm0 0" transform="scale(.03125 .02917)" fill-rule="evenodd" fill="#007934" stroke-width=".1" stroke="#000"/><path d="M301.5 183.2c-1 1.4-2.8 2.2-4.3 3" transform="scale(.03125 .02917)" fill="#007934" stroke-width=".1" stroke="#000"/><path d="M295.3 189.6c.2 0 3.4-.9 5-2.6 1-1.2 1-1.6 1-1.6s-.2-.3-1.6.6c-1 1-3.7 2.4-4.4 3.6zm0 0" transform="scale(.03125 .02917)" fill-rule="evenodd" fill="#007934" stroke-width=".1" stroke="#000"/><path d="M301.3 185.4c-1.2 1.4-3 2.4-4.4 3.2" transform="scale(.03125 .02917)" fill="#007934" stroke-width=".1" stroke="#000"/><path d="M295 189.6c-.3 0-3.3-2.2-3.8-4.5-.3-1.8 0-2 0-2s.6-.3 1.2 1.2c.7 1.5 2.5 3.7 2.7 5.3zm0 0" transform="scale(.03125 .02917)" fill-rule="evenodd" fill="#007934" stroke-width=".1" stroke="#000"/><path d="M291.3 183.2c.3 1.8 1.4 3.5 2.4 4.8" transform="scale(.03125 .02917)" fill="#007934" stroke-width=".1" stroke="#000"/><path d="M295.3 193c1.7-.8 3.3-2 4.4-3.6 1-1.5.8-1.8.8-1.8s-.3-.2-1.3 1-3.4 3-4 4.5zm0 0" transform="scale(.03125 .02917)" fill-rule="evenodd" fill="#007934" stroke-width=".1" stroke="#000"/><path d="M300.5 187.6c-1 1.6-2.5 3.1-3.8 4" transform="scale(.03125 .02917)" fill="#007934" stroke-width=".1" stroke="#000"/><path d="M295 193.3c-.3 0-3.6-1.8-4.4-4-.7-1.7-.4-2-.4-2s.4-.5 1.3.9c1 1.3 3.1 3.5 3.5 5zm0 0" transform="scale(.03125 .02917)" fill-rule="evenodd" fill="#007934" stroke-width=".1" stroke="#000"/><path d="M290.3 187.2c.4 1.8 2 3.4 3.2 4.6" transform="scale(.03125 .02917)" fill="#007934" stroke-width=".1" stroke="#000"/><path d="M295 191.7s-.4-.6-.5-1.1c-.3-.6 0-1 0-1h-.3v.8l.2.4-.6-.4-.3-.4-.3.2.6.6c.6.2 1 1 1 1" transform="scale(.03125 .02917)" fill-rule="evenodd" fill="#007934" stroke-width=".1" stroke="#000"/><path d="M293 189c.3 0 .5.1.6.5.1.3 0 .7-.2.7-.1.1-.3.1-.5-.2-.1 0-.3-.4-.1-.5 0-.3 0-.4.2-.4zm1.3-.3c.2 0 .4.3.4.5 0 .4-.2.7-.4.7s-.4-.3-.4-.5c0-.4.2-.7.4-.7zm0 0" transform="scale(.03125 .02917)" fill-rule="evenodd" stroke-width=".1" stroke="#000"/><path d="M295 191.7s.6-.6.8-1.1c.3-.6.2-.8.2-.8h.3l-.4 1.2.6-.3.4-.4.1.1-.6.6c-.6.1-1.1.7-1.1.7" transform="scale(.03125 .02917)" fill-rule="evenodd" fill="#007934" stroke-width=".1" stroke="#000"/><path d="M297.5 189.4c-.1-.2-.3-.2-.5 0-.1.1-.4.4-.4.6 0 .2.1.3.3.4a.4.4 0 00.5 0c.2 0 .4-.4.4-.6 0-.2-.2-.4-.3-.4zm-1.3-.6s-.2 0-.4.3c-.2.1-.2.4 0 .7s.2.2.4.2.4 0 .4-.2a1 1 0 000-.8c0-.2-.2-.2-.4-.2zm0 0" transform="scale(.03125 .02917)" fill-rule="evenodd" stroke-width=".1" stroke="#000"/><path d="M295.4 196.2c-2-.8-3.8-2.3-5.1-4-1-1.8-.8-2.2-.8-2.2s.3-.2 1.4 1.1c1.4 1.4 3.9 3.6 4.5 5.1zm0 0" transform="scale(.03125 .02917)" fill-rule="evenodd" fill="#007934" stroke-width=".1" stroke="#000"/><path d="M289.5 190.2c1 1.9 2.8 3.3 4.3 4.7" transform="scale(.03125 .02917)" fill="#007934" stroke-width=".1" stroke="#000"/><path d="M295.6 196.2c.4 0 4-1.9 5-4.4.6-1.8.3-2.3.3-2.3s-.4-.3-1.4 1.2c-1 1.4-3.4 3.8-3.9 5.5zm0 0" transform="scale(.03125 .02917)" fill-rule="evenodd" fill="#007934" stroke-width=".1" stroke="#000"/><path d="M300.9 189.6c-.6 2-2.3 3.7-3.6 5" transform="scale(.03125 .02917)" fill="#007934" stroke-width=".1" stroke="#000"/><path d="M296.6 199.3c.3-.1 3.6-2.3 4.5-4.8.6-2 .4-2.3.4-2.3s-.4-.3-1.3 1.3c-1 1.5-3.2 4-3.6 5.7zm0 0" transform="scale(.03125 .02917)" fill-rule="evenodd" fill="#007934" stroke-width=".1" stroke="#000"/><path d="M301.5 192.3c-.8 2-2.3 3.8-3.4 5.2" transform="scale(.03125 .02917)" fill="#007934" stroke-width=".1" stroke="#000"/><path d="M296.3 199.3c-.4 0-4.7-1.4-6.2-3.8-1-2-.9-2.5-.9-2.5s.4-.4 1.8 1c1.5 1.4 4.5 3.5 5.3 5.2zm0 0" transform="scale(.03125 .02917)" fill-rule="evenodd" fill="#007934" stroke-width=".1" stroke="#000"/><path d="M289.3 193.1c1 2 3.3 3.6 5 4.8" transform="scale(.03125 .02917)" fill="#007934" stroke-width=".1" stroke="#000"/><path d="M300.1 205.7c.3-.3 2.6-3 2.8-5.6.2-1.8-.1-2-.1-2s-.4-.2-1 1.5c-.4 1.6-1.7 4.5-1.7 6.1zm0 0" transform="scale(.03125 .02917)" fill-rule="evenodd" fill="#007934" stroke-width=".1" stroke="#000"/><path d="M302.8 198c0 2-1 4.1-1.8 5.7" transform="scale(.03125 .02917)" fill="#007934" stroke-width=".1" stroke="#000"/><path d="M300 205.6c-.5.2-5.4 0-7.8-2.2-1.4-1.4-1.4-2.1-1.4-2.1s.2-.5 2 .5c2 1 5.8 2.3 7 3.8zm0 0" transform="scale(.03125 .02917)" fill-rule="evenodd" fill="#007934" stroke-width=".1" stroke="#000"/><path d="M290.9 201.4c1.7 1.6 4.4 2.6 6.5 3.4" transform="scale(.03125 .02917)" fill="#007934" stroke-width=".1" stroke="#000"/><path d="M298.3 203c-.6 0-5-1-7-3-1.6-1.7-1.4-2.2-1.4-2.2s.2-.4 2 .8c1.6 1.2 5 3 6.4 4.4zm0 0" transform="scale(.03125 .02917)" fill-rule="evenodd" fill="#007934" stroke-width=".1" stroke="#000"/><path d="M290 198c1.6 1.6 4 2.9 5.8 4" transform="scale(.03125 .02917)" fill="#007934" stroke-width=".1" stroke="#000"/><path d="M298.4 203c.4-.2 3.6-3 4-5.6.2-2-.1-2.5-.1-2.5s-.6-.2-1.3 1.4c-.8 2-2.6 4.9-2.6 6.6zm0 0" transform="scale(.03125 .02917)" fill-rule="evenodd" fill="#007934" stroke-width=".1" stroke="#000"/><path d="M302.3 195c-.3 2.1-1.6 4.3-2.6 6" transform="scale(.03125 .02917)" fill="#007934" stroke-width=".1" stroke="#000"/><path d="M297.4 201.6l-1-.8-.5-1h-.3l.8 1.2-.8-.1-.5-.3v.2l.6.4c.8 0 1.7.5 1.7.5" transform="scale(.03125 .02917)" fill-rule="evenodd" fill="#007934" stroke-width=".1" stroke="#000"/><path d="M294.3 199.8c0-.2.4-.1.7.2.4.2.4.6.3.8-.3.2-.7 0-1-.2s-.3-.6 0-.8zm1-1c.3-.2.4 0 .7 0l.3.9c-.2.3-.3.4-.6.4 0 .1-.3.1-.4-.1-.3-.2-.4-.6-.3-.8 0-.2.1-.4.4-.4zm0 0" transform="scale(.03125 .02917)" fill-rule="evenodd" stroke-width=".1" stroke="#000"/><path d="M297.5 201.4s.4-.6.4-1.3l-.1-1h.2l.1 1.3.6-.4.2-.7.2.1-.4.8c-.6.6-1 1.4-1 1.4" transform="scale(.03125 .02917)" fill-rule="evenodd" fill="#007934" stroke-width=".1" stroke="#000"/><path d="M299.1 198.2c-.2-.1-.5-.1-.6.1s-.3.6-.1.9.2.4.5.4c.2 0 .5 0 .6-.2.1-.2.3-.7.1-1-.1-.2-.2-.3-.5-.2zm0 0" transform="scale(.03125 .02917)" fill-rule="evenodd" stroke-width=".1" stroke="#000"/><path d="M297.6 198c-.2 0-.4.2-.5.5l.3.8c.2.1.5.3.6.1.3 0 .4-.1.4-.4.1-.2 0-.5-.1-.8-.3-.1-.6-.3-.7-.1zm0 0" transform="scale(.03125 .02917)" fill-rule="evenodd" stroke-width=".1" stroke="#000"/><path d="M301.8 207.6c-.3.3-4.3 1-6.8-.3-1.8-1-2-1.5-2-1.5s0-.4 2 0c1.8.4 5.3.9 6.8 1.8zm0 0" transform="scale(.03125 .02917)" fill-rule="evenodd" fill="#007934" stroke-width=".1" stroke="#000"/><path d="M293.1 206c2 1 4.4 1.2 6.3 1.5" transform="scale(.03125 .02917)" fill="#007934" stroke-width=".1" stroke="#000"/><path d="M302 207.5c.3 0 2-2.5 1.9-4.9 0-1.6-.4-1.8-.4-1.8s-.3-.3-.6 1.2c-.1 1.4-1 4-.9 5.5zm0 0" transform="scale(.03125 .02917)" fill-rule="evenodd" fill="#007934" stroke-width=".1" stroke="#000"/><path d="M303.5 200.8c.3 1.8-.4 3.6-.9 5" transform="scale(.03125 .02917)" fill="#007934" stroke-width=".1" stroke="#000"/><path d="M305.5 210.3c-.3.2-5 1.4-8 .2-2-.9-2.1-1.4-2.1-1.4s0-.4 2.2 0c2.1.2 6.1.4 8 1.2zm0 0" transform="scale(.03125 .02917)" fill-rule="evenodd" fill="#007934" stroke-width=".1" stroke="#000"/><path d="M295.5 209.2c2.3 1 5 1 7.3 1" transform="scale(.03125 .02917)" fill="#007934" stroke-width=".1" stroke="#000"/><path d="M305.8 210.3c.2-.3 1.2-3.8 0-5.7-1-1.3-1.6-1.2-1.6-1.2s-.3 0 0 1.5c.4 1.5.6 4.3 1.6 5.4zm0 0" transform="scale(.03125 .02917)" fill-rule="evenodd" fill="#007934" stroke-width=".1" stroke="#000"/><path d="M304.4 203.4c1 1.4 1.1 3.4 1.4 5" transform="scale(.03125 .02917)" fill="#007934" stroke-width=".1" stroke="#000"/><path d="M303.3 208.7s-.6.4-1.2 0c-.6-.3-.9-.7-.9-.7l-.2.3 1 .6.3.2-1 .2-.6-.1v.3h1l1.6-.4" transform="scale(.03125 .02917)" fill-rule="evenodd" fill="#007934" stroke-width=".1" stroke="#000"/><path d="M299.5 208.7c0-.2.3-.3.6-.3s.5.1.8.4v.7l-.5.2c-.4 0-.6-.2-.9-.4v-.6zm.8-1.5h.6c.2.1.5.4.6.7.1.2 0 .5-.3.5 0 .1-.2.3-.6.1-.2-.1-.4-.4-.5-.8-.1-.2 0-.4.1-.5zm0 0" transform="scale(.03125 .02917)" fill-rule="evenodd" stroke-width=".1" stroke="#000"/><path d="M303.4 209s.6-.5.2-1.1l-.6-1 .1-.2.6 1 .3.3.3-1v-.5h0v1l-.4 1.6" transform="scale(.03125 .02917)" fill-rule="evenodd" fill="#007934" stroke-width=".1" stroke="#000"/><path d="M303.8 205c-.3.2-.4.6-.3 1.1.3.4.5.6.8.6.2-.2.3-.6.2-1.1-.3-.4-.5-.6-.8-.6zm-1.6.8c-.3.2-.4.3-.3.7.1.3.4.6.7.7.3.1.5 0 .6-.3.3 0 .4-.2.3-.5-.1-.4-.4-.7-.8-.8-.2-.2-.4 0-.4.2zm0 0" transform="scale(.03125 .02917)" fill-rule="evenodd" stroke-width=".1" stroke="#000"/><path d="M308.3 211.7c-.3.4-4.2 3.1-7.4 2.5-2.3-.4-2.6-1.1-2.6-1.1s0-.6 2-.8c2.2-.2 6-1 8-.6zm0 0" transform="scale(.03125 .02917)" fill-rule="evenodd" fill="#007934" stroke-width=".1" stroke="#000"/><path d="M298.4 213c2.5.8 5.2 0 7.4-.5" transform="scale(.03125 .02917)" fill="#007934" stroke-width=".1" stroke="#000"/><path d="M310.8 212.5s-.6.8-1.3.6c-.4 0-.9-.3-1.3-.6l-.2.4 1.3.4h.4l-.8.7-.6.2v.2l1-.2c.3 0 1.4-1.1 1.4-1.1" transform="scale(.03125 .02917)" fill-rule="evenodd" fill="#007934" stroke-width=".1" stroke="#000"/><path d="M306.6 214c-.1-.2 0-.5.4-.7s.8 0 1.1.2c.3.2.4.5.1.7.2.2 0 .5-.2.6-.4.2-.8.2-1.1 0-.3-.1-.4-.5-.3-.6zm.4-2c.3-.3.8-.3 1.1 0 .4.3.6.7.4 1-.3.2-.8.2-1.1 0-.4-.3-.6-.7-.4-1zm0 0" transform="scale(.03125 .02917)" fill-rule="evenodd" stroke-width=".1" stroke="#000"/><path d="M309.5 212.1c.3-.2.8-3.8-1-5.4-1.1-1.3-1.8-1.1-1.8-1.1s-.4.1.2 1.5c.7 1.4 1.4 4.2 2.6 5zm0 0" transform="scale(.03125 .02917)" fill-rule="evenodd" fill="#007934" stroke-width=".1" stroke="#000"/><path d="M306.8 205.6c1.4 1.2 2 3.2 2.3 4.7" transform="scale(.03125 .02917)" fill="#007934" stroke-width=".1" stroke="#000"/><path d="M311.4 213s.2-.7-.5-1.3c-.6-.4-1.1-.5-1.1-.5v-.4l1.2.7.4.2c.4.4 0-.8-.1-.9l-.6-.7.4-.2.5 1 .1 2" transform="scale(.03125 .02917)" fill-rule="evenodd" fill="#007934" stroke-width=".1" stroke="#000"/><path d="M309.8 209c-.3 0-.4.5-.3.7.1.4.5.7.9.7.2.1.6 0 .6-.3.3-.1.3-.4.1-.8a1.3 1.3 0 00-.7-.6c-.3 0-.6 0-.6.2zm-1.3 1.5c-.1.3.1.7.6.8.5.2 1 .2 1.1-.2.2-.3-.2-.7-.6-.8-.5-.2-1-.2-1.1.2zm0 0" transform="scale(.03125 .02917)" fill-rule="evenodd" stroke-width=".1" stroke="#000"/><path d="M319.1 209s-2.4 5.4-1.5 6c0 0 2.4-4.3 4.4-5.8 1.1-1 1.8 0 2-1 0-.7-3-2-3-2l-1.8 2.6" transform="scale(.03125 .02917)" fill="#452c25" stroke-width=".2" stroke="#000"/><path d="M310.6 213s-3.4 6.1-2.5 6.1c.8 0 4.5-7.5 4.5-7.5l-1.4.1zm0 0" transform="scale(.03125 .02917)" fill="#452c25" stroke-width=".1" stroke="#000"/><path d="M311.6 211.5s-3.6 5.9-2.7 5.9c1 .1 4.9-7.4 4.9-7.4l-1.4.1zm0 0" transform="scale(.03125 .02917)" fill="#452c25" stroke-width=".1" stroke="#000"/><path d="M312.3 210.5s-4 5.4-3.2 5.7c1 .1 5.4-7.1 5.4-7.1l-1.3.1zm0 0" transform="scale(.03125 .02917)" fill="#452c25" stroke-width=".1" stroke="#000"/><path d="M313.4 209.5s-4.8 5-3.9 5.2c.8.3 6.3-6.2 6.3-6.2l-1.3-.1zm0 0" transform="scale(.03125 .02917)" fill="#452c25" stroke-width=".1" stroke="#000"/><path d="M313.6 207.7s-4.2 5.4-3.4 5.6c1 .2 5.6-7 5.6-7l-1.3.2-1 1.2zm-1.1 4.7s-4 5.5-3.3 5.6c1 .2 5.6-7 5.6-7h-1.4zm2.3-1s-2.4 4.4-2 4.5c.2.3 3-2.6 4.4-5.2 1.6-2.6-2.4.5-2.4.5" transform="scale(.03125 .02917)" fill="#452c25" stroke-width=".1" stroke="#000"/><path d="M315 210.8s-2.3 5.5-1.5 6c0 0 3-3.3 3.8-5.9.7-2.6 0-.1 0-.1l-.3-3-2 2.7" transform="scale(.03125 .02917)" fill="#452c25" stroke-width=".2" stroke="#000"/><path d="M313.8 210.4s-4.7 4.8-4 5c1 .4 6.4-6 6.4-6H315l-1 .9zm0 0" transform="scale(.03125 .02917)" fill="#452c25" stroke-width=".1" stroke="#000"/><path d="M314.3 211s-4.8 5-4 5.2c.8.4 6.2-6.2 6.2-6.2h-1.3zm0 0" transform="scale(.03125 .02917)" fill="#452c25" stroke-width=".1" stroke="#000"/><path d="M314.6 211.7s-4.9 5-4 5.3c1 .4 6.3-6.2 6.3-6.2h-1.1zm.4-6.7s-3.6 4.6-3 5.4c.4.8 3.6-2 4.8-4 1-2-1.8-1.4-1.8-1.4" transform="scale(.03125 .02917)" fill="#452c25" stroke-width=".1" stroke="#000"/><path d="M314.8 209.9s-3 5.9-2.2 5.5c.8-.4 3.8-4.7 4.1-5.7.4-1 .3-2 .3-2l-2.3 1.5.2 1m-.1-2.2s2.4-4.6 0 1c-2.6 5.4-3.4 4.3-3.4 4.3-.1-.2 2.2-3.8 2.2-3.8s1.6-2.8 2.1-3.3" transform="scale(.03125 .02917)" fill="#452c25" stroke-width=".1" stroke="#000"/><path d="M317.5 207.5s2.8-4.7 0 .8-3.9 4.5-3.9 4.5c-.2-.3 2.5-4 2.5-4s2-2.8 2.4-3" transform="scale(.03125 .02917)" fill="#452c25" stroke-width=".1" stroke="#000"/><path d="M316.5 205.4s-3.5 4.6-3 5.3c.5.8 3.8-2 4.8-4s-1.8-1.4-1.8-1.4" transform="scale(.03125 .02917)" fill="#452c25" stroke-width=".1" stroke="#000"/><path d="M11 7.3c0 .6-.4 1.1-1 1.1a1 1 0 01-1-1c0-.7.4-1.2 1-1.2s1 .5 1 1.1zm0 0" fill="#e8a30e"/><path d="M293.8 251c0-17 12-30.2 26.2-30.2s26.3 13 26.3 30.3" transform="scale(.03125 .02917)" fill="none" stroke-width=".8" stroke="#390"/><path d="M287.3 253c1 19.5 15.2 35 32.7 35s31.9-15.5 32.8-35zm0 0" transform="scale(.03125 .02917)" fill="#007934" stroke-width=".1" stroke="#eee"/><path d="M352.8 251c0 20.5-14.7 37-32.8 37s-32.8-16.5-32.8-37c0-20.4 14.7-37 32.8-37s32.8 16.6 32.8 37zm0 0" transform="scale(.03125 .02917)" fill="none" stroke-width=".4" stroke="#000"/><path d="M314.5 225.4c-.3 1.3 0 2.5.8 3.6.4 1 1 1.8.8 2.7l-.7.5-5.5-3.7 3.7 5.5-.2.2c-.9-.4-2-.5-3-.4-1.3.3-2.6 0-3.6-.8.6 1.2 1.7 2 3 2.2a5 5 0 012.6 1.3l-.1.8-6.7 1.4 6.6 1.2v.2a5.4 5.4 0 00-2.4 2 5 5 0 01-3 2c1.3.5 2.4 0 3.6-.8a5 5 0 012.7-.8l.4.7-3.6 5.6 5.4-3.7.3.3a4 4 0 00-.4 2.9c.2 1.2 0 2.5-.7 3.6a4.6 4.6 0 002-3c.3-1 .8-2 1.4-2.6l.9.3 1.2 6.4 1.3-6.4h.3c.4.8 1 1.6 1.8 2.2 1.1.7 1.9 1.8 2.1 3.1.3-1.2 0-2.5-.8-3.6-.4-.8-.8-1.7-.8-2.8l.7-.4 5.5 3.7-3.7-5.5.2-.4c1 .6 2 .7 3 .4 1.3-.2 2.6 0 3.6.9a4 4 0 00-3-2c-1-.3-2-.7-2.6-1.5l.1-.8 6.7-1.2-6.6-1.2v-.4a6 6 0 002.4-2 5 5 0 013-2c-1.2-.2-2.6 0-3.6.7a5 5 0 01-2.7.8l-.4-.6 3.8-5.5-5.6 3.7-.3-.2c.5-1 .6-2 .4-3-.2-1.2 0-2.5.7-3.6a4.8 4.8 0 00-2 3 5 5 0 01-1.4 2.6l-.9-.2-1.2-6.5-1.3 6.5h-.3c-.4-1-1-1.8-1.8-2.3a5 5 0 01-2-3.1zm0 0" transform="scale(.03125 .02917)" fill="#d52b1e" stroke-width=".1" stroke="#000"/><path d="M10.2 6.9H10V7a.1.1 0 010-.1h.2M10.1 6.9"/><path d="M10.2 7c0-.1-.1-.1-.1 0 0-.1 0 0 0 0M10.1 7zm0 0M10 7h.1M10.2 7H10m0 0H10m0 0M10 7v.1m-.2-.2h.2V7a.1.1 0 000-.1h-.2M9.9 6.9"/><path d="M9.8 7c0-.1.1-.1.1 0 0-.1 0 0 0 0M9.9 7zm0 0M10 7h-.2.1M9.8 7h.1m0 0h.1m0 0M10 7v.1"/><path d="M323.3 258.3a9 9 0 004.6-.2c1.4-.6 2.7-.7 4.2-.6 0-.2.5-.4.1-.5-.4-.3-1-.3-1.7-.7-1-.4-1.8-1.2-2.8-1.8 0 0-.4-.4-.4-.6 2 3.2 7.4 1.5 12 1.2.3 0 1.4-.2 2.3-.5 1-.4 3.6 0 4.3-.5l-1.3-1c-.6-.8-2.4-.6-3-1.4-1.4-1.7-3.4-2-4.9-3.1-.3-.3-1-.2-1.6-.3-.6-.7 0-.5-5-4.7-4.5-1.9-4.2-3.2-7-4.3-1-.5-1.9-1.4-2.7-1-2.1.6-4.3 1.7-6.3 2.9-1.2.5-2.7 2-3.9 2.8 0 .2-3.3 3-7 4.8-3 1.8-6 3.4-9 4.9 8-.4-7.4 2.2 29 4.6zm0 0" transform="scale(.03125 .02917)" fill="#007934" stroke-width=".1" stroke-linecap="round" stroke="#000"/><path d="M303.3 249c2-1 10-5.2 12.4-8.5-.4 0 .6 1.1.6 1.5.7 0 .3-1 1-1 .4 0 .8 0 1.2-.3.5 0 .3.2.3.4-.8 1.2-2 2-3.3 3l.3.3c.3 0 .8 0 1-.2v-.3c.4.1.4.5.2.7-.3.6-1.4.5-1.8 1-.4.7-1 1.2-1.4 1.8.4-.4 1-1.1 1.6-1.1 1 0 1.4-.7 2.2-1 .9 0 1.5-.7 2.1-1.3-.2.4-.8.7-.6 1.2.1.2.4.3.6.2-.7.8-2 1.4-2.4 2.4-.4-.2-.7.2-1 .2s-.3.8-.6 1c-1.2.6-1.8 1.8-2.3 2.7l-1.3.8c-.7.2-4.6 3.3-4.7 2.9-.3-2.1-4.3 1.6-13.3-1.6m30.6-.1l-.2-.2c.1-.2-.5-.4-.5-.6 1 0 1.8 1.2 2.5.4.1 0-.3-.4.4-.6l-.1-.2h-.8l-.8-.3c-.3-.1-.4-.5 0-.5 1-.2 2 .4 2.6 0s1-.2 1.7-.4c.3 0 1.3 0 .9.2-.1.2-.6.2-1 .2-.5 0-1 .4-1.4.6.3 0 .3.3.8.2a4.9 4.9 0 012-.4v-.4h.2c-.3-.6.6-.3 1-.7l.1.1c-.5.2-.4.6-.4.8 0 0-.3 0-.2.2.3.2.3-.2.5 0h.6c.3 0 .6 0 .5-.4-.4-.2-.6-.4-.6-.9h-.1c.5 0 1 .2 1.1.5.3.2.3.5.8.6.8.2.7-.2.7-.7.8 0 1.6.5 1.4.7 0 .3-.6.6-1 .6s-.1.2-.4.2c-.4 0-.9 0-1 .2-.3.2 0 .8.3.9.4.3 1.2 0 1.8 0 .1-.3.5-.4.9-.5.4-.4-.3-.6-.5-.8-.3 0 0 0 0-.3.3-.3.9 0 1-.1.1-.4-.1-.7.1-.9.1 0 .5 0 .4.3l.8-.3c.2 0 .4.5.3.5-.5.2-.9.4-.7.8 0 .2-.5.4-.3.5.4.3.4.5.5 1 .1.2 1 .3 1.6.2-.2-.7 1.4-.4 2-.5v-.2c-.3-.2-.3-.2-.3-.6h-.1c1 .2 2.8.8 3.6 1.3-1 .3-2.8-.1-3.8 0-1.2.4-2.5.5-3.7.7-.5 0-1-.4-1.6-.4m-11.3-.7l-.4-.1" transform="scale(.03125 .02917)" fill="#007934" stroke-width=".1" stroke="#000"/><path d="M321.3 259.2c2 0 2 1.3 3.4 0 1 .2 2.2-.2 2.2-.3 2.7.7 11.1-.1 10.6-.8-.9-1-2.3-1.4-3.4-2.2l-1.1-.4c-.8-.2-1.5 0-2-.4l-2.6-1.4c-.5-.4-.6-1-1.1-1.4-.7-.4-1.6-.5-2-.6-1-.4-1.6-1.3-2.3-2l-1.1-.5c-.6-.2-1.1-1-1.9-.9-1 .1-1.8 1-2.8 1.6-1 .4-1.4 1-2.2 1.6-.3.2-2.6 1.8-5.3 3-2.2.9-4.3 1.7-6.6 2.4 0 0 2.4 1.7 8 1.4l3.4 1.1 1.9-.2zm0 0" transform="scale(.03125 .02917)" fill="#007934" stroke-width=".1" stroke="#000"/><path d="M309.8 254.9c1.2-.7 6-3 7.4-4.6 0 0 .6.5.4.7.5 0 .1-.4.6-.6h.8c.3 0 .1 0 .1.2-.4.6-1.4 1-2 1.5l.1.2h.8v-.2c.3 0 .3.2.1.4-.2.4-.9.2-1.1.5l-1 1c.4-.3.8-.6 1.1-.6.6 0 .8-.4 1.3-.5.6 0 1-.4 1.4-.8-.2.2-.6.4-.4.8h.4l-1.6 1.2-.4.1c-.4.1-.3.5-.6.7-.6.2-1 .9-1.3 1.3l-.8.4c-.4.1-2.9 1.7-2.9 1.6 0-1-2.4.6-8-1.2" transform="scale(.03125 .02917)" fill="#007934" stroke-width=".1" stroke="#000"/><path d="M320 214.2c-18.1 0-32.8 16.6-32.8 37s14.7 36.7 32.8 36.7 32.8-16.4 32.8-37c0-20.1-14.7-36.7-32.8-36.7zm0 8.3c13.3 0 24.8 12.1 24.8 28.6 0 16.4-11.6 28.5-24.8 28.5s-24.8-12.1-24.8-28.5c0-16.5 11.6-28.6 24.8-28.6zm0 0" transform="scale(.03125 .02917)" fill="#00a6de" stroke-width=".1" stroke="#000"/><path d="M10.1 7.8zm0 0M10.1 7.8zm0 .2V8h.1a.2.2 0 000 .1.1.1 0 01-.1 0zm0 0M10.1 7.8v.3-.3zm0 0M10.1 7.8a1.4 1.4 0 000 .3v-.3zm0 0zm0 0M10.1 7.8zm0 0M10.1 7.8zm0 0M10.1 7.8zm0 0M10.1 7.8zm0 0M10.1 7.8zm0 0zm0 0M10.2 7.8zm0 0M10.2 7.8zm0 0M10.2 7.8zm0 0" fill="#e8a30e"/><path d="M10.2 7.8zm0 0a.5.5 0 000 .3v-.3zm0 0zm0 0M10.2 7.8zm0 0M10.2 7.8zm0 0M10.2 7.8zm0 0M10.2 7.8zm0 0M10.2 7.8zm0 0zm0 0M10.2 7.8zm0 0M10.2 7.8zm0 0" fill="#e8a30e"/><path d="M10.2 7.8zm0 0zm0 0v.3a.3.3 0 010-.2zm0 0zm0 0M10.2 7.8zm0 0M10.2 7.8zm0 0M10.2 7.8zm0 0M10.2 7.8zm0 0M10.2 7.8zm0 0zm0 0M10.2 7.8zm0 0M10.2 7.8zm0 0M10.2 7.8zm0 0zm0 0v.3a1 1 0 000-.3zm-.1 0zm0 0M10.1 7.8zm0 0M10.1 7.8zm0 0M10.1 7.8zm0 0M10.1 7.8zm0 0M10.1 7.8zm0 0zm0 0M10 7.8h.1zm0 0M10 7.8h.1zm0 0M10 7.8h.1zm0 0M10 7.8h.1zm0 0a.5.5 0 01.1.3.6.6 0 000-.3zm0 0zm0 0M10 7.8zm0 0M10 7.8zm0 0M10 7.8zm0 0M10 7.8c.1 0 0 0 0 0zm0 0M10 7.8h.1zm0 0zm0 0M10 7.8zm0 0M10 7.8zm0 0M10 7.8zm0 0" fill="#e8a30e"/><path d="M10 7.8zm0 0v.3c.1-.1.1-.2 0-.2zm0 0zm0 0M10 7.8zm0 0M10 7.8zm0 0M10 7.8zm0 0M10 7.8zm0 0M10 7.8zm0 0zm0 0M10 7.8zm0 0M10 7.8zm0 0M10 7.8zm0 0M10 7.9zm.1-.1zm0 0M10.1 7.8zm0 0M10.1 7.8zm0 0M10.1 7.8zm0 0M10.1 7.8zm0 0M10.1 7.8zm0 0zm0 0M10.1 7.8zm0 0M10.1 7.8zm0 0M10.1 7.8zm0 0M10.1 7.8zm0 0v0zm0 0zm0 0M10 7.8c.1 0 .1 0 0 0zm0 0M10.1 7.8zm0 0M10.1 7.8zm0 0M10.1 7.8zm0 0M10.1 7.8zm0 0zm0 0M10 7.8zm0 0M10 7.8zm0 0M10 7.8h.1zm0 0M10 7.8h.1zm0 0V8zm0 0" fill="#e8a30e"/><path d="M10 7.9a.4.4 0 01.1.2.5.5 0 000-.2zm0-.1zm0 0M10 7.8zm0 0M10 7.8zm0 0M10 7.8zm0 0M10 7.8zm0 0M10 7.8zm0 0zm0 0zm0 0M10 7.8zm0 0M10 7.8zm0 0M10 7.8zm0 0zm0 0M10 7.8zm0 0M10 7.8zm0 0M10 7.8zm0 0M10 7.8zm0 0M10 7.8zm0 0zm0 0M10 7.8zm0 0M10 7.8zm0 0zm0 0M10 7.9zm.2 0a.7.7 0 000 .2v-.3zm0-.1zm0 0M10.2 7.8zm0 0M10.2 7.8zm0 0M10.2 7.8zm0 0M10.1 7.8zm0 0M10.1 7.8zm0 0zm0 0M10.2 7.8zm0 0M10.2 7.8zm0 0M10.2 7.8zm0 0" fill="#e8a30e"/><path d="M10.2 7.8zm0 0a.4.4 0 000 .3.4.4 0 010-.2zm0 0zm0 0M10.2 7.8zm0 0M10.2 7.8zm0 0M10.2 7.8zm0 0M10.2 7.8zm0 0M10.2 7.8zm0 0zm0 0M10.2 7.8zm0 0M10.2 7.8zm0 0M10.2 7.8zm0 0" fill="#e8a30e"/><path d="M10.2 7.9zm0 0a.2.2 0 000 .2V8a.2.2 0 010-.1zm0 0v-.1zm0 0M10.2 7.8zm0 0M10.2 7.8zm0 0M10.2 7.8zm0 0M10.2 7.8zm0 0M10.2 7.8zm0 0zm0 0M10.2 7.8zm0 0M10.2 7.8zm0 0M10.2 7.9zm0 0M10.2 7.9zm0 0H10zm0 0M10 8h.1zm.1 0zm0 0zm0 0zm0 0" fill="#e8a30e"/><path d="M316.5 268.8l.5 2.7.3.2v1.1l.4 1.6.3.6h.4l.1.2-.3.2h-.8v-.4h-.1l-.2-.6-.9-1s0-.5 0-.5l-.4-.4c-.6-.9-1-2.9-1-2.9m-6.4-1l1.9.5-.6 2.5c-.3.8-.3 1-.2 1l1.1 2.4.6.4.6.2h.4v-.2l-.4-.2c0-.2-.6-.8-.6-1.2-.2-.7 0-.7 0-1.5l.4-1.6c.1-.5.5-1.4.5-2l-.9-1.7-.4-.7m-1.6-1c-3 .9-1.7 3.4-1 3.6m9.3-8.2l.4-1v-.3l-.6.8" transform="scale(.03125 .02917)" fill="#e7e7e7" stroke-width=".1" stroke="#000"/><path d="M319.3 262.4h.3v-.6c-.6-.4-1-.4-1-.6v-.3l-1-.4-.4-.1h-.2c-.8 0-1.1.6-1.3 1.2 0 0 0 2-.4 3 0 0 0 .2-.2.2l-.2.2c-2-.2-3.4-.2-4.1-.2-1 0-2 .6-2 .6s-1 .7-1 1.7v1c1 2.7 2 0 2.2.2h.4c.5 0 1.4 1.4 2.7 1.7 4 1 5-1.2 5-5.8v-.2l.1-.4v-.8l1-.2.3-.1" transform="scale(.03125 .02917)" fill="#e7e7e7" stroke-width=".1" stroke="#000"/><path d="M317.3 261l.4-1v-.4l-1 1m-8.8 7.7c.4.8.7 1.4.7 1.7 0 .4-.4.5-.4.7h0l-.3.6v.6c0 .6.4 2.3.4 2.3s.3 0 .3.2v1.2c0 .2.3.3.3.3h.6l-.4-.4v-.1c0-.3.1-.4.3-.6v-.2l-.1-.3V272l.2-.2 1-.6.8-1 .2-.4v-.3c0-.3-.1-.7-.3-1l-.6-.7m5.9 1.8c-.5.4-1.8.7-1.8 1 0 0 0 1.6-.2 2.2l-.3.6-.2.7-.3 1v.3l.4.3h-.4l-.6-.2V274l-.2-1.5.1-.9-.1-3.6m4.7-5.4c.1.2.6.4 1.3 0 .2.2.4.3.6-.1m-.3-.5h.2s.1 0 0 0zm0 0" transform="scale(.03125 .02917)" fill="#e7e7e7" stroke-width=".1" stroke="#000"/><path d="M10 7.6zm0 0"/><path d="M329.1 273v1.4.7.7c.1.2 1 .2 1.1 0 .2-.2.2-.4 0-.7v-.7c.2-.2.2-.5 0-.6v-.9a1 1 0 000-.8v-.8a1 1 0 000-.8v-.6a1 1 0 000-.8v-.8a1 1 0 000-.8 1 1 0 000-.8 1 1 0 000-.9 1 1 0 000-.8 1 1 0 000-.8c.2 0 .2-.4 0-.6v-.8a1 1 0 000-.8 1 1 0 000-.8v-.8a1 1 0 000-.8v-1h-.8v4.8l-.1.8v5.7c-.2.1-.2.5 0 .6a1 1 0 000 .8 1 1 0 000 .8 1 1 0 000 .8zm0 0" transform="scale(.03125 .02917)" fill-rule="evenodd" fill="#e7e7e7" stroke-width=".1" stroke="#000"/><path d="M329.1 273.6h1.1m-1-.7h1m-1-.8h1m-1-.8h1m-1-.8h1m-1-.6h1m-1-.8h1m-1-.8h1m-1-.8h1m-1-.8h1m-1-.9h1m-1-.8h1m-1-.8h1m-1-.6h1m-1-.8h1m-1-.8h1m-.8-.8h.9m-1-.8h1m-1-.8h1m-1-.7h1m-1 15.5h1m-1.2.7h1.1" transform="scale(.03125 .02917)" fill-rule="evenodd" fill="#e7e7e7" stroke-width=".1" stroke-linejoin="round" stroke="#000"/><path d="M331.5 257h2.1c-.2-.1-.5-.3-.9-.3h2.3a3.6 3.6 0 00-1-.5c.8-.1 1.5 0 2.3.1l-1-.5 2 .1-1-.4c.8-.2 1.7-.2 2.4-.2-2.6-1.1-5.6-.8-8 .8l1-1.1h-.6l1.1-1h-.6l1.4-.9c-.3 0-.6 0-.9.2.4-.6 1-1 1.6-1.2h-1c.6-.6 1.3-1 2-1.3-3.3.5-5 2.9-5.3 4.7a6.9 6.9 0 00-6.6-3.4c1 .2 1.8.6 2.4.9l-1 .1c.7.2 1.6.6 2 1h-1l1.8.8-.8.1c.6.1 1 .4 1.6.8h-1l1.4.7c-2.8-.3-5.6.8-7.3 3 .7-.5 1.5-.7 2.2-1l-.5.8c.5-.4 1.3-.8 2-1l-.4.7 1.8-1-.4.8 1.6-.7-.4.6 1-.4a6.7 6.7 0 00-3 6l1-2v.9c.2-.7.6-1.4 1-2v1l1-2v1l1-2v.9l.4-.5.7-1 .2.3c.3.4.4 1 .5 1.9l.1-1c.4.7.8 1.8.8 2.4l.3-1 .6 2.2.4-.8.4 2.3c.8-3-.4-5-1.8-6.3.4.1.9.6 1.4 1l-.4-.9 1.5 1.4-.1-.8 1.4 1.6c0-.3 0-.7-.2-1 .5.5 1 1.1 1.3 1.8v-1c.6.6 1 1.3 1.2 1.7 0-2.7-3.1-5-6-5.3zm0 0" transform="scale(.03125 .02917)" fill-rule="evenodd" fill="#007934" stroke-width=".1" stroke="#e7e7e7"/><path d="M330.3 257.1c3-.5 7.2 2.3 7.2 5.3-.3-.4-.6-1.1-1.3-1.8v1a5 5 0 00-1.2-1.6l.3.9c-.6-.4-1-1.2-1.6-1.6l.2.8-1.5-1.4.4 1c-.6-.5-1-1-1.4-1m-1.8-1.6c-1.9-1.2-5.9-1-8.7 2.3a16 16 0 012.2-1l-.5.9c.5-.4 1.3-.8 2-1l-.4.7 1.8-1-.4.7 1.6-.6-.4.6 1-.4" transform="scale(.03125 .02917)" fill="none" stroke-width=".1" stroke-linecap="round" stroke-linejoin="round" stroke="#e7e7e7"/><path d="M329.8 256.6c-.6-2.1-3-4.8-7-4.5 1 .2 1.8.6 2.4.9l-1 .1c.7.2 1.6.6 2 1h-1l1.8.8-.8.1c.6.1 1 .4 1.6.7l-.8.1c1 .4 1 .5 1.3.7m1.4 1c-2.6.8-5 3.3-4.7 6.7 0-.4.5-1.6.8-2v1l1-2v1l1-2v1l1-2v.9a6 6 0 011-1.5m-1.6.1c0 .6-.3 1-.4 1.5m-.6-.8c0 .6-.3 1.2-.4 1.9m-.6-1l-.4 2m4-3.7v-.7" transform="scale(.03125 .02917)" fill="none" stroke-width=".1" stroke-linecap="round" stroke-linejoin="round" stroke="#e7e7e7"/><path d="M332.6 261.3v1.3m-1-3l.1 1.6m-1-2.7v1.3m5-.4l.6 1.2m-2-2.1l.7 1.5m-2-2l.8 1.3m-10.7-.8c.5-.6 1-1 1.6-1.2m0 1c.3-.6.6-.9 1.6-1.3m-.3 1c.4-.5.9-.9 1.8-1.1m-.6 1.2c.6-.6 1-.7 1.7-1m-3.6-4c.6 0 1.4.2 2 .6m-1 .4c.4 0 1.3.2 1.7.4m-1 .4c.6 0 1.3.2 2 .6m-1.3.2c.6.1 1.2.2 1.7.6m.9.2a8.9 8.9 0 018.4-1.2c-.7 0-1.6 0-2.3.2.4 0 .7.3.9.4h-2c.3 0 .6.2 1 .4a6.3 6.3 0 00-2.3 0l1 .3h-2.3l1 .3c-1 0-1.7 0-2 .2m4.7-1.6c-.6-.2-1.4-.4-2.1-.4m1 .7c-1-.3-1.8-.3-2.6-.3m1.3.7c-.9-.3-1.6-.3-2.5-.3m1.3.8c-.7-.2-1.3-.2-2 0m.8.8c.4.4.6.8.8 1.2m-3-3.2c.2-1.8 2-4.3 5.4-4.7-.8.3-1.6.7-2 1.3h1c-.6.2-1.3.8-1.7 1.2.3-.2.6-.2.9 0-.5.2-1 .5-1.4.9l.6-.1-1 .9h.6l-1 1m2-4c-.6.2-1 .5-1.6.9m1 .4c-.6 0-1 0-1.4.4m.8.4c-.5.1-1 .4-1.5.8m1 .1a3 3 0 00-1.4.8m-.4 2.4l-.4 1m1.2-2c1.8 1.7 4.1 3.8 3 7.7 0-.8-.1-1.5-.4-2.3l-.3 1c0-.8-.3-1.6-.6-2.4l-.3 1a9 9 0 00-.8-2.4v1c0-1-.4-1.8-.8-2" transform="scale(.03125 .02917)" fill="none" stroke-width=".1" stroke-linecap="round" stroke-linejoin="round" stroke="#e7e7e7"/><path d="M293.3 233.4l1.3.8.3-.6.1-.6c0-.2-.3-.4-.5-.5s-.6-.3-.8-.1l-.4.2-.2.6.1.2m1.7 1.1l1.7.8h.3l.4-.5.2-.6v-.4l-.3-.2s0-.2-.2-.2c-.8-.4-1.3-.4-1.8.3l-.3.7m-2.6-.8l.6-1.2.6-.7.6-.4h.9c.3.1.3.3.4.7.1.1.2.4.1.6.3-.2.6-.5 1-.6l1 .1c.3.3.5.5.6 1 .1.5 0 1-.4 1.7-.2.4-.4 1-.7 1.3l-.3.7-1.4-1-1.8-.9-1.5-.7.3-.6m9-10.7c-.8.5-.7 1.4.3 2.5.5.5 1 1 1.5 1 .4.2.9 0 1.3-.3s.5-.6.4-1c-.2-.5-.4-1-.8-1.4-.5-.8-1-1.1-1.4-1.2-.5 0-1 0-1.4.4m3.8-.3c.5.7.8 1.3.8 2a3 3 0 01-1.3 2c-.5.5-1.3.7-2 .7s-1.4-.4-1.8-1a3 3 0 01-.7-2c0-.6.4-1.4 1-2a2.2 2.2 0 012-.6c.8 0 1.4.4 2 .9m8-2.6l.3 1 2-.7h.2l.3.7-.6.1-2.3.7-.6.3-.6-1.7-.4-2c-.2-.5-.3-1-.6-1.4l.7-.3.7-.1.3 1.4.6 2m9.3-2.9v-1.6h.7l.8.1c-.3.6-.3 1-.4 1.8l-.1 1.8c-.2.6-.2 1.1-.2 1.6h-1.4l.3-1.7.3-2m9.8 5.4l3.1-2.9.4.3.4.1-4.8 3.7-.4-.3c0-.7 0-1.3.2-2l.4-3.8c.4.3.7.6 1.2.7l-.5 4m8.4 4l1.3-1.3.3.5.5.4-1.4 1.2-1.4 1.4-1 1-.6-.3-.4-.6 1.2-1 1.5-1.4m5 10l1.3-1.4h-2l.7 1.4m-1.1-1.3l-2 .1-.1-.4-.2-.4h5.9l.3.7c-1.4 1.3-2.7 2.8-4 4.3l-.2-.7-.4-.6 1.6-1.2-.6-.9c0-.4-.2-.6-.3-1" transform="scale(.03125 .02917)" fill="#e8a30e" stroke-width=".1" stroke="#000"/><path d="M325 280.6l-.8 2.3h-2.4l2 1.4-.8 2.2 2-1.4 1.8 1.4-.6-2.2 1.8-1.4h-2.3zm9-3.9l-.8 2.1H331l1.8 1.6-.7 2.2 2-1.4 1.9 1.4-.8-2.2 2-1.4h-2.4zm14.3-25l-1 2.4h-2.2l1.8 1.3-.6 2.3 2-1.4 1.8 1.4-.7-2.3 1.9-1.3h-2.4zm-6.8 17.9l.8 2.1h2.3l-1.9 1.5.7 2.3-2-1.3-1.9 1.3.8-2.3-2-1.5h2.4zm4.8-8.2l.7 2.2h2.3l-2 1.4.8 2.3-1.9-1.3-2 1.3.8-2.3-1.9-1.3h2.3zM315 280.6l.8 2.3h2.4l-2 1.4.7 2.2-2-1.4-1.8 1.4.6-2.2-1.8-1.4h2.3zm-9.2-3.9l.9 2.1h2.3l-2 1.6.8 2.2-2-1.4-1.9 1.4.8-2.2-2-1.4h2.4zm-14-25l.7 2.4h2.3l-1.8 1.3.6 2.3-2-1.4-1.8 1.4.7-2.3-1.9-1.3h2.4zm6.6 17.9l-.8 2.1h-2.3l1.9 1.5-.7 2.3 2-1.3 1.9 1.3-.8-2.3 2-1.5h-2.4zm-4.8-8.2l-.7 2.2h-2.3l2 1.4-.8 2.3 1.9-1.3 2 1.3-.8-2.3 1.9-1.3h-2.3zm0 0" transform="scale(.03125 .02917)" fill="#e8a30e" stroke-width=".1" stroke-linecap="square" stroke-linejoin="round" stroke="#000"/><path d="M10 7.2zm0 0M10 7.3zm0 0M10 7.2zm0 0zm0 0M10 7.2zm0 0zm0 0zm0 0" fill="#e7e7e7"/><path d="M10 7.2zm0 0" fill-rule="evenodd" fill="#e7e7e7"/><path d="M320 245.6v.4m-.3-.2h.6" transform="scale(.03125 .02917)" fill="none" stroke-width=".1" stroke="#000"/><path d="M317.1 210.3s-2.4 5.5-1.5 6c0 0 3-3.4 3.6-5.9 1-2.5 0-.3 0-.3v-2.6l-2 2.6" transform="scale(.03125 .02917)" fill="#452c25" stroke-width=".2" stroke="#000"/><path d="M317.6 207.7s-2.9 6-2.1 6.5c0 0 2.3-2.9 3-4.9.5-2.1 0-.1 0-.1l.8-3.9m1.2 1s-2.8 6.1-2.1 6.5c0 0 2.4-2.7 3-4.8.5-2.2 0-.1 0-.1l.7-4m34.6-8.4l3.6 2s.7.7-1 .3a42 42 0 01-13-6.4c-3.2-2-4.2-2-4.2-2l4.5.1zm0 0" transform="scale(.03125 .02917)" fill="#452c25" stroke-width=".1" stroke="#000"/><path d="M358 194.9l3.3 1.8s.8.7-1 .3a46.3 46.3 0 01-12.8-6.4c-3.3-2.2-.6 1.7-.6 1.7l.5-2.5 10.5 5zm0 0" transform="scale(.03125 .02917)" fill="#452c25" stroke-width=".1" stroke="#000"/><path d="M11.4 5.7h-.2-.2l-.1-.1h.3l.2.1" fill="#452c25"/><path d="M363.5 196.6s-4-.7-5.4-1.7c0 0 .1.4-1.7-.4 0 0 .7 1.6-4.8-2-5.5-4-3.6-2-3.6-2l1.6-.5 9.3 3.8c1.6.8 3.1 1.7 4.6 2.8zm0 0" transform="scale(.03125 .02917)" fill="none" stroke-width=".1" stroke="#000"/><path d="M342.6 198l1.4 2s-.5 1.8-5.1-1.7l-4.4-3.2 2.6-.2 5.6 3m-6 1.1s2 3 1.6 3.2c-.6.4-3 .2-4.8-2.5-1.9-2.8 0-.1 0-.1V195l3.3 3.8" transform="scale(.03125 .02917)" fill="#452c25" stroke-width=".1" stroke="#000"/><path d="M10.6 5.8h-.1c-.1 0 0-.1 0-.1" fill="#452c25"/><path d="M338.8 197.7s2 2.7 2 3c-.3.5-3.3.3-5.6-2.4-2.3-2.6-.3-3.4-.3-3.4l4 2.8zm0 0" transform="scale(.03125 .02917)" fill="none" stroke-width=".1" stroke="#000"/><path d="M350.6 196.2s6 2.6 1.6 2.4c0 0-8.6-2.3-13-6.1l1.2-1.7 10.2 5.1" transform="scale(.03125 .02917)" fill="#452c25" stroke-width=".1" stroke="#000"/><path d="M353.8 195.4s3 2 3.4 2.7c.2.8-10-1.9-15.3-6.3l2.4-1.2zm-9.3 1.7s2.3 2 2 2.2c-.3.3-5-.6-8.6-3.4l.4-1.6 6.2 2.8" transform="scale(.03125 .02917)" fill="#452c25" stroke-width=".1" stroke="#000"/><path d="M10.9 5.7v.1l-.3-.1h.3" fill="#452c25"/><path d="M348.4 197s2.4 1.6 1.9 1.7c-.6.2-2.3 1.7-10.8-3.3l-1-.5 1.3-2zm0 0" transform="scale(.03125 .02917)" fill="none" stroke-width=".1" stroke="#000"/><path d="M339.8 192.5s2.7 2.4 2.3 2.6c-.4.4-3.6-.2-5-1.4-1.5-1-2.6-2.4-2.6-2.4l3-.7zm0 0" transform="scale(.03125 .02917)" fill="#452c25" stroke-width=".1" stroke="#000"/><path d="M336.4 188.3l5 3s4.1 2.8 3.7 3.2c-.4.2-3.7-.8-6-2-2.2-1.4-5-4-5-4" transform="scale(.03125 .02917)" fill="#452c25" stroke-width=".1" stroke="#000"/><path d="M10.4 5.9c-.1 0 0 0 0 0zm0 0" fill="#452c25"/><path d="M333.3 202.4s1 2.4.3 2.6c-.6.3-2-.2-3-2.4-1.2-2.1.6-1.2.6-1.2zm0 0" transform="scale(.03125 .02917)" fill="none" stroke-width=".1" stroke="#000"/><path d="M334.9 200.9s1.4 2.3 1.1 2.5c-.3.3-2.3 1.1-4.3-1.8-2-3.1 2.2-2.4 2.2-2.4zm0 0" transform="scale(.03125 .02917)" fill="#452c25" stroke-width=".1" stroke="#000"/><path d="M330.8 190.4s4.7 9.3 4.3 9.8c-.4.6-2.4 0-3.4-2.5l-2-5.6zm0 0" transform="scale(.03125 .02917)" fill="#452c25" stroke-width=".1" stroke="#000"/><path d="M10.5 5.6l.1.1h-.1c-.1-.1 0 0 0 0" fill="#452c25"/><path d="M336.3 192.7s4 3.5 3.2 4c-.9.3-2.5-.4-4.8-2.6-2.3-2.3 1.6-1.4 1.6-1.4zm0 0" transform="scale(.03125 .02917)" fill="none" stroke-width=".1" stroke="#000"/><path d="M334.4 192.9s2.9 5.2 2.5 5.7c-.4.6-2.5-1.3-3.6-2.7-1-1.3-2-3.3-2-3.3m-18.4 11s-.1 3 0 3.3c.2.3 1.7.3 1.9-2 0-2.4-.4-2.5-.4-2.5l-1.5 1" transform="scale(.03125 .02917)" fill="#452c25" stroke-width=".1" stroke="#000"/><path d="M9.8 5.8V6c0-.1 0 0 0 0" fill="#452c25"/><path d="M313.8 200s-1 3.3 0 4c1 .6 2-3.4 2-4.3 0-1-2 .3-2 .3zm0 0" transform="scale(.03125 .02917)" fill="none" stroke-width=".1" stroke="#000"/><path d="M314.6 204.2s.1 3.3.8 3.5c.6.2 1.6-1 1.6-1.9 0-.8-1-2.8-1-2.8l-1.4 1.1" transform="scale(.03125 .02917)" fill="#452c25" stroke-width=".1" stroke="#000"/><path d="M314.6 200.4s-1 3.4 0 4.2c1 .7 1.9-3.4 2-4.4 0-1-2 .2-2 .2zm0 0" transform="scale(.03125 .02917)" fill="#452c25" stroke-width=".1" stroke="#000"/><path d="M9.8 5.7" fill="#452c25"/><path d="M314.8 194.9s-1.7 1.6-1.7 2.5c0 1 2.4-1.2 2.6-1.6.2-.4-1-1-1-1zm0 0" transform="scale(.03125 .02917)" fill="none" stroke-width=".1" stroke="#000"/><path d="M9.8 5.7" fill="#452c25"/><path d="M313.6 194s-1.4 2.3-1 3c.4.8 1.6-.5 2.1-1.5.7-.6-1-1.6-1-1.6zm0 0" transform="scale(.03125 .02917)" fill="none" stroke-width=".1" stroke="#000"/><path d="M10.4 5.6" fill="#452c25"/><path d="M331.5 190.8s2 3.8 1.5 4c-.6.2-1.4-.7-2.3-2-.8-1 .8-2 .8-2zm0 0" transform="scale(.03125 .02917)" fill="none" stroke-width=".1" stroke="#000"/><path d="M331.6 198.6s.6 3.4 0 3.6c-1.2.4-2-2.2-2-3.4s2-.2 2-.2zm-2.6 5.1s.3 2.6-.3 2.7c-.2.3-1 .3-2-1.8-1-2-.4-1.2-.4-1.2l2.2-1.2.5 1.2" transform="scale(.03125 .02917)" fill="#452c25" stroke-width=".1" stroke="#000"/><path d="M331.4 203.2s.2 2.5-.3 2.6c-.5 0-1.9-.8-2.5-2.4-.6-1.7 2.4-1.2 2.4-1.2zm0 0" transform="scale(.03125 .02917)" fill="#452c25" stroke-width=".1" stroke="#000"/><path d="M329 195.3s2.6 6 2.1 6.7c-.9 1.7-3.2-3.5-3.9-5.7-.8-2.1 1.7-.9 1.7-.9zm0 0" transform="scale(.03125 .02917)" fill="#452c25" stroke-width=".1" stroke="#000"/><path d="M327.8 196.3s3.4 6.5 2 6.6c-1.6.1-4.3-4.6-4.7-5.8-.5-1 2.6-.8 2.6-.8zm0 0" transform="scale(.03125 .02917)" fill="#452c25" stroke-width=".1" stroke="#000"/><path d="M327.5 197.7s1.8 6.1.6 5.6c-1-.5-2.5-5.2-2.6-6.2-.3-1 2 .6 2 .6zm6.3-8.9s2.6 4.2 1.7 4.3c-.8.2-4-2.7-4-3.2-.1-.5 2.3-1 2.3-1zm0 0" transform="scale(.03125 .02917)" fill="#452c25" stroke-width=".1" stroke="#000"/><path d="M332 189s3.5 4.8 2.4 5c-1 .2-1.1-.5-1.1-.5s-2.8-2.5-3-3c0-.7 1.6-1.5 1.6-1.5m3.5.1s2.4 2.6 1.9 3.4c-.7.8-4-3.3-4.6-3.7-.3-.5 3 .2 3 .2m-6 3.5s3.8 7.5 3 8.3c-.6.8-5-5.7-5-6.6-.2-1 2-1.7 2-1.7" transform="scale(.03125 .02917)" fill="#452c25" stroke-width=".1" stroke="#000"/><path d="M327.5 193.3s1.5 2.2 1.4 3.4c0 1.2-2.3-1.7-2.5-2.2-.1-.7 1-1.2 1-1.2zm3.1-1.2s1.1 2.4.8 3c-.3.8-2-1.4-2.5-2.2-.6-.8 1.7-.8 1.7-.8zm0 0" transform="scale(.03125 .02917)" fill="#452c25" stroke-width=".1" stroke="#000"/><path d="M325 194.5s2 1.8 1.9 3c-.1 1.1-2.8-1.6-3-2-.3-.6 1.2-1 1.2-1zm0 0" transform="scale(.03125 .02917)" fill="#452c25" stroke-width=".2" stroke="#000"/><path d="M337.3 188.4s2.7 2.4 2.3 3c-.5.3-4.4-2.4-4.9-3-.6-.5 2.6 0 2.6 0zm0 0" transform="scale(.03125 .02917)" fill="#452c25" stroke-width=".1" stroke="#000"/><path d="M334.8 188.2l2.2 1.8s2 1.4 1.8 1.8c-.4.3-3.7-1-4.2-1.8-.6-.8-.6-1.4-.6-1.4zm7.3.6s8.4 3.4 8 4.2c-.4.8-8.9-2.7-10-3.8-1.4-.8 1.8-.5 1.8-.5" transform="scale(.03125 .02917)" fill="#452c25" stroke-width=".1" stroke="#000"/><path d="M342.4 189.8s6.4 3.6 5.5 4c-.6.3-5.1-1-7.5-2.6-1.1-.6-2.3-1.6-3.3-2.4l2.8-.6 2.5 1.7zm-15.5 4.4s1.2 2.4.9 3c-.6.7-1.6-.5-2.2-1.4-.6-.8 1.3-1.6 1.3-1.6zm.4 5.4s1 3.4-.2 4.2c-1.1.6-1.9-3.6-1.9-4.5 0-1 2 .3 2 .3zm0 0" transform="scale(.03125 .02917)" fill="#452c25" stroke-width=".1" stroke="#000"/><path d="M322.3 193.8s3.4-1.5 4-1.3c0 0 1-.3 1.2-.6l1.3-1s-.6-4.3 4-3.8l11.4 1a60 60 0 016.6 2l9 4c1.3.6 2.6 1.4 4 2.2.7.6-.2.2-.2.2s-10.7-5.7-14.5-6.5c-1 0 0 1.1 0 1.1l-3.4-1.3a6 6 0 00-3-.6c-.7 0-1.4 0-2-.4-.7-.1-4-.2-4.4-.4l-1-.1.2.4-1.6-.3-.5.7s-1.5.3-1.6-.3c0-.4-1 2.4-1.3 3.1-.4 1-1.9 1-2.3 1.4l-1 .9c-.2.1-1.3.8-1.7.8l-2.9.1-.6-.9zm4.6 10l-.1 3.3c-.2.2-1.8 0-1.8-2.2 0-2.3.5-2.4.5-2.4l1.5 1.2" transform="scale(.03125 .02917)" fill="#452c25" stroke-width=".1" stroke="#000"/><path d="M327.3 201.4s-.3-1.4-.6-1.6c-.2-.2 0-.2 0-.2s-.4-1.5-.8-1.7c-.3-.2.1-.4.1-.4s-.6-1-1-1.2c-.4-.4 0-.4 0-.4s-.5-1.2-1.5-1.8c0 0-.8-.7-1.4-.8-.7-.3-2.4-.4-4.5-.4-2.2 0-3.2 1.6-3.2 1.6l-.1 1.7.3-.3-.5 2.3c0 .6.5 1.4.5 2.6v.9c.1 1 .4 2 .8 3v0c.2 0 .5.7.7 1.1 0 0 0 1 .1.6l.7 1c0 .3.5 1.5.5 1s.4 1.3.4 1.5l.4-.7.3.8h.5l-.3.8s1.3-1 1.4-1.3v-.7l.4-.4.6-1s1.5 1.3 1.6 1.7l.4.8.4-.4.3.8.3-.4.1.6.2.3c.1.1.4.1.9-.7.4-.9.4-1.8.4-1.8 0-.4.4 0 .4 0s.6-.8.5-1.5c0-.7.3-.4.3-.4v-2.2c0-.4.4-.4.4-.4l-.3-2.2c-.3-.2.3-.2.3-.2zm0 0" transform="scale(.03125 .02917)" fill="#452c25" stroke-width=".1" stroke="#000"/><path d="M10.1 5.7v.1m0 0V6m.1 0"/><path d="M9.7 5.7" fill="#452c25"/><path d="M310.8 194.3s-1 3.2-.3 3.5c1.3.7 2-2.3 2.3-3.2 0-1.2-2-.3-2-.3zm0 0" transform="scale(.03125 .02917)" fill="none" stroke-width=".1" stroke="#000"/><path d="M9.8 5.7" fill="#452c25"/><path d="M312.6 194.3S311 196 311 197s2.4-1.4 2.6-1.8c.1-.2-1-.8-1-.8zm0 0" transform="scale(.03125 .02917)" fill="none" stroke-width=".1" stroke="#000"/><path d="M285 194.5s-3.3 1.7-3.6 2.4c-.3.6 10-1 15.9-5l-2.4-1.5-9.8 4zm0 0" transform="scale(.03125 .02917)" fill="#452c25" stroke-width=".1" stroke="#000"/><path d="M9 5.7s-.2 0 0 0l.4-.1H9" fill="#452c25"/><path d="M289 195.1s-6 2.3-1.8 2.4c0 0 8.8-1.8 13.4-5.4l-1.1-1.7zm0 0" transform="scale(.03125 .02917)" fill="none" stroke-width=".1" stroke="#000"/><path d="M298 189s-6.5 3.5-5.8 3.7c.7.4 5.3-.6 7.7-2l3.4-2.4-3-.8-2.4 1.6zm-2.5 7.3s-2.3 2-2 2c.3.3 5-.4 8.6-3.3l-.5-1.7-6.2 2.9" transform="scale(.03125 .02917)" fill="#452c25" stroke-width=".1" stroke="#000"/><path d="M9.1 5.7h.3v-.1l-.3.1" fill="#452c25"/><path d="M291.5 196s-2.3 1.7-1.8 1.8c.6.1 2.4 1.5 10.7-3.9l1-.6-1.5-2zm0 0" transform="scale(.03125 .02917)" fill="none" stroke-width=".1" stroke="#000"/><path d="M9 5.5a2 2 0 00-.4.2l.6-.2m.3.3V6h.1v-.1zm0 0" fill="#452c25"/><path d="M305 200.4s-1.5 2.2-1.3 2.5c.4.3 2.2 1.2 4.4-1.7 2-3-2-2.5-2-2.5zm0 0" transform="scale(.03125 .02917)" fill="none" stroke-width=".1" stroke="#000"/><path d="M306.6 202s-1 2.4-.5 2.6c.6.3 2 0 3.1-2.2 1.3-2.2-.4-1.1-.4-1.1l-2 .7zm-3.4-3.5s-2 2.7-1.6 3c.4.5 3 .5 4.9-2.3 1.9-2.6 0 0 0 0l-.5-2.5-2.8 1.6" transform="scale(.03125 .02917)" fill="#452c25" stroke-width=".1" stroke="#000"/><path d="M301.3 197.1s-2.3 2.6-2 3c0 .5 3 .3 5.4-2.2 2.6-2.5.6-3.4.6-3.4l-4 2.5" transform="scale(.03125 .02917)" fill="#452c25" stroke-width=".1" stroke="#000"/><path d="M9.3 5.8h.1l.1-.1h-.2" fill="#452c25"/><path d="M297.3 197.1l-1.3 2s.3 2 5.1-1.4l4.5-3-2.6-.5zm0 0" transform="scale(.03125 .02917)" fill="none" stroke-width=".1" stroke="#000"/><path d="M282.3 194.5l-3 1.3s-.8.5 1 .7c1.7 0 5.4-.6 11.8-4 2.8-1.7 4.6-3.3 4.6-3.3l-2.3-.8zm0 0" transform="scale(.03125 .02917)" fill="#452c25" stroke-width=".1" stroke="#000"/><path d="M8.7 5.7H9c.2-.2 0 0 0 0l.2-.2-.5.1-.1.1" fill="#452c25"/><path d="M290.3 192.5l7.2-4.2-.4-.8-14.7 6.2-5.4 2.6s4.4-.4 6-1.4c0 0-.3.4 2-.4 0 0-1.1 1.8 5.3-2zm0 0" transform="scale(.03125 .02917)" fill="none" stroke-width=".1" stroke="#000"/><path d="M308.5 202s-.4 3.4.1 3.4c.5.2 2-.9 2.6-2.9.6-2.1-2.4-2-2.4-2l-.4 1.3" transform="scale(.03125 .02917)" fill="#452c25" stroke-width=".2" stroke="#000"/><path d="M9.7 6h.1v-.1" fill="#452c25"/><path d="M310.8 203.4s-.3 2.4 0 2.7c.4.3 1.3.4 2.3-1.6s.5-1.3.5-1.3l-2.4-1.2zm0 0" transform="scale(.03125 .02917)" fill="none" stroke-width=".1" stroke="#000"/><path d="M9.7 5.8v.1c.1-.1 0-.1 0-.1" fill="#452c25"/><path d="M311.4 199s-1.9 4-.8 4c1 0 2.5-3 2.6-3.7.3-.7-1.8-.3-1.8-.3zm0 0" transform="scale(.03125 .02917)" fill="none" stroke-width=".1" stroke="#000"/><path d="M9.7 5.8v0" fill="#452c25"/><path d="M311.3 199s-.8 4.4.2 4c1-.4 1.6-3.7 1.8-4.4 0-.7-2 .4-2 .4zm0 0" transform="scale(.03125 .02917)" fill="none" stroke-width=".1" stroke="#000"/><path d="M9.8 5.8V6c0-.1 0 0 0 0" fill="#452c25"/><path d="M312.8 199.4s-1 3.5 0 4.2c1 .6 1.8-3.4 2-4.3 0-1-2 .1-2 .1zm0 0" transform="scale(.03125 .02917)" fill="none" stroke-width=".1" stroke="#000"/><path d="M308.4 198.3s-1 3.3-.4 3.5c1.3.6 2.3-2.2 2.4-3.3.1-1.2-2-.2-2-.2zm-7.9-6.6s-2.8 2.4-2.5 2.8c.3.4 3.6-.3 5.1-1.4l2.1-1.4-2.4-1.7zm0 0" transform="scale(.03125 .02917)" fill="#452c25" stroke-width=".1" stroke="#000"/><path d="M303 189.2s-1.8 1.6-1.5 2c.4.3 3.6-1 4.3-1.7.4-.7.4-1.3.4-1.3zm0 0" transform="scale(.03125 .02917)" fill="none" stroke-width=".1" stroke="#000"/><path d="M304.9 189s-2.5 2.1-1.9 3c.6.6 4-2.8 4.5-3.2.5-.4-2.9 0-2.9 0" transform="scale(.03125 .02917)" fill="#452c25" stroke-width=".1" stroke="#000"/><path d="M303.8 188.2l-5 2.2s-4.2 2.9-3.8 3.1c.4.3 3.8-.6 6-1.7 1.8-1 3.4-1.9 5-3m-.9 2s-5.4 4.7-4.5 5.1c.8.4 4.4-1.4 6.8-3.7" transform="scale(.03125 .02917)" fill="#452c25" stroke-width=".1" stroke="#000"/><path d="M305.8 192.5s-3 5-2.7 5.4c.4.6 2.6-1.2 3.6-2.4 1.2-1.3 2-3.2 2-3.2" transform="scale(.03125 .02917)" fill="#452c25" stroke-width=".1" stroke="#000"/><path d="M307.6 192.9s-3.4 6-3 6.5c.4.6 2.4.2 3.5-2.3 1.1-2.4 1-4 1-4zm0 0" transform="scale(.03125 .02917)" fill="#452c25" stroke-width=".1" stroke="#000"/><path d="M309.5 193.1s-3.8 7.7-3 8.3c.8.8 4.8-5.7 5-6.5.3-1.6-2-2-2-2m-7.8-4.9s-3.2 1.6-2.6 2c.6.3 3.8-1.2 4.1-1.2.6-.1-1.4-.8-1.4-.8zm0 0" transform="scale(.03125 .02917)" fill="#452c25" stroke-width=".1" stroke="#000"/><path d="M302.3 188.6s-2 1.6-1.6 2c.4.5 3.6-1.2 4-1.8.7-.4-2.4-.2-2.4-.2zm4.3.2s-2.9 3.7-2 3.8c.9.3 4.1-2.4 4.1-2.8 0-.6-2-1-2-1zm0 0" transform="scale(.03125 .02917)" fill="#452c25" stroke-width=".1" stroke="#000"/><path d="M307.8 189.6s-3 3.7-2 4c.7.2 1-.3 1-.3s2.2-2 2.3-2.6c.1-.5-1.2-1.2-1.2-1.2" transform="scale(.03125 .02917)" fill="#452c25" stroke-width=".1" stroke="#000"/><path d="M308.8 190.4s-2.2 3.8-1.7 4c.6.3 1.5-.7 2.4-1.8.9-1-.8-2.2-.8-2.2zm0 0" transform="scale(.03125 .02917)" fill="#452c25" stroke-width=".1" stroke="#000"/><path d="M309.3 192.2s-1.3 2.3-1 3c.4.7 1.6-.5 2.2-1.3.6-.8-1.3-1.7-1.3-1.7zm.4 6.5s-.7 3.3 0 3.5c1.2.7 2-2.2 2-3.2.2-1.2-2-.2-2-.2zm0 0" transform="scale(.03125 .02917)" fill="#452c25" stroke-width=".1" stroke="#000"/><path d="M315.8 194.5s-1-.4-1.6-.4c0 0-2-1.4-3-1.6-1 0 0-.2 0-.2s-.2-2.4-.4-2.7c0 0-.2-2.4-1.8-2.5-1.6-.1-5.1.1-5.8-.1s-2.4-1-6.2 0c-3.8 1-11.3 4.3-11.6 4.4-.4 0 8.5-2 11-3l3.4-.5s-3 1.3-.3.8c2.6-.7 2 0 2 0s-.3.5 1.3.3c1.4-.4 1.4 0 1.4 0s1.7.6 3-.2c0 0 .7 2.3 1.6 2.6 0 0 1 2.3 3 2.7l1.3.8 1.1.4 1.4-1" transform="scale(.03125 .02917)" fill="#452c25" stroke-width=".1" stroke="#000"/><path d="M298.3 188s-8.6 3-8.3 4c.4.7 9-2.5 10.3-3.3 1.4-1-2-.7-2-.7" transform="scale(.03125 .02917)" fill="#452c25" stroke-width=".1" stroke="#000"/><path d="M9.8 5.7h.1m0 .1"/><path d="M316.6 213.9s-1 .7-1 1l-.2.9s.9-.2.7.2c0 0 .3.2.8-.8.4-1 .9-1.5 1.1-1.5.4 0 .8.5 1 .6.3.3.4.4.8.3 0 0-.4-.6-.2-.7l.6-.2s-.3-.6-1-.8c-.4 0-1-.2-1-.5.3-.3 1-2.4 1-2.4l-1-1.5-.4 1.4.2.9-1 2.1s-2.4 1-2.8 1l-.7 1v.5s.3-.4.4-.3c0 0 .4-.3.6-.1h.1l.5-.3.1-.1h.6" transform="scale(.03125 .02917)" fill="#bd8759" stroke-width=".1" stroke="#000"/><path d="M10.1 6.1v.2h.1V6H10" fill="#bd8759"/><path d="M323.1 209v2.3c0 .3 0 .8-.2 1.1-.1.3-.4.5-.6.5-.4 0-1 0-1.3.3l-.3.4s.6-.3.6 0l-.2.6.9-.2.8-.2h.4v1.2c0 .4 0 1.2.3 1.2l.4-.6.5.6-.1-1.2-.3-1.1 1.5.7.5.4c.1 0 0-.4.3-.4.2-.2.3 0 .3 0s-.4-.9-1-1.1c-.5-.4-1-.4-1.2-.6l-.3-.9v-2.8zm0 0" transform="scale(.03125 .02917)" fill="none" stroke-width=".1" stroke="#000"/><path d="M9.8 5.8l.1-.1h.1V6h-.1v-.1zm0 0" fill="#dcddde"/><path d="M317.8 212l-.2-.1m.6-1h-.3m0 .6h.2m5.5.5l.5.1m-.2-.5h-.3m.4-.5a.4.4 0 01-.5 0m0 1.8h.4m-.4.6h.3m-.2 1.6h.3m-5.1-2l-.3.1m1-.1c-.1.1-.3.2-.3.4m-4.4.5l.3.3m10-1c-.2 0-.4.2-.4.3m.8-.1v.3" transform="scale(.03125 .02917)" fill="none" stroke-width=".1" stroke="#000"/><path d="M9.8 6.3" fill="#d9c0b9"/><path d="M313.4 215h.6l-.3.8c0 .2-.4-.3-.2-.7zm0 0" transform="scale(.03125 .02917)" fill="none" stroke-width=".1" stroke="#000"/><path d="M315.6 215.5s-.7 1 .1 1.5c0 0 0-1 .6-1.1l-.8-.4zm0 0" transform="scale(.03125 .02917)" fill="#d9c0b9" stroke-width=".1" stroke="#000"/><path d="M10 6.3" fill="#d9c0b9"/><path d="M319.6 214.6l-.2-.6.2-.2h.6s.4.8 0 1.2c0 0 0-.4-.2-.4zm0 0" transform="scale(.03125 .02917)" fill="none" stroke-width=".1" stroke="#000"/><path d="M10 6.2" fill="#d9c0b9"/><path d="M321 213.3h.3v.7l-.2.2s-.5-.2-.4.5c0 0-.3-1.2.2-1.4zm0 0" transform="scale(.03125 .02917)" fill="none" stroke-width=".1" stroke="#000"/><path d="M10.1 6.3" fill="#d9c0b9"/><path d="M323.5 215.9l.4-.4.4.3-.3 1.2-.3-.4zm0 0" transform="scale(.03125 .02917)" fill="none" stroke-width=".1" stroke="#000"/><path d="M326 214.8l.5 1s.6-.6-.3-1.5l-.3.5zm0 0" transform="scale(.03125 .02917)" fill="#d9c0b9" stroke-width=".1" stroke="#000"/><path d="M10.1 5.7v.1M10 6v-.1m0 0V6m.2-.1V6m0 0v.1m-.3-.2"/><path d="M10 5.7v.1m-.1 0v-.1m.1.1M10 5.8v-.1m0 0h-.1m0 .1M10 5.8v-.1m0 0h-.1m0 .1l.2-.1H10m0 .1M10 5.8v-.1m-.1.1V6m0 0v-.1m0 0h.1m0 0v-.1m0 0h-.1m0 0M10 5.7v.1m-.1 0v-.1m.1 0M10 5.7a.2.2 0 01-.1 0" fill="#fff"/><path d="M10 5.7H9.7v.1H10" fill="#dba05f"/><path d="M318.5 196.2l-2.3.4-1.7.1-1.3-.4c-.3 0-1.6-.1-2 .4l-1 .8s-.6.6-.6.8.1.6.4.6.9.7.9.7c0 .4.9.5 1.5.5 1.4 0 2-.7 4-.5 1 .2 3-.7 3.4-1.3.4-.4.6-.9.2-1.6-.3-.6-1.4-.5-1.5-.5zm0 0" transform="scale(.03125 .02917)" fill="none" stroke-width=".1" stroke="#000"/><path d="M9.7 5.8"/><path d="M312.9 196.5s0-.6-.6-.8c-.6-.2-1-.2-1.3-.2l-.5.2-.6.2-.1.2c0 .2-.4.4-.3.6.3.3 0 .3.3.3 0 0-1 .3-1 .8.4.5.6.4.7.3l.5-.2.8-.8 1-.4h.4zm0 0" transform="scale(.03125 .02917)" fill="#c6262c" stroke-width=".1" stroke="#000"/><path d="M9.8 5.8"/><path d="M9.6 5.8h.1" fill="#d9c0b9"/><path d="M308.6 200.2s-.7-1.2 1.1-1.9l1 .7s-.4.6-1.6.7c0 0-.5.1-.5.5zm0 0" transform="scale(.03125 .02917)" fill="none" stroke-width=".1" stroke="#000"/><path d="M9.6 5.8h.1" fill="#d9c0b9"/><path d="M308.8 200s.8.2 1.3-.2c.5-.2.6-.2.6-.1v-.7l-1 .6c-.4 0-.8 0-1 .4zm0 0" transform="scale(.03125 .02917)" fill="none" stroke-width=".1" stroke="#000"/><path d="M9.7 5.8h.1m.1 0" fill="#7a2e26"/><path d="M9.7 5.8" fill="#5e3f17"/><path d="M9.7 5.8" fill="#842116"/><path d="M9.999999999999998 5.8" fill="#7a2e26"/><path d="M10.1 6.1zm0 0" fill="#452c25"/><path d="M9.8 5.7l-.2-.1h-.1-.1c-.1 0 0-.1 0-.1h-.1H9l-.2.1h-.2.3l.3-.1a.4.4 0 01.2 0h.2v.1h.5s0-.2.2-.1H11l.1.1h.1l.2.1h-.1-.2l-.2-.1h-.1a.1.1 0 01-.2 0v-.1h-.2v.1h-.2H9.8" fill="#dcddde"/><path d="M314.4 195c-1.6 0-3.3-1-3.3-1-1.2-.2-2.2-1.1-2.4-2.3-.7-.4-1.4-2.6-1.4-2.6-1.4.7-3 0-3 0s0-.4-1.6 0c-1.4.3-1.2-.3-1.2-.3s.6-.6-2 0 .3-.8.3-.8l-3.4.4c-.9 0-1.8.4-2.8.8l-2.4.6-6.7 3-5.5 2c.3 0 3.4-2 7.5-4 3.4-1.4 6.8-2.8 10.3-3.8 2-.7 4.4-.7 6.4 0 .7.2 4.3 0 5.8 0 1.6.4 1.8 3 1.8 3 .3 0 .4 2.5.4 2.5s-1 0 0 0c1 .4 3 1.8 3 1.8h.7s.4-.5.9-.6l1.4-.6a5 5 0 012 0l2 .3 1.3.3h.5c1-.4 3-1.2 3.4-1.1 0 0 .7-.1 1.1-.5l1.3-1s-.6-4.5 4-4l11.4 1.2c2.2.4 4.4 1 6.6 1.7l5 2.5 4 1.7c2.4 1 4 2.4 4 2.4l-3.6-1.7-2.6-1-3.6-1.7c-3.5-1.6-3.5-1.8-4.9-1.8-1 0 .6 1.3.6 1.3l-4-1.8c-1-.4-2-.5-3-.5-.7.1-1.4 0-2-.3s-4-.3-4.4-.4c-.4 0-.8-.1-1-.3v.4l-1.4-.2-.5.6s-1.5.4-1.6 0c0-.6-1 2-1.3 2.9-.4.8-2.3.6-2.8 1-.3.6-1.3 1-1.4 1h-1.4c-.6 0-.1 0-1 .4 0 0-.9 0-1.1-.3l-1.6-.4-3.4-.1c-1 0-2 .4-2.7 1" transform="scale(.03125 .02917)" fill="#e7e7e7" stroke-width=".1" stroke="#000"/><path d="M9.8 5.7" fill="#452c25"/><path d="M10.1 5.7" fill="#574f4c"/></svg>