<svg xmlns="http://www.w3.org/2000/svg" width="20" height="14"><path fill="#229e45" d="M0 0h20v14H0z"/><path d="M10 12.7L19.5 7 10 1.3.5 7zm0 0" fill-rule="evenodd" fill="#f8e509"/><path d="M14.1 7c0 2-1.7 3.7-4 3.7-2.1 0-4-1.7-4-3.7s1.9-3.7 4-3.7c2.3 0 4 1.6 4 3.7zm0 0" fill-rule="evenodd" fill="#2b49a3"/><path d="M8.9 9.2H8.6V9l.1-.1h.1l.1.1m2.6.9l-.1-.1h-.1l-.1-.2h.1l.1-.1v.1h.2l-.1.1m-1.1-.9h-.2l-.1-.2H10.4v.1m2.7-.2h-.2v-.1l-.1-.1h.1v-.1h.1l.1.1m-2.8-.6h-.2v-.1l-.1-.1h.1l.1-.1.2.1-.1.1M7 6.6h-.2v-.2l.1-.2v.1h.2v.1m.3 1.7h-.2v-.2l.1-.2V8h.2m4-1.9h-.2v-.2l.1-.1v.1h.2M11.2 7H11v-.2H11.5l-.1.1M6.9 8.4h-.2V8l.1.1H7v.1m6.2.4H13v-.1h.1" fill-rule="evenodd" fill="#ffffef"/><path d="M6.9 8.4h-.2V8l.1.1H7v.1" fill-rule="evenodd" fill="#ffffef"/><path d="M6.9 8.4h-.2V8l.1.1H7v.1m1.3 0H8V8l.1.1h.1v.1m-.2.5h-.2v-.1l.1-.2v.1h.2l-.1.1m2.7-.6h-.2v-.2H10.8h-.1m-.8.2h-.2v-.2H10m-2.2-.1h-.1v-.1M13 9.1h-.2v-.2H13.2 13m-.7.2h-.1V9h.1m.3.1h-.1v-.2l.1.1m1-.6h-.1l-.1-.1h.1m-1.2 1.3h-.1v-.2h.2-.1m0 .5h-.1v-.2h.2v.1m-.7-.7h-.1V9h.1m-.5.1H11l.1-.1h.1m-1-.6H10v-.2h.1m.1 1.7h-.1v-.1h.1M8.9 7.5l-.2-.1h-.1V7l.1-.1.1.1h.1v.1" fill-rule="evenodd" fill="#ffffef"/><path d="M13.9 8.3l.2-.5a10.2 10.2 0 00-7.5-2.5 3.5 3.5 0 00-.3.6A10 10 0 0114 8.3zm0 0" fill-rule="evenodd" fill="#fff"/><path d="M13 7.4v.1a.1.1 0 00.1 0 .3.3 0 010-.2.1.1 0 010-.1.3.3 0 01.1 0l.1.1a.1.1 0 010 .1v-.1a.1.1 0 00-.2 0l.1.1v.2H13a.2.2 0 01-.1 0v-.1a.2.2 0 010-.1zm-.4-.3v.1l.2.1v-.1a.2.2 0 01-.1-.1.1.1 0 010-.1.1.1 0 01.1 0h.2a.1.1 0 010 .2h-.1V7a.1.1 0 00-.1 0 .4.4 0 010 .1.1.1 0 010 .1.2.2 0 01-.2 0 .2.2 0 010-.2zm-.5 0l.3-.4.2.1V7l-.2-.1.1.2h-.2l.2.1zm-.6-.6h.2v.2h-.2a.2.2 0 01-.2-.1.1.1 0 010-.1.2.2 0 010-.1.2.2 0 01.1 0 .2.2 0 01.1-.1h.2a.1.1 0 010 .2v-.1a.1.1 0 00-.1 0 .1.1 0 00-.1 0h-.1v.1a.1.1 0 000 .1h.2zM8.7 6v-.4H9v.3l.1-.3h.1V6H9v-.3.3h-.2v-.3.3zm-.5 0v-.5h.4v.1h-.3l.3.1h-.3v.2h.3zm-1.4-.3v-.1a.2.2 0 010-.1.4.4 0 01.2 0H7a.2.2 0 010 .2.2.2 0 010 .1.2.2 0 01-.1 0 .2.2 0 01-.2 0 .2.2 0 010-.1zm0 0" fill="#309e3a"/><path d="M6.9 5.6a.1.1 0 000 .1h.2v-.1-.1a.1.1 0 00-.1 0 .1.1 0 00-.1 0zm0 0" fill="#f7ffff"/><path d="M7.3 5.8v-.4H7.6v.1a.2.2 0 010 .1.4.4 0 010 .1v.1-.1h-.1-.1zm0 0" fill="#309e3a"/><path d="M7.4 5.6h.1v-.1h-.1zm0 0" fill="#fff"/><path d="M7.8 5.4h.1a.4.4 0 01.1 0l.1.1a.2.2 0 010 .1.2.2 0 010 .1l-.1.1h-.2zm0 0" fill="#309e3a"/><path d="M7.9 5.5v.2H8v-.2zm0 0" fill="#fff"/><path d="M10 6.1v-.4h.2a.1.1 0 01.1.1V6a.1.1 0 01-.1.1.6.6 0 01-.1 0v.2zm0 0" fill="#309e3a"/><path d="M10 5.8V6h.2-.1zm0 0" fill="#fff"/><path d="M10.3 6.2l.2-.3h.1a.4.4 0 01.1 0V6a.1.1 0 010 .1.1.1 0 010 .1v.2h-.1v-.2h-.1zm0 0" fill="#309e3a"/><path d="M10.5 6h.1-.1zm0 0" fill="#fff"/><path d="M10.8 6.2a.2.2 0 01.1 0V6h.1a.3.3 0 01.1 0 .2.2 0 01.1 0v.2a.2.2 0 010 .2.2.2 0 01-.2 0 .2.2 0 01-.1-.1.2.2 0 010-.2zm0 0" fill="#309e3a"/><path d="M11 6.3v.1a.1.1 0 00.1 0v-.2a.1.1 0 00-.1 0zm0 0" fill="#fff"/><path d="M11.7 6.8l.2-.4.2.1v.1a.1.1 0 010 .1.2.2 0 01-.1 0 .3.3 0 010 .2.5.5 0 000-.2h-.1l-.1.1zm0 0" fill="#309e3a"/><path d="M11.9 6.6h.1zm0 0" fill="#fff"/><path d="M13.3 7.5a.2.2 0 01.1 0 .2.2 0 01.1 0h.1l.1.1v.2a.2.2 0 01-.3 0l-.1-.1v-.2zm0 0" fill="#309e3a"/><path d="M13.4 7.6v.1s0 .1.1 0h.1v-.2a.1.1 0 00-.1 0h-.1zm0 0" fill="#fff"/><path d="M9.4 6l.1-.3h.2-.1V6zm0 0" fill="#309e3a"/></svg>