<svg xmlns="http://www.w3.org/2000/svg" width="20" height="14"><g fill-rule="evenodd"><path d="M0 0h30v9.3H0zm0 0" fill="#b20000"/><path d="M0 9.3h30V14H0zm0 0" fill="#429f00"/><path d="M0 0h3.3v14H0zm0 0" fill="#fff"/><path d="M.2.2h.1v.3H.2zm.4 0h.5v.3H.6zM.8 0h.1v.2H.8zm.8 0h.1v.2h-.1zm.6.2h.5v.3h-.5zm.2-.2h.1v.2h-.1zM.4.5h.4v.2H.5zm.5 0h.4v.2H.9zm1.2 0h.3v.2H2zm.4 0h.3v.2h-.3zM.3.7h.3V1H.3zm.8 0h.3V1h-.3zm.8 0h.3V1H2zm.8 0H3V1h-.3zM3 .2h.2v.3H3zM.2 1h.3v.2H.2zm1 0h.4v.2h-.3zm1.6 0h.4v.2h-.4zm-2.5.7h.3v.2H.3zm.2.2h.3v.2H.5zm.6-.2h.3v.2h-.3zm-.2.2h.4v.2H.9zm-.3.2h.5v.3H.6zm.2.3h.1v.2H.8zm1.1-.7h.3v.2H2zm.2.2h.3v.2H2zm.6-.2H3v.2h-.3zm-.2.2h.3v.2h-.3zm-.3.2h.5v.3h-.5zm.2.3h.1v.2h-.1zM1.6 2h.1v.3h-.1zM0 2.1h.2v.3H0zm3.2 0h.1v.3h-.1zM.8 3.3h.1v.3H.8zm-.2.3h.5v.2H.6zm-.1.2h.8V4H.5zm1.9-.5h.1v.3h-.1zm-.2.3h.5v.2h-.5zm-.1.2h.7V4h-.7zM2.2 5H3v.2h-.8zM2 4H3v.3H2zM.3 4h1.1v.3h-1zm.2 1.2h.4v.3H.5zM.3 5h.8v.2H.3zm2.2-.5h.8v.2h-.8zm-.1.7h.4v.3h-.4zm0 0" fill="#b20000"/><path d="M.6 5.5h.2v.2H.6zm2 0v.2zM0 4.5h.8v.2H0zm1.4.5H2v.2h-.5zm.2.2h.1v.3h-.1zM1 4.5h1.1v.2h-1zM1.7 1h.4v.3h-.4zm-.3.3H2v.2h-.5zm-.1.2h.3v.3h-.3zm.4 0h.4v.3h-.4zM0 1.2h.3v.2H0zm.2.2h.3v.3H.2zM3 1.2h.3v.2H3zm-.2.2h.4v.3h-.4zM0 3.6h.2v.2H0zm3.2 0h.1v.2h-.1zM1.4 5.5H2v.2h-.5zm-.1.2h.3v.2h-.3zm.4 0h.4v.2h-.4zm-.6.2h.3v.3h-.3zM2 6h.3v.3H2zm-1 .3h.4v.2H.9zm1.2 0h.3v.2H2zm-1.3.2H1v.2H.8zm1.4 0h.3v.2h-.3zm-1.7.2h.4V7H.5zm1.9 0h.4V7h-.4zm.3-.2H3v.2h-.3zm.1-.2h.4v.2h-.4zm.2-.3h.3v.3H3zm-2.7.5h.3v.2H.3zm-.1-.2h.3v.2H.2zM0 5.9h.3v.3H0zm.6 1h.2V7H.6zm2 0V7zm-1-.7h.1v.2h-.1zm-.5.7h.2V7H1zm1 0h.1V7h-.1zm-.5 0h.1V7h-.1zM0 6.9h.2V7H0zm3.2 0h.1V7h-.1zM1.6 3.6h.1v.2h-.1zM.8 1.2h.1v.2H.8zm1.6 0h.1v.2h-.1zm-1 1.6H2v.3h-.5zm-.3.3h.5v.2H1zm.2.2h.1v.3h-.1zm-.4-.5h.4v.3H.9zm.2-.2h.5v.2H1zm.2-.2h.1v.2h-.1zm.4.2h.5v.2h-.5zm.2-.2h.2v.2h-.2zm.2.4h.3v.3H2zm-.4.3h.5v.2h-.5zm.2.2h.2v.3h-.2zm.6-.5h.3v.3h-.3zm.2-.2h.5v.2h-.5zm.3.2h.3v.3H3zm-.3.3h.5v.2h-.5zm.1.2H3v.3h-.2zm0-1H3v.3h-.2zM0 2.9h.3v.3H0zm.2-.2h.4v.2H.2zm.3.2h.3v.3H.5zm-.3.3h.4v.2H.2zm0 0" fill="#b20000"/><path d="M.3 3.3h.2v.3H.3zm0-1h.2v.3H.3zm-.1 2h.6v.2H.2zm.8 0h.6v.2H.9zm.7 0h.7v.2h-.7zm.8 0h.7v.2h-.7zm-1.2.4H2V5h-.8zm-1.1 0H1V5H.1zm2.2 0h.8V5h-.8zm.8 1h.1v.2h-.1zM0 5.7h.2v.2H0zm.2 8h.1v-.2H.2zm.4 0h.5v-.2H.6zm.2.3h.1v-.2H.8zm.8 0h.1v-.2h-.1zm.6-.2h.5v-.3h-.5zm.2.2h.1v-.2h-.1zm-2-.5h.4v-.2H.5zm.5 0h.4v-.2H.9zm1.2 0h.3v-.2H2zm.4 0h.3v-.2h-.3zm-1.4-.2h.3V13h-.3zm.8 0h.3V13H2zm.8 0H3V13h-.3zm.3.5h.2v-.3H3zM.2 13h.3v-.2H.2zm1 0h.4v-.2h-.3zm1.6 0h.4v-.2h-.4zm-2.5-.7h.3v-.2H.3zm.2-.2h.3v-.2H.5zm.6.2h.3v-.2h-.3zm-.2-.2h.4v-.2H.9zm-.3-.2h.5v-.3H.6zm.2-.3h.1v-.2H.8zm1.1.7h.3v-.2H2zm.2-.2h.3v-.2H2zm.6.2H3v-.2h-.3zm-.2-.2h.3v-.2h-.3zm-.3-.2h.5v-.3h-.5zm.2-.3h.1v-.2h-.1zm-.8.3h.1v-.3h-.1zm-1.6 0h.2v-.3H0zm3.2 0h.1v-.3h-.1zM.8 10.7h.1v-.3H.8zm-.2-.3h.5v-.2H.6zm-.1-.2h.8V10H.5zm1.9.5h.1v-.3h-.1zm0 0" fill="#b20000"/><path d="M2.2 10.4h.5v-.2h-.5zm-.1-.2h.7V10h-.7zM2.2 9H3v-.2h-.8zM2 10H3v-.3H2zM.3 10h1.1v-.3h-1zm.2-1.2h.4v-.3H.5zM.3 9h.8v-.2H.3zm2.2.5h.8v-.3h-.8zm-.1-.7h.4v-.3h-.4zM0 9.5h.8v-.3H0zM1.4 9H2v-.2h-.5zm.2-.2h.1v-.3h-.1zm-.5.7h1.1v-.3h-1zm.6 3.5h.4v-.2h-.4zm-.3-.2H2v-.2h-.5zm-.1-.2h.3v-.3h-.3zm.4 0h.4v-.3h-.4zm-1.7.2h.3v-.2H0zm.2-.2h.3v-.3H.2zm2.8.2h.3v-.2H3zm-.2-.2h.4v-.3h-.4zM0 10.4h.2v-.2H0zm3.2 0h.1v-.2h-.1zm-2-2h.4V8h-.3zm.5 0h.4V8h-.4zM1.1 8h.3v-.3h-.3zM2 8h.3v-.3H2zm-1-.3h.4v-.2H.9zm1.2 0h.3v-.2H2zM.8 7.6H1v-.2H.8zm1.4 0h.3v-.2h-.3zM.5 7.4h.4V7H.5zm1.9 0h.4V7h-.4zm.3.2H3v-.2h-.3zm.1.2h.4v-.2h-.4zm.2.3h.3v-.3H3zM.3 7.6h.3v-.2H.3zm-.1.2h.3v-.2H.2zm-.2.3h.3v-.3H0zm.6-1h.2V7H.6zm1 .7h.1v-.2h-.1zm0 2.6h.1v-.2h-.1zm-.8 2.4h.1v-.2H.8zm1.6 0h.1v-.2h-.1zm-1-1.6H2v-.3h-.5zm-.3-.3h.5v-.2H1zm.2-.2h.1v-.3h-.1zm-.4.5h.4v-.3H.9zm.2.2h.5v-.2H1zm.2.2h.1v-.2h-.1zm.4-.2h.5v-.2h-.5zm.2.2h.2v-.2h-.2zm.2-.4h.3v-.3H2zm-.4-.3h.5v-.2h-.5zm.2-.2h.2v-.3h-.2zm.6.5h.3v-.3h-.3zm.2.2h.5v-.2h-.5zm.3-.2h.3v-.3H3zm-.3-.3h.5v-.2h-.5zm.1-.2H3v-.3h-.2zm0 1H3v-.3h-.2zM0 11.1h.3v-.3H0zm.2.2h.4v-.2H.2zm0 0" fill="#b20000"/><path d="M.5 11.2h.3v-.3H.5zm-.3-.3h.4v-.2H.2zm.1-.2h.2v-.3H.3zm0 1h.2v-.3H.3zm-.1-2h.6v-.2H.2zm.8 0h.6v-.2H.9zm.7 0h.7v-.2h-.7zm.8 0h.7v-.2h-.7zm-1.2-.4H2V9h-.8zm-1.1 0H1V9H.1zm2.2 0h.8V9h-.8zm.8-1h.1v-.2h-.1zM0 8.3h.2v-.2H0zm1.4-1.2h.2v.3h-.2zm.3 0H2v.3h-.2zm0-.5H2V7h-.2zm-.3 0h.2V7h-.2zm-1 6.5h.2v.2H.3zm2.1-4.6h.2v-.2h-.2zm-1.9 0h.2v-.2H.6zm.8-.2H2v.2h-.5zm0 0" fill="#b20000"/></g></svg>