<svg xmlns="http://www.w3.org/2000/svg" width="20" height="14"><path fill="green" d="M0 0h20v14H0z"/><path d="M12 7c0 1-.8 2-2 2S8 8 8 7s.8-2 2-2 2 1 2 2zm0 0" fill="#ffe000"/><path d="M12.4 7c0 .9-.8 1.6-1.8 1.6C9.7 8.6 9 7.9 9 7c0-.9.8-1.6 1.7-1.6 1 0 1.8.7 1.8 1.6zm0 0" fill="green"/><path d="M5.6 5c0 1.2-1 2-2.2 2-1.2 0-2.1-.8-2.1-2s1-2 2.1-2c1.2 0 2.2 1 2.2 2zm0 0" fill="#ffe000"/><path d="M105 226h17.5s.8-1.5-.3-2.3c-1-.8-4.6-1.1-3.6-4 2-5.7 2.4-4 3.7-17.7a667 667 0 002-35.5h-2.5s.5 6.7-1 15.5-2 9.5-3.5 16.3a59.6 59.6 0 01-3.4 11.2c-1.4 4-1.7 4.1-3.8 7.9-2.3 3.4-1.5 2.1-2.7 4.3-.7 1.2-1.4.8-1.9 1.6-.4.8-.5 2.6-.5 2.6zm0 0" transform="scale(.03125 .02917)" fill="#802000" stroke-width="1.5" stroke="#7b3100"/><path d="M3.7 3.6a.6.6 0 010 .2.7.7 0 00-.1.3h-.2l.2.3s.1 0 0 .1l-.2-.3A.6.6 0 003 4s-.3 0-.2.1l.3.2.2.1-.3-.1-.6.1v.2l.3-.2c.2 0 0 .2 0 .2H3l-.2.1a.3.3 0 01-.1 0l-.4.1-.2.1C2 5 2 5 1.8 5h.3C2 5 2 5 2 5c.1 0 .3-.2.4 0l.1-.1H3.2c.2-.1 0 0 0 0l-.1.3v.4h.1l.1-.1c.1 0 .1-.1 0-.2l.2-.3c0-.2 0 0 0 0v.5h.1l.2-.6h.1l.3.4.2.2s.3.1.2 0v-.2s0-.1 0 0c.2 0 0-.2 0-.2s-.2 0-.2-.2h.3L5 5v-.2c0-.1 0-.2-.2-.2h-.3c0-.2.1-.1.1-.1 0-.1-.1-.1 0-.2 0 0 .2 0 0 0a.3.3 0 01-.2-.1l-.2.1-.2.1s.2-.1.2-.3H4h.1c.1 0 .1-.2.2-.1 0-.1.1-.2 0-.2h-.2v-.1s.2 0 .1-.1a.5.5 0 00-.3 0l-.1.2-.1-.2zm.5 1.2V5H4zm0 0" fill="green"/><path d="M15 9.4l.1.4.5-.1-.3.3.4.3h-.4v.4l-.3-.3-.3.3v-.4h-.4l.4-.3-.3-.3.5.1zm-2.5-3.7l.1.4.5-.1-.3.4.4.2h-.4V7l-.3-.3-.3.3v-.4h-.4l.4-.2-.3-.4.5.1zM15 3.3l.1.4.5-.1-.3.3.4.2h-.4v.5l-.3-.3-.3.3V4h-.4l.4-.3-.3-.3.5.1zm2.2 2l.2.3.4-.1-.3.3.4.2h-.4v.5l-.3-.3-.3.3V6h-.4l.4-.3-.2-.3.4.1zM16 7l.1.3h.3l-.2.1v.3l-.2-.1-.2.1v-.3l-.2-.1h.3zm0 0" fill="#ffe000"/></svg>