<svg xmlns="http://www.w3.org/2000/svg" width="20" height="14"><path d="M0 0h6.7v14H0zm0 0" fill="#007a5e"/><path d="M6.7 0h6.6v14H6.7zm0 0" fill="#ce1126"/><path d="M13.3 0H20v14h-6.7zM10 5.3L9.4 7l.9.3zm0 0" fill="#fcd116"/><path d="M10 5.3l.6 1.6-.9.3zm0 0" fill="#fcd116"/><path d="M11.7 6.5H9.9v.8zm0 0" fill="#fcd116"/><path d="M11.7 6.5l-1.4 1-.6-.7zm0 0" fill="#fcd116"/><path d="M11 8.3l-.5-1.5-.9.2zm0 0" fill="#fcd116"/><path d="M11 8.3l-1.4-1 .5-.6zm0 0" fill="#fcd116"/><path d="M9 8.3l1.4-1-.5-.6zm0 0" fill="#fcd116"/><path d="M9 8.3l.5-1.5.9.2zm0 0" fill="#fcd116"/><path d="M8.3 6.5l1.4 1 .6-.7zm0 0" fill="#fcd116"/><path d="M8.3 6.5h1.8v.8zm0 0" fill="#fcd116"/></svg>