<svg xmlns="http://www.w3.org/2000/svg" width="20" height="14"><path fill="#fff" d="M0 0h20v14H0z"/><path d="M9.6 11.6l-.1-.2-.2-.1-.2-.1h-.2L9 11l.3.1h.2l.3.3v.1l-.2.1zm-1.3-.3a1 1 0 01-.5-.2.5.5 0 01.3-.1l.7.1a1 1 0 01-.5.1zm-.7-.2a.1.1 0 01-.1 0 .1.1 0 010-.1v-.1l.1.1v.1zm1.2-.1c-.4-.1-.6-.2-.7-.4v-.2c.2 0 .5 0 .7.6zm-.8-.1l-.5-.1a.3.3 0 010-.1.5.5 0 01.2 0 .9.9 0 01.5.2 2.6 2.6 0 01-.2 0zm-1 0a1 1 0 01-.6-.3h.9v.2a.4.4 0 01-.2 0zm-.6-.4v-.1.1zm1.5 0a.1.1 0 01-.1 0v-.2l.1.1v.1zm-.7 0c-.4 0-.6-.1-.7-.2a.4.4 0 01-.1-.1.2.2 0 010-.1c.2 0 .5 0 .8.4zm.4 0a1 1 0 01-.6-.3.6.6 0 01-.1-.2H7c.2 0 .5 0 .6.4zM6 10.2a1.5 1.5 0 01-.3 0c-.2 0-.3-.1-.3-.2h.5c.1 0 .3 0 .4.2H6zm.7-.2a.1.1 0 01-.1-.1v-.1h.2a.1.1 0 010 .1zm-.5-.1a1.4 1.4 0 01-.3-.1l-.4-.5.3.1.4.5zm.3 0a1 1 0 01-.2-.2 1.4 1.4 0 01-.4-.5l.3.1.3.6zm-1 0v-.1l-.1-.1a.3.3 0 01.3 0v.1h-.1zm-.2-.4H5l-.2-.2v-.1c.3 0 .5 0 .6.2a.3.3 0 010 .1zm.4-.3a1.7 1.7 0 01-.1 0V9l-.1-.3s.2 0 .2.2v.3zm-.3 0a1.4 1.4 0 01-.6-.3.4.4 0 010-.3v-.2h.1a.7.7 0 01.2.2l.2.2a5.3 5.3 0 01.1.3v.1zm0 0" fill="#435125"/><path d="M9 11.6l.1-.2.2-.1.2-.1h.1V11l-.3.1H9l-.4.3.1.1.1.1zm1.3-.3c.1 0 .3 0 .5-.2h-.1a.5.5 0 00-.3-.1l-.6.1a1 1 0 00.5.1zm.7-.2a.2.2 0 00.1-.1v-.1l-.2.1.1.1zM9.7 11c.4-.1.6-.2.7-.4v-.2c-.1 0-.4 0-.7.6zm.9-.1l.4-.1a.3.3 0 00.1-.1.6.6 0 00-.2 0 .9.9 0 00-.6.2h.3zm.9 0c.2 0 .5-.1.6-.3h-.8v.2a.4.4 0 00.2 0zm.6-.4h.1v-.1a.2.2 0 00-.1 0v.1zm-1.4 0v-.2.2zm.7 0c.4 0 .6-.1.7-.2a.5.5 0 000-.1.3.3 0 00.1-.1H12c-.1 0-.4 0-.7.4zm-.4 0a1 1 0 00.5-.3.6.6 0 00.2-.2h-.1c-.2 0-.5 0-.6.4zm1.6-.2h.3l.2-.2H13a1.1 1.1 0 00-.2 0 .7.7 0 00-.4.2h.3zm-.8-.2a.1.1 0 00.1 0 .1.1 0 000-.1v-.1h-.1v.1zm.6-.1l.3-.1c.1-.1.3-.3.3-.5a.4.4 0 00-.2.1l-.4.5zm-.4 0a1.1 1.1 0 00.3-.2l.4-.5h-.1l-.3.1-.3.6zm1 0l.1-.1a.2.2 0 000-.1.3.3 0 00-.2 0v.1zm.2-.4h.3c.1 0 .2 0 .2-.2a.7.7 0 000-.1c-.3 0-.4 0-.5.2a.3.3 0 000 .1zm-.3-.3L13 9v-.3L13 9v.3zm.2 0c.3 0 .5-.2.6-.3a.5.5 0 00.1-.3v-.2a.3.3 0 00-.2 0 .9.9 0 00-.1.2l-.2.2a2 2 0 00-.1.2.5.5 0 000 .1v.1zm0 0" fill="#435125"/><path d="M16.2 2.2H16l-.1.2H15.5v.1H15.2v.1H15v.2h-.2l-.1.1H14.3V3H14l-.1.1-.1.1-.2.1-.2.1-.2.2-.3.1H12.6l-.2.1h-.2l-.1.1h-.5l-.1.1h-.1l-.1.1H11l-.3.1H8V4H7.7l-.1-.2h-.2v1.3h-.1l-.2.1-.1.1h-.2l-.2-.1h-.2v-.1H5.5l-.1.1-.1.1-.1.2v.1H5v.1H5l-.1.1H4.3L4 5.6H4v.4l.1.1V6.5l.1.1V7l.1.1h.2v.2l.1.1V7.6h.1l.1.1H5l.2.1V8h.4l.1.1h.1l.1.1H6l.2.1H6.7L7 8h.4v.1l.1.2v.1h.1v.1H8h-.1v-.4H8l.1-.2h.2l.2-.1h.7l.1-.1h.4l.2-.1h.1l.1-.1.1-.1H10.6v-.1h.1v-.1h.4V7h.1V7h.1v-.4h.1l.1-.1H12.3v.1h.4v-.1H13v-.1h.4l.2.1h.1-.1v-.2l-.2-.2-.1-.1H13l-.1-.2-.1-.1-.1-.1-.2-.2v-.6h.1v-.2h.1l.2-.1h.4l.1-.2.2-.2.3-.2.1-.1.6-.2v-.2h.2v-.1h.2l.1-.1.1-.2.2-.1.4-.2h.2V2.2h.1zm0 0" fill="#d47600"/></svg>