<svg xmlns="http://www.w3.org/2000/svg" width="20" height="14"><path fill="#aa151b" d="M0 0h20v14H0z"/><path d="M0 3.5h20v7H0zm0 0" fill="#f1bf00"/><path d="M4 6.2h-.1V6H4V6h.5v.2h-.3H4" fill="#ad1519"/><path d="M127.3 213.3h-.8l-1-1.2-.8-.4-.5-.8s-.7-1-.5-1.8c.4-1 1-1.2 1.5-1.6l1.5-.4 1-.4 1.3-.4.5-.3c.3 0 .8 0 1-.2l1-.2 1.6.1h4.8l1.3.4c.8.3 1.4.6 2 .7.6.1 1.7.3 2.3.7.5.2.9.6 1.1.9l.5 1v1.1l-.5.8-.6 1-.8.6s-.4.4-1 .4-4.8-.8-7.6-.8-7.3.8-7.3.8zm0 0" transform="scale(.03125 .02917)" fill="none" stroke-width=".3" stroke-linejoin="round" stroke="#000"/><path d="M4.2 6v.1" fill="#c8b100"/><path d="M133.3 207c0-1.3.6-2.4 1.3-2.4s1.4 1.1 1.4 2.5c0 1.3-.6 2.4-1.4 2.4-.8 0-1.3-1.1-1.3-2.4zm0 0" transform="scale(.03125 .02917)" fill="none" stroke-width=".3" stroke="#000"/><path d="M4.2 6v.1" fill="#c8b100"/><path d="M134 207c0-1.2.3-2 .8-2 .2 0 .4.8.4 2 0 1.3-.2 2.2-.4 2.2-.6 0-.7-1-.7-2.1zm0 0" transform="scale(.03125 .02917)" fill="none" stroke-width=".3" stroke="#000"/><path d="M4.2 6" fill="#c8b100"/><path d="M135.3 204.2v.6h-1.4v-.6h.5V203h-.7v-.6h.7v-.4h.5v.4h.6v.6h-.6v1.2h.3" transform="scale(.03125 .02917)" fill="#c8b100" stroke-width=".3" stroke="#000"/><path d="M135.9 204.2v.6h-2.5v-.6h1V203h-.7v-.6h.7v-.4h.5v.4h.6v.6h-.6v1.2h1" transform="scale(.03125 .02917)" fill="#c8b100" stroke-width=".3" stroke="#000"/><path d="M134.9 203.7c.3.1.6.4.6.8 0 .5-.4 1-.8 1s-1-.5-1-1c0-.4.3-.7.7-.8" transform="scale(.03125 .02917)" fill="none" stroke-width=".3" stroke="#000"/><path d="M4.2 6.2h-.1L4 6l.1.1h.2s.1-.1.1 0v.1h-.2" fill="#c8b100"/><path d="M134.8 213.2H130v-1l-.3-1.3-.2-1.4c-1.3-1.8-2.5-2.8-2.9-2.6.2-.2.2-.7.5-.7 1.2-.8 3.5 1 5.2 3.7l.4.6h4l.3-.6c1.8-2.8 4.1-4.5 5.3-3.6.2 0 .3.4.4.6-.4-.2-1.6.8-3 2.6v1.4l-.3 1.2-.2 1.1h-4.6zm0 0" transform="scale(.03125 .02917)" fill="none" stroke-width=".3" stroke="#000"/><path d="M126.8 206.8c1-.6 3 1 4.6 3.6m11-3.6c-.8-.6-2.8 1-4.5 3.6" transform="scale(.03125 .02917)" fill="none" stroke-width=".3" stroke="#000"/><path d="M127.8 215.4l-.5-1.1c4.8-1.4 10-1.4 14.7 0l-.5.8c-.1.3-.3.5-.3.8a28 28 0 00-13 0l-.4-.5" transform="scale(.03125 .02917)" fill="#c8b100" stroke-width=".3" stroke="#000"/><path d="M4.2 6.3a1 1 0 00.2 0 .7.7 0 00-.2 0 .7.7 0 00-.2 0h.2" fill="#c8b100"/><path d="M134.6 217.6c2.4 0 5-.2 5.9-.5.6-.1 1-.5 1-.8l-.4-.4c-1.3-.5-4-.8-6.5-.8s-5 .3-6.3.8c-.3 0-.4.3-.6.3 0 .4.4.8 1 .9 1 .3 3.6.5 6 .5zm0 0" transform="scale(.03125 .02917)" fill="none" stroke-width=".3" stroke="#000"/><path d="M4.4 6.2h-.2H4 4a.9.9 0 01.2 0h.2" fill="#c8b100"/><path d="M142.1 213.2l-.5-.5s-.6.2-1.3.2c-.6 0-1-1-1-1s-.6.6-1.2.6c-.7 0-1-.5-1-.5s-.7.5-1.3.4c-.6 0-1.2-.8-1.2-.8s-.6.8-1.2.8c-.7.1-1-.5-1-.5s-.4.6-1.2.6c-.6.2-1.3-.5-1.3-.5s-.5.7-1 1c-.5 0-1.2-.5-1.2-.5l-.2.6-.3.1.2.5c2.3-.6 4.7-.9 7.2-.9 3 0 5.5.4 7.4 1l.3-.6zm0 0" transform="scale(.03125 .02917)" fill="none" stroke-width=".3" stroke="#000"/><path d="M4.2 6.1h.1l.1.1h-.2H4 4h.2" fill="#c8b100"/><path d="M134.8 210.7h0v.4c0 .6.4 1 1 1s1-.2 1-.8l.3-.2v.4c.2.5.7.8 1.2.8s1-.4 1-1v-.1l.3-.4.2.5v.4c0 .6.3 1 1 1 .3 0 .6-.2.8-.6h.2v.2c0 .2 0 .6.4.6 0 0 .4 0 1-.4l.7-.6v.4s-.5.8-1 1c-.2.2-.5.4-.8.3-.3 0-.6-.3-.7-.7-.2.3-.4.3-.7.3-.6 0-1.2-.3-1.4-.8-.3.3-.7.5-1 .5-.6 0-1-.2-1.3-.6-.3.2-.6.4-1 .4-.5 0-1-.2-1.3-.6-.3.3-.7.6-1.2.6-.4.1-.9 0-1.3-.4-.2.4-.6.6-1 .6s-1-.2-1.2-.5c-.3.5-.8.8-1.4.8-.2 0-.5 0-.7-.3-.2.4-.4.7-.7.7-.3 0-.6 0-1-.3l-1-.9.2-.5.8.6c.5.4 1 .4 1 .4.2 0 .3-.4.3-.6v-.3l.3.1c0 .4.5.6.8.6.5 0 1-.4 1-1v-.9l.4.4v.1c0 .6.5 1 1 1 .6 0 1-.3 1.1-1v-.2l.2.2c.2.4.6.8 1 .8.7 0 1-.4 1-1v-.3h.4zm0 0" transform="scale(.03125 .02917)" fill="none" stroke-width=".3" stroke="#000"/><path d="M4.2 6.2a1 1 0 00-.2 0 1 1 0 01.4 0 1 1 0 00-.2 0" fill="#c8b100"/><path d="M134.6 213.3c-2.8 0-5.5.5-7.3 1l-.3-.1.1-.4a30 30 0 0115.1 0s.2.2 0 .4h-.2c-2.4-.6-4.9-.9-7.4-.9zm0 0" transform="scale(.03125 .02917)" fill="none" stroke-width=".3" stroke-linejoin="round" stroke="#000"/><path d="M4.1 6.3" fill="#fff"/><path d="M131.8 214.4c0-.2.2-.4.4-.4s.6.2.6.4-.3.4-.6.4l-.2-.1c-.1 0-.3-.1-.3-.3zm0 0" transform="scale(.03125 .02917)" fill="none" stroke-width=".3" stroke="#000"/><path d="M134.8 214.6h-1c-.2 0-.4 0-.4-.4l.3-.3h2c.2 0 .2.1.2.3 0 .2-.2.4-.3.4h-1" transform="scale(.03125 .02917)" fill="#ad1519" stroke-width=".3" stroke="#000"/><path d="M130 215h-.8s-.2 0-.2-.3c0-.1.1-.3.3-.3l.6-.1.7-.1c.2 0 .3 0 .4.2v.3l-.3.1h-.7" transform="scale(.03125 .02917)" fill="#058e6e" stroke-width=".3" stroke="#000"/><path d="M127.3 215.4l.3-.4h.7l-.4.5-.7-.1" transform="scale(.03125 .02917)" fill="#ad1519" stroke-width=".3" stroke="#000"/><path d="M4.3 6.3" fill="#fff"/><path d="M136.6 214.4c0-.2.2-.4.4-.4h.4l.1.4-.1.3-.4.1c-.3 0-.4-.1-.4-.4zm0 0" transform="scale(.03125 .02917)" fill="none" stroke-width=".3" stroke="#000"/><path d="M139.3 215h.8l.2-.3-.3-.3-1.3-.2c-.2 0-.3 0-.4.2 0 .2 0 .3.3.4h.7" transform="scale(.03125 .02917)" fill="#058e6e" stroke-width=".3" stroke="#000"/><path d="M142 215.4l-.3-.4h-.7l.3.5.6-.1" transform="scale(.03125 .02917)" fill="#ad1519" stroke-width=".3" stroke="#000"/><path d="M4.2 6.3H4a.8.8 0 01.4 0 .9.9 0 01-.2 0" fill="#ad1519"/><path d="M134.6 217.1c-2 0-4-.1-6-.5a23.3 23.3 0 0112.2 0c-1.7.4-3.8.5-6 .5zm0 0" transform="scale(.03125 .02917)" fill="none" stroke-width=".3" stroke-linejoin="round" stroke="#000"/><path d="M4.4 6.2" fill="#c8b100"/><path d="M142 212l-.1-.3c-.2 0-.3 0-.4.2 0 .2 0 .4.3.4l.2-.3zm0 0" transform="scale(.03125 .02917)" fill="none" stroke-width=".3" stroke="#000"/><path d="M4.3 6.2" fill="#c8b100"/><path d="M137.3 211.2c0-.3 0-.4-.2-.4 0 0-.2.1-.2.3 0 .2 0 .4.2.4l.3-.3zm0 0" transform="scale(.03125 .02917)" fill="none" stroke-width=".3" stroke="#000"/><path d="M4.1 6.2" fill="#c8b100"/><path d="M132 211.2l.1-.4c.2 0 .3.1.3.3 0 .2 0 .4-.2.4zm0 0" transform="scale(.03125 .02917)" fill="none" stroke-width=".3" stroke="#000"/><path d="M4 6.2" fill="#c8b100"/><path d="M127.3 212v-.3c.3 0 .5 0 .5.2s0 .4-.2.4c0 0-.2 0-.3-.3zm0 0" transform="scale(.03125 .02917)" fill="none" stroke-width=".3" stroke="#000"/><path d="M134.6 208.5l-.8.6.6 1.2.2.1.2-.1.7-1.2-.9-.6" transform="scale(.03125 .02917)" fill="#c8b100" stroke-width=".3" stroke="#000"/><path d="M132.8 210.5l.4.4 1.3-.4.1-.1-.1-.3-1.3-.2-.4.6m3.6 0l-.3.4-1.3-.4-.2-.1.2-.3 1.3-.2.3.6m-7.2-1.4l-.6.6.9 1 .3.1v-.1l.3-1.2-.8-.4m-1.3 2.1l.4.5 1.2-.6v-.2l-.1-.2-1.3-.2-.3.7m3.6-.7l-.3.6H130l-.3-.2.2-.4 1.2-.5.5.5m-5 .8v.7l-1.3.1h-.3v-.2l1-1 .6.4" transform="scale(.03125 .02917)" fill="#c8b100" stroke-width=".3" stroke="#000"/><path d="M4 6.2" fill="#c8b100"/><path d="M129.3 211c0-.5 0-.6.4-.6.3 0 .6.1.6.5-.2.2-.3.4-.6.4s-.4-.2-.4-.4zm0 0" transform="scale(.03125 .02917)" fill="none" stroke-width=".3" stroke="#000"/><path d="M140 209l.8.7-1 1-.2.1-.1-.1-.3-1.2.8-.4" transform="scale(.03125 .02917)" fill="#c8b100" stroke-width=".3" stroke="#000"/><path d="M141.4 211.2l-.5.5-1.2-.6v-.4l1.4-.2.3.7m-3.7-.7l.4.6h1.3l.2-.2-.1-.4-1.3-.5-.4.5m4.7.8l.1.7 1.3.1h.2v-.2l-1-1-.6.4" transform="scale(.03125 .02917)" fill="#c8b100" stroke-width=".3" stroke="#000"/><path d="M4.2 6.1" fill="#c8b100"/><path d="M134.3 210.4c0-.3 0-.4.3-.4s.5.1.5.4-.2.5-.5.5c-.2-.1-.3-.2-.3-.5zm0 0" transform="scale(.03125 .02917)" fill="none" stroke-width=".3" stroke="#000"/><path d="M4.3 6.2" fill="#c8b100"/><path d="M139.1 211c0-.5.3-.6.5-.6s.5.3.5.5c-.1.2-.2.4-.5.4s-.5-.2-.5-.4zm0 0" transform="scale(.03125 .02917)" fill="none" stroke-width=".3" stroke="#000"/><path d="M3.9 6.2" fill="#c8b100"/><path d="M124.8 212.1l-.5-.6-.8-.3c0-.1.3-.3.6-.3.2 0 .3 0 .4.2v-.2s.3 0 .4.3v1zm0 0" transform="scale(.03125 .02917)" fill="none" stroke-width=".3" stroke="#000"/><path d="M3.9 6.2" fill="#c8b100"/><path d="M124.8 212c0-.3.5-.3.5 0 .2.1.3.3.2.5h-.5c-.3-.2-.3-.5-.3-.6zm0 0" transform="scale(.03125 .02917)" fill="none" stroke-width=".3" stroke="#000"/><path d="M4.5 6.2" fill="#c8b100"/><path d="M144.3 212.1l.6-.6c.2-.2.7-.3.7-.3 0-.1-.3-.3-.6-.3-.1 0-.3 0-.4.2v-.2s-.3 0-.3.3zm0 0" transform="scale(.03125 .02917)" fill="none" stroke-width=".3" stroke="#000"/><path d="M4.5 6.2" fill="#c8b100"/><path d="M144.3 212c0-.3-.3-.3-.6 0v.5h.6v-.6zm0 0" transform="scale(.03125 .02917)" fill="none" stroke-width=".3" stroke="#000"/><path d="M124 223h21.4v-5.5H124v5.6zm0 0" transform="scale(.03125 .02917)" fill="#c8b100" stroke-width=".4" stroke="#000"/><path d="M4 6.6h.5-.6" fill="#c8b100"/><path d="M126.3 226.7H143c-.6 0-1-.5-1-1.2 0-.5.5-1 1-1.2h-16.8c.5.2 1 .7 1 1.2-.2.7-.5 1.1-1 1.2zm0 0" transform="scale(.03125 .02917)" fill="none" stroke-width=".4" stroke-linejoin="round" stroke="#000"/><path d="M4 6.6h.5H4" fill="#c8b100"/><path d="M126.6 226.7h16c.7 0 1 .4 1 .8s-.3.8-1 .8h-16c-.5 0-1-.4-1-.8s.5-.8 1-.8zm0 0" transform="scale(.03125 .02917)" fill="none" stroke-width=".4" stroke="#000"/><path d="M4 6.5h.5H4" fill="#c8b100"/><path d="M126.6 223h16c.7 0 1 .4 1 .7 0 .4-.3.6-1 .6h-16c-.5 0-1-.2-1-.6 0-.3.5-.6 1-.6zm0 0" transform="scale(.03125 .02917)" fill="none" stroke-width=".4" stroke="#000"/><path d="M4.7 9.3a.3.3 0 01-.1 0 .3.3 0 00-.2 0 .3.3 0 01-.2 0 .3.3 0 01-.1 0 .3.3 0 00-.1 0 .3.3 0 00-.1 0 .3.3 0 01-.2 0 .3.3 0 00.2 0h.2a.3.3 0 00.1 0h.1a.3.3 0 01.1 0 .3.3 0 01.2 0" fill="#005bbf"/><path d="M149.6 317.4c-1.3 0-2.8-.3-3.7-.8a9 9 0 00-3.8-.8c-1.3 0-2.7.3-3.7.8a9 9 0 01-3.8.8c-1.5 0-2.8-.3-3.7-.8a8.5 8.5 0 00-3.7-.8c-1.3 0-2.6.3-3.7.8s-2.5.8-3.8.8v2.4c1.5 0 2.8-.4 3.8-1 1.1-.5 2.4-.7 3.8-.7s2.6.2 3.6.8 2.2 1 3.7 1c1.3 0 2.7-.3 3.8-1 1-.6 2.3-.8 3.7-.8 1.5 0 2.8.2 3.8.8s2.2 1 3.7 1zm0 0" transform="scale(.03125 .02917)" fill="none" stroke-width=".4" stroke="#000"/><path d="M149.6 319.8c-1.3 0-2.6-.2-3.7-1a9 9 0 00-3.8-.7c-1.3 0-2.7.2-3.7.8s-2.3 1-3.8 1-2.8-.5-3.7-1a8.5 8.5 0 00-3.7-.8c-1.3 0-2.6.2-3.7.8-1 .5-2.3 1-3.8 1v2.2c1.5 0 2.8-.4 3.8-1 1.1-.5 2.4-.6 3.8-.6s2.6.3 3.6.7a8.2 8.2 0 007.5 0c2.3-1.1 5.1-1.1 7.5.1a9 9 0 003.7.8v-2.3" transform="scale(.03125 .02917)" fill="#ccc" stroke-width=".4" stroke="#000"/><path d="M149.6 322c-1.2.1-2.6-.2-3.7-.8a8.9 8.9 0 00-3.8-.7c-1.3 0-2.7.3-3.7.7-1 .6-2.3.9-3.8.9s-2.8-.4-3.7-1a8.5 8.5 0 00-3.7-.7c-1.3 0-2.6.2-3.7.8-1 .5-2.3.9-3.8.9v2.3c1.5 0 2.8-.3 3.8-1 2.4-.8 5-.8 7.4 0a6 6 0 003.7 1 9 9 0 003.8-.8c1-.6 2.3-.8 3.7-.8 1.5 0 2.8.2 3.8.8 1 .5 2.2.8 3.7.8V322" transform="scale(.03125 .02917)" fill="#005bbf" stroke-width=".4" stroke="#000"/><path d="M149.6 326.7c-1.2 0-2.6-.2-3.7-.9-1-.4-2.3-.8-3.7-.8a9.6 9.6 0 00-3.8.8c-1 .6-2.3.9-3.8.9a7 7 0 01-3.7-.9 8.5 8.5 0 00-3.7-.8c-1.5 0-2.7.4-3.7.8-1 .6-2.3.9-3.8.9v-2.3c1.3 0 2.7-.3 3.8-1 2.4-.8 5-.8 7.4 0 1.1.7 2.3 1 3.7 1a9 9 0 003.8-.8c1-.6 2.3-.8 3.8-.8 1.4 0 2.7.2 3.7.8 1 .5 2.3.8 3.7.8v2.3" transform="scale(.03125 .02917)" fill="#ccc" stroke-width=".4" stroke="#000"/><path d="M4.7 9.6a.3.3 0 01-.1 0 .3.3 0 00-.2 0 .3.3 0 01-.2 0 .2.2 0 01-.1 0 .2.2 0 00-.1 0 .3.3 0 00-.1 0 .3.3 0 01-.2 0 .2.2 0 00.2-.1h.4a.3.3 0 01.1 0h.2v.1" fill="#005bbf"/><path d="M149.6 329a9 9 0 01-3.7-.7c-1-.6-2.3-.8-3.7-.8-1.3-.2-2.6 0-3.8.8-1 .4-2.3.8-3.8.8-1.3 0-2.6-.3-3.7-1a6.8 6.8 0 00-3.7-.6c-1.5 0-2.7.2-3.7.8-1 .4-2.3.8-3.8.8v-2.4c1.3 0 2.7-.2 3.8-.9 1-.4 2.3-.8 3.8-.8 1.3 0 2.6.4 3.6.8a9.2 9.2 0 007.5 0c1-.4 2.3-.8 3.8-.8 1.4 0 2.7.4 3.7.8 1 .6 2.2.9 3.7.9zm0 0" transform="scale(.03125 .02917)" fill="none" stroke-width=".4" stroke="#000"/><path d="M4 9h-.1.6-.6" fill="#c8b100"/><path d="M126.3 308v.4c0 1.6-1.2 2.7-2.5 2.7h22a2.7 2.7 0 01-2.8-2.7v-.4h-16.8zm0 0" transform="scale(.03125 .02917)" fill="none" stroke-width=".4" stroke-linejoin="round" stroke="#000"/><path d="M4 9h.5H4" fill="#c8b100"/><path d="M126.6 306.6h16c.7 0 1 .2 1 .8 0 .2-.3.6-1 .6h-16c-.5 0-1-.4-1-.8s.5-.6 1-.6zm0 0" transform="scale(.03125 .02917)" fill="none" stroke-width=".4" stroke="#000"/><path d="M123.8 316.7h22V311h-22zm0 0" transform="scale(.03125 .02917)" fill="#c8b100" stroke-width=".4" stroke="#000"/><path d="M3.8 8.4s-.1 0 0 0v.2a.2.2 0 000-.2" fill="#ad1519"/><path d="M122 286.7c-2.3 1.2-3.8 2.5-3.4 3.3 0 .5.8.9 1.8 1.6 1.5 1 2.5 3 1.7 3.8 1.4-.9 2.2-2.6 2.2-4.4a5.2 5.2 0 00-2.3-4.3zm0 0" transform="scale(.03125 .02917)" fill="none" stroke-width=".4" stroke="#000"/><path d="M4 9h.4V6.6H4zm0 0" fill="#ccc"/><path d="M138 229.2v76.3m1.8-76.3v76.3m-13 0h15.6v-76.3h-15.7v76.4zm0 0" transform="scale(.03125 .02917)" fill="none" stroke-width=".4" stroke="#000"/><path d="M158.4 257.7a49 49 0 00-23.3-2c-9.3 1.6-16.5 5.3-15.8 8.4v.1l-3.5-8.1c-.7-3.2 7-7.5 17.5-9.1 3-.7 6-.8 9.2-.8a47 47 0 0115.8 2.1v9.4" transform="scale(.03125 .02917)" fill="#ad1519" stroke-width=".4" stroke-linejoin="round" stroke="#000"/><path d="M126.8 267.3c-4.3-.2-7.3-1.5-7.5-3.2-.4-1.5 1-3 3.7-4.5 1.3 0 2.5.4 3.8.4v7.3m15.7-5.7c2.8.4 4.8.9 5.8 1.8v.2c.4 1-2 3-6 5.5v-7.5" transform="scale(.03125 .02917)" fill="#ad1519" stroke-width=".4" stroke="#000"/><path d="M3.7 8.2l.3-.1.2-.1.4-.3v.2s0 .2-.3.3l-.3.1c-.2 0-.3.1-.3.2v-.3" fill="#ad1519"/><path d="M117.1 282c-.3-1.2 3.8-3.6 9.8-5.8l7.8-3.3c8.3-3.6 14.4-7.9 13.6-9.3v-.2c.4.4 1 8 1 8 .8 1.3-4.8 5.6-12.4 9-2.5 1.3-7.7 3.1-10 4-4.4 1.5-8.7 4.4-8.3 5.4zm0 0" transform="scale(.03125 .02917)" fill="none" stroke-width=".4" stroke-linejoin="round" stroke="#000"/><path d="M4 7.4v-.1h-.2l.1.2zm.1-.1v.1h.1v-.1m.2.1v-.2a1.4 1.4 0 010 .2v-.2h-.2l.2.2m.3-.1h-.2.1v0" fill="#c8b100"/><path d="M8.7 6.2H8.3V6a.2.2 0 01.1 0h.2A.2.2 0 019 6H9v.1h-.1-.1a.1.1 0 01-.1 0" fill="#ad1519"/><path d="M277.9 211.6s-.6.8-1.3 1c-.5 0-1.1-.6-1.1-.6s-.5.5-1 .5c-.6.2-1.4-.5-1.4-.5l-1 1c-.6 0-1.1-.3-1.1-.3s-.3.4-.8.6h-.3l-.6-.4-.7-.8-.5-.2-.4-1v-.5c0-.5.8-1.3 2.2-1.7a5 5 0 012 0c.5-.4 1.7-.8 3-.8 1.4 0 2.4.4 3 .8a5.5 5.5 0 012.9-.8c1.3 0 2.4.4 3 .8a5 5 0 012 0c1.4.4 2.3 1 2.2 1.7v.5l-.4 1-.6.2-.6.8-.6.3s-.3.1-.4 0c-.4-.1-.6-.5-.6-.5s-.7.4-1 .2c-.6-.2-1-1-1-1s-1 .8-1.6.6c-.4 0-1-.5-1-.5s-.6.5-1 .5c-.6 0-1.3-.9-1.3-.9zm0 0" transform="scale(.03125 .02917)" fill="none" stroke-width=".3" stroke="#000"/><path d="M8.6 6h.1v.1" fill="#c8b100"/><path d="M276.5 207.6c0-1 .6-2 1.3-2 .8 0 1.3 1 1.3 2s-.5 1.9-1.4 1.9c-.6 0-1.2-.8-1.2-2zm0 0" transform="scale(.03125 .02917)" fill="none" stroke-width=".3" stroke="#000"/><path d="M8.7 6v.1" fill="#c8b100"/><path d="M277.3 207.6c0-1 .2-1.8.4-1.8.6 0 .8.9.8 1.8 0 1-.3 1.7-.6 1.7s-.6-.8-.6-1.8zm0 0" transform="scale(.03125 .02917)" fill="none" stroke-width=".3" stroke="#000"/><path d="M271 215.4l-.5-1.1c4.9-1.4 10-1.4 14.8 0l-.6.8-.3.8a27.2 27.2 0 00-6.6-.8c-2.6 0-5.2.3-6.6.8l-.2-.5" transform="scale(.03125 .02917)" fill="#c8b100" stroke-width=".3" stroke="#000"/><path d="M8.7 6.3a1 1 0 00.2 0 .9.9 0 00-.4 0h.2" fill="#c8b100"/><path d="M277.8 217.6c2.4 0 5-.2 6-.5.4-.1 1-.5 1-.8l-.6-.4a26.2 26.2 0 00-6.4-.8c-2.6 0-5 .3-6.4.8l-.4.3c0 .4.3.8 1 .9 1 .3 3.5.5 5.8.5zm0 0" transform="scale(.03125 .02917)" fill="none" stroke-width=".3" stroke="#000"/><path d="M8.9 6" fill="#fff"/><path d="M283.5 208.4l.4-.4c.2 0 .5.3.5.4 0 .3-.1.4-.5.4-.3 0-.4-.1-.4-.4zm-.3-1.3c0-.3.3-.4.6-.4 0 0 .3 0 .3.4 0 .2-.2.4-.4.4s-.4-.3-.4-.4zm-1-1.1c0-.2.2-.3.4-.3.1 0 .4.1.4.4l-.4.4-.4-.1v-.4zm-1.4-.4c0-.2.2-.4.4-.4s.6.2.6.4-.3.4-.6.4c0 0-.4-.2-.4-.4zm-1.4 0c0-.2.2-.3.5-.3.4 0 .4.1.4.4 0 .1-.2.4-.4.4l-.4-.1-.1-.3zm0 0" transform="scale(.03125 .02917)" fill="none" stroke-width=".2" stroke="#000"/><path d="M287.8 211.2l.2-1c0-.7-.3-1.4-.8-2-.4-.5-1.2-.7-2-.7-.4 0-1 0-1.2.2" transform="scale(.03125 .02917)" fill="none" stroke-width=".3" stroke-linecap="round" stroke="#000"/><path d="M283 209.2l.3-.8c0-1-1.2-2-2.6-2-.6 0-1.2.3-1.6.4" transform="scale(.03125 .02917)" fill="none" stroke-width=".3" stroke="#000"/><path d="M288.3 210c0-.3 0-.5.3-.5.1 0 .4.2.4.4s-.3.4-.4.4c-.2 0-.4-.2-.4-.4zm-.3-1.6l.4-.4.4.1v.3c0 .3 0 .4-.3.4s-.5-.1-.5-.4zm-1-1l.1-.5h.4c.3 0 .4.2.4.4s-.1.4-.4.4l-.4-.1-.1-.3zm-1.3-.7c0-.3.2-.4.6-.4.2 0 .3 0 .3.4s-.2.4-.4.4h-.4c0-.2-.2-.3 0-.4zm-1.4 0c0-.2.2-.4.4-.4.4 0 .6.2.6.4s-.3.4-.6.4c0 0-.4-.2-.4-.4zm0 0" transform="scale(.03125 .02917)" fill="none" stroke-width=".2" stroke="#000"/><path d="M9 6.2h-.1H8.5h-.1a1 1 0 01.4 0" fill="#c8b100"/><path d="M285.3 213.2l-.6-.5s-.4.2-1.2.2c-.6 0-.9-1-.9-1s-.7.6-1.4.6-1-.5-1-.5-.6.5-1.2.4c-.6 0-1.3-.8-1.3-.8s-.4.8-1 .8c-.7.1-1-.5-1-.5s-.4.6-1.2.6c-.8.2-1.4-.5-1.4-.5s-.4.7-1 1c-.5 0-1.2-.5-1.2-.5l-.1.6-.3.1.1.5a28.6 28.6 0 0114.6 0l.2-.5zm0 0" transform="scale(.03125 .02917)" fill="none" stroke-width=".3" stroke="#000"/><path d="M8.5 6" fill="#fff"/><path d="M271.3 208.4c0-.1.2-.4.4-.4s.4.3.4.4c0 .3-.2.4-.4.4s-.4-.1-.4-.4zm.2-1.3c0-.4.3-.4.4-.4.2 0 .5 0 .5.4 0 .2-.1.4-.5.4-.3 0-.4-.3-.4-.4zm1-1.1c0-.2.3-.3.5-.3s.5.1.5.4c0 .1-.3.4-.5.4l-.4-.1v-.4zm1.4-.4c0-.2.2-.4.5-.4.4 0 .4.2.4.4s-.2.4-.4.4c-.1 0-.5-.2-.5-.4zm1.4 0c0-.2.2-.3.4-.3s.6.1.6.4c0 .1-.3.4-.6.4l-.2-.1-.3-.3zm0 0" transform="scale(.03125 .02917)" fill="none" stroke-width=".2" stroke="#000"/><path d="M267.8 211.2c-.2-.3-.2-.7-.2-1 0-.7.3-1.4.8-2 .5-.5 1.2-.7 1.9-.7.4 0 1 0 1.4.2" transform="scale(.03125 .02917)" fill="none" stroke-width=".3" stroke-linecap="round" stroke="#000"/><path d="M272.8 209.2c-.3-.3-.4-.5-.4-.8 0-1 1.2-2 2.6-2 .5 0 1 .1 1.5.4" transform="scale(.03125 .02917)" fill="none" stroke-width=".3" stroke="#000"/><path d="M266.6 210c0-.3.1-.5.4-.5s.4.2.4.4-.1.4-.4.4-.4-.2-.4-.4zm.1-1.6c0-.1.3-.4.6-.4l.3.4c0 .3-.2.4-.4.4s-.4-.1-.4-.4zm1-1c0-.3.2-.5.6-.5 0 0 .3.2.3.4s-.2.4-.4.4l-.3-.1-.1-.3zm1.3-.7c0-.3.3-.4.5-.4s.4 0 .4.4-.1.4-.4.4h-.4l-.1-.4zm1.4 0c0-.2.2-.4.5-.4s.4.2.4.4-.2.4-.4.4-.5-.2-.5-.4zm0 0" transform="scale(.03125 .02917)" fill="none" stroke-width=".2" stroke="#000"/><path d="M8.7 6.1h.1v.1h-.1-.1-.1a.1.1 0 01-.1 0h.2" fill="#c8b100"/><path d="M277.9 210.7h.2v.4c0 .6.5 1 1 1a1 1 0 001-.8l.1-.2v.4c.2.5.7.8 1.2.8.6 0 1-.4 1-1v-.1l.4-.4.2.5-.1.4c0 .6.5 1 1 1 .4 0 .7-.2.9-.6h.2v.2c0 .2.1.6.4.6 0 0 .4 0 1-.4s.7-.6.7-.6v.4s-.5.8-1 1c-.2.2-.5.4-.9.3-.2 0-.4-.3-.6-.7-.2.2-.5.3-.7.3-.6 0-1.1-.3-1.4-.8-.3.3-.6.5-1.1.5s-1-.2-1.1-.6c-.4.2-.7.4-1 .4a2 2 0 01-1.6-.6c0 .4-.6.6-1 .6s-1-.2-1-.4a2 2 0 01-1.4.6c-.4 0-.8-.2-1-.5-.3.5-1 .8-1.6.8 0 0-.4 0-.6-.3-.1.4-.4.7-.7.7-.3 0-.6 0-.9-.3-.4-.2-.8-.5-1-.9l.1-.5.8.6c.5.4.9.4.9.4.3 0 .4-.4.4-.6v-.3l.2.1c.2.4.5.6.9.6.6 0 1-.4 1-1v-.9l.4.4v.1c0 .6.6 1 1 1s1-.3 1-1v-.2l.3.2c.3.4.6.8 1 .8.6 0 1.1-.4 1.1-1v-.3h.1zm0 0" transform="scale(.03125 .02917)" fill="none" stroke-width=".3" stroke="#000"/><path d="M8.7 6.2a.9.9 0 00-.2 0 1 1 0 01.4 0 1 1 0 00-.2 0" fill="#c8b100"/><path d="M277.8 213.3c-3 0-5.6.5-7.3 1l-.3-.1v-.4a29.7 29.7 0 0115.2 0s.2.2.1.4h-.3c-2.4-.6-5-.9-7.4-.9zm0 0" transform="scale(.03125 .02917)" fill="none" stroke-width=".3" stroke="#000"/><path d="M8.6 6.3" fill="#fff"/><path d="M275 214.4c0-.2.3-.4.5-.4s.4.2.4.4-.1.4-.4.4-.5-.2-.5-.4zm0 0" transform="scale(.03125 .02917)" fill="none" stroke-width=".3" stroke="#000"/><path d="M277.9 214.6h-1c-.1 0-.3 0-.3-.4l.3-.3h2c.1 0 .2.1.2.3 0 .2-.1.4-.4.4h-1" transform="scale(.03125 .02917)" fill="#ad1519" stroke-width=".3" stroke="#000"/><path d="M273.3 215h-1v-.3c0-.1 0-.3.2-.3l1.3-.2c.2 0 .3 0 .4.2v.3l-.3.1h-.6" transform="scale(.03125 .02917)" fill="#058e6e" stroke-width=".3" stroke="#000"/><path d="M270.5 215.4l.3-.4h.7l-.4.5-.6-.1" transform="scale(.03125 .02917)" fill="#ad1519" stroke-width=".3" stroke="#000"/><path d="M8.7 6.3" fill="#fff"/><path d="M279.8 214.4c0-.2.2-.4.4-.4s.6.2.6.4-.3.4-.6.4-.4-.1-.4-.4zm0 0" transform="scale(.03125 .02917)" fill="none" stroke-width=".3" stroke="#000"/><path d="M282.5 215h.8l.2-.3c0-.1-.1-.3-.3-.3l-.6-.1-.7-.1c-.1 0-.3 0-.4.2 0 .2.1.3.3.4h.7" transform="scale(.03125 .02917)" fill="#058e6e" stroke-width=".3" stroke="#000"/><path d="M285.1 215.4l-.2-.4h-.6l.2.5.6-.1" transform="scale(.03125 .02917)" fill="#ad1519" stroke-width=".3" stroke="#000"/><path d="M8.7 6.3h-.2a.8.8 0 01.4 0 .9.9 0 01-.2 0" fill="#ad1519"/><path d="M277.8 217.1c-2 0-4-.1-6-.5a23.1 23.1 0 0112 0c-1.6.4-3.6.5-6 .5zm0 0" transform="scale(.03125 .02917)" fill="none" stroke-width=".3" stroke-linejoin="round" stroke="#000"/><path d="M9 6.2h-.1" fill="#c8b100"/><path d="M285.3 212l-.2-.3c-.2 0-.4 0-.4.2v.4c.3 0 .4 0 .6-.3zm0 0" transform="scale(.03125 .02917)" fill="none" stroke-width=".3" stroke="#000"/><path d="M8.8 6.2" fill="#c8b100"/><path d="M280.6 211.2c0-.3-.1-.4-.4-.4v.7zm0 0" transform="scale(.03125 .02917)" fill="none" stroke-width=".3" stroke="#000"/><path d="M8.6 6.2" fill="#c8b100"/><path d="M275.3 211.2v-.4l.4.3-.2.4c-.3 0-.3-.2-.3-.3zm0 0" transform="scale(.03125 .02917)" fill="none" stroke-width=".3" stroke="#000"/><path d="M8.5 6.2" fill="#c8b100"/><path d="M270.5 212l.1-.3c.1 0 .3 0 .4.2l-.1.4c-.1 0-.3 0-.4-.3zm0 0" transform="scale(.03125 .02917)" fill="none" stroke-width=".3" stroke="#000"/><path d="M277.8 208.5l-.8.6.6 1.2.1.1.4-.1.6-1.2-1-.6" transform="scale(.03125 .02917)" fill="#c8b100" stroke-width=".3" stroke="#000"/><path d="M276 210.5l.4.4 1.4-.4v-.4l-1.4-.2-.4.6m3.6 0l-.4.4-1.2-.4-.1-.1v-.3l1.4-.2.4.6m-7.2-1.4l-.8.6 1 1 .2.1.2-.1.1-1.2-.7-.4" transform="scale(.03125 .02917)" fill="#c8b100" stroke-width=".3" stroke="#000"/><path d="M271.1 211.2l.5.5 1.1-.6v-.4l-1.3-.2-.3.7m3.6-.7l-.3.6H273l-.2-.2.1-.4 1.3-.5.4.5m-5 .8v.7l-1.3.1h-.1v-.2l1-1 .4.4" transform="scale(.03125 .02917)" fill="#c8b100" stroke-width=".3" stroke="#000"/><path d="M8.5 6.2" fill="#c8b100"/><path d="M272.4 211c0-.5.2-.6.5-.6s.5.3.5.5-.3.4-.5.4-.4-.2-.5-.4zm0 0" transform="scale(.03125 .02917)" fill="none" stroke-width=".3" stroke="#000"/><path d="M283.3 209l.6.7-.9 1-.3.1v-.1l-.3-1.2.9-.4m1.3 2.1l-.5.5-1.2-.6v-.2l.1-.2 1.3-.2.3.7" transform="scale(.03125 .02917)" fill="#c8b100" stroke-width=".3" stroke="#000"/><path d="M281 210.5l.3.6h1.3l.1-.2v-.4l-1.2-.5-.5.5m4.8.8v.7l1.3.1h.1v-.2l-1-1-.4.4" transform="scale(.03125 .02917)" fill="#c8b100" stroke-width=".3" stroke="#000"/><path d="M8.7 6.1" fill="#c8b100"/><path d="M277.4 210.4c0-.3.2-.4.5-.4s.4.1.4.4-.2.5-.4.5-.5-.2-.5-.5zm0 0" transform="scale(.03125 .02917)" fill="none" stroke-width=".3" stroke="#000"/><path d="M8.8 6.2" fill="#c8b100"/><path d="M282.3 211c0-.5.3-.6.4-.6.4 0 .6.1.6.5 0 .3-.2.4-.6.4-.2 0-.3-.2-.4-.4zm0 0" transform="scale(.03125 .02917)" fill="none" stroke-width=".3" stroke="#000"/><path d="M8.7 6" fill="#c8b100"/><path d="M278.5 205v.7H277v-.7h.4v-1.2h-.5v-.5h.5v-.7h.6v.7h.6v.5h-.6v1.2zm0 0" transform="scale(.03125 .02917)" fill="none" stroke-width=".3" stroke="#000"/><path d="M8.7 6" fill="#c8b100"/><path d="M278.1 204.6c.4 0 .6.4.6.8s-.4.8-1 .8c-.3 0-.7-.4-.7-.8s.3-.8.6-.8" transform="scale(.03125 .02917)" fill="none" stroke-width=".3" stroke="#000"/><path d="M8.4 6.2" fill="#c8b100"/><path d="M268 212.1l-.6-.6-.6-.3c0-.1.2-.3.4-.3l.6.2v-.2s.2 0 .3.3v1zm0 0" transform="scale(.03125 .02917)" fill="none" stroke-width=".3" stroke="#000"/><path d="M8.4 6.2" fill="#c8b100"/><path d="M268 212c.1-.3.4-.3.5 0 .3.1.3.3.1.5h-.5c-.1-.2-.2-.5 0-.6zm0 0" transform="scale(.03125 .02917)" fill="none" stroke-width=".3" stroke="#000"/><path d="M9 6.2" fill="#c8b100"/><path d="M287.5 212.1l.6-.6c.1-.2.6-.3.6-.3 0-.1-.2-.3-.4-.3l-.6.2v-.2s-.2 0-.3.3v.7zm0 0" transform="scale(.03125 .02917)" fill="none" stroke-width=".3" stroke="#000"/><path d="M9 6.2" fill="#c8b100"/><path d="M287.5 212c-.1-.3-.3-.3-.5 0-.3.1-.3.3-.1.5h.5c.2-.2.2-.5.1-.6zm0 0" transform="scale(.03125 .02917)" fill="none" stroke-width=".3" stroke="#000"/><path d="M267.3 223h21.3v-5.5h-21.4v5.6zm0 0" transform="scale(.03125 .02917)" fill="#c8b100" stroke-width=".4" stroke="#000"/><path d="M9 6.6h-.6.5" fill="#c8b100"/><path d="M286.3 226.7h-17c.7 0 1-.6 1-1.2 0-.5-.3-1-1-1.2h17c-.6.2-1 .7-1 1.2 0 .6.4 1.1 1 1.2zm0 0" transform="scale(.03125 .02917)" fill="none" stroke-width=".4" stroke-linejoin="round" stroke="#000"/><path d="M8.4 6.6H9h-.5" fill="#c8b100"/><path d="M269.9 226.7h16c.6 0 1 .4 1 .8s-.4.8-1 .8h-16c-.6 0-1-.4-1-.8s.5-.8 1-.8zm0 0" transform="scale(.03125 .02917)" fill="none" stroke-width=".4" stroke="#000"/><path d="M8.4 6.5H9h-.5" fill="#c8b100"/><path d="M269.9 223h16c.6 0 1 .4 1 .7 0 .4-.4.6-1 .6h-16c-.6 0-1-.2-1-.6 0-.3.4-.6 1-.6zm0 0" transform="scale(.03125 .02917)" fill="none" stroke-width=".4" stroke="#000"/><path d="M8.2 9.3a.3.3 0 00.1 0 .3.3 0 01.1 0h.4a.3.3 0 01.2 0 .3.3 0 00.1 0 .3.3 0 00-.2 0 .2.2 0 00-.1 0 .3.3 0 01-.1 0 .2.2 0 01-.1 0 .3.3 0 00-.1 0 .3.3 0 00-.2 0" fill="#005bbf"/><path d="M263 317.4c1.4 0 2.8-.3 3.8-.8a8.5 8.5 0 013.6-.8c1.4 0 2.9.3 3.9.8s2.2.8 3.6.8c1.5 0 2.9-.3 3.9-.8a8 8 0 013.4-.8c1.4 0 2.7.3 3.8.8 1 .5 2.4.8 3.8.8v2.4c-1.3 0-2.7-.2-3.8-1-1.1-.5-2.4-.7-3.8-.7s-2.6.2-3.4.8c-1 .5-2.4 1-4 1a7 7 0 01-3.6-1 9.6 9.6 0 00-3.8-.8c-1.3 0-2.5.2-3.6.8-1 .5-2.4 1-4 1v-2.5zm0 0" transform="scale(.03125 .02917)" fill="none" stroke-width=".4" stroke="#000"/><path d="M263 319.8c1.4 0 2.8-.4 3.8-1s2.2-.7 3.6-.7 2.9.2 3.9.8 2.2 1 3.6 1 2.6-.3 3.9-1a8 8 0 013.4-.8c1.6 0 3 .2 3.8.8 1 .5 2.4 1 3.8 1v2.2c-1.3 0-2.7-.3-3.8-1-1.1-.5-2.4-.6-3.8-.6s-2.6.3-3.4.7c-1 .5-2.4.9-4 .9a7 7 0 01-3.6-1c-1-.3-2.3-.6-3.8-.6-1.3 0-2.5.1-3.6.7a8 8 0 01-4 .9v-2.3" transform="scale(.03125 .02917)" fill="#ccc" stroke-width=".4" stroke="#000"/><path d="M263 322c1.4 0 2.8-.2 3.8-.8 1-.4 2.2-.7 3.6-.7s2.9.3 3.9.7c1 .5 2.2.9 3.6.9s2.6-.3 3.9-1a8 8 0 013.4-.7c1.4 0 2.7.2 3.8.8 1 .5 2.4.9 3.8.9v2.3c-1.3 0-2.7-.3-3.8-1a11 11 0 00-3.8-.6c-1.3 0-2.6.2-3.4.6a7 7 0 01-4 1c-1.3 0-2.7-.3-3.6-.8a9.6 9.6 0 00-3.8-.8c-1.3 0-2.5.2-3.6.8-1 .5-2.4.8-4 .8V322" transform="scale(.03125 .02917)" fill="#005bbf" stroke-width=".4" stroke="#000"/><path d="M263 326.7c1.3 0 2.5-.2 3.8-.9 1-.4 2.2-.8 3.6-.8s2.9.4 3.9.8c1 .6 2.2.9 3.6.9 1.5 0 2.9-.3 3.9-.9a8.3 8.3 0 013.4-.8c1.6 0 3 .4 3.8.8 1.1.7 2.5 1 3.8.9v-2.3c-1.3 0-2.7-.3-3.8-1a11 11 0 00-3.8-.6c-1.3 0-2.6.2-3.4.6-1 .6-2.4 1-4 1-1.3 0-2.7-.3-3.6-.8a9.6 9.6 0 00-3.8-.8c-1.3 0-2.5.2-3.6.8-1 .5-2.4.8-4 .8v2.3" transform="scale(.03125 .02917)" fill="#ccc" stroke-width=".4" stroke="#000"/><path d="M8.2 9.6h.1a.3.3 0 01.1 0h.2a.3.3 0 00.2 0 .2.2 0 01.1 0 .3.3 0 01.1 0 .3.3 0 00.1 0 .2.2 0 010-.1.3.3 0 00-.3 0 .3.3 0 01-.1 0 .2.2 0 01-.1 0 .3.3 0 00-.2 0 .3.3 0 01-.2 0v.1" fill="#005bbf"/><path d="M263 329c1.3 0 2.5-.2 3.8-.7 1-.6 2.2-.8 3.6-.8s2.9.2 3.9.8c1 .4 2.2.8 3.6.8s2.6-.4 3.9-1c1-.5 2.3-.8 3.4-.6 1.6 0 3 .2 3.8.8 1 .4 2.4.8 3.8.8v-2.4c-1.3 0-2.7-.2-3.8-.9a8.6 8.6 0 00-3.8-.8 8.3 8.3 0 00-3.4.8c-1.3.6-2.6.9-4 .9s-2.7-.3-3.6-.9c-1-.4-2.3-.8-3.8-.8-1.4 0-2.6.4-3.6.8-1 .6-2.4.9-4 .9v2.4zm0 0" transform="scale(.03125 .02917)" fill="none" stroke-width=".4" stroke="#000"/><path d="M9 9h-.7.6" fill="#c8b100"/><path d="M286.3 308v.4c0 1.6 1 2.7 2.6 2.7h-22c1.5 0 2.7-1.2 2.7-2.7l-.1-.4zm0 0" transform="scale(.03125 .02917)" fill="none" stroke-width=".4" stroke-linejoin="round" stroke="#000"/><path d="M8.4 9H9h-.5" fill="#c8b100"/><path d="M269.9 306.6h16c.6 0 1 .2 1 .8 0 .2-.4.6-1 .6h-16c-.6 0-1-.4-1-.8s.5-.6 1-.6zm0 0" transform="scale(.03125 .02917)" fill="none" stroke-width=".4" stroke="#000"/><path d="M266.9 316.7h22V311h-22zm0 0" transform="scale(.03125 .02917)" fill="#c8b100" stroke-width=".4" stroke="#000"/><path d="M9 8.4h.2v.1l-.1.1a.2.2 0 010-.1.2.2 0 010-.1" fill="#ad1519"/><path d="M290.6 286.7c2.1 1.2 3.6 2.5 3.4 3.3-.1.5-.8.9-1.8 1.6-1.6 1-2.4 3-1.8 3.8a5.5 5.5 0 01-2.1-4.4c0-1.7 1-3.3 2.3-4.3zm0 0" transform="scale(.03125 .02917)" fill="none" stroke-width=".4" stroke="#000"/><path d="M8.4 9H9V6.6h-.5zm0 0" fill="#ccc"/><path d="M281.4 229.2v76.2m1.9-76.2v76.2m-13 .2h15.4V229h-15.6v76.5zm0 0" transform="scale(.03125 .02917)" fill="none" stroke-width=".4" stroke="#000"/><path d="M254.3 257.7a48.9 48.9 0 0123.2-2c9.3 1.6 16.4 5.3 15.9 8.4v.1l3.5-8.1c.6-3.2-7.3-7.5-17.6-9.1-3-.6-6.2-.8-9.2-.8-6.7 0-12.4.8-15.9 2.1v9.4" transform="scale(.03125 .02917)" fill="#ad1519" stroke-width=".4" stroke-linejoin="round" stroke="#000"/><path d="M285.8 267.3c4.3-.2 7.2-1.5 7.6-3.2.2-1.5-1.1-3-3.8-4.5-1.2 0-2.5.4-3.9.4v7.3m-15.7-5.7c-2 .1-4 .8-5.8 1.8v.2c-.4 1 2 3 6 5.5v-7.5" transform="scale(.03125 .02917)" fill="#ad1519" stroke-width=".4" stroke="#000"/><path d="M9.2 8.2L9 8.1 8.7 8l-.4-.3v.2c-.1 0 0 .2.3.3l.3.1c.2 0 .3.1.3.2v-.3" fill="#ad1519"/><path d="M295.4 282c.4-1.2-3.8-3.6-9.6-5.8-3-1-5-2-8-3.3-8.2-3.6-14.3-7.9-13.6-9.3v-.2c-.3.4-1 8-1 8-.7 1.3 5 5.6 12.6 9 2.3 1.3 7.4 3.1 10 4 4.2 1.5 8.6 4.4 8.2 5.4zm0 0" transform="scale(.03125 .02917)" fill="none" stroke-width=".4" stroke-linejoin="round" stroke="#000"/><path d="M8.2 7.4l.1-.2v.2l-.1-.2H8l.1.2m.2-.2v.2h.1v-.2m.1 0h.1-.2v.2h.1v-.1m.1.1H9v-.1h-.1v.1m.3.1v-.1h-.2.2zm0 0v-.1" fill="#c8b100"/><path d="M182.3 192.5c0-1.1 1-2 2-2s2 .9 2 2c0 1-1 2-2 2a2 2 0 01-1.4-.7c-.5-.3-.7-.8-.7-1.3zm0 0" transform="scale(.03125 .02917)" fill="none" stroke-width=".1" stroke="#000"/><path d="M205.8 175.4c6.2 0 12 1 15.6 2.5A32 32 0 00236 180c2.8 0 6.5.8 10.3 2.4 2.7 1.1 5.2 2.7 7.4 4.7l-1.4 1.4-.6 3.9-4 4.6-2 1.8-5 3.9-2.4.2-.8 2-31.6-3.6-31.7 3.6-.8-2-2.5-.2-4.9-4-2-1.7-4.1-4.6-.5-4-1.5-1.3c2.2-2 4.7-3.6 7.5-4.7a25 25 0 0110.2-2.4 38.4 38.4 0 0014.7-2.2 43 43 0 0115.4-2.5zm0 0" transform="scale(.03125 .02917)" fill="#ad1519" stroke-width=".3" stroke="#000"/><path d="M206.3 217.1c-12 0-22.6-1.3-30-3.6-.6-.2-1-.7-.8-1.2 0-.6.3-1 .8-1.2a113 113 0 0130-3.6c11.6 0 22.2 1.4 29.7 3.6.5.2.8.6.8 1.2 0 .5-.3 1-.8 1.2-7.5 2.3-18 3.6-29.8 3.6" transform="scale(.03125 .02917)" fill="#c8b100" stroke-width=".4" stroke="#000"/><path d="M6.4 6.3l-.8-.1a3.6 3.6 0 01.8 0h.9a3.6 3.6 0 01-.9 0" fill="#ad1519"/><path d="M206.9 215.8v-6.3m-1.7 6.3v-6.3" transform="scale(.03125 .02917)" fill="none" stroke-width=".1" stroke="#000"/><path d="M203.6 215.8v-6.3m-1.6 6.3v-6.3" transform="scale(.03125 .02917)" fill="none" stroke-width=".2" stroke="#000"/><path d="M200.6 215.8v-6.3m-2.8 5.9v-5.8m1.3 5.8v-6m-3.8 5.6v-5.1m1.3 5.3v-5.6" transform="scale(.03125 .02917)" fill="none" stroke-width=".3" stroke="#000"/><path d="M192 214.8V210m1 4.7V210m1.3 5v-5m-3.6 4.7V210" transform="scale(.03125 .02917)" fill="none" stroke-width=".4" stroke="#000"/><path d="M189.8 214.6v-4.3m-1.3 4.1v-4" transform="scale(.03125 .02917)" fill="none" stroke-width=".5" stroke="#000"/><path d="M186 214v-3m1.3 3.2v-3.5m-2.6 3V211" transform="scale(.03125 .02917)" fill="none" stroke-width=".6" stroke="#000"/><path d="M183.8 213.6v-2.3m-1.4 2v-1.8m-1.2 1.6v-1.4" transform="scale(.03125 .02917)" fill="none" stroke-width=".7" stroke="#000"/><path d="M179.8 212.8v-.7" transform="scale(.03125 .02917)" fill="none" stroke-width=".9" stroke="#000"/><path d="M213.8 215.4v-6m-3 6v-6m-2 6.2v-6.3" transform="scale(.03125 .02917)" fill="none" stroke-width=".1" stroke="#000"/><path d="M206 207.5a108 108 0 00-30 3.8c.6-.4.5-1-.3-3-1-2.5-2.4-2.5-2.4-2.5 8.3-2.4 20-3.8 32.8-3.8 11.2-.3 22.3 1 33 3.8 0 0-1.5 0-2.5 2.5-.8 1.8-.8 2.6-.2 2.9-7.5-2.1-18.4-3.7-30.3-3.7" transform="scale(.03125 .02917)" fill="#c8b100" stroke-width=".4" stroke="#000"/><path d="M206.1 202c-12.8 0-24.5 1.4-32.8 3.8a.8.8 0 01-.8 0 1 1 0 01-.5-.5c-.1-.3-.1-.5.1-.8.2-.3.3-.4.7-.5 10.8-3 22-4.3 33.3-4.2a127 127 0 0133.5 4.2c.7.2.9.8.7 1.3-.2.5-.8.8-1.3.5-8.4-2.4-20-3.8-32.9-3.8" transform="scale(.03125 .02917)" fill="#c8b100" stroke-width=".4" stroke="#000"/><path d="M206.1 215.6c-10.6 0-20.2-1.2-27.5-3 7.3-2 16.9-3.1 27.5-3.1 9.3-.2 18.5.8 27.7 3-7.4 2-17 3.1-27.7 3.1zm0 0" transform="scale(.03125 .02917)" fill="none" stroke-width=".4" stroke-linejoin="round" stroke="#000"/><path d="M197 204.8c0-.6.4-1 1-1 .5 0 1 .4 1 1 0 .5-.4 1-1 1-.5 0-1-.5-1-1" transform="scale(.03125 .02917)" fill="#fff" stroke-width=".4" stroke="#000"/><path d="M206.1 205.6H203c-.5 0-1-.4-1-1s.5-1 1-1h6.4c.5 0 1 .5 1 1 0 .4-.5 1-1 1h-3.2" transform="scale(.03125 .02917)" fill="#ad1519" stroke-width=".4" stroke="#000"/><path d="M190.3 206.5l-2.3.2c-.6 0-1-.3-1.3-.9l.3-.6c.3-.3.5-.4.8-.4l2.2-.3 2.4-.3c.5 0 1 .3 1.1.8.1.6-.3 1.1-.9 1.1l-2.3.4" transform="scale(.03125 .02917)" fill="#058e6e" stroke-width=".4" stroke="#000"/><path d="M181 206.7c0-.6.5-1 1.1-1s1 .4 1 1c0 .5-.3 1-1 1s-1-.5-1-1" transform="scale(.03125 .02917)" fill="#fff" stroke-width=".4" stroke="#000"/><path d="M174 208.5l1.3-1.6 3.2.4-2.6 2-1.8-.8" transform="scale(.03125 .02917)" fill="#ad1519" stroke-width=".4" stroke="#000"/><path d="M222 206.5l2.3.2c.4 0 1-.3 1-.9 0-.2 0-.5-.2-.6a.7.7 0 00-.6-.4l-2.3-.3-2.3-.3c-.3 0-.5 0-.8.2l-.3.6c0 .6.3 1.1 1 1.1l2.2.4" transform="scale(.03125 .02917)" fill="#058e6e" stroke-width=".4" stroke="#000"/><path d="M213.3 204.8c0-.6.4-1 1-1s1 .4 1 1c0 .5-.4 1-1 1s-1-.5-1-1m15.8 1.9c0-.6.5-1 1-1 .7 0 1.2.4 1.2 1 0 .5-.6 1-1 1-.7 0-1-.5-1-1" transform="scale(.03125 .02917)" fill="#fff" stroke-width=".4" stroke="#000"/><path d="M238.3 208.5L237 207l-3.3.4 2.6 2 1.8-.8" transform="scale(.03125 .02917)" fill="#ad1519" stroke-width=".4" stroke="#000"/><path d="M177.3 212.8c7.4-2.1 17.6-3.3 28.8-3.3s21.4 1.2 28.9 3.3" transform="scale(.03125 .02917)" fill="none" stroke-width=".4" stroke="#000"/><path d="M182.3 183.8l1.4 1 2-3.2a7.2 7.2 0 01-3.6-7.2c.2-4 5.2-7.7 11.7-7.7 3.3 0 6.3 1.1 8.4 2.5 0-.6 0-1.3.3-1.8a17.7 17.7 0 00-8.8-2.1c-7.3 0-13 4.1-13.4 9-.3 3 .8 5.8 3 7.7l-1 1.7" transform="scale(.03125 .02917)" fill="#c8b100" stroke-width=".4" stroke="#000"/><path d="M182.4 183.8a9.2 9.2 0 01-4-7.3c0-3.2 2-6.1 5.3-8a8.3 8.3 0 00-3.4 6.8c0 2.6 1 5 3 6.7l-1 1.8" transform="scale(.03125 .02917)" fill="#c8b100" stroke-width=".4" stroke="#000"/><path d="M5 5.5a.2.2 0 010-.2v-.1c0-.1.2-.2.5-.2h.1a1 1 0 00-.1 0c-.3 0-.4 0-.5.2a.2.2 0 000 .2v.2-.1" fill="#c8b100"/><path d="M160.1 187.1a8.8 8.8 0 01-2.3-5.9 8 8 0 011-3.7c2-4.3 8.4-7.3 16-7.3 2 0 4 .2 6 .6l-1 1.4a30.3 30.3 0 00-5-.4c-7 0-12.8 2.7-14.6 6.3-.3 1-.6 2-.6 3.1 0 2.1 1 4.3 2.7 5.6l-2.6 4-1.3-.9zm0 0" transform="scale(.03125 .02917)" fill="none" stroke-width=".4" stroke="#000"/><path d="M5 5a.3.3 0 000 .2v.3a.3.3 0 01-.1-.2s0-.2.2-.2" fill="#c8b100"/><path d="M162.8 173.3a9.5 9.5 0 00-4 4.2 7.6 7.6 0 00-1 3.7c0 2.3 1 4.3 2.3 5.9l-1.5 2.5a10.5 10.5 0 01-2.3-6.5c0-4 2.4-7.5 6.4-9.8zm0 0" transform="scale(.03125 .02917)" fill="none" stroke-width=".4" stroke="#000"/><path d="M6.4 4.8h.1a.7.7 0 010 .2l.1.3-.2.1-.1-.1V5a.7.7 0 010-.1l.1-.1" fill="#c8b100"/><path d="M206 164.5c1.8 0 3.3 1 3.5 2.5.3 1.3.4 3 .4 4.6v1c.1 3.2.6 6.3 1.3 8l-5.2 5.2-5.3-5.1c.8-1.8 1.3-4.9 1.4-8v-1.1c0-1.6.2-3.3.4-4.6.3-1.5 1.8-2.5 3.5-2.5zm0 0" transform="scale(.03125 .02917)" fill="none" stroke-width=".4" stroke="#000"/><path d="M6.4 4.8a.5.5 0 01.1.2v.3h-.2a.6.6 0 000-.3v-.1h.1" fill="#c8b100"/><path d="M206 166c1 0 1.8.6 1.8 1.4.2 1.2.4 2.6.4 4.2v1c0 3.2.6 6 1.2 7.7l-3.4 3.2-3.4-3.2a23 23 0 001.2-7.7v-1c0-1.4.2-2.8.4-4.2a2 2 0 011.8-1.5zm0 0" transform="scale(.03125 .02917)" fill="none" stroke-width=".4" stroke="#000"/><path d="M229.8 183.8l-1.4 1-2-3.2a7.4 7.4 0 003.6-6.3v-1c-.3-4-5.3-7.6-11.8-7.6-3 0-5.8.8-8.4 2.5 0-.6 0-1.3-.2-1.8 2.7-1.5 5.7-2.1 8.7-2.1 7.4 0 13.2 4.1 13.4 9 .3 3-.8 5.8-3 7.7l1 1.7" transform="scale(.03125 .02917)" fill="#c8b100" stroke-width=".4" stroke="#000"/><path d="M229.6 183.8a9 9 0 004.2-7.3c0-3.2-2.2-6.1-5.4-8a8.7 8.7 0 01.3 13.5l1 1.8" transform="scale(.03125 .02917)" fill="#c8b100" stroke-width=".4" stroke="#000"/><path d="M7.9 5.5a.3.3 0 000-.2.2.2 0 000-.1C8 5 7.7 5 7.4 5h-.2.2c.2 0 .4 0 .5.2a.2.2 0 010 .2v.2-.1" fill="#c8b100"/><path d="M252 187.1a9.3 9.3 0 002.3-5.9c0-1.3-.4-2.7-1-3.7-2-4.3-8.4-7.3-16-7.3-2 0-4 .2-6 .6l1 1.4a32.7 32.7 0 015-.4c7 0 12.8 2.7 14.4 6.3.6 1 .7 2 .7 3.1 0 2.1-.9 4.2-2.7 5.6l2.6 4 1.3-.9-1.7-2.8zm0 0" transform="scale(.03125 .02917)" fill="none" stroke-width=".4" stroke="#000"/><path d="M7.8 5l.1.2a.2.2 0 010 .3.3.3 0 000-.2l-.1-.2" fill="#c8b100"/><path d="M249.3 173.3c1.7 1 3 2.4 4 4.2.6 1 1 2.4 1 3.7 0 2.1-1 4.3-2.4 5.9l1.6 2.5c1.5-1.8 2.3-4.1 2.3-6.5 0-4-2.6-7.5-6.6-9.8zm0 0" transform="scale(.03125 .02917)" fill="none" stroke-width=".4" stroke="#000"/><path d="M6.4 5.3h0" fill="#fff"/><path d="M204.3 181.3c0-.9.7-1.7 1.7-1.7s1.9.8 1.9 1.7c0 1.1-.9 1.8-1.9 1.8s-1.8-.7-1.8-1.8zm0 0" transform="scale(.03125 .02917)" fill="none" stroke-width=".4" stroke="#000"/><path d="M204.3 178c0-1 .7-1.7 1.7-1.7s1.9.8 1.9 1.7c0 1-.9 1.7-1.9 1.7s-1.8-.8-1.8-1.7m.4-3.8c0-.6.7-1.2 1.4-1.2s1.5.6 1.5 1.2c0 .8-.8 1.5-1.5 1.5s-1.4-.7-1.4-1.5m.4-3.2c0-.5.4-1 1-1s1 .5 1 1-.4 1-1 1c-.5 0-1-.4-1-1m.3-2.8c0-.5.3-.8.7-.8.5 0 .9.3.9.8 0 .4-.4.8-.9.8s-.8-.4-.8-.8" transform="scale(.03125 .02917)" fill="#fff" stroke-width=".4" stroke="#000"/><path d="M206.3 191.8l1 .3a5 5 0 00.8 4.1 4.1 4.1 0 003.8 1.7c2 0 3.7-1 4.3-2.9.2 0 .6-1.7.8-1.7s.1 1.8.3 1.7c.2 2.3 2.3 3.8 4.6 3.8 1.3 0 2.6-.5 3.5-1.4a5 5 0 001.2-3.6l1.5-1.5.7 2a4.3 4.3 0 004.1 6c1.6 0 3-.6 3.8-1.8l1-1.2v1.4c0 1.7.6 2.9 2 3.1 0 0 1.6.2 4-1.6 2-1.7 3.2-3 3.2-3l.2 1.6s-1.8 2.8-3.8 4c-1 .6-2.7 1.3-4 1-1.4-.2-2.4-1.3-3-2.6-1 .6-2.2.9-3.3 1-2.6 0-5-1.3-6.1-3.7a6.5 6.5 0 01-5.3 2.1c-2 0-3.8-1-5.1-2.4a7.1 7.1 0 01-4.6 1.8c-2.3 0-4.4-1.1-5.7-3a7.1 7.1 0 01-5.7 3 7 7 0 01-4.8-1.8 6.8 6.8 0 01-5 2.4c-2 .2-4-.6-5.3-2.1a6.6 6.6 0 01-6 3.7c-1.2 0-2.4-.4-3.4-1-.6 1.3-1.5 2.4-3 2.6-1.3.3-2.9-.4-4-1-2-1.2-3.8-4-3.8-4l.2-1.7s1.2 1.4 3.3 3.1c2.3 1.8 4 1.6 4 1.6 1.4-.2 2-1.4 2-3v-1.5l1 1.2a4.3 4.3 0 003.7 2c2.5 0 4.5-2 4.5-4.3.1-.7-.2-1.3-.4-2l.8-1.9 1.4 1.5v.7c0 2.2 2 4.2 4.7 4.2 2.3 0 4.3-1.4 4.7-3.7 0 0 0-1.6.2-1.7.2 0 .6 1.7.7 1.6a4.5 4.5 0 004.5 3c1.5.2 2.9-.5 3.8-1.7 1-1.2 1.2-2.8.7-4.1l1.3-.3" transform="scale(.03125 .02917)" fill="#c8b100" stroke-width=".4" stroke="#000"/><path d="M238.6 197.7c.3-.8 0-1.6-.6-1.8-.5-.2-1.3.3-1.5 1.1s0 1.6.6 1.8c.5.2 1.2-.3 1.5-1.1m-20.5-4c0-.8-.3-1.6-1-1.6-.5 0-1 .5-1.2 1.4-.2.8.3 1.5.8 1.6.7 0 1.3-.6 1.4-1.4m-23.8 0c0-.8.3-1.6 1-1.6.4 0 1 .5 1 1.4.2.8-.2 1.5-.8 1.6-.6 0-1.1-.6-1.3-1.4m-20.4 4c-.3-.8 0-1.6.4-1.8.7-.2 1.3.3 1.6 1.1.3.8 0 1.6-.6 1.8-.4.2-1.2-.3-1.4-1.1" transform="scale(.03125 .02917)" fill="#fff" stroke-width=".4" stroke="#000"/><path d="M182.8 184c1 .7 1.7 1.8 2 3 0 0 0-.4.7-.7.6-.3 1-.3 1-.3l-.1 1.4-.3 2.1c-.2.5-.3 1-.7 1.6-.4-.4-1-.5-1.5-.4s-.9.4-1.2 1l-1.2-1.4-1.1-2-.7-1s.6-.3 1 0h1a4.6 4.6 0 011-3.3m.3 9.8a4 4 0 01-.6-1c0-.5 0-.9.3-1.1l-1.8-.9h-3.3l.2.4.4.7c-1 .3-2.2 1-3 2 1 .7 2.3 1.1 3.6 1l-.2.8v.6l1-.4c.3-.1 1.5-.5 2-1 .8-.4 1.5-1.1 1.5-1.1m2.7-.5c.2-.3.3-.7.2-1.1-.1-.4-.3-.7-.6-1l1.3-1.3 2-1 1.2-.3v.6l-.2.8c1.2 0 2.4.3 3.4 1-.7 1-1.7 1.7-2.8 2 0 .4.3.8.6 1.2h-1l-2.3-.1-1.8-.8" transform="scale(.03125 .02917)" fill="#c8b100" stroke-width=".4" stroke="#000"/><path d="M182.3 192.5c0-1.1 1-2 2-2s2 .9 2 2c0 1-1 2-2 2a2 2 0 01-1.4-.7c-.5-.3-.7-.8-.7-1.3" transform="scale(.03125 .02917)" fill="#ad1519" stroke-width=".4" stroke="#000"/><path d="M206.1 180.8a6 6 0 011.9 3.8s.3-.4.9-.6l1.2-.2-.5 1.4-.8 2.4c-.3.6-.6 1.2-1 1.6a2.3 2.3 0 00-3.3 0s-.6-.6-1-1.6l-.8-2.4-.4-1.4 1 .2c.8.2 1 .6 1 .6 0-1.5.8-2.9 1.8-3.8m-1.5 11c-.3-.3-.5-.8-.5-1.2 0-.6.2-1 .4-1.4 0 0-.8-.6-1.8-.9-.7-.4-2-.7-2.4-.7l-1.3-.2.3.6.3.8c-1.3.2-2.7.8-3.7 1.8 1 1 2.3 1.6 3.7 1.6l-.3 1-.3.6 1.3-.1c.3-.2 1.7-.4 2.4-.8l2-1m3 0c.7-.6.7-1.9 0-2.7l1.8-.9c.8-.4 1.6-.7 2.5-.7l1.3-.2-.2.6-.3.8a5 5 0 013.4 1.8c-.8 1-2.2 1.5-3.4 1.6 0 .5.2 1 .4 1.6l-1.2-.1-2.5-.8c-1-.4-1.8-1-1.8-1m22-8a5 5 0 00-2.2 3l-.8-.6c-.4-.3-1-.3-1-.3l.3 1.4c0 .2 0 1.2.3 2.1.2 1 .6 1.6.6 1.6.5-.4 1-.5 1.5-.4.6.1 1 .6 1.3 1l1-1.4c.7-.8 1-1.7 1.2-2l.7-1s-.3-.3-1 0h-1a4.6 4.6 0 00-1-3.3m-.3 9.8c.3-.3.4-.5.6-1 .1-.3 0-.9-.2-1.1 0 0 .8-.6 1.7-.9h3.3l-.2.4-.4.7c1.2.3 2.2 1 2.9 2-1 .7-2.3 1.1-3.5 1l.3.8v.6l-1-.4c-.4-.1-1.6-.5-2-1-1-.4-1.6-1.1-1.6-1.1m-2.7-.5c-.3-.3-.3-.7-.3-1.1 0-.5.4-.8.7-1 0 0-.7-.8-1.4-1.3l-2-1c-.4 0-.6-.2-1-.3v.6c0 .4.3.8.3.8-1.3 0-2.6.3-3.6 1a4.6 4.6 0 003 2s-.3.3-.4.7l-.4.5h1l2.3-.1 1.8-.8" transform="scale(.03125 .02917)" fill="#c8b100" stroke-width=".4" stroke="#000"/><path d="M226 192.5c0-1.1 1-2 2-2s2.1.9 2.1 2a2 2 0 01-3.5 1.3c-.3-.3-.6-.8-.6-1.3m23.3 4.2c-.6-.4-1.6-.4-2.3.3s-1 1.6-.5 2.2c.5.5 1.5.4 2.3-.3.7-.6 1-1.6.4-2" transform="scale(.03125 .02917)" fill="#ad1519" stroke-width=".4" stroke="#000"/><path d="M246.3 198l.7-1c.8-.7 1.8-.7 2.3-.3v.3s1-2 2.4-2.5c1.3-.8 3.4-.6 3.4-.6a3 3 0 00-.8-2c-.6-.5-1.3-.8-2-.8-1 0-2 .3-2.6 1v-1s-1.4.3-2 1.8c-.6 1.6 0 3.6 0 3.6l-.7-1.5a9.4 9.4 0 00-2.4-1.6l-1.3-.7v.6a1 1 0 000 .8c-1.3-.2-2.7 0-3.8.4a4.3 4.3 0 002.5 2.2l-.8.7a1 1 0 00-.4.5l1.3.2 2.5.2c.5 0 1.2 0 1.7-.2m-80.3 0c0-.4-.3-.7-.8-1-.6-.8-1.6-.8-2-.4l-.3.4s-1-2-2.3-2.6c-1.2-.8-3.3-.6-3.3-.6 0-1.6 1.2-2.8 2.8-2.8 1 0 1.9.4 2.4 1l.3-1s1.2.3 2 1.8c.4 1.6-.2 3.6-.2 3.6s.3-1 .8-1.5c.7-.7 1.5-1.2 2.3-1.6l1.4-.7v1.4c1.3-.2 2.5 0 3.7.4a4.3 4.3 0 01-2.6 2.2l1 .7.3.5-3.8.4c-.6 0-1.2 0-1.7-.2" transform="scale(.03125 .02917)" fill="#c8b100" stroke-width=".4" stroke="#000"/><path d="M163 196.7c.6-.4 1.6-.4 2.4.4.7.6 1 1.5.3 2-.4.6-1.4.5-2-.2-1-.6-1-1.6-.6-2m41-6.3c0-1 .9-2 2-2s2.2 1 2.2 2-1 2-2 2c-.7 0-1.2-.1-1.6-.5-.3-.4-.6-1-.6-1.5" transform="scale(.03125 .02917)" fill="#ad1519" stroke-width=".4" stroke="#000"/><path d="M201.8 160.6c0-2.2 2-4 4.3-4s4.2 1.8 4.2 4c0 2.3-2 4-4.3 4a4.2 4.2 0 01-4.3-4" transform="scale(.03125 .02917)" fill="#005bbf" stroke-width=".3" stroke="#000"/><path d="M205 149.3v2.2h-2.4v2.3h2.3v6.2H202l-.3.6c0 .6.2 1 .4 1.6h7.9c.3-.5.3-1 .3-1.6l-.2-.6h-2.8v-6.3h2.3v-2.2h-2.3v-2.2h-2.4zm0 0" transform="scale(.03125 .02917)" fill="#c8b100" stroke-width=".3" stroke="#000"/><path d="M6.5 9.6a2.7 2.7 0 01-1.2-.2.7.7 0 01-.4-.6v-1h3v1a.7.7 0 01-.3.6 2.7 2.7 0 01-1.1.2" fill="#ccc"/><path d="M206.5 330.5a81.8 81.8 0 01-35.5-8.1 22.4 22.4 0 01-12.8-20.4v-32h96.4v32c0 8.7-5 16.6-12.8 20.4-11 5.3-23 8.1-35.3 8.1zm0 0" transform="scale(.03125 .02917)" fill="none" stroke-width=".5" stroke="#000"/><path d="M206.3 270h48.3v-53.4h-48.3zm0 0" transform="scale(.03125 .02917)" fill="#ccc" stroke-width=".5" stroke="#000"/><path d="M6.4 8.8c0 .4-.3.7-.7.7-.4 0-.8-.3-.8-.7v-1h1.5v1" fill="#ad1519"/><path d="M168.6 320.9c1.5.8 3.7 2 5.8 2.5l-.2-54.6h-5.6zm0 0" transform="scale(.03125 .02917)" fill="#c8b100" stroke-width=".5" stroke="#000"/><path d="M158 301.6c.1 5.5 2 10.7 5.5 15v-47.5h-5.4v32.5zm0 0" transform="scale(.03125 .02917)" fill="#c8b100" stroke-width=".5" stroke-linejoin="round" stroke="#000"/><path d="M179.4 324.6c1.8.3 3.7.3 5.6 0v-55.8h-5.6v56zm0 0" transform="scale(.03125 .02917)" fill="#c7b500" stroke-width=".5" stroke="#000"/><path d="M190 323.4c2-.4 4-1.3 5.8-2.4v-52.2H190l-.1 54.6zm0 0" transform="scale(.03125 .02917)" fill="#c8b100" stroke-width=".5" stroke="#000"/><path d="M158.1 270h48.2v-53.4H158V270zm0 0" transform="scale(.03125 .02917)" fill="#ad1519" stroke-width=".5" stroke="#000"/><path d="M201 316c2.4-2 4.6-6.8 5.4-12.3l.1-34.9H201l.1 47.3zm0 0" transform="scale(.03125 .02917)" fill="#c8b100" stroke-width=".5" stroke="#000"/><path d="M206.3 302a23.4 23.4 0 01-24 23 23.6 23.6 0 01-24.2-23.1v-32h48.2v32" transform="scale(.03125 .02917)" fill="none" stroke-width=".5" stroke="#000"/><path d="M254.6 270v32c0 12.6-10.8 23-24.1 23s-24.3-10.4-24.3-23.1v-32h48.4" transform="scale(.03125 .02917)" fill="#ad1519" stroke-width=".5" stroke="#000"/><path d="M6.7 8.6c-.1 0 0 0 0 0v.2-.1H7v-.1h-.2m.7 0h-.1l.1.2-.2-.1v.2-.2l-.2.1.1-.2H7h.4zm0 0h.2v.2h.1v-.1-.1h-.2m-.2.6h.1a.8.8 0 01-.1 0l-.1.1a.8.8 0 01-.2 0v-.1h.1V9h.1v.2zm-.4 0a.5.5 0 01-.1 0 .1.1 0 010-.1h-.1V9a.4.4 0 010-.2.4.4 0 000 .2l.2-.2V9a.4.4 0 000 .2zM6.7 9c.1 0 .1 0 0 0zm0-.1v-.1zm0-.2v.1zm.2.4a.5.5 0 00.1.1.3.3 0 010-.1h-.1m0 0a.5.5 0 00.1.1.7.7 0 01-.1 0m0-.3h.2v-.1l-.2.1m0 0v-.2H7L7 9m.6.3a.5.5 0 00.1 0 .1.1 0 000-.1h.1V9a.4.4 0 000-.2.3.3 0 010 .2h-.1l-.1-.2V9a.5.5 0 010 .2zm.1-.2zm.1-.1v-.1zm0-.2v.1m-.2.3a.5.5 0 01-.2.1.4.4 0 00.2-.1m0 0a.6.6 0 01-.1.2.7.7 0 00.1 0v-.1m0-.3h-.1v-.1.1m0 0h.1v-.2h-.1V9M7 8.6H7 7m.6 0h-.1.1m-.3.7zm0-.3V9 9m0 0V9 9" fill="#c8b100"/><path d="M6.6 8.6v-.2h.1v.1H7h-.2m.3 0H7L7 8.5l.2.1v-.2.2l.2-.1-.1.2h.1zm.7 0v-.1.1h-.2.2m-1-.4l.2.2-.1-.2h.1-.1L6.7 8V8.4v-.2zm1 0v.2-.2l-.2.2.1-.2h-.1.1l.1-.1v.1zm-.5 0v0H7 7l.1-.1h.2v.1h-.1zm-.5.2v.1-.1m0 0v.1-.1m1 0v.1-.1m0 0v.1-.1m-.8 0h.2v.1l-.2-.1m0 0v.1H7h-.1m.6-.1h-.2v.1l.2-.1m0 0v.1h-.1.1m-.6.2H7 7M6.7 8zM7 8H7 7m0 0H7 7m.5.5h-.1.1m.2-.5zm-.5 0zm.2 0h.1-.1m0 0h.1-.1m-.2.1v.1-.1m0 0v.1-.1" fill="#c8b100"/><path d="M232.8 316.3c1.2-.2 2.4-.6 3.6-1.2l.8 1.5a23.6 23.6 0 01-4.3 1.2c-.3 1.2-1.4 2-2.7 2-1 0-2-.8-2.4-2-1.6-.3-3.2-.7-4.6-1.2l.8-1.5c1.3.6 2.6 1 4 1.1.3-.7.9-1 1.5-1.3v-6.7h1.6v6.7a3 3 0 011.7 1.4zm-4.8-20.5l-.3-.4h-4V294h4l.3-.4-5-5.7 1.3-.9 5 5.5h0V285h1.8v7.4h.2l5-5.7 1 1.1-4.8 5.5.3.5h4v1.6h-4c0 .2-.2.4-.3.4l4.8 5.4-1.4 1-4.7-5.3V305.8h-1.7V297l-.3-.2-4.7 5.2-1.3-.9 4.8-5.4m-12.8-16.6l6 6.7 1.3-.9-6.1-6.7.3-.7h4.4V276h-4.3c-.4-1-1.6-1.7-2.6-1.7-1.4 0-2.6 1-2.6 2.5 0 1.1.7 2 1.7 2.4v5.3h1.6v-5.3zm6.6 34.9l-1 1.3c-1.3-.8-2.4-1.9-3.6-3-.8 0-1.7 0-2.4-.6a3 3 0 01-1-1.6c0-.7.2-1.4.7-1.9l.1-.1c-.6-1.5-1.1-3.1-1.2-4.9h1.6a13.4 13.4 0 001 4c.5 0 1 0 1.4.3l4.1-4.5 1.3 1-4 4.5c.4 1 .4 2-.2 2.8.9 1 1.9 1.9 3.2 2.7zm-8.6-13.2v-3.8c-1-.4-1.7-1.4-1.7-2.5 0-1 .8-2 1.8-2.4V287h1.6v5.4a2 2 0 011.7 1.4h4.4v1.6h-4.4c-.2.7-.8 1.4-1.6 1.7v3.8h-1.8m2.4 8.3c.4-.4 1.2-.5 1.7 0 .4.4.4 1 0 1.4-.4.4-1.2.5-1.6.1-.2-.3-.3-.5-.3-.8s.1-.5.3-.7zm-2-4.5l-1.7-.3-.3-4.3 1.7-.6v2.5c0 1 0 1.8.3 2.7zm1.4-5.2l1.6.4v2.1c0-.8.3 2.2.3 2.2l-1.7.5-.3-2.7v-2.5zm5.5 13.6c1.4 1.1 3 2 4.8 2.6l.4-1.6c-1.4-.4-2.8-1.1-4-2l-1.2 1m-.8 1.4c1.4 1.2 3 2 4.8 2.6l-1.3 1.1c-1.3-.5-2.7-1.2-4-2l.6-1.7" transform="scale(.03125 .02917)" fill="none" stroke-width=".3" stroke="#c8b100"/><path d="M221.9 305l1.6.8 3-3.3-1-1.4-3.6 4m-1.3-1l-1-1.4 3-3.2 1.7.6-3.7 4m-7.6-9.5c0-.6.5-1 1-1 .8 0 1.3.5 1.3 1 0 .6-.6 1.1-1.2 1.1-.2 0-.6-.1-.7-.3-.3 0-.4-.4-.4-.8zm25.8 19.5l.7 1.3c1.4-.8 2.5-1.9 3.6-3 .9 0 1.8 0 2.7-.6.4-.4.7-1 .7-1.8.1-.6-.1-1.2-.6-1.7l-.2-.1c.8-1.5 1.2-3.1 1.4-4.9h-1.7c-.2 1.5-.4 2.9-1 4-.5 0-.9 0-1.4.3l-4.1-4.5-1.3 1 4.2 4.5c-.7 1-.7 2 0 2.8l-3 2.7zm8.3-13.2v-3.8c1-.4 1.8-1.4 1.8-2.5 0-1-.7-2-1.8-2.4V287h-1.6v5.4c-.8.1-1.4.6-1.8 1.4h-4.3v1.6h4.3c.4.9 1 1.3 1.8 1.7v3.8zm-2.3 8.3a1 1 0 00-1.6 0c-.4.3-.4 1 0 1.4.3.4 1 .5 1.6.1l.2-.8a1 1 0 00-.3-.7zm2-4.5l1.7-.3.3-4.3-1.7-.6v2.5c0 1 0 1.7-.2 2.7zm-1.3-5.2l-1.8.4v2.1l-.2 2.2 1.8.5.2-2.7v-2.5m1.6-20.3v5.3h-1.6v-5.3h-.4l-6 6.7-1.2-1 6-7v-.3h-4.5V276h4.3c.4-1 1.6-1.7 2.6-1.7 1.4 0 2.6 1 2.6 2.5 0 1.1-.8 2-1.8 2.4zm-16 0v3.3h-1.7v-3.3c-.8 0-1.4-.8-1.7-1.6h-4V276h4c.4-1 1.3-1.7 2.6-1.7 1 0 2 .7 2.4 1.7h4v1.6h-4c-.2.7-.8 1.4-1.6 1.6zm8.8 34c-1.4 1-3 2-4.8 2.5l-.3-1.6a12.6 12.6 0 004-2l1 1m1 1.4c-1.6 1.2-3.2 2-5 2.6l1.3 1.1c1.4-.5 2.8-1.2 4-2l-.3-1.7M213.2 283l-1.6.6v4.2l1.7.4v-5m1.7 0l1.6.4v4.2l-1.6.4V283m30.5 0l-1.8.5v4.3l1.8.5V283" transform="scale(.03125 .02917)" fill="none" stroke-width=".3" stroke="#c8b100"/><path d="M247.1 283.1l1.7.6v4.2l-1.7.4V283m-8.6 22l-1.6.8-2.9-3.4 1-1.5 3.5 4m1.3-.9l1-1.5-3-3.2-1.6.7 3.6 4m-18.2-20l1.7-.7 3 3.3-1 1.3-3.7-3.8m-1.3.9l-1 1.3 3 3.4 1.6-.7-3.7-4m18.6-1l-1.6-.7-3 3.2 1 1.4 3.6-4m1.2 1l1 1.4-3 3.3-1.5-.7 3.5-4m-20.3 9l.6-1.5h4.4l.6 1.4h-5.6m0 1.6l.6 1.7h4.4l.6-1.7h-5.6M213 277c0-.6.5-1 1.3-1 .4 0 1 .4 1 1s-.6 1-1 1-.7 0-1-.2c-.2-.2-.3-.4-.3-.8zm12.1.8l-.5 1.6h-4.5l-.5-1.6h5.5m0-1.6l-.5-1.6h-4.5l-.5 1.6h5.5m20.2 18.4c0-.4.4-.9 1-.9s1 .5 1 1c0 .6-.4 1.1-1 1.1-.2 0-.6 0-.8-.2l-.3-.8zm-4.6-.6l-.4-1.6h-4.6l-.4 1.6h5.4m0 1.4l-.4 1.7h-4.6l-.4-1.7h5.4m-11.4 22c0-.7.4-1 1-1s1 .3 1 1c0 .5-.4 1-1 1-.2 0-.4 0-.7-.2-.2-.3-.3-.5-.3-.8zm1.8-7.8l1.7-.4V305l-1.7-.6v5.2m-1.6 0l-1.8-.4V305l1.8-.6v5.2m15.8-32.6c0-.6.4-1 1-1 .3 0 .6 0 .8.3.2.1.3.4.3.7 0 .6-.5 1-1 1l-.8-.2-.3-.8zm-16.2 0c0-.6.5-1 1.2-1 .2 0 .4 0 .7.3.1.1.3.4.3.7 0 .6-.6 1-1 1l-.8-.2c-.3-.3-.4-.6-.4-.8zm6.2.8l.4 1.6h4.7l.5-1.6h-5.5m0-1.6l.3-1.6h4.7l.5 1.6h-5.5m-6 5l-1.7.5v4.2l1.7.6V281m1.7 0l1.7.5v4.3l-1.7.5V281" transform="scale(.03125 .02917)" fill="none" stroke-width=".3" stroke="#c8b100"/><path d="M7.1 8.6h.1" fill="#058e6e"/><path d="M7.2 6.7a.3.3 0 01-.1 0v-.1H7l.2.1" fill="#db4446"/><path d="M230.9 229.7v-.5l.1-.5h-2.3a8 8 0 01-2.3-1.2c-.8-.8-1.2-1-1.7-1.2-1.2-.2-2.2.4-2.2.4s1 .4 1.8 1.2c.6 1 1.4 1.4 1.7 1.5.6.2 2.6 0 3.1.2zm0 0" transform="scale(.03125 .02917)" fill="none" stroke-width=".4" stroke="#000"/><path d="M238.1 227.5v1.4c.2.7-.1 1.2 0 1.5 0 .4.2.6.3.9l.2 1-.7-.6-.7-.4v1l.7 1.1 1 1.2c.2.6.1 1.5.1 1.5s-.4-.7-.8-.8l-1.2-.7s.8.8.8 1.5c0 .8-.4 1.6-.4 1.6s-.3-.6-.8-1l-1-1s.4 1.2.4 2v2.3l-.9-1-1-.7c0-.2.5.6.7 1.2a9 9 0 001.7 4.4c1 1.3 2.3 3.6 5.3 3 3-.9 2-4.9 1.3-6.8a15 15 0 01-1-4.7c0-.8.7-2.8.5-3.2-.1-1-.1-2.1.2-3 .4-1.4.7-2 1-2.5 0-.5.3-.8.3-1.2l.2-1.3.6 1.3.1 1.5s.1-1 1-1.6c.8-.5 1.8-1 2-1.3l.3-.6s0 1.8-.6 2.6l-1.7 2s.8-.3 1.3-.3h.8s-.6.4-1.3 1.6c-1 1-.6 1.2-1 2.2-.7.9-1 .9-1.8 1.4-1 .8-.5 4.2-.4 4.7.2.6 2 4.4 2 5.5 0 1 .2 3.2-1.5 4.6-1.1 1-3 1-3.3 1.2-.6.2-1.3 1-1.3 2.8 0 1.7.6 2 1 2.4.6.5 1.3.3 1.3.7l.4.6c.3.2.4.4.3.8 0 .3-.8 1.1-1.1 1.6l-.8 2.5c0 .2-.1 1 .2 1.3 0 0 .8 1 .2 1.2-.4.1-.8-.3-1-.3l-.9.6c-.3-.2-.3-.3-.3-.8l-.2-.7c-.2 0-.3.3-.3.5s0 .8-.4.8c-.2 0-.5-.4-.8-.5-.2 0-.8-.1-.8-.4s.4-1 .7-1c.4 0 .8-.3.5-.5-.3-.2-.5-.2-.8 0 0 .2-.7 0-.6-.2v-.8c0-.2-.3-.4.2-.8.4-.3.7.2 1.3 0 .7 0 .8-.2 1-.5.2-.4.2-1-.2-1.4-.4-.6-.7-.6-.9-.8l-.3-1v2.3l-.7-.8c-.3-.3-.6-1.3-.6-1.3v1.3c0 .4.3.7.2.8s-.8-.7-1-.8a4 4 0 01-1-1l-.3-1.4a3 3 0 010-1.5l.3-1h-1.3c-.8 0-1.3-.3-1.6.2-.3.6-.2 1.5.2 2.8.3 1.2.5 2 .3 2 0 .4-.3.7-.6.8h-.8l-1.3-.2h-1.3l-1-.3c-.4.1-1 .3-.7.7.3.6-.3.6-.5.6h-.9c-.3-.2-.8 0-.8-.5 0-.4.2-.4.4-.7.2-.4.2-.5 0-.5h-.6c-.2.1-.5.5-.8.4-.2-.1-.4-.4-.4-1s-.7-1.1 0-1.1c.5 0 1.3.4 1.3 0 .3-.3 0-.4 0-.7-.3-.3-1-.4-.4-.7l.7-.5c.1-.1.4-.8.8-.5.4 0 0 .6.4 1.2.7.8 1 1 2 .8 1 0 1.4-.2 1.4-.4l-.1-1.1v-1l-.5.6-.4.8v-2l-.2-.8-.3 1-.1.9s-.8-.4-.5-1.5c.1-.7-.1-1.6.1-2 .2-.3.7-1.5 2-1.6h2.7l2-.3s-3-1.3-3.6-1.9a6 6 0 01-2-2l-.6-1.6s-.5 0-1 .3l-1.2 1-.7 1v-2s-.3 1.2-1 1.7l-1.3 1v-.8l.2-1s-.3.8-1.1 1c-.8 0-1.8 0-1.9.4 0 .5.2 1 0 1.4 0 .3-.3.6-.3.6l-1-.4h-.6s-.3-.3-.2-.6.8-.6.5-.8l-.8.2c-.3 0-.8.4-.8-.2 0-.4.2-.6 0-1 0-.3 0-.5.2-.6l1.2-.1c0-.2-.2-.6-.8-.6-.6 0-.8-.5-.5-.8l.5-.6c.1-.2.3-.7.8-.6.4.4.3.8 1 1.1.6.1 1.2 0 2-.3l3-1.8-1-.8-1-1.1c-.7-.3-1.3-.4-2-.5l-1.6-.6.8-.3c.3-.2.6-.6.8-.6h.3-1.3c-.4-.2-1-.6-1.4-.6h-.8s.8-.4 1.4-.4h1s-.9-.4-1.1-.8l-.7-.9c0-.1-.2-.5-.4-.5l-1 .4c-.6 0-.7-.3-.7-.7l-.1-.5c-.3-.3-.6-.8-.3-1h1.6c0-.2-.6-.6-1-.8-.3-.2-1-.5-.6-.8l.8-.5c.3-.3.3-1 .8-.7.3.1.7 1.2 1 1 .3 0 .3-.7.3-.9 0-.4 0-1 .2-.9.3 0 .4.4 1 .5.4 0 1 0 1 .2l-.6 1c-.3.3-.4 1-.3 1.4.2.5.7 1.2 1.2 1.5.4.2 1.2.4 1.7.8l2 1.3 1 .4s.4-.3 1-.3l2.6-.1c.6-.3 1.3-.7 1-1-.2-.6-1.3-1-1.2-1.4 0-.4.6-.4 1.2-.4.8 0 1.8.1 2-1 .2-1 .2-1.6-.8-1.8-1-.2-1.8-.2-2-1-.2-.8-.3-.9-.2-1.2l1.3-.4 2-.1c.2-.1.3-.7.6-1l1.4-.3 2.7 1.7a12 12 0 012.2 2.1" transform="scale(.03125 .02917)" fill="#ed72aa" stroke-width=".4" stroke="#000"/><path d="M7.1 6.6"/><path d="M228.1 226.7l-.2-.5v-.3s.8 0 .7.3l-.3.3zm0 0" transform="scale(.03125 .02917)" fill="none" stroke-width=".3" stroke="#000"/><path d="M7.3 6.6"/><path d="M232 225.4v-.4s.8 0 1 .3c.5.4.9 1 .9 1l-.8-.4h-.5l-.3-.1v-.3h-.3zm0 0" transform="scale(.03125 .02917)" fill="none" stroke-width=".1" stroke="#000"/><path d="M237.3 231.3l-.4-.7c-.2-.1-.2-.2-.3-.4" transform="scale(.03125 .02917)" fill="none" stroke-width=".3" stroke="#000"/><path d="M6.8 6.6" fill="#db4446"/><path d="M217.4 226.6s.5.4.8.4h.8s.3-.5.1-.8c-.2-1.2-1.2-1.3-1.2-1.3s.3.6.1.9l-.6.8zm0 0" transform="scale(.03125 .02917)" fill="none" stroke-width=".4" stroke="#000"/><path d="M6.7 6.6" fill="#db4446"/><path d="M215.3 227.5s-.6-.6-1.4-.5c-.8 0-1.4.8-1.4.8h1.3c.2.3.3 1 .3 1l.7-.6.4-.7zm0 0" transform="scale(.03125 .02917)" fill="none" stroke-width=".4" stroke="#000"/><path d="M6.7 6.7" fill="#db4446"/><path d="M214.3 230.6s-1 .2-1.3.6c-.4.5-.3 1.3-.3 1.3s.4-.5 1-.5l1 .2-.2-.8zm0 0" transform="scale(.03125 .02917)" fill="none" stroke-width=".4" stroke="#000"/><path d="M228.3 230.5l.2-.5.3.5h-.7m.9 0l.3-.5.4.5h-.8m-.3-3.2l.8.2-.7.4v-.5m.8.1l.8.3-.6.4-.2-.7" transform="scale(.03125 .02917)" stroke-width=".3" stroke="#000"/><path d="M224.3 233.7s-.8.1-1 .5c-.6.6-.4 1.1-.4 1.1s.6-.5 1.5-.3l1.2.3 1.3-.3s-.7.8-.7 1.3l.2 1.2c0 .6-.7 1.6-.7 1.6l1-.4c.7-.2 1.3-.4 1.8-.8l.9-1s-.2 1 0 1.4l.2 1.6.8-.6.8-.6.4-1.1s0 .8.4 1.3l.6 1.6s.3-.8.7-1c.2-.4.6-.8.6-1.1l-.2-1 .6.9m-11 .6s.4-.8 1-1l1-.8 1-.4m1 5l1.2-.8a4 4 0 001-1" transform="scale(.03125 .02917)" fill="none" stroke-width=".4" stroke="#000"/><path d="M6.8 7h-.1" fill="#db4446"/><path d="M216.6 240.4s-.3-.5-1.1-.3c-.8 0-1.3.8-1.3.8s.7-.1 1 0c.6 0 .7.4.7.4l.3-.4.4-.6zm0 0" transform="scale(.03125 .02917)" fill="none" stroke-width=".4" stroke="#000"/><path d="M6.7 7v.1" fill="#db4446"/><path d="M215.8 243.2s-.6 0-1 .3c-.6.4-.6 1.2-.6 1.2s.4-.4.8-.3l.9.2v-.6c.2-.4-.2-.8-.2-.8zm0 0" transform="scale(.03125 .02917)" fill="none" stroke-width=".4" stroke="#000"/><path d="M6.8 7.2" fill="#db4446"/><path d="M217.3 245.8s0 .8.2 1.3c.4.5 1.1.5 1.1.5l-.3-.6c0-.4.3-.8.3-.8s-.3-.4-.7-.4zm16 1.3s2 1.2 1.8 2.1c0 1.1-1 2.5-1 2.5" transform="scale(.03125 .02917)" fill="none" stroke-width=".4" stroke="#000"/><path d="M7 7.4" fill="#db4446"/><path d="M224.3 252.6s-.6-.5-1.2-.5c-.7 0-1.3.6-1.3.6s.7-.1 1 .2l.4.6.6-.2zm0 0" transform="scale(.03125 .02917)" fill="none" stroke-width=".4" stroke="#000"/><path d="M7 7.4h-.1" fill="#db4446"/><path d="M222.3 255.3s-1-.2-1.6.2c-.3.6-.3 1.4-.3 1.4s.6-.6 1-.6c.5 0 1 .4 1 .4v-.8l-.3-.6zm0 0" transform="scale(.03125 .02917)" fill="none" stroke-width=".4" stroke="#000"/><path d="M7 7.5" fill="#db4446"/><path d="M224 258s-.3.7 0 1.2 1 .8 1 .8-.3-.4-.3-.8l.8-.9h-1.4zm0 0" transform="scale(.03125 .02917)" fill="none" stroke-width=".4" stroke="#000"/><path d="M7.4 7.6" fill="#db4446"/><path d="M236 259.3s-.8-.1-1.3 0c-.4.3-.7 1.5-.7 1.5s.8-.7 1.3-.6c.4 0 1 .3 1 .3v-.8zm0 0" transform="scale(.03125 .02917)" fill="none" stroke-width=".4" stroke="#000"/><path d="M7.4 7.6v.1" fill="#db4446"/><path d="M236.4 262.2s-.7.6-.4 1.1l.6 1 .2-1 1-.3-.7-.5c-.2-.1-.5-.1-.7-.3zm0 0" transform="scale(.03125 .02917)" fill="none" stroke-width=".4" stroke="#000"/><path d="M7.5 7.7" fill="#db4446"/><path d="M239.4 263s-.3.8.2 1.2c.7.6 1 .6 1 .6s-.3-.7-.2-1.1c.1-.5.5-.7.5-.7l-.8-.2zm0 0" transform="scale(.03125 .02917)" fill="none" stroke-width=".4" stroke="#000"/><path d="M208.8 316.3c2 .7 3 2 3 4 0 2.2-2.2 4-5 4-3 0-5.3-1.8-5.3-4 0-1.8 1-3.7 3-4l-.3-.4-.6-.6h1.2l.8.5.5-.7c.3-.4.7-.5.7-.5l.4.5.4.6.7-.4.8-.3s0 .4-.2.7l-.2.6" transform="scale(.03125 .02917)" fill="#ffd691" stroke-width=".5" stroke="#000"/><path d="M206.3 326.7s-3.8-2.6-5.6-3c-2-.4-4.4 0-5.4 0l1.8 1.3c.5.6 2.3 1.7 3.3 2 3 .7 6-.3 6-.3m1 .2s2.3-2.5 5-3c3-.3 5 .3 6.2.7l-1.5.8c-.5.3-2 1.5-4 1.7-2 0-4.3-.4-4.8-.3l-1 .1" transform="scale(.03125 .02917)" fill="#058e6e" stroke-width=".5" stroke="#000"/><path d="M206.8 323.8a5 5 0 01-1.7-3.6c0-1.3.7-2.7 1.7-3.5a5 5 0 011.4 3.5c0 1.4-.6 2.7-1.4 3.6" transform="scale(.03125 .02917)" fill="#ad1519" stroke-width=".5" stroke="#000"/><path d="M205.8 329s.4-1.5.4-2.8v-2h.8s.3 1.1.3 2v2.5h-.8l-.8.4" transform="scale(.03125 .02917)" fill="#058e6e" stroke-width=".5" stroke="#000"/><path d="M8 5.6" fill="#fff"/><path d="M254 190.7c0-.5.5-1 1-1 .6 0 1.1.5 1.1 1 0 .6-.5 1-1 1-.6 0-1-.5-1-1zm0 0" transform="scale(.03125 .02917)" fill="none" stroke-width=".4" stroke="#000"/><path d="M8 5.5" fill="#fff"/><path d="M255.4 188.2c0-.6.5-1 1.1-1s1 .4 1 1-.4 1-1 1c-.5 0-1-.5-1-1zm0 0" transform="scale(.03125 .02917)" fill="none" stroke-width=".4" stroke="#000"/><path d="M8 5.4" fill="#fff"/><path d="M256.4 185.2c0-.5.5-1 1-1 .6 0 1.1.5 1.1 1 0 .6-.5 1-1 1-.3.1-.6 0-.8-.3a.7.7 0 01-.3-.7zm0 0" transform="scale(.03125 .02917)" fill="none" stroke-width=".4" stroke="#000"/><path d="M8 5.3" fill="#fff"/><path d="M256.5 182c0-.5.5-1 1-1 .6 0 1.1.5 1.1 1s-.5 1-1 1c-.6 0-1-.5-1-1zm0 0" transform="scale(.03125 .02917)" fill="none" stroke-width=".4" stroke="#000"/><path d="M8 5.2" fill="#fff"/><path d="M255.8 179c0-.6.4-1 1-1s1 .4 1 1-.4 1-1 1-1-.4-1-1zm0 0" transform="scale(.03125 .02917)" fill="none" stroke-width=".4" stroke="#000"/><path d="M8 5.1" fill="#fff"/><path d="M254.1 176.1c0-.5.5-1 1-1 .7 0 1.2.5 1.2 1 0 .6-.6 1-1 1-.7 0-1-.4-1-1zm0 0" transform="scale(.03125 .02917)" fill="none" stroke-width=".4" stroke="#000"/><path d="M7.9 5v.1" fill="#fff"/><path d="M252 173.8c0-.6.4-1 1-1s1 .4 1 1-.4 1-1 1c-.5 0-1-.4-1-1zm0 0" transform="scale(.03125 .02917)" fill="none" stroke-width=".4" stroke="#000"/><path d="M7.8 5" fill="#fff"/><path d="M249.4 171.8c0-.5.5-1 1.1-1 .5 0 1 .5 1 1 0 .6-.5 1-1 1-.6 0-1-.4-1-1zm0 0" transform="scale(.03125 .02917)" fill="none" stroke-width=".4" stroke="#000"/><path d="M7.7 5" fill="#fff"/><path d="M246.5 170.4c0-.7.4-1.1 1-1.1s1 .4 1 1-.4 1-1 1c-.5 0-1-.4-1-1zm0 0" transform="scale(.03125 .02917)" fill="none" stroke-width=".4" stroke="#000"/><path d="M7.6 5v-.1" fill="#fff"/><path d="M243.3 169.2c0-.6.4-1.1 1-1.1s1 .4 1 1-.3 1-1 1c-.4 0-1-.4-1-1zm0 0" transform="scale(.03125 .02917)" fill="none" stroke-width=".4" stroke="#000"/><path d="M7.5 5v-.1" fill="#fff"/><path d="M239.9 168.5c0-.6.3-1 1-1s1 .4 1 1-.4 1-1 1c-.5 0-1-.5-1-1zm0 0" transform="scale(.03125 .02917)" fill="none" stroke-width=".4" stroke="#000"/><path d="M7.4 5v-.1" fill="#fff"/><path d="M236.6 168.3c0-.5.4-1 1-1s1 .5 1 1-.3 1-1 1-1-.4-1-1zm0 0" transform="scale(.03125 .02917)" fill="none" stroke-width=".4" stroke="#000"/><path d="M7.3 5v-.1" fill="#fff"/><path d="M233.3 168.5c0-.6.4-1 1-1 .7 0 1 .4 1 1 0 .7-.3 1-1 1-.4 0-1-.5-1-1zm0 0" transform="scale(.03125 .02917)" fill="none" stroke-width=".4" stroke="#000"/><path d="M7.2 5v-.1" fill="#fff"/><path d="M230.1 168.5c0-.6.5-1 1-1 .7 0 1.2.4 1.2 1 0 .7-.6 1-1 1s-.7 0-1-.2l-.2-.8zm0 0" transform="scale(.03125 .02917)" fill="none" stroke-width=".4" stroke="#000"/><path d="M231.8 171.2c0-.4.4-1 1-1s1 .6 1 1c0 .5-.4 1-1 1s-1-.5-1-1m.6 3c0-.5.3-.9 1-.9s1 .4 1 1-.4 1-1 1c-.5 0-1-.4-1-1m0 3c0-.5.6-1 1.1-1s1 .5 1 1c0 .6-.5 1-1 1s-1-.4-1-1m-1 2.8c0-.5.5-1 1-1 .8 0 1.1.5 1.1 1 0 .6-.3 1-1 1s-1-.4-1-1m-1.8 2.6c0-.6.4-1 1-1s1 .4 1 1c0 .5-.4 1-1 1s-1-.4-1-1" transform="scale(.03125 .02917)" fill="#fff" stroke-width=".4" stroke="#000"/><path d="M7.1 4.9" fill="#fff"/><path d="M227.6 166.5c0-.6.5-1 1.2-1 .4 0 1 .4 1 1s-.6 1-1 1c-.7 0-1-.5-1-1zm0 0" transform="scale(.03125 .02917)" fill="none" stroke-width=".4" stroke="#000"/><path d="M7 4.8" fill="#fff"/><path d="M224.8 165c0-.5.4-1 1-1s1 .5 1 1-.4 1-1 1-1-.5-1-1zm0 0" transform="scale(.03125 .02917)" fill="none" stroke-width=".4" stroke="#000"/><path d="M7 4.8" fill="#fff"/><path d="M221.6 164c0-.6.5-1 1-1 .7 0 1.2.4 1.2 1 0 .5-.6 1-1 1-.7 0-1.2-.5-1.2-1zm0 0" transform="scale(.03125 .02917)" fill="none" stroke-width=".4" stroke="#000"/><path d="M6.8 4.8" fill="#fff"/><path d="M218.3 163.4c0-.5.4-1 1-1s1 .5 1 1-.4 1-1 1c-.2 0-.4 0-.7-.2-.2-.3-.3-.5-.3-.8zm0 0" transform="scale(.03125 .02917)" fill="none" stroke-width=".4" stroke="#000"/><path d="M6.7 4.8" fill="#fff"/><path d="M215 163.5c0-.6.5-1 1.1-1s1 .4 1 1-.3 1-1 1-1-.4-1-1zm0 0" transform="scale(.03125 .02917)" fill="none" stroke-width=".4" stroke="#000"/><path d="M6.6 4.8" fill="#fff"/><path d="M211.8 164c0-.5.4-1 1-1s1 .5 1 1-.4 1-1 1-1-.4-1-1zm0 0" transform="scale(.03125 .02917)" fill="none" stroke-width=".4" stroke="#000"/><path d="M6.5 4.8" fill="#fff"/><path d="M208.6 165.1c0-.5.5-1 1-1 .7 0 1.2.5 1.2 1 0 .4-.6 1-1 1s-.7 0-1-.3a1 1 0 01-.2-.7zm0 0" transform="scale(.03125 .02917)" fill="none" stroke-width=".4" stroke="#000"/><path d="M4.9 5.6" fill="#fff"/><path d="M156 190.7c0-.5.4-1 1-1s1 .5 1 1c0 .6-.4 1-1 1-.5 0-1-.5-1-1zm0 0" transform="scale(.03125 .02917)" fill="none" stroke-width=".4" stroke="#000"/><path d="M4.8 5.5" fill="#fff"/><path d="M154.5 188.2c0-.6.5-1 1-1 .6 0 1 .4 1 1s-.4 1-1 1c-.5 0-1-.5-1-1zm0 0" transform="scale(.03125 .02917)" fill="none" stroke-width=".4" stroke="#000"/><path d="M4.8 5.4" fill="#fff"/><path d="M153.5 185.2c0-.5.5-1 1-1 .8 0 1.1.5 1.1 1 0 .6-.3 1-1 1s-1-.4-1-1zm0 0" transform="scale(.03125 .02917)" fill="none" stroke-width=".4" stroke="#000"/><path d="M4.8 5.3" fill="#fff"/><path d="M153.4 182c0-.5.5-1 1-1 .6 0 1.1.5 1.1 1s-.5 1-1 1-1-.5-1-1zm0 0" transform="scale(.03125 .02917)" fill="none" stroke-width=".4" stroke="#000"/><path d="M4.8 5.2" fill="#fff"/><path d="M154.3 179c0-.6.4-1 1-1s1 .4 1 1-.6 1-1 1c-.7 0-1-.4-1-1zm0 0" transform="scale(.03125 .02917)" fill="none" stroke-width=".4" stroke="#000"/><path d="M4.9 5.1" fill="#fff"/><path d="M155.8 176.1c0-.5.4-1 1-1s1 .5 1 1c0 .6-.4 1-1 1s-1-.4-1-1zm0 0" transform="scale(.03125 .02917)" fill="none" stroke-width=".4" stroke="#000"/><path d="M5 5v.1" fill="#fff"/><path d="M158 173.8c0-.6.4-1 1-1s1 .4 1 1-.4 1-1 1c-.5 0-1-.4-1-1zm0 0" transform="scale(.03125 .02917)" fill="none" stroke-width=".4" stroke="#000"/><path d="M5 5" fill="#fff"/><path d="M160.5 171.8c0-.5.4-1 1-1s1 .5 1 1c0 .6-.4 1-1 1-.5 0-1-.4-1-1zm0 0" transform="scale(.03125 .02917)" fill="none" stroke-width=".4" stroke="#000"/><path d="M5.1 5" fill="#fff"/><path d="M163.5 170.4c0-.7.4-1.1 1-1.1s1 .4 1 1-.4 1-1 1c-.5 0-1-.4-1-1zm0 0" transform="scale(.03125 .02917)" fill="none" stroke-width=".4" stroke="#000"/><path d="M5.2 5v-.1" fill="#fff"/><path d="M166.6 169.2c0-.6.5-1.1 1-1.1s1 .4 1 1-.5 1-1 1c-.6 0-1-.4-1-1zm0 0" transform="scale(.03125 .02917)" fill="none" stroke-width=".4" stroke="#000"/><path d="M5.3 5v-.1" fill="#fff"/><path d="M170 168.5c0-.6.5-1 1.1-1 .5 0 1 .4 1 1s-.5 1-1 1c-.6 0-1-.3-1-1zm0 0" transform="scale(.03125 .02917)" fill="none" stroke-width=".4" stroke="#000"/><path d="M5.4 5v-.1" fill="#fff"/><path d="M173.4 168.3c0-.5.3-1 1-1s1 .5 1 1-.4 1-1 1c-.5 0-1-.4-1-1zm0 0" transform="scale(.03125 .02917)" fill="none" stroke-width=".4" stroke="#000"/><path d="M5.5 5v-.1" fill="#fff"/><path d="M176.6 168.5c0-.6.5-1 1-1 .7 0 1.2.4 1.2 1 0 .7-.6 1-1 1s-.7 0-1-.2l-.2-.8zm0 0" transform="scale(.03125 .02917)" fill="none" stroke-width=".4" stroke="#000"/><path d="M5.6 5v-.1" fill="#fff"/><path d="M179.8 168.5c0-.6.4-1 1-1 .7 0 1.2.4 1.2 1 0 .7-.5 1-1.1 1-.5 0-1-.5-1-1zm0 0" transform="scale(.03125 .02917)" fill="none" stroke-width=".4" stroke="#000"/><path d="M178.3 171.2c0-.4.4-1 1-1s1 .6 1 1c0 .5-.4 1-1 1s-1-.5-1-1m-.7 3c0-.5.4-.9 1-.9s1 .4 1 1-.3 1-1 1-1-.4-1-1m-.2 3c0-.5.5-1 1-1 .7 0 1.1.5 1.1 1 0 .6-.4 1-1 1-.5 0-1-.4-1-1m.9 2.8c0-.5.5-1 1-1 .6 0 1.1.5 1.1 1 0 .6-.5 1-1 1-.3 0-.6 0-.8-.3a.7.7 0 01-.3-.7m1.8 2.6c0-.6.6-1 1-1s1 .4 1 1c0 .5-.4 1-1 1s-1-.5-1-1" transform="scale(.03125 .02917)" fill="#fff" stroke-width=".4" stroke="#000"/><path d="M5.7 4.9" fill="#fff"/><path d="M182.3 166.5c0-.6.4-1 1-1s1 .4 1 1-.4 1-1 1-1-.5-1-1zm0 0" transform="scale(.03125 .02917)" fill="none" stroke-width=".4" stroke="#000"/><path d="M5.8 4.8" fill="#fff"/><path d="M185.3 165c0-.5.3-1 1-1 .4 0 1 .5 1 1s-.6 1-1 1c-.7 0-1-.5-1-1zm0 0" transform="scale(.03125 .02917)" fill="none" stroke-width=".4" stroke="#000"/><path d="M5.9 4.8" fill="#fff"/><path d="M188.3 164c0-.6.4-1 1-1 .7 0 1 .4 1 1 0 .5-.3 1-1 1s-1-.5-1-1zm0 0" transform="scale(.03125 .02917)" fill="none" stroke-width=".4" stroke="#000"/><path d="M6 4.8" fill="#fff"/><path d="M191.6 163.4c0-.5.5-1 1-1 .7 0 1.2.5 1.2 1s-.6 1-1 1c-.7 0-1-.5-1-1zm0 0" transform="scale(.03125 .02917)" fill="none" stroke-width=".4" stroke="#000"/><path d="M6 4.8h.1" fill="#fff"/><path d="M194.9 163.5c0-.6.3-1 1-1s1 .4 1 1-.4 1-1 1c-.5 0-1-.4-1-1zm0 0" transform="scale(.03125 .02917)" fill="none" stroke-width=".4" stroke="#000"/><path d="M6.2 4.8" fill="#fff"/><path d="M198.3 164c0-.5.4-1 1-1s1 .5 1 1-.4 1-1 1-1-.4-1-1zm0 0" transform="scale(.03125 .02917)" fill="none" stroke-width=".4" stroke="#000"/><path d="M6.3 4.8" fill="#fff"/><path d="M201.3 165.1c0-.5.4-1 1-1 .7 0 1 .5 1 1 0 .4-.3 1-1 1-.4 0-1-.4-1-1zm0 0" transform="scale(.03125 .02917)" fill="none" stroke-width=".4" stroke="#000"/><path d="M174.8 228.9h-1v-1h-1.6v3.7h1.6v2.4h-3.4v7h1.8v14.3h-3.4v7.3h27v-7.3h-3.4v-14.4h1.8v-7h-3.4v-2.3h1.6v-3.7h-1.7v1h-.7v-1h-1.6v1h-1.2v-1h-1.4v3.7h1.4v2.4H184v-7.8h1.8v-3.5H184v1h-1v-1.1h-1.5v1h-.9v-1H179v3.6h1.8v7.8h-3.4v-2.4h1.6v-3.7h-1.6v1h-.9v-1h-1.8zm-6 33.7H196m-27.3-1.8H196m-27.3-1.8H196m-27.3-1.7H196m-27.3-2H196m-23.8-1.6h20.2m-20.2-1.8h20.2m-20.2-2h20.2m-20.2-1.7h20.2m-20.2-1.8h20.2m-20.2-1.8h20.2m-20.2-1.7h20.2m-22-1.8h23.8m-23.8-1.8h23.8m-23.8-1.8h23.8m-23.8-1.8h23.8m-20.4-1.7h17m-10.2-1.8h3.4m-3.4-1.8h3.4m-3.4-1.8h3.4m-3.4-1.7h3.4m-5.1-2.2h6.8m-12 7.5h3.6m-5-2.2h6.6m-6.7 32.6v-1.8m0-1.8v-1.7m-1.8 1.7v1.8m3.3 0V259m1.8 3.6v-1.8m0-1.8v-1.7m0-2v-1.6m0-1.8v-2m-1.8 7.4v-2m-3.3 2v-2m7 0v2m1.5-2v-1.6m-5.2-1.8v1.8m3.6-1.8v1.8m3.3-1.8v1.8M179 252v-2m1.8-1.8v1.7m0-5.3v1.9m-1.8-3.7v1.8m1.8-3.5v1.7m-3.4-1.7v1.7m-3.5-1.7v1.7m-1.7-3.4v1.7m3.4-1.7v1.7m3.4-1.7v1.7m1.8-3.6v1.9m-3.4-2v2m-3.5-2v2m-1.7-3.7v1.8m6.8-1.7v1.7m-3.4-5.2v1.7m15.3-1.7h-3.5m5-2.3h-6.7m6.8 32.5V261m0-1.7v-1.8m1.8 1.8v1.7m-3.4 0V259m-1.7 3.6v-1.8m0-1.8v-1.7m0-2v-1.6m0-1.8v-2m1.7 7.4v-2m3.3 2v-2m-7 0v2m-1.4-2v-1.6m5-1.8v1.8m-3.4-1.8v1.8m-3.3-1.8v1.8m1.7-1.8v-2m-1.7-1.7v1.7m0-5.3v1.8m1.7-3.6v1.8M184 241v1.7m3.3-1.7v1.7m3.5-1.7v1.7m1.6-3.5v1.8m-3.3-1.8v1.8m-3.4-1.8v1.8m-1.7-3.6v1.8m3.3-1.8v1.8m3.5-1.8v1.8m1.6-3.6v1.8m-6.8-1.8v1.8m3.6-5.3v1.8m-7 18v-2m0-5.4v-1.8m0 5.4v-1.8m0-5.3v-1.8m0-1.8v-1.7m0-3.6v-1.8m0-1.6v-2m-8.4 4.8h3.5m3.3-5.4h3.4m3.3 5.4h3.5" transform="scale(.03125 .02917)" fill="#c8b100" stroke-width=".4" stroke="#000"/><path d="M186.8 262.6V258c0-.8-.4-3.4-4.6-3.4-4 0-4.4 2.6-4.4 3.4v4.7zm0 0" transform="scale(.03125 .02917)" fill="#c8b100" stroke-width=".4" stroke="#000"/><path d="M179.3 258.2l-2.2-.3c0-.9.2-2.2.9-2.6l2 1.4c-.3.3-.8 1.1-.8 1.5zm6 0l2.2-.3c0-.9-.3-2.2-.9-2.6l-2 1.4c.3.3.7 1.1.7 1.5zM183 256l1-2a5.3 5.3 0 00-2-.4l-1.7.4 1.1 2zm-4.2-5.5v-5c0-1.2-1-2.3-2.5-2.3s-2.4 1-2.4 2.4v5zm6.8 0v-5c0-1.2 1-2.3 2.6-2.3s2.3 1 2.3 2.4v5zm-1.7-12l.4-4.4h-4.2l.2 4.4zm3.3 0l-.4-4.4h4.3l-.4 4.4zm-10 0l.2-4.4h-4.3l.6 4.4zm0 0" transform="scale(.03125 .02917)" fill="#c8b100" stroke-width=".4" stroke="#000"/><path d="M5.8 7.7v-.2h-.2v.2zm-.2-.4v-.1V7h-.2v.2h.2zm.2 0v-.1V7H6v.2zm0 0" fill="#0039f0"/><path d="M6 7.9c0-.3.2-.5.4-.5.3 0 .5.2.5.5a.5.5 0 01-.5.5.5.5 0 01-.4-.5" fill="#ad1519"/><path d="M190.8 269.9c0-9.8 7-17.7 15.6-17.7S222 260 222 269.9c0 9.6-7 17.4-15.6 17.4s-15.7-7.8-15.7-17.4zm0 0" transform="scale(.03125 .02917)" fill="none" stroke-width=".6" stroke="#000"/><path d="M6.1 7.9c0-.2.2-.4.3-.4.2 0 .4.2.4.4s-.2.3-.4.3c-.1 0-.3-.1-.3-.3" fill="#005bbf"/><path d="M195.4 269.7c0-7 5-12.8 11-12.8s11 5.7 11 12.8c0 7.3-5 13-11 13s-11-5.7-11-13zm0 0" transform="scale(.03125 .02917)" fill="none" stroke-width=".6" stroke="#000"/><path d="M6.3 7.6v.2h-.1V8h.1l.1-.1v-.1h-.1" fill="#c8b100"/><path d="M201.3 260.9s-1.4 1.5-1.4 2.7c0 .8.2 1.7.6 2.4-.3-.6-.8-.8-1.4-.8-.8 0-1.3.6-1.3 1.3v.8l.6 1c.1-.4.5-.6 1-.6s1 .4 1 1v.2h-1.2v1h1l-.8 1.4 1-.4.8 1 .8-1 1 .4-.8-1.4h1v-1h-1v-.2c0-.7.4-1.1 1-1.1.4 0 .7.3 1 .7l.4-1.1.2-.7c0-.8-.7-1.3-1.4-1.3s-1.2.2-1.4 1c0 0 .6-1.3.6-2.6 0-1.2-1.3-2.7-1.3-2.7zm0 0" transform="scale(.03125 .02917)" fill="none" stroke-width=".3" stroke-linejoin="round" stroke="#000"/><path d="M199.3 269.9h4v-1h-4zm0 0" transform="scale(.03125 .02917)" fill="#c8b100" stroke-width=".3" stroke="#000"/><path d="M6.6 7.6v.2h-.1V8h.2v-.1-.1h-.1" fill="#c8b100"/><path d="M211.4 260.9s-1.3 1.5-1.3 2.7c0 1.3.7 2.4.7 2.4-.3-.6-.8-.8-1.6-.8s-1.3.6-1.3 1.3l.2.8.5 1c.2-.4.5-.6 1-.6s1 .4 1 1v.2h-1.2v1h1l-.8 1.4 1-.4.8 1 .8-1 1 .4-.7-1.4h1v-1h-1.1v-.2c0-.7.5-1.1 1-1.1.3 0 .8.3 1 .7l.3-1.1.3-.7c0-.8-.6-1.3-1.4-1.3-.6 0-1.2.2-1.3 1 0 0 .4-1.3.4-2.6 0-1.2-1.3-2.7-1.3-2.7zm0 0" transform="scale(.03125 .02917)" fill="none" stroke-width=".3" stroke-linejoin="round" stroke="#000"/><path d="M209.4 269.9h4.1v-1h-4.1zm0 0" transform="scale(.03125 .02917)" fill="#c8b100" stroke-width=".3" stroke="#000"/><path d="M6.4 7.9v.2h.1V8v-.1" fill="#c8b100"/><path d="M206.3 269.6s-1.3 1.5-1.3 2.8c0 1.4.6 2.4.6 2.4-.2-.5-.7-1-1.3-1-1 0-1.6.8-1.6 1.6l.3.6.5 1c.1-.4.5-.6 1-.6s1 .4 1 1v.2h-1.3v1.1h1l-.7 1.5 1-.4.8 1 .8-1.2 1 .6-.7-1.5h1v-1h-1.2v-.3c0-.6.6-1 1-1s.8.2 1 .6l.6-1v-.6c0-.8-.6-1.5-1.3-1.5s-1.3.4-1.4 1c0 0 .7-1.1.7-2.5 0-1.3-1.6-2.7-1.6-2.7zm0 0" transform="scale(.03125 .02917)" fill="none" stroke-width=".3" stroke-linejoin="round" stroke="#000"/><path d="M204.3 278.6h4v-1h-4zm0 0" transform="scale(.03125 .02917)" fill="#c8b100" stroke-width=".3" stroke="#000"/><path d="M7.4 6.5h-.1a.4.4 0 01.1.1h.1" fill="#c8b100"/><path d="M237.6 223.4h-.3l-.3.4c-.3.3-.6.3-.8 0v-.4a.4.4 0 01-.6 0c-.3-.1-.3-.5-.1-.7v-.5h-.3v.3c-.3.2-.6.2-.8 0v0h-.3c-.5 0-.7-1.1-.7-1.2h-.2s.2.8 0 1.3c0 .7-.2 1.2-.2 1.2a12.3 12.3 0 015.1 3.9l1.2-.6h1.3l.2-.4c-.3 0-1.6.2-1.6-.4v-.1h0c-.3-.3-.3-.4 0-.7v-.4h-.4c-.2.4-.6.4-.8 0l-.1-.2h-.5c-.2-.3-.3-.6 0-.8l.2-.4zm0 0" transform="scale(.03125 .02917)" fill="none" stroke-width=".3" stroke="#000"/><path d="M7.4 6.5"/><path d="M235.4 224h.2v.3h-.1c-.1 0-.1-.2 0-.2zm0 0" transform="scale(.03125 .02917)" fill="none" stroke-width=".1" stroke="#000"/><path d="M236.3 224.9l-.3-.3v-.1h.1l.4.2.3.2v.2h-.2l-.3-.2m-1.7-1.2l-.2-.2s-.2 0 0-.1l.3.1.3.2v0h-.4" transform="scale(.03125 .02917)" stroke-width=".1" stroke="#000"/><path d="M7.3 6.5"/><path d="M233.8 223h0v.3h0s-.2-.2 0-.3zm0 0" transform="scale(.03125 .02917)" fill="none" stroke-width=".1" stroke="#000"/><path d="M7.4 6.6"/><path d="M237.3 225.5v-.2h-.3l.1.2zm0 0" transform="scale(.03125 .02917)" fill="none" stroke-width=".1" stroke="#000"/><path d="M237.9 226.2l.2.1h.2v-.1l-.3-.3-.3-.1v.1l.2.3" transform="scale(.03125 .02917)" stroke-width=".1" stroke="#000"/><path d="M7.5 6.6"/><path d="M238.8 227v-.3h-.3v.2h.3zm0 0" transform="scale(.03125 .02917)" fill="none" stroke-width=".1" stroke="#000"/><path d="M236.3 221.1h-.7l-.1 1h.3l.6-.4-.3-.6" transform="scale(.03125 .02917)" fill="#c8b100" stroke-width=".3" stroke="#000"/><path d="M234.6 221.7v.4h1v0l-.5-.9-.5.5M236.4 222.6l-.4.3-.6-.7v-.1h1.1v.5" transform="scale(.03125 .02917)" fill="#c8b100" stroke-width=".3" stroke="#000"/><path d="M7.4 6.5" fill="#c8b100"/><path d="M235.3 222a.4.4 0 01.4 0v.3h-.3l-.2-.2zm0 0" transform="scale(.03125 .02917)" fill="none" stroke-width=".3" stroke="#000"/><path d="M7.3 6.5" fill="#c8b100"/><path d="M233.3 221.1l-.3-.7-.4-.4s.4-.2.8 0c.3.4 0 1 0 1zm0 0" transform="scale(.03125 .02917)" fill="none" stroke-width=".3" stroke="#000"/><path d="M234.3 221.4l-.6.4-.4-.6v-.2h1v.4" transform="scale(.03125 .02917)" fill="#c8b100" stroke-width=".3" stroke="#000"/><path d="M7.3 6.4" fill="#c8b100"/><path d="M233.1 221l.3-.2v.5h-.2v-.2zm0 0" transform="scale(.03125 .02917)" fill="none" stroke-width=".3" stroke="#000"/><path d="M238.3 222.5h-.6l-.2.8v0h.3l.7-.3-.3-.5" transform="scale(.03125 .02917)" fill="#c8b100" stroke-width=".3" stroke="#000"/><path d="M236.8 222.9v.4l.7.2h.1v-.2l-.3-.7-.6.3" transform="scale(.03125 .02917)" fill="#c8b100" stroke-width=".3" stroke="#000"/><path d="M238.4 224l-.5.2-.4-.7v-.2h.1l.9.2-.1.6" transform="scale(.03125 .02917)" fill="#c8b100" stroke-width=".3" stroke="#000"/><path d="M7.4 6.5" fill="#c8b100"/><path d="M237.3 223.3h.4v.4h-.3c-.2-.2-.2-.4 0-.4zm0 0" transform="scale(.03125 .02917)" fill="none" stroke-width=".3" stroke="#000"/><path d="M240.3 224.3v.6l-.8.2h-.3v-.2l.6-.8.4.2" transform="scale(.03125 .02917)" fill="#c8b100" stroke-width=".3" stroke="#000"/><path d="M240 225.8l-.5.1-.3-.8v-.1h.2l.8.3v.5" transform="scale(.03125 .02917)" fill="#c8b100" stroke-width=".3" stroke="#000"/><path d="M238.6 224.3l-.2.6.8.2h.2v-.1l-.3-.8-.5.1" transform="scale(.03125 .02917)" fill="#c8b100" stroke-width=".3" stroke="#000"/><path d="M7.5 6.6" fill="#c8b100"/><path d="M239.5 225.1v-.2c-.1-.2-.3-.2-.4 0s-.1.2 0 .2c.2.2.3.2.4 0zm0 0" transform="scale(.03125 .02917)" fill="none" stroke-width=".3" stroke="#000"/><path d="M7.5 6.6" fill="#c8b100"/><path d="M240.8 227h.8l.5.3s.2-.4-.3-.7c-.3-.3-.8.1-.8.1zm0 0" transform="scale(.03125 .02917)" fill="none" stroke-width=".3" stroke="#000"/><path d="M240.3 226l-.3.6.8.5v0h.2l-.1-1.2-.7.2" transform="scale(.03125 .02917)" fill="#c8b100" stroke-width=".3" stroke="#000"/><path d="M7.5 6.6" fill="#c8b100"/><path d="M241 227s.1-.1 0-.3h-.3c-.2 0-.2.2 0 .3zm38-22v.7h-2.4v-.7h1v-1.2h-.7v-.5h.6v-.7h.6v.7h.6v.5h-.6v1.2h1" transform="scale(.03125 .02917)" fill="none" stroke-width=".3" stroke="#000"/><path d="M133.3 217.1v-1.2m-.6 1v-.9m.2 1v-1m-.7 1v-1m.2 1v-1m-.9 1v-1m.3 1v-1m.2 1v-1m-.8 1v-1m-.2 1v-.8m-.1.8v-.8m-.5.6v-.6m.2.6v-.6m-.3.5v-.5m-.3.5v-.4m-.3.3v-.3m-.3.3v-.2" transform="scale(.03125 .02917)" fill="none" stroke-width=".1" stroke="#000"/><path d="M129.3 216.6v-.2" transform="scale(.03125 .02917)" fill="none" stroke-width=".2" stroke="#000"/><path d="M276.6 217.1v-1m-.6.9v-1m.3 1v-1m-.8 1v-1m.3 1v-1m-1 1v-1m.3 1v-1m.1 1v-1m-.4 1v-1m-.4 1v-.8m-.1.8v-.8m-.6.6v-.6m.3.6v-.6m-.5.6v-.6m-.3.5v-.4m-.2.4v-.4m-.3.3v-.2" transform="scale(.03125 .02917)" fill="none" stroke-width=".1" stroke="#000"/><path d="M272.6 216.6v-.2" transform="scale(.03125 .02917)" fill="none" stroke-width=".2" stroke="#000"/></svg>