<svg xmlns="http://www.w3.org/2000/svg" width="20" height="14"><path fill="#68bfe5" d="M0 0h20v14H0z"/><path d="M13.2 5.6v4c0 1.3 2.5 2 2.5 2s2.5-.7 2.5-2v-4zm0 0" fill="#fff"/><path d="M15.3 7v1.8h-2.1v.7h2.1v2l.4.2.3-.1V9.5h2.2v-.7H16V7zm0 0" fill="#d21034"/><path d="M13.2 5.6h5v1.6h-5zm0 0" fill="#d21034"/><path d="M811.9 192.2c0 6-6.2 11-13.8 11s-13.5-5-13.5-11 6-10.9 13.5-10.9c7.6 0 13.8 4.8 13.8 10.9zm0 0" transform="matrix(.02078 0 0 .0194 -3 2.8)" fill="#fff" stroke-width=".8" stroke="#000" stroke-miterlimit="3"/><path d="M810.4 186.5c0 3.5-5.5 6-12.3 6-6.5 0-12-2.5-12-6 0-3.4 5.5-6 12-6 6.8 0 12.3 2.6 12.3 6zm0 12.3c0 3.4-5.5 6-12.3 6-6.5 0-12-2.6-12-6s5.5-6 12-6c6.8 0 12.3 2.6 12.3 6zm0 0" transform="matrix(.02078 0 0 .0194 -3 2.8)" fill="#fff" stroke-width=".8" stroke="#000" stroke-miterlimit="3"/><path d="M810.4 192.2c0 3.4-5.5 6-12.3 6-6.5 0-12-2.6-12-6 0-3.5 5.5-6 12-6 6.8 0 12.3 2.5 12.3 6zm0 0" transform="matrix(.02078 0 0 .0194 -3 2.8)" fill="#fff" stroke-width=".8" stroke="#000" stroke-miterlimit="3"/><path d="M578 235.4l-1.3-3.6s-3.6-1.4-4-3.5c-.5-5-2.3-7-5-7.7a5.9 5.9 0 00-4.6.5c-.9 1.2-5 1.2-7.2 1.4-2.3 0-2.4-1.1-2.4-1.1-1.8 0-2.5-1.4-2.5-1.4-1.1-2.2-2-3-2.6-3.4 3 0 5.2-1.2 8.6-4.9 3.6-3.7 6.3-2.2 6.3-2.2-2 3.4.5 3.2.5 3.2 4.8-2.6.6-8.7-.8-8.5-1.5.4-1.9-.6-1.9-.6 0 1-1.6 1.6-1.6 1.6 1.3-7.1-3-9-3-9-.6.5-1 1.9-1 1.9-1.3 4.3-5.1 3.6-9.5 1.5-4.4-2-16 2.2-19.8 3.7-3.6 1.5-10.3 3.8-16.3.4-6-3.3-7.5-2.8-9.9-2.1-2.3.6-6.5 1.6-8 .8-1-.6-2.3-.8-3.4-.8.4-.3-.2-1.2-.2-1.2-1.9-2.6.2-4 .2-4s-3.4.9-2 6.6l.6.8s.4 2 1.4 2.5v.4s.9-.4 1.1.8c.3 1.2 1.6 0 2-1 0 0-.8 5.4 5.8 6.7 0 0-.8-1-.5-1.5s-.8-.9-.8-1.7c.2-1-1.4-1.2-.2-1.9 1.4-.6 2-1.9 5-.1 2.9 1.7 5.3 1.3 5.3 1.3s-2-3.6-1-3.6 5.4 5.4 7.6 5.2c2.2-.4 6.4-2.8 8.5-1.8 0 0 .2-1.1 8.2-2.4 8-1.5 18-5.5 21.6-2 0 0 .5 2.8 2 3.6 0 0-.2 5.7-10 2.5l-3.7-1s-.6-1.7-19.5 3.1c0 0-1.1.4-1.9 1-.7.5-1.7-.3-5.5 1a62 62 0 01-26.4 4.3c-1.8-.5-3.4-.2-3.6-.5 0-.3 1 .1 1 .1-.6-.8-.9-.8-.9-.8-7.2-.8-6-4-6-4l.4 1c1.1-1.7-.4-5.1-.4-5.1h0v-.4l.4-.4c3.5-3 7.5-3.5 7.5-3.5-2.4-3-7.4-1.4-7.4-1.4 0-3.4-1.4-7.7-1.4-7.7-3 .5-5.8 2.2-7.7 4.7-.2-3.7-4.9-5.8-4.9-5.8 1.8 2.1.7 7.2.7 7.2h.2-.5l-.1 1.1h-.3s-1.6.5-3.6 5.2c0 0-.2 1-1 2v-.4s-2.4 3-7.4 0c0 0-7-4.1-9.6-4-2.4.2-4 1.4-3.9 2 0 0-5.7-.4-7.6 2.8 0 0-4.4 1.6-.6 5 0 0 .5 1.6 1.5 2.4 0 0-.1-3.2.8-2.3l.4.6c0 .4.6 1.6 1.2 2.2h.6c0-.9.3-1.8.4-2.2h.2l1 1.4 1-.5c.6 0 1.3.5 1.3.5l1.4-1c1.2.1 1.6-2.4 1.6-2.4 1.1.2 2.2 0 3.1-.6.6 2 5.3 4.3 5.3 4.3h0l-.6.4c2.2 1.5 6 1 6 1-1.4.7-1.3 3.8-1.3 3.8-1 .4-1 1.2-1 1.2 3.2 1.4 5.4.3 5.4.3v1.2c-1.4 2.7-2 5.4-2 5.4h0v.2s-5.6 2-8 4.7c0 0-.3-.8-1-.8s-2.8-1.9-3.8-2.1c-1-.3-2.5.2-3-.2-.3-.4-.1-3.6-.8-4l-.7-2c-.4 1-2.4.8-2.4.8l-.9.6h-.7c-.3 0-.4.4-.5.9l-.3.3v-.6c-.3.3-1-.1-1.4-.1-.2 0-.4.4-.6 1H430c-.3.2 0 2.6 0 2.6-2.3 1.2-1.1 3-1.1 3 1 6.1 11.4 3.4 12.2 4.2.8.8 2.6 1 3.5 1 1 0 2.1 2.2 3.4 2.4 1.4.3 0-1.8 6.1-3.2 6.1-1.5 8.3-4 8.3-4 1.8-.5 2.3-2.7 2.4-3.7l.2 1.5c.4 2.2-1.1 3-1.1 3l5.2-1.7c2.1-.5 1.8-2.4 1.8-2.4 2 5.8 5.7 6.2 5.7 6.2.8-2.1.6-3 .6-3h1.6c0-1.2-1-2-1.6-2.5l2.6 1.5 1-.2c0 1 1.3 1.8 1.3 1.8l.3-1.2c1 1.6 3.3 1 3.3 1l-.2-.8c4.7 2.9 12.2-.8 12.2-.8 2 .4 2.3-.8 2.3-.8 2.2.3 2.9-1.3 2.9-1.3 5.2-.4 9-4.1 9-4.1 2.7-.3 2.8-2.2 2.8-2.2s2.6.5 5.1-2.7c6-8.5 15-4 15-4l-5.2.3c-13.5-.2-7.9 9-7.9 9h.8c1.4.2 5.7 3.7 4 6.2v.2c-2.8 3.7-7.8.2-9.3-3-1.4-3.2-4.4-2.5-4.4-2.5s-7.5 1.3-4.5 7.4c.2 1.4 1 3 4 4.6 1.4 2.3 6.4 2.5 10 1.7C524 244 533 240 533 240c.8-2 3-1.5 5-4.4 2-2.8-2.9-3.8-4-5.4-1-1.4.3-1.2.3-1.2 4.5 2.3 4.8-5.2 4.8-5.2a6.4 6.4 0 004.3 5.5c2.4-2.3.6-7.2.6-7.2 5.8 10.3 9.1 8.5 9.1 8.5-3-1.8-1.5-4.4-1.5-4.4 2.6 10.9 14 1.3 14 1.3-.6 1.7 0 2.6 1 3.7 1 .9 2.1 1.3 1.6 3.2s-5.8 1.4-5.8 1.4-5-.2-4.6 4c.3 1 3.6 1.4 5 1.1 0 0-.5.2 1.3.4h2.1c2.2 0 4.5-.4 4.5-.4 3-.6 2.5-1.6 2.5-1.6 4.5-.8 5-3.9 5-3.9zm0 0" transform="scale(.03125 .02917)" fill="#ffd100" stroke-width=".8" stroke="#000" stroke-miterlimit="3"/><path d="M13.4 6.3l.1-.1v.1zm4.4.7h-.2.2zM16 7zm0 0M15.9 7h0v-.2.1zm1.6 0zm-3.7-.7h-.1v-.1.1l.3-.1h-.2zm0 0M13.5 6.3h.1v-.1zm-.1.6h0zm.3-.2v0zm0 0M13.6 6.8v0zm0 0"/><path d="M13.5 6.8zM15 6v.2h.2v.1h.1l.3.2h-.3l.1.2h-.2v.1H15h-.1-.4v-.1h-.2a.7.7 0 010-.2h-.2l.1-.2H14a.2.2 0 01.1 0h.1v-.1H14v.1a.2.2 0 000 .1c0 .1.1.1.2 0V6.9h.2V7h.2l.2.1v-.1H15.3a.4.4 0 000-.1h.1a.5.5 0 000-.2h.2a1 1 0 00-.3-.2H15l-.2-.1V6zm0 0"/><path d="M14.4 6.1h-.1c0 .1-.1.1-.2 0v.2h.2v.2h.1v.1l.1-.1h.4v-.1h-.1.1v-.1V6a.6.6 0 010 .2h-.1v.1h-.1v.2l-.1-.1a.3.3 0 01-.2 0v-.1h-.2l.1-.1h-.1a.1.1 0 010-.1h.1a.1.1 0 000-.1l.2-.1-.1.1zm0 0"/><path d="M14.5 6l.4.1c-.1-.2-.4-.2-.4-.2zm0 0l.4.1a.7.7 0 00-.4-.1zm0 0"/><path d="M14.5 6a.2.2 0 000 .1.1.1 0 00-.1.1v.1c0 .1 0 .2.2.1h.1v-.1h.1a.2.2 0 000-.2.2.2 0 010 .1l-.1.1-.1.1h-.2V6l.1-.1zm0 0M14.4 6.3h.1-.1zm0 0M14.5 6.2v.1zm0 .1zm0 0zm0 0v.1zm0 0zm0 0zm0 0zm0 0"/><path d="M14.4 6.3v.1h.1l-.1-.1zm0-.2zm.3.1v.1zm-.2 0zm.1 0zm0 .1zm0 0zm0 0zm-.1-.1zm0 0zm0 0zm0 0zm0-.2v.1zm.3.2c0-.1-.1-.1-.1 0 0-.1 0 0 0 0h.1zm0 0M14.8 6.2h-.2.1zm0 0M14.8 6.2h-.1zm0 0M14.7 6.2zm0 0M14.7 6.2zm-.1-.1zm0 0M14.5 6v.1zm0 0M14.5 6v.1zm0 0M14.5 6.1zm.1 0v.1zm.3.4l.3.1-.3-.2zm.1.1v.2h.1v-.2zm-.2 0v.2h.1v-.1zm-.2 0v.1zm0 0"/><path d="M429.6 216.3s.1 1.7 1.4 2.7c0 0-.1-1.8.3-2.6 0 0-.7-.8-1.7-.1zm2.6 1s.3 1.5 1.2 2.3h.6s.3-2.1.5-2.2c.3-.3-1.3.6-2.3 0zm0 0" transform="scale(.03125 .02917)" fill="#fff" stroke-width=".2" stroke="#000" stroke-miterlimit="3"/><path d="M434.5 217.4l1 1.4 1.3-.6-.3-1.8s-.8-.2-2 1zm4.8.2l-1.4 1.1s-.6-.5-1.1-.5v-1.6s1-.8 2.4 1zm-9.4 16s-.1-2.4 0-2.4c0 0 1 .2 1.4 0 0 0 .4 1.7.4 2.5-.2.8-1 .5-1.8 0zm6-2.4s-.1-2 .2-2.3c0 0 2 .3 2.4-.8l.8 2s-2.2-.3-3.6 1zm0 0" transform="scale(.03125 .02917)" fill="#fff" stroke-width=".2" stroke="#000" stroke-miterlimit="3"/><path d="M433.8 231.6s.3-2 .7-2.2c0 0 1 .3 1.3-.1v2.7s0-1.2-2-.4zm-2.3.4s.5-2 .8-2c.3 0 1 .5 1.4.2v1.4s-1.6-.4-2 1.8zm0 0" transform="scale(.03125 .02917)" fill="#fff" stroke-width=".2" stroke="#000" stroke-miterlimit="3"/><path d="M461.8 270.4s5 5 3.8 9.2c0 0 3.3-7.3-.4-9.5-3.4-2-3.6-.5-3.4.3zm0 0" transform="scale(.03125 .02917)" fill="#00a651" stroke-width=".5" stroke="#000" stroke-miterlimit="4.8"/><path d="M455 275s-1.3 2.1.3 3.4c0 0-1.8 2.4-.6 4.5 0 0-1 2-.7 4.2 0 0-.8 3.7 1 5.3 0 0 2 .9 3 0 0 0 1.8-2.6.6-5.3 0 0 1.1-2.2-.2-5.2 0 0 .4-1.6-.6-3.5 0 0 .6-1.2 0-2.2 0 0-2.6-2.7-2.8-1zm0 0" transform="scale(.03125 .02917)" fill="#964b36" stroke-width=".5" stroke="#000" stroke-miterlimit="4.8"/><path d="M456.5 269s-6.3-12-10.6-12.5c-4.4-.6-4.6-4.8-4.6-4.8s.4 2 4 2 10.2 5 11 8.7c.7 3.7 1.4 3.2 1.4 3.2zm0 0" transform="scale(.03125 .02917)" fill="#00a651" stroke-width=".5" stroke="#000" stroke-miterlimit="4.8"/><path d="M456.5 268.1s2.3-15.1 12.3-15.4c9.8-.2 6.4.8 9-.8 0 0-6.7 3.4-10.8 4-4.3.4-7.6 8.5-7.4 10 0 1.6-2.4 4.4-3.4 3.4-1.2-1 .3-1.2.3-1.2zm0 0" transform="scale(.03125 .02917)" fill="#00a651" stroke-width=".5" stroke="#000" stroke-miterlimit="4.8"/><path d="M458.8 273.8s2.3-6 6-4c0 0-3-5.8-8.3-.7 0 0 2.4 3.2 2.3 4.6zm-7.6-6s3.3 13.5-1.7 17.5c0 0 .3-6.9-2.9-11-3-4.2 3-8.7 4.6-6.4zm0 0" transform="scale(.03125 .02917)" fill="#00a651" stroke-width=".5" stroke="#000" stroke-miterlimit="4.8"/><path d="M451.8 270.1s5.8 5.7 6 7.5c.4 2 2-5.6-1-7.7-2.7-2-5.6-2.4-5.6-2.4zm0 0" transform="scale(.03125 .02917)" fill="#00a651" stroke-width=".5" stroke="#000" stroke-miterlimit="4.8"/><path d="M440.8 285s.4 2.3 2 2.8c0 0 0 1.8 1.4 2.2 0 0-.7 1.6.4 2.4 0 0-.2 3 .8 3.4 0 0 2.7 0 3.6-.8 0 0 .5-2-1-3.8 0 0 .3-1.8-1.3-2.9 0 0 .6-2.4-1.3-3.3 0 0-.3-2-1.4-3 0 0-2.3 3.1-3.3 3zm0 0" transform="scale(.03125 .02917)" fill="#964b36" stroke-width=".5" stroke="#000" stroke-miterlimit="4.8"/><path d="M443.8 282s-7.8-2.8-12 1.3c0 0 6.4.9 7.3 2.2.8 1.2 4.9-2.2 4.6-3.4zm0 0" transform="scale(.03125 .02917)" fill="#00a651" stroke-width=".5" stroke="#000" stroke-miterlimit="4.8"/><path d="M441.3 286.7l-1.4-.9c-.6-.7-7.1-2.3-8.1 4 0 0-2.4-6.3 1-7 3.4-1 6.2 1 8.4 4m-5-12.8s2.4 5.2 3.3 5.4c.9.2 1.5-.6 1.5-.6s-3.1-4.6-4.8-4.8zm-1.7-7.9s-2-6.5-4.4-4.8c-2.4 1.7-1.9 6.6-1.9 6.6s-4.6-5.1-2-8.9c3-3.9 8.3.4 8.3 7.1zm0 0" transform="scale(.03125 .02917)" fill="#00a651" stroke-width=".5" stroke="#000" stroke-miterlimit="4.8"/><path d="M439.9 279.8s0 1.3.9 1.6c.8.4 2.4 1 2.4.3s-1.2-3.7-1.7-3.3c-.5.4-1.4.4-1.6 1.4zm0 0" transform="scale(.03125 .02917)" fill="#964b36" stroke-width=".5" stroke="#000" stroke-miterlimit="4.8"/><path d="M438.4 272s-.3-5.7 3.5-7.9c0 0 .7.1 1.1-1 0 0-3 7.3-2.1 11l-.1.5" transform="scale(.03125 .02917)" fill="#00a651" stroke-width=".5" stroke="#000" stroke-miterlimit="4.8"/><path d="M439.1 265s6.8-14 15-9c0 0-8.6 1.5-11.7 7.8l-3.1 4.6zm0 0" transform="scale(.03125 .02917)" fill="#00a651" stroke-width=".5" stroke="#000" stroke-miterlimit="4.8"/><path d="M435.5 270.1s-2-9.3-3.3-10.5c-1.2-1.4-3.3-2.7-6-.6 0 0 4.6-3.9 9-.7 4.8 3.3 3.8 8.5 3.8 8.5l-.5 6.5-3.1-2.9" transform="scale(.03125 .02917)" fill="#00a651" stroke-width=".5" stroke="#000" stroke-miterlimit="4.8"/><path d="M442.8 281.3s-8.3-15.7-13.7-4.5c0 0-1 2.8.1 4 0 0-3-2.4-1.6-7.9 1.4-5.4 10.5-2.9 13.1 1.7 2.7 4.4 3.4 6.6 3 7-.3.2-1-.4-1-.4zm23.3 4.5s6-12.5 9.5-6.8c0 0 1 2.8-.5 4 0 0-2.4-3-4.5.7-2.2 3.4-1.4 3-1.4 3s-2 .7-3-.9zm0 0" transform="scale(.03125 .02917)" fill="#00a651" stroke-width=".5" stroke="#000" stroke-miterlimit="4.8"/><path d="M475 283s3.3 1.7 2.3 5.2c0 0 4.3-8.4-1.7-9.2 0 0 1.1 2.7-.5 4zm.5-8.6s7.9 2.3 8.1 5.6c0 0 1.4-6.5-3.1-8.5 0 0-5.4 1-5 3zm0 0" transform="scale(.03125 .02917)" fill="#00a651" stroke-width=".5" stroke="#000" stroke-miterlimit="4.8"/><path d="M479 264c3.4-6.6 7.6 2.1 7.6 2.1s1.5-7-2.7-8.2c-4.3-1.2-7 14.8-7 14.8l-5 1s1.4-13.7 8.9-15h1" transform="scale(.03125 .02917)" fill="#00a651" stroke-width=".5" stroke="#000" stroke-miterlimit="4.8"/><path d="M473 268s-4.8-9.8-8-10.9c-3.3-.9 1.8-2.4 3.8-.5 2 1.9 5.7 4.3 5.3 9.2zm-5 13.4s1.4-6.6 5.3-8.6c3.7-2 7.2-1.3 7.2-1.3s-4.5 1-5.3 3.3c-.7 2.2-2 2.4-2 2.4l-5 4.2zm0 0" transform="scale(.03125 .02917)" fill="#00a651" stroke-width=".5" stroke="#000" stroke-miterlimit="4.8"/><path d="M466 285.8s-2 4-1.6 4.6c0 0-2.1 3.3-1.3 5 0 0 2.1 1.7 3.1 1 0 0 2.7-3.8 2-5.6 0 0 1.8-2.5 1-4 0 0-2.4 0-3-1zm0 0" transform="scale(.03125 .02917)" fill="#964b36" stroke-width=".5" stroke="#000" stroke-miterlimit="4.8"/><path d="M14.2 8.1h.1zm0 .1h.1zm0 .2h0zm-.4 0h.1zm0 0h.1zm.1.1h0zm.6 0h.1zm0 0"/><path d="M542 299.9l-.3.2.4-.2zm9.3-2.4c0-.2-.2 0-.3-.2l-.4-.8h-.4l-.6-1.5V294.4l-.4-.2v-2.1c-.2-.3-.3-.7-.3-1V290c.1-.4-.1-.6-.1-1v-9.3 2.6l-.3-4.3-3.4-1.6s-.4 6.2-.2 7c0 1 .4 6.7.2 7.4l-.5 4.2s-1.6 1.2-2.2 2.5c-.6 1.3-.5 1.7-.6 1.7l1.5-.1-1.2.8c.3-.2.5-.2.6 0l.3.2.3-.2c.2 0 .5.4.6.2l.4-.1.2-.4c.1-.1.3 0 .4 0h.7c.3 0 .6-.5.9-.7.3-.2.4-.2.8-.2l1 .2.5-.2.3-.6.8-.1.4.1h.6l.4.2v-.4zm0 0" transform="scale(.03125 .02917)" fill="#964b36" stroke-width=".3" stroke="#000" stroke-miterlimit="4.8"/><path d="M544.5 299.7h.6v.2c0 .1.1.1.1 0l.4.2h.6c.3.2.5 0 .7 0 .2-.2.4 0 .6.2h.3v-.2h.3l.3-.1.4-.1.5.1h0l.8-.5c.3-.2.5 0 .6 0h.8l.3-.3.6.4c.1.1.7.3.6-.1 0-.4-.4-.2-.5-.4v-.7l-.3-.4h-.5v-.5h-.5l-.2-.2c-.3-.2-.4.2-.8.2l-.5-.8s-.2-.4-.5-.4v.8h-.5-.2c-.3.5-.3.8-.8.8 0 0-.2-.2-.3 0h-.9l-.4-.3-.1-.1h-.1-.1c-.1 0-.2 0-.3.2l-.1.6-.3.4h-.4c-.2 0-.5.4-.5 0s.4-1.1 0-1c-.2 0-.3 0-.5.2v.8c0 .2-.6.8-.5.9 0 .3.4 0 .4 0l.1.4c.3.3.8-.4.8 0m-2.1-2.7v-.2h-.4c-.3 0-.4.2-.5.4-.3.4-.3.9-.6.9h-.5v1l-.1.2c-.2.4 0 .3.3.3h1l.5-.2c.1 0 .4 0 .5-.2l.1-.4v-.4c0-.2.4 0 .4-.4.1-.7-.6-.2-.5-.8" transform="scale(.03125 .02917)" fill="#964b36" stroke-width=".3" stroke="#000" stroke-miterlimit="4.8"/><path d="M550.8 277.9c0 1-.5 1.6-1.4 1.6-.6 0-1.4-.7-1.4-1.6 0-1 .8-1.6 1.4-1.6.9 0 1.4.7 1.4 1.6zm-4.5-2c0 1-.5 1.6-1.4 1.6-.8 0-1.4-.7-1.4-1.6 0-1 .8-1.6 1.4-1.6.7 0 1.4.7 1.4 1.6zm0 0" transform="scale(.03125 .02917)" stroke-width=".5" stroke="#000" stroke-miterlimit="4.8"/><path d="M548.8 276.6c0 .9-.7 1.4-1.5 1.4s-1.4-.6-1.4-1.4c0-1 .6-1.6 1.4-1.6.8 0 1.5.6 1.5 1.6zm0 0" transform="scale(.03125 .02917)" stroke-width=".5" stroke="#000" stroke-miterlimit="4.8"/><path d="M546.4 278c0 .8-.6 1.6-1.4 1.6s-1.4-.8-1.4-1.6c0-.9.6-1.6 1.4-1.6s1.4.7 1.4 1.6zm0 0" transform="scale(.03125 .02917)" stroke-width=".5" stroke="#000" stroke-miterlimit="4.8"/><path d="M548.5 279.2c0 .8-.6 1.6-1.4 1.6s-1.4-.6-1.4-1.6c0-.9.7-1.6 1.4-1.6s1.4.7 1.4 1.6zm0 0" transform="scale(.03125 .02917)" stroke-width=".5" stroke="#000" stroke-miterlimit="4.8"/><path d="M549.3 261.6s13.8-19.5 28.7.6c0 0 .1 2-1.3 4.2l-.3-1.8-1 .4-.1-1-1.7-.2.5-2.1-1.7 1.3.2-1.4-2 2 .3-4.3-2.1 3.7.2-2.5-.8 1-.5-1.4-.6 1.5-1-.7v1l-1.9-1.5-.5 2-1-2.2v1.5l-1-1.7v2l-3-1.4.5 1.8-1.2-1 .3 1-2-.4.2 1-2-.4.3 1.1-2.7-.3 1 1-.4.6s15-5 16 13.8l-2.6 1.2.8-1.4-.8-.6-2.4-1.6.8-2.4-.8.3v-1.4l-.5.2-1-1.4v.6l-.7-1.8-.8 1.2-.2-2.6-1 1.7-.3-1-.2.6-1.3-1.5-.5 1-.5-.8-.2 1-1.4-1.4v1l-1-.6-.4.4-2-1.1v1l-1.3-1-.3 1s13.6 7.8 9.4 20.4l-.8 1.6-.2-4.3-1.3 2.3 1-5-1 1.1v-2l-1.2 2-.4-2.2-.5.6-.9-3.2-.5 1.4-1-3.7-.8 1.5-.5-3-.5 1.8-1.5-2.8-.1 1-1-2-.5.6s-2.5-.1-3.3-.7c-.8-.6-2.8 3.6-2.8 3.6l.2-2.5-.9 1.7V276l-1.6 5.4-.4-4-.8 3.4-.5-1-.2 1.3-.5-.6-.4 1.7-.9-.7v2l-.7-1-.6 3-.4-1.2v1.3l-.6-.6-.6 3-1-1.4v2.3l.3 1.6-1-.6.4 2.6s-3.9-7.3.8-14.2c4.6-7 11-9 11-9l-.8-.5v-.7l-3.8 1.9v-1.1l-1 .8-.2-1.2-.6 1-.1-.3-1 1.3-.4-2-.6 2.4-.5-1.7-1.4 3.4V270l-1 2.8-.4-3-.8 3.4v-3l-1 3-.8-3-.5 3-.8-2.3-.7 3.4-1.1-3-.7 4.5-.7-1.8-.1 3.4-1-2 1 4.1-1-1.6.2 2.5-1.6-2.8v3.4l-.8-1-.4 1.2s-.3-13 8.5-15.6c9-2.6 14.7.8 14.7.8l-3.4-2.8.4-1h-1.1l.5-.9-2.8.1.8-1-2 .4v-.7l-1.3 1 .5-1.1-1.8 1.2v-1.8l-1 1.4-.5-1.5-4 4 1-4.1-.6.9-.1-1-1.1 1.8-.3-1.2-.5 1.5-.4-1.8-.8 1.8-1-1.6-.3 2.1-.6-1-.8 1.5-1-1v1l-2-.9.4 1.5-1.5-1.2-.4 2-.8-1-.6 2.4-.7-2.4-.6 2s7.8-20.2 27.6-7c0 0 2.1 2 2.6 3.6.5 1.4.2.2.2.2l-.4-13.9.8 6 .5-2v3l2-4.3s-2.5 7.2-1.5 9.9c0 0 .8-8.4 3.8-9.4l-2.9 6h1l-.6 1.1h.6l-.8 2-.5 1 .5 1zm0 0" transform="scale(.03125 .02917)" fill="#00a651" stroke-width=".5" stroke="#000" stroke-miterlimit="4.8"/><path d="M17.1 7.9h0zm0-.2v-.1zm0 0M17 7.7v.1h.1v-.1H17zm0 .2zm0 .1zm.1 0zm0 0zm0 0"/><path d="M442.6 340.2s-2.4-1-3.5-.2c-1 .7-.9 2-1.9 1.8 0 0 3.7.8 4.4-.1l1-1.3m.4.8s-1.6 2-1 3.3c.5 1.2 1.8 1.3 1.4 2.2 0 0 1.5-3.3.9-4.2l-1-1.3m-3-5.7s-2.4.8-2.7 2c-.2 1.3.6 2.1-.1 2.7 0 0 3.3-1.8 3.1-3v-1.4m1.1.6s1.3-2.2.6-3.5c-.8-1.2-2-.9-1.8-2 0 0-1 3.7 0 4.5l1.1 1m-2.2-1s0-2.5-1-3.1c-1.1-.7-2.1-.2-2.5-1 0 0 .7 3.7 1.9 4l1.4.3m4.4 4.2s2.6-1 3 2c.1 3-.2 2-.2 2s-1.4-3.2-3-3.8zm0 0" transform="scale(.03125 .02917)" fill="#00a651" stroke-width=".5" stroke="#000" stroke-miterlimit="4.8"/><path d="M13.8 10v-.2.2zm0 0M13.8 10zm0-.2h-.1.2zm0 0M13.7 9.8zm.1 0zm0 .1h.1zm0 0"/><path d="M471.3 341c2-1 2.3-5 2.3-5-.5 1.4-4.2 2.8-4.2 2.8 2.7-1.6 6-9.3 6-9.3-.8 2.6-8 5-12.6 7.6-4.6 2.5-2.2 10-2.2 10-1.4-.9-3.9-4.8-4.4-8.3s-1.7-5-5-5.3c-3-.4-5 3.2-5 3.2l-4.6 2.4 4.8.1s3.4 1.2 3.4 4c0 2.5-3 13.2 2 19.2 3.3 4.2 16 6.4 16 6.4" transform="scale(.03125 .02917)" fill="#fff" stroke-width=".7" stroke="#000" stroke-miterlimit="4.8"/><path d="M461.9 349.3s1-4.8 4.1-4.6c3.1.2 4-3.6 5.9-4.1 1.9-.6 11.5-3.2 12.5-7.8 0 0-.9 7.6-9.6 11.4 0 0 7-2.3 8-3.9 0 0-3.3 6.8-11 8 0 0 7.2-.8 8.2-2.6 0 0-3.3 4.3-8.5 4.8 0 0 5 2 6.3.3 0 0-2.8 3.2-6 3.4l1 .2s-3.3 3.9-6.8 1.3c-3.5-2.5-3.6.6-3.6.6" transform="scale(.03125 .02917)" fill="#fff" stroke-width=".7" stroke="#000" stroke-miterlimit="4.8"/><path d="M469 356.5s4.1 6.8 4.5 10.5c0 0 7.8 8.4 10.8 9 0 0-1.6.5-4-1.5 0 0 2 2.1 2.4 2.2.6 0-1.6-.2-2-.8a5.5 5.5 0 001.6 1.5l-.6-.3s-1 0-1.6-.4c-.5-.4-.1 1-.1 1s-1.3-.3-1.6-.7.1 1 .1 1l-1-.5-.8.6s0 .5-.4 0c-.6-.3-1.6 0-1.6 0s-.4.7-1 .2c-.2-.4-1.4 1.7-1.4 1.7l-5-12.4" transform="scale(.03125 .02917)" fill="#fff" stroke-width=".7" stroke="#000" stroke-miterlimit="4.8"/><path d="M14.8 11l-.2-.3.2.3zm.2 0l-.4-.3.4.3zm0 0l-.3-.4.4.4zm-1-1.2zm0 0v.1zm0 0M14 9.8zm0 0M14 9.8zm0 0M14 9.8zm0 0M14 9.8zm0 .7l.1.1h.1l-.1-.1zm0 0"/><path d="M549.4 334.8s5.6-7.3 10.6-5.5c5 2 8.1 3 8.1 3s.1 5-2.5 5-5.2-5.2-7.6-3.5c-1.9.9-3.4 2.4-4.5 4.1-.1.7-6.3.8-4.1-3zm0 0" transform="scale(.03125 .02917)" fill="#964b36" stroke-width=".3" stroke="#000" stroke-miterlimit="4.8"/><path d="M528.3 370.4s-1.7 1.7-1 2c.7.5 2 0 2-.6s-1-1.6-1-1.4zm0 0" transform="scale(.03125 .02917)" fill="#964b36" stroke-width=".5" stroke="#000" stroke-miterlimit="4.8"/><path d="M527 372s-3-1.7-5.3 2.2c-2.2 3.7-4 10-5.3 11-1.3.8 12.9-6.2 13-9.3 0 0 .9-3.7-.6-3.6-1.5 0-1.5.2-2-.4zm0 0" transform="scale(.03125 .02917)" fill="#964b36" stroke-width=".5" stroke="#000" stroke-miterlimit="4.8"/><path d="M527.3 372.5s-3 .6-3.5 4.8c-.7 4.3-4.8 6.3-5 6.5m49.3-51.7s-4.4 1.7-3.7 4.9" transform="scale(.03125 .02917)" fill="#964b36" stroke-width=".3" stroke="#000" stroke-miterlimit="4.8"/><path d="M533.8 341.3s0-10.6 8.8-10.2c1.6.2.8 2.1.8 2.1s2-1.3 2.9.8c0 0 2.6-1.2 3 1.5 0 0 3-.4 2.5 2 0 0 2-.5 2 1.2 0 0 2.3-1 2 1.5 0 0 2.6-1.8 2.3 1.5 0 0 2.6-2 3.5 1.2 1 3-2.6 9.7-6.1 11.3" transform="scale(.03125 .02917)" fill="#fff200" stroke-width=".3" stroke="#000" stroke-miterlimit="4.8"/><path d="M17.4 10s0 .2 0 .3V10zm-.1.2V10v.3zm-.1 0l.1-.3-.1.3zm-.1 0l.2-.4-.2.3zm0-.1v-.3.3zm-.2 0a.4.4 0 01.2-.4l-.2.3zm-.1-.1a.3.3 0 01.2-.3.3.3 0 00-.2.3zm0 0"/><path d="M528.6 354.2s-1.5-9.9 4.4-13c0 0 1.1-.2 1.8 1.3 0 0 3-1.4 3 1.2 0 0 1.7-1.2 2 .5 0 0 3.5-.7 2.8 1.7 0 0 2.8-.8 2.5 1.6 0 0 2.8-.9 2.4 1.1 0 0 3-.7 2.3 1.8 0 0 3.6-.4 2.5 2.1 0 0 2.7-.7 2 1.3 0 0 3.6.8 2 3.1-2.7 3.1-6 5.5-9.8 7" transform="scale(.03125 .02917)" fill="#00a651" stroke-width=".3" stroke="#000" stroke-miterlimit="4.8"/><path d="M525.4 364.2s-2.4-8.4 2.2-10.4c0 0 .9-.2 1 .6 0 0 1-1.4 1.8-.2 0 0 2.4-1 2.9.7 0 0 1.5-1.3 2.3.5 0 0 1.5-.5 1.5 1.1 0 0 2-1 2 1 0 0 2-.8 1.5 1.2 0 0 3 .5 2.1 1.8 0 0 2.7.8 1.7 2 0 0 2.9-.4 1.4 1.5 0 0 2-.7 1 1.8-1.4 2.2-5.3 5-8 5.3" transform="scale(.03125 .02917)" fill="#00a651" stroke-width=".3" stroke="#000" stroke-miterlimit="4.8"/><path d="M528.3 370.6s-5-5-2.7-6.4c0 0 1 .4 1.5 1.4 0 0 1.1-1.9 2 0 0 0 1.8-.6 1.8.7l1.4 1s1.7 0 1.5 1c0 0 1.8-.3 1.7.7 0 0 1.6.1 1.5 1.2 0 0 2.8.5 1.5 1.9 0 0-4.8 1-8.3-.4 0 0-1.7-.6-2-1.1zm0 0" transform="scale(.03125 .02917)" fill="#00a651" stroke-width=".3" stroke="#000" stroke-miterlimit="4.8"/><path d="M17 10.6c.2 0 .3-.2.3-.3l-.2.3zm0 0l.3-.3-.3.2zm0 0l.2-.4-.2.3zm0-.1l.1-.3s-.2.1-.2.3zm-.4-.2l.1-.3-.1.3zm0 0l.2-.3s-.2.2-.1.3zm.2 0l.2-.2s-.2.1-.2.3zm-.3.3v-.3.4zm0 0v-.3.4zm.3.2c.2 0 .3-.2.3-.2l-.3.2zm0 0l.2-.2-.2.2zm0 0l.2-.3-.3.3zm-.2-.1a.6.6 0 010-.3v.3zm0 0c.2 0 .2-.3.2-.3l-.2.3zm.1 0a.5.5 0 00.2-.2l-.2.2zm0-.4v.4-.3l.2-.4-.2.3zm0 0"/><path d="M16.8 10.4l-.1.3.2-.3.1-.3-.2.3zm-.3.3v.1a.5.5 0 010-.1zm0 0v.1-.1zm0 0M16.5 10.8v-.1.1zm0 0a.2.2 0 00.1 0zm0 0h.1zm0 0M16.6 10.8h0zm0 0M16.6 10.8h0zm0 0"/><path d="M420.9 193.3v136.3c0 44.6 80.6 71 80.6 71s80.5-26.4 80.5-71V193.3zm0 0" transform="scale(.03125 .02917)" fill="none" stroke-width="2.8" stroke="#000" stroke-miterlimit="4.8"/><path d="M0 0h10v7H0zm0 0" fill="#012169"/><path d="M1.2 0L5 2.6 8.8 0H10v.9L6.2 3.5 10 6.1V7H8.7L5 4.4 1.3 7H0v-.9l3.7-2.6L0 1V0zm0 0" fill="#fff"/><path d="M6.6 4.1L10 6.4V7L5.8 4.1zm-2.8.3v.5L.8 7H0zM10 0L6.1 2.8V2L9.2 0zM0 0l3.7 2.6h-.9L0 .6zm0 0" fill="#c8102e"/><path d="M3.8 0v7h2.5V0zM0 2.3v2.4h10V2.3zm0 0" fill="#fff"/><path d="M0 2.8v1.4h10V2.8zM4.3 0v7h1.5V0zm0 0" fill="#c8102e"/></svg>