<svg xmlns="http://www.w3.org/2000/svg" width="20" height="14"><path fill="#ce1126" d="M0 0h20v14H0z"/><path d="M2.1 2h15.8v10H2.1zm0 0" fill="#007a5e"/><path d="M2.1 2h15.8L2.1 12h15.8zm0 0" fill="#fcd116"/><path d="M11.8 7c0 1-.8 1.7-1.8 1.7S8.2 7.9 8.2 7c0-1 .8-1.7 1.8-1.7s1.8.8 1.8 1.7zm0 0" fill="#ce1126"/><path d="M10 5.5l-.5 1.4.8.3" fill="#fcd116"/><path d="M10 5.5l.5 1.4-.8.3" fill="#fcd116"/><path d="M11.6 6.5H9.9v.8" fill="#fcd116"/><path d="M11.6 6.5l-1.4 1-.4-.7" fill="#fcd116"/><path d="M11 8.2l-.5-1.4-.8.2" fill="#fcd116"/><path d="M11 8.2l-1.4-.9.5-.6" fill="#fcd116"/><path d="M9 8.2l1.4-.9-.5-.6" fill="#fcd116"/><path d="M9 8.2l.5-1.4.8.2" fill="#fcd116"/><path d="M8.4 6.5l1.4 1 .4-.7" fill="#fcd116"/><path d="M8.4 6.5h1.7v.8M5.9 0l-.3.8.5.2" fill="#fcd116"/><path d="M6 0l.2 1h-.4" fill="#fcd116"/><path d="M6.9.7h-1v.5" fill="#fcd116"/><path d="M6.9.7l-.8.5-.3-.3" fill="#fcd116"/><path d="M6.5 1.7L6.2 1h-.5" fill="#fcd116"/><path d="M6.5 1.7l-.8-.5.3-.4" fill="#fcd116"/><path d="M5.4 1.7l.7-.5L6 .8" fill="#fcd116"/><path d="M5.4 1.7l.3-.8H6" fill="#fcd116"/><path d="M5 .7l.8.5L6 1" fill="#fcd116"/><path d="M5 .7h1v.5M10 0l-.3.8.5.2" fill="#fcd116"/><path d="M10 0l.3 1h-.5" fill="#fcd116"/><path d="M11 .7h-1v.5" fill="#fcd116"/><path d="M11 .7l-.9.5L10 1" fill="#fcd116"/><path d="M10.6 1.7l-.3-.8h-.5" fill="#fcd116"/><path d="M10.6 1.7l-.8-.5.3-.4" fill="#fcd116"/><path d="M9.4 1.7l.8-.5-.3-.4" fill="#fcd116"/><path d="M9.4 1.7l.3-.8h.5" fill="#fcd116"/><path d="M9 .7l.9.5.2-.3" fill="#fcd116"/><path d="M9 .7h1v.5M14 0l-.2.8.4.2" fill="#fcd116"/><path d="M14 0l.4 1h-.5" fill="#fcd116"/><path d="M15 .7h-1v.5" fill="#fcd116"/><path d="M15 .7l-.8.5L14 1" fill="#fcd116"/><path d="M14.6 1.7l-.3-.8H14" fill="#fcd116"/><path d="M14.6 1.7l-.7-.5.2-.4" fill="#fcd116"/><path d="M13.5 1.7l.8-.5-.3-.4" fill="#fcd116"/><path d="M13.5 1.7l.3-.8h.5" fill="#fcd116"/><path d="M13.1.7l.8.5.3-.3" fill="#fcd116"/><path d="M13.1.7h1v.5" fill="#fcd116"/><path d="M3.2 7c.2.4.6.8 1 1A3 3 0 004 6.7zm0 0" fill="#ce1126"/><path d="M2.8 5.7c.3.6-.8 2.1 1.1 2.5A1.7 1.7 0 013.6 7c.4.1.8.5 1 .9.5-1.8-1.3-1.7-1.8-2.2zM6 12.2l-.3.8.5.2" fill="#fcd116"/><path d="M6 12.2l.2.8-.4.2" fill="#fcd116"/><path d="M6.9 12.8h-1v.4" fill="#fcd116"/><path d="M6.9 12.8l-.8.5-.3-.3" fill="#fcd116"/><path d="M6.5 13.8l-.3-.9-.5.2" fill="#fcd116"/><path d="M6.5 13.8l-.8-.5.3-.4" fill="#fcd116"/><path d="M5.4 13.8l.7-.5-.2-.4" fill="#fcd116"/><path d="M5.4 13.8l.3-.9.4.2" fill="#fcd116"/><path d="M5 12.8l.8.5.3-.3" fill="#fcd116"/><path d="M5 12.8h1v.4m4-1l-.3.8.5.2" fill="#fcd116"/><path d="M10 12.2l.3.8-.5.2" fill="#fcd116"/><path d="M11 12.8h-1v.4" fill="#fcd116"/><path d="M11 12.8l-.9.5-.2-.3" fill="#fcd116"/><path d="M10.6 13.8l-.3-.9-.5.2" fill="#fcd116"/><path d="M10.6 13.8l-.8-.5.3-.4" fill="#fcd116"/><path d="M9.4 13.8l.8-.5-.3-.4" fill="#fcd116"/><path d="M9.4 13.8l.3-.9.5.2" fill="#fcd116"/><path d="M9 12.8l.9.5.2-.3" fill="#fcd116"/><path d="M9 12.8h1v.4m4-1l-.2.8.4.2" fill="#fcd116"/><path d="M14 12.2l.4.8-.5.2" fill="#fcd116"/><path d="M15 12.8h-1v.4" fill="#fcd116"/><path d="M15 12.8l-.8.5-.3-.3" fill="#fcd116"/><path d="M14.6 13.8l-.3-.9-.4.2" fill="#fcd116"/><path d="M14.6 13.8l-.7-.5.2-.4" fill="#fcd116"/><path d="M13.5 13.8l.8-.5-.3-.4" fill="#fcd116"/><path d="M13.5 13.8l.3-.9.5.2" fill="#fcd116"/><path d="M13.1 12.8l.8.5.3-.3" fill="#fcd116"/><path d="M13.1 12.8h1v.4" fill="#fcd116"/></svg>