<svg xmlns="http://www.w3.org/2000/svg" width="20" height="14"><path fill="#fff" d="M0 0h20v14H0z"/><path d="M8.5 0h3v14h-3zm0 0" fill="red"/><path d="M0 5.6h20v2.8H0zm0 0" fill="red"/><path d="M4.6 10.9l.1-1-.4.1h-.5l.1.9-1-.1v.8h1l-.1.8h.9l-.1-.9 1 .1v-.4-.4h-1zM16 2.5l.1-1-.5.1h-.4l.1.9a8 8 0 01-1-.1v.8h1l-.1.8h.9l-.1-.9 1 .1v-.4-.4h-1zm-11.5 0l.1-1-.5.1h-.4l.1.9-1-.1v.8h1l-.1.8h.9l-.1-.9 1 .1v-.4-.4h-1zM16 10.9l.1-1-.5.1h-.4l.1.9a8.4 8.4 0 01-1-.1 3.5 3.5 0 000 .8h1l-.1.8h.9l-.1-.9 1 .1v-.4-.4h-1zm0 0" fill-rule="evenodd" fill="red"/></svg>