<svg width="21" height="15" xmlns="http://www.w3.org/2000/svg"><defs><linearGradient x1="50%" y1="0%" x2="50%" y2="100%" id="a"><stop stop-color="#FFF" offset="0%"/><stop stop-color="#F0F0F0" offset="100%"/></linearGradient><linearGradient x1="50%" y1="0%" x2="50%" y2="100%" id="b"><stop stop-color="#EC3938" offset="0%"/><stop stop-color="#E12524" offset="100%"/></linearGradient><linearGradient x1="50%" y1="0%" x2="50%" y2="100%" id="c"><stop stop-color="#51B422" offset="0%"/><stop stop-color="#429919" offset="100%"/></linearGradient><linearGradient x1="50%" y1="0%" x2="50%" y2="100%" id="d"><stop stop-color="#258DE7" offset="0%"/><stop stop-color="#1276CC" offset="100%"/></linearGradient></defs><g fill="none" fill-rule="evenodd"><path fill="url(#a)" d="M0 0h21v15H0z"/><path fill="url(#b)" d="M0 10h21v5H0z"/><path fill="url(#c)" d="M0 0h21v5H0z"/><path fill="url(#a)" d="M0 5h21v5H0z"/><path d="M10.066 8.932a.73.73 0 0 0 .175-.425l.008-1.264A.25.25 0 0 0 9.996 7h-.242c-.14 0-.176-.078-.08-.174l.652-.652a.247.247 0 0 1 .348 0l.652.652c.096.096.057.174-.08.174h-.242a.253.253 0 0 0-.254.243v1.264c0 .134.08.322.17.414l-.09-.092c.093.094.063.171-.082.171h-.496c-.139 0-.176-.08-.078-.182l-.108.114z" fill="#159940"/><path fill="url(#d)" d="M0 0l7 7.5L0 15z"/></g></svg>