<svg xmlns="http://www.w3.org/2000/svg" width="20" height="14"><path d="M0 0h20v1.6H0zm0 0" fill-rule="evenodd" fill="#005bae"/><path d="M0 1.6h20V3H0zm0 0" fill-rule="evenodd" fill="#fff"/><path d="M0 3.1h20v1.6H0zm0 0" fill-rule="evenodd" fill="#005bae"/><path d="M0 4.7h20v1.5H0zm0 0" fill-rule="evenodd" fill="#fff"/><path d="M0 0h8.3v7.8H0zm0 0" fill="#005bae"/><path d="M0 6.2h20v1.6H0zm0 0" fill-rule="evenodd" fill="#005bae"/><path d="M0 7.8h20v1.5H0zm0 0" fill-rule="evenodd" fill="#fff"/><path d="M0 9.3h20V11H0zm0 0" fill-rule="evenodd" fill="#005bae"/><path d="M0 10.9h20v1.5H0zM3.3 0H5v7.8H3.3zm0 0" fill-rule="evenodd" fill="#fff"/><path d="M0 3.1h8.3v1.6H0zm0 0" fill-rule="evenodd" fill="#fff"/><path d="M0 12.4h20V14H0zm0 0" fill="#005bae"/></svg>