<svg xmlns="http://www.w3.org/2000/svg" width="20" height="14"><defs><radialGradient id="a" gradientUnits="userSpaceOnUse" cx="447.4" cy="308.3" fx="447.4" fy="308.3" r="16.5"><stop offset=".2" stop-color="#f9f0aa"/><stop offset="1" stop-color="#b07e09"/></radialGradient><radialGradient id="b" gradientUnits="userSpaceOnUse" cx="451.6" cy="313" fx="451.6" fy="313" r="10.9"><stop offset=".2" stop-color="#f9f0aa"/><stop offset="1" stop-color="#b07e09"/></radialGradient><radialGradient id="c" gradientUnits="userSpaceOnUse" cx="454.1" cy="308.6" fx="454.1" fy="308.6" r="9.8"><stop offset=".2" stop-color="#f9f0aa"/><stop offset="1" stop-color="#b07e09"/></radialGradient><radialGradient id="d" gradientUnits="userSpaceOnUse" cx="458.4" cy="307.1" fx="458.4" fy="307.1" r="17.4"><stop offset=".2" stop-color="#f9f0aa"/><stop offset="1" stop-color="#b07e09"/></radialGradient><radialGradient id="g" gradientUnits="userSpaceOnUse" cx="446" cy="252.4" fx="446" fy="252.4" r="13"><stop offset=".2" stop-color="#f9f0aa"/><stop offset="1" stop-color="#b07e09"/></radialGradient><radialGradient id="j" gradientUnits="userSpaceOnUse" cx="477.9" cy="215.3" fx="477.9" fy="215.3" r=".3"><stop offset=".3" stop-color="#a50a0a"/><stop offset="1" stop-color="#4c0505"/></radialGradient><radialGradient id="k" gradientUnits="userSpaceOnUse" cx="489.1" cy="210.3" fx="489.1" fy="210.3" r=".3" gradientTransform="matrix(.02036 0 0 .0199 0 1.2)"><stop offset="0" stop-color="#fff"/><stop offset="1" stop-color="#fff" stop-opacity="0"/></radialGradient><linearGradient id="e" gradientUnits="userSpaceOnUse" x1="473.9" y1="259.2" x2="472.4" y2="232"><stop offset=".2" stop-color="#b07e09" stop-opacity="0"/><stop offset="1" stop-color="#b07e09"/></linearGradient><linearGradient id="f" gradientUnits="userSpaceOnUse" x1="483.1" y1="296.7" x2="485.5" y2="326.6"><stop offset=".2" stop-color="#b07e09" stop-opacity="0"/><stop offset="1" stop-color="#b07e09"/></linearGradient><linearGradient id="h" gradientUnits="userSpaceOnUse" x1="451.5" y1="249.5" x2="455.4" y2="240.6"><stop offset=".2" stop-color="#f9f0aa"/><stop offset="1" stop-color="#b07e09"/></linearGradient><linearGradient id="i" gradientUnits="userSpaceOnUse" x1="473.3" y1="237.3" x2="475.9" y2="270.4"><stop offset=".2" stop-color="#f9f0aa"/><stop offset="1" stop-color="#b07e09"/></linearGradient></defs><path fill="#4997d0" d="M0 0h20v14H0z"/><path d="M6.7 0h6.6v14H6.7zm0 0" fill="#fff"/><path d="M452 377.5c2.9-.4 4.4-1.2 6-1.8m2.3-4c1.3 1.2 2.4 2.8 3 4.6m-8-5.2a19.5 19.5 0 013 4.2m-49.6-136.6c-.9 1.6-3 2.8-4.6 3.4m-.4-.2c0-1.4-.4-3 0-4.4m-2 5l.7 2m2 1l-2 .5m-4-1c0 2.6.4 5.6.6 8m-1.9-1l1.7 1.8m-4.7 6.4c.6 1 1.1 2.2 1.3 4m3.8-4.6l-2 1.4m1.6 4.4c-1 1-2 1.7-3.4 2.3m-3.7 40.3a13 13 0 004 4.7m.5 1.8c-1.1-.2-2-.6-3-1m4.5 8.4l1.7 1m-.6 3.4c1.3.8 2.6 2.2 3.8 3.8m-1.4 2.8l3.2 1m-1 2.7h2m1.3-5.5l-.6 4.3m1.1 1.6l.4-1.6m4.7 6l-.2 3.2m39.2 28l-1.1 1.5m-2.5-4l-.5-1.8" transform="matrix(.02083 0 0 .01944 0 1.2)" fill="none" stroke-width=".4" stroke="#24420e"/><path d="M486.2 385c-1-1.2-2-2-3.4-2.6-7.7-4-15.4-6-24-7.5-2-.2-4.1-2.2-6.2-3.2-5-2.2-10.5-3.2-15.4-5.6-.7-.4-1.3-.8-1.8-1.4-2-2.2-5.7-3-7.7-5-8.5-7.9-17.3-15.1-21.8-25.6-5.6-12.6-12.5-25.9-11.6-40.3.6-9-.7-18.3 1.5-27 3.4-12.8 7.5-25.7 15.4-36.3l-1.3.8c-7.3 11-12.6 23.3-15.4 36.4-2.3 8.6-1 17.8-1.5 26.9-1 14.4 6 27.7 11.4 40.4 4.7 10.4 13.5 17.6 22 25.5 2 2 5.4 2.8 7.5 5 .5.6 1.3 1 2 1.6 5 2.2 10.3 3.2 15.4 5.6 2 1 4 2.8 6 3a79 79 0 0124.2 7.5c1.3.4 2.4 1.4 3.4 2.6l1.3-.8" transform="matrix(.02083 0 0 .01944 0 1.2)" fill="#406325" stroke-width=".2" stroke="#24420e"/><path d="M406.3 331.5c-2-7.6-2-15.6-.2-23.5 6.8 13 4.5 23.7.2 23.5zm46 45.4c-7.2.4-20.7 9.5-22 11.5 15 .2 24-7.2 22-11.5zm7.4-4.2a59.8 59.8 0 01-14-26.5c15 10.9 19 24.3 14 26.5zm0 0" transform="matrix(.02083 0 0 .01944 0 1.2)" fill="#67923d" stroke-width=".2" stroke="#24420e"/><path d="M454.7 372.7a54.3 54.3 0 01-16.1-22.7c15.3 8.3 20.2 20.1 16 22.7zm-15.8-6.6a54 54 0 00-7.5-26.1c-3 16.4 3 27.7 7.7 26zm-27.2-24.3c-1.6-7-1.5-14.3.4-21.1 5.6 11.6 3.4 21.3-.4 21zM398.1 265c5.4-7 12.7-12.6 21-16-6.8 14.6-18 19.9-21 16zm0 0" transform="matrix(.02083 0 0 .01944 0 1.2)" fill="#67923d" stroke-width=".2" stroke="#24420e"/><path d="M398.6 259.2a54 54 0 0117.5-19.9c-3.8 15.7-13.7 23.1-17.5 20zm28 99.3c-5-6.3-8-24-7.4-26.4 11.3 12.5 12 25.2 7.4 26.4zM397.9 322c-7 1-21.4-4.6-23-6.4 14.5-3.2 24.5 2 23 6.4zm-2.3-9.8c1-5.5 8.6-15.7 10.3-16.5-.9 11.8-7.3 18.5-10.3 16.5zm51.4 58.6c-9.8 2.2-18.8 7-26 13.7 18 .2 28.6-8.7 26-13.7zm0 0" transform="matrix(.02083 0 0 .01944 0 1.2)" fill="#67923d" stroke-width=".2" stroke="#24420e"/><path d="M406.3 331.5c4.3.2 6.6-10.4-.2-23.5a76 76 0 01.2 23.5zm11.3 20a49.5 49.5 0 00-21.8-11.1c9 12 20 15 21.8 11zm-24.4-53a55.6 55.6 0 00-14.8-24c1.5 17.3 10.7 26.7 14.8 24zm8.4 34.2a42 42 0 00-21-4.6c10.1 8.3 20.3 8.5 21 4.6zm-9.4-24.9a43 43 0 00-16.8-13.6c5.4 12.4 14.4 17 16.8 13.6zm2.7-47.4c1-7.6-5.5-23.5-7.3-25.3-2.9 16 3 26.7 7.3 25.3zm4.5-15c1.8-8 1.7-16.3-.6-24.4-6.4 13.5-3.7 24.8.6 24.6zm0 0" transform="matrix(.02083 0 0 .01944 0 1.2)" fill="#406325" stroke-width=".2" stroke="#24420e"/><path d="M404.4 237.7c2.8-6 4-12.6 3.4-19.3-7.1 9.7-7 19-3.4 19.3zm6-6c4.3-5 7.5-10.9 9-17.5-9.7 7-12.2 15.9-9 17.5zm-16 43.2c0 1-1-8.2-10-18.3.3 14.9 6.2 20.5 10 18.3zm32.5 85.8c-8-4-16.8-6.3-25.8-6 12.5 10.4 24.9 10.6 25.8 6zm12 5.2c-4.5 1.6-10.5-9.5-7.5-26 1.3 9.1 3.8 17.8 7.5 26.2zm13.3 11.2c2.1 4-6.7 11.5-21.7 11.3 12-5 21.2-9.9 21.7-11.3zm7.4-4.6c5-2.2 1-15.4-14-26.3 8.5 13.3 14.5 24.5 14 26.3zm0 0" transform="matrix(.02083 0 0 .01944 0 1.2)" fill="#406325" stroke-width=".2" stroke="#24420e"/><path d="M454.7 372.7c4.1-2.8-.8-14.4-16.1-22.7 9.5 11.3 16.3 21 16 22.7zm-43-31c3.8.3 6-9.4.6-21 .8 11 .4 20-.6 21zm-13.6-76.9c3 4 13.8-1.2 20.8-15.8a92.4 92.4 0 01-20.8 16zm0 0" transform="matrix(.02083 0 0 .01944 0 1.2)" fill="#406325" stroke-width=".2" stroke="#24420e"/><path d="M398.8 259.2c3.8 3.2 13.5-4.2 17.3-19.9-8 11.3-15.6 19.7-17.3 20zm27.8 99.3c4.6-1.2 4-13.9-7.4-26.4 5.1 13.5 8.1 24.8 7.4 26.4zm-29-36.4c1.6-4.4-8.2-9.4-22.8-6.4 12.4 2.2 22.1 5 22.9 6.4zm-2-9.8c3 2 9.4-4.7 10.5-16.5a74.5 74.5 0 01-10.3 16.5zm51.4 58.6c2.6 5-8 13.9-26 13.7 14.2-5.9 25.2-11.9 26-13.7zm0 0" transform="matrix(.02083 0 0 .01944 0 1.2)" fill="#406325" stroke-width=".2" stroke="#24420e"/><path d="M399.4 326.3c-4.2-6.6-10-12-17-15.9 5 13.7 14.2 19.1 17 16zm0 0" transform="matrix(.02083 0 0 .01944 0 1.2)" fill="#406325" stroke-width=".2" stroke="#24420e"/><path d="M392.4 274c4-4.7 17.5-9.2 19.5-9-7.8 10.5-18 12.7-19.5 9zm25 77.4c-1.7 4-12.6 1-21.6-11a77.8 77.8 0 0021.8 11zm-24.2-52.8c-4.3 2.6-13.1-6.8-14.8-24.1 6.5 13.2 13 23.5 14.8 24zm8.2 34.1c-.5 3.9-10.7 3.7-20.8-4.6 6.8 2.6 13.7 4 20.8 4.6zm-9.3-24.9c-2.5 3.2-11.3-1.2-16.7-13.6a70 70 0 0016.7 13.6zm2.8-47.6c-4.5 1.6-10.2-8.8-7.3-24.9 2.6 13.5 6 24.1 7.3 25zm4.5-14.8c-4.3.4-7-10.9-.6-24.4-.7 13-.6 23.4.6 24.4zm4.8-7.7c-3.3-.6-3.5-9.6 3.6-19.3-2 6.3-3.4 12.7-3.6 19.3zm6-6c-3-1.6-.5-10.5 9-17.5a76 76 0 00-9 17.5zm0 0" transform="matrix(.02083 0 0 .01944 0 1.2)" fill="#67923d" stroke-width=".2" stroke="#24420e"/><path d="M394.3 274.9c-4 2.2-9.6-3.4-10-18.3 5 11.7 8.5 17.9 10 18.3zm32.4 85.8c-.9 4.6-13 4.4-25.6-5.9 13.3 4.3 24.3 6.7 25.6 5.9zm-8-9.5c-4-5.8-6.2-12.4-6.8-19.3 9 8.9 10.3 18.1 7 19.3zm-16.9-25c-3-7.3-4.1-15.2-3-23 8.3 11.9 7.3 22.7 3 23zm-2.6.1c-2.8 3.2-12-2.2-16.9-15.9 4.7 6 10.5 11.5 16.9 16zm0 0" transform="matrix(.02083 0 0 .01944 0 1.2)" fill="#67923d" stroke-width=".2" stroke="#24420e"/><path d="M392.4 274c1.5 3.7 11.5 1.5 19.5-9-12 6.9-16.7 9.9-19.5 9zm9.2 52c4.3-.3 5.5-11-3-22.8 2.3 7.4 3.4 15 3 23zm17 25.2c3.5-1 2.3-10.4-6.7-19.3 4.5 9.9 7.3 18.1 6.8 19.3zm0 0" transform="matrix(.02083 0 0 .01944 0 1.2)" fill="#406325" stroke-width=".2" stroke="#24420e"/><path d="M394.1 291.8c1.5-8.7 0-17.7-4.3-25.6-4.7 15.3-.2 26.6 4.3 25.6zm0 0" transform="matrix(.02083 0 0 .01944 0 1.2)" fill="#406325" stroke-width=".2" stroke="#24420e"/><path d="M394 293.8c-6 1.4-8.7-12-4.2-27.2 1.1 13.5 2.8 26.2 4.1 27.2zm0 0" transform="matrix(.02083 0 0 .01944 0 1.2)" fill="#67923d" stroke-width=".2" stroke="#24420e"/><path d="M392.6 293.8a55 55 0 019-24.7c2 15.6-4.5 26.3-9 24.7zm0 0" transform="matrix(.02083 0 0 .01944 0 1.2)" fill="#67923d" stroke-width=".2" stroke="#24420e"/><path d="M392.8 293.6c4.3 1.6 10.9-8.9 8.8-24.5a87.3 87.3 0 01-8.8 24.5zm0 0" transform="matrix(.02083 0 0 .01944 0 1.2)" fill="#406325" stroke-width=".2" stroke="#24420e"/><path d="M394.1 303.2c1.3-8.6 5-16.9 10.5-23.7 1 16.3-6.2 26-10.5 23.7zm0 0" transform="matrix(.02083 0 0 .01944 0 1.2)" fill="#67923d" stroke-width=".2" stroke="#24420e"/><path d="M394.1 303.4c4.3 2.2 11.5-7.2 10.5-23.5-4.3 12.9-9 23-10.5 23.5zm0 0" transform="matrix(.02083 0 0 .01944 0 1.2)" fill="#406325" stroke-width=".2" stroke="#24420e"/><path d="M397.9 251.4c0 .6-.4 1-1.2 1-.5 0-1-.4-1-1s.5-1.2 1-1.2c.8 0 1.2.6 1.2 1.2zm8.4-6.2c0 .6-.6 1-1.1 1-.6 0-1.1-.4-1.1-1s.5-1.2 1-1.2c.6 0 1.2.6 1.2 1.2zm-3.6-3.5c0 .6-.5 1-1 1-.6 0-1.2-.4-1.2-1s.6-1.2 1.1-1.2c.6 0 1.1.6 1.1 1.2zm-9 71.4c0 .8-.5 1.4-1.3 1.4-.5 0-1.3-.6-1.3-1.4 0-.6.8-1.2 1.3-1.2.8 0 1.3.6 1.3 1.2zm2.7-16c0 .7-.6 1.3-1.3 1.3s-1.4-.6-1.4-1.2c0-.8.6-1.4 1.4-1.4s1.3.6 1.3 1.4zm13.1 37.5c0 .6-.6 1.2-1.3 1.2s-1.3-.6-1.3-1.2c0-.9.5-1.5 1.3-1.5s1.3.6 1.3 1.5zm-5.8 1.8c0 .8-.6 1.4-1.3 1.4s-1.3-.6-1.3-1.4c0-.6.5-1.2 1.3-1.2s1.3.6 1.3 1.2zm44.2 31.3c0 .6-.5 1.2-1.3 1.2-.5 0-1.3-.6-1.3-1.2 0-.8.8-1.4 1.3-1.4.8 0 1.3.6 1.3 1.4zm3 7c0 .6-.5 1.2-1.3 1.2s-1.3-.6-1.3-1.2c0-.8.6-1.4 1.3-1.4s1.3.6 1.3 1.4zm0 0" transform="matrix(.02083 0 0 .01944 0 1.2)" fill="#ba1f3e" stroke-width=".2" stroke="#511124"/><path d="M561.2 259c.5.6 1.1.8 2.2 1.8M557 242c0-1.4-.8-3.6-1-5m3.4 3c0 2-.2 3.8-1 5.5m-4.2-.4a26 26 0 005.2 3.8m4 1.2c0 2-.2 4-.8 6m.4 1.4l1.3-2.2m-1.9 12.3c1.3.2 2.8 2 3.6 3.4m.3-1.2l1.7-2.2m1.7 30.7c-.7 1.2-1.5 2.4-2.4 3.4m-4 0c.8 1.4 1.5 3 2.7 4m2.4 5.8c-1.1 1.9-2.8 3-4.5 4m.2 4.7c-1.1.8-2.4 2.8-3.8 4.6m8.5-20.3l-2 1M565 298l1.3 1m-9.2 37.4H555m-2-1.8l.7 1.6m-7.9 5.2c-.2 1.8 0 3.6.4 5.4m4.1-8.8l1.1 2.2m4-.2l-2.7.4m-30.9 25.3l-1 1.8m12-4c-1.4.2-2.7 0-4-.2m-5.5 5.8c-1-.2-2-.6-3-1m-14.6 2.8c-1 .6-2 2.4-3 4m-.8-4.6c-2.2 1.4-3 3.8-4.3 5.8m2.8 3c-1.8-.6-3.5-1.2-5.2-2m16.7-.8c-2.5-1.2-4.7-1-7.2-1.4m10.7-.4c-3.5-.8-6.9-.6-10.3-.2m7.9-2.6l-1.3-.6m-5.6 5.6l-2.5-1.4m58.1-49.2c-1.3.8-2.6 2.4-3.9 4m1.9-79.5l-2-.8" transform="matrix(.02083 0 0 .01944 0 1.2)" fill="none" stroke-width=".4" stroke="#24420e"/><path d="M474.4 385c1-1.2 2-2.2 3.3-2.8a76 76 0 0124-7.3c2.1-.4 4.2-2.2 6.2-3.2 5-2.4 10.5-3.2 15.2-5.6a8.4 8.4 0 002-1.6c2.1-2.2 5.5-2.8 7.8-5 8.2-7.9 17-14.9 21.7-25.6 5.6-12.6 12.6-25.7 11.6-40.1-.5-9.3.6-18.3-1.5-27-2.8-13-8-25.3-15.3-36.3l1.3.8a105.4 105.4 0 0115.4 36.2c2.2 8.8.9 18 1.5 27 .9 14.5-6 27.6-11.7 40.5-4.5 10.4-13.5 17.4-21.7 25.5-2.3 2-5.6 2.6-7.5 5-.8.4-1.3 1-2 1.4-5 2.4-10.6 3.4-15.5 5.6-2 1-4 2.8-6 3.2a82.9 82.9 0 00-24.1 7.3 9.3 9.3 0 00-3.4 2.8l-1.3-1" transform="matrix(.02083 0 0 .01944 0 1.2)" fill="#406325" stroke-width=".2" stroke="#24420e"/><path d="M553.7 334.6c2.6-7.5 0-24.8-1.5-27-6.8 15.3-3.4 27.6 1.5 27zm0 0" transform="matrix(.02083 0 0 .01944 0 1.2)" fill="#406325" stroke-width=".2" stroke="#24420e"/><path d="M546.6 341.6c2.2-5.6.5-19.3-.4-21-5.6 11.7-3.4 21.4.4 21zm16.6-74.1a45.3 45.3 0 00-19-14.5c6.1 13.2 16.4 18 19 14.5zm0 0" transform="matrix(.02083 0 0 .01944 0 1.2)" fill="#406325" stroke-width=".2" stroke="#24420e"/><path d="M561.7 259.4a42.9 42.9 0 00-14.4-16.7c3 13.1 11.4 19.3 14.4 16.7zm4.7 15a37 37 0 00-16.8-7.7c6.9 9 15.5 11 16.8 7.8zm-2.8 46.5c7.3-.2 14.3-2.2 20.5-5.8-13-2.8-21.6 2-20.5 5.8zm0-5.8c0-5.7-6.4-16.7-8-18-.6 12 4.8 19.6 8 18zm0 0" transform="matrix(.02083 0 0 .01944 0 1.2)" fill="#406325" stroke-width=".2" stroke="#24420e"/><path d="M564 301.4c-1.3-8.6-5-16.9-10.7-23.5-.7 16 6.4 25.7 10.7 23.5zm-53 75.3a51.5 51.5 0 0022.2 11c-8.8-12.4-20-15.2-22-11zm0 0" transform="matrix(.02083 0 0 .01944 0 1.2)" fill="#406325" stroke-width=".2" stroke="#24420e"/><path d="M553.7 334.4c-5 .6-8.3-11.5-1.5-26.8-.6 14.3.2 25.7 1.5 26.8zM500.2 378c8.1 1.9 15.6 5.7 21.8 11.5-15 0-24-7.4-21.8-11.5zm0-8c2-8 15-21.3 17.5-22-3.6 17-13.7 25.4-17.5 22zm21.2-4.2c-.9-7.8 5.7-24.1 7.5-26 3 16.5-3 27.6-7.5 26zm21.4-14.5a47.8 47.8 0 0121.8-11.2c-8.9 12-20 15-21.8 11.2zm25.9-53.2c1-6.4 9.7-18 11.6-19-1.1 13.6-8.2 21-11.6 19zm0 0" transform="matrix(.02083 0 0 .01944 0 1.2)" fill="#67923d" stroke-width=".2" stroke="#24420e"/><path d="M557 336.2c7.6-3.9 16-5.7 24.4-5.5-11.8 9.7-23.6 9.9-24.3 5.5zm10.4-24.5a42 42 0 0117.6-14.3c-5.8 12.8-15.4 17.7-17.6 14.3zm-1.5-45.7c0-7.6 7.8-22.7 10-24 1 16-5.7 26-10 24zm-7.2-25.9a40.5 40.5 0 010-20c5.7 11 3.8 20.2 0 20zm-4-2.2a49.7 49.7 0 01-10.6-22c11.8 9.4 14.5 20.4 10.5 22zm0 0" transform="matrix(.02083 0 0 .01944 0 1.2)" fill="#67923d" stroke-width=".2" stroke="#24420e"/><path d="M566.2 272.5c-.1 1 3-7.7 14.3-15.3-4 14.3-11 18.3-14.3 15.3zm-34 90a61.7 61.7 0 0129.2-6.9c-14.3 11.9-28.2 12.1-29.3 6.9zm14.4-21c-3.8.3-6-9.2-.6-20.8-.8 10.8-.4 19.9.6 20.9zm16.8-73.8c-2.8 3.4-13-1.5-19.3-14.7a77.9 77.9 0 0019.3 14.5zm-1.7-8.3c-3.1 2.6-11.4-3.6-14.4-16.7 6.8 9.5 13 16.5 14.4 16.7zm4.7 15c-1.3 3.3-9.7 1.5-16.8-7.5 10.5 5.8 14.6 8.4 17 7.6zm-2.6 46.3c-1.1-3.6 7.3-8.2 20.3-5.4-7 .8-13.7 2.6-20.3 5.4zm-.4-5.6c-3.2 1.6-8.4-5.9-7.8-18a69.7 69.7 0 007.8 18.2zm0 0" transform="matrix(.02083 0 0 .01944 0 1.2)" fill="#67923d" stroke-width=".2" stroke="#24420e"/><path d="M563.8 301.6c-4.1 2.2-11.2-7.4-10.5-23.5 4.5 12.9 9 22.9 10.5 23.5zm-52.7 75c2-4 13.1-1.3 22.1 11a82.7 82.7 0 00-22-11zm0 0" transform="matrix(.02083 0 0 .01944 0 1.2)" fill="#67923d" stroke-width=".2" stroke="#24420e"/><path d="M521.4 365.9c4.7 1.6 10.5-9.5 7.7-26-2.8 14-6.2 25.2-7.7 26zm0 0" transform="matrix(.02083 0 0 .01944 0 1.2)" fill="#406325" stroke-width=".2" stroke="#24420e"/><path d="M531.7 360.7a56.1 56.1 0 004.7-27.2c-10 13.7-9.3 26.4-4.7 27.2zm-31.6 17.2c-2 4.3 6.7 11.7 21.7 11.5a91.4 91.4 0 01-21.7-11.5zm.1-8c4 3.4 14-4.8 17.5-22-8 12.4-15.8 21.8-17.5 22zm42.8-18.7c1.9 4 12.7 1 21.7-11-6.7 4.8-14 8.4-21.7 11zm25.9-53.2c3.2 2.2 10.3-5.2 11.4-18.9A73.3 73.3 0 01569 298zM557 336.2c.7 4.4 12.3 4.2 24.1-5.5-12.3 4-22.8 6.3-24.1 5.5zm10.3-24.5c2.4 3.4 11.8-1.5 17.6-14.5-5 5.6-11 10.4-17.6 14.4zM566 266c4.3 2 10.8-8 9.9-24-4.1 13-8.4 23.2-10 24zm-7.2-25.9c3.8 0 5.7-9 0-20 1 10.6 1 19 0 20zm-4-2.2c3.8-1.8 1.2-12.6-10.6-22 4.7 6.8 8 14.2 10.5 22zm11.5 34.8c3.2 3 10.2-1 14.3-15.5-7.9 10-12.8 15.3-14.3 15.5zm-34 89.8c1 5.2 15 5 29-6.7-14.8 4.9-27.4 7.7-29 6.7zm0 0" transform="matrix(.02083 0 0 .01944 0 1.2)" fill="#406325" stroke-width=".2" stroke="#24420e"/><path d="M539 354.8c3-6.4 4.2-13.2 3.6-20-7.5 10-7.1 19.4-3.5 19.8zm19.7-28.7c3-7.2 4-15.3 3-23-8.4 12-7.3 22.6-3 23zm0 0" transform="matrix(.02083 0 0 .01944 0 1.2)" fill="#406325" stroke-width=".2" stroke="#24420e"/><path d="M531.7 360.5c-4.6-.6-5.2-13.3 4.5-26.8-3.5 13.7-5.4 25.4-4.5 26.8zm35.3-68.3c-1-7.7 4-20.1 6.6-22.5 2.6 14.4-2.7 24-6.8 22.5zm-28 62.4c-3.7-.4-3.9-9.8 3.4-19.8a65 65 0 00-3.3 19.8zm23.3-104c-2-6 0-20.1 1.3-22 5.3 12.3 2.6 22.2-1.3 22zm-58 120a60.3 60.3 0 0118.8-22c-4.3 17.5-15 25.5-18.7 22.1zm54.4-41.7c4.4-6.6 10.2-12 17.1-15.6-5 13.4-14.2 19-17 15.6zm0-3c-4.3-.4-5.4-10.8 3-22.9a73.3 73.3 0 00-3 23zm0 0" transform="matrix(.02083 0 0 .01944 0 1.2)" fill="#67923d" stroke-width=".2" stroke="#24420e"/><path d="M567 294c5.2 2 9-9.9 6.6-24a99.7 99.7 0 01-6.6 24.2zm0 0" transform="matrix(.02083 0 0 .01944 0 1.2)" fill="#406325" stroke-width=".2" stroke="#24420e"/><path d="M567.7 293.6c.6-7.5-6.9-23-9-24.7-1.8 15.8 4.5 26.3 9 24.7zm-5-43.2c3.7.4 6.4-9.5 1-21.7.7 7.2.3 14.6-1.2 21.7zm-58.1 120.1c3.7 3.6 14.2-4.4 18.5-21.9-8.8 12.5-16.9 21.7-18.5 22zM559 329c2.8 3.4 12-2 17-15.6a76.7 76.7 0 01-17 15.6zm0 0" transform="matrix(.02083 0 0 .01944 0 1.2)" fill="#406325" stroke-width=".2" stroke="#24420e"/><path d="M567.7 293.6c-4.5 1.6-10.8-8.9-9-24.5 3.6 13 7.5 23.7 9 24.5zm0 0" transform="matrix(.02083 0 0 .01944 0 1.2)" fill="#67923d" stroke-width=".2" stroke="#24420e"/><path d="M565.7 255c0 .6-.6 1-1.1 1-.6 0-1.2-.4-1.2-1 0-.8.6-1.2 1.2-1.2.5 0 1 .4 1 1.2zm3.7 11.9c0 .6-.3 1-1 1s-1-.4-1-1c0-.7.3-1.3 1-1.3s1 .6 1 1.3zm1.7 37.3c0 .8-.5 1.4-1.3 1.4s-1.3-.6-1.3-1.4c0-.6.6-1.2 1.3-1.2s1.3.6 1.3 1.2zm-5.2-6.8c0 .6-.6 1.2-1.3 1.2s-1.4-.6-1.4-1.2c0-.8.6-1.4 1.4-1.4s1.3.6 1.3 1.4zm-14.7 39.8c0 .8-.5 1.4-1.3 1.4s-1.3-.6-1.3-1.4c0-.6.6-1.2 1.3-1.2s1.3.6 1.3 1.2zm6.2 2.8c0 .6-.5 1.2-1.3 1.2-.5 0-1.3-.6-1.3-1.2 0-.8.8-1.4 1.3-1.4.8 0 1.3.6 1.3 1.4zm-42.3 32.3c0 .6-.6 1.2-1.4 1.2s-1.3-.6-1.3-1.2c0-.8.6-1.4 1.3-1.4s1.4.6 1.4 1.4zm-7 5c0 .6-.5 1.2-1.3 1.2s-1.3-.6-1.3-1.2c0-.8.6-1.4 1.3-1.4s1.3.6 1.3 1.4zm50-128c0 .7-.5 1-1 1-.8 0-1.2-.3-1.2-1 0-.5.4-1.1 1.2-1.1.5 0 1 .6 1 1.2zm0 0" transform="matrix(.02083 0 0 .01944 0 1.2)" fill="#ba1f3e" stroke-width=".2" stroke="#511124"/><path d="M434.2 336.4c-.1 1 1 2.2 2.1 2 .6 0 .8-.6.2-.6-.4.2-1 0-1.1-.2-.6-.6-.8-1.4-.6-2zm0 0" transform="matrix(.02083 0 0 .01944 0 1.2)" fill="#8c959d" stroke-width=".1" stroke="#485654"/><path d="M9.1 7.7zm0 0" fill="#8c959d"/><path d="M9.1 7.7zm0 0a.1.1 0 01-.1 0h.1zm0 0" fill="#485654"/><path d="M515.2 249.4l-40 39.3L434 328l-4.7 5.4c-2 2.5-4.3 5.5-7.2 8-.3.7-1 .5-1.6.9a26.5 26.5 0 00-5.1 4.2l-12.4 13.7c-.5.8-1 1.4-.4 2l6.6 8.6c1.3 1.2 2.6 1.8 3.4.8 3-5.4 10.9-13.6 13.9-20.3 1.6-4 3.9-11 5.6-12.6l11.6-12.9 1.1-1 1-1c23.4-23.9 50.6-53 70.5-73.5l-1.2-1zm0 0" transform="matrix(.02083 0 0 .01944 0 1.2)" fill="#6c301e" stroke-width=".2" stroke-linejoin="round" stroke="#351710"/><path d="M431.8 328.1c-1.1 0-1.9-.8-2.8-1.4 1.1.4 2.4.8 3.6.4zm0 0" transform="matrix(.02083 0 0 .01944 0 1.2)" fill="#8c959d" stroke-width=".1" stroke="#485654"/><path d="M557 220l-31.8 26.4c-.4.4-.6.2-1 0l-2.8-2.4v-.7l1.3-1.4c.2-.2 0-.4 0-.6l-.5-.6c-.4-.2-.6 0-.8.2l-1.5 1.4c-.5 0-1.3.6-1.3 1.4-19.3 18.7-35.8 35.4-55 53.9l-22.4 21.7c-1 1-4.3 2.8-6.8 4.2-.5.4-1.3 1-1.7 1.6l-1.8 5.4-2.5 4.3 3.8 3.8 11.2-12 .8-1c-.4-.5-1-1-1.3-1.7a5.7 5.7 0 01-1.3-1l-.6-.4c-.2-.2.2-.6.4-.8 26.4-25.5 55-53.6 78.3-76.5h1l2.8 3.2c.6.6 1.1.6 1.7.4zm0 0" transform="matrix(.02083 0 0 .01944 0 1.2)" fill="#b2b6ba" stroke-width=".2" stroke="#485654"/><path d="M9 7.6v-.1zm0 0" fill="#485654"/><path d="M438.7 328.1c0 .4-.1.6-.5.6s-.6-.2-.6-.6c0-.4.2-.6.6-.6.4 0 .5.2.5.6zM435 332c0 .2-.2.6-.6.6-.3 0-.5-.4-.5-.6 0-.4.2-.6.5-.6.4 0 .6.2.6.6zm0 0" transform="matrix(.02083 0 0 .01944 0 1.2)" fill="none" stroke-width=".2" stroke="#485654"/><path d="M9.2 7.4zm0 0" fill="#485654"/><path d="M502.1 259l3.6 3.4.5-.6-3.3-3.4zm0 0" transform="matrix(.02083 0 0 .01944 0 1.2)" fill="#8c959d" stroke-width=".1" stroke="#485654"/><path d="M434 365.5c-9.7-2.4-19.8-2-29.4.8 16.3 8 29.6 4.6 29.3-1zm89 3.2c9.7-2.2 19.8-2 29.2 1-16.3 7.8-29.6 4.4-29.3-1zm0 0" transform="matrix(.02083 0 0 .01944 0 1.2)" fill="#67923d" stroke-width=".2" stroke="#24420e"/><path d="M433.9 365.5c.2 5.4-13 8.8-29.3 1 15.4 1 28 .4 29-1zm89.2 3.2c-.4 5.6 12.8 9 29 1-15.3 1-27.7.4-29-1zm0 0" transform="matrix(.02083 0 0 .01944 0 1.2)" fill="#406325" stroke-width=".2" stroke="#24420e"/><path d="M508.5 360c-20-27.9-46.1-51.2-76.1-68 3.5-.2 11.4 4 14.8 6 23.8 15.5 44.2 35.7 65.4 59.9-1 1-2 2-3.4 3zm0 0" transform="matrix(.02083 0 0 .01944 0 1.2)" fill="#b2b6ba" stroke-width=".2" stroke="#485654"/><path d="M10.6 8.2A5.6 5.6 0 009 6.8c.6.3 1.2.9 1.6 1.4zm0 0" fill="#8c959d"/><path d="M10.6 8.2a6.6 6.6 0 00-.3-.4 5.6 5.6 0 00-1-.8L9 6.8a3.4 3.4 0 01.9.6l.4.4.3.4zm0 0c0-.2-.2-.3-.3-.4a6.7 6.7 0 00-.4-.4 4.2 4.2 0 00-.4-.3 3 3 0 00-.5-.3l.5.3a5.6 5.6 0 01.8.7l.3.4zm0 0" fill="#485654"/><path d="M517.5 355a15.6 15.6 0 00-5.3 2.3c-.1 1.4-2 3-3.5 3.4l-.6-.8c0-.2 0-.2-.2-.2v.2l-.5.2c-.8 0-1.3.2-1.7 1-.4 1 .4 2.4 1.1 3.2 1.1.6 1.5 1 2.4 1 1.2-.4 1.7-1.4 2.1-1.6 3.8 4.4 6.6 6.8 11.3 10.4 2 0 3.1-1.2 2.4-2.8-.2-.4-.8-.8-1.3-.6v-.4c2.4-2.2 3.5-5 1-9.8-2.3-4-4.8-5.5-7-5.5zm6.4 4.7l1 2c1.4 3 .1 6.4-2.5 7.6h-.2c.4-.6-.8-2-1.3-1.6.2-.6-.8-2-1.5-1.6.3-.8-.6-2-1.5-1.6.3-.6-.2-1.8-1.3-1.6.3-.8-.4-1.8-1.4-1.6 0-.8-.1-1.2-.3-1.4 1-.8 2.2-2.2 3.3-2.8 2.7-1.3 4.4 1 5.5 2.6zm0 0" transform="matrix(.02083 0 0 .01944 0 1.2)" fill="#fab81c" stroke-width=".2" stroke="#6c301e"/><path d="M524.8 362.9c-.4-.4-.7-.8-.6-1.2.2-.4.8-.4 1.4-.2.3.2.7.8.5 1-.2.4-.7.6-1.3.4zm0 0" transform="matrix(.02083 0 0 .01944 0 1.2)" fill="#fab81c" stroke-width=".1" stroke="#6c301e"/><path d="M524.6 361.9c-.5-.4-.7-.8-.5-1.2.1-.4.5-.4 1-.2.6.2.8.8.6 1 0 .4-.5.6-1 .4zm0 0" transform="matrix(.02083 0 0 .01944 0 1.2)" fill="#fab81c" stroke-width=".1" stroke="#6c301e"/><path d="M524 360.7c-.5-.2-.9-.8-.7-1 .4-.4.8-.6 1.3-.4.6.4.8.8.6 1.2 0 .4-.8.4-1.1.2zm0 0" transform="matrix(.02083 0 0 .01944 0 1.2)" fill="#fab81c" stroke-width=".1" stroke="#6c301e"/><path d="M523.1 359.7c-.4-.4-.7-.8-.5-1.2.1-.2.7-.4 1.3-.2.3.4.7.8.5 1.2-.2.2-.7.4-1.3.2zm0 0" transform="matrix(.02083 0 0 .01944 0 1.2)" fill="#fab81c" stroke-width=".1" stroke="#6c301e"/><path d="M522.2 358.7c-.6-.2-.8-.8-.6-1v-.2c.2 0 .8.2.6-.2v-.2l.5.2c.6.4 1 .8.6 1.2-.2.4-.6.4-1.1.2zm0 0" transform="matrix(.02083 0 0 .01944 0 1.2)" fill="#fab81c" stroke-width=".1" stroke="#6c301e"/><path d="M10.7 8.299999999999999h.1m0 .1h.1" fill="#fab81c"/><path d="M10.7 8.2zm0 0zm0 0zm0 .1zm0 0h.1zm0 0h.1zm.1 0zm0 .1h.1zm0 0" fill="#6c301e"/><path d="M409.1 240c8-4.3 14.6-10.3 19.5-18-15.5 4.3-22.7 14.5-19.5 18.1zm145.9 4.8a49.2 49.2 0 00-15.6-20c2.8 15.1 12 22.8 15.6 20zm0 0" transform="matrix(.02083 0 0 .01944 0 1.2)" fill="#406325" stroke-width=".2" stroke="#24420e"/><path d="M409.1 240c-3.2-3.5 4-13.5 19.5-17.7-11 8.4-19.3 16-19.5 17.6zm145.9 4.8c-3.8 3-12.8-4.7-15.6-19.7 7.3 10.8 14.1 19.5 15.6 19.7zm0 0" transform="matrix(.02083 0 0 .01944 0 1.2)" fill="#67923d" stroke-width=".2" stroke="#24420e"/><path d="M452.2 318s-6.1.9-7.8-7.8c-1.9-9 5.2-9.8 5.2-9.8s8-1 13.1-1l2.3 17.9zm0 0" transform="matrix(.02083 0 0 .01944 0 1.2)" fill="url(#a)" stroke-width=".2" stroke="#999270"/><path d="M453 315.5s-4 .6-4.9-5.7c-.5-4.6 2.3-5.2 2.3-5.2l9.2 1.6v8.3zm0 0" transform="matrix(.02083 0 0 .01944 0 1.2)" fill="url(#b)" stroke-width=".2" stroke="#999270"/><path d="M450.4 304.6s6-.4 9-.8l1.3 5.8-7.1.4s-.4-5.2-3.2-5.4zm0 0" transform="matrix(.02083 0 0 .01944 0 1.2)" fill="url(#c)" stroke-width=".2" stroke="#999270"/><path d="M449.2 300.4s7.5-1.8 8.5 6.4c.2 2.2-1 7.3-4.7 8.7l13.9-1.6-1.3-15-4.5.5s-10.2.2-11.9 1zm0 0" transform="matrix(.02083 0 0 .01944 0 1.2)" fill="url(#d)" stroke-width=".2" stroke="#999270"/><path d="M452.2 318s52-3.3 57.2-3.1c15.8-8.7 0-42.6-13.3-61.5 1.5-4.4-30-14-44-13l-5.3.1c-7.7.8-7.7 10.9-4.7 17.1 3 6 30.4 55 11.3 60.3zm0 0" transform="matrix(.02083 0 0 .01944 0 1.2)" fill="#f9f0aa" stroke-width=".2" stroke="#999270"/><path d="M507.7 273.3c-3.3-7-7.3-13.7-11.6-20 1.5-4.3-30-14-44-13l-5.3.2c-7.7.8-7.7 10.9-4.7 17.1 1.1 1.8 4.3 8 8 15.7" transform="matrix(.02083 0 0 .01944 0 1.2)" fill="url(#e)" stroke-width=".2" stroke="#999270"/><path d="M455 285c5.7 14.6 8.7 30-1.6 32.9l-1.2.2s52-3.4 57.2-3.2c8.7-4.9 7.7-17 3.2-30.2" transform="matrix(.02083 0 0 .01944 0 1.2)" fill="url(#f)" stroke-width=".2" stroke="#999270"/><path d="M447.4 243.5c-3.8 0-4.7 3.7-4.5 5.9 0 5.8 4.5 6 4.5 6l6-.2 2.8-12.3zm0 0" transform="matrix(.02083 0 0 .01944 0 1.2)" fill="url(#g)" stroke-width=".2" stroke="#999270"/><path d="M447.4 243.5l8.8-.6 1 9.3-7.8.4s2.5-7.4-2-9zm0 0" transform="matrix(.02083 0 0 .01944 0 1.2)" fill="url(#h)" stroke-width=".2" stroke="#999270"/><path d="M496.1 253.4c6.8-1 6.6-10 2-13.9-15.5-.4-36 0-50.5 1 1.6 0 6.1.4 6.7 6.7.4 2.6-.7 5.2-3 7-1.9 1.2-4 1.2-4 1.2h3.6l3-.2c21-2.8 42-1.8 42-1.8zm0 0" transform="matrix(.02083 0 0 .01944 0 1.2)" fill="url(#i)" stroke-width=".2" stroke="#999270"/><path d="M9.6 6.4zm0 0h.1zm.1 0zm0 0h.1zm0 0h.1zm.2 0h-.1zm0 0h.1zm0 0zm.2 0H10h.1zm0 0c.1 0 .1 0 0 0 0-.1 0 0 0 0h.2zm.1 0zm0 0a.2.2 0 01.1 0zm.1 0zm-.4.2h-.1zm0 0zm.1 0h.1zm0 0h.1zm.2 0zm-.6.2h.1zm.2 0h-.1zm0 0zm0 0zm.2 0h-.1.1zm0 0zm.1 0zm0 0h.2-.1zm.3 0zm0 0zm0 0zm0 0h.1zm0 0zm.2 0zM10 7h.1zm0 0h.1zm.2 0zm.1 0zm.1 0zm0 0zm0 0zm.1 0zm.1 0zm0 0" fill="#b07e09"/><path d="M475.9 219.4l-4 4.7c-1 5.2 2 9 7.7 12.4 4.7 3 13.5 3.8 16.3 1.4l-13.7-13zm0 0" transform="matrix(.02083 0 0 .01944 0 1.2)" fill="url(#j)" stroke-width=".2" stroke="#4c0505"/><path d="M503.6 354.2l-2-2.4a99.9 99.9 0 01-32.7 28.6c15-4.3 25-15.1 34.7-26.2zM488.1 390c5.6-11 11.6-21.7 18.1-32.3a25 25 0 01-2-2.7c-7.3 12.3-16.1 26.8-16.1 35zm42-114.5c-1-4.4-2.5-8.8-4.4-13a127 127 0 00-43.8-44v-.3h.3l-.1-.2h.3l-.2-.2h.4l-.2-.4h.4l-.4-.4h.6l-.4-.4h.6l-.6-.2.8-.2-.6-.2.6-.2-.6-.2.8-.2-.6-.4.6-.2-.6-.4.7-.2-.7-.4.6-.4h-.8l.6-.6h-.8l.2-.6h-.6l.4-.4h-.7l.3-.6-.5.4.2-.6-.8.4v-.8l-.4.6v-.8l-.5.6v-.8l-.6.6v-.6l-.4.6-.1-.6-.2.4-.2-.6-.4.8-.2-.8-.4.8-.1-.6-.2.4v-.4l-.4.6-.2-.6-.2.8-.4-.8-.1.8-.2-.6v.8l-.6-.6v.8l-.4-.6v.6l-.3-.2.1.6-.5-.2.2.6-.4-.2.2.6h-.6l.2.4h-.2l.2.4c-.4 1.2-.6 2.2-.4 3.4 0 .2.6.4.8.6l.2.6c-1.7 2.6-3 4.7-3.2 7.7 1.1-1.6 2.6-3.6 4.5-3.6-1 1.6-1.3 6.2-.4 7l.8-1.4c0 1 .1 1.8.3 2.2l1.2-1.6c0 1.4.1 2.6.5 3.2a6 6 0 011.5-1.6c-.2 1-.4 1.8-.4 2.8l2.1-2.6c-.4 1.6 0 2.8.4 4.4.4-1.8.5-2.2 1.5-3 .2 1.8-.2 3.6.2 4.6.7-1.6 1.5-1.4 2-2.6-.2 1.6-.5 3.4 0 4.8.2-1 1-2 2-2.6 0 2.2.5 1.8-.8 3.6.5.2 2.4-.4 3.5-.8-.5 1.2-.4 2-1 3 1-.6 2.1-1.6 3-2.4-.5 1.4-1.4 2.8-1 4 .3-1.2 1.3-2.2 2.2-2.4-.2.6-.2 2.2-1.1 2.8 2.2.2 3.4-1.4 4.5-2.6 0 1.4 0 2.4 1.7 4.3-.4-2.5.2-1.9 1.3-3.3.5 2 1.1 4.5 3.4 6-1.2-2.3-1.2-3.5-.8-5 .4 1.7 1.9 3.5 2 4.9.4-1.6.6-3.2 1-4.3a21 21 0 011.5 5.7c.6-1 1-2 1.1-3 19.7 20.5 24.2 46.8 2.7 74.5 7.6-5.2 9.5-13.7 13.8-20.7-4 9.2-6 19.7-13.5 27.3 7.3-6 8.8-11.8 13.2-17.9-4.5 12.7-11.1 26.4-20 38.8 1.8 1.8 3.3 3.6 5 5.2l3.9-6.8c9.4-15.5 24.7-37.6 17-71.1zm0 0" transform="matrix(.02083 0 0 .01944 0 1.2)" fill="#448127" stroke-width=".2" stroke="#34541f"/><path d="M473.2 215.2c-1 .2-1.5.6-2 1.4a9 9 0 002.4.4c.2 0 .2-.4.2-.6l-.2-1c0-.2-.5-.2-.7 0zm0 0" transform="matrix(.02083 0 0 .01944 0 1.2)" fill="#eac102" stroke-width=".2" stroke="#a08307"/><path d="M9.8 5.4zm0 0" fill="#a08307"/><path d="M478.5 215.4c0 .4-.4.8-.8.8-.5 0-.9-.4-.9-.8s.4-.8 1-.8c.3 0 .7.4.7.8zm0 0" transform="matrix(.02083 0 0 .01944 0 1.2)" stroke-width=".1" stroke="#000"/><path d="M10 5.4zm0 0" fill="url(#k)"/><path d="M10.2 8.7a2 2 0 010-.1l.1-.2.1-.2.1-.1a1 1 0 000 .2l-.2.1a3.3 3.3 0 00-.1.3zm-.4-.1l.2-.1a1.2 1.2 0 00.2-.2 2 2 0 00.2-.2l-.2.2-.2.2h-.1-.1zm.8-.6v-.1l.1-.2.1-.1v-.1.2l-.2.2zm0-.5a1.3 1.3 0 00.3-.3 1.5 1.5 0 000-.3 1 1 0 000-.3.7.7 0 000-.1.7.7 0 000-.2v.2a1 1 0 010 .3v.4a2.6 2.6 0 01-.1.2 1 1 0 01-.1.1zm0 0" fill="#34541f"/><path d="M10.6 7.4a.9.9 0 00.2-.3l.1-.2a.6.6 0 000-.2 1 1 0 000-.3v-.1.1a1 1 0 010 .3v.4a.7.7 0 01-.2.2zm0 0" fill="#34541f"/><path d="M10.5 8l.1-.1v-.1l.1-.1v-.1l.2-.3A2.3 2.3 0 0011 7v-.3a1.3 1.3 0 000-.2 1.2 1.2 0 00-.2-.2l.1.2a1 1 0 01.1.5 1.6 1.6 0 010 .2l-.1.2a2.3 2.3 0 01-.1.3 1.5 1.5 0 01-.2.2V8zm0 0" fill="#34541f"/><path d="M10.6 8l.1-.2.2-.2A1.7 1.7 0 0011 7v-.3-.3.6a1.5 1.5 0 010 .2 1.4 1.4 0 01-.1.3 7.2 7.2 0 01-.3.4zM10 5.5a.3.3 0 01.1 0h.1a.6.6 0 01.1.1v.1a.5.5 0 000-.2.5.5 0 00-.2 0 .4.4 0 00-.1 0zm0 0" fill="#34541f"/><path d="M10.3 5.7h0" fill="#448127"/><path d="M10.3 5.7h.1a.4.4 0 01-.1 0 .2.2 0 00.1 0zm0 0" fill="#34541f"/><path d="M10.2 5.7h.1" fill="#448127"/><path d="M10.2 5.7a.3.3 0 00.2 0h-.1-.1zm0 0" fill="#34541f"/><path d="M10.3 5.6h-.1" fill="#448127"/><path d="M10.3 5.6v.1h-.1.2a.1.1 0 00-.1 0zm0 0" fill="#34541f"/><path d="M10.1 5.7h.2" fill="#448127"/><path d="M10.1 5.7h.1zm0 0" fill="#34541f"/><path d="M10.1 5.7h0" fill="#448127"/><path d="M10.1 5.7h.1zm0 0" fill="#34541f"/><path d="M10.1 5.6l.2.1H10" fill="#448127"/><path d="M10.1 5.6h.1v.1a.2.2 0 000-.1zm0 0" fill="#34541f"/><path d="M445 370.3a42 42 0 01-20.3 4.8c10-8.2 19.7-8.4 20.2-4.8zm69.9 4.4c5 4.9 21 8 23.4 7.5-10.7-10.7-22.1-11.9-23.4-7.5zm0 0" transform="matrix(.02083 0 0 .01944 0 1.2)" fill="#406325" stroke-width=".2" stroke="#24420e"/><path d="M445 370.3c-.6-3.6-10.6-3.4-20.3 4.8a69.6 69.6 0 0120.2-4.8zm69.9 4.4c1.5-4.4 12.7-3.4 23.4 7.5-7.3-3.7-15.4-6-23.4-7.5zm0 0" transform="matrix(.02083 0 0 .01944 0 1.2)" fill="#67923d" stroke-width=".2" stroke="#24420e"/></svg>