<svg xmlns="http://www.w3.org/2000/svg" width="20" height="14"><path d="M0 0h6.9v14H0zm0 0" fill="#ce1126"/><path d="M6.9 0H20v7H6.9zm0 0" fill="#fcd116"/><path d="M6.9 7H20v7H6.9zm0 0" fill="#009e49"/><path d="M3.4 4.7l-.7 2.2 1.2.3"/><path d="M3.4 4.7l.8 2.2-1.2.3"/><path d="M5.8 6.3H3.3v1.1"/><path d="M5.8 6.3l-2 1.4-.7-1"/><path d="M5 8.9L4 6.7 3 7"/><path d="M5 8.9L2.8 7.5l.7-1"/><path d="M2 8.9l2-1.4-.7-1"/><path d="M2 8.9l.7-2.2L4 7"/><path d="M1 6.3l2 1.4.8-1"/><path d="M1 6.3h2.6v1.1"/></svg>