<svg xmlns="http://www.w3.org/2000/svg" width="20" height="14"><path fill="#0073cf" d="M0 0h20v14H0z"/><path d="M0 4.7h20v4.6H0zm0 0" fill="#fff"/><path d="M9.8 7h.4l-.2-.8zm0 0" fill="#0073cf"/><path d="M10.3 7h-.5l.2-.8zm0 0" fill="#0073cf"/><path d="M10 6.8v.4l.8-.4zm0 0" fill="#0073cf"/><path d="M10 7.2L10 7l.9-.1zm0 0M10 7.2L10 7l-.9-.1zm0 0" fill="#0073cf"/><path d="M10 6.8v.4l-.8-.4zm0 0" fill="#0073cf"/><path d="M10.2 6.9l-.4.1.7.6zm0 0" fill="#0073cf"/><path d="M9.8 7.1l.3-.3.4.8zm0 0" fill="#0073cf"/><path d="M10.2 7.1l-.3-.3-.4.8zm0 0" fill="#0073cf"/><path d="M9.8 6.9l.4.1-.7.6zm4.1-1.1h.4l-.1-.8zm0 0" fill="#0073cf"/><path d="M14.4 5.8H14l.2-.8zm0 0" fill="#0073cf"/><path d="M14 5.5l.1.4.9-.4zm0 0" fill="#0073cf"/><path d="M14.2 6l-.2-.4h1zm0 0" fill="#0073cf"/><path d="M14 6l.3-.4h-1zm0 0" fill="#0073cf"/><path d="M14.2 5.5V6l-.8-.4zm0 0" fill="#0073cf"/><path d="M14.4 5.6l-.4.2.7.6zm0 0" fill="#0073cf"/><path d="M14 5.9l.2-.3.5.8zm0 0" fill="#0073cf"/><path d="M14.4 5.9l-.3-.3-.4.8zm0 0" fill="#0073cf"/><path d="M14 5.6l.3.2-.6.6zm0 2.5h.3l-.1-.8zm0 0" fill="#0073cf"/><path d="M14.4 8l-.4.2.2-.9zm0 0" fill="#0073cf"/><path d="M14 7.9l.1.4.9-.5zm0 0" fill="#0073cf"/><path d="M14.2 8.3L14 8l1-.2zm0 0" fill="#0073cf"/><path d="M14 8.3l.3-.3-1-.2zm0 0" fill="#0073cf"/><path d="M14.2 7.9v.4l-.8-.5zm0 0" fill="#0073cf"/><path d="M14.4 8L14 8l.7.6zm0 0" fill="#0073cf"/><path d="M14 8.2l.2-.3.5.8zm0 0" fill="#0073cf"/><path d="M14.4 8.2L14 8l-.4.8zm0 0" fill="#0073cf"/><path d="M14 8l.3.1-.6.6zM5.6 5.8H6L5.8 5zm0 0" fill="#0073cf"/><path d="M6 5.8h-.3l.1-.8zm0 0" fill="#0073cf"/><path d="M5.8 5.5V6l.8-.4zm0 0" fill="#0073cf"/><path d="M6 6l-.3-.4h1zm0 0" fill="#0073cf"/><path d="M5.8 6l.2-.4H5zm0 0" fill="#0073cf"/><path d="M6 5.5l-.1.4-.9-.4zm0 0" fill="#0073cf"/><path d="M6 5.6l-.3.2.6.6zm0 0" fill="#0073cf"/><path d="M5.6 5.9l.3-.3.4.8zm0 0" fill="#0073cf"/><path d="M6 5.9l-.2-.3-.5.8zm0 0" fill="#0073cf"/><path d="M5.6 5.6l.4.2-.7.6zm0 2.5H6l-.2-.8zm0 0" fill="#0073cf"/><path d="M6 8l-.3.2.1-.9zm0 0" fill="#0073cf"/><path d="M5.8 7.9v.4l.8-.5zm0 0" fill="#0073cf"/><path d="M6 8.3L5.6 8l1-.2zm0 0" fill="#0073cf"/><path d="M5.8 8.3L6 8l-1-.2zm0 0" fill="#0073cf"/><path d="M6 7.9l-.1.4-.9-.5zm0 0" fill="#0073cf"/><path d="M6 8l-.3.1.6.6zm0 0" fill="#0073cf"/><path d="M5.6 8.2L6 8l.4.8zm0 0" fill="#0073cf"/><path d="M6 8.2L5.8 8l-.5.8zm0 0" fill="#0073cf"/><path d="M5.6 8L6 8l-.7.6zm0 0" fill="#0073cf"/></svg>