<svg width="21" height="15" xmlns="http://www.w3.org/2000/svg"><defs><linearGradient x1="50%" y1="0%" x2="50%" y2="100%" id="a"><stop stop-color="#FFF" offset="0%"/><stop stop-color="#F0F0F0" offset="100%"/></linearGradient><linearGradient x1="50%" y1="0%" x2="50%" y2="100%" id="b"><stop stop-color="#1DBE4F" offset="0%"/><stop stop-color="#159B3F" offset="100%"/></linearGradient><linearGradient x1="50%" y1="0%" x2="50%" y2="100%" id="c"><stop stop-color="#262626" offset="0%"/><stop stop-color="#0D0D0D" offset="100%"/></linearGradient><linearGradient x1="50%" y1="0%" x2="50%" y2="100%" id="d"><stop stop-color="#FFD646" offset="0%"/><stop stop-color="#FED02F" offset="100%"/></linearGradient></defs><g fill="none" fill-rule="evenodd"><path fill="url(#a)" d="M0 0h21v15H0z"/><path fill="url(#b)" d="M0-.003h21v15H0z"/><path fill="url(#c)" d="M0-.003l9 7.5-9 7.5z"/><path fill="url(#c)" transform="matrix(-1 0 0 1 33 0)" d="M12-.003l9 7.5-9 7.5z"/><path d="M10.5 6.291L-.962-1.44-2.08.218l10.792 7.28-10.792 7.279 1.118 1.658L10.5 8.704l11.462 7.73 1.118-1.657-10.791-7.28L23.08.218 21.962-1.44 10.5 6.291z" fill="url(#d)"/></g></svg>