<svg xmlns="http://www.w3.org/2000/svg" width="20" height="14"><defs><clipPath id="a"><path d="M0 0h20v5H0zm0 0"/></clipPath><clipPath id="b"><path d="M0 0h20v14H0zm0 0"/></clipPath><clipPath id="c"><path d="M0 4h20v6H0zm0 0"/></clipPath><clipPath id="d"><path d="M0 0h20v14H0zm0 0"/></clipPath><clipPath id="e"><path d="M0 9h20v5H0zm0 0"/></clipPath><clipPath id="f"><path d="M0 0h20v14H0zm0 0"/></clipPath><clipPath id="g"><path d="M0 0h15v14H0zm0 0"/></clipPath><clipPath id="h"><path d="M0 0h20v14H0zm0 0"/></clipPath><clipPath id="i"><path d="M3 6h3v2H3zm0 0"/></clipPath><clipPath id="j"><path d="M0 0h20v14H0zm0 0"/></clipPath></defs><g clip-path="url(#a)"><g clip-path="url(#b)"><path d="M0 0h30v4.7H0zm0 0" fill-rule="evenodd"/></g></g><g clip-path="url(#c)"><g clip-path="url(#d)"><path d="M0 4.7h30v4.6H0zm0 0" fill-rule="evenodd" fill="#fff"/></g></g><g clip-path="url(#e)"><g clip-path="url(#f)"><path d="M0 9.3h30V14H0zm0 0" fill-rule="evenodd" fill="#090"/></g></g><g clip-path="url(#g)"><g clip-path="url(#h)"><path d="M0 14l15-7L0 0zm0 0" fill-rule="evenodd" fill="red"/></g></g><g clip-path="url(#i)"><g clip-path="url(#j)"><path d="M4.2 7.9l.1-.7h-.7l.7-.3-.5-.5.7.3.1-.7.2.7.7-.3-.5.5.7.3h-.8l.2.7-.5-.5zm0 0" fill-rule="evenodd" fill="#fff"/></g></g></svg>