<svg xmlns="http://www.w3.org/2000/svg" width="20" height="14"><path fill="#032ea1" d="M0 0h20v14H0z"/><path d="M0 3.5h20v7H0zm0 0" fill="#e00025"/><path d="M139 623.5h113.8v43.8H139zm0 0" transform="matrix(.0375 0 0 .035 2.7 -15.2)" fill="#fff" stroke-linejoin="bevel" stroke="#000"/><path d="M247 647.6h3.5v16.5H247zm-108-8.1h113.8v5H139zm0-7h113.8v4.6H139zm0 0" transform="matrix(.0375 0 0 .035 2.7 -15.2)" fill="#fff" stroke-linejoin="bevel" stroke="#000"/><path d="M139 625.7h113.8v4.3H139zm0 0" transform="matrix(.0375 0 0 .035 2.7 -15.2)" fill="#fff" stroke-width=".9" stroke-linejoin="bevel" stroke="#000"/><path d="M169 647.6h3.6v16.5H169zm49 0h3.6v16.5H218zm-78 0h3.5v16.5H140zm7 0h3.5v16.5H147zm7.5 0h3.5v16.5h-3.5zm7.5 0h3.5v16.5H162zm62.8 0h3.6v16.5h-3.6zm7.5 0h3.6v16.5h-3.6zm7.5 0h3.6v16.5h-3.6zm0 0" transform="matrix(.0375 0 0 .035 2.7 -15.2)" fill="#fff" stroke-linejoin="bevel" stroke="#000"/><path d="M94.5 669.5a9.2 9.2 0 004.4-5.3H292a9.2 9.2 0 004.4 5.3zm0 0" transform="matrix(.0375 0 0 .035 2.7 -15.2)" fill="#fff" stroke="#000"/><path d="M193 556.8s0-4 2.3-4.2c2.3 0 2.2 4.2 2.2 4.2zm-12.5 54.5v-5.5c0-2.8-2.8-3-2.8-5 0 0-.4-3 .4-4.4 1 4 3 3.3 3 1.5 0-1.3-1-2.7-3.3-6.2-.8-1.1-.3-4.6.7-6 .4 3.1.9 4.5 2.2 4.5.8 0 1.4-.4 1.4-1.9 0-2-1.3-3-2-4.8a5 5 0 011-5.3c.6 3 .5 4.2 1.8 4.2 2.7-.9 0-4.8-.6-5.8s1-3.4 1-3.4c.8 2.6 1 2.9 2 2.6 1.2-.3 1-2-.4-3.4-1-1-.8-2.4.2-3.2 1 1.8 2.2 1.7 2.3.5l-.8-4.5H204l-.9 4.4c-.2 1.2 1.4 1.4 2.4-.4 1 .8 1 2.3.2 3.2-1.4 1.4-1.6 3.1-.4 3.4 1 .3 1.2 0 2-2.6 0 0 1.5 1.5 1 3.4-.6 1-3.3 5-.6 5.8 1.3 0 1.2-1.2 1.7-4.2a5 5 0 011 5.3c-.6 1.8-2 2.8-2 4.8 0 1.5.7 2 1.5 2 1.3 0 1.8-1.4 2.2-4.5 1 1.3 1.5 4.8.7 6-2.3 3.4-3.4 4.8-3.4 6.1 0 1.8 2 2.5 3-1.5.8 1.4.5 4.4.5 4.4 0 2-2.7 2.2-2.8 5v5.5zm7.2-46l-.4-3h16l-.5 3zm1-3.2l-.2-2.5H202l-.3 2.5zm2.3-2.5l-.3-2.7h9l-.1 2.7zm33 109.9c-2-.7-5-3-5-5v-24.3l2.6-3.4H169l2.5 3.4v24.3c0 2-2 4.3-4 5zm0 0" transform="matrix(.0375 0 0 .035 2.7 -15.2)" fill="#fff" stroke="#000"/><path d="M178.3 647.6h3.5v16.5h-3.6zm30.3 0h3.6v16.5h-3.6zm0 0" transform="matrix(.0375 0 0 .035 2.7 -15.2)" fill="#fff" stroke-linejoin="bevel" stroke="#000"/><path d="M168 609.2v27.6h54v-27.6a4.2 4.2 0 00-2.6 2.8v11.8h-48.7V612s-.6-2-2.8-2.8zm0 0" transform="matrix(.0375 0 0 .035 2.7 -15.2)" fill="#fff" stroke="#000"/><path d="M214.6 669.5c-1.8-.7-5.6-3-5.6-5v-27.2c.4-1.5 2.4-2.4 3.7-3.4H177c1.7 1 3.6 1.7 4.3 3.4v27.2c0 2-3 4.3-4.8 5zm0 0" transform="matrix(.0375 0 0 .035 2.7 -15.2)" fill="#fff" stroke="#000"/><path d="M219.4 634.2v-19.6h-4.9v-2h-38.8v2h-5v19.6zM207 669.5c-1.8-.7-4.3-3-4.3-5v-23.3l1.4-2h-17.7l1.5 2v23.3c0 2-2.6 4.3-4.3 5zm0 0" transform="matrix(.0375 0 0 .035 2.7 -15.2)" fill="#fff" stroke="#000"/><path d="M190.8 639.2h9v30.3h-9zm0 0" transform="matrix(.0375 0 0 .035 2.7 -15.2)" fill="#fff" stroke="#000"/><path d="M204.4 632.5c0-2 5.8-2 8.8-3.8h-36c3 1.7 8.7 1.8 8.7 3.8l1.2 4 15 .5zm0 0" transform="matrix(.0375 0 0 .035 2.7 -15.2)" fill="#fff" stroke-linejoin="bevel" stroke="#000"/><path d="M211.4 611.3c0-4.9.2-6.7 1.7-6.7V620c-3.7 1.4-6.3 6-6.3 6h-23.2s-2.6-4.6-6.3-6v-15.5c1.8 0 1.8 2 1.8 6.7zm1.7-2a6 6 0 015-6.2v5c-2-.1-2.9 1.6-2.9 4 0 2.5 1.5 2.5 1.5 2.5v14.2H213zm-35.8 0c0-5.5-4.9-6.2-4.9-6.2v5c1.9-.1 2.8 1.6 2.8 4 0 2.5-1.5 2.5-1.5 2.5v14.2h3.6zm0 0" transform="matrix(.0375 0 0 .035 2.7 -15.2)" fill="#fff" stroke="#000"/><path d="M186.8 570.6H204m-19.2 5.4h21m-23 6.5h25m-27 7.9h29.4m-30.2 9h30.4" transform="matrix(.0375 0 0 .035 2.7 -15.2)" fill="none" stroke-width=".8" stroke="#000"/><path d="M170.8 629h48.6m-33.2 0h18v6.6h-18zm0 0" transform="matrix(.0375 0 0 .035 2.7 -15.2)" fill="none" stroke="#000"/><path d="M184 614.2c3 3.6 2.6 9.8 2.6 13.3H204c0-3.5-.4-9.7 2.6-13.3zm9.7-41l-2.4-1.3v-3.5c1 .3 2 .4 2.2 2 .3-2.3 1-2.1 2-3 .9.9 1.4.7 1.8 3 0-1.6 1.2-1.7 2.1-2v3.5l-2.3 1.2zm0 0" transform="matrix(.0375 0 0 .035 2.7 -15.2)" fill="#fff" stroke="#000"/><path d="M193.5 578.9l-4-2.8v-3.2c1.5.4 3 .6 3.2 2.3.4-2.5 1.3-3.7 2.7-4.7 1.3 1 2.2 2.2 2.7 4.7.1-1.7 1.7-2 3-2.3v3.3l-3.9 2.7zm0 0" transform="matrix(.0375 0 0 .035 2.7 -15.2)" fill="#fff" stroke="#000"/><path d="M193.3 587.8l-4.6-4V579c1.6.4 3.4.7 3.6 3.1.5-3.5 1.5-5.3 3-6.8 1.6 1.5 2.6 3.3 3.2 6.8.2-2.4 2-2.7 3.6-3.1v4.7l-4.6 4zm8.3 5.3l-4 5.7H193l-4.1-5.7zm-15.2 9.5c2 1.1 2.8 3.4 3 7.6H201c.2-4.2 1-6.5 3-7.6zm0 0" transform="matrix(.0375 0 0 .035 2.7 -15.2)" fill="#fff" stroke="#000"/><path d="M204.2 593v-5.5a5 5 0 00-3.8 3.2c0-2-2.5-6.3-5.2-8.5-2.7 2.4-5.3 6.4-5.2 8.4a5 5 0 00-3.8-3.1v5.6zm0 0" transform="matrix(.0375 0 0 .035 2.7 -15.2)" fill="#fff" stroke-linejoin="bevel" stroke="#000"/><path d="M205 602.6v-5.5c-2 .5-3.5 1.6-4.1 3.2 0-2-2.6-6.3-5.7-8.5-3 2.5-5.8 6.4-5.7 8.5-.5-1.5-2-2.7-4-3.2v5.6zm0 0" transform="matrix(.0375 0 0 .035 2.7 -15.2)" fill="#fff" stroke-linejoin="bevel" stroke="#000"/><path d="M207.4 614.4v-6.7c-2 .6-3.8 2-5 3.8 0-3.5-4.1-9-7.2-10.7-3.2 1.8-7 7.4-7 10.7a10.2 10.2 0 00-5.3-3.8v6.7zm0 0" transform="matrix(.0375 0 0 .035 2.7 -15.2)" fill="#fff" stroke-linejoin="bevel" stroke="#000"/><path d="M206 629v-6.8c-2.4.9-3 3-3.8 4.7.3-6.9-3.8-14.2-7-16.1-3.2 1.9-7.4 9.4-7 16-.8-1.4-1.5-3.7-3.8-4.6v6.7zm0 0" transform="matrix(.0375 0 0 .035 2.7 -15.2)" fill="#fff" stroke-linejoin="bevel" stroke="#000"/><path d="M204.4 639.2v-6.8c-2.5.6-2.6 1.5-3.4 3 .3-4-2.6-8.8-5.8-10.6-3.2 1.8-6 6.5-5.8 10.6-.8-1.5-1-2.4-3.4-3v6.8zM99 664.2v-20.4c-.7-2.5-3-5-4.6-5.5v-18l3.7 2 4.3 19v23zm0 0" transform="matrix(.0375 0 0 .035 2.7 -15.2)" fill="#fff" stroke="#000"/><path d="M99 664.4v-20.6c-.7-2.5-3-5-4.6-5.5v-19.1c2.5 0 3.7 3.2 3.7 3.2l4.3 18.8v23zm0 0" transform="matrix(.0375 0 0 .035 2.7 -15.2)" fill="#fff" stroke="#000"/><path d="M96.3 669.5c1.7-.7 4.2-3 4.2-5v-25.6l-1.2-2H143l-1.7 2v25.6a6 6 0 003.4 5zm0 0" transform="matrix(.0375 0 0 .035 2.7 -15.2)" fill="#fff" stroke="#000"/><path d="M135.8 669.5c-1.7-.7-4.2-3-4.2-5v-24.3l3.6-3.4h-29.6l3.6 3.4v24.3c0 2-2.5 4.3-4.2 5zm0 0" transform="matrix(.0375 0 0 .035 2.7 -15.2)" fill="#fff" stroke="#000"/><path d="M131.7 669.5c-1.7-.7-4.3-3-4.3-5v-22l2.4-3.3H111l2.4 3.3v22c0 2-2.5 4.3-4.3 5zm0 0" transform="matrix(.0375 0 0 .035 2.7 -15.2)" fill="#fff" stroke="#000"/><path d="M116 639.2h9v30.4h-9.1zm0 0" transform="matrix(.0375 0 0 .035 2.7 -15.2)" fill="#fff" stroke="#000"/><path d="M103.7 647.6h3.6v16.5h-3.6zm30.8 0h3.5v16.5h-3.6zm-33.9-27.8h4.4v17h-4.4zm0-3.2h4.3v3.2h-4.3zm35.6 7h6.1v12.9h-6.1zm0-.1" transform="matrix(.0375 0 0 .035 2.7 -15.2)" fill="#fff" stroke-linejoin="bevel" stroke="#000"/><path d="M105 636.6v-29c1 0 1.3 4.3 4 4.3 1.6 0 1.5-1.8.6-3.2-.7-1.3-1.6-3-.4-6.3 1 2.5 3.1 3.2 2.7 1.8-.7-2.7-2.8-3.2-1.2-7.3.5 3.4 2.7 3.3 2.2 1.3-.6-2.3-2-3.3-.3-6.5.9 3.7 2 3.5 2 1.2 0-3.4 0-7 4.2-8.3 0 0 .3-3 2-3 1.4 0 1.7 3 1.7 3 4.3 1.3 4.2 5 4.2 8.3 0 2.3 1.1 2.5 2-1.2 1.6 3.2.3 4.2-.3 6.5-.5 2 1.7 2 2.2-1.3 1.6 4-.5 4.6-1.2 7.3-.4 1.4 1.8.7 2.7-1.8 1.2 3.2.3 5-.4 6.3-.8 1.4-1 3.2.5 3.2 2.8 0 3-4.2 4.2-4.2v28.9zm-7-22v22.2h2.5v-22.1c-.9-.5-1.7-.5-2.5 0zm0 0" transform="matrix(.0375 0 0 .035 2.7 -15.2)" fill="#fff" stroke="#000"/><path d="M98.3 629c3 1.6 6.1 3.5 7 7.8h-7zm43-6.6v14.4h2v-14.4a2 2 0 00-2 0zm0 0" transform="matrix(.0375 0 0 .035 2.7 -15.2)" fill="#fff" stroke="#000"/><path d="M143.4 629c-3 1.5-6.2 3.3-7 7.7h7zm-20.6-33.7l1.8-1.5v-2c-.6 0-1 .3-1.5 1a5.4 5.4 0 00-2.5-3 5 5 0 00-2.6 2.9c-.5-.7-.8-.8-1.5-1v2l1.8 1.6zm0 0" transform="matrix(.0375 0 0 .035 2.7 -15.2)" fill="#fff" stroke="#000"/><path d="M123.8 600.2l.8-2v-2.4c-.6 0-1 .2-1.5 1a5 5 0 00-2.5-3 4.6 4.6 0 00-2.6 3c-.5-.8-.8-.9-1.5-1v2.5l.8 1.9zm0 0" transform="matrix(.0375 0 0 .035 2.7 -15.2)" fill="#fff" stroke="#000"/><path d="M124 606.8l2.6-3.3v-3.2c-1 0-1.5.5-2.2 1.6-.7-2.3-2-2.7-3.8-3.8-2 1-3.2 1.5-3.8 3.8-.8-1.2-1.3-1.5-2.3-1.6v3.2l2.7 3.3zm0 0" transform="matrix(.0375 0 0 .035 2.7 -15.2)" fill="#fff" stroke="#000"/><path d="M124.7 613.3s3.2-2.7 3.3-4.2v-3.5c-1.2 0-2.2.4-3.2 2-.8-3-2-3.9-4.2-5-2.3 1.1-3.5 2-4.2 5-1-1.6-2-2-3.3-2v3.5c.9 1.6 2 3 3.3 4.2zm0 0" transform="matrix(.0375 0 0 .035 2.7 -15.2)" fill="#fff" stroke="#000"/><path d="M126 625.3s4.4-4.7 4.5-6.6v-5.4c-1.6.2-3.2 1.3-4.4 3.6-1-4.4-2.6-7.6-5.5-9.8-3 2.2-4.6 5.4-5.6 9.8-1.2-2.3-2.7-3.4-4.2-3.6v5.4c.2 1.9 4.3 6.6 4.3 6.6zm0 0" transform="matrix(.0375 0 0 .035 2.7 -15.2)" fill="#fff" stroke="#000"/><path d="M126 632.4s3.7-3.6 4.5-5.3v-5.4c-1.6.2-3.2 1.2-4.4 3.5a14 14 0 00-5.5-9.2c-3 2.1-4.6 4.7-5.6 9.2-1.2-2.3-2.7-3.3-4.2-3.5v5.4c.9 1.6 4.3 5.3 4.3 5.3zm0 0" transform="matrix(.0375 0 0 .035 2.7 -15.2)" fill="#fff" stroke="#000"/><path d="M127.5 636.6c-1-4.7-2-8.2-7-11.6-5.3 3.4-6.2 6.9-7.3 11.6zm0 0" transform="matrix(.0375 0 0 .035 2.7 -15.2)" fill="#fff" stroke="#000"/><path d="M130.2 639.2v-6.8c-2.4 1-4.4 2.3-5.3 3.8-.8-3.8-2.5-5.4-4.6-7.7-2 2.3-3.5 4-4.4 7.7-.8-1.5-2.9-2.9-5.2-3.8v6.8zm0 0" transform="matrix(.0375 0 0 .035 2.7 -15.2)" fill="#fff" stroke="#000"/><path d="M99 664.2v-20.4c-.7-2.5-3-5-4.6-5.5v-18l3.7 2 4.4 19v23zm0 0" transform="matrix(-.0375 0 0 .035 17.3 -15.2)" fill="#fff" stroke="#000"/><path d="M99 664.4v-20.6c-.7-2.5-3-5-4.6-5.5v-19.1c2.5 0 3.7 3.2 3.7 3.2l4.4 18.8v23zm0 0" transform="matrix(-.0375 0 0 .035 17.3 -15.2)" fill="#fff" stroke="#000"/><path d="M96.3 669.5c1.7-.7 4.2-3 4.2-5v-25.6l-1.2-2H143l-1.7 2v25.6a5.8 5.8 0 003.4 5zm0 0" transform="matrix(-.0375 0 0 .035 17.3 -15.2)" fill="#fff" stroke="#000"/><path d="M135.8 669.5c-1.7-.7-4.2-3-4.2-5v-24.3l3.6-3.4h-29.6l3.6 3.4v24.3c0 2-2.5 4.3-4.3 5zm0 0" transform="matrix(-.0375 0 0 .035 17.3 -15.2)" fill="#fff" stroke="#000"/><path d="M131.7 669.5c-1.7-.7-4.2-3-4.2-5v-22l2.3-3.3H111l2.4 3.3v22c0 2-2.5 4.3-4.3 5zm0 0" transform="matrix(-.0375 0 0 .035 17.3 -15.2)" fill="#fff" stroke="#000"/><path d="M116 639.2h9v30.4h-9.1zm0 0" transform="matrix(-.0375 0 0 .035 17.3 -15.2)" fill="#fff" stroke="#000"/><path d="M103.7 647.6h3.6v16.5h-3.6zm30.8 0h3.5v16.5h-3.6zm-34-27.8h4.5v17h-4.4zm0-3.2h4.5v3.2h-4.4zm35.7 7h6.1v12.9h-6.1zm0-.1" transform="matrix(-.0375 0 0 .035 17.3 -15.2)" fill="#fff" stroke-linejoin="bevel" stroke="#000"/><path d="M105 636.6v-29c1.1 0 1.3 4.3 4.1 4.3 1.5 0 1.4-1.8.5-3.2-.7-1.3-1.6-3-.4-6.3.9 2.5 3.1 3.2 2.7 1.8-.7-2.7-2.8-3.2-1.2-7.3.5 3.4 2.7 3.3 2.2 1.3-.6-2.3-2-3.3-.3-6.5.9 3.7 2 3.5 2 1.2 0-3.4 0-7 4.2-8.3 0 0 .3-3 1.9-3 1.5 0 1.7 3 1.7 3 4.4 1.3 4.3 5 4.3 8.3 0 2.3 1 2.5 2-1.2 1.6 3.2.3 4.2-.3 6.5-.5 2 1.7 2 2.2-1.3 1.6 4-.5 4.6-1.2 7.3-.4 1.4 1.8.7 2.7-1.8 1.2 3.2.4 5-.4 6.3-.8 1.4-1 3.2.5 3.2 2.8 0 3-4.2 4.2-4.2v28.9zm-7-22v22.2h2.5v-22.1c-.9-.5-1.7-.5-2.5 0zm0 0" transform="matrix(-.0375 0 0 .035 17.3 -15.2)" fill="#fff" stroke="#000"/><path d="M98.2 629c3.1 1.6 6.2 3.5 7 7.8h-7zm43.2-6.6v14.4h2v-14.4a2 2 0 00-2 0zm0 0" transform="matrix(-.0375 0 0 .035 17.3 -15.2)" fill="#fff" stroke="#000"/><path d="M143.4 629c-3.1 1.5-6.2 3.3-7 7.7h7zm-20.6-33.7l1.8-1.5v-2c-.6 0-1 .3-1.5 1a5 5 0 00-2.5-3 5 5 0 00-2.6 2.9c-.5-.7-.8-.8-1.5-1v2l1.8 1.6zm0 0" transform="matrix(-.0375 0 0 .035 17.3 -15.2)" fill="#fff" stroke="#000"/><path d="M123.8 600.2l.8-2v-2.4c-.6 0-1 .2-1.5 1a4.7 4.7 0 00-2.5-3 4.7 4.7 0 00-2.6 3c-.5-.8-.8-.9-1.5-1v2.5l.8 1.9zm0 0" transform="matrix(-.0375 0 0 .035 17.3 -15.2)" fill="#fff" stroke="#000"/><path d="M124 606.8l2.6-3.3v-3.2c-1 0-1.5.5-2.2 1.6-.7-2.3-2-2.7-3.8-3.8-1.9 1-3.1 1.5-3.8 3.8-.8-1.2-1.3-1.5-2.3-1.6v3.2l2.7 3.3zm0 0" transform="matrix(-.0375 0 0 .035 17.3 -15.2)" fill="#fff" stroke="#000"/><path d="M124.7 613.3s3.2-2.7 3.3-4.2v-3.5c-1.2 0-2.3.4-3.2 2-.8-3-2-3.9-4.2-5-2.3 1.1-3.5 2-4.2 5-1-1.6-2-2-3.3-2v3.5a15.8 15.8 0 003.3 4.2zm0 0" transform="matrix(-.0375 0 0 .035 17.3 -15.2)" fill="#fff" stroke="#000"/><path d="M126 625.3s4.4-4.7 4.5-6.6v-5.4c-1.6.2-3.2 1.3-4.4 3.6-1-4.4-2.6-7.6-5.5-9.8-3 2.2-4.6 5.4-5.6 9.8-1.2-2.3-2.7-3.4-4.3-3.6v5.4c.3 1.9 4.4 6.6 4.4 6.6zm0 0" transform="matrix(-.0375 0 0 .035 17.3 -15.2)" fill="#fff" stroke="#000"/><path d="M126 632.4s3.7-3.6 4.5-5.3v-5.4c-1.6.2-3.2 1.2-4.4 3.5-.5-3.7-2.5-7-5.5-9.2-3 2.1-4.6 4.7-5.6 9.2-1.2-2.3-2.7-3.3-4.3-3.5v5.4c1 1.6 4.4 5.3 4.4 5.3zm0 0" transform="matrix(-.0375 0 0 .035 17.3 -15.2)" fill="#fff" stroke="#000"/><path d="M127.5 636.6c-1-4.7-2-8.2-7.1-11.6-5.2 3.4-6 6.9-7.2 11.6zm0 0" transform="matrix(-.0375 0 0 .035 17.3 -15.2)" fill="#fff" stroke="#000"/><path d="M130.2 639.2v-6.8c-2.4 1-4.5 2.3-5.3 3.8-.8-3.8-2.5-5.4-4.6-7.7-2.1 2.3-3.5 4-4.4 7.7-.8-1.5-3-2.9-5.2-3.8v6.8zm0 0" transform="matrix(-.0375 0 0 .035 17.3 -15.2)" fill="#fff" stroke="#000"/><path d="M72.7 694.3H318v12.5H72.7zm-6.5 12.5h258.3v12.5H66.2zm19.4-31.3H305v8H85.6zm-6.4 8h232.4v10.7H79.2zm10.2-14.2h212v6.2h-212zm0 0" transform="matrix(.0375 0 0 .035 2.7 -15.2)" fill="#fff" stroke="#000"/><path d="M112.4 669.3h16v50h-16zm0 0" transform="matrix(.0375 0 0 .035 2.7 -15.2)" fill="#fff" stroke="#000"/><path d="M116 669.3h9v50h-9.1zm71 0h16v50h-16zm0 0" transform="matrix(.0375 0 0 .035 2.7 -15.2)" fill="#fff" stroke="#000"/><path d="M190.8 669.3h9v50h-9zm71.4 0h16v50h-16zm0 0" transform="matrix(.0375 0 0 .035 2.7 -15.2)" fill="#fff" stroke="#000"/><path d="M265.8 669.3h9v50h-9zm0 0" transform="matrix(.0375 0 0 .035 2.7 -15.2)" fill="#fff" stroke="#000"/><path d="M99 664.2h193M115.7 713h9.3m-9.3-6.3h9.3m-9.3-6.2h9.3m-9.3-6.3h9.3m-9.3-6.2h9.3m-9.3-6.3h9.3m-9.3-6.2h9.3m65.8 37.5h8.6m-8.6-6.3h8.6m-8.6-6.2h8.6m-8.6-6.3h8.6m-8.6-6.2h8.6m-8.6-6.3h8.6m-8.6-6.2h8.6m66.2 37.5h9.2m-9.2-6.3h9.2m-9.2-6.2h9.2m-9.2-6.3h9.2m-9.2-6.2h9.2m-9.2-6.3h9.2m-9.2-6.2h9.2" transform="matrix(.0375 0 0 .035 2.7 -15.2)" fill="none" stroke="#000"/></svg>