<svg width="21" height="15" xmlns="http://www.w3.org/2000/svg"><defs><linearGradient x1="50%" y1="0%" x2="50%" y2="100%" id="a"><stop stop-color="#FFF" offset="0%"/><stop stop-color="#F0F0F0" offset="100%"/></linearGradient><linearGradient x1="50%" y1="0%" x2="50%" y2="100%" id="b"><stop stop-color="#0C33B8" offset="0%"/><stop stop-color="#05279D" offset="100%"/></linearGradient><linearGradient x1="50%" y1="0%" x2="50%" y2="100%" id="c"><stop stop-color="#1DB158" offset="0%"/><stop stop-color="#149447" offset="100%"/></linearGradient><linearGradient x1="50%" y1="0%" x2="50%" y2="100%" id="d"><stop stop-color="#262626" offset="0%"/><stop stop-color="#0D0D0D" offset="100%"/></linearGradient></defs><g fill="none" fill-rule="evenodd"><path fill="url(#a)" d="M0 0h21v15H0z"/><path fill="url(#b)" d="M0 0h21v5H0z"/><path fill="url(#c)" d="M0 10h21v5H0z"/><path fill="url(#a)" d="M0 5h21v5H0z"/><path d="M10 7.5l.342-1.025c.087-.263.228-.266.316 0L11 7.5l.861 1.291c.077.116.057.279-.055.356 0 0-.306.353-1.306.353s-1.306-.353-1.306-.353a.27.27 0 0 1-.055-.356L10 7.5z" fill="url(#d)"/><path d="M10.5 7.5a1 1 0 1 1 0-2 1 1 0 0 1 0 2zm0 0c.276 0 .5-.724.5-1a.5.5 0 1 0-1 0c0 .276.224 1 .5 1z" fill="#242424" fill-rule="nonzero"/></g></svg>