<svg width="21" height="15" xmlns="http://www.w3.org/2000/svg"><defs><linearGradient x1="50%" y1="0%" x2="50%" y2="100%" id="a"><stop stop-color="#FFF" offset="0%"/><stop stop-color="#F0F0F0" offset="100%"/></linearGradient><linearGradient x1="50%" y1="0%" x2="50%" y2="100%" id="b"><stop stop-color="#E33B44" offset="0%"/><stop stop-color="#C02A32" offset="100%"/></linearGradient></defs><g fill="none" fill-rule="evenodd"><path fill="url(#a)" d="M0 0h21v15H0z"/><path fill="url(#b)" d="M0 0h21v15H0z"/><path d="M10.5 9.255l-2.645 1.886.976-3.099L6.22 6.11l3.247-.029L10.5 3l1.032 3.08 3.248.03-2.61 1.932.975 3.099L10.5 9.255zm0-1.228l.794.566-.293-.93.784-.58-.975-.01-.31-.924-.31.925-.975.008.784.58-.293.931.794-.566z" fill="#0A6135" fill-rule="nonzero"/></g></svg>