<svg xmlns="http://www.w3.org/2000/svg" width="20" height="14"><path fill="#0071bc" d="M0 0h20v14H0z"/><path d="M370 365.8s15.3-16.2 29.8-13.2c4.4-16.8 21-18.3 21-18.3s-1.7-18.8 19.4-22.8c.7-12.7 13.6-23.3 13.6-23.3s-2.6-19.7 10.8-24.4c-8.2-15.5 2.8-26.9 2.6-27.1 0-.4-14-25-1.4-32-13-10.9-9-23.4-9-23.4s-14-3.6-9-20.6c-11.7-2-14-20.9-14-20.9s-18 3.6-20.2-12c-12 1.8-13.2-9.8-13.4-9.8s-23.4 6.3-28.2-11.4c-9.1 4.7-13-3.7-13-3.7s-13 6.5-20.8-6c-15.4 9.7-24.2-.3-24.2-.3s-20.3 13.4-27 3c-12 12.1-22.8 6.9-22.8 6.9s-9 16-23.7 12c-3.3 14.9-20.3 15.2-20.3 15.2s2 13-18.3 16.7c-2.7 15.5-13.2 18-13.2 18s1 15.2-8.4 20c3.3 8.5-5.6 19-5.6 19s9.6 11.6-3.3 24.8c12.3 3.2 3.3 24.4 3.3 24.4s17 7.6 6.4 21.7c12.2 4 8.4 13.7 8.5 19.3 7.8 3.5 14.7 1.9 11.3 17.4 23.8 2.7 12.6 15.8 12.6 15.8s11 .5 6.8 9.2c20.2-.4 23.2 15.3 23.2 15.3s18.8-5 21.3 2.3c2.4 7.4-8.2 56.6-8.2 56.6s-16 0-27.9-12.7c-27.7-.7-21.4-19-22-19s-9.2 3.3-13.7-12c-18.6 4-18-11.7-18.3-11.8 0-.2-8.2-4-5.2-11.6-19.1 1.7-17.8-17-17.8-17-4-1.7-5.6-5.6-5-9.5-2.4-1-19.4-1.2-10.7-23.5-16.3-10-6.1-21-6.1-21s-22.4-11.7-5.2-25.1c-13-19 1-28.5 1-28.5s-17.8-18.1.4-31c-3-27.4 13.4-34.1 13.4-34.1s-8.6-22.4 14.8-31.8c1.4-22.7 18-23.3 18-23.3s.3-18 26-16.2c5-16 22.6-12.8 22.6-12.8s5.3-19.6 29.3-10.2c12-23.7 30.2-11.5 30.2-11.5s11.4-7.5 17-5.1c7.4-12.5 22.9-.6 32.7 1.8 3.6-1.4 16.6-11 26.5 1.1 13.1-8.6 24.5 7 24.5 7s18.1-9.3 26.6 11.8c38.6-3.5 33 21.7 33 21.7s30.2-6.9 23.6 23.3c27.6 1.8 24.8 20 24.8 20s17.4 13.2 9.8 25c15.5.8 9.9 15.6 9.9 15.6s11.8 4.7 2 23C533.4 215 515 233 515 233c-.3-.1 12.1 14.6 1 31.6 3.4 27-10.3 33.8-10.3 33.8s3.6 17.5-11.6 22.5c-.4 20.5-19.7 22.9-19.7 22.9s5.2 9-14 18.3c-.8 13.7-20.8 14.7-20.8 14.7s-1.9 25.4-27.4 18.5c-6 20.2-36 14.2-36.6 14-.5-.3-5.7-43.4-5.7-43.4zm0 0" transform="scale(.03125 .02917)" fill-rule="evenodd" fill="#fff" stroke-width="1.9" stroke="#000"/><path d="M185 124s6.4 5.6 5.3 14c-1.3 8.2-6 19.9-5 28.5.4 3.5.2 9.8.2 9.8s-5.8-8.4-5.8-17c0-8.9 6.2-17.2 6.2-23.8 0-6.4-1.2-11.6-1-11.3zm-3.3 2.6s-8.3 8-9.4 15.8c-.8 3.8-1 22.6-1.2 30.9-.2 2.5-1.2 12.5-1.3 16.2-.4 3.6 6-6.2 6.4-14.3-.2-8.3-.2-25.7.6-28.5.8-3.4.6-7.1 1.8-10.5zm0 0" transform="scale(.03125 .02917)" fill-rule="evenodd" fill="#217900" stroke-width="1.9" stroke-linejoin="round" stroke="#000"/><path d="M366 100.4s10.8-5 14-14.3-9.5-9.4-11.1-6.4c-1.6 3 1.4 10.3.6 12.3-.8 2-5.3 6.6-3.5 8.4zm0 0" transform="scale(.03125 .02917)" fill-rule="evenodd" fill="#ffd200" stroke-width="1.9" stroke="#ef8a10"/><path d="M269.8 104s7-9.8 5.2-19.5c-1.9-9.6-12.8-3.6-12.8-.3 0 3.5 6.2 8.3 6.6 10.5.2 2.1-1.4 8.4 1 9zm-19 5.6s7-9.7 5-19.3c-1.7-9.7-12.7-3.6-12.7-.3s6.3 8.4 6.7 10.4c0 2-1.4 8.3 1 9.2zm-21.2 6.5s7-9.6 5.2-19.3c-2-9.7-12.8-3.7-12.8-.2 0 3.3 6.3 8.3 6.5 10.4.3 2-1.3 8.3 1 9.1zm-15 14.9s7.2-9.7 5.3-19.3c-1.8-9.6-12.8-3.8-12.8-.3 0 3.4 6.3 8.5 6.5 10.5.3 2-1.3 8.3 1 9zM199 145.4s7-9.7 5.3-19.4c-2-9.8-13-3.6-13-.2s6.4 8.3 6.7 10.4c.3 2.1-1.3 8.4 1 9.2zm0 0" transform="scale(.03125 .02917)" fill-rule="evenodd" fill="#ffd200" stroke-width="2.5" stroke="#ef8a10"/><path d="M235 61.7s-9.4 7.4-10.3 17.2c-.7 9.8 11.4 7 12.3 3.7 1-3.3-3.8-9.7-3.4-11.8.3-2 3.5-7.7 1.4-9zm31.3-9.6S257 59.5 256 69.2c-.9 10 11.3 7.1 12.3 3.8.9-3.4-3.8-9.8-3.5-12 .4-2 3.5-7.6 1.4-8.9zm-116.7 84.5s2 11.8 10.2 17.3c8.2 5.3 11.4-6.6 9-9-2.3-2.4-10.2-1.5-12-2.5-1.6-1.4-5-6.9-7.2-5.8zm-15.6 40s0 12 7.3 18.7 12.4-4.7 10.4-7.4-10-3-11.4-4.6c-1.6-1.6-4-7.5-6.3-6.6zm36 44.8s-4.3-11.3-13.3-15c-9-3.6-10 8.8-7.2 10.7 2.9 1.7 10.4-.7 12.3.3 2 .8 6.3 5.5 8.3 3.8zm-7.4-19.4s7.2-9.5 5.7-19c-1.8-9.8-12.8-4-13-.7 0 3.5 6 8.5 6.4 10.6.2 2.1-1.4 8.3 1 9.2zm225.7-92s10.7-4.9 14-14.2c3-9.3-9.6-9.4-11.2-6.5-1.7 3 1.4 10.3.6 12.4-.8 2-5.2 6.6-3.4 8.4zm32.7 16.6s6.4-10.2 3.9-19.7c-2.5-9.5-13-2.8-12.8.6.1 3.3 6.8 8 7.1 10 .6 2-.6 8.4 1.8 9zm89.6 93s-4.4-11.2-13.4-15c-9-3.7-10 8.7-7.2 10.6 2.9 1.9 10.5-.6 12.3.2 2 1 6.3 5.7 8.3 4.1zm-43.9 6.9s.3-12 7.6-18.6c7.3-6.6 12.4 5 10.4 7.6-2 2.7-10 2.8-11.6 4.3-1.4 1.5-4 7.3-6.4 6.5zm-7-126.9s-11.2-4.2-20 0c-9 4.5 0 13.4 3 12.6 3.4-1 6.6-8.3 8.6-9 2-.9 8.3-1.1 8.4-3.6zM434 78.3s-11.1-4.2-20 0c-8.8 4.3-.1 13.4 3.3 12.5 3-1 6.3-8.3 8.2-9.1 2-.8 8.4-1 8.5-3.4zM396 58s-9.5 7.3-10.4 17c-1 9.7 11.1 7 12.1 3.8s-3.6-9.7-3.3-11.7c.4-2 3.6-7.7 1.6-9.1zm-24.8-6s-4.4 11 0 20c4.2 8.9 13.2.2 12.3-3-.9-3.3-8.3-6.5-9-8.4-.8-2-.9-8.5-3.3-8.5zm-70.4 43s7.6-9.2 6.4-19c-1-9.7-12.4-4.5-12.6-1-.4 3.3 5.6 8.7 5.6 10.8.2 2-1.8 8.2.6 9.1zm0 0" transform="scale(.03125 .02917)" fill-rule="evenodd" fill="#ffd200" stroke-width="1.9" stroke="#ef8a10"/><path d="M342.8 114.4s18.4 1.2 19.4 11.8c1 10.5-4.4 17.1-4.4 17.1s2.3 23-15.8 29.7c-19.4 2.3-49.9.4-49.9.4s-9 2.3-12.6-16.2c-2.1-10.4-3.6-21-4.6-31.6 0 0 1.9-10.4 14.9-11 13-.8 52.8 0 53-.2zm0 0" transform="scale(.03125 .02917)" fill-rule="evenodd" fill="#8c8a8c" stroke-width="1.9" stroke="#000"/><path d="M357.8 143.2s-10 12.4-9 17.5" transform="scale(.03125 .02917)" fill="none" stroke-width="1.9" stroke-linecap="round" stroke="#000"/><path d="M344.3 172.4c2.4 2 4.8 4.3 5.3 11.9l1 15.4 13 116.6 11.4 84.3.8 13s-2.7 9.7-10.4 10.6c-5.5 11.5-35.6 15-38.6 14.8-2.8-.3-12.4-4.1-18.2-3.7-5.9.5-16 4.4-20.5 3.9-4.5-.9-14.9-4.3-16.6-11.7-12.8-4-14.8-13.7-14.8-13.7l13.8-97.5L283.8 193s1.6-16.4 8.2-19c6.9-.5 42.4.7 52.3-1.5zm0 0" transform="scale(.03125 .02917)" fill-rule="evenodd" fill="#8c8a8c" stroke-width="1.9" stroke="#000"/><path d="M274.4 341.1l-2.6 86.3m86.4-74.9l7.6 71.3" transform="scale(.03125 .02917)" fill="none" stroke-width="1.9" stroke="#000"/><path d="M136.6 296.3l-.3 1m358.7-4.1l.3 1" transform="scale(.03125 .02917)" fill="none" stroke="#000"/><path d="M127 179.9s5.6 7.7 6.8 12.3c1 4.5 2.8 13.4 5.2 17 2.5 3.7 16.6 23.8 17.4 32.3.1 5.6-5.9 15-14.7 15.2-5.6-.2-19.8-3.8-20.4-16-.5-12.4 4.3-12.5 5-20 .5-7.4.7-40.7.7-40.8zm0 0" transform="scale(.03125 .02917)" fill="none" stroke-width="1.9" stroke-linejoin="round" stroke="#6b18b5"/><path d="M224.5 72.9s-6 .4-10.4 2.8c-3.5 2.1-9.5 5.3-13.6 11-10.6 8.3-26.5 12-31.5 19-3 4.7-2.8 15.6 4.8 20.5 4.7 2.6 19 7 25.7-3.1 6.8-10.2 2.8-13 6-19.6a117.5 117.5 0 0119-30.6zm142.5-15s-4.4-4-9.3-5.4c-4-1-10.6-.5-17.4-1.3-13.4-1.8-27-11.4-35.4-10.2-5.4 1-13.3 9-11.5 17.7 1.4 5.3 7.4 16.2 19.4 14 12-2.1 12-4.8 19-7 17.4-9.7 35-7.7 35.2-7.7zm141.4 137.5c1-2.3-.9-6.6-2.1-11.5-1.3-4-3.2-10-7.8-15.6-5.4-12.1-4.5-28.9-10-35.3-3.8-4-14.6-6.6-21-.4-3.9 4-11.4 16.6-3.3 25.7 8.3 9 12 5.8 17.6 10.5 13.4 9 20 25 26.6 26.6zM503.5 302c1.9-2.5 5.3-7.4 4.8-11.5-.3-3.2 1.4-13 1.7-17.3 1.3-13.2 9.5-24.2 7.3-35.7-1.4-5.4-9.3-13-18-10.8-5 1.6-17 8-14.2 20 2.6 12 6.6 11.6 9.1 18.7 7.3 14.5 2.7 31.7 9.3 36.6zm0 0" transform="scale(.03125 .02917)" fill="none" stroke-linejoin="round" stroke="#6b18b5"/><path d="M405.5 386.8s-2.3 4.4 6.8 8.2m11.3-18.4s10-2.5 16.8 0m13.2-25.4c0 .2-1.4 4.5 6.6 10.8m-.8-22s5.9 4.3 15.9 4m-75.6 8.6s.4 11.6-5.4 16.8m25.3-34.4s9.6 2.4 17.6-1.7M482 318s2.1 3.1 12.9 2.6m-55-9.3c.4.2 12.8 4.2 20.6.6m4.2-47.8s.5-.7 4.3 12.7m5.2-50.4s-.5 7.1-6.2 10.2m42.9-39.4s-8.4 6.7-6.8 9.6m-34.8-14.5s4.4 7.4-2.7 12.3M448.2 161s7.6-.3 10.8 6.1m-24.8-27.3h5.7m24-26s1.5 1.5-1.4 4.5m-52-3.8s4 6.2 3.3 14m19.8-35.2c1.8-.2 7.6-2.8 7.6-2.8m-33.3-22c-.1 0-2.1 7.7 1.6 10.5m-11.1 25c0 8.4 6.6 6.4 2 14.3M382.3 97a60.3 60.3 0 00-10.6 9.3m-16.3-13.6s4.4 4.3 3.4 10.2m-16-13.7s-2.3 6.6-5.2 8.3m-18-10c-.1.4-3.6 7.9-6 9m-25.6-9c.3 0 3.5 7-.8 12.1m-6.4-48c0 .2.6 5.5-2.7 10m-28.7 1.9c0 .1 1.3 5.9-7.8 7.7m-9.8 45.3c0 .3 8.8 1.8 8.8 1.8M210 136.6a228 228 0 0110.6-3.3m-27.3 16.3c.2 0 7.2 1.3 9 .4m-14 6s2.2 1.4.3 13m-34.2-43.5l4.2 6.2m-18.5 26c0-.2 4.2 6.2 9.8 7.4m23 25.2a41.3 41.3 0 008-2M170 213.7c.3 0-.1-4.2 5.3-7.2M163 224.7c0 .2 5 6.5 8.5 7.3m-11.5 4.7c.6-.2 6-4.9 12.3-4.5m-14 20.7s.2 5.3 16.2 3.8m-14.6 15S164.6 261 174 257m-1.3 28.4s1.3-4.6 9.3-7.8m-.5 25.6s5.7-4.7 7.8-5.3m-.7 19.2s3.6 3.7 12.2-2.6m-54 5.6c1-.1 13.7-3 18 3.5m-13 7s13.3-1.8 15.1-.5m32.8 3.2s-2 3.7 14.6-2.4m5.8 9c-3 5 .7 9-3.2 11.3m-47-4.3c.5-.4 6-2.3 5.3-10.3m-.3 22.3c.8-.2 9.9-4.3 11.8-2.1m6.3 13.6s1.2-8.1 3.8-9m10 21.4s7.7-.2 11-2.6m3.8-25c.2.2 7 3.9 22 .2m-16.4 33s2 10.6 2 13" transform="scale(.03125 .02917)" fill="none" stroke-width="1.9" stroke="#000"/><path d="M232.8 119c0-2-.8-4-2-5-1.4-1-3-1.1-4.2 0a7.2 7.2 0 00-.1 10c1.4 1.2 3 1.2 4.2.1 1.2-1.1 2.2-3 2-5zm0 0" transform="matrix(.05028 -.00587 .00647 .04835 3 2.2)" fill-rule="evenodd" fill="#de2010" stroke-width="1.5" stroke="#000"/><path d="M232.8 119c0-2-.8-4-2-5-1.4-1-3-1.1-4.2 0a7 7 0 00-2.1 5c0 2.1.8 4 2 5.1 1.4 1 3 1.1 4.2 0 1.2-1.1 2.2-3 2.1-5zm0 0" transform="matrix(.05028 -.00587 .00647 .04835 3 1.7)" fill-rule="evenodd" fill="#de2010" stroke-width="1.5" stroke="#000"/><path d="M232.8 119c0-2-.8-4-2-5-1.4-1-3-1.1-4.2 0a7 7 0 00-2 5c0 2 .7 4 1.9 5.1 1.4 1.1 3 1.1 4.2 0 1.2-1 2.2-3 2-5zm0 0" transform="matrix(.04953 -.00997 .011 .04763 2.4 2.2)" fill-rule="evenodd" fill="#de2010" stroke-width="1.5" stroke="#000"/><path d="M232.8 119c0-2-.8-4-2-5-1.4-1-3-1.1-4.2 0-1.2 1-2 3-2 5-.1 2.1.7 4 2 5.1 1.3 1.2 2.9 1.1 4 0 1.3-1.1 2.3-3 2.2-5zm0 0" transform="matrix(.04517 -.02142 .02365 .04344 1.7 4.8)" fill-rule="evenodd" fill="#de2010" stroke-width="1.5" stroke="#000"/><path d="M232.8 119c0-2-.8-4-2-5-1.4-1.1-3-1-4.2 0-1.2 1-2 3-2 5-.1 2.1.7 4 2 5 1.3 1.2 2.9 1.2 4 0 1.3-1 2.3-2.9 2.2-5zm0 0" transform="matrix(.04517 -.02142 .02365 .04344 1.5 4.3)" fill-rule="evenodd" fill="#de2010" stroke-width="1.5" stroke="#000"/><path d="M232.8 119c0-2-.8-4-2-5-1.4-1-3-1.1-4.2 0a7 7 0 00-2.1 5c0 2.1.8 4 2 5.1 1.4 1.1 3 1 4.2 0 1.2-1 2.2-3 2-5zm0 0" transform="matrix(.04307 -.02491 .0275 .04141 1.3 4.9)" fill-rule="evenodd" fill="#de2010" stroke-width="1.5" stroke="#000"/><path d="M232.8 119c0-2-.8-4-2-5-1.4-1.1-3-1-4.2 0a7.2 7.2 0 000 10c1.3 1.2 3 1.2 4 .1 1.3-1 2.3-3 2.2-5zm0 0" transform="matrix(.04028 -.02868 .03166 .03874 1 5.6)" fill-rule="evenodd" fill="#de2010" stroke-width="1.5" stroke="#000"/><path d="M232.8 119c0-2-.7-4-2-5-1.4-1-3-1-4.2 0-1.2 1-2 3-2 5-.1 2.1.7 4 2 5 1.3 1.2 2.9 1.2 4.1.1 1.2-1.1 2.2-3 2.1-5zm0 0" transform="matrix(.0354 -.03383 .03735 .03404 1.1 7)" fill-rule="evenodd" fill="#de2010" stroke-width="1.5" stroke="#000"/><path d="M232.8 119c0-2-.8-4-2-5-1.4-1-3-1-4.2 0-1.2 1.1-2.1 3-2.1 5 0 2.1.8 4 2 5 1.4 1.2 3 1.2 4.2.2 1.2-1.2 2.2-3.1 2.1-5.1zm0 0" transform="matrix(.03192 -.03673 .04054 .0307 1 7.7)" fill-rule="evenodd" fill="#de2010" stroke-width="1.5" stroke="#000"/><path d="M232.8 119c0-2-.8-4-2-5-1.4-1.1-3-1.1-4.2 0a6.9 6.9 0 00-2.1 5c0 2 .8 4 2 5 1.4 1.2 3 1.2 4.2.1 1.2-1 2.2-3 2.1-5zm0 0" transform="matrix(.02494 -.04116 .04544 .02399 1.6 9.2)" fill-rule="evenodd" fill="#de2010" stroke-width="1.5" stroke="#000"/><path d="M232.8 119c0-2-.8-4-2-5-1.4-1.1-3-1.1-4.2 0-1.2 1-2 3-2.1 5 0 2.1.8 4 2 5.1 1.4 1.1 3 1 4.2 0 1.2-1.1 2.2-3 2-5zm0 0" transform="matrix(.02083 -.04311 .04759 .02003 1.8 9.8)" fill-rule="evenodd" fill="#de2010" stroke-width="1.5" stroke="#000"/><path d="M232.8 119c0-2-.8-4-2-5-1.4-1-3-1.1-4.2 0-1.2 1.1-2.1 3-2 5 0 2 .7 4 1.9 5.1 1.4 1.1 3 1 4.2 0 1.2-1.1 2.2-3 2.2-5zm0 0" transform="matrix(.01768 -.04432 .04892 .017 1.8 10.3)" fill-rule="evenodd" fill="#de2010" stroke-width="1.5" stroke="#000"/><path d="M232.8 119c0-2-.8-4-2-5-1.4-1-3-1-4.2 0-1.2 1-2 3-2.1 5 0 2 .8 4 2 5 1.4 1.2 3 1.2 4.2 0a7 7 0 002-5zm0 0" transform="matrix(.014 -.04545 .05017 .01347 2 10.8)" fill-rule="evenodd" fill="#de2010" stroke-width="1.5" stroke="#000"/><path d="M232.8 119c0-2-.8-4-2-5-1.4-1-3-1.1-4.2 0a7 7 0 00-2 5c-.1 2.1.7 4 2 5.1 1.3 1.1 2.9 1 4 0 1.3-1 2.3-3 2.2-5zm0 0" transform="matrix(.00634 -.04692 .0518 .0061 3 12)" fill-rule="evenodd" fill="#de2010" stroke-width="1.5" stroke="#000"/><path d="M232.8 119c0-2-.8-4-2-5-1.4-1.1-3-1-4.2 0a7 7 0 00-2 5c0 2 .7 4 2 5 1.3 1.2 2.9 1.2 4 .1 1.3-1 2.3-3 2.2-5zm0 0" transform="matrix(.00203 -.04725 .05216 .00196 3.3 12.5)" fill-rule="evenodd" fill="#de2010" stroke-width="1.5" stroke="#000"/><path d="M232.8 119c0-2-.8-4-2-5-1.4-1.1-3-1-4.2 0a7 7 0 00-2.1 5c0 2 .8 4 2 5 1.4 1.2 3 1.2 4.2.1 1.2-1 2.2-3 2.1-5zm0 0" transform="matrix(.00203 -.04725 .05216 .00196 2.8 12.5)" fill-rule="evenodd" fill="#de2010" stroke-width="1.5" stroke="#000"/><path d="M232.8 119c0-2-.8-4-2-5-1.4-1-3-1.1-4.2 0a6.9 6.9 0 00-2 5c0 2.1.7 4 2 5.1 1.3 1 2.9 1.1 4 0 1.3-1.1 2.3-3 2.2-5zm0 0" transform="matrix(-.0113 -.0461 .0509 -.01086 5.4 13.8)" fill-rule="evenodd" fill="#de2010" stroke-width="1.5" stroke="#000"/><path d="M232.8 119c0-2-.8-4-2-5-1.4-1.1-3-1-4.2 0a7.1 7.1 0 00-2.1 5c0 2 .8 4 2 5.1 1.4 1.1 3 1.1 4.2 0 1.2-1.1 2.2-3 2-5zm0 0" transform="matrix(-.01533 -.04507 .04976 -.01474 5.9 14.2)" fill-rule="evenodd" fill="#de2010" stroke-width="1.5" stroke="#000"/><path d="M232.8 119c0-2-.8-4-2-5-1.4-1.1-3-1-4.2 0a7.3 7.3 0 00-.1 10c1.4 1.2 3 1.2 4.2.1 1.2-1 2.2-3 2.1-5zm0 0" transform="matrix(-.02097 -.04305 .04752 -.02017 7 14.6)" fill-rule="evenodd" fill="#de2010" stroke-width="1.5" stroke="#000"/><path d="M232.8 119c0-2-.8-4-2-5-1.4-1.1-3-1-4.2 0a7.2 7.2 0 00-.1 10c1.4 1.2 3 1.2 4.2.1 1.2-1.1 2.2-3 2-5zm0 0" transform="matrix(-.02483 -.04122 .0455 -.02388 7.5 14.8)" fill-rule="evenodd" fill="#de2010" stroke-width="1.5" stroke="#000"/><path d="M232.8 119c0-2-.8-4-2-5-1.4-1-3-1-4.2 0-1.2 1.1-2.1 3-2 5-.1 2.1.7 4 1.9 5 1.4 1.2 3 1.2 4.2.1 1.2-1 2.2-3 2.1-5zm0 0" transform="matrix(-.02948 -.03846 .04246 -.02835 8.5 15)" fill-rule="evenodd" fill="#de2010" stroke-width="1.5" stroke="#000"/><path d="M232.8 119c0-2-.8-4-2-5-1.4-1-3-1.1-4.2 0a7 7 0 00-2.1 5c0 2 .8 4 2 5.1 1.4 1 3 1 4.2 0 1.2-1.1 2.2-3 2-5zm0 0" transform="matrix(-.03286 -.036 .03973 -.0316 9.1 15.2)" fill-rule="evenodd" fill="#de2010" stroke-width="1.5" stroke="#000"/><path d="M232.8 119c0-2-.8-4-2-5-1.4-1.1-3-1-4.2 0a7 7 0 00-2.1 5c0 2 .8 4 2 5 1.4 1.2 3 1.2 4.2 0 1.2-1 2.2-3 2-5zm0 0" transform="matrix(-.03554 -.0337 .0372 -.03418 9.7 15.3)" fill-rule="evenodd" fill="#de2010" stroke-width="1.5" stroke="#000"/><path d="M232.8 119c0-2-.8-4-2-5-1.4-1.1-3-1.1-4.2 0a7.3 7.3 0 00-.1 10c1.4 1.2 3 1.2 4.2.1a7 7 0 002.1-5zm0 0" transform="matrix(-.03844 -.0308 .034 -.03697 10.4 15.4)" fill-rule="evenodd" fill="#de2010" stroke-width="1.5" stroke="#000"/><path d="M232.8 119c0-2-.8-4-2-5-1.4-1.1-3-1.1-4.2 0-1.2 1-2 3-2.1 5 0 2.1.8 4 2 5 1.4 1.2 3 1.2 4.2 0 1.2-1 2.2-3 2-4.9zm0 0" transform="matrix(-.04174 -.0268 .0296 -.04014 11.3 15.3)" fill-rule="evenodd" fill="#de2010" stroke-width="1.5" stroke="#000"/><path d="M232.8 119c0-2-.8-4-2-5-1.4-1-3-1-4.2 0-1.2 1-2.1 3-2 5 0 2.1.7 4 2 5.1 1.3 1.1 3 1.1 4 0 1.3-1.1 2.3-3 2.2-5zm0 0" transform="matrix(-.04605 -.01972 .02176 -.04429 13 14.7)" fill-rule="evenodd" fill="#de2010" stroke-width="1.5" stroke="#000"/><path d="M232.8 119c0-2-.8-4-2-5-1.4-1-3-1.1-4.2 0-1.2 1-2.1 3-2.1 5s.8 4 2 5.1c1.4 1 3 1.1 4.2 0 1.2-1.1 2.2-3 2-5zm0 0" transform="matrix(-.04778 -.01574 .01737 -.04595 13.7 14.5)" fill-rule="evenodd" fill="#de2010" stroke-width="1.5" stroke="#000"/><path d="M232.8 119c0-2-.8-4-2-5-1.4-1.1-3-1-4.2 0a6.8 6.8 0 00-2 5c-.1 2 .7 4 1.9 5 1.4 1.2 3 1.2 4.2.1 1.2-1.1 2.2-3 2.1-5zm0 0" transform="matrix(-.05045 -.0035 .00482 -.0389 15.6 11.8)" fill-rule="evenodd" fill="#de2010" stroke-width="1.5" stroke="#000"/><path d="M232.8 119c0-2-.8-4-2-5-1.4-1.1-3-1-4.2 0a6.6 6.6 0 00-2 5c-.1 2.1.7 4 2 5.1 1.3 1.1 2.9 1.1 4.1 0 1.2-1 2.2-3 2-5zm0 0" transform="matrix(-.0494 -.01051 .0116 -.0475 14.6 14)" fill-rule="evenodd" fill="#de2010" stroke-width="1.5" stroke="#000"/><path d="M15 5.7s.1-.1.2 0c0-.3 0-.3-.2-.3v.3zm.1.5h.2l-.1-.3-.1.3zm-.2-1L15 5c0-.2-.1-.2-.2-.2v.3zm-.3-.5l.2-.1c0-.2-.2-.2-.2-.2v.3zm-.6-.9l.2-.1c-.1-.2-.2-.2-.3-.2l.1.3zm-.4-.4l.2-.1c-.2-.2-.2-.2-.3-.1v.2zm-.8-.6v-.2c0-.1-.2-.1-.2 0l.2.2zm.4.3l.1-.2c-.1-.1-.2-.1-.2 0l.1.2zm-1-.6l.1-.2h-.2l.2.2zm-.4-.2v-.2h-.3s0 .2.3.2zm-.6-.2V2H11c0 .2 0 .2.2.2zm-.5 0v-.3l-.3.1.3.1zM10 2v-.3h-.3c0 .2.1.2.3.2zM9 2s-.1-.1 0-.2l-.3.1H9zm.5 0v-.3c-.2 0-.3 0-.2.1l.2.1zm-1 0H8c0 .1.2.2.3 0zm-1 .5l-.2-.1c-.2 0-.2.1-.2.2h.3zm.4-.2s-.1-.1 0-.2c-.3 0-.3.1-.3.2H8zm-1.4.8l-.2-.1-.1.2h.3zm.4-.3l-.1-.2c-.2.1-.2.2-.2.3l.3-.1zm-.8.7l-.2-.1c-.1 0-.1.2 0 .2l.2-.1zm-.4.4h-.1c-.2 0-.2.1-.1.2l.2-.2zm-.3.5l-.2-.1v.2l.2-.1zm-.2.4H5C4.9 5 5 5 5 5l.2-.2zm-.2.5h-.2v.2s.2 0 .2-.2zm-.2.5h-.2v.3c.2 0 .2 0 .2-.3zm0 .5h-.2v.2c.1 0 .2 0 .2-.2zm9.6-2.1l.1-.2-.2-.1v.3zm.8 2.5c0-.1.1-.1.2 0 0-.3 0-.3-.2-.3v.3zm0 0" fill-rule="evenodd" fill="#ffe300"/><path d="M461.3 132s-7 6.9-5.7 15.2c1.1 8.3 6.5 18.6 5.5 27.3-1 8.6-2.5 14.3-2.5 14.3s8-9 8-18c.1-8.7-5.4-20.3-5.4-26.7 0-6.4.3-12.2 0-12zm12.7 28s-5.3 4-4.8 13c.6 9.1 10 25.8 10 25.8s6.8 14 6.6 17.8c-.3 3.6 1.2-3.7.4-11.6-.6-8-11-25.8-11-25.8s-2-3.6-2-9.6c.3-6 1-9.6 1-9.6zm0 0" transform="scale(.03125 .02917)" fill-rule="evenodd" fill="#217900" stroke-width="1.9" stroke-linejoin="round" stroke="#000"/><path d="M9.8 1.4l-.2-.1h-.1l.1.2.2-.1zm0 .2h-.1-.2l.2.1h.1zm.2-.3v.2h.2zm5.1 2.8H15v.1h.1zm0-.2l-.1-.1-.1.1V4l.2-.1zm0 .5zm.2-.5h-.1V4zm-.4 0h-.1V4zm0 .4h-.1v.1h.1zm-.2-.1V4h-.1v.1h.1zm0-.2h-.1zm1 1c-.2-.1-.3-.2-.4-.1v.3h.3c.1 0 .1-.1 0-.2zm.2 2c0-.2 0-.3-.2-.3 0 0-.2 0-.2.2 0 .1 0 .2.2.2l.2-.2zm0 1l-.1-.2c-.1 0-.2 0-.2.2v.2l.3-.1zm.2-1v-.1H16v.2l.1-.1zm-.2.2l-.1.2h-.2l.2.3h.2l.1-.3V7l-.2.1zm-11.1 0V7a.1.1 0 00-.2 0l.1.1zm0-.3h-.1.2zm-.6-1c0-.2-.1-.2-.2-.2V6h.2zm.2.6l-.2-.1v.2s0 .1.1 0c.1 0 .1 0 0-.1zm.2.5l-.1-.2-.1.1v.3l.2-.2zm-.3 0v-.2c-.1 0-.2 0-.3.2v.2l.3-.1zm0 0" fill-rule="evenodd" fill="#6b18b5"/><path d="M4.1 6.8h-.2L4 7h.1zm0-.2h-.2v.1H4zm0-.4v-.1l-.2.1.1.1h.1zm.3 0L4.3 6l-.1.2v.1l.1-.1zM6 3L6 2.7s-.2 0-.2.2V3l.3-.1zm-.4.4c.1 0 .2-.1.1-.2h-.2c-.1.1-.2.2-.1.3h.2zm-.1-.2V3h-.2l-.1.2h.3zm.7-.5v-.1h-.1s-.1.1 0 .1zm0 0" fill-rule="evenodd" fill="#6b18b5"/><path d="M6 3.2V3h-.2v.2h.1zm.5-.3v-.2h-.2V3h.2zm-1 .6v-.1h-.2l.2.1zm1.2-1c0-.1-.1 0-.2 0v.1h.2zm0 0" fill-rule="evenodd" fill="#6b18b5"/><path d="M446.8 153.3s6.4-10 4-19.6c-2.6-9.5-13-2.7-12.8.8.3 3.2 6.8 7.9 7.3 9.9.3 2-1 8.3 1.4 9zm0 0" transform="scale(.03125 .02917)" fill-rule="evenodd" fill="#ffd200" stroke="#ef8a10"/><path d="M324.9 69.2s23 1 23.1 15.8c0 2.5 0 5.1-.8 11.8a16 16 0 007-13.8c0-15-20.4-25.4-29.3-13.8zm0 0" transform="scale(.03125 .02917)" fill-rule="evenodd" fill="#217900" stroke-width="2.3" stroke-linejoin="round" stroke="#000"/><path d="M310.3 68.6s18.4-3.8 18.7 11c.1 15-6 17.4-6 17.4s14.3-3.1 14.4-18.3c0-15-18.3-21.8-27.1-10.1zm0 0" transform="scale(.03125 .02917)" fill-rule="evenodd" fill="#217900" stroke-width="2.3" stroke-linejoin="round" stroke="#000"/><path d="M373.3 390s86.8-24.6 113-131C471 368 376 403 376 403zm0 0" transform="scale(.03125 .02917)" fill-rule="evenodd" fill="#f7df73" stroke-width="2.5" stroke-linejoin="round" stroke="#000"/><path d="M12 11.6l.4-.3v-.1l-.3.1-.2.1c-.2 0-.1.2 0 .2zm0 0" fill-rule="evenodd" fill="#8c1800"/><path d="M432.3 359.3s-9 5.3-8 6.5c1.4 1.3 9.4-5 9.6-5 .1-.3 3.4-4.1-1.6-1.5zm0 0" transform="scale(.03125 .02917)" fill-rule="evenodd" fill="#8c1800" stroke-width="2.5" stroke="#8c1800"/><path d="M12.5 11.2l.2-.1.2-.2c.1 0 .2-.2.3-.1l-.2.2-.3.2h-.2zm0 0" fill-rule="evenodd" fill="#8c1800"/><path d="M445.6 346l-6 6.5" transform="scale(.03125 .02917)" fill="none" stroke-width="3" stroke-linecap="round" stroke="#8c1800"/><path d="M454.5 335.2l-5.8 6.9" transform="scale(.03125 .02917)" fill="none" stroke-width="2.8" stroke-linecap="round" stroke="#8c1800"/><path d="M463.4 321l-6.4 10.2" transform="scale(.03125 .02917)" fill="none" stroke-width="2.5" stroke-linecap="round" stroke="#8c1800"/><path d="M470.9 306.6l-5.3 10.5m8.6-18l-1.6 3.6" transform="scale(.03125 .02917)" fill="none" stroke-width="2.3" stroke-linecap="round" stroke="#8c1800"/><path d="M478 289l-1.4 4.4" transform="scale(.03125 .02917)" fill="none" stroke-width="1.4" stroke-linecap="round" stroke="#8c1800"/><path d="M160.3 216s52-14.7 67.6-78.5c-9.1 65.5-66 86.2-66 86.2zm0 0" transform="matrix(-.05173 0 0 .0496 16.4 .6)" fill-rule="evenodd" fill="#f7df73" stroke-width="1.5" stroke-linejoin="round" stroke="#000"/><path d="M7.8 11.5l-.4-.2s-.1-.2 0-.2c.2 0 .3.2.3.2h.2c.2 0 0 .2 0 .2zm0 0" fill-rule="evenodd" fill="#8c1800"/><path d="M195.5 197.6s-5.4 3.2-4.6 4c.7.7 5.5-3 5.6-3 .1-.2 2-2.6-1-1zm0 0" transform="matrix(-.05173 0 0 .0496 16.4 .6)" fill-rule="evenodd" fill="#8c1800" stroke-width="1.5" stroke="#8c1800"/><path d="M7.3 11.1L7 11c-.2 0-.2-.2-.2-.2l-.3-.1.2.2.3.2h.2zm0 0" fill-rule="evenodd" fill="#8c1800"/><path d="M203.5 189.7l-3.5 4" transform="matrix(-.05173 0 0 .0496 16.4 .6)" fill="none" stroke-width="1.8" stroke-linecap="round" stroke="#8c1800"/><path d="M209 183.2l-3.5 4.1" transform="matrix(-.05173 0 0 .0496 16.4 .6)" fill="none" stroke-width="1.7" stroke-linecap="round" stroke="#8c1800"/><path d="M214.2 174.7l-3.8 6" transform="matrix(-.05173 0 0 .0496 16.4 .6)" fill="none" stroke-width="1.5" stroke-linecap="round" stroke="#8c1800"/><path d="M218.7 166l-3.2 6.4m5.2-10.9l-1 2.2" transform="matrix(-.05173 0 0 .0496 16.4 .6)" fill="none" stroke-width="1.4" stroke-linecap="round" stroke="#8c1800"/><path d="M223 155.5l-.9 2.7" transform="matrix(-.05173 0 0 .0496 16.4 .6)" fill="none" stroke-width=".8" stroke-linecap="round" stroke="#8c1800"/><path d="M490.4 239.3c.5 6.7 7 13 4.4 24.7-3.2 13.4-14.8 44.7-12.8 50.2-3.4-4.7-2.8-9-3-15.5-.4-6.6 9.4-31 10.3-39.1 0-7.5.7-17.6 1-20.3zm0 0" transform="scale(.03125 .02917)" fill-rule="evenodd" fill="#217900" stroke-width="2.3" stroke-linejoin="round" stroke="#000"/><path d="M490.4 239.5s10.7 13.4 10.1 24c-.5 10.8-6.5 23.2-4.5 28.9a22.7 22.7 0 01-4.6-14.4c-.3-6.4 5.4-13.8 4.1-20.9-1.1-7-5.3-17.6-5-17.6zm-349.3 3c-.3 6.6-5.3 12.6-2.8 24.2 3.2 13.3 15 30 13 49.2 3.4-4.6 4.4-10 4.8-16.4.2-6.6-13-28.6-13.8-36.9 0-7.5-.8-17.5-1.2-20.2zm0 0" transform="scale(.03125 .02917)" fill-rule="evenodd" fill="#217900" stroke-width="2.3" stroke-linejoin="round" stroke="#000"/><path d="M141.1 242.5s-10.3 13-9.8 23.7c0 7.1 13.2 36.9 11.2 42.5 3.5-4.7 4.4-4.1 4.3-11.2-3.8-18.3-10.7-30-9.6-37 1.2-7.1 4-18 4-18zm0 0" transform="scale(.03125 .02917)" fill-rule="evenodd" fill="#217900" stroke-width="2.3" stroke-linejoin="round" stroke="#000"/><path d="M100 125.8l22 68.2h72l-58 42.2 22.1 68.2-58-42.1-58 42 22-68.1L6 194h71.7zm0 0" transform="matrix(.03641 0 0 .03399 6.3 -.7)" fill="#fff" stroke-width="1.7" stroke-linecap="square" stroke-linejoin="round" stroke="#000"/></svg>