<svg xmlns="http://www.w3.org/2000/svg" width="20" height="14"><path d="M10 0h10v14H10zm0 0" fill-rule="evenodd" fill="#ce0000"/><path d="M0 0h10v14H0zm0 0" fill-rule="evenodd" fill="#fff"/><path d="M4.8 4.1v.1h-.2l.1-.1h.1zm0 0" fill-rule="evenodd" fill="#f1eeee"/><path d="M1.6 3.8v1.7h2c0 .3.2.6.5.6V8H6V6c.3 0 .6-.3.6-.6h1.9V3.8H6.6c0-.3-.3-.6-.6-.6V1.5H4v1.7c-.3 0-.6.3-.6.6zm0 0" fill-rule="evenodd" fill="#c00"/><path d="M1.7 3.9v1.6h1.9c0 .3.3.6.6.6v1.7h1.7V6.1c.3 0 .6-.3.6-.6h2V3.9h-2c0-.3-.3-.6-.6-.6V1.6H4.2v1.7c-.3 0-.6.3-.6.6zm0 0" fill-rule="evenodd" fill="#ffe600"/><path d="M1.8 4v1.4h1.8c0 .3.3.6.6.6v1.7H6V6c.3 0 .6-.3.6-.6h1.8V4H6.5c0-.3-.3-.6-.6-.6V1.6H4.2v1.7c-.3 0-.6.3-.6.6H1.8zm0 0" fill-rule="evenodd" fill="#707070"/><path d="M1.8 4v1.4h1.9c0 .3.3.5.6.5v1.8h1.5V5.9c.3 0 .6-.2.6-.5h1.9V4H6.4c0-.3-.3-.6-.6-.6V1.7H4.3v1.7c-.3 0-.6.3-.6.6H1.8zm0 0" fill-rule="evenodd" fill="#a0a0a0"/><path d="M4.3 3.3c.1 0 0 .3-.2.5s-.5.3-.6.2c0-.1 0-.4.2-.6.3-.2.5-.2.6-.1zm0 0" fill-rule="evenodd" fill="#d0d0d0"/><path d="M4.2 3.4c.1 0 0 .3 0 .4-.2.2-.4.2-.5 0-.1 0-.1-.2 0-.4h.5zm0 0" fill-rule="evenodd" fill="gray"/><path d="M3.6 3.7H4l-.1-.1.2.3zm.3-.3l.3.3zm2.7.6c-.1.1-.4 0-.6-.2-.2-.2-.3-.4-.2-.5l.6.1c.2.3.3.5.2.6zm0 0" fill-rule="evenodd" fill="#d0d0d0"/><path d="M6.4 3.9H6c-.2-.2-.2-.4 0-.5 0-.1.2 0 .4 0 .1.2.2.4 0 .5zm0 0" fill-rule="evenodd" fill="gray"/><path d="M6.1 3.4v.2l.1-.1-.3.2zm.3.2l-.2.3zm-.6 2.5c-.1-.1 0-.4.2-.6.2-.2.5-.2.6-.1 0 0 0 .3-.2.5s-.5.3-.6.2zm0 0" fill-rule="evenodd" fill="#d0d0d0"/><path d="M6 6c-.2-.1-.2-.3 0-.5.1 0 .3-.1.4 0 .2 0 .1.3 0 .4-.2.1-.4.2-.5 0zm0 0" fill-rule="evenodd" fill="gray"/><path d="M6.5 5.7h-.3.1v.1L6 5.5zm-.3.2l-.3-.2zm-2.7-.5c.1-.1.4 0 .6.1.2.2.3.5.2.6l-.6-.2c-.2-.2-.3-.4-.2-.5zm0 0" fill-rule="evenodd" fill="#d0d0d0"/><path d="M3.7 5.5c0-.1.3 0 .4 0 .2.2.2.4.1.5h-.5v-.5zm0 0" fill-rule="evenodd" fill="gray"/><path d="M4 6v-.2H4l.3-.1L4 6zm-.3-.3l.3-.2zm0 0" fill-rule="evenodd" fill="#d0d0d0"/><path d="M269.2 414.6c0 41-34 74.5-76.1 74.5-42.1 0-76.2-33.3-76.2-74.5 0-41.1 34.1-74.4 76.4-74.4 42 0 76.2 33.3 76.2 74.4zm0 0" transform="matrix(.01708 0 0 .01632 1.8 -2)" fill="none" stroke-width="1.3" stroke="#707070"/><path d="M269.2 414.5c0 41.2-34 74.5-76 74.5a75.2 75.2 0 01-76.2-74.5 75.4 75.4 0 0176.2-74.4c42 0 76.3 33.3 76.3 74.4zm0 0" transform="matrix(.01301 0 0 .01243 2.5 -.5)" fill="none" stroke-width="1.3" stroke="#707070"/><path d="M4.6 5.7h-.1v-.1h.1zm1 0h-.1v-.1h.1zm-.6 0c-.2 0-.2 0 0 0v.1c0 .1 0 .1 0 0h.2H5v-.1c0-.1 0-.1 0 0zm0 0" fill-rule="evenodd" fill="#d0d0d0"/><path d="M102.8 122.3v.8s-.4.5-3 .7c-2.4.2-2.8 0-2.8 0 .1.7.6 1.9.4 3.3.1 1.7-.4 3.2-.4 3.2 0 .1-.3.2-.8.1.4-.4.4-1.4.4-3 0-1.4-1.5-3.7-1.2-4.3.3-.6 7.4-.8 7.4-.8zm9.8-2.6h6.5s1 1.9.9 2.9c0 1-.4 2-.8 1.5-.5-.5.2-.4.3-1.5 0-1.2-.8-2.3-.8-2.3s-1.8.7-4.4.6c-2.6-.2-1.4-1.2-1.7-1.2zm0 0" transform="matrix(.04996 0 0 .04663 -.4 -.9)" fill-rule="evenodd" fill="#d0d0d0" stroke-width=".1" stroke="#707070"/><path d="M113.4 121.6c2.4-.1 4 .2 4 .2s1 2 1 3-.4 2-1 1.5c-.3-.4.3-.3.4-1.5 0-1-.8-2.3-.8-2.3s-1.7.7-4.3.6c-2.6-.2-1.8-.3-2.1-.4-.3 0-.4.8-4.3.9-4 0-6-.9-6-.9s-.4.6-2.8.8h-3c.1.6.6 1.8.5 3.3 0 1.6-.5 3.2-.5 3.2h-.7c.4-.3.3-1.4.4-3 0-1.4-1.6-3.6-1.3-4.3.4-.6 2.2 0 2.5-.3.3-.4-1.6-2.7-1.2-4.8.3-2 2.4-1.5 4.9-1.5 2.5.1 8 .8 9.4 0 1.4-.7.8-3.4 2-5 .8-1.1 2-1.6 3.3-1.6 1 0 2 3 2 3.7l-.3.4h-.4v.3c-1 .1-1-.8-1.7-1.4-.2 1 .8 4.4.8 6.6 0 1.8-.7 2.6-.8 2.5zm0 0" transform="matrix(.04996 0 0 .04663 -.4 -.9)" fill-rule="evenodd" fill="#d0d0d0" stroke-width=".1" stroke="#707070"/><path d="M105.5 118.4c0 .7-3.1 2.4-3.4 3-.2.7.8 1 .5 1.4-.3.4-.6.2-.7.3l-1.2-2.5s3-1.4 3-2c-.2-.6-2.3-1-2.7-2.4-.4-1.4-.2-4.3-.5-4.9-.3-.6-4-1.2-4-2 0-1 3.8-3.4 4.2-3.8.4-.4.8.4.4.7-.4.4-3.3 2.7-3.3 3 0 .4 2.4.8 3.2.8.9 0 1.3-.4 1.3-.8 0-.3-.9-.3-.9-1s.5-1.2 1.3-1.2c.4 0 1.2.5 1.2 1 0 .7-.7.8-.8 1.2-.1.5.8.8 1.6.8s3.6 2 4 2.5c.5.3.9.3.5.7-.4.4-.2.8-.6.4-.2-.2-.4-.4-.4-.7 0-.3-3-1.8-3.5-1.5-.4.4 0 4.8 0 5.2 0 .7.9.7.8 1.8zm0 0" transform="matrix(.04996 0 0 .04663 -.4 -.9)" fill-rule="evenodd" fill="#d0d0d0" stroke-width=".1" stroke="#707070"/><path d="M4.6 4.2H5v.3h-.3zm0 0" fill-rule="evenodd" fill="#a7a7a7"/><path d="M4.6 4l.8 1v.1l-.8-1.2zm0 0" fill-rule="evenodd" fill="gray"/><path d="M180.7 42.5c0 4-3.4 7.3-6.8 7.3-4 0-7.4-3.3-7.4-7.3s3.3-7.3 7.4-7.3c3.4 0 6.8 3.2 6.8 7.3zm0 0" transform="matrix(.00578 0 0 .00482 3.6 3.8)" fill-rule="evenodd" fill="#d0d0d0" stroke-width="1.3" stroke="#707070"/><path d="M5.4 4.3H5h.4zm0 0" fill-rule="evenodd" fill="gray"/><path d="M4.6 4.5h.2-.2zm0 0" fill-rule="evenodd" fill="#a7a7a7"/><path d="M5.3 4.3zm0 0v.1h.1zm0 0M5.3 4.3v.1-.1zm0 .2h-.1a.7.7 0 01-.2 0H5.3zm-.5 0h-.2.1a.3.3 0 01.1 0zm0 0" fill-rule="evenodd" fill="gray"/><path d="M95.8 128s.7 1.6 3.6 1.6c2.8 0 3.8-.5 2.7-1.3-1.1-.8-3.4-.6-3 .1.2.8-.9 1-1.1.5-.3-.5-1.3-2 .5-2.2 2-.1 5.8-.7 6.8.4 1 1-1.1 2 .5 2.3 1.5.2 1.8-.3 4.5-.4 2.7-.2 3.8.5 4.7.4 1 0 .8-1.7 0-2-.7-.5-2-.6-2.5-1-.3-.5-1.3 0-1.2-.6 0-.5 1.4.3 1.4.1l.2-.2h-.3v-.2h0s-.3 0-.3 0h-.2c.2-.3.1-.3 0-.4h-.3v-.3c-.2 0-.2 0-.3.2v-.5s.2-.2.5-.2c.7 0 1 .8 1.3.8.2 0 .5-.8 1.4-.5l1.5.6c.5.3-.3.6 0 1s2.1 1.7 1.6 3.2c-.5 1.4-2 1.6-2 2.2-.2.6 4.3.4 5.4.6a3.2 3.2 0 011.9 1.2l-2 .1s-1-.5-3.5-.6c-2.5 0-3.4-1-4.4-1.2l-4 .2-3-.3c-.6 0-4.2 1.6-4.2 2h-2.4s.3-.9 1.7-1c1.3-.2 2.7-.8 2.6-1.2l.4-2.6c0-.6.6-1 .5-1.2 0-.4-1.7-.7-3.2-.7s-3.1.1-3.4.4c-.2.4 0 1.5.3 1.3.3 0-.1-.8.2-1a8 8 0 012-.2c.8 0 2 .7 2 1 0 .1.5.8-.1 1.1-1 .4-2 .4-3.1.4-1 0-2-.3-3-.8-.4-.3-.7-1-.7-1zm0 0" transform="matrix(.04996 0 0 .04663 -.4 -.9)" fill-rule="evenodd" fill="#d0d0d0" stroke-width=".1" stroke="gray"/><path d="M5.3 5zm0 0" fill-rule="evenodd"/><path d="M6 4.7H6.4h-.1V5v-.1H6zm0-.5H6V4v.2H6zm-.3-.3l.1-.1V4H6 6v-.2l-.2.1zm-.6-.2v-.2.2h.2zm-.3 0v-.2.2H5zm-.6.3l.1-.1a.2.2 0 010 .1.2.2 0 01-.1 0H4a.2.2 0 010-.1h0V4h.1a.2.2 0 00.1 0zm0 1.3h-.1l-.2-.1.2.1v-.1zM4 5a.1.1 0 000-.1h-.1V5zm0 0a.2.2 0 01-.1 0v-.1-.1H4V5zm0-.3h-.2v-.2H4v.1zm-.1 0v-.1-.1.2zm.5-.8v-.2h.3-.2v.1zm0-.1h.2v-.1h-.1zm1-.1h.2v.2-.1l-.1-.1zm.1 0h.1zm.5.7h.2v.1l-.1.1v-.2zm.1 0l.1.1v-.1zm0 0" fill="#d0d0d0"/></svg>