<svg xmlns="http://www.w3.org/2000/svg" width="20" height="14"><defs><radialGradient id="a" gradientUnits="userSpaceOnUse" cx="842.3" cy="103.7" fx="842.3" fy="103.7" r="25.9" gradientTransform="matrix(.0042 .00166 -.00174 .00394 5.8 5.6)"><stop offset="0" stop-color="#fff"/><stop offset="1" stop-color="#f15770"/></radialGradient><radialGradient id="b" gradientUnits="userSpaceOnUse" cx="651.5" cy="550.5" fx="651.5" fy="550.5" r="25.9" gradientTransform="matrix(-.00042 -.0042 .00418 -.00037 6.3 10)"><stop offset="0" stop-color="#fff"/><stop offset="1" stop-color="#f15770"/></radialGradient><radialGradient id="c" gradientUnits="userSpaceOnUse" cx="380.8" cy="740.4" fx="380.8" fy="740.4" r="25.9" gradientTransform="matrix(.00151 .00169 -.0035 .00282 13.4 5)"><stop offset="0" stop-color="#fff"/><stop offset="1" stop-color="#f15770"/></radialGradient></defs><path d="M13.3 0H20v14h-6.7zm0 0" fill="#ce1126"/><path d="M6.7 0h6.6v14H6.7zm0 0" fill="#fff"/><path d="M0 0h6.7v14H0zm0 0" fill="#006847"/><path d="M355.8 289.4l.2 4.4 1.8-1-1.4-3.6zm0 0" transform="scale(.03125 .02917)" fill="#fcca3e" stroke-width=".3" stroke="#aa8c30"/><path d="M357 288.2c0 .8-.6 1.4-1.4 1.4s-1.4-.6-1.4-1.4c0-.8.7-1.5 1.4-1.5s1.4.7 1.4 1.5zm0 0" transform="scale(.03125 .02917)" fill="#fcca3e" stroke-width=".2" stroke="#aa8c30"/><path d="M361.1 296.4l-3.2-3.1-1.5 1.2 4.5 2.6zm0 0" transform="scale(.03125 .02917)" fill="#fcca3e" stroke-width=".3" stroke="#aa8c30"/><path d="M360.9 298.3c-.5-.7-.3-1.6.4-2 .6-.6 1.4-.5 2 0 .4.8.2 1.6-.4 2-.6.6-1.6.5-2 0zm0 0" transform="scale(.03125 .02917)" fill="#fcca3e" stroke-width=".2" stroke="#aa8c30"/><path d="M386.3 249.6l3.4 3.3.4-1.7-3.1-2zm0 0" transform="scale(.03125 .02917)" fill="#fcca3e" stroke-width=".3" stroke="#aa8c30"/><path d="M387.3 248.7c0 .8-.7 1.3-1.4 1.3s-1.4-.5-1.4-1.3.6-1.3 1.4-1.3 1.4.5 1.4 1.3zm0 0" transform="scale(.03125 .02917)" fill="#fcca3e" stroke-width=".2" stroke="#aa8c30"/><path d="M395.3 251.7L390 253l.5-1.8 4.4-.4zm0 0" transform="scale(.03125 .02917)" fill="#fcca3e" stroke-width=".3" stroke="#aa8c30"/><path d="M397.4 250.8c0 .7-.6 1.4-1.4 1.4s-1.4-.7-1.4-1.4c0-.8.6-1.4 1.4-1.4s1.4.6 1.4 1.4zm0 0" transform="scale(.03125 .02917)" fill="#fcca3e" stroke-width=".2" stroke="#aa8c30"/><path d="M378 276.8l-3.3-4.8.6-.3 3.4 4.2zm0 0" transform="scale(.03125 .02917)" fill="#fcca3e" stroke-width=".3" stroke="#aa8c30"/><path d="M375.9 270.8c0 .8-.6 1.3-1.4 1.3s-1.4-.5-1.4-1.3.6-1.3 1.4-1.3 1.4.5 1.4 1.3zm0 0" transform="scale(.03125 .02917)" fill="#fcca3e" stroke-width=".2" stroke="#aa8c30"/><path d="M378.1 277l4 .6.1-.4-3.3-1.4zm0 0" transform="scale(.03125 .02917)" fill="#fcca3e" stroke-width=".3" stroke="#aa8c30"/><path d="M384.8 277.6c0 .8-.7 1.5-1.6 1.5-.7 0-1.3-.7-1.3-1.5 0-.6.6-1.3 1.4-1.3.8 0 1.4.7 1.4 1.3zM284.6 288c0 .9-.5 1.3-1 1.3s-1-.4-1-1.3c0-.6.5-1.2 1-1.2s1 .7 1 1.4zm0 0" transform="scale(.03125 .02917)" fill="#fcca3e" stroke-width=".2" stroke="#aa8c30"/><path d="M284.6 290.4l1 5-1.4-.6-.3-4.3zm0 0" transform="scale(.03125 .02917)" fill="#fcca3e" stroke-width=".3" stroke="#aa8c30"/><path d="M285.8 288.6c.4.7-.6 1.9-1.6 2.2-1 .4-2.3-.2-2.3-1.2s1.6-.4 2-.6c.6-.3 1.2-1.2 1.9-.4zm-7.2 7.6c0 .7-.7 1.3-1.6 1.3s-1.6-.6-1.6-1.3c0-.5.7-1 1.6-1s1.6.5 1.6 1zm0 0" transform="scale(.03125 .02917)" fill="#fcca3e" stroke-width=".2" stroke="#aa8c30"/><path d="M279.6 296l4.8-.2-.8-1-4 .4zm0 0" transform="scale(.03125 .02917)" fill="#fcca3e" stroke-width=".3" stroke="#aa8c30"/><path d="M280 295.4c.5 1.3.5 3-.9 2.7-1.4-.1-1-1.4-1.2-1.9-.1-.8-1-1.6-.1-2.4.7-.8 2 .4 2.2 1.6zm-14.8-26.2c0 .8-.3 1.3-.8 1.3s-.9-.5-.9-1.3.4-1.3.9-1.3.9.5.9 1.3zm0 0" transform="scale(.03125 .02917)" fill="#fcca3e" stroke-width=".2" stroke="#aa8c30"/><path d="M264.4 272.4l.1 4.6-1.3-1v-3.9zm0 0" transform="scale(.03125 .02917)" fill="#fcca3e" stroke-width=".3" stroke="#aa8c30"/><path d="M266.3 271c.2 1-1.4 1.5-2.6 1.4-1-.3-1.8-.7-1.6-1.7.1-1 1.5-.8 2-.6.4.4 1.8-.6 2.1.8zm-8.6 5.6c0 .2-.6.6-1.4.6s-1.7-.4-1.7-.6c0-.4.8-.8 1.7-.8s1.4.4 1.4.8zm0 0" transform="scale(.03125 .02917)" fill="#fcca3e" stroke-width=".2" stroke="#aa8c30"/><path d="M259.1 276.6l3.6-.4 1.6 1.2-5.3-.2zm0 0" transform="scale(.03125 .02917)" fill="#fcca3e" stroke-width=".3" stroke="#aa8c30"/><path d="M257.8 274.6c1 0 1.6 1 1.4 2.2 0 1.1-1 2-2 2-.8-.2-.7-1-.7-1.2 0-.2.5-.6.6-1 0-.4-.4-1.2-.1-1.6 0-.4.3-.4.8-.4zm-3-28.4c-.4.6-1.2 1.2-1.6.9-.4-.3-.2-1.2.2-1.7.3-.8 1-1.1 1.3-.8.6.2.6.9 0 1.6zm0 0" transform="scale(.03125 .02917)" fill="#fcca3e" stroke-width=".2" stroke="#aa8c30"/><path d="M250.8 253.5l2-4.8-.3-.3-2.4 3.4zm0 0" transform="scale(.03125 .02917)" fill="#fcca3e" stroke-width=".3" stroke="#aa8c30"/><path d="M252.4 248.7a2 2 0 01-1-2.3c.3-.6 1.2-.2 1.2-.2l.8.8c.3.1 1 0 1.3.5.6.5.3 1.2 0 1.3-.4.2-1.4.4-2.3-.1zm-8.5-.7c.7.4 1.1 1.1.8 1.6-.2.4-1 .4-1.7 0s-1-1-.8-1.6c.2-.4 1-.4 1.7 0zm0 0" transform="scale(.03125 .02917)" fill="#fcca3e" stroke-width=".2" stroke="#aa8c30"/><path d="M246 250.2l3.8 2.3v1.7l-4.2-3.5zm0 0" transform="scale(.03125 .02917)" fill="#fcca3e" stroke-width=".3" stroke="#aa8c30"/><path d="M246 250.6c-.8 1-1.6 1-2.3.7-.7-.5 0-1.3 0-1.3l.7-.6c.2-.4 0-1 .7-1.4.7-.4 1.2 0 1.3.3.1.4.3 1.5-.4 2.3zm0 0" transform="scale(.03125 .02917)" fill="#fcca3e" stroke-width=".2" stroke="#aa8c30"/><path d="M11.1 8.5zm0 0v-.1zm.2.1H11h.2zm0 0v.1zm.8-1.3zm0 0zm.3 0zm0 0M12.3 7.3zm-.5.7zm0 0h-.1v-.1zm.1 0v.1zm0 0M12 8v.1zm-3 .4h-.1zm0 0M8.9 8.5zm-.1.1zm0 0h-.1zm-.2 0zM8.3 8h-.1.1zm0 0zm-.2.2a.6.6 0 00.1 0h-.1zm0 0zm0 0H8zM8 7.2h-.1zm0 0M7.9 7.3zm-.2 0v.1-.1zm0 0h-.1zm0 0h-.1zm0 0" fill="#aa8c30"/><path d="M12.5 7l-.2.2v.1h-.1V7.7h.1L12 8h-.2V8l-.1.1v.1l-.1.3h-.5l-.1.1v.1h-.2.1l.1.1c-.1 0-.3.2-.4.1l-.3-.1H10v-.1H10.4l.3-.1h.5v-.1-.1h.1l.1-.2h.1V8v.1h.2a.1.1 0 00.1 0v-.4l.1-.2h.2v-.7l.1.2.1-.3V7l.1-.1.1.2zm-2.1 1.9h-.1a.8.8 0 00-.2-.1h.2V9zm0 0" fill="#9ca168"/><path d="M11.1 8.6a.8.8 0 01.1 0l.1-.1h.3l.1-.2h.1a.9.9 0 01-.3.2.6.6 0 01-.2 0 .2.2 0 00-.1 0l-.1.1zm.4-.3a.6.6 0 00-.2.2l.2-.2h.2V8l-.2.2zm-.3.2l.1-.1.2-.2V8v.1l-.2.2v.2zm0 .3H10.5h-.2-.3.2l.3.1.4-.1h.1zm-.8 0l.2-.1.2-.2h0a.4.4 0 00-.2 0v.2a.4.4 0 01-.2 0zm0 0h-.2-.1.1a.2.2 0 01.1.1zm0 0h.2l.3-.1h.2a.3.3 0 00-.1 0h-.4a.5.5 0 01-.2 0zm1.8-1.2L12 8l-.2.2.1-.1.2-.1.1-.3h0zm-.3.3l.1-.1.1-.2v-.2a1 1 0 00-.2.3V8zm0 .1v-.4l.2-.2-.2.1a.2.2 0 000 .2V8zm.3-.6v-.1l.1-.1.1-.2v-.2.2l-.1.2v-.1-.2-.2a.6.6 0 000 .3v.2l-.1.1v.1zm-.1-.6v.3a.6.6 0 010 .2V7v-.2-.1zm0 0" fill="#717732"/><path d="M9.6 8.9a1 1 0 01.3-.2v.1h-.2zm0 0" fill="#9ca168"/><path d="M9.8 8.7H9.5l-.2-.1v.1l-.2-.1v.1H9h-.1.2V9H9l.1-.1v.1h.4v-.1H10v-.1zm-.9 0v-.1l-.2-.1V8.1h-.2v-.1h-.2a.8.8 0 01-.2-.2V7.5H8v-.1h-.1a.3.3 0 000-.1l-.1-.2.1-.2h-.1l.1-.1c0-.1 0 0 0 0v-.2h-.1v.1l-.1.1V7h-.1v.1h.1v.2l.1.1v.1h-.1v.2h0l.1.1H8V8H8l.2.1.1.1s.1.1 0 .2c0 0 0-.1 0 0l.2.1h-.2l.1.1h.2l.3.1zm0 0" fill="#9ca168"/><path d="M9.6 8.9h.2a.7.7 0 01.1-.1h-.1l-.1.1h-.1zm.3-.2a.2.2 0 00-.1 0 .2.2 0 00-.1 0v.1h.2zm-1.6-.6L8 8a.9.9 0 00.2.1zm1.1.8l.1-.1v-.1h0l-.2-.1c0 .1-.1 0-.2 0 0 .1 0 0-.1 0l-.1.1h-.1a1.3 1.3 0 01.3 0H9h.1v.1h.1v-.1h.1v.1h.1v-.2.2zm-.6-.4v-.2s-.1.1-.1 0L8.6 8v.1c-.1 0 0 0 0-.1H8.2h.1a.6.6 0 000 .1V8v.2h-.1a.5.5 0 00.2 0h.1a.5.5 0 010 .1h-.2.2v.1h.1zm-1-1v-.1a.4.4 0 000-.2h-.1V7h-.1.2L7.6 7v-.1H8h-.1v-.1-.1h-.1V7h-.1V7c-.1 0 0 .1 0 .1l.1.1a.4.4 0 01.1.2zm.4.5v-.1-.2H8v-.1s0-.1 0 0H8v-.1h-.1c-.1 0 0 .1 0 .1a.5.5 0 01-.1 0H8l.1.1v-.1.2h-.2H8.1 8A.6.6 0 008 8zm0 0" fill="#717732"/><path d="M9.8 9l.1-.2v-.1h.2v.2h.2V9h-.4zm0 0" fill="#fff"/><path d="M10 8.7v.2h-.2V9h-.1l.2-.2v-.1zm.2.4L10 9H10h.1v.1zm0 0" fill="#016848"/><path d="M10 8.7h.1v.1a.3.3 0 010 .1l-.2.1a.7.7 0 000 .1.3.3 0 010-.1l.1-.2v-.1zm0 0" fill="#cd202a"/><path d="M10.4 9H10v-.1h.2zm0 0" fill="#cd202a"/><path d="M345 286.3s-3.6-1.3-3.4-2.6c.3-1.2 8.3-3.3 8.3-3.3l.1-2.1s-1.3-.1-3.3.5c-2 .7-5 1.6-8.4 1.6-11.6-.9-23-1.6-34.6-2.2-3.6-.3-6-6-6-6l-1.7.3s.5 2.9-.4 3.1a64.8 64.8 0 01-13.9-6l-.6 2.5s7.3 4 7.1 5.5c-.2 1.5-2.4 1.4-2.4 1.4l1 1.8c.3 0 12 .6 12.3 4 0 1.5-3 2.3-3 2.3l1 1.2v.7s6.6 0 8.5 1c1.8 1 2.6 2.6 5 3.8 2.1 1.2 17.3 1 19.6.3 2.7-.7 4.3-3.7 8.7-5 4.4-1.4 5.7-1.4 5.7-1.4zm0 0" transform="scale(.03125 .02917)" fill="#30c2dc" stroke-width=".5" stroke="#0872a7"/><path d="M286.6 280.7c0 1.2-1 2.2-2.1 2.2a2.2 2.2 0 01-2.1-2.2c0-1.2 1-2.1 2.1-2.1s2.1 1 2.1 2.1zm11.9-9.8c0 1.1-1 2-2.1 2s-2.1-.9-2.1-2c0-1.2 1-2.1 2-2.1s2.2 1 2.2 2.1zm50.1 15.7c0 1.2-1 2.2-2.1 2.2a2.2 2.2 0 01-2.1-2.2c0-1.2 1-2.1 2.1-2.1s2.1.9 2.1 2.1zm0 0" transform="scale(.03125 .02917)" fill="#fff" stroke="#0872a7"/><path d="M8.6 7.8l.1.2h.1v-.1c0-.1-.2-.1-.2 0zm0 0" fill="#f8c83c"/><path d="M8.8 7.9h-.1zm0 0" fill="#fff"/><path d="M9.3 8.4c-.1.1-.2 0-.2 0h.2zm0 0" fill="#f8c83c"/><path d="M9.2 8.4zm0 0" fill="#fff"/><path d="M11 8.2l.1-.1H11c-.1 0-.1 0 0 .1zm0 0" fill="#f8c83c"/><path d="M11 8.2zm0 0" fill="#fff"/><path d="M321.9 276.4l-.9-.6H314.8l3.4 10 4 5.8 1.6.6 3-.2.7-1.6-1.3-9.6zm0 0" transform="scale(.03125 .02917)" fill="#f9aa51" stroke-width=".5" stroke-linecap="round" stroke-linejoin="round" stroke="#953220"/><path d="M310.6 277l.1-1.1 2-.1h2s2.4 3 3.2 4.8c.9 1.9 1.7 4.8 2.7 6.5 1 2 3.1 5.1 3.1 5.1h-4l-2-.6-5.4-9zm0 0" transform="scale(.03125 .02917)" fill="#f9aa51" stroke-width=".5" stroke-linecap="round" stroke-linejoin="round" stroke="#953220"/><path d="M308.3 275.8h2.4a14.2 14.2 0 014 5.5c1 2.8.6 3.2 1.8 6.1 1.4 3 3.3 5 3.3 5s-4 .1-6-.3c-2.4-.4-3-.3-3.7-1l-1.7-1.3h-2.1l.4-3-.6-7 .1-3.5zm23.3 1.8l-3.7-1.4-7-.4.6 3.4c.5 2.7 1.4 5.4 2.6 7.8 1.1 2 2.1 4.4 2.8 5 .6.5 4.6-1.1 4.6-1.1l2.6-.4-.4-2.8-.3-1 .6-8-.6-1.2zm0 0" transform="scale(.03125 .02917)" fill="#f9aa51" stroke-width=".5" stroke-linecap="round" stroke-linejoin="round" stroke="#953220"/><path d="M307.1 277.6c0 .8 1 1 1.1.8.3 0 1-.2 1-1.4s-.6-2-2-2.2c-1.4 0-2.6 1.8-2.6 3s1.1 1.8 1.1 2.2c0 0-1 1.3-1 3.3 0 1.8 1.6 3.4 1.6 3.4s-1.7 1.4-1.7 2.9c0 1.3 1.3 2.2 2.6 2.2 1.2 0 2.8-.8 2.8-1.8s-1-1.7-1.8-1.7-1 .5-1 .9m25.6-11c0 1-.6 1-1 1s-1.2-.4-1.2-1.6c0-.9 1.4-1.4 2.4-1.4.9 0 2.4 1.2 2.4 2.6 0 1.5-1 2.6-1 2.6s.6.3.6 2.3c0 1.8-1.3 3.2-1.3 3.2s1.7.6 1.7 2.7-1.4 2.5-2.3 2.5c-1 0-2.6-.5-2.6-1.9 0-1.3.8-1.9 1.5-1.9.6 0 1.3.9 1.3 1.7" transform="scale(.03125 .02917)" fill="#f9aa51" stroke-width=".5" stroke-linecap="round" stroke-linejoin="round" stroke="#953220"/><path d="M9.7 8.4l.3.1h.3a6.6 6.6 0 01-.5 0h-.1zm.6-.3v.1H10l.2-.1zm0 0" fill="#953220"/><path d="M10.8 8zm.3 0h.1zm0 0M11.3 8h-.1zm.1-.1zm-.2-.3c-.1 0 0 0 0 0zm-.2 0v.1zm0 0" fill="#231f20"/><path d="M342.8 268.4l-3 3s6.7 3.7 11.8 3.6c5-.2 10.8-4 11.1-5.1.6-.7 0-4.3-.4-5.4-.8-1-4.3-3.7-5.6-3.7-1.3 0-3.7 1.8-5.8 4s-2 3.9-5 3.7zm0 0" transform="scale(.03125 .02917)" fill="#8cbebf" stroke-width=".5" stroke="#04534e"/><path d="M10.7 7.9h.3l.1-.2h.2V8H11V8h-.4v-.1zm0 0" fill="#0c8489"/><path d="M11 7.7zm.1.1zm0 .1zM11 8zm-.2 0zm0 0" fill="#04534e"/><path d="M11.1 7.8zm0 .1zM11 8zm0-.2zm-.2.2zm0 0" fill="#8cbebf"/><path d="M10.9 7.9c-.1 0-.1 0 0 0zm.1 0zm0 0M11 7.9zm0-.2zm.2 0v.1zm0 .2H11zm0 0" fill="#231f20"/><path d="M11.3 7.8L11 8a1 1 0 01-.3 0h.5l.1-.1zm0 0" fill="#04534e"/><path d="M8.6 7v.1zm.2.3zm-.5 0zm.1.2zm.2.1zm0 0" fill="#231f20"/><path d="M282.6 257.1s1-6-4-10.4c-5-4.3-8.1-3.2-9.9-1.6-1.6 1.6-3 6.7 2 11.2 5.4 4.6 11.8 3.1 11.8 3.1zm0 0" transform="scale(.03125 .02917)" fill="#8cbebf" stroke-width=".5" stroke="#04534e"/><path d="M8.4 7.3v-.1h.3v.4h-.2v-.2zm0 0" fill="#0c8489"/><path d="M8.8 7.5c-.1 0-.4 0-.4-.2v.1l.1.1h.2zm0 0M8.7 7.5zm0-.2zm-.1.2zm0-.2zm-.1 0zm0 0zm0 0h.1zm0 0" fill="#04534e"/><path d="M8.5 7.2zm0 .2zm0-.2h.1zm0 .1h.1zm.2 0zm-.1.2zm0 0h.1zm0 0" fill="#8cbebf"/><path d="M8.7 7.3zm0-.1h-.1zm-.2 0zm0 0M8.5 7.2zm0 .1s.1 0 0 0zm0 0zm.2.1zm0 0M8.7 7.4zm-.1 0zm0 0" fill="#231f20"/><path d="M8.5 7.1l-.1.1v.1-.1zm.3.4v-.1-.2.2zm0 0" fill="#04534e"/><path d="M9 7.4zm-.2.3zm.2.1zm0 0zm0 0" fill="#231f20"/><path d="M301.5 261.2s-5-7.1-12.8-7.5a7 7 0 00-5.4 1.7 7.1 7.1 0 00-2.6 5.2c.2 1.6 2.6 5.2 11 5.8 8.2.7 9.6-3.9 10-4 .2-.3-.2-1.1-.2-1.1zm0 0" transform="scale(.03125 .02917)" fill="#8cbebf" stroke-width=".5" stroke="#04534e"/><path d="M9.2 7.5h.1v.1l-.2-.1h-.3v.2H9.5v-.2h-.2zm0 0" fill="#0c8489"/><path d="M9 7.5zm-.1 0zm.2.1zm0 0" fill="#04534e"/><path d="M9 7.7zm0 0" fill="#8cbebf"/><path d="M9.1 7.7h.1zm.1 0zm0 0" fill="#04534e"/><path d="M9 7.5zm0 0h-.1zm0 .2zm.1 0v-.1zm.2 0zm-.1 0zm0 0" fill="#8cbebf"/><path d="M9.2 7.6zm-.1.1zm0-.1zm0 0M9 7.6zm0 0zm0 0M9 7.7h-.1zm-.1-.2zm0 0H9zm0 0" fill="#231f20"/><path d="M9.4 7.7H9l-.3-.1.1.1h.4zm0 0v-.1L9 7.4h.2v.1l.1.1zm0 0" fill="#04534e"/><path d="M9.4 7.5zm.1 0c.1 0 .1 0 0 0zm0 0M9.6 7.4zm.2 0v.1zm0 0v.1zm-.3.5zm.2 0zm.1 0h.1zm0 0M9.9 8v-.1zm0 0" fill="#231f20"/><path d="M299.9 264.1c0-2.4 3.5-8 7.5-8 1.6 0 4.9 1 7.5 2.1 2.2 1 3 2 4.4 2.4 1.4.4 3.7.2 3.7.2l5-.6-4 5.6-1.4 1.3s-1.2 2.4-4.7 3.8c-3.6 1.4-9.5.4-12.1-.4-2.8-.6-6-3-6-6.4zm0 0" transform="scale(.03125 .02917)" fill="#8cbebf" stroke-width=".5" stroke="#04534e"/><path d="M9.4 7.7a.4.4 0 010-.2.2.2 0 01.2 0 1.2 1.2 0 01.2 0 .5.5 0 01.1 0v.1H10.3v.2H10a.3.3 0 01-.2.1.5.5 0 01-.1 0 1 1 0 01-.2 0 .3.3 0 01-.2 0 .2.2 0 010-.2v.1a.3.3 0 00.2.1h.2a.5.5 0 00.1 0 .3.3 0 00.2-.1l.2-.2H10a.3.3 0 01-.1 0h-.2a1.3 1.3 0 000-.1.4.4 0 00-.2 0 .4.4 0 00-.2 0 .2.2 0 000 .2zm0 0" fill="#04534e"/><path d="M10.1 7.7l-.5-.2-.2.2v.1l.3.1H10v-.1zm0 0" fill="#0c8489"/><path d="M9.6 7.7zm0-.1zm.2 0zm0 .2h.1zm0 0zm-.2 0zm0 0" fill="#04534e"/><path d="M9.6 7.7zm0-.1zm.3 0zm0 0" fill="#8cbebf"/><path d="M9.8 7.7zm0 0" fill="#04534e"/><path d="M9.6 7.8zm.2 0h-.1v-.1zm.1 0zm0 0h-.1c-.1 0 0 0 0 0zm0 0" fill="#8cbebf"/><path d="M9.8 7.7h.1zm0-.1zm-.1 0v.1zm0 0M9.6 7.7h.1zm0-.2zm-.1.1zm0 0M9.5 7.7zm.2.1h.1zm-.2 0zm0 0" fill="#231f20"/><path d="M10 7.8a.5.5 0 01-.3.1.5.5 0 01-.3-.2V8h.6zm0-.2h-.1l-.3-.1h-.2H10zm.2 0H10zm0 0" fill="#04534e"/><path d="M320.8 280.4c0 .4.4 1 1 1h1.6l3.6-.3 1.3-1.5.7-3 1-1.2 3.3-2 2.8-.9h1.9l2.5-.9 1.9-1 .9-1.1.7-2-.8-2.5-2-2.6-3.4-1.2H335l-3 1-5.5 1.2s-3 1.4-4.3 3.8c-1.3 2.3-1.2 3-1.4 6a62 62 0 000 7.2zm0 0" transform="scale(.03125 .02917)" fill="#0c8489" stroke-width=".5" stroke="#04534e"/><path d="M10 8.1h.1a.6.6 0 01.1-.2h.1a.2.2 0 010-.1h.4v-.1h-.5v.1l-.1.1v.2zm0 0M10.2 8zm.2-.1zm.1 0zm-.4 0zm0 0" fill="#8cbebf"/><path d="M10.2 8zm.4-.2zm-.3 0V8zm0 0V8h.1zm.2 0zm0 0" fill="#04534e"/><path d="M10 8.2h.2l.1-.2h.2l.2-.2v-.1h-.2-.1-.2v.1l.1-.1.2-.1h.2v.2l-.2.2a.4.4 0 00-.2 0v.2H10zm0 0" fill="#04534e"/><path d="M10.1 7.9zm.1 0a.4.4 0 010-.1zm0 .1zm0 0M10.3 8h-.1zm.1-.2zm0 0M10.5 7.9h-.1zm0-.2zm.1 0c0 .1 0 0 0 0zm0 .2zm0 0" fill="#231f20"/><path d="M9.3 7.4l-.1.2-.1-.2.1-.1v.1zm0 0" fill="url(#a)"/><path d="M295.4 247l-1.6 4.2 1.3-.2.6-3.8zm0 0" transform="scale(.03125 .02917)" fill="#fcca3e" stroke-width=".3" stroke="#aa8c30"/><path d="M296.1 245c-.6 0-1.1.5-1.2 1.2 0 .6.4 1.2 1 1.3.6 0 1.1-.4 1.2-1 0-.7-.4-1.3-1-1.4zm0 0" transform="scale(.03125 .02917)" fill="#fcca3e" stroke-width=".2" stroke="#aa8c30"/><path d="M369.8 255.8l-4.3 4 1.8.4 2.8-3.9zm0 0" transform="scale(.03125 .02917)" fill="#fcca3e" stroke-width=".3" stroke="#aa8c30"/><path d="M371.6 254c-.7-.3-1.6 0-2 .7-.5.7-.4 1.5.4 2 .8.3 1.6 0 2-.8.4-.5.3-1.4-.4-1.8zm0 0" transform="scale(.03125 .02917)" fill="#fcca3e" stroke-width=".2" stroke="#aa8c30"/><path d="M262.8 233l2.2 4.9 1-1.4-2.6-3.7zm0 0" transform="scale(.03125 .02917)" fill="#fcca3e" stroke-width=".3" stroke="#aa8c30"/><path d="M261.9 230.9c-.6.4-.6 1.3-.1 1.9.4.6 1.3.6 1.8.2.6-.5.6-1.3.1-2-.4-.5-1.3-.5-1.8-.1zm0 0" transform="scale(.03125 .02917)" fill="#fcca3e" stroke-width=".2" stroke="#aa8c30"/><path d="M9.3 7.2zm0 0M9.2 7.2zm2.4.2zm0 0M11.5 7.5zm-3.3-.8c0 .1 0 .1 0 0v.1zm0 0M8.3 6.8zm0 0" fill="#aa8c30"/><path d="M8.4 7.2L8.3 7V7l.2.1v.2zm0 0" fill="url(#b)"/><path d="M8.2 7zm0 0M8.3 7v-.1zm0 0M8.4 7a.1.1 0 000-.1zm.7.3zm0 0M9.2 7.3zm0 0M9.3 7.4v-.1zm2 .1h.1zm0 0M11.4 7.5v.1h.1zm0 0M11.4 7.6h.1zm0 0" fill="#e92736"/><path d="M8.3 7s-.1 0 0 0zm0 0zm0-.1h.1zm.9.4zm0 0zm0 0h.1zm2.2.2zm0 0zm0 .1zm0 0" fill="#f7e204"/><path d="M11.4 7.7h-.2.1l.1-.1v.1zm0 0" fill="url(#c)"/><path d="M9 5.8h-.3v-.2-.1l.1-.2H9v.2h-.1a.2.2 0 00.1 0l-.1.1H9zm-.5.5v.3l.1.2a.2.2 0 010 .1c.1 0 .1.3.3.3L9 7 9 7a.1.1 0 01-.2 0v-.2l-.2-.2v-.3l-.1-.1zm0 0" fill="#a8ac71"/><path d="M8.9 5.5v-.2.1zm0 0" fill="#f1a720"/><path d="M9 6.8l-.1-.3c0-.2.3-.3.3-.4 0-.1.1-.2-.1-.3V6l-.2.2-.1.2v.2s0 .2.2.3zm0 0" fill="#a8ac71"/><path d="M8.8 6.9V7h-.1.1zm-.1 0zm0-.1h.1zm0 .3h.1zM9 7zm-.1.1zm.1 0V7zm0 0H9h-.2zm-.1-.5v-.1zm0 0zm0 0" fill="#78732e"/><path d="M8.6 5.5h.2v-.1h-.2zm0 0" fill="#c6c7a6"/><path d="M8.8 5.4zm0 0" fill="#1c242f"/><path d="M8.7 5.4a.1.1 0 01.2 0h-.1zm0 0" fill="#a8ac71"/><path d="M8.9 6.5zm-.2 0v-.2l.1.1zm.2 0a.2.2 0 010-.1m-.1-.1v-.1.1zm.1 0zm0-.1zm0 0M9 6.3zm0-.1V6zm.1-.1V6zm0 0a.2.2 0 00.1 0zm-.3-.3H9zm.3.4zm.2-.1V6h-.1zm0 0M9.1 6h.1zm.1 0v-.1zm0 0" fill="#78732e"/><path d="M8.5 6.5h0zm0-.2h.1zm.1.1zm-.1-.1zm0 0v-.1zm.2-.6a.4.4 0 000 .1.2.2 0 00.1 0H9a.1.1 0 010-.1h-.1a.1.1 0 00-.1 0zm0 0h.1v.1zm-.2.6h.1zm.7-.3v-.1L9 5.7V6h.1H9v.2a.2.2 0 01-.2 0v.2h-.1v.2l.1-.1v-.2h.2V6h.1zm-.3.5h-.1zm0-.1h-.1.1zm0-.1v-.1zm0 0V6H9a.7.7 0 000 .1zm.2-.1A.3.3 0 019 6zm0-.1V6h.1zm-.2.5h-.1v.1H9v-.1zm-.4 0h.1-.1zM9 7V7h-.1v-.1h-.1V7h.1v.1H9zm-.2 0V7h.1zm0 0h.1zm0-.3a.4.4 0 01.1 0h-.1V7zm0-.2h-.2v.1h.1zm0 .1a.2.2 0 00-.1 0v.1a.2.2 0 01.1 0zm-.1 0zm.2-1.3v.1-.1h-.1zm0 0" fill="#fff"/><path d="M9 5.7h-.2zm-.2 0zm0 .1zM9 7.1a.3.3 0 01-.1 0 .2.2 0 01-.1 0 .3.3 0 010-.1l-.1-.1-.1-.1a.2.2 0 01-.1-.2v-.1-.1-.1.5h.2V7.2H9zm0 0" fill="#78732e"/><path d="M9 7h-.1a.1.1 0 010-.1v-.1l-.2-.1v-.1-.1a.3.3 0 000-.2h-.1l-.1-.1.2.1a.3.3 0 010 .2.2.2 0 00-.1 0v.1l.1.1.1.1V7L9 7zm0 0" fill="#78732e"/><path d="M9.3 6.8a.4.4 0 010 .1v-.1zm0 0" fill="#a8ac71"/><path d="M266.4 214.6s-1.6.5-2.1-.2c-.4-.8-.2-1.5-.2-1.5 0-.2-1-.4-1-1.3.1-1 1.4-1 1.6-1s.4-1.4 1.3-1.3c.8 0 1.3 1 1.3 1zm0 0" transform="scale(.03125 .02917)" fill="#f8c83c" stroke-width=".3" stroke="#977c2e"/><path d="M268.3 215s-1.6.8-2 0c-.4-.7 0-1.7 0-1.8-.3-.1-1-.4-1-1.3.2-1 1-.6 1.4-.8.3-.2.6-1.4 1.6-1.2.8.2 1 1 1 1zm0 0" transform="scale(.03125 .02917)" fill="#f8c83c" stroke-width=".3" stroke="#977c2e"/><path d="M270.8 215.4s-.6.9-1.6.8c-1-.3-.6-1.8-.8-2-.1-.4-.9-.6-.8-1.5.1-1 1.1-1 1.5-1 .3 0 .6-1.6 1.4-1.4.8.2 1.3 1 1.3 1.4 0 0-1.6.6-1.8 1.6-.3 1 .8 2 .8 2zm0 0" transform="scale(.03125 .02917)" fill="#f8c83c" stroke-width=".3" stroke="#977c2e"/><path d="M9.2 6.7L9 6.6v-.2s-.2 0-.1.2l.1.2h.1zm0 0" fill="#af7029"/><path d="M9.1 5.9l-.2.2a.4.4 0 00-.1.1.3.3 0 000 .2v.3a.3.3 0 00.2 0h.2v.1H9a.3.3 0 01-.1 0l-.2-.4a.3.3 0 010-.2l.3-.1a.4.4 0 00.1-.2zm0 0" fill="#816c2a"/><path d="M9.3 6.8zm0 0" fill="#fff"/><path d="M9.4 6.8h-.1-.1L9 6.5h.4v.2zm0 0" fill="#fcca3d"/><path d="M9.4 6.8h-.1V7h.1v-.1zm0 0" fill="#af7029"/><path d="M9.4 6.8zm0-.9v-.1h-.1v-.1H9l.1.2a.2.2 0 01.1 0zm0 0" fill="#fcca3d"/><path d="M9.3 6zm0 0" fill="#af7029"/><path d="M9.4 7v-.1h-.1zm0 0" fill="#816c2a"/><path d="M9.4 6.9V7zm0 0" fill="#6f5b24"/><path d="M9.4 7v-.1zm0 0" fill="#404118"/><path d="M285.8 199.3s-3.8.3-6.6-.1c-2.6-.4-2-7.3-2-7.5 0-.2-1.6-1.8-1.4-3.3.3-1.4 5.2-5.5 5.8-5.9.5 0 1.5.4 1.5.4s1.1-1.2 1.6-1.2c.4 0 1 .7.8 1-.3.2-1.9 1.3-2 2-.3.8 0 1.5-.5 2.3-.5.6-1.4 1.7-1.5 2.4-.1.6-.4 1 0 1.4.5.2 2.1 0 3.5-.6s2-1.5 2.1-1.4c.1 0-.9 1.6-2.4 2.5-1.4.5-2.4 1.2-3.2 1.2 0 0-.8 2 1.8 2.1 2.6 0 4-.5 4-.5zm0 0" transform="scale(.03125 .02917)" fill="none" stroke-width=".2" stroke="#78732e"/><path d="M318.8 170.6s-7-1.3-7 4.4c0 2 .4 2.6 2 3.1 1.4.3 4.3.6 7 2.7 2.4 2.3 2.6 4 2.6 5.4 0 1.3-.6 2.5-.6 2.5l1.4 7.6 1.7 5.8 4.9-2.7 2.7-8.6-3.6-15zm0 0" transform="scale(.03125 .02917)" fill="#ab6d29" stroke-width=".4" stroke="#4d2a15"/><path d="M10.2 5.8v-.1h.1c.1 0 0 0 0 0v-.1h-.1.1a.3.3 0 000-.1l-.1-.1a.2.2 0 000-.1l-.1-.1H9.8V5h.4l.2.2v.5h-.2V6zm0 0" fill="#4d2a15"/><path d="M10 5h-.2v.1h.1zm0 0" fill="#d2a567"/><path d="M10.2 5.9V6l.2.3h.2l.2.1.1.2v-.2h.1v.1l.1.1v-.2.1h.1v.1-.2l.1.2V7h.1V7v-.5V6.8l.1.2v-.5h.1V7l.2-.8-.1-.2v-.2l-.2-.2-.2-.2-.2-.1v-.1H11l-.2-.1-.1-.1H10.4l-.2-.1H10v.2l.2.1.1.1v.5zm0 0" fill="#8f4620"/><path d="M10.4 6.4h.1v-.2V6.5zm0 0" fill="#ab6d29"/><path d="M11.7 7.1V7v-.3l-.1-.1v-.2l-.1-.2h.2v.1h.1v.9zm0 0" fill="#4d2a15"/><path d="M11.7 6.7v-.4V6.6zm0 0" fill="#8f4620"/><path d="M11.5 7v-.3-.2a.8.8 0 010-.1l-.1-.2h-.1V6h.1l.1.3V7zm.1-.8l.1.1zm0 0" fill="#4d2a15"/><path d="M11.4 6.9v-.1a1.1 1.1 0 000-.3l-.2-.1v-.2H11V6h.1l.1.3v.2l.1.2V7zm-.2-.1v-.2-.1a1 1 0 01-.2-.2v-.1l.1.2h.1v.4zm0 0v-.1a.4.4 0 00-.1-.1l-.2-.2a1.2 1.2 0 00-.1-.1v-.1l.1.2h.2V6.8zm-.2 0v-.1l-.1-.1a.4.4 0 00-.1-.2h-.1.2V6.8zm.5-.7c.1 0 0-.2 0-.2v-.1l-.2-.3H11l.3.3v.3zm-.6-.7l.3.3.2.3h-.2l-.1-.3-.2-.1v-.2zm0 .4l.1.1.1.1-.3-.3zm-.1 0l.2.2h-.2v-.2zm0 0M10.3 6.1h.1V6s.2.1.2 0v-.1-.2h.2l-.1-.1v-.2h.2l-.1-.1H10.5v.6l-.1.2h-.1zm0 0" fill="#4d2a15"/><path d="M10.9 6.4a.2.2 0 00-.2 0h.1zm.2 0H11l-.1-.2v.2h.2zm.1 0v-.1l-.1-.1v.2zm.1 0v-.2.2zm.2-.3l.1.3-.1-.1V6zm0 0" fill="#ab6d29"/><path d="M10.6 6.3h.1v-.1V6v.2zm.2-.1V6 6l.1.2h-.1zm.4-.1V6zm0 0" fill="#d2a567"/><path d="M11 6.1V6v0h.1l.2.1H11zm.3 0h.1v-.3.3h-.1zm.4.3zm-.2-.5zm0 0v-.1zm.1.4h.1zm-.2-.7zm-.3-.2h.1v.1l-.1-.1zm0 0v-.1H11zm-.3-.1l.2-.1a1 1 0 010 .1h-.1zm0-.1V5v.2-.1zm-.2-.1a.5.5 0 00-.1-.1l.1.1v.1h.1zm-.1 0a.6.6 0 00-.3-.2L10 5H10.3a.3.3 0 01.1.1h-.1s0-.1 0 0h.2c0 .1 0 0 0 0zm-.3.8l.1-.2v-.4a.7.7 0 010 .3v.2h-.1zm.1.3h.2V6h.1v-.1h.1v-.1l.1-.1V6h-.1V6l-.1.1-.1.1h-.1zm0 0M10.7 5.6h.2l-.2-.2h.2v.2h-.2zm.1.8zm.2 0l-.1-.1.1.1zm.2 0l-.1-.2v.2zm.1 0v-.2zm.3 0l-.1-.1a.7.7 0 000-.1v.2zm.2-.2h-.1l-.2-.1h.1l.1.1zm0 0" fill="#d2a567"/><path d="M10.9 6.2v.1l.2.2V6.8s.1 0 0 0v-.3a1.1 1.1 0 01-.2-.2c-.1 0 0 0 0 0zm0 0" fill="#202020"/><path d="M11 6.7v-.1a.5.5 0 000-.2h-.2l.1.2v.1h.1l-.1-.2h.1v.2a.5.5 0 00.1.1v-.1zm0-.6l.1.3h.1v.3a.5.5 0 01.1.2v-.1l-.1-.2a.4.4 0 00-.1-.1.3.3 0 010 .1l.1.2v-.2a.4.4 0 000-.1v-.1a.5.5 0 01-.2-.2zm0 0" fill="#202020"/><path d="M11.1 6v.1a.2.2 0 00.2 0v.2l.1.2v.4a2.3 2.3 0 010 .3V7v-.2l-.1-.3v.3l.1.2v-.3-.2l-.1-.2v-.1h-.1V6zm0 0M11.3 6l.1.1v.2l.2.1V7l-.1-.1v-.3l-.1-.1.1.4v-.4-.2V6h-.2zm0 0" fill="#202020"/><path d="M11.5 6v.1h.3a.7.7 0 010 .4v.8h-.1v-.2V7v-.5h-.1V7h.1v-.4-.3.1a.6.6 0 010 .2v.2l.1-.3v-.3h-.2l-.1-.1zm-1.1.2h.1V6h.1a.2.2 0 000-.2h.1v-.1h.1v-.2-.2h.1v-.1h.2v.1c.1 0 0 0 0 0a1 1 0 01.2.2l.1.1c.1 0 0 0 0 0l.2.2-.3-.2-.1-.2.1.2.1.2s0-.2-.3-.4l-.2-.1v.1l.3.2.2.3-.3-.3-.2-.1a1 1 0 000 .2h.1l.1.1h.1v.2l-.2-.3h-.2l.1.2h.1-.1l-.1-.1.1.2-.2-.2.2.3-.2-.1v0h-.1s.1.2 0 .2V6v.1h-.1a.3.3 0 010 .2v-.1h-.1zm0 0" fill="#202020"/><path d="M11.8 6.2l-.3-.6-.4-.4.4.4.3.5v.1zm-1.5 0V6 6h.2l-.1-.1c.1 0 .2 0 .1-.1 0-.1.1-.2 0-.2a.2.2 0 000-.1v-.1h-.1.1v-.1l-.1-.1v-.1a1.1 1.1 0 00-.1 0 .7.7 0 00.2 0l.2.1V5v.1l.1.1v-.1.1h-.2.1a.3.3 0 010 .1l-.1-.1.1.2h-.1l.1.2h-.1V6h-.1a.1.1 0 010 .2V6a.4.4 0 00-.1 0v.1h-.1zm0 0" fill="#202020"/><path d="M11 5.3h.1v-.1l-.2-.1s-.3-.2-.7-.2H10h.1c.1 0 .5 0 .8.2h.2v.1zm-.7 0A1 1 0 0010 5l.2.1.1.1zm0 0" fill="#202020"/><path d="M10.3 5.6a.3.3 0 00-.1 0 .1.1 0 01.1 0zm0-.1l-.1-.1zm0-.2h-.1zm-.1 0l-.1-.1H10h.1zm-.2-.1h-.2.2zm0 0" fill="#d2a567"/><path d="M304.5 238.4s.9 1.6 2.6 1.6c1.8.1 3.1 2.5 3.1 2.5l-2 2-4.4.2-1.6-2.4zm0-1.6c.3-.3-1.3-3.4-2.4-3.8-1-.5.4 1 .1 1.6-.2.6-.3 1.4-.2 1.5 0 0 .9 1.4.4 2-.4.6 2.2-1.3 2.2-1.3zm0 0" transform="scale(.03125 .02917)" fill="#f8c83c" stroke-width=".3" stroke="#977c2e"/><path d="M303.8 241.3s.8.4 1.4.3c.7-.3 1.3-1 1.3-1m-3.6-.5s2.6-1.8 2.4-2.8c-.2-1-.7-1-1-1-.8.5-1.6 1.2-2 1.8-.2.3.6 2 .6 2zm0 0" transform="scale(.03125 .02917)" fill="#f8c83c" stroke-width=".3" stroke="#977c2e"/><path d="M301 241.5s.6 1.3 1.4 1.3c.9 0 2-.7 2-1.2.1-.5-.8-1.5-1.3-1.7-.6-.3-1.9.4-1.9.4v1.2zm0 0" transform="scale(.03125 .02917)" fill="#f8c83c" stroke-width=".3" stroke="#977c2e"/><path d="M303.4 239.9c0 .2-1.6 1-2.3 1-.5 0-1.6-1.2-1.2-1.4l1.5-.4c.4-.2.5-.8.7-.8s1 0 1.1.5c.2.5.4.7.2 1zm0 0" transform="scale(.03125 .02917)" fill="#f8c83c" stroke-width=".3" stroke="#977c2e"/><path d="M301.8 241s-2.6 3.3-3.7 3.2c-1-.2.5-5 .5-5l1.1.7c1 .1 1.8.5 2 .9zm0 0" transform="scale(.03125 .02917)" fill="#f8c83c" stroke-width=".3" stroke="#977c2e"/><path d="M297.3 238.4s3.2.7 3.3 1c.1.7-1.5 1.4-2.5 1.4-.9 0-.9-2.4-.9-2.4zm0 0" transform="scale(.03125 .02917)" fill="#f8c83c" stroke-width=".3" stroke="#977c2e"/><path d="M9 7.1h.2H9zm0 0" fill="#202220"/><path d="M9 7.1h.2H9zm0 0" fill="#4b4139"/><path d="M9 7l.1.1a.2.2 0 00.1 0zm0 0" fill="#202220"/><path d="M9 7l.1.1a.2.2 0 00.1 0H9h.1a.1.1 0 01-.1 0zm0 0M9 7.1h.2H9zm0 0" fill="#4b4139"/><path d="M9.1 7l.1.1V7zm0 0" fill="#202220"/><path d="M9.1 7l.1.1V7v.1zm0 0M9.1 7l.1.1zm0 .1zm0 0" fill="#4b4139"/><path d="M297 238.3c.8-.2 2.4 2 2.4 3.2 0 1.2-.5 2.7-1.3 2.7-.9 0-2.6-1.7-3-2.5-.4-.9-.9-1.4-.5-1.8.3-.4 2.4-1.6 2.4-1.6zm-8 .2s-1.4-1-1.9-.5-.4 2.3 0 2.5c.4.4 2-.6 2-.6l-.2-1.4zm0 0" transform="scale(.03125 .02917)" fill="#f8c83c" stroke-width=".3" stroke="#977c2e"/><path d="M288.8 239.7s-1.8.2-1.8 1 .9 1.6 1 1.8c.3 0 1.8-.8 1.8-.8zm0 0" transform="scale(.03125 .02917)" fill="#f8c83c" stroke-width=".3" stroke="#977c2e"/><path d="M289.5 241s-1.8.7-1.8 1.3c0 .6.8 1.7 1.3 1.7s1-1 1.3-1.3c.2-.2-.8-1.6-.8-1.6zm.8-5s-.3-.6-1-.2c-.8.3-1.6 1-1.6 2.3.2 1.1.7 2 .7 2l2.7-1zm0 0" transform="scale(.03125 .02917)" fill="#f8c83c" stroke-width=".3" stroke="#977c2e"/><path d="M290.5 238s-2.3.8-2.3 1.7c0 .8.6 1.6 1 2 .7 0 2.6-1.8 2.6-1.8l-1.3-1.8zm0 0" transform="scale(.03125 .02917)" fill="#f8c83c" stroke-width=".3" stroke="#977c2e"/><path d="M292.5 241.7s-2.3 1.5-2.5 1.5-1.3-1.2-1-2c.3-.8 1.8-1.3 2.3-1.6.6-.1 1.2 2.1 1.2 2.1zm2-8.3s-.8-.5-2-.4c-1.4 0-2.4 2-2.6 2.8-.1.9 0 2.6.5 2.9.5.2 3.4-2 3.4-2l.7-3.1zm0 0" transform="scale(.03125 .02917)" fill="#f8c83c" stroke-width=".3" stroke="#977c2e"/><path d="M291.8 240.3c-1-.2-1.8-1.5-1.7-2.3s2-2.2 3-2c1 .1.8 2.5.8 2.5s-1.1 1.9-2.1 1.8zm0 0" transform="scale(.03125 .02917)" fill="#f8c83c" stroke-width=".3" stroke="#977c2e"/><path d="M294.8 240s-.6 1.2-1.6 1.7c-1 .4-1.4 0-2-.8-.4-.8.3-1 .7-1.4.5-.4 1.7-.8 1.7-.8l1.1 1.4zm0 0" transform="scale(.03125 .02917)" fill="#f8c83c" stroke-width=".3" stroke="#977c2e"/><path d="M293.3 237.2s-1 .8-.6 1.9c.7.9 1 1.3 2 1.4.7 0 1.2-.2 1.8-.9.6-.7 1.5-1 1.4-2-.1-1-.4-1.6-1-1.8-.5-.4-2.1 0-3.6 1.4zm0 0" transform="scale(.03125 .02917)" fill="#f8c83c" stroke-width=".3" stroke="#977c2e"/><path d="M9.3 6.8h-.1v0zm0 0" fill="#202220"/><path d="M9.3 6.8h-.1zm0 0" fill="#4b4139"/><path d="M328.8 257l1.6-.8 2-1.2.4 2.1-1.8 1.5h-1.5l-.9-.7.1-1zm0 0" transform="scale(.03125 .02917)" fill="#f8c83c" stroke-width=".3" stroke="#977c2e"/><path d="M326.4 257.1h1c1.1 0 1.2-.2 1.4-.2.2.1.4 1.3.4 1.3l-.3.7-1.5 1-1.3-.9-.1-1.9zm12.1-.8l-.9-.9-2.2-1.9v5l2.4-.2 1-1.4zm0 0" transform="scale(.03125 .02917)" fill="#f8c83c" stroke-width=".3" stroke="#977c2e"/><path d="M326.4 257.1s-.4-.4-1.3-.4c-1 0-2 1-2.1 1.6-.1.7 0 2.6.5 3 .5.4 1.3.5 2.3.3 1-.3 6.3-3.7 6.3-3.7l-1.4.4c-.7.2-1.4 0-1.4 0s-.7.7-1.6.9c-.8 0-1-.5-1.2-.9zm0 0" transform="scale(.03125 .02917)" fill="#f8c83c" stroke-width=".3" stroke="#977c2e"/><path d="M330 258.9l-2.5 1 .4 1.7 2.4.5 1.3-1v-1.7l-1.7-.5zm10.4-1.2l-.8-.8c-.4-.4-1-.6-1-.6l-1.4 1.6v1l1.3.7.9.2 1.1-.8zm0 0" transform="scale(.03125 .02917)" fill="#f8c83c" stroke-width=".3" stroke="#977c2e"/><path d="M332.6 257s-1 .4-1.5.8l-1.2 1a7 7 0 001.1 1.4l1.3.2 2.4-1.8-.2-1.6zm9.5 2l-.5-.7c-.4-.4-1-.6-1.2-.6s-1.3 1.5-1.3 1.5v.4l.8 1 1.6.6 1.1-1.2zm0 0" transform="scale(.03125 .02917)" fill="#f8c83c" stroke-width=".3" stroke="#977c2e"/><path d="M338 260.8l1.3.2s0 .3.2.6c.3.2.3 0 .3 0s.2 1 1.4 1.8c0 0 1.4.7 2 .3.8-.4.7 0 .7 0l2-2.4s0-.5-.5-.5c0 0 .4-1.6-1-2-1.1-.2-2.1.2-2.1.2s-1 1.8-1.7 1.6a2 2 0 01-.9-.5l-.6-1s-.4.2-.9 0-1-1.2-1-1.2-.6 0-1-.4l-.4-.8-2 1.4s0 .5-1 1.3-1.7.8-1.7.8-.4 1.8-1.6 1.4c-1.3-.3-2-1.6-2-1.6s-.9-.2-1.4.6c-.6.7-.9 1-.9 1.8 0 .6.6 1.7 1 2.1.3.3 1.6 1.3 3 .5s1-2 1-2l.7-.4 2.5-1.7" transform="scale(.03125 .02917)" fill="#f8c83c" stroke-width=".3" stroke-linecap="round" stroke-linejoin="round" stroke="#977c2e"/><path d="M335.8 250.8v3.3s.4 2.8-.2 3.6c-.6 1-2.9.6-3.2 0-.3-.8-.1-3.2-.1-3.2zm0 0" transform="scale(.03125 .02917)" fill="#f8c83c" stroke-width=".3" stroke="#977c2e"/><path d="M333.3 260.5s-.6.8 1 1c.4 0 .7-.2 1-.3.3-.4.2-.8.2-.8s-.3 1.2 1.3 1.2c1.3 0 1.2-1.4 1.2-1.4" transform="scale(.03125 .02917)" fill="#f8c83c" stroke-width=".3" stroke-linecap="round" stroke-linejoin="round" stroke="#977c2e"/><path d="M10 7.7c0-.1 0 0 .1 0v-.1H10zm.2.1v-.1s-.1 0 0 0a.1.1 0 000 .1zm.6 0v-.2.1zm0 0" fill="#202220"/><path d="M10.2 7.8v-.1.1zm-.2-.1v-.1zm.8 0zm0 0" fill="#4b4139"/><path d="M9.5 5.6h.1v.1zm0 0" fill="#904720"/><path d="M10.5 7.2V7l-.4.1.1.2zm0 0" fill="#202020"/><path d="M9.7 6.9h-.1.1zm0 0V7h-.1zm0 0M9.8 7v-.2l-.1-.1V7zm0 0" fill="#d2a567"/><path d="M9.7 6.8a.6.6 0 000 .2v-.3zm0 0V7v-.1zm0 .3h-.2H9.8zm-.2 0h.1zm0 0" fill="#ab6d29"/><path d="M9.5 7h.1v.1zm0 0" fill="#d2a567"/><path d="M9.8 7v-.1zm0 0" fill="#ab6d29"/><path d="M9.7 6.9l-.1-.2v.1zm0 0" fill="#4d2a15"/><path d="M9.4 7.1h.2-.1zm0 0" fill="#d2a567"/><path d="M9.8 6.9v-.1zm0 0" fill="#8f4620"/><path d="M9.5 7l.1.1c.1 0 0 0 0 0h.1v.1L9.4 7zm0 0" fill="#ab6d29"/><path d="M9.7 6.9l-.2-.2v-.1h.1v.2zm0 0" fill="#8f4620"/><path d="M9.6 7.2l.2-.1-.2.1zm0 0" fill="#ab6d29"/><path d="M9.6 7.2V7zm.3 0V7h-.1l-.2.1h.2zm0 0" fill="#8f4620"/><path d="M9.9 7.2v-.1c-.1-.2 0-.2 0-.2V7zm0 0" fill="#ab6d29"/><path d="M9.9 7v.2V7zm0 0" fill="#8f4620"/><path d="M10 7v.3l-.1-.1v-.1zm-.1.2H9.6h.2zm0 0" fill="#202020"/><path d="M9.7 7zm0 0" fill="#ab6d29"/><path d="M9.6 7.2h-.2.2zm0 0" fill="#8f4620"/><path d="M9.6 7.2h-.2.1zm0 0" fill="#202020"/><path d="M9.7 7h-.1zm0 0" fill="#ab6d29"/><path d="M9.5 6.8l.2.1h-.1zm0 0M9.6 6.9zm0 0" fill="#8f4620"/><path d="M9.9 6.7l.5-.2.3.3-.5.1h-.4zm0 0" fill="#202020"/><path d="M10.6 6.9l.6.5H11l-.3-.3h-.1zm0 0" fill="#4d2a15"/><path d="M11.4 7.3l-.3-.3-.5-.3V7l.5.4.2.1h.1zm0 0" fill="#4d2a15"/><path d="M10.6 7l.3.2.3.2-.6-.5zm0 0" fill="#803f1d"/><path d="M11 7.4l-.5-.3V7zm0 0" fill="#4d2a15"/><path d="M11.4 7.3h-.1l-.7-.4.7.5h.2v-.1zm0 0" fill="#202020"/><path d="M10.5 7l.3.3.2.2-.3-.4h-.1zm0 0" fill="#803f1d"/><path d="M10.6 7l.5.5h.2v-.1H11l-.5-.4zm0 0" fill="#202020"/><path d="M10.8 7.4l-.2-.1v-.1l.3.2h-.1zm0 0" fill="#4d2a15"/><path d="M11 7.5a.2.2 0 01-.1 0l-.4-.4.5.4zm0 0" fill="#202020"/><path d="M10.9 7.4h-.1l-.2-.2.2.3zm0 0" fill="#202020"/><path d="M10.7 6.9l.2.1.1.1h.1v.1h.2v.2l-.1-.1a.3.3 0 00-.2-.1.5.5 0 000-.1h-.1l-.2-.3zm0 0" fill="#b07229"/><path d="M10.3 7.4h-.1v-.2zm.3 0V7h-.1v.2zm0 0M10.5 7.4v-.2h-.1v.2h.1zm0 0" fill="#4d2a15"/><path d="M10.5 7.1a.2.2 0 010 .1v.2c.1 0 .1 0 0 0a.5.5 0 010-.2c0-.1 0 0 0 0h.1V7 7v-.2l-.2.3zm0 0" fill="#202020"/><path d="M10.5 7.1V7.2h-.1zm0 0" fill="#202020"/><path d="M10.4 7.5v-.2l-.1-.1v.2l.1.1zm0 0" fill="#4d2a15"/><path d="M10.1 7.2l.1.2h.1a1.1 1.1 0 010-.2h-.1zm.3.1l-.1-.1zm0 0" fill="#202020"/><path d="M10.2 7.2v.1l.1.1a.3.3 0 010-.2zm0 0" fill="#5c3a1d"/><path d="M10.4 7.2V7zm0 0v.2-.2zm0 0" fill="#202020"/><path d="M10.4 7.1v-.4a.2.2 0 01-.2 0 .2.2 0 000 .1l.2.3zm0 0" fill="#4d2a15"/><path d="M10.1 7.2a2.3 2.3 0 00-.2-.3l.2.3zm0 0" fill="#8b441f"/><path d="M328.1 244.8c.1.4.6 3.1-.5 3.4-1.5.2-8.5-9.4-9.6-10.7 0 0-4.4-2.9-4.5-3.5-.1-.7 4.8 1 4.8 1l9.4 9 .6.8zm0 0" transform="scale(.03125 .02917)" fill="#8b441f" stroke-width=".1" stroke="#5c3a1d"/><path d="M10.1 7.2l-.2-.3v.2l.2.1zm0 0" fill="#202020"/><path d="M10.4 7.2v-.1l-.2-.3H10v.3l.3.1zm.1-.1v-.5h-.1V7zm0 0" fill="#4d2a15"/><path d="M10.2 7.1V7l-.1-.1h-.2l.1.1.2.1zm0 0" fill="#202020"/><path d="M10.4 7.1V7v-.2.4l-.2-.3.3.3zm0 0" fill="#8b441f"/><path d="M10.5 6.5l.1.2V7l-.1-.2v-.3zm0 0" fill="#4d2a15"/><path d="M10.4 7.2l-.1-.1-.2-.2.3.3zm0 0" fill="#8b441f"/><path d="M10.3 7v-.2h-.1V7zm0 0v-.2-.1V7zm.2-.2V6.5 6.9zm.1 0v-.2-.2.2zm-.2 0v-.1-.1V7zm0 0" fill="#202020"/><path d="M10.5 7V7v-.3.4zm0 0M10.6 7v-.2l-.1-.3v.3s.1.2 0 .2zm0 0" fill="#904720"/><path d="M10.3 7.2H10h.1zm0 0" fill="#312317"/><path d="M10.4 6.4h.1v-.1.2zm0 0" fill="#d2a567"/><path d="M10.4 6.3v0zm0 0" fill="#8f4620"/><path d="M9.5 6.4l.3.4.4-.4L10 6zm0 0" fill="#1e2121"/><path d="M10 6l-.1.2.1.1h.2v-.4.1H9.8zm0 0" fill="#4d2a15"/><path d="M10 6.4h.1v-.2V6v.4zm0 0M10.1 6.2c.1 0 .1 0 0-.1V6l.1.3zm0 0" fill="#5c3818"/><path d="M10 6.3h.1v.1H10zm0 0" fill="#8f4620"/><path d="M10 6.9l-.3-.2v-.1h.2v-.1h.2v-.1h.2v-.1l.1.1V6.7h-.2v.1a.3.3 0 01-.1 0zm0 0" fill="#d2a567"/><path d="M10 6.7v.1-.2.1zm.4-.4v.3l-.1-.1-.2-.2h.3zm0 0M10 6.8h-.1l-.1-.2h-.1v-.1l.2.1v.2zm.2 0a.5.5 0 01-.2-.2v-.1h-.1l.3.3zm0-.1v-.1zm0 0v-.2H10v-.1l.2.2zm0 0" fill="#8f4620"/><path d="M10 6.9a.7.7 0 01-.4-.3v-.1l.2.3zm0 0" fill="#ab6d29"/><path d="M10 6.9c-.1 0-.2 0-.3-.2a1 1 0 01-.2-.2l.3.2zm0 0" fill="#8f4620"/><path d="M10.1 6.7a.7.7 0 01-.2-.2v-.1h.2V6.8zm0 0H9.7V6.3v.1h.1v.1l.1.1zm-.5-.2l.2.2.1.2-.2-.3zm.7.1a.3.3 0 01-.1-.1.4.4 0 010-.1v-.1V6.7zm0 0v-.4V6.5zm-.6.1a1.4 1.4 0 01-.2-.1v-.1l.2.2.1.1V7l-.1-.2zm0 0" fill="#4d2a15"/><path d="M9.8 6.9l-.2-.2a1.3 1.3 0 01-.1-.2l.3.4zm.1 0l-.1-.2-.1-.2v.2zm0-.3l-.1-.2v.1h.1zm0-.3v.1a.4.4 0 00.2.2l-.1-.1c0-.1 0 0 0 0h.1a.9.9 0 00-.2-.2zm0 0M10.2 6.5V6.2v.1l-.1.1c-.1 0 0 0 0 0zm0 0" fill="#202020"/><path d="M10.1 6.2H10.4a.6.6 0 010 .2v-.1l-.1-.1v.2l-.1-.1zm0 0" fill="#202020"/><path d="M9.9 6.5a.8.8 0 00.1.2.5.5 0 01-.1-.2zm0 0" fill="#171717"/><path d="M10.3 6.5v.1zm0 0" fill="#8f4620"/><path d="M9.6 6.1l-.1.1v.2l.2.2v-.2h.1v.1h.1a4 4 0 000-.4H9.5zm0 0" fill="#d2a567"/><path d="M9.8 6.3v.2l.1-.1v-.2-.1zm-.2 0v.2l.1-.1v-.2-.1zm0 0" fill="#ab6d29"/><path d="M9.5 6l-.1.3v.3zm0 0" fill="#45392d"/><path d="M9.5 6l-.1.3v.2h.1V6zm0 0" fill="#ab6d29"/><path d="M10 6.3h-.1zm0 0" fill="#dbad6c"/><path d="M9.5 6v.5V6zm0 0" fill="#d2a567"/><path d="M9.6 6.1v.2a.1.1 0 000 .1l.1-.1V6zm0 0" fill="#8f4620"/><path d="M10 6.4h-.1zm0 0" fill="#dbad6c"/><path d="M9.5 6.4v-.1-.1h-.1l.1-.1V6.4zm.3-.3v.2h.1v-.1V6h-.1zm0 0" fill="#8f4620"/><path d="M10.1 6v.2V6 6.3A.7.7 0 0110 6V6v-.1h.1V6zM10 6v.1h-.2.1V6zm-.4 0v.1h.1zm0 0zm.7 0v-.1zm0 0" fill="#1e2121"/><path d="M9.4 6h.1v.1a.1.1 0 00.1 0 .5.5 0 01.1 0h.2V5.7H9.5l-.1.1V6zm0 0" fill="#dbad6c"/><path d="M9.8 5.9v-.1zm.1-.1V6a.1.1 0 00.1 0h.1V5.7H10zm0 0" fill="#8f4620"/><path d="M10 5.7v0zm0 0" fill="#ab6d29"/><path d="M10.2 6v-.1l-.1-.1v-.1zM10 6V6a.5.5 0 000-.2V6zm-.1-.2l-.2.1h.1v-.1zm0 0" fill="#4d2a15"/><path d="M10.1 5.6a.5.5 0 000 .3v-.2zM10 6v-.1-.1l-.1.1v.1zm0 0" fill="#1e2121"/><path d="M9.4 6l.1-.2a.1.1 0 00.1 0h.1V6c0-.1 0 0 0 0v-.1-.1h-.1V6a.4.4 0 010 .1v-.1h-.1V6zm0 0" fill="#8f4620"/><path d="M10.2 5.6a.2.2 0 01-.1 0zm0 0" fill="#874f20"/><path d="M9.6 5.7l-.1.1v-.1zm0 0" fill="#b27129"/><path d="M10 5.6l-.1.2h-.4v-.1h.2v-.1h.1a.1.1 0 000-.1h.1zm0 0" fill="#dbad6c"/><path d="M9.7 5.4l.1.2.1.2v-.2l.1.1v-.2l-.1-.1h-.2zm0 0" fill="#b27129"/><path d="M10 5.4V5.6h-.1v-.1h.1zm0 0" fill="#8f4620"/><path d="M10 5.4v.1h.1v0l-.2-.1zm0 0" fill="#4d2a15"/><path d="M10 5.3v.1l.1.1v-.1a.3.3 0 00-.2 0 .1.1 0 01.1.1v-.1c-.1 0 0 0 0 0v.2-.1h-.1v-.1zm0 0" fill="#1e2121"/><path d="M9.8 5.4v.1zm0 0" fill="#8f4620"/><path d="M9.8 5.6v.1h-.1v-.1zm0 0" fill="#b27129"/><path d="M9.7 5.6l-.1.2v-.1h.1v-.1zm0 0" fill="#8f4620"/><path d="M10 5.3H9.6h.2zm0 0" fill="#dbad6c"/><path d="M10 5.3h-.1-.1a.4.4 0 00-.2 0H10zm0 0" fill="#ab6d29"/><path d="M9.6 5.2zm0 0" fill="#4d2a15"/><path d="M9.9 5.4H9.6v-.1h.1zm0 0M9.8 5.4v.2l-.2-.1h-.2l.2-.1h.1zm0 0" fill="#dbad6c"/><path d="M9.7 5.3h.1a.6.6 0 00.1 0h-.1zm0 0" fill="#ab6d29"/><path d="M9.6 5.3h.1zm0 0" fill="#4d2a15"/><path d="M9.9 5.4a.1.1 0 01-.1 0h-.2.2zm-.2 0v.2h-.1v-.1zm0 0" fill="#ab6d29"/><path d="M9.6 5.3h.2v.1a.8.8 0 00-.1 0h-.1zm0 0" fill="#4d2a15"/><path d="M9.8 5.5h-.1c-.1 0 0 0 0 0a.8.8 0 01.1 0zm0 0" fill="#ab6d29"/><path d="M9.8 5.5H9.5c0-.1 0 0 0 0H9.9zm0 0" fill="#4d2a15"/><path d="M9.6 5.5h.1v0zm0 0" fill="#dbad6c"/><path d="M9.3 5.2v.1a.4.4 0 01-.1.1l-.1.1.1-.1v-.1zm0 0" fill="#6c3f18"/><path d="M9.6 5.1v.2l-.2.2H9.1l.1-.1v-.1h.2a.3.3 0 000-.1h.1zm0 0" fill="#dbad6c"/><path d="M9.6 5.6v.1h-.1v-.1zm0 0" fill="#904720"/><path d="M9.6 5.6h-.1zm0 0" fill="#ab6d29"/><path d="M9.3 5.5h.1l.2-.2V5v.3a.4.4 0 01-.1 0v.1h.1l-.2.1h-.1H9h.1v-.1zm0 0" fill="#904720"/><path d="M9.5 5.2zm0 0" fill="#ab6d29"/><path d="M9.5 5.2v.1l-.2.2.1-.2v-.1zm0 0" fill="#904720"/><path d="M9.3 5.5h.1zm.1-.2v-.1c0-.1 0 0 0 0v.1zm0 0h.1zm0 .3h.1zm0 0v-.1h0zm0 0" fill="#1e2121"/><path d="M9.3 5.4v.1h-.1" fill="#fff"/><path d="M9.3 5.4v.1h-.1" fill="#f16e16"/><path d="M9.2 5.5"/><path d="M9.2 5.5zm0 0" fill="#d5d3ca"/><path d="M9.3 5.4v-.1-.1.1h.1a.3.3 0 000-.2V5.4a.3.3 0 00-.2 0 .8.8 0 010 .2v-.1zm0 0" fill="#ab6d29"/><path d="M9.3 5.4v-.2.2zm0 0" fill="#904720"/><path d="M9.4 5.3v-.1.1zm0 0" fill="#4d2a15"/><path d="M9.1 5.6v-.1a.3.3 0 00.1-.1v-.2.2l-.1.1zm0 0" fill="#ab6d29"/><path d="M9.5 5.7zm0 0M9.5 5.7h.1zm0 0" fill="#6c4119"/><path d="M9.2 5.7h.2zm0 0" fill="#bf802d"/><path d="M303.8 194l-.7-.9-.7-.6c-.6-.3-2.8-.3-2.8-.3l-1.6.3s-.5.5-1.3.4l-2.6-1.1-1.9-.7s-1.3-.7-1.6-.5c-.4.1-1.5 1.3-1.5 1.3s-.2.7.3.7c.4 0-.6.3-.6.3s-3 1.6-3.3 4.2c-.5 2.9 4.6 6.9 6.5 4.9 0 0-2.8-2-2.3-3.8.6-1.7 2-2.8 4-3 2.2 0 2.4-.3 3.3-1 1-.5 2.8-1 4 .3 1.3 1.4-5 2.6-5 2.6l.8 1.1s7.6-2.7 7-4.1zm0 0" transform="scale(.03125 .02917)" fill="#f9c83a" stroke-width=".4" stroke="#8f4620"/><path d="M9 5.9v-.2-.1h.1v.2zm0 0" fill="#fcf3d8"/><path d="M9.5 5.7h-.1-.1L9 5.5h.4zm0 0" fill="#fdeaaf"/><path d="M9.2 5.7h.2-.1zm0 0" fill="#513625"/><path d="M9 5.9v-.1-.1.1zm0 0" fill="#f9c83a"/><path d="M9 5.6zm0 0" fill="#8b5122"/><path d="M9.2 5.7h-.1H9.5h-.1zm0 0" fill="#f9c83a"/><path d="M9 5.8h.1s0 .1 0 0h-.2L9 6h.1v-.1zm0 0" fill="#8f4620"/><path d="M9.4 6.8zm-.1-1zm0 0" fill="#fcca3d"/><path d="M9.4 6.9zm0-.1a.1.1 0 00-.1 0h.1zm0-.1h-.1a.3.3 0 01.1 0zm0 0h-.1zm-.1-.1v.1-.1zm0 0v.1h-.1v-.1zm-.1 0v0zm0 0v.1-.1zm-.1 0v0zm0 0a.4.4 0 01-.1.1v-.1zm0 0a.3.3 0 01-.1 0v0zm-.1 0h-.1zm0 0h-.1zm0 0h-.1zm0-.1h-.1zm0 0h-.1zm0-.1h-.1zm.3-.4zm0 0zm0 0v-.1zm0 0v-.1zm-.1-.1l.1-.1h-.1zm0 0v-.1zm0-.1zm0 0" fill="#816c2a"/><path d="M9.2 5.7a.2.2 0 01.1.2.2.2 0 010 .2l-.3.1a.5.5 0 000 .1.2.2 0 000 .1v.1a.1.1 0 000 .1h.2a.2.2 0 01.2 0V6.6a.2.2 0 00-.2 0h-.1a.1.1 0 01-.1 0 .2.2 0 010-.2l.2-.3.2-.2-.1-.1v-.1zm0 0" fill="#78732e"/><path d="M9.1 5.8zm0 0zm0 0" fill="#a8ac71"/><path d="M9.2 5.9zm0 0zm0 0zm0 0zm0 .1zm-.3.4zm0 0" fill="#78732e"/><path d="M8.9 6.5zm0 0" fill="#fff"/><path d="M8.9 6.5zm0 0" fill="#78732e"/><path d="M8.9 6.6zm0 0zm0 0zm0 0" fill="#fff"/><path d="M9 6.7zm0 0zm.3 0zm0 0" fill="#a8ac71"/><path d="M9.3 6.8zm0 0" fill="#fff"/><path d="M9.3 6.8zm0 0zm0 0" fill="#a8ac71"/><path d="M9.3 6.9zm-.5-1.5zm0 0" fill="#fff"/><path d="M9.2 5.7zm0 0" fill="#f9c83a"/><path d="M9.2 5.7zm0 0" fill="#8f4620"/><path d="M9.4 7zm0 0" fill="#977c2e"/></svg>