<svg width="21" height="15" xmlns="http://www.w3.org/2000/svg"><defs><linearGradient x1="50%" y1="0%" x2="50%" y2="100%" id="a"><stop stop-color="#FFF" offset="0%"/><stop stop-color="#F0F0F0" offset="100%"/></linearGradient><linearGradient x1="50%" y1="0%" x2="50%" y2="100%" id="b"><stop stop-color="#FFE547" offset="0%"/><stop stop-color="#FCE032" offset="100%"/></linearGradient><linearGradient x1="50%" y1="0%" x2="50%" y2="100%" id="c"><stop stop-color="#118C81" offset="0%"/><stop stop-color="#0D7168" offset="100%"/></linearGradient><linearGradient x1="50%" y1="0%" x2="50%" y2="100%" id="d"><stop stop-color="#262626" offset="0%"/><stop stop-color="#0D0D0D" offset="100%"/></linearGradient><linearGradient x1="50%" y1="0%" x2="50%" y2="100%" id="e"><stop stop-color="#EF2147" offset="0%"/><stop stop-color="#D01739" offset="100%"/></linearGradient><linearGradient x1="50%" y1="0%" x2="50%" y2="100%" id="f"><stop stop-color="#FDE444" offset="0%"/><stop stop-color="#FCE032" offset="100%"/></linearGradient></defs><g fill="none" fill-rule="evenodd"><path fill="url(#a)" d="M0 0h21v15H0z"/><path fill="url(#b)" d="M0 11h21v4H0z"/><path fill="url(#c)" d="M0 0h21v4H0z"/><path fill="url(#a)" d="M0 4h21v7H0z"/><path fill="url(#d)" d="M0 5h21v5H0z"/><path fill="url(#e)" d="M0 0l10 7.5L0 15z"/><path fill="url(#f)" d="M3.5 8.456L2.03 9.523l.561-1.728-1.469-1.068h1.816L3.5 5l.562 1.727h1.816l-1.47 1.068.561 1.728z"/></g></svg>