<svg xmlns="http://www.w3.org/2000/svg" width="20" height="14"><path fill="#fff" d="M0 0h20v14H0z"/><path d="M2.5 0h15v14h-15zm0 0" fill="#fff"/><path d="M277.3 340.8s10.8-8.8 21.4-8.8c10.6 0 13.4 7.2 20.8 8 7.3.4 13.4-7.5 22.5-7.7 9.1-.3 20.5 6.4 20.5 6.4l-39.8 12-45.4-10zm-23-13l135.4.7s-11.6-12.7-25.4-13c-13.8-.2-10 6-20.6 6.9-10.4.8-13-6.5-22.8-6.3-9.6.2-15.1 6.3-22.5 6.5-7.4.3-16.6-7.3-22.3-7-5.6.3-25.5 8.6-25.5 8.6zm-17.2-16l167 .5c2.6-3.9-8.2-12.8-18.1-13.6-8.3.2-14 8.4-20.8 8.7-6.8.2-14.4-8.5-22-8.2-7.6.3-15.4 8.2-23 8.2-7.8 0-13.3-8.5-23-8.5s-14 9.3-21.4 8.7c-7.3-.5-13.8-9.3-20.8-9.3s-18.8 10.5-21 10c-2.4-.7 2.9 4.3 3.1 3.4zm0 0" transform="scale(.03125 .02917)" fill-rule="evenodd" fill="#083d9c" stroke-width="2.5" stroke="#083d9c"/><path d="M301.3 218.8l38.4 10.4v-55c-17.6 1.1-32.2-33.3-1.2-35.6-30.5-4.4-34 3.5-37.5 12zm0 0" transform="scale(.03125 .02917)" fill-rule="evenodd" fill="red" stroke-width="2.5" stroke-linejoin="round" stroke="#000"/><path d="M277 258.8l86.8.2" transform="scale(.03125 .02917)" fill-rule="evenodd" fill="#083d9c" stroke-width="5" stroke-linecap="round" stroke="#083d9c"/><path d="M281.1 238l10.3 13.7m-10.3 0l11.1-13.4M287 237l-.3 8.4m10.8-7.6l10.3 13.8m-10.3 0l11.1-13.4m-5.2-1.2l-.3 8.4m11.1-7.6l10.3 13.8m-10.3 0l11-13.4m-5-1.2l-.4 8.4m11.7-7.6l10.3 13.8m-10.3 0l11.1-13.4m-5.4-1.2v8.4m11-7.6l10.2 13.8m-10.1 0l11-13.4M354 237l-.3 8.4" transform="scale(.03125 .02917)" fill="none" stroke-width="4" stroke-linecap="round" stroke="#000"/><path d="M6.8 7.6H8v-.7H6.7zm0-1l1.2.2v-.5l-1.2-.5v.8zm.2-1l1 .5L8 6v-.1-.1-.2l-.9-.8-.2.9zm6.2 2H12v-.7h1.3zM12 6.8l1.5-.2-.4-.8-1.1.5zm1-1.2l-1 .5V6v-.1l-.1-.1v-.2-.1l.8-.6zm-2.2 1.2h.5v-.3zm-1.6 0h-.5v-.3l.5.2zm0-.1l-.5-.3v-.3h-.1c0-.2.4.2.6.3zm1.6 0v-.3l.6-.5v.5zm-3.2-2l.5.7.3-.1h.2v.5l.6.5v-.5l-1-1.6zm.8-.5l.8 1.4s0-1.3.1-1.4L9.1 4zm3.2 0l-.8 1.4V5h-.3l.3-1.1.8.3zm.8.6l-.5.5h-.5v.5l-.6.5v-.5L12 4zm0 0" fill-rule="evenodd" fill="#ef7d08"/><path d="M309.8 268.4c-8.3 13.8-30.6 9.6-36 0-1.4-.4-.6-59.5-.6-59.5s-2.4-1-2.4-3c-.2-1.8 3.3-2 3.3-4.3s-3.6-1.4-3.7-3.8c0-2.3 3.9-2 3.7-4-.2-2.4-4.4-2-4.5-4.2 0-1.7 3-3.2 3.8-4h-2.8l-6.4.2c-4.6 0 0 .9 0 3.4 0 1.8-2.3 3-2.4 4.5-.2 1.4 3 2.5 3.2 4.4 0 1.6-3.3 1.7-3.3 3.3.3 2.4 3 3.1 3 4.7 0 1.5-3.6 2.2-3.7 3.4.3 2.2.6 60.6.6 60.6 5.6 29.9 38.8 37.4 48.1-1.7zm22 0c8.2 13.8 30.4 9.6 35.7 0 1.6-.4.8-59.5.8-59.5s2.4-1 2.4-3c.2-1.8-3-2-3-4.3s3.3-1.4 3.3-3.8c0-2.3-3.5-2-3.3-4.1.2-2.5 3-2 3-4.3.2-1.9-1.6-3-2.4-3.8h2.6l6.4.2c4.4 0 0 .9 0 3.4 0 1.8 2.3 3 2.4 4.5 0 1.4-3 2.5-3.2 4.4 0 1.6 3.3 1.7 3.3 3.3-.3 2.4-3 3.1-3 4.7 0 1.5 3.6 2.2 3.6 3.4l-.5 60.6c-5.6 29.9-38.9 37.4-48.1-1.7zm0 0" transform="scale(.03125 .02917)" fill-rule="evenodd" fill="red" stroke-width="2.5" stroke-linejoin="round" stroke="#000"/><path d="M301.8 295.6H339c.3-.3-8.4-13-18.6-12-11.5.3-19.3 12-18.6 12zm118.8-1h-51s6.6-3.8 8.4-7.5c3.3 2 2.4 3.7 9 4 6.6.3 12.9-7.4 19.3-7.2 6.2.3 14.3 11 14.3 10.7zm-201 0h51s-6.6-3.8-8.4-7.5c-3.3 2-2.4 3.7-9 4-6.6.3-13-7.4-19.2-7.2-6.3.3-14.4 11-14.4 10.7zm3.8-16l36.3.2s-2.3-5-2.6-11c-9.4-3.2-17 7-23.9 7.3-6.6.3-13.6-7.2-13.6-7.2zm194 0l-36.4.2s2.3-5 2.6-11c9.4-3.2 17 7 23.8 7.3 6.7.3 13.7-7.2 13.7-7.2l-3.9 10.7zM311 279l18.4-.6s.4-5.5-9.3-5.5-8.9 6.3-9.1 6zm-11.3-8c3.6-1.4 6.6-4 8.3-7.6l-12.6.4s-5.8 3.5-8.6 7.3zm41 0a16.8 16.8 0 01-8.3-7.6l12.6.4s5.8 3.5 8.8 7.3zm0 0" transform="scale(.03125 .02917)" fill-rule="evenodd" fill="#083d9c" stroke-width="2.5" stroke="#083d9c"/><path d="M-1.3 10.5h22.6V14H-1.4zm0-10.5h22.6v3.5H-1.4zm0 0" fill-rule="evenodd" fill="#de2010"/></svg>