<svg width="21" height="15" xmlns="http://www.w3.org/2000/svg"><defs><linearGradient x1="50%" y1="0%" x2="50%" y2="100%" id="a"><stop stop-color="#FFF" offset="0%"/><stop stop-color="#F0F0F0" offset="100%"/></linearGradient><linearGradient x1="50%" y1="0%" x2="50%" y2="100%" id="b"><stop stop-color="#FF2936" offset="0%"/><stop stop-color="#FD0D1B" offset="100%"/></linearGradient><linearGradient x1="50%" y1="0%" x2="50%" y2="100%" id="c"><stop stop-color="#128415" offset="0%"/><stop stop-color="#0A650C" offset="100%"/></linearGradient><linearGradient x1="50%" y1="0%" x2="50%" y2="100%" id="d"><stop stop-color="#FAF94F" offset="0%"/><stop stop-color="#F8F736" offset="100%"/></linearGradient><linearGradient x1="50%" y1="0%" x2="50%" y2="100%" id="e"><stop stop-color="#1D50B5" offset="0%"/><stop stop-color="#15439D" offset="100%"/></linearGradient></defs><g fill="none" fill-rule="evenodd"><path fill="url(#a)" d="M0 0h21v15H0z"/><path fill="url(#b)" d="M0 0h21v15H0z"/><path fill="url(#c)" d="M0 0h8v15H0z"/><path d="M8 9.5a2 2 0 1 0 0-4 2 2 0 0 0 0 4zm0 1a3 3 0 1 1 0-6 3 3 0 0 1 0 6z" fill="url(#d)" fill-rule="nonzero"/><path d="M7 6.256A.25.25 0 0 1 7.245 6h1.51A.25.25 0 0 1 9 6.256V8a.997.997 0 0 1-1 1c-.552 0-1-.443-1-.999V6.256z" fill="url(#a)"/><path d="M8 8c.276 0 .5-.724.5-1a.5.5 0 0 0-1 0c0 .276.224 1 .5 1z" fill="url(#e)"/></g></svg>