<svg xmlns="http://www.w3.org/2000/svg" width="20" height="14"><g fill-rule="evenodd"><path d="M0 13.9L29 0H0zm0 0" fill="#0000d6"/><path d="M30 0L.8 14H30zm0 0" fill="#006000"/><path d="M30 0h-1.6L0 13.3v.7h1.6L30 .8zm0 0" fill="#fc0"/><path d="M2 .3l.4.9h1.2l-1 .6.4 1L2 2l-.8.6.3-1-.9-.5h1.1zm5.7 0l.3.9h1.2l-1 .6.4 1-1-.7-.8.6.3-1-.9-.5h1.1zm0 3.9l.3 1h1.2l-1 .5.4 1-1-.6-.8.6.3-1-.9-.6h1.1zm-2.8-2l.4 1h1l-.8.6.3 1L5 4l-.9.6.3-1-.9-.5h1.2zm-2.8 2l.3 1h1.2l-1 .5.4 1L2 6l-.8.6.3-1-.9-.6h1.1zm0 0" fill="#fff"/></g></svg>