<svg width="21" height="15" xmlns="http://www.w3.org/2000/svg" xmlns:xlink="http://www.w3.org/1999/xlink"><defs><linearGradient x1="50%" y1="0%" x2="50%" y2="100%" id="a"><stop stop-color="#FFF" offset="0%"/><stop stop-color="#F0F0F0" offset="100%"/></linearGradient><linearGradient x1="50%" y1="0%" x2="50%" y2="100%" id="b"><stop stop-color="#0C47B7" offset="0%"/><stop stop-color="#073DA4" offset="100%"/></linearGradient><linearGradient x1="50%" y1="0%" x2="50%" y2="100%" id="c"><stop stop-color="#E53B35" offset="0%"/><stop stop-color="#D32E28" offset="100%"/></linearGradient><linearGradient x1="50%" y1="0%" x2="50%" y2="100%" id="d"><stop stop-color="#FFF" offset="0%"/><stop stop-color="#F0F0F0" offset="100%"/></linearGradient><linearGradient x1="50%" y1="0%" x2="50%" y2="100%" id="f"><stop stop-color="#F73744" offset="0%"/><stop stop-color="#EC212F" offset="100%"/></linearGradient><path d="M1.711 2.001A1.048 1.048 0 0 1 2.751 1H7.25c.553 0 1.018.447 1.04 1.001L8.46 6.5c.022.553-.297 1.289-.72 1.652L6.146 9.518c-.633.542-1.662.54-2.292 0L2.259 8.15c-.419-.36-.742-1.098-.72-1.652L1.71 2z" id="e"/></defs><g fill="none" fill-rule="evenodd"><path fill="url(#a)" d="M0 0h21v15H0z"/><path fill="url(#b)" d="M0 5h21v5H0z"/><path fill="url(#c)" d="M0 10h21v5H0z"/><path fill="url(#a)" d="M0 0h21v5H0z"/><g transform="translate(2.5 2)"><path d="M2.751 0H7.25c1.09 0 1.997.872 2.039 1.963L9.46 6.46c.033.86-.415 1.89-1.07 2.45l-1.594 1.367c-1.007.863-2.589.861-3.594 0L1.61 8.91C.957 8.352.506 7.32.539 6.46l.173-4.497A2.048 2.048 0 0 1 2.752 0z" fill="url(#d)" fill-rule="nonzero"/><mask id="g" fill="#fff"><use xlink:href="#e"/></mask><use fill="url(#f)" xlink:href="#e"/><path d="M4.5 6.245A.25.25 0 0 0 4.252 6H3.248A.246.246 0 0 1 3 5.748v-.496C3 5.113 3.118 5 3.248 5h1.004a.246.246 0 0 0 .248-.252v-.496A.249.249 0 0 0 4.248 4h-.496a.249.249 0 0 1-.252-.252v-.496c0-.139.107-.252.252-.252h.496a.248.248 0 0 0 .252-.252v-.496c0-.139.107-.252.252-.252h.496c.139 0 .252.107.252.252v.496c0 .139.107.252.252.252h.496c.139 0 .252.107.252.252v.496A.248.248 0 0 1 6.248 4h-.496a.249.249 0 0 0-.252.252v.496c0 .139.118.252.248.252h1.004C6.89 5 7 5.107 7 5.252v.496A.255.255 0 0 1 6.752 6H5.748a.245.245 0 0 0-.248.245v1.51A.245.245 0 0 1 5.248 8h-.496a.247.247 0 0 1-.252-.245v-1.51z" fill="url(#a)" mask="url(#g)"/><path d="M4.097 8.07C2.882 8.26 2 8.828 2 9.5c0 .828 1.343 1.5 3 1.5s3-.672 3-1.5c0-.671-.882-1.24-2.097-1.43a1 1 0 0 0-1.806 0z" fill="#1251A1" mask="url(#g)"/></g></g></svg>