<svg xmlns="http://www.w3.org/2000/svg" xmlns:xlink="http://www.w3.org/1999/xlink" width="20" height="14"><defs><symbol overflow="visible" id="a"><path d="M0-.3h.1v.2h.2V0H0zm0 0"/></symbol><symbol overflow="visible" id="b"><path d="M0-.3h.1V0zm0 0"/></symbol><symbol overflow="visible" id="c"><path d="M.2-.2zm0 .2v-.1zm0-.2h.1V0a.2.2 0 01-.1.1H0v-.3H.3v.1zm0 0"/></symbol><symbol overflow="visible" id="d"><path d="M0-.3h.3H0v.1h.2H0V0h.2V0H0zm0 0"/></symbol><symbol overflow="visible" id="e"><path d="M.2-.2zm0 0V0H0v-.3H.3a.2.2 0 010 .1V0L.1-.2zm0 0"/></symbol><symbol overflow="visible" id="f"><path d="M0-.3h.3-.1V0v-.3H0zm0 0"/></symbol><symbol overflow="visible" id="g"><path d="M.3 0H0l.1-.3h.1l.2.3H.3zM0-.2h.1v-.2zm0 0"/></symbol><symbol overflow="visible" id="h"><path d="M.3-.3H.1v.1l.1.1a.2.2 0 01-.1.1H0h.1v-.1a.3.3 0 01-.2 0 .1.1 0 010-.1.1.1 0 010-.1.2.2 0 01.2 0zm0 0"/></symbol></defs><path d="M0 7h20v7H0zm0 0" fill-rule="evenodd" fill="#19b6ef"/><path d="M0 0h20v7H0zm0 0" fill-rule="evenodd" fill="#fff"/><path d="M317 339.2C369.6 300 426 220 359.9 178c-12.3-2.5-26-1.8-32.6 3.4-3.6-1.8-6.4-1.7-10 2-2.4-3-5-4.4-10-2.9-9.6-5.2-21-6.3-31.4-3C218 211.8 253.4 294 317 339.2zm0 0" transform="scale(.03125 .02917)" fill-rule="evenodd" fill="#fd0" stroke-width="2.4" stroke="#7d6c00"/><path d="M414 250s6-7.9 6.3-7.9c5.8-3.4 6.4-7.9 6.4-7.9 6-1.8 4-6.7 4.6-7.3a6.5 6.5 0 001.3-7.1c0-.8 2-8.5-.9-9.4.2-8-4.7-7.4-8.7-2-4.3 1.2-5.1 4.7-3.6 8.6-5.5 0-5.6 7.9-4.1 12.3-7.3-.1-3.3 8-3.6 8.4-2.3 1.2 2 12.7 2.4 12.3zm-46 68.3l3.6 2.2c.8 2.8 3.4 4.5 5.3 4.1 1 4.3 5.6 3.7 9 1.2 2.7 4 6 4 10.6 2.7 4 3 9.3 1.6 12.8-1.4 3.7 3 6.2.8 8-2.5 3 .8 5.3.3 6.4-2.6 5.7-.4 3-6-1.8-8.2 3.7-3.2 7.9-10 2-11-1.8-1.3-5.3-1-7.9.1-.8-2.9-4.8-3.6-9.4-.4-1.5-3.2-7-1.6-9.5.7-3.4-2.8-7.2-2.8-12.9.4zm0-8.7c.6-3.8-2-10.5 2-11.2-.8-6.3.3-13.3 7.5-12.7 1.3-6 1-11.4 7.8-12.2 0 0 5.4-19 11.2-6 2.3 4 1.8 10.3-2.8 9 1 4.7-.6 9-5.8 8.8 2.4 3.4 1.6 7.9-1 10l-19 14.3zm33.1-24l6-1.1c6-4 8.5-5.7 11.5-1.2 5.1-1 10-.6 9.8 3.4 6 .4 6 4.3 5.4 7.4 1 5.4-1.6 12.3-5 3.8-12-7.1-18.7-6.2-37.4-2zm3.1-5.8c.2-.2 17.6-4.7 15.7-10 4.9-.7 5.9-5.7 6-5.7 10.4-3.2 9.7-9.1 9.7-9.1 2.9-3 8-6.3 6.9-11.8.3-6.3.9-10.2-7.6-6.1-6.3-.6-8.5 3-10.3 8.5-3-3.5-7.9 2-8.4 7.1l-7.7 7.8-6.5 12zm0 0" transform="scale(.03125 .02917)" fill-rule="evenodd" fill="#4fd46b" stroke-width="2.4" stroke-linejoin="round" stroke="#3a9d4f"/><path d="M404.5 266.4c-4.1-3.1-6.4-6.8-5.8-10.6-2.6-3.7-4.4-5.9-2-9.2l-2-7.5c-5.3-2-3-6.5-1.6-8-2.5-3.6-2.6-7.3-.2-10.5 0-6.4 4.6-4 8.4 0 0 0 6.3 4.5 1.6 8.6 4.7 1.6 6 5.6 3.4 7.3 4 1.8 4.7 5.5 2.4 8 4.2 3.1 2.7 7.4 4 11zm0 0" transform="scale(.03125 .02917)" fill-rule="evenodd" fill="#4fd46b" stroke-width="2.4" stroke-linejoin="round" stroke="#3a9d4f"/><path d="M411.8 236c-.2-.2-7-8.7-5-9.3-.6-2.6-2.6-5.4-1.3-8.1-3.3-3.4-3.4-7.3-.8-10.3-2.2-3.1-1.2-7.1 1.8-10-1-5 2.6-6.1 5.8-7 2.2-8 6-6 8 .2 3.3 2.8 2.8 7 1.7 10.2 3.8 2.5 1.5 5.8-.3 7l-10 27.4zm0 0" transform="scale(.03125 .02917)" fill-rule="evenodd" fill="#4fd46b" stroke-width="2.4" stroke-linejoin="round" stroke="#3a9d4f"/><path d="M410.8 193.1l-5.7-5.7c1.5-3 2.6-8.3-1.6-10.7-2.4-5.8-14.3-13-16.1.8-1.8-4.2-5.6-8.3-8.3-3.5-6.2-5.3-9.5-3.6-6.4 3 0 0-2.8 4.5 4.7 8 .6.6-2.4 8.1 6.6 8.3-1.8 2.6 1 6.3 4.6 6-2.5 3 1.8 6.5 4.5 5.2-1.1 3.5-1 5.2 3.9 5.6l5.5 6.5 4.5 6zm0 0" transform="scale(.03125 .02917)" fill-rule="evenodd" fill="#4fd46b" stroke-width="2.4" stroke-linejoin="round" stroke="#3a9d4f"/><path d="M414.3 246.6c.3-.4 11-25 12.4-32.3M415.4 203s1.9 20-3.1 34.6m-29.7-54.7s21.9 21 24 29.6m-8.7-32s1.4 17.4 7.5 34.5m31 28.3S414.6 261.8 404 278m11.8 30s-28.8 4-41.4 4.3m32 8s-35.8-.7-38.4-3.4m20.5-43c0 .4-18.3 30.3-18.8 40" transform="scale(.03125 .02917)" fill="none" stroke-width="2.2" stroke-linecap="round" stroke="#3a9d4f"/><path d="M316.9 333.3C279 298 240.4 231 278.9 197.1c6.9 4 14.9.4 26-3.8 3.4 3.6 7.7 4.5 12 1.7a9 9 0 0010.7-2.1c11 6.3 24.9 9.6 28.1 3.3 38 36-.4 103.3-39 137.3zm0 0" transform="scale(.03125 .02917)" fill-rule="evenodd" fill="#65c7ff" stroke-width="2.4" stroke="#7d6c00"/><path d="M10 9.7A6.3 6.3 0 018.5 8l.1-.1h.5c0 .1 0 .3.2.4l.2-.4h.5c.2 0 .1.3.3.4l.3-.4h.4l.1.1A5.7 5.7 0 0110 9.7zm0 0" fill-rule="evenodd" fill="#8fc753"/><path d="M272.6 164.3a3.2 3.2 0 01-1.5 3.4 3.2 3.2 0 01-3.7 0 3.2 3.2 0 01-1.5-3.4c0-1.8 1.5-3.5 3.4-3.5s3.4 1.7 3.4 3.5zm-3.5-7.7c.4 1.4-.2 2.8-1.4 3.6a3.4 3.4 0 01-5.2-3.6c.3-1.6 1.8-2.8 3.4-2.8s3 1.2 3.4 2.8zm-4-7.1c.3 1.3-.4 2.6-1.5 3.4-1.1.7-2.6.7-3.7 0a3.5 3.5 0 01-1.5-3.4 3.4 3.4 0 016.7 0zm-2.9-7c.3 1.3-.2 2.7-1.3 3.5-1.3.7-2.6.7-3.8 0a3.5 3.5 0 01-1.5-3.5 3.3 3.3 0 013.4-2.8c1.6 0 3 1.2 3.3 2.8zm.6-7.6c.2 1.3-.3 2.6-1.4 3.4-1.3.7-2.6.7-3.8 0a3.5 3.5 0 01-1.5-3.4 3.3 3.3 0 013.4-2.8c1.6 0 3 1.2 3.3 2.8zm17.6-12.5a3.2 3.2 0 01-1.5 3.4c-1.1.8-2.5.8-3.8 0-1.1-.7-1.6-2-1.4-3.4a3.3 3.3 0 013.3-2.8c1.8 0 3.1 1.2 3.4 2.8zm0 0" transform="scale(.03125 .02917)" fill-rule="evenodd" fill="#fff" stroke-width="1.1" stroke="#000"/><path d="M273.8 123.6c.2 1.4-.3 2.7-1.4 3.4-1.3.8-2.6.8-3.8 0a3.2 3.2 0 01-1.5-3.4 3.3 3.3 0 013.4-2.8c1.6 0 3 1.2 3.3 2.8zm-7.3 4.3c.3 1.3-.4 2.7-1.5 3.5-1.1.7-2.6.7-3.8 0a3.8 3.8 0 01-1.4-3.5c.3-1.6 1.7-2.8 3.3-2.8s3.1 1.2 3.4 2.8zm22.4-5.4a3.2 3.2 0 01-1.4 3.7c-1.1.8-2.6.8-3.9 0a3.7 3.7 0 01-1.4-3.7 3.4 3.4 0 013.4-2.6c1.5 0 2.9 1 3.3 2.6zm9.4.8c.2 1.4-.3 2.7-1.4 3.4-1.3.8-2.6.8-3.8 0a3.2 3.2 0 01-1.5-3.4c.3-1.7 1.6-2.8 3.4-2.8 1.6 0 3 1.1 3.3 2.8zm8.2-.5c.4 1.4-.3 2.8-1.4 3.6a3.4 3.4 0 01-5.2-3.6 3.4 3.4 0 016.7 0zm0 0" transform="scale(.03125 .02917)" fill-rule="evenodd" fill="#fff" stroke-width="1.1" stroke="#000"/><path d="M325.9 117.5c0 4.8-3.9 8.7-8.6 8.7s-8.6-4-8.6-8.7a8.6 8.6 0 0117.1 0zm0 0" transform="scale(.03125 .02917)" fill-rule="evenodd" fill="#fd0" stroke-width="1.1" stroke="#7d6c00"/><path d="M335 122.7c0 1.9-1.5 3.5-3.4 3.5s-3.4-1.6-3.4-3.5a3.3 3.3 0 013.3-2.8c1.8 0 3.1 1.2 3.4 2.8zm8.6.6c.4 1.5-.2 2.9-1.4 3.7a3.4 3.4 0 01-5.2-3.7c.3-1.6 1.8-2.8 3.4-2.8s3 1.2 3.4 2.8zm8.5-.4c.3 1.4-.4 2.7-1.5 3.5a3.2 3.2 0 01-3.7 0 3.5 3.5 0 01-1.5-3.5 3.4 3.4 0 016.7 0zm7.1-.2c.2 1.3-.3 2.7-1.4 3.5-1.2.6-2.7.6-3.8 0a3.5 3.5 0 01-1.5-3.5c.3-1.6 1.8-2.8 3.4-2.8s3 1.2 3.4 2.8zm9 1a3.2 3.2 0 01-1.6 3.4 3.2 3.2 0 01-3.7 0 3.2 3.2 0 01-1.5-3.3c.2-1.8 1.7-2.9 3.4-2.9s3 1.1 3.3 2.8zm7 4.3c.2 1.4-.4 2.7-1.6 3.5a3.2 3.2 0 01-3.7 0 3.5 3.5 0 01-1.5-3.5 3.4 3.4 0 016.7 0zm0 0" transform="scale(.03125 .02917)" fill-rule="evenodd" fill="#fff" stroke-width="1.1" stroke="#000"/><path d="M269.4 151.7l8.6 16.5h79.3l9-16c-5.3-3.5-9-6.4-16.6-4.7-4.3-6.2-9-7.3-16-6.7-2-2-4-3.4-7.6-4l-16.6.5c-4.4.4-7.8 3.9-8 3.9-7-1-13.5-.8-15.3 6.1-6.4-1.6-11 .2-16.8 4.4zm0 0" transform="scale(.03125 .02917)" fill-rule="evenodd" fill="#e40000" stroke-width="2.4" stroke="#ac0000"/><path d="M378 135.3c.3 1.3-.4 2.6-1.5 3.4-1.1.7-2.6.7-3.8 0a3.8 3.8 0 01-1.4-3.4c.3-1.6 1.7-2.8 3.3-2.8s3.1 1.2 3.4 2.8zm.6 8c.3 1.3-.4 2.7-1.5 3.5-1.1.7-2.6.7-3.7 0a3.5 3.5 0 01-1.5-3.5 3.4 3.4 0 016.7 0zm-2.5 7.2a3.2 3.2 0 01-1.5 3.4 3.2 3.2 0 01-3.7 0 3.2 3.2 0 01-1.5-3.4 3.4 3.4 0 016.7 0zm-3 6c0 2-1.5 3.4-3.4 3.4s-3.4-1.5-3.4-3.3c.3-1.8 1.7-3 3.3-3a3.4 3.4 0 013.4 3zm-3.7 7.6a3.2 3.2 0 01-1.5 3.3c-1.1.8-2.5.8-3.8 0-1.1-.7-1.6-2-1.4-3.3.3-1.8 1.7-3 3.3-3 1.8 0 3.1 1.2 3.4 3zm-46.8-9.7a5 5 0 01-10 0c0-2.8 2.3-5 5-5s5 2.2 5 5zm1-11.4c0 3.3-2.7 6-6 6a6 6 0 01-6-6 6 6 0 016-6 6 6 0 016 6zm0 0" transform="scale(.03125 .02917)" fill-rule="evenodd" fill="#fff" stroke-width="1.1" stroke="#000"/><path d="M322.8 132c0 3-2.6 5.4-5.6 5.4a5.4 5.4 0 010-10.8c3 0 5.6 2.4 5.6 5.5zm0 0" transform="scale(.03125 .02917)" fill-rule="evenodd" fill="#fff" stroke-width="1.1" stroke="#000"/><path d="M315.5 109V105l-3.6-.2.2-3.2h3v-2.8h4.5v2.5h3.5l-.1 3.4h-3.6v4.6h-4zm0 0" transform="scale(.03125 .02917)" fill-rule="evenodd" fill="#fd0" stroke-width="1.1" stroke="#7d6c00"/><path d="M277.6 168.2c-7.1-12-17.6-28.4-11-35.5 8.9-10.2 29.9-1 43.3-6.8 1 11.4-2.1 30.4 2.9 34.3l-4.8 4.3c-3-3.8-8.4-8.9-15.3.1-4-3.4-8.2-2.8-10.3 1.7-2 .3-1.9 1.1-4.8 2zm80-.5c7.1-12 17.6-28.3 11.1-35.4-9-10.2-30-1-43.3-7-1 11.6 2.2 30.6-3 34.5l4.9 4.3c4.6-6.6 10.3-6.7 15.2.1 3.9-3.4 7.9-3 10.4 1.7 2 .3 1.9 1 4.9 1.8zm0 0" transform="scale(.03125 .02917)" fill="none" stroke-width="3.3" stroke="#fd0"/><path d="M277.3 177c26.3-2.4 53-2.4 79.3 0l3.1-9a228 228 0 00-83-.5zm0 0" transform="scale(.03125 .02917)" fill-rule="evenodd" fill="#fd0" stroke-width="2.4" stroke="#7d6c00"/><path d="M9.8 9.6v-.1h.3v-.1H10h-.2v-.2h-.2v.1l.1.1v.1zm0-.5h-.2-.2V9l.1-.2h.2l.2.3zm0 0" fill-rule="evenodd" fill="#c76e2e"/><path d="M300.8 366c7-11.4 56.2-34.4 102.4-84.2-47 45.3-76.4 56.4-114.8 84l12.4.4zm0 0" transform="scale(.03125 .02917)" fill-rule="evenodd" fill="#ffe100" stroke-width="2.4" stroke="#e9bf00"/><path d="M368.4 313.3c0 1.8-1.6 3.4-3.6 3.4s-3.6-1.6-3.6-3.4c0-2 1.6-3.7 3.6-3.7s3.6 1.7 3.6 3.7zm34.4-35c0 2.3-1.8 4-4 4s-4-1.7-4-4 1.7-4 4-4a4 4 0 014 4zm11.4-29.6c.3 1.3-.3 2.8-1.6 3.6-1.2.8-2.7.8-4 0a3.7 3.7 0 01-1.5-3.6c.3-1.7 1.8-3 3.5-3s3.3 1.3 3.6 3zM403 210.3c.3 1.4-.4 2.8-1.6 3.6-1.1.8-2.8.8-3.9 0a3.5 3.5 0 01-1.6-3.6 3.7 3.7 0 013.6-3c1.8 0 3.3 1.2 3.5 3zm0 0" transform="scale(.03125 .02917)" fill-rule="evenodd" fill="#9d4916" stroke-width="1.1" stroke="#68300e"/><path d="M279.1 269.6v-15.1l-1.5-1.2v-3.7l2.8-.4.5-16.8-1.8-1.1-.2-2.8s2 .8 2 .2l.5-3.3s-1.3-.3-1.3-.7c0-.5 1.6-1.8 1.6-1.8s-.8-.8-1-1.2l-.8-2.9.9-3-.6-1.4-1.3-2.3 1.9-1.8-.6-2.8c.3-1 .8-2 1.6-2.9l2.2-3 4.4-1 5.1.7 2.8 1.7.4 4.7s-.4 2.8-.6 2.8l-2.4 1s-2.4.2-2.8 0c-.3-.3.9 3.2.9 3.2v3l-.3 4s0 1.7-.3 2c-.3 0-.8.9-.8.9l-.1 4 4 1-.3 2.4-2.8.1.6 15.7 4 .6v4.5l-1.8 1-.5 15.7zm62.4.3v-15.2l-1.5-1.3v-3.6l2.8-.2.4-17-1.7-1-.3-2.9s2 .9 2 .3l.6-3.3s-1.3-.3-1.3-.8c0-.4 1.6-1.8 1.6-1.8s-.9-.6-1-1.3l-.9-2.8 1-2.8-.7-1.5-1.3-2.3 2-1.9-.7-2.8c.4-1 .9-2 1.6-2.8l2.3-3 4.4-1.1 5 .8 3 1.8.4 4.6s-.4 2.8-.7 2.8l-2.3 1s-2.6.3-3 0c-.2-.3 1 3.2 1 3.2v3l-.4 4s0 1.7-.2 2l-.9.9v3.8l4 1.1-.3 2.3-2.8.3.5 15.6 4.1.8v4.5l-1.8.9-.5 15.7zm-31.6.5v-15.3l-1.5-1v-3.8l2.9-.3.4-17-1.8-.9-.1-2.8s2 .8 2 .3l.4-3.4s-1.2-.3-1.2-.7c0-.5 1.5-1.8 1.5-1.8l-1-1.2-.8-3 .8-2.8-.5-1.5-1.3-2.3 1.8-1.8-.5-2.8c.4-1.1.9-2 1.5-2.9.3-.2 2.3-3 2.3-3l4.4-1 5 .7 3 1.7.6 4.7s-.7 2.8-1 2.8l-2.2 1s-2.6.2-2.9 0l.8 3v3.1l-.3 4s0 1.8-.2 2l-.8 1-.2 3.9 4 1-.3 2.3-2.7.3.5 15.7 4.1.6v4.5l-1.9 1-.4 15.7zm0 0" transform="scale(.03125 .02917)" fill-rule="evenodd" fill="#fff" stroke-width="1.1" stroke="#a9a9a9"/><path d="M8.8 7.9v-.4h.3V8h-.3zm1 0v-.4h.2V8h-.2zm1 0v-.4h.2V8h-.2zm-2-1H9V7H9zm1 0h.2V7h-.2zm1 0h.2V7h-.2zm0 0" fill-rule="evenodd"/><path d="M286.6 207c4 4.6 4.3 4.6 4.3 4.6m26.2-4.5c.8 1.4 2 4.6 3.6 5m29.3-4.4s1.3 3.6 3 4" transform="scale(.03125 .02917)" fill="none" stroke-width="1.1" stroke="#a8a8a8"/><path d="M8.8 5.7c.4-.2 0-.4-.1 0h-.4c-.7 1-.2 2.6 1.6 4.2-3.3-2.7-2-4.6-1-4.6.5 0 .2.7 0 .4zm0 0" fill-rule="evenodd" fill="#b97700"/><path d="M285.6 177s9.6 2.7 9.6 6.8m0-7.6s7 3.1 8.4 5.7m45.1-4.4s-8.6 1.2-10.4 3.7m-2.7-3s-5 4-4.5 5.3m3.4 12.7c-.8-.3-4.3-5-3.4-10.4m-29.9 7.5s2.4-2.7 2.4-7.5m13.5-2l.4 11m9.4-1.5c0-.8 3-8-.4-11.4m-20.3-1.5s-2.6 7.2-.7 13.3m20-6.9s-4.3 1.2-6 3m-11.8-1.9c0-.3 4.6-1 6 1.6" transform="scale(.03125 .02917)" fill="none" stroke-width="2.4" stroke="#7d6c00"/><path d="M9.4 8.8h.1v-.2l-.2-.2v-.1l-.2.2h.2v.2l.1.1zm-.1-.6V8H9v.2h.3zm-.5.2a.2.2 0 01.1 0zm1.2.1v-.2h-.2-.1a.8.8 0 00.3.2zm.1 0h.2v-.1l.3.2h-.2-.3zm.1-.3a.4.4 0 000-.2H10v.1l.2.1zM11 8v.2l.3-.2H11zm0 0" fill-rule="evenodd" fill="#c76e2e"/><path d="M11 5.6c-.3 0 .1-.3.2 0l.4.1c.6 1 .2 2.5-1.7 4.1 3.3-2.6 2-4.6 1-4.5-.4 0-.2.6.1.3zm0 0" fill-rule="evenodd" fill="#b97700"/><path d="M11 8.3l-.2.1h-.1v-.2a.3.3 0 00-.2.1l.1.2h.1a.2.2 0 00.2 0zm-.7.9l.4-.4a.3.3 0 00-.2-.1l-.1.2s-.1.2 0 .2c0 0 0 .1 0 0zm0 0" fill-rule="evenodd" fill="#c76e2e"/><path d="M266.4 317.4c-14.8-12.8-34.8-20-62.6-10.3 7.4 3.2 15.4 4.3 22.4 7.9zm0 0" transform="scale(.03125 .02917)" fill-rule="evenodd" fill="#006800" stroke-width="2.4" stroke-linejoin="round" stroke="#004100"/><path d="M223.4 308.3c29.3.5 37.8 7.9 36.3 6.7" transform="scale(.03125 .02917)" fill="none" stroke-width="2.2" stroke-linecap="round" stroke="#00a400"/><path d="M267 319c-8.8 1.6-20.8 10-24.4 9.7-9.5-1.1-18.5-5-27.7-8-3.8-1.1-7.7 0-11.7 0 33-15.5 44-13.3 63.8-1.8zm0 0" transform="scale(.03125 .02917)" fill-rule="evenodd" fill="#006800" stroke-width="2.2" stroke-linejoin="round" stroke="#004100"/><path d="M245.4 296s-11 1.6-15.9 1.9c-4.8-.3-12-4.9-19.8-13-4-4.6-13.4-4-13.4-4 20.6-4.3 36.7-.2 49 15.2zm-15-21.2c-14.9-1-33.5-14.3-37.7-30.2 0 .2 5.6 3.4 4.6 4.2 24.4 6.3 26 11.3 33 26zm25 25.5c2.1-13.6 2.7-22.4-3.7-30.4-5.2-6-6.4-9.7-10.3-18.2-1.2 17.8-5 32.4 14 48.6zM232 263c11-16 13-28.4 11.3-47.5-.4 1.5-4 11-4.3 11-16.5 10.3-9.3 26.5-7 36.5zm0 0" transform="scale(.03125 .02917)" fill-rule="evenodd" fill="#006800" stroke-width="2.4" stroke-linejoin="round" stroke="#004100"/><path d="M222.3 185c11 16.2 9.3 31.3 7.4 50.4-.2-1.4-4-11-4-11-16.6-10.2-5.6-29.4-3.4-39.4zm0 0" transform="scale(.03125 .02917)" fill-rule="evenodd" fill="#006800" stroke-width="2.4" stroke-linejoin="round" stroke="#004100"/><path d="M231.3 210c26.8-13.7 16.4-30.7 21.4-44-18.6 13.9-21 28.6-21.3 44zm0 0" transform="scale(.03125 .02917)" fill-rule="evenodd" fill="#006800" stroke-width="2.4" stroke-linejoin="round" stroke="#004100"/><path d="M235 206.7c3.4-9.6 10-25.8 10.8-25.8M227 226.3c-.6-6.7-4-24.6-4.3-26.3" transform="scale(.03125 .02917)" fill="none" stroke-width="2.2" stroke-linecap="round" stroke="#00a400"/><path d="M228.3 256.5c-15-1-31-21.3-35.3-37.1 0 .2 5.5 3.5 4.6 4.3 21.4 9.5 23.7 18 30.7 32.8zm-4.4-14c-11-16.2-13-28.3-11.3-47.5.3 1.5 4 11 4.3 11 16.3 10.3 9.1 26.5 7 36.5zm9.8-28.3c27.8-12.2 19.3-25.2 27.6-38.8-18.7 13.8-27.2 23.5-27.6 38.8zm0 0" transform="scale(.03125 .02917)" fill-rule="evenodd" fill="#006800" stroke-width="2.4" stroke-linejoin="round" stroke="#004100"/><path d="M235 211.3a70.8 70.8 0 0015.3-20.6" transform="scale(.03125 .02917)" fill="none" stroke-width="2.2" stroke-linecap="round" stroke="#00a400"/><path d="M333.6 366.4l13.4.2c-44.8-42-130.5-60.2-118.6-137.4-12.3 83.7 70.1 91.6 105.2 137.2zm0 0" transform="scale(.03125 .02917)" fill-rule="evenodd" fill="#ffe100" stroke-width="2.4" stroke="#e9bf00"/><path d="M235.4 212.7c0 2.4-1.9 4.3-4.3 4.3s-4.3-2-4.3-4.3a4.3 4.3 0 118.6 0zm-2.7 23.6c0 2.2-1.7 4.1-4 4.1s-4-1.9-4-4.2a4 4 0 014-3.8 4 4 0 014 3.9zm4 33.7a3.6 3.6 0 01-3.7 3.6c-2 0-3.6-1.6-3.6-3.6a3.6 3.6 0 013.6-3.6c2 0 3.6 1.6 3.6 3.6zm31.2 37.2a3.6 3.6 0 01-3.6 3.6c-2 0-3.6-1.6-3.6-3.6s1.6-3.6 3.6-3.6 3.6 1.6 3.6 3.6zm4.5 10.7c0 2-1.6 3.7-3.6 3.7s-3.6-1.8-3.6-3.7a3.6 3.6 0 017.1 0zm0 0" transform="scale(.03125 .02917)" fill-rule="evenodd" fill="#9d4916" stroke-width="1.1" stroke="#68300e"/><path d="M288.3 349a15 15 0 01-5-5.7l-14-1.6v8zm0 0" transform="scale(.03125 .02917)" fill-rule="evenodd" fill="#fff" stroke-width="1.1" stroke="#000"/><path d="M185.3 339.6c8.2 1.5 20.4-.8 24.4 4.5 5 5.5-15 13.9-12.2 18.6 6.3 6.5 12.5 3.9 19.4.2 1.7-3.4 3-9.9 3.8-11.7-2.4-5.7-9.3-8.6-7.4-17.3 11.2-4.2 33-3.9 35.4-2.2 2 3.7.2 5.3.6 8-2 3.8-6.7 9.9-6.7 13.2 12 4.2 15-.5 25.8-.4 12.6.1 20.2 3.6 23-1.3-2-4.5-13.5-.8-17.8-3.7-2.2-.8-3.6-2.5-5.5-4.4s-7.2-2-8-7c2.1-10.1 17-8.5 19.3-10.1l38.4 2.7c7-.2 11 12.3 1.4 16-9.3 3.8-37-5.5-49 .8-.7-2.5-9.4-6.5-10-6.7-3.7 1.1-11 .8-11 .8-1.6 3.3-3.7 5.5-5.4 8.9-8-3.5-15.6 2.7-24.2 1l-13.6 1.4-8.6-.8-13.2 3.7 9.4-8.3zm0 0" transform="scale(.03125 .02917)" fill-rule="evenodd" fill="#fff" stroke-width="1.1" stroke-linejoin="round" stroke="#000"/><path d="M184.8 338a3.6 3.6 0 01-3.7 3.7c-2 0-3.6-1.7-3.6-3.7a3.6 3.6 0 013.6-3.6c2 0 3.7 1.6 3.7 3.6zm-1 18a3.6 3.6 0 01-3.7 3.6c-2 0-3.6-1.6-3.6-3.6a3.6 3.6 0 013.6-3.6c2 0 3.7 1.6 3.7 3.6zm162.4-6.8c2.4-2.2 4-3.7 4.8-6l14-1.5.3 8zm0 0" transform="scale(.03125 .02917)" fill-rule="evenodd" fill="#fff" stroke-width="1.1" stroke="#000"/><path d="M449.1 339.6c-8.1 1.5-20.4-.8-24.4 4.5-5 5.5 15 14 12.2 18.6-6.1 6.5-12.5 3.9-19.4.2-1.6-3.4-2.9-9.7-3.8-11.6 2.6-5.8 9.3-8.6 7.6-17.3-11.4-4.3-33.3-4-35.6-2.3-2 3.7-.2 5.3-.6 8.2 2 3.6 6.8 9.8 6.8 13-12 4.3-15.1-.5-25.8-.3-12.6.2-20.4 3.5-23-1.4 1.9-4.5 13.4-.8 17.8-3.7 2.2-.8 3.6-2.4 5.5-4.4s7.2-2 8-6.8c-2.1-10.2-17-8.7-19.4-10.2l-38.4 2.6c-7-.2-10.9 12.3-1.5 16.2 9.4 3.7 37.1-5.7 49.1.6.8-2.5 9.4-6.4 10-6.7 3.7 1.2 11 .8 11 .8 1.7 3.3 3.7 5.7 5.6 9 8-3.6 15.4 2.7 24 .8l13.6 1.5 8.7-.7 13.1 3.6-9.3-8.1zm0 0" transform="scale(.03125 .02917)" fill-rule="evenodd" fill="#fff" stroke-width="1.1" stroke-linejoin="round" stroke="#000"/><path d="M449.8 338a3.6 3.6 0 003.6 3.7c2 0 3.6-1.7 3.6-3.7s-1.6-3.7-3.6-3.7-3.6 1.7-3.6 3.7zm1 18c0 2 1.4 3.6 3.4 3.6s3.7-1.6 3.7-3.6a3.6 3.6 0 00-3.6-3.6c-2 0-3.6 1.6-3.6 3.6zm0 0" transform="scale(.03125 .02917)" fill-rule="evenodd" fill="#fff" stroke-width="1.1" stroke="#000"/><path d="M10 9.6h-.3l-.2.4h.5c-.1 0-.1-.4 0-.4zm0 0" fill-rule="evenodd" fill="#fff"/><use xlink:href="#a" x="8.8" y="9.9"/><use xlink:href="#b" x="9.1" y="9.9"/><use xlink:href="#c" x="9.2" y="10"/><use xlink:href="#d" x="9.5" y="10"/><use xlink:href="#e" x="9.8" y="10"/><use xlink:href="#f" x="10.1" y="10"/><use xlink:href="#g" x="10.4" y="9.9"/><use xlink:href="#h" x="10.7" y="9.9"/><path d="M231.3 318.6c10 1.2 24 .3 30.2 0M216 284.2c8.6 6.7 27.1 10.7 26.8 10.7m10.7 1.8c-2.8-14-5.8-17.5-8.3-26.2m-43.4-15.8c14.2 6.5 16.4 10.6 25.4 17m5.3-14c1.3-17.3 3.6-21.9 7.9-25.9m-38.7-2a3721 3721 0 0022.2 23.7m-7-39.6c6.3 4.5 6.3 21 6.3 21" transform="scale(.03125 .02917)" fill="none" stroke-width="2.2" stroke-linecap="round" stroke="#00a400"/></svg>