<svg width="21" height="15" xmlns="http://www.w3.org/2000/svg"><defs><linearGradient x1="50%" y1="0%" x2="50%" y2="100%" id="a"><stop stop-color="#FFF" offset="0%"/><stop stop-color="#F0F0F0" offset="100%"/></linearGradient><linearGradient x1="50%" y1="0%" x2="50%" y2="100%" id="b"><stop stop-color="#43924C" offset="0%"/><stop stop-color="#3A7E42" offset="100%"/></linearGradient><linearGradient x1="50%" y1="0%" x2="50%" y2="100%" id="c"><stop stop-color="#CD153A" offset="0%"/><stop stop-color="#B31031" offset="100%"/></linearGradient><linearGradient x1="50%" y1="0%" x2="50%" y2="100%" id="d"><stop stop-color="#F5D24B" offset="0%"/><stop stop-color="#ECC736" offset="100%"/></linearGradient></defs><g fill="none" fill-rule="evenodd"><path fill="url(#a)" d="M0 0h21v15H0z"/><path fill="url(#b)" d="M0 0h21v3H0zm0 12h21v3H0z"/><path fill="url(#a)" d="M0 3h21v9H0z"/><path fill="url(#c)" d="M0 5h21v5H0z"/><path fill="url(#d)" d="M10.5 8.775l-1.47.998.495-1.706-1.403-1.09 1.776-.056.602-1.671.602 1.67 1.776.057-1.403 1.09.494 1.706z"/></g></svg>