<svg xmlns="http://www.w3.org/2000/svg" width="20" height="14"><path fill="#3e5eb9" d="M0 0h20v14H0z"/><path d="M-1.3 2.5h22.6v9H-1.4zm0 0" fill-rule="evenodd" fill="#ffd900"/><path d="M-1.3 3.5h22.6v7H-1.4zm0 0" fill-rule="evenodd" fill="#b10c0c"/><path d="M-45.6 250.6h610.1c3.2 0 5.8 2.4 5.8 5.4 0 3-2.6 5.4-5.8 5.4H-45.6c-3.2 0-5.9-2.4-5.9-5.4 0-3 2.7-5.4 5.9-5.4zm0 0" transform="matrix(.0293 0 0 .02734 2.5 0)" fill-rule="evenodd" fill="#ffd900" stroke-width="1.5" stroke="#000"/><path d="M-106.4 265.6l-88.5 35.6 88.5 35.5 88.5-35.5zm0 0" transform="matrix(.01028 0 0 .00847 18.3 3.1)" fill-rule="evenodd" fill="#fff" stroke-width="4.2" stroke="#000"/><path d="M765.9 223.2h434.7c2.3 0 4.1 1.6 4.1 3.6 0 1.9-1.8 3.5-4.1 3.5H765.9c-2.2 0-4.2-1.6-4.2-3.6 0-1.9 2-3.5 4.2-3.5zm0 0" transform="matrix(.03024 0 0 .02822 -19.7 -.7)" fill-rule="evenodd" fill="#ffd900" stroke-width="1.3" stroke="#000"/><path d="M1224.3 280.1c-3.4 0-7-3.6-7-7.2s3.6-7.2 7-7.2" transform="matrix(-.01512 0 0 .01411 35 1.8)" fill="none" stroke-width="2.7" stroke="#000"/><path d="M1224.3 280.1c-3.4 0-7-3.6-7-7.2s3.6-7.2 7-7.2" transform="matrix(-.01512 0 0 .01411 34.8 1.8)" fill="none" stroke-width="2.7" stroke="#000"/><path d="M1224.3 279.9c-3.3 0-7-3.6-7-7.2s3.7-7 7-7" transform="matrix(-.01512 0 0 .01411 34.7 1.9)" fill="none" stroke-width="2.7" stroke="#000"/><path d="M-106.1 266l-89 35 89 35.6 88.5-35.6zm0 0" transform="matrix(.01028 0 0 .00847 17.5 3.7)" fill-rule="evenodd" fill="#fff" stroke-width="4.2" stroke="#000"/><path d="M765.9 223.2h434.7c2.3 0 4.1 1.6 4.1 3.5 0 2-1.8 3.6-4.1 3.6H765.9c-2.2 0-4-1.7-4-3.6 0-2 1.8-3.5 4-3.5zm0 0" transform="matrix(.03024 0 0 .02822 -20.5 -.1)" fill-rule="evenodd" fill="#ffd900" stroke-width="1.3" stroke="#000"/><path d="M1224.4 280c-3.4 0-7-3.6-7-7.2s3.6-6.9 7-6.9" transform="matrix(-.01512 0 0 .01411 34 2.4)" fill="none" stroke-width="2.7" stroke="#000"/><path d="M1224.3 280c-3.3 0-7-3.6-7-7.2s3.7-6.9 7-6.9" transform="matrix(-.01512 0 0 .01411 34 2.4)" fill="none" stroke-width="2.7" stroke="#000"/><path d="M1224.4 280c-3.4 0-7-3.5-7-7.1 0-3.6 3.6-7.2 7-7.2" transform="matrix(-.01512 0 0 .01411 33.9 2.5)" fill="none" stroke-width="2.7" stroke="#000"/><path d="M338-.4c-5.5 12.4 4.3-4 28.5 16.7 4.2 3.9 8.3 14 8.3 21.1-1.2-1-2-3-3.3-4.4-1.8 2.2 1.7 12.6 2.2 17.4-3.8-2.8-3.4-4-4.7-7.4.3 4-.5 15.2 1 19.4-3.1-1-2.9-4-4.4-4.8 1 4.8-1 10-.4 15.6-1.8-2.3-3.6-4-4.4-4.8-.1 2.5-3.3 9.2-3.5 11.8a6.3 6.3 0 01-2-4.2 89 89 0 00-8.7 17.2c-5-5.8-17.8-19.5-19.4-26.9-1.6 4.3-3.7 5.6-8 8.7-1.6-11.6-7.9-24.8-4.5-34.8a82.6 82.6 0 00-6.6 6 68 68 0 0130-46.6zm0 0" transform="matrix(.02913 0 0 .02109 8 6.9)" fill-rule="evenodd" fill="#3d5da7" stroke-width="1.4" stroke="#000"/><path d="M17.3 8.2l.2-.3.1-.2c.1 0 .1 0 0 .2l-.3.3zm.5.3v-.2V8v.4zm.3.2v-.3V8v.2c.1.2 0 .2 0 .4zm.4-1h-.2l-.2-.2.1.2h.3zm0 .5l-.2-.2s0-.2-.1-.1V8l.2.2zm0 0" fill-rule="evenodd" fill="#a70000"/><path d="M329.6 20.6c-.3-2.6.3-3-1.3-4.9 2.2 1 2.3 3.7 5 1.8 1-.5 1.4-.5.2-3.5 2.8 0 12 3.5 13.4 3.6 3.8.2 10.9-4.5 15.7 1.3 4.7 5 3.2 10.3 3.2 17.4-2-1-1.1-1.4-3.1-4 1.6 6.2 0 17.5 0 24-.8-1.6-.7-1-1.4-2.6-2 6-4.3 7.4-4.3 14.3-.7-2.7 0-2.2-.9-3.5-2 4.5-15 8.3-10 12.9-4.4-2.9-6.4-2.5-8.5-5-1 .5-1.6 1.7-2.4 3.4-8-4.1-5-12.6-11.3-18.3-1 2.3-.6 2-1.8 5.9-1.3-5.5-1.6-8.9-3-12.8-1.2 2.2-1 1.3-3.3 4.7-1-6.6-2.5-8.3-1.8-12.5-2.4 1.8-.8 1-3.2 3.3 2.2-17 12-29.4 18.8-25.5zm0 0" transform="matrix(.03332 0 0 .0287 -9.2 6.5)" fill-rule="evenodd" fill="#3d5da7" stroke-width="1.4" stroke="#000"/><path d="M1.5 8l.1-.4.2-.3v.3a.7.7 0 01-.3.3zm.2.3l.1-.3v-.2L2 8c0 .1 0 .2-.2.3zm.3.3v-.3l.1-.3v.6zm.7-.9l-.3-.2c-.1-.1-.2-.3-.3-.2l.2.2.4.2zm-.1.5c0-.2-.1-.2-.2-.3l-.2-.2.1.2c0 .2.1.2.3.3zm0 0" fill-rule="evenodd" fill="#a70000"/><path d="M637.7 230.3c-53 59-124 177.1-265.6 177.1-124 0-212.6-118-265.7-177.1C159.4 171.3 248 53 372 53c141.6 0 212.5 118.1 265.6 177.2zm0 0" transform="matrix(.02016 0 0 .01693 2.5 3.1)" fill-rule="evenodd" fill="#fff" stroke-width="2.1" stroke="#000"/><path d="M9.6 5c.3.3 0 .5.4.5.3 0 .1.3.4.3.2 0 0 .7.1 1 .2.2.4 0 .4.2s-.5.1-.5.7c0 .3-.5.3-.5.5s.8.3.8.5-.9.2-1 .4c0 .1 1.3.3 1.4.8L10 10c-2.5 0-4.3-2-5.4-3C5.7 6 7.5 4 10 4c0 0-.7.6-.4 1zm0 0" fill-rule="evenodd"/><path d="M6.6 6H7v.7h-.3zm0 1.3H7V8h-.3zm.6-1.4h.2v.8h-.2zm0 1.4h.2V8h-.2zm.5-1.4h.2v.8h-.2zm0 1.4h.2V8h-.2zm.5-1.4h.3v.8h-.3zm0 1.4h.3V8h-.3zm.5-1.4H9v.8h-.3zm0 1.4H9V8h-.3zm.5-1.4h.3v.8h-.3zm0 1.4h.3V8h-.3zm0 0" fill-rule="evenodd" fill="#fff"/><path d="M10.6 6h.2v.7h-.2zm0 1.3h.2V8h-.2zm.5-1.4h.3v.8H11zm0 1.4h.3V8H11zm.5-1.4h.3v.8h-.3zm0 1.4h.3V8h-.3zm.5-1.4h.3v.8H12zm0 1.4h.3V8H12zm.5-1.4h.3v.8h-.3zm0 1.4h.3V8h-.3zm.6-1.4h.2v.8h-.2zm0 1.4h.2V8h-.2zm0 0" fill-rule="evenodd"/><path d="M338-.5c-5.5 12.5 9.8-4 33.7 16.9 6 7.4 9.9 16.5 11 26.1-5-1.3-14.2-7-14.2-7s10.6 12.3 10.6 26.4c-3.7-2.7-5.6-2.3-6.8-5.6 0 4.5 3.3 7.4 3.3 14.7a41.9 41.9 0 00-7.4-5.8c3.5 7-6.4 20.8-1.4 25.6-8.7-1.7-17.6-8-21.2-15.1-1.9 1.5-2 3.6-2.2 6.2.3.2-13.3-11.6-12-16.4a15 15 0 00-2.5 8 42.6 42.6 0 01-11.3-18.7l-4.6 6.8c-1.7-11.8-1.7-11.5 1.7-21.5a56.9 56.9 0 00-6.6 6c3-19 13.8-35.9 30-46.6zm0 0" transform="matrix(.02664 0 0 .02153 -.7 4.5)" fill-rule="evenodd" fill="#3d5da7" stroke-width="1.4" stroke="#000"/><path d="M7.9 5.8v-.3c.1-.2 0-.4.2-.4v.3c0 .2 0 .3-.2.4zm.4.4v-.3-.3l.1.2v.4zm.7.3l-.2-.3-.2-.3v.3l.4.3zm.2-1.3l-.4-.1c-.2-.1-.3-.2-.4-.1l.3.2h.5zm0 .6L9 5.6l-.3-.2.1.2.5.2zm0 0" fill-rule="evenodd" fill="#a70000"/></svg>