<svg width="21" height="15" xmlns="http://www.w3.org/2000/svg" xmlns:xlink="http://www.w3.org/1999/xlink"><defs><linearGradient x1="50%" y1="0%" x2="50%" y2="100%" id="a"><stop stop-color="#FFF" offset="0%"/><stop stop-color="#F0F0F0" offset="100%"/></linearGradient><linearGradient x1="50%" y1="0%" x2="50%" y2="100%" id="b"><stop stop-color="#07319C" offset="0%"/><stop stop-color="#00247E" offset="100%"/></linearGradient><linearGradient x1="50%" y1="0%" x2="50%" y2="100%" id="d"><stop stop-color="#A7D2FF" offset="0%"/><stop stop-color="#91C6FD" offset="100%"/></linearGradient><path d="M0 3.5V.51C0 .228.215 0 .498 0h4.004C4.777 0 5 .227 5 .51V3.5C5 5.5 2.5 6 2.5 6S0 5.5 0 3.5z" id="c"/><linearGradient x1="50%" y1="0%" x2="50%" y2="100%" id="e"><stop stop-color="#EE7B2D" offset="0%"/><stop stop-color="#CC621A" offset="100%"/></linearGradient><linearGradient x1="50%" y1="0%" x2="50%" y2="100%" id="g"><stop stop-color="#FFFC4B" offset="0%"/><stop stop-color="#FFFC38" offset="100%"/></linearGradient><linearGradient x1="50%" y1="0%" x2="50%" y2="100%" id="h"><stop stop-color="#DB1E36" offset="0%"/><stop stop-color="#D51931" offset="100%"/></linearGradient></defs><g fill="none" fill-rule="evenodd"><path fill="url(#a)" d="M0 0h21v15H0z"/><path fill="url(#b)" d="M0 0h21v15H0z"/><path d="M3 3.23L-1.352-.5H.66L4.16 2h.697L9.5-.902V.25c0 .303-.167.627-.418.806L6 3.257v.513l3.137 2.69c.462.395.204 1.04-.387 1.04-.245 0-.545-.096-.75-.242L4.84 5h-.697L-.5 7.902v-1.66l3.5-2.5V3.23z" fill="url(#a)" fill-rule="nonzero"/><path d="M3.5 3L0 0h.5L4 2.5h1L9 0v.25a.537.537 0 0 1-.208.399L5.5 3v1l3.312 2.839c.104.089.072.161-.062.161a.898.898 0 0 1-.458-.149L5 4.5H4L0 7v-.5L3.5 4V3z" fill="url(#h)"/><path d="M0 2.5v2h3.5v2.505c0 .273.214.495.505.495h.99a.496.496 0 0 0 .505-.495V4.5h3.51a.49.49 0 0 0 .49-.505v-.99a.495.495 0 0 0-.49-.505H5.5V0h-2v2.5H0z" fill="url(#a)"/><path fill="url(#h)" d="M0 3h4V0h1v3h4v1H5v3H4V4H0z"/></g><path fill="#2fadf5" d="M17,7.7c0,0.2,0,0.8,0,1c-0.1,0.9-0.6,1.8-1.6,2.2c-1.2-0.5-1.6-1.3-1.7-2.2c0-0.2,0-0.5,0-0.8l0-1.2H17 L17,7.7z"/><path fill="#FFFFFF" d="M16.9,8.7c0,0,0,0.1,0,0.1c-0.1,0.9-0.6,1.7-1.6,2.1c-1.1-0.4-1.5-1.2-1.7-2.1c0,0,0-0.1,0-0.1"/><polygon fill="#2fadf5" points="15.3,9.8 14.7,8.7 15.9,8.7"/><polygon fill="#FFFFFF" points="15.3,7.6 14.7,8.7 15.9,8.7 "/><ellipse fill="#dc9f47" cx="17.6" cy="9.4" rx="0.4" ry="1.1"/><ellipse fill="#dc9f47" cx="13" cy="9.4" rx="0.4" ry="1.1"/><polygon fill="#FFFFFF" points="15.3,4.1 14.4,5.2 16.2,5.2 "/><path fill="#FFFFFF" d="M13.5,10.5c0,0,0.9,0.8,1.8,0.8c0.9,0,1.7-0.8,1.7-0.8l0.2,0.4c0,0-0.6,0.8-2,0.8c-1.4,0-2-0.8-2-0.8L13.5,10.5z"/><ellipse fill="#A5A5A5" cx="15.3" cy="6" rx="0.9" ry="0.6"/></svg>