<svg xmlns="http://www.w3.org/2000/svg" width="20" height="14"><path fill="#060" d="M0 0h20v14H0z"/><path d="M0 0h20v10H0zm0 0" fill="#fff"/><path d="M0 0h20v4H0zm0 0" fill="#c00"/><path d="M9.4 6.8a.3.3 0 01.3-.1l.2.2v1h.2V7a.3.3 0 01.2-.2.3.3 0 01.3.1.6.6 0 00-.2-.6.7.7 0 00-.8 0 .6.6 0 00-.2.6" fill="#f8c300"/><path d="M9.5 6.6a.4.4 0 01.5.1.4.4 0 01.5-.1.4.4 0 00-.5-.4c-.2 0-.4.1-.5.4" fill="#fff"/><path d="M9.9 7.5a.8.8 0 01-.5.7.9.9 0 01-.9-.2.8.8 0 01-.5.5.9.9 0 01-.7-.1c0 .7 1.2.5 1.3-.2.4.6 1.2.5 1.4-.3zm.2 0a.8.8 0 00.5.7.9.9 0 00.9-.2.8.8 0 00.5.5.9.9 0 00.8-.1c-.1.7-1.3.5-1.4-.2-.4.6-1.2.5-1.4-.3zm0 0" fill="#f8c300"/><path d="M9.1 8.8c-.1.4-.5.4-.8.1h.3v-.3c.2 0 .2.1.3.2H9zm1.3 0c-.2.3-.6.3-.8 0h.3l.1-.3.2.2h.2zm1.3.1c-.3.3-.6.3-.8 0l.2-.1.2-.2a.4.4 0 01.1.2l.3.1zm0 0" fill="#f8c300"/><path d="M253.5 327.9a231.8 231.8 0 01133 0" transform="scale(.03125 .02917)" fill="none" stroke-width="11" stroke="#f8c300"/><path d="M10.3 5.2l-.8-.6h1l-.8.6.3-1zm-1.5.4L8 5h1l-.8.6.3-1zm-1 1l-1-.6H8l-.8.6.3-1zM7.2 8l-.8-.6h1l-.8.6.3-1zm3.9-2.4L12 5h-1l.8.6-.3-1zm1 1l1-.6H12l.8.6-.3-1zm.5 1.4l.8-.6h-1l.8.6-.3-1zm0 0" fill="#f8c300"/></svg>