<svg xmlns="http://www.w3.org/2000/svg" width="20" height="14"><path fill="#009fca" d="M0 0h20v14H0z"/><path d="M18.5 3.6h1l-.8.4.3.7-.7-.4-.7.4.3-.7-.7-.4h.8l.3-.7zm-2.1 5.7h.8l-.7.5.3.7-.7-.5-.7.5.3-.7-.7-.5h.8l.3-.7zM18.5 8h1l-.8.5.3.7-.7-.5-.7.5.3-.7-.7-.5h.8l.3-.7zm-9.3 4.2h.9l-.7.4.3.7L9 13l-.7.4.2-.7-.7-.4h1l.2-.7zm2-2.2h-.9l.7-.5-.2-.7.7.4.7-.4-.3.7.7.5h-.9l-.2.7zm2.5-3.3H13l.7-.5-.3-.7.7.5.7-.5-.3.7.7.5h-.8l-.3.7zM16 6H15l.7-.5-.3-.7.7.5.7-.5-.2.7.7.5h-.9l-.3.7zm-2.2 5.7H13l.7-.5-.3-.7.7.4.7-.4-.3.7.7.5h-.8l-.3.7zm-2.5.5h-.9l.7-.4-.2-.7.7.4.7-.4-.3.7.7.4h-.9l-.2.8zm0 0" fill-rule="evenodd" fill="#fff40d"/><path d="M0 0h10v7H0zm0 0" fill="#012169"/><path d="M1.2 0L5 2.6 8.8 0H10v.9L6.2 3.5 10 6.1V7H8.7L5 4.4 1.3 7H0v-.9l3.7-2.6L0 1V0zm0 0" fill="#fff"/><path d="M6.6 4.1L10 6.4V7L5.8 4.1zm-2.8.3v.5L.8 7H0zM10 0L6.1 2.8V2L9.2 0zM0 0l3.7 2.6h-.9L0 .6zm0 0" fill="#c8102e"/><path d="M3.8 0v7h2.5V0zM0 2.3v2.4h10V2.3zm0 0" fill="#fff"/><path d="M0 2.8v1.4h10V2.8zM4.3 0v7h1.5V0zm0 0" fill="#c8102e"/></svg>