<svg width="21" height="15" xmlns="http://www.w3.org/2000/svg"><defs><linearGradient x1="50%" y1="0%" x2="50%" y2="100%" id="a"><stop stop-color="#FFF" offset="0%"/><stop stop-color="#F0F0F0" offset="100%"/></linearGradient><linearGradient x1="50%" y1="0%" x2="50%" y2="100%" id="b"><stop stop-color="#D02F44" offset="0%"/><stop stop-color="#B12537" offset="100%"/></linearGradient><linearGradient x1="50%" y1="0%" x2="50%" y2="100%" id="c"><stop stop-color="#46467F" offset="0%"/><stop stop-color="#3C3C6D" offset="100%"/></linearGradient></defs><g fill="none" fill-rule="evenodd"><path fill="url(#a)" d="M0 0h21v15H0z"/><path d="M0 0h21v1H0V0zm0 2h21v1H0V2zm0 2h21v1H0V4zm0 2h21v1H0V6zm0 2h21v1H0V8zm0 2h21v1H0v-1zm0 2h21v1H0v-1zm0 2h21v1H0v-1z" fill="url(#b)"/><path fill="url(#c)" d="M0 0h9v7H0z"/><path d="M1.5 2a.5.5 0 1 1 0-1 .5.5 0 0 1 0 1zm2 0a.5.5 0 1 1 0-1 .5.5 0 0 1 0 1zm2 0a.5.5 0 1 1 0-1 .5.5 0 0 1 0 1zm2 0a.5.5 0 1 1 0-1 .5.5 0 0 1 0 1zm-5 1a.5.5 0 1 1 0-1 .5.5 0 0 1 0 1zm2 0a.5.5 0 1 1 0-1 .5.5 0 0 1 0 1zm2 0a.5.5 0 1 1 0-1 .5.5 0 0 1 0 1zm1 1a.5.5 0 1 1 0-1 .5.5 0 0 1 0 1zm-2 0a.5.5 0 1 1 0-1 .5.5 0 0 1 0 1zm-2 0a.5.5 0 1 1 0-1 .5.5 0 0 1 0 1zm-2 0a.5.5 0 1 1 0-1 .5.5 0 0 1 0 1zm1 1a.5.5 0 1 1 0-1 .5.5 0 0 1 0 1zm2 0a.5.5 0 1 1 0-1 .5.5 0 0 1 0 1zm2 0a.5.5 0 1 1 0-1 .5.5 0 0 1 0 1zm1 1a.5.5 0 1 1 0-1 .5.5 0 0 1 0 1zm-2 0a.5.5 0 1 1 0-1 .5.5 0 0 1 0 1zm-2 0a.5.5 0 1 1 0-1 .5.5 0 0 1 0 1zm-2 0a.5.5 0 1 1 0-1 .5.5 0 0 1 0 1z" fill="url(#a)"/></g></svg>