<svg xmlns="http://www.w3.org/2000/svg" width="20" height="14"><path fill="#cf142b" d="M0 0h20v14H0z"/><path d="M0 0h20v9.3H0zm0 0" fill="#00247d"/><path d="M0 0h20v4.7H0zm0 0" fill="#fc0"/><path d="M10.9 5l-.3.6.3.2zm0 0" fill="#fff"/><path d="M10.9 5v.7h-.3zm0 0" fill="#fff"/><path d="M11.4 5.6l-.6-.1v.3zm0 0" fill="#fff"/><path d="M11.4 5.6l-.6.2-.1-.3zm0 0" fill="#fff"/><path d="M10.2 5.4l.5.4.2-.2zm0 0" fill="#fff"/><path d="M10.2 5.4l.6.1v.3zm0 0" fill="#fff"/><path d="M11 6.2v-.6h-.4zm0 0" fill="#fff"/><path d="M11 6.2l-.4-.4.3-.3zm0 0" fill="#fff"/><path d="M10.3 6l.6-.2-.2-.3zm0 0" fill="#fff"/><path d="M10.3 6l.3-.4.4.1zm2.3-.3L12 6l.2.2zm0 0" fill="#fff"/><path d="M12.6 5.7l-.2.5h-.3zm0 0" fill="#fff"/><path d="M12.9 6.3l-.6-.3-.2.3zm0 0" fill="#fff"/><path d="M12.9 6.3h-.7V6zm0 0" fill="#fff"/><path d="M11.8 5.7l.3.6.3-.2zm0 0" fill="#fff"/><path d="M11.8 5.7l.6.3-.2.3zm0 0" fill="#fff"/><path d="M12.3 6.7l.1-.5-.3-.1zm0 0" fill="#fff"/><path d="M12.3 6.7l-.2-.5.3-.1zm0 0" fill="#fff"/><path d="M11.7 6.4h.6V6zm0 0" fill="#fff"/><path d="M11.7 6.4l.5-.4.2.3zm2.2.3l-.6.3.2.3zm0 0" fill="#fff"/><path d="M14 6.7l-.4.5-.3-.2zm0 0" fill="#fff"/><path d="M14 7.4l-.4-.4-.3.2zm0 0" fill="#fff"/><path d="M14 7.4l-.6-.1v-.4zm0 0" fill="#fff"/><path d="M13.2 6.6V7h.4zm0 0" fill="#fff"/><path d="M13.2 6.6l.4.4-.3.2zm0 0" fill="#fff"/><path d="M13.3 7.7l.3-.5-.3-.2zm0 0" fill="#fff"/><path d="M13.3 7.7V7h.3zm0 0" fill="#fff"/><path d="M12.8 7.1l.6.2.1-.4zm0 0" fill="#fff"/><path d="M12.8 7.1l.6-.2.1.3zm2 1h-.6v.4zm0 0" fill="#fff"/><path d="M14.8 8.2l-.5.3-.2-.3zm0 0" fill="#fff"/><path d="M14.6 8.8l-.2-.5H14zm0 0" fill="#fff"/><path d="M14.6 8.8l-.5-.3.2-.3zm0 0" fill="#fff"/><path d="M14.2 7.8l-.2.5.4.1zm0 0" fill="#fff"/><path d="M14.2 7.8l.2.5-.3.1zm0 0" fill="#fff"/><path d="M13.9 8.8l.5-.3-.3-.3zm0 0" fill="#fff"/><path d="M13.9 8.8l.2-.5h.3zm0 0" fill="#fff"/><path d="M13.6 8.2l.6.3.2-.3zm0 0" fill="#fff"/><path d="M13.6 8.2h.7v.3zm-8.4 0l.5.3.2-.3zm0 0" fill="#fff"/><path d="M5.2 8.2h.6v.3zm0 0" fill="#fff"/><path d="M5.8 7.8l-.2.5.3.1zm0 0" fill="#fff"/><path d="M5.8 7.8l.2.5-.4.1zm0 0" fill="#fff"/><path d="M5.4 8.8l.5-.3-.2-.3zm0 0" fill="#fff"/><path d="M5.4 8.8l.2-.5H6zm0 0" fill="#fff"/><path d="M6.4 8.2h-.7v.3zm0 0" fill="#fff"/><path d="M6.4 8.2l-.6.3-.2-.3zm0 0" fill="#fff"/><path d="M6.1 8.8L6 8.3h-.3zm0 0" fill="#fff"/><path d="M6.1 8.8l-.5-.3.3-.3zm0-2l.3.4.3-.2zm0 0" fill="#fff"/><path d="M6 6.7l.7.3-.2.3zm0 0" fill="#fff"/><path d="M6.8 6.6l-.4.4.3.2zm0 0" fill="#fff"/><path d="M6.8 6.6V7h-.4zm0 0" fill="#fff"/><path d="M6 7.4l.6-.1v-.4zm0 0" fill="#fff"/><path d="M6 7.4l.4-.4.3.2zm0 0" fill="#fff"/><path d="M7.2 7.1L6.6 7l-.1.3zm0 0" fill="#fff"/><path d="M7.2 7.1l-.6.2-.1-.4zm0 0" fill="#fff"/><path d="M6.7 7.7V7h-.3zm0 0" fill="#fff"/><path d="M6.7 7.7l-.3-.5.3-.2zm.7-2l.2.5h.3zm0 0" fill="#fff"/><path d="M7.4 5.7L8 6l-.2.2zm0 0" fill="#fff"/><path d="M8.2 5.7l-.6.3.2.3zm0 0" fill="#fff"/><path d="M8.2 5.7l-.3.6-.3-.2zm0 0" fill="#fff"/><path d="M7.1 6.3h.7V6zm0 0" fill="#fff"/><path d="M7.1 6.3l.6-.3.2.3zm0 0" fill="#fff"/><path d="M8.3 6.4L7.8 6l-.2.3zm0 0" fill="#fff"/><path d="M8.3 6.4h-.6V6zm0 0" fill="#fff"/><path d="M7.7 6.7l.2-.5-.3-.1zm0 0" fill="#fff"/><path d="M7.7 6.7l-.1-.5.3-.1zM9 5.1v.6h.3zm0 0" fill="#fff"/><path d="M9.1 5l.3.6-.3.2zm0 0" fill="#fff"/><path d="M9.8 5.4l-.6.1v.3zm0 0" fill="#fff"/><path d="M9.8 5.4l-.5.4-.2-.2zm0 0" fill="#fff"/><path d="M8.6 5.6l.6.2.1-.3zm0 0" fill="#fff"/><path d="M8.6 5.6l.6-.1v.3zm0 0" fill="#fff"/><path d="M9.7 6l-.3-.4-.4.1zm0 0" fill="#fff"/><path d="M9.7 6L9 5.9l.2-.3zm0 0" fill="#fff"/><path d="M9 6.2l.4-.4-.3-.3zm0 0" fill="#fff"/><path d="M9 6.2v-.6h.4zm0 0" fill="#fff"/></svg>