<svg width="21" height="15" xmlns="http://www.w3.org/2000/svg"><defs><linearGradient x1="50%" y1="0%" x2="50%" y2="100%" id="a"><stop stop-color="#FFF" offset="0%"/><stop stop-color="#F0F0F0" offset="100%"/></linearGradient><linearGradient x1="50%" y1="0%" x2="50%" y2="100%" id="b"><stop stop-color="#063191" offset="0%"/><stop stop-color="#03287C" offset="100%"/></linearGradient><linearGradient x1="50%" y1="0%" x2="50%" y2="100%" id="c"><stop stop-color="#E2213B" offset="0%"/><stop stop-color="#CD1931" offset="100%"/></linearGradient><linearGradient x1="50%" y1="0%" x2="50%" y2="100%" id="d"><stop stop-color="#FFD044" offset="0%"/><stop stop-color="#FFCB2F" offset="100%"/></linearGradient></defs><g fill="none" fill-rule="evenodd"><path fill="url(#a)" d="M0 0h21v15H0z"/><path fill="url(#b)" d="M0 5h21v5H0z"/><path fill="url(#c)" d="M0 10h21v5H0z"/><path d="M10.5 7a.5.5 0 1 1 0-1 .5.5 0 0 1 0 1zm-2 .5a.5.5 0 1 1 0-1 .5.5 0 0 1 0 1zm4 0a.5.5 0 1 1 0-1 .5.5 0 0 1 0 1zM7.5 9a.5.5 0 1 1 0-1 .5.5 0 0 1 0 1zm6 0a.5.5 0 1 1 0-1 .5.5 0 0 1 0 1z" fill="url(#a)"/><path fill="url(#d)" d="M0 0h21v5H0z"/></g></svg>