<svg xmlns="http://www.w3.org/2000/svg" width="20" height="14"><defs><linearGradient id="a" gradientUnits="userSpaceOnUse" x1="103.1" y1="111.3" x2="92.5" y2="107.8" gradientTransform="matrix(.64274 0 0 1.4534 -94.7 29.2)"><stop offset="0" stop-color="red"/><stop offset="1" stop-color="#ff0"/></linearGradient><linearGradient id="b" gradientUnits="userSpaceOnUse" x1="103.1" y1="111.3" x2="92.5" y2="107.8" gradientTransform="matrix(.64274 0 0 1.4534 -94.7 30.2)"><stop offset="0" stop-color="red"/><stop offset="1" stop-color="#ff0"/></linearGradient><linearGradient id="c" gradientUnits="userSpaceOnUse" x1="103.1" y1="111.3" x2="92.5" y2="107.8" gradientTransform="matrix(.64274 0 0 1.4534 -98 31)"><stop offset="0" stop-color="red"/><stop offset="1" stop-color="#ff0"/></linearGradient><linearGradient id="d" gradientUnits="userSpaceOnUse" x1="103.1" y1="111.3" x2="92.5" y2="107.8" gradientTransform="matrix(.64274 0 0 1.4534 -94.7 32)"><stop offset="0" stop-color="red"/><stop offset="1" stop-color="#ff0"/></linearGradient><linearGradient id="e" gradientUnits="userSpaceOnUse" x1="103.1" y1="111.3" x2="92.5" y2="107.8" gradientTransform="matrix(.64274 0 0 1.4534 -94.8 32.8)"><stop offset="0" stop-color="red"/><stop offset="1" stop-color="#ff0"/></linearGradient><linearGradient id="f" gradientUnits="userSpaceOnUse" x1="103.1" y1="111.3" x2="92.5" y2="107.8" gradientTransform="matrix(.64274 0 0 1.4534 -94.8 33.8)"><stop offset="0" stop-color="red"/><stop offset="1" stop-color="#ff0"/></linearGradient><linearGradient id="g" gradientUnits="userSpaceOnUse" x1="103.1" y1="111.3" x2="92.5" y2="107.8" gradientTransform="matrix(.64274 0 0 1.4534 -98 33.7)"><stop offset="0" stop-color="red"/><stop offset="1" stop-color="#ff0"/></linearGradient><linearGradient id="h" gradientUnits="userSpaceOnUse" x1="103.1" y1="111.3" x2="92.5" y2="107.8" gradientTransform="matrix(.64274 0 0 1.4534 -98 32.8)"><stop offset="0" stop-color="red"/><stop offset="1" stop-color="#ff0"/></linearGradient><linearGradient id="i" gradientUnits="userSpaceOnUse" x1="103.1" y1="111.3" x2="92.5" y2="107.8" gradientTransform="matrix(.64274 0 0 1.4534 -98 32)"><stop offset="0" stop-color="red"/><stop offset="1" stop-color="#ff0"/></linearGradient><linearGradient id="j" gradientUnits="userSpaceOnUse" x1="103.1" y1="111.3" x2="92.5" y2="107.8" gradientTransform="matrix(.8281 0 0 1.8726 602.8 148.2)"><stop offset="0" stop-color="red"/><stop offset="1" stop-color="#ff0"/></linearGradient><linearGradient id="k" gradientUnits="userSpaceOnUse" x1="103.1" y1="111.3" x2="92.5" y2="107.8" gradientTransform="matrix(.64274 0 0 1.4534 -98 30.1)"><stop offset="0" stop-color="red"/><stop offset="1" stop-color="#ff0"/></linearGradient><linearGradient id="l" gradientUnits="userSpaceOnUse" x1="103.1" y1="111.3" x2="92.5" y2="107.8" gradientTransform="matrix(.64274 0 0 1.4534 -95.3 31)"><stop offset="0" stop-color="red"/><stop offset="1" stop-color="#ff0"/></linearGradient></defs><path fill="#006" d="M0 0h20v14H0z"/><path d="M0 0h11v5.1H0zm0 0" fill-rule="evenodd" fill="#006"/><path d="M0 0v.6L9.7 5H11v-.6L1.2 0zm11 0v.6L1.1 5H0v-.6L9.7 0zm0 0" fill="#fff"/><path d="M4.6 0v5.1h1.8V0zM0 1.7v1.7h11V1.7zm0 0" fill="#fff"/><path d="M0 2v1h11V2zm5-2v5.1h1V0zM0 5.1l3.6-1.7h.9L.8 5.1zM0 0l3.6 1.7h-.8L0 .4zm6.5 1.7L10 0h.8L7.3 1.7zm4.4 3.4L7.3 3.4H8L11 4.7zm0 0" fill="#c00"/><path d="M11.8 4.5h6.9v5.7s.2.8-3 2.2c1.2-.1 2.4-1.3 2.4-1.3s.5-.6.8-.2l.6.6c.2.1.3.5 0 .8-.2.2-.6.3-.7 0-.2 0-1.3 1.3-3.5 1.3-1.4 0-2.6-.5-3.6-1.4 0 0-.3.5-.7.1-.4-.4-.1-.7-.1-.7l.5-.4c.1-.1.2-.4.5-.4s.4.3.4.3 1.2 1.1 2.4 1.3c-2.8-1.3-2.9-2-2.9-2.2zm0 0" fill-rule="evenodd" fill="#fff"/><path d="M383.8 159.6l209-1.2v188c.5 24.4-40.5 49.4-105 81.1-66.2-34.2-104.4-55-105-81.4zm0 0" transform="scale(.03125 .02917)" fill-rule="evenodd" fill="#006129" stroke-width="1.7" stroke="#000"/><path d="M409 367l12.3-18.3 12.4 18.3" transform="scale(.03125 .02917)" fill="none" stroke-width="1.7" stroke="#f7c600"/><path d="M423.8 360.1c0 1-.3 2-1.2 2.6-.9.5-1.9.5-2.7 0a2.6 2.6 0 01-1.1-2.6c0-1.4 1-2.5 2.4-2.5s2.6 1 2.6 2.5zm0 0" transform="scale(.03125 .02917)" fill-rule="evenodd" fill="#f7c600" stroke-width=".8" stroke="#000"/><path d="M411.3 380.4h19s.4-2.5-2-4c10-1.4 7.4-10.2 16-10.8 1.4.3-4.6 3.8-4.6 3.8s-5 3.6-2.7 5.5c1.9 1.3 2.8-1 3-2.8.3-1.7 8-2.9 7-8-2-4-13 2.9-13 2.9h-7.8c-.4-1-2.7-4.5-5-4.5-2.6 0-4.4 4.5-4.4 4.5H399s-.6 4.7 8.4 5.5c2 2.6 3.6 3.4 5.4 4-1.2 1-1.6 2.3-1.6 3.9zm0 0" transform="scale(.03125 .02917)" fill-rule="evenodd" fill="#f7c600" stroke-width=".8" stroke="#000"/><path d="M412.6 376.3h16m-23.4-9.3s1.4 7.5 7.3 9.2" transform="scale(.03125 .02917)" fill="none" stroke-width=".8" stroke="#000"/><path d="M66.3 170.5c.5-2 1.3-2.5 2.2-5.2.1-2.7-2.2-2.4-1.5-4 1.2-2 .6-3.7-1.6-5.1.4 2.4-3 4.7-3 6.7s1.8 1.6 1.6 4.6c0 1.8-.5 1.3-.6 3h3zm0 0" transform="matrix(.04133 0 0 .03857 9.9 4.1)" fill-rule="evenodd" fill="url(#a)" stroke-width=".6" stroke="#000"/><path d="M423.5 349.2c.3.9-.1 1.8-1 2.4-.8.5-1.8.5-2.5 0a2.1 2.1 0 01-1-2.4c.3-1.1 1.1-1.8 2.3-1.8s2 .7 2.2 1.8zm0 0" transform="scale(.03125 .02917)" fill-rule="evenodd" fill="#f7c600" stroke-width=".8" stroke="#000"/><path d="M408.3 329.6l12.3-18.2 12.4 18.2" transform="scale(.03125 .02917)" fill="none" stroke-width="1.7" stroke="#f7c600"/><path d="M423 322.8c.3 1-.3 2-1 2.5-.9.7-2 .7-2.9 0a2.4 2.4 0 01-1-2.5c0-1.4 1.1-2.4 2.5-2.4s2.5 1 2.5 2.4zm0 0" transform="scale(.03125 .02917)" fill-rule="evenodd" fill="#f7c600" stroke-width=".8" stroke="#000"/><path d="M410.5 343h19.3s.2-2.4-2-4c10-1.4 7.3-10.2 15.7-10.7 1.6.4-4.4 3.8-4.4 3.8s-5 3.5-2.9 5.4c2 1.3 2.8-1 3-2.7.3-1.7 8-3 7-7.9-2-4.1-13 2.8-13 2.8h-7.7c-.5-1-2.8-4.5-5-4.5-2.6.1-4.4 4.5-4.4 4.5h-17.9s-.4 4.6 8.6 5.4c2 2.7 3.4 3.3 5.2 4.1-1.1 1-1.5 2.2-1.5 3.8zm0 0" transform="scale(.03125 .02917)" fill-rule="evenodd" fill="#f7c600" stroke-width=".8" stroke="#000"/><path d="M412 339h15.9m-23.3-9.3s1.3 7.4 7.1 9.1" transform="scale(.03125 .02917)" fill="none" stroke-width=".8" stroke="#000"/><path d="M66.3 170.5c.5-2.1 1.3-2.5 2.2-5.2.1-2.7-2.2-2.4-1.5-4.1 1.2-1.9.6-3.6-1.6-5 .4 2.4-3 4.7-3 6.7s1.8 1.6 1.6 4.6c0 1.8-.5 1.3-.6 3h3zm0 0" transform="matrix(.04133 0 0 .03857 9.9 3)" fill-rule="evenodd" fill="url(#b)" stroke-width=".6" stroke="#000"/><path d="M422.8 312a2.2 2.2 0 01-1 2.3c-.8.6-1.8.6-2.6 0a2.5 2.5 0 01-1-2.4c.3-1 1.3-1.9 2.3-1.9 1.1 0 2.1.8 2.3 2zm0 0" transform="scale(.03125 .02917)" fill-rule="evenodd" fill="#f7c600" stroke-width=".8" stroke="#000"/><path d="M539.4 295.6l12.4-18 12.3 18" transform="scale(.03125 .02917)" fill="none" stroke-width="1.7" stroke="#f7c600"/><path d="M554.3 288.9c0 1-.3 2-1.2 2.5-.9.7-1.9.7-2.7 0-.9-.5-1.3-1.4-1.1-2.5.2-1.2 1.2-2 2.5-2s2.2.8 2.5 2zm0 0" transform="scale(.03125 .02917)" fill-rule="evenodd" fill="#f7c600" stroke-width=".8" stroke="#000"/><path d="M541.8 309l19 .1s.3-2.5-2-4c10-1.3 7.5-10.2 16-10.7 1.5.2-4.5 3.9-4.5 3.9s-5 3.4-2.8 5.2c1.9 1.5 2.8-.8 2.9-2.6.4-1.8 8.2-3 7-7.9-1.9-4.1-12.9 2.8-12.9 2.8h-7.9c-.4-1-2.6-4.5-4.9-4.5-2.6 0-4.5 4.5-4.5 4.5h-17.8s-.6 4.5 8.4 5.4a10 10 0 005.5 4c-1.3 1-1.5 2.3-1.5 3.8zm0 0" transform="scale(.03125 .02917)" fill-rule="evenodd" fill="#f7c600" stroke-width=".8" stroke="#000"/><path d="M543 305.2h16m-23.3-9.4s1.4 7.4 7.2 9.2" transform="scale(.03125 .02917)" fill="none" stroke-width=".8" stroke="#000"/><path d="M66.3 170.5c.5-2.1 1.3-2.5 2.2-5.2.1-2.7-2.2-2.4-1.5-4.1 1.2-2 .6-3.6-1.6-5 .4 2.4-3 4.7-3 6.7s1.8 1.6 1.6 4.6c0 1.8-.5 1.3-.6 3h3zm0 0" transform="matrix(.04133 0 0 .03857 14 2)" fill-rule="evenodd" fill="url(#c)" stroke-width=".6" stroke="#000"/><path d="M554 278c.3 1-.1 2-1 2.4-.8.4-1.8.4-2.5 0a2.1 2.1 0 01-1-2.4c.3-1 1.1-1.8 2.3-1.8s2 .8 2.2 1.8zm0 0" transform="scale(.03125 .02917)" fill-rule="evenodd" fill="#f7c600" stroke-width=".8" stroke="#000"/><path d="M411.3 259.4l12.3-18.2 12.4 18.2" transform="scale(.03125 .02917)" fill="none" stroke-width="1.7" stroke="#f7c600"/><path d="M426.1 252.6c.1 1-.2 2-1.1 2.5-.8.7-1.9.7-2.8 0a2.3 2.3 0 01-1-2.5c.2-1.2 1.3-2 2.4-2 1.3 0 2.3.8 2.5 2zm0 0" transform="scale(.03125 .02917)" fill-rule="evenodd" fill="#f7c600" stroke-width=".8" stroke="#000"/><path d="M413.6 272.8h19.1s.3-2.5-2-4c10-1.3 7.6-10.2 16-10.7 1.6.2-4.4 3.9-4.4 3.9s-5.2 3.4-3 5.3c2 1.4 2.7-1 3-2.7.2-1.7 8-2.9 7-7.9-2-4.1-13 2.9-13 2.9h-7.8c-.5-1.1-2.6-4.6-4.9-4.6-2.6.1-4.5 4.6-4.5 4.6h-17.9s-.4 4.5 8.6 5.3a11 11 0 005.3 4.2c-1.2.9-1.5 2.1-1.5 3.7zm0 0" transform="scale(.03125 .02917)" fill-rule="evenodd" fill="#f7c600" stroke-width=".8" stroke="#000"/><path d="M415 269h16m-23.3-9.4s1.3 7.3 7 9" transform="scale(.03125 .02917)" fill="none" stroke-width=".8" stroke="#000"/><path d="M66.3 170.5c.5-2.1 1.3-2.5 2.2-5.2.1-2.7-2.2-2.4-1.5-4.1 1.2-2 .6-3.6-1.6-5 .4 2.4-3 4.7-3 6.7s1.8 1.6 1.6 4.6c0 1.8-.5 1.3-.6 3h3zm0 0" transform="matrix(.04133 0 0 .03857 10 1)" fill-rule="evenodd" fill="url(#d)" stroke-width=".6" stroke="#000"/><path d="M425.9 241.7c.2 1-.1 2-1 2.3-.8.6-1.8.6-2.5 0-.8-.4-1.1-1.3-1-2.3.2-1 1.2-1.8 2.2-1.8 1.1 0 2 .8 2.3 1.8zm0 0" transform="scale(.03125 .02917)" fill-rule="evenodd" fill="#f7c600" stroke-width=".8" stroke="#000"/><path d="M411.6 223.7l12.3-18.1 12.4 18.2" transform="scale(.03125 .02917)" fill="none" stroke-width="1.7" stroke="#f7c600"/><path d="M426.4 217c0 1.4-1.1 2.5-2.5 2.5s-2.5-1-2.5-2.5c0-1.4 1.1-2.4 2.5-2.4s2.5 1 2.5 2.4zm0 0" transform="scale(.03125 .02917)" fill-rule="evenodd" fill="#f7c600" stroke-width=".8" stroke="#000"/><path d="M413.9 237H433s.3-2.4-2-4c10-1.2 7.4-10 15.8-10.5 1.7.2-4.4 3.7-4.4 3.7s-5 3.6-2.6 5.4c1.7 1.4 2.4-.8 2.8-2.6.1-1.9 8.1-3 7-8-1.9-4-13 2.8-13 2.8h-7.9c-.4-1-2.6-4.4-4.8-4.6-2.6.2-4.5 4.6-4.5 4.6h-17.8s-.6 4.5 8.4 5.5c2 2.7 3.6 3.3 5.4 4-1.1 1-1.5 2.1-1.5 3.8zm0 0" transform="scale(.03125 .02917)" fill-rule="evenodd" fill="#f7c600" stroke-width=".8" stroke="#000"/><path d="M415.3 233.2h16m-23.3-9.4s1.3 7.5 7.1 9.2" transform="scale(.03125 .02917)" fill="none" stroke-width=".8" stroke="#000"/><path d="M66.3 170.5c.5-2.1 1.3-2.5 2.2-5.2 0-2.7-2.2-2.4-1.5-4.1 1.2-1.9.6-3.6-1.6-5 .4 2.4-3 4.7-3 6.7s1.8 1.6 1.6 4.6c0 1.8-.5 1.3-.6 3h3zm0 0" transform="matrix(.04133 0 0 .03857 10 0)" fill-rule="evenodd" fill="url(#e)" stroke-width=".6" stroke="#000"/><path d="M426.3 206c0 1-.3 1.9-1 2.4-.8.5-1.8.5-2.7 0a2.2 2.2 0 01-.9-2.4c.2-1 1.2-1.8 2.3-1.8 1 0 2 .7 2.3 1.8zm0 0" transform="scale(.03125 .02917)" fill-rule="evenodd" fill="#f7c600" stroke-width=".8" stroke="#000"/><path d="M412.3 187.5l12.3-18 12.4 18.1" transform="scale(.03125 .02917)" fill="none" stroke-width="1.7" stroke="#f7c600"/><path d="M427 180.8c.3 1-.1 2.1-1 2.7-.9.7-2 .7-2.9 0-.9-.6-1.2-1.6-.9-2.7.2-1.2 1.3-2 2.4-2 1.3 0 2.3.8 2.5 2zm0 0" transform="scale(.03125 .02917)" fill-rule="evenodd" fill="#f7c600" stroke-width=".8" stroke="#000"/><path d="M414.6 201h19s.4-2.5-2-4c10.1-1.5 7.5-10.2 16-10.7 1.5.3-4.5 3.7-4.5 3.7s-5 3.7-2.7 5.4c1.9 1.5 2.6-1 2.9-2.5.2-2 8-3 7-8-2-4.1-13 2.7-13 2.7h-7.8c-.5-.9-2.8-4.4-5-4.4-2.6 0-4.4 4.4-4.4 4.4h-17.9s-.4 4.6 8.6 5.5c1.2 1.9 3 3.2 5.3 4-1.2 1-1.5 2.2-1.5 3.8zm0 0" transform="scale(.03125 .02917)" fill-rule="evenodd" fill="#f7c600" stroke-width=".8" stroke="#000"/><path d="M416 197h15.9m-23.3-9.4s1.3 7.5 7.1 9.3" transform="scale(.03125 .02917)" fill="none" stroke-width=".8" stroke="#000"/><path d="M66.3 170.5c.5-2.1 1.3-2.5 2.2-5.2.1-2.7-2.2-2.4-1.5-4.1 1.2-2 .6-3.6-1.6-5 .4 2.4-3 4.7-3 6.7s1.8 1.6 1.6 4.6c0 1.8-.5 1.3-.6 3h3zm0 0" transform="matrix(.04133 0 0 .03857 10 -1.1)" fill-rule="evenodd" fill="url(#f)" stroke-width=".6" stroke="#000"/><path d="M426.9 170c.2.8-.1 1.7-1 2.2-.8.6-1.8.6-2.5 0s-1.1-1.4-1-2.2c.2-1.1 1.2-2 2.2-2 1.1 0 2 .9 2.3 2zm0 0" transform="scale(.03125 .02917)" fill-rule="evenodd" fill="#f7c600" stroke-width=".8" stroke="#000"/><path d="M540.4 188l12.4-18 12.3 18.2" transform="scale(.03125 .02917)" fill="none" stroke-width="1.7" stroke="#f7c600"/><path d="M555.3 181.3c0 1.4-1.2 2.4-2.5 2.4s-2.5-1-2.5-2.4 1-2.5 2.5-2.5 2.5 1 2.5 2.5zm0 0" transform="scale(.03125 .02917)" fill-rule="evenodd" fill="#f7c600" stroke-width=".8" stroke="#000"/><path d="M542.8 201.6h19s.3-2.4-2-4c10-1.4 7.5-10.2 15.8-10.6 1.6.1-4.4 3.6-4.4 3.6s-5 3.6-2.7 5.3c1.8 1.5 2.6-.8 2.9-2.5s8.1-3 7-8c-1.9-4-13 2.8-13 2.8h-7.8c-.5-.8-2.6-4.5-4.9-4.5-2.6 0-4.5 4.5-4.5 4.5h-17.8s-.6 4.7 8.4 5.5c1.3 1.8 3.2 3.3 5.5 4-1.3 1-1.5 2.3-1.5 3.9zm0 0" transform="scale(.03125 .02917)" fill-rule="evenodd" fill="#f7c600" stroke-width=".8" stroke="#000"/><path d="M544 197.5h16m-23.3-9.3s1.3 7.5 7.2 9.3" transform="scale(.03125 .02917)" fill="none" stroke-width=".8" stroke="#000"/><path d="M66.3 170.5c.5-2 1.3-2.5 2.2-5.2.1-2.7-2.2-2.4-1.5-4 1.2-2 .6-3.7-1.6-5.1.4 2.4-3 4.7-3 6.7s1.8 1.6 1.6 4.6c0 1.8-.5 1.3-.6 3h3zm0 0" transform="matrix(.04133 0 0 .03857 14 -1)" fill-rule="evenodd" fill="url(#g)" stroke-width=".6" stroke="#000"/><path d="M555 170.4c.3.9-.1 1.8-1 2.4-.8.5-1.8.5-2.5 0a2.1 2.1 0 01-1-2.4c.3-1.1 1.1-1.8 2.3-1.8s2 .7 2.2 1.8zm0 0" transform="scale(.03125 .02917)" fill-rule="evenodd" fill="#f7c600" stroke-width=".8" stroke="#000"/><path d="M539.3 223.7l12.2-18.3 12.4 18.3" transform="scale(.03125 .02917)" fill="none" stroke-width="1.7" stroke="#f7c600"/><path d="M554 216.8c.3 1-.3 2-1 2.6-.9.5-2 .5-2.9 0-.7-.6-1.2-1.6-1-2.6 0-1.4 1.1-2.5 2.5-2.5s2.5 1 2.5 2.5zm0 0" transform="scale(.03125 .02917)" fill-rule="evenodd" fill="#f7c600" stroke-width=".8" stroke="#000"/><path d="M541.5 237h19.1s.3-2.4-2-4c10-1.3 7.5-10.1 15.9-10.5 1.6 0-4.4 3.6-4.4 3.6s-5 3.6-2.9 5.5c2 1.4 2.8-1 3-2.7.3-1.8 8.2-3 7-8-2-4-13 2.9-13 2.9h-7.7c-.5-1-2.8-4.6-5-4.6-2.6 0-4.5 4.5-4.5 4.5h-17.8s-.6 4.6 8.4 5.5a9 9 0 005.4 4c-1.3 1-1.5 2.2-1.5 3.9zm0 0" transform="scale(.03125 .02917)" fill-rule="evenodd" fill="#f7c600" stroke-width=".8" stroke="#000"/><path d="M542.9 233.2l16-.2m-23.3-9.3s1.3 7.5 7.1 9.3" transform="scale(.03125 .02917)" fill="none" stroke-width=".8" stroke="#000"/><path d="M66.3 170.5c.5-2 1.3-2.5 2.2-5.2.1-2.7-2.2-2.4-1.5-4 1.2-2 .6-3.7-1.6-5.1.4 2.4-3 4.7-3 6.7s1.8 1.6 1.6 4.6c0 1.8-.5 1.3-.6 3h3zm0 0" transform="matrix(.04133 0 0 .03857 14 0)" fill-rule="evenodd" fill="url(#h)" stroke-width=".6" stroke="#000"/><path d="M553.8 206a2.2 2.2 0 01-1 2.4c-.8.5-1.8.5-2.5 0a2.5 2.5 0 01-1-2.4c.2-1 1.2-1.8 2.2-1.8 1.1 0 2.1.7 2.3 1.8zm0 0" transform="scale(.03125 .02917)" fill-rule="evenodd" fill="#f7c600" stroke-width=".8" stroke="#000"/><path d="M537.6 260l12.4-18.3 12.4 18.3" transform="scale(.03125 .02917)" fill="none" stroke-width="1.7" stroke="#f7c600"/><path d="M552.4 253.3c.2.9-.3 2-1 2.5-.9.5-2 .5-2.9 0-.8-.5-1.3-1.6-1-2.5 0-1.5 1.1-2.6 2.5-2.6s2.5 1 2.5 2.6zm0 0" transform="scale(.03125 .02917)" fill-rule="evenodd" fill="#f7c600" stroke-width=".8" stroke="#000"/><path d="M540 273.3h19s.4-2.4-2-4c10.1-1.3 7.5-10.1 15.9-10.5 1.6 0-4.4 3.6-4.4 3.6s-5 3.6-2.8 5.5c2 1.4 2.7-1 3-2.7.3-1.8 8-2.8 7-8-2-4-13 2.8-13 2.8H555c-.5-.8-2.8-4.5-5-4.5-2.6 0-4.4 4.5-4.4 4.5h-17.9s-.5 4.6 8.5 5.4a10 10 0 005.3 4c-1.1 1.1-1.5 2.3-1.5 4zm0 0" transform="scale(.03125 .02917)" fill-rule="evenodd" fill="#f7c600" stroke-width=".8" stroke="#000"/><path d="M541.3 269.5h16M534 260s1.3 7.5 7.3 9.2" transform="scale(.03125 .02917)" fill="none" stroke-width=".8" stroke="#000"/><path d="M66.3 170.5c.5-2 1.3-2.5 2.2-5.2 0-2.7-2.2-2.4-1.5-4 1.2-2 .6-3.7-1.6-5.1.4 2.4-3 4.7-3 6.7s1.8 1.6 1.6 4.6c0 1.8-.5 1.3-.6 3h3zm0 0" transform="matrix(.04133 0 0 .03857 14 1)" fill-rule="evenodd" fill="url(#i)" stroke-width=".6" stroke="#000"/><path d="M552.3 242.3c0 1-.3 1.9-1 2.4-.8.5-1.8.5-2.7 0a2.2 2.2 0 01-.9-2.4c.2-1.1 1.2-1.8 2.3-1.8 1 0 2 .7 2.3 1.8zm0 0" transform="scale(.03125 .02917)" fill-rule="evenodd" fill="#f7c600" stroke-width=".8" stroke="#000"/><path d="M539.3 367.4l12.2-18.2 12.4 18.2" transform="scale(.03125 .02917)" fill="none" stroke-width="1.3" stroke="#f7c600"/><path d="M554 360.5c.3 1-.3 2-1 2.6-.9.5-2 .5-2.9 0-.7-.6-1.2-1.6-1-2.6.3-1.2 1.3-2 2.4-2 1.3 0 2.3.8 2.5 2zm0 0" transform="scale(.03125 .02917)" fill-rule="evenodd" fill="#f7c600" stroke-width=".8" stroke="#000"/><path d="M541.5 380.8h19.1s.3-2.6-2-4c10-1.4 7.5-10.2 15.9-10.8 1.6.3-4.4 3.8-4.4 3.8s-5 3.5-2.9 5.3c2 1.5 2.8-.9 3-2.6.3-1.7 8.2-2.9 7-8-2-4-13 2.9-13 2.9h-7.8c-.4-1-2.6-4.5-4.9-4.5-2.6 0-4.5 4.5-4.5 4.5h-17.8s-.6 4.7 8.4 5.5c2 2.6 3.6 3.3 5.4 4-1.3 1-1.5 2.3-1.5 3.9zm0 0" transform="scale(.03125 .02917)" fill-rule="evenodd" fill="#f7c600" stroke-width=".8" stroke="#000"/><path d="M542.9 376.7h16m-23.3-9.3s1.3 7.5 7.1 9.2" transform="scale(.03125 .02917)" fill="none" stroke-width=".8" stroke="#000"/><path d="M814.5 330.3c.6-2.9 1.6-3.2 2.8-6.8.2-3.5-2.8-3-2-5.3 1.6-2.4.8-4.7-2-6.5.5 3.2-3.8 6-3.8 8.7 0 2.6 2.2 2 2 6 .1 2.2-.6 1.7-.9 4zm0 0" transform="matrix(.03208 0 0 .02994 -9.4 .8)" fill-rule="evenodd" fill="url(#j)" stroke-width=".8" stroke="#000"/><path d="M553.8 349.6a2.2 2.2 0 01-1 2.4c-.8.5-1.8.5-2.5 0a2.5 2.5 0 01-1-2.4c.2-1.1 1.2-1.8 2.2-1.8 1.1 0 2.1.7 2.3 1.8zm0 0" transform="scale(.03125 .02917)" fill-rule="evenodd" fill="#f7c600" stroke-width=".8" stroke="#000"/><path d="M539 331.3l12.3-18 12.5 18" transform="scale(.03125 .02917)" fill="none" stroke-width="1.7" stroke="#f7c600"/><path d="M553.8 324.6c.2 1-.2 2-1 2.6-1 .5-2 .5-2.8 0a2.6 2.6 0 01-1.1-2.6c0-1.4 1.1-2.5 2.5-2.5s2.5 1 2.5 2.5zm0 0" transform="scale(.03125 .02917)" fill-rule="evenodd" fill="#f7c600" stroke-width=".8" stroke="#000"/><path d="M541.3 344.9h19s.5-2.6-2-4c10-1.5 7.6-10.4 16-10.8 1.6.2-4.4 3.8-4.4 3.8s-5 3.5-2.8 5.3c1.9 1.5 2.6-.8 3-2.6.1-1.6 8-2.8 7-8-2-4-13 2.9-13 2.9h-7.9c-.5-1-2.6-4.4-5-4.4-2.5 0-4.5 4.4-4.5 4.4H529s-.6 4.5 8.4 5.5c2 2.6 3.7 3.3 5.4 4-1.2 1-1.5 2.3-1.5 3.9zm0 0" transform="scale(.03125 .02917)" fill-rule="evenodd" fill="#f7c600" stroke-width=".8" stroke="#000"/><path d="M542.8 340.8h16m-23.4-9.3s1.4 7.3 7.2 9.2" transform="scale(.03125 .02917)" fill="none" stroke-width=".8" stroke="#000"/><path d="M66.3 170.5c.5-2 1.3-2.5 2.2-5.2 0-2.7-2.2-2.4-1.5-4 1.2-2 .6-3.7-1.6-5.1.4 2.4-3 4.7-3 6.7s1.8 1.6 1.6 4.6c0 1.8-.5 1.3-.6 3h3zm0 0" transform="matrix(.04133 0 0 .03857 14 3)" fill-rule="evenodd" fill="url(#k)" stroke-width=".6" stroke="#000"/><path d="M553.6 313.7c.1.9-.2 1.8-1 2.4-.7.5-1.7.5-2.5 0a2.1 2.1 0 01-1-2.4c.3-1.1 1.1-1.8 2.3-1.8 1 0 2 .7 2.2 1.8zm0 0" transform="scale(.03125 .02917)" fill-rule="evenodd" fill="#f7c600" stroke-width=".8" stroke="#000"/><path d="M434.8 298l12.2-18 12.4 18" transform="scale(.03125 .02917)" fill="none" stroke-width="1.7" stroke="#f7c600"/><path d="M449.5 291.2c.3 1-.3 2-1 2.6-.9.6-2 .6-2.9 0-.7-.6-1.2-1.6-1-2.6.3-1.1 1.3-2 2.4-2 1.3 0 2.3.9 2.5 2zm0 0" transform="scale(.03125 .02917)" fill-rule="evenodd" fill="#f7c600" stroke-width=".8" stroke="#000"/><path d="M437 311.4h19.1s.3-2.4-2-4c10-1.2 7.5-10.2 15.9-10.7 1.6.4-4.4 3.8-4.4 3.8s-5 3.7-2.9 5.4c2 1.5 2.7-1 3-2.7.3-1.7 8-2.8 7-7.9-2-4-13 2.8-13 2.8H452c-.5-1-2.6-4.5-4.9-4.5-2.6.1-4.5 4.5-4.5 4.5h-17.9s-.4 4.6 8.6 5.4c1.2 1.9 3 3.3 5.3 4.1-1.2 1-1.5 2.2-1.5 3.8zm0 0" transform="scale(.03125 .02917)" fill-rule="evenodd" fill="#f7c600" stroke-width=".8" stroke="#000"/><path d="M438.4 307.5h16M431 298s1.3 7.5 7.1 9.2" transform="scale(.03125 .02917)" fill="none" stroke-width=".8" stroke="#000"/><path d="M66.3 170.5c.5-2.1 1.3-2.5 2.2-5.2.1-2.7-2.2-2.4-1.5-4.1 1.2-2 .6-3.6-1.6-5 .4 2.4-3 4.7-3 6.7s1.8 1.6 1.6 4.6c0 1.8-.5 1.3-.6 3h3zm0 0" transform="matrix(.04133 0 0 .03857 10.7 2.1)" fill-rule="evenodd" fill="url(#l)" stroke-width=".6" stroke="#000"/><path d="M449.3 280.3a2.2 2.2 0 01-1 2.4c-.8.6-1.8.6-2.6 0s-1-1.4-1-2.4c.3-1 1.3-1.9 2.3-1.9 1.1 0 2.1.8 2.3 2zm51.4 104s5 11.5 10.7 4.4c5.7-7.1 3.6-10.2 3.6-10.2l-12.8-7-3.7 8zm0 0" transform="scale(.03125 .02917)" fill-rule="evenodd" fill="#f7c600" stroke-width=".8" stroke="#000"/><path d="M511.8 382.6s.7.2 1.4-1-1.5-2-2.5-3.3l-1 2.3zm-29-3l-11.2 6.1s-5.6 1-6 0c-.4-1 .1-2 3-2.3 3-.1 10.9-7.3 10.9-7.3zm.2-199.7l.4 4c.1 1.5-2.1 4.4-2.4 4.1-.3-.1-1.3.3-1 1.1.3.8 1.8 1 1.8 1s-.8 3.2 0 3.2c.6 0-2 3.7 0 4.6 1.7 1.1 4.8 2.3 6.2 2 1.4-.3 0 5.4 0 5.4l-4 8.3 21.5-2.3-4.5-7s-2-1.3-1.5-5.4c.6-4-.3-22.2-.3-22.2l-15.2-2zm-4 31.7s-6.9 3.2-6.6 11.8c-1.8 8.3-2.6 16.6-2.6 16.6s-8.3 9.2-10.8 12.6c-2.5 3.3-6.3 10.2-7.8 12-1.3 1.8-6.7 7.7-6.4 10 0 2.2-1.4 12 4 13 1.4.7 6-11.2 6-11.2s0-5.2-1.4-6.1c-1.5-.8 3.4-4.3 3.4-4.3l11.3-8.5c2.1-1.7 7.8-8 7.8-8l3.2-38zm0 0" transform="scale(.03125 .02917)" fill-rule="evenodd" fill="#ffc6b5" stroke-width=".8" stroke="#000"/><path d="M487 205s1.8 4.9 5.8 4c4-.7 8.8-4.5 8.8-4.5s3.6-.1 4.3.4c.5.5 10.1 10 9.9 12.7-.4 3-4.5 2-6 4-1.7 2-4 6.9-3.4 10.5.7 3.6 2.9 8.3 2.5 10-.3 2-1.8 2.5-1.8 3.5s1.3 2.6 1.3 4.4c0 1.8-1.6 4.5-1.4 6.3.3 1.6.4 7 .4 7l-.4 24.4s1.4 1 1.5 2.3c.1 1.4 9.4 41.7 9.4 41.7s-.4 1.2-1.4 1.1c-1-.3 3.8 6.3 4 8 .3 1.7 4.8 16 4.8 18-.3 2-1 6.2-1.4 6.4-.4.2 3 8.9 2.5 10.2-.6 1.3-6.1 1.3-6.1 1.3l-1.7-.4s.1 2-1 2c-1.2.3-9.2-.4-9.2-.4s-2.4 3.7-3.8 3.5c-1.4-.1-3.2-2.7-3.6-2.2-.4.4 1.3 2.8.8 3.4-.4.8-7.6 2.3-8.8-1-1.4-3.4.8-2.6.4-3.3-.4-.6-3.6-2.4-4.6-2-1 .6 2.4 1.5 2.4 2.9-.2 1.4-3 3.4-4.2 3.4s-3.8-5-7.6-4.5c-4 .5-6.4 1.5-6.4 1.5s-4.6 2-6.5 1.6c-2-.4-2.8-2-2.8-2.9 0-.8 1.4-4.4 1.2-5.4-.1-1.2-1.1-2.3-1.1-4 0-1.5 3-7.3 3-7.3V336s-3 0-3-1.8c-.2-1.8 4.3-40.4 5-43 .7-2.5 2.4-11.2 2.4-11.2s-2 1-2 0c-.3-1 6-23 6-23s1.2-11 1.2-14c0-2.9-.5-6.9-.5-6.9s-5.6-2.4-5.8-6c-.6-6 5.4-9.3 6-11.3l2.8-7.7s3.1-5.3 8.1-6zm0 0" transform="scale(.03125 .02917)" fill-rule="evenodd" fill="#fff" stroke-width=".8" stroke="#000"/><path d="M485 381.3s-13.5 7-15.5 7.6c-2 .6-3.3-2.4-1.3-3 2-.5 5-.9 5-.9s-4.4-3.4-4.4-3.6l6.4-2.4s2 3.6 3.2 3.4c1.2-.2 4.9-3 4.9-3l1.6 1.9zm0 0" transform="scale(.03125 .02917)" fill-rule="evenodd" fill="#f7c600" stroke-width=".8" stroke="#000"/><path d="M503.9 385c1.4 1.8 1.9 4.6 4.7 3 2.9-1.6-1.5-4.8-1.5-4.8l-3.2 2zm5.4 0s1.3.8 2.4-.4c1.3-1.2-2.4-3.8-2.4-3.8l-1.8 2.1zm0 0" transform="scale(.03125 .02917)" fill-rule="evenodd" fill="#ffc6b5" stroke-width=".8" stroke="#000"/><path d="M505 210.5s-12.3 8-12 10.6m14.8-9.4L505 215m6.8.4s-6.2 5-5.3 8.1M482.7 210s-1.7 3.7-1.3 5c.4 1.3 3.5 6 3.9 8.8.4 3 0 5 0 5m-5.7-11.9s.6 4.4 1.4 5.3c.8.8 3 4.6 3.3 6m-5.8 7.2s3.6 1.8 7-5.2m5.3-4.8s-2.6 6.8 1.8 9.3c4.4 2.5 7.8 2.2 9.8 1.5 1.9-.7 4-2 4-2m-17.5-.5s.4 9.2 13.9 18.2m-13.3-9.7s-.3 8 5.1 11.8m-8-21.1s-4 11.9-7.1 13m6-4.3s-.3 8.5-1.3 11.8m-1 1.8s2.7 3.7 5.7 3.2c3 0 4.4-3.8 6.4-3.2 2 .6 4 2.2 9 1.8m-7 3.6s0 7 1.2 7.8c1.3.8.8 7.2.8 7.2m-19-18.5s-.2 6.6-1 9c-1 2.4-2.6 6.4-2.3 9.8m-5.3 4c.7-.3 3-2.4 3-2.4m1.3 1.4s-6 25.6-4.3 40.9m5.7-39.5s-3 19.1-1.6 22.7m0-23.3l11.8.8m1.6-1.6s3.2 1.8 7.6 1.5m-9 8s-.6 32.6-1.4 40m18.5-32.6s3.6 28.7 5.7 31.4M498 299.5s2.3 25.3 3.4 27.6m-35 8.8s4.4-1.3 8.4-5.6c4.3 6 11 .2 11 .2s10.6 7.3 15.4-.6c7.2 4.7 10.8-.8 10.8-.8s2.6 4 4.6 3.6m-11.6 2.8s5.5 25.4 13.5 32.5m-41.3-35.2s.7 21.3 2 36.2m-3-12.2s-.7 14-1.4 14.9M468 373s1.5 6 9.3.4c7.6-5.6 7.6 2 8 3 .2.7 1.4 6.6 4.3 1.7m6.1-8.2s-1.2 12.5 9.8 3.4 12.8 0 13 2.6" transform="scale(.03125 .02917)" fill="none" stroke-width=".8" stroke="#000"/><path d="M482.6 179s3 .5 4.6-.5c1.7-1 3.7-1.4 5 .6 1.6 2 2.4 1.8 2.4 1.8s-2 5.1 0 5.7c2.1.6 3 .6 3.1 1.2.3.6-1.7 2.2-1 3 .4.6 1.4 1.5 1.6 2 0 .6-1.3 3-1 3.5.4.6 1.8 2.9 2.6 2.9.9 0 .4 3.4 2.9 2.5 2.4-1 2.2-3 2.2-3s2.8-.4 3.4-2.8c.7-2.4 2.4-3 2.4-3s3.3-1.7-1-4.5c0-19.4-13-17.4-13-17.4s-1.6-3.5-4-3c-2.6.3-2.6 3.3-4.4 3-1.8-.2-2.1-1.4-2.4-1.3-.1.1-1.6 3-1.6 3.6 0 .7-4.9-1-4.5 2.5.4 3.7 2.9 3.7 2.7 3.3zm0 0" transform="scale(.03125 .02917)" fill-rule="evenodd" fill="#9c5100" stroke-width=".8" stroke="#000"/><path d="M495.9 174.4s-1 6 5.5 5.5c-.8 3.4 1.7 4.5 1.7 4.5m4.8 3.6c.2 0 3 2 0 4m-9.4 1s1.4 1.6 3 1.2c1.5-.4 4 1.6 4 1.6s2 .7 2.3.1m-17.7 2.4s4.6 1.8 7.6-5.7m-16.4-2.3l2.8.1" transform="scale(.03125 .02917)" fill="none" stroke-width=".8" stroke="#000"/><path d="M481.8 193.1h2.4l-2.2 1" transform="scale(.03125 .02917)" fill="none" stroke-width=".8" stroke-linejoin="round" stroke="#000"/><path d="M485.3 185.4c.3 0 2-.6 2 0 .4.2-1.6.5-2 0zm0 0" transform="scale(.03125 .02917)" fill="none" stroke-width="1.4" stroke-linejoin="round" stroke="#000"/><path d="M515.3 218.3s4.5 13.7 5 17.1c1 6.5 1.7 12.9 1.7 19.5-.8 1.8-7.8 11-8.6 13.5-.9 2.4-5.9 11.4-5.9 11.4s-1.3 9-1.8 9.4c-.4.4 1.6 2.5 1.3 3.2-.3.8-4 4.7-5.8 4.3-1.6-.5-4.2-2.5-4.3-4.2-.1-1.7 0-7.6 1.4-9.2a248 248 0 008-18c.4-1 6-13 6.2-15 .3-2.3-1.8-7-3.8-8.7-4.2-12.8-2.4-20.6 6.6-23.3zm0 0" transform="scale(.03125 .02917)" fill-rule="evenodd" fill="#ffc6b5" stroke-width=".8" stroke="#000"/><path d="M450.5 277.8l.3 6.1m-6-6.5s4 6.5 3.6 10" transform="scale(.03125 .02917)" fill="none" stroke-width=".8" stroke="#000"/><path d="M497 291s3-.2 2.9 4.6c1.9-6 5.7-6.2 5.7-6.2" transform="scale(.03125 .02917)" fill="none" stroke-width=".8" stroke-linejoin="round" stroke="#000"/><path d="M487.1 430c58.6-1.7 96.5-44 96-44.4-.4-.4 7.8-11.8 14.3-10.2 6.5 1.6 15.9 20.8 27.4 24.8 5.6 9-1.8 17.1-4.2 18.9-2.5 1.4-13.4 5.9-15-.4-1.7-6.7-5-5.4-5-5.4s-52 50.8-112.4 48.8c-62 .4-113.4-48.8-113.4-48.8l-4.6 4.8s-4.8 5.2-7.2 5c-2.4-.6-13-7.4-13.8-14.3-.8-7 6.6-11.4 6.6-11.4s17.8-13.8 20-21.2c4-4 11.6 3 11.6 3s47.2 54 99.7 50.7zm0 0" transform="scale(.03125 .02917)" fill-rule="evenodd" fill="#f7c600" stroke-width="1.7" stroke="#000"/><path d="M354.5 398.4s4.8-1.2 6.6.8c1.8 2 14 14 14 14" transform="scale(.03125 .02917)" fill="none" stroke-width="1.7" stroke="#000"/><path d="M365.5 404l-4.8 3.7s12.2 2.5 9.4 10.6M620.2 398s-2.3-1.3-6 1.5c-4.8 4.3-9.3 8.8-13.5 13.5" transform="scale(.03125 .02917)" fill="none" stroke-width="1.7" stroke="#000"/><path d="M609.4 403.8l5.4 4s-11 .8-8.7 11.3" transform="scale(.03125 .02917)" fill="none" stroke-width="1.7" stroke="#000"/><path d="M13 12a.6.6 0 00-.2 0l-.5.3.1-.5a.6.6 0 000-.1v-.1l.3.2h-.1l-.1.4.3-.2a.2.2 0 000-.1l.2.1m.2.8l-.3-.1h.1l.2-.5V12l.3.2a.2.2 0 00-.1 0l-.2.4v.1m1.2-.2l-.1.2a.3.3 0 00-.2-.3.3.3 0 00-.1 0 .2.2 0 00-.2 0 .6.6 0 000 .4.2.2 0 000 .1h.1v.1l.1-.1v-.1h.3l-.1.1v.1a.6.6 0 01-.2 0 .6.6 0 01-.2 0 .4.4 0 01-.2-.3.3.3 0 01.2-.3.4.4 0 01.3 0h.2m.6.8h-.4l.1-.1v-.5h.4a.1.1 0 00-.1 0l-.1.5m1-.1v.2h-.6v-.6H15.3v.5h.2a.2.2 0 00.1 0v-.1m.8-.1h-.3v.2h.1-.2a.4.4 0 000-.1l.2-.6.4.5h.1l-.3.2V13m0 0l-.2-.2v.2h.1m1-.9v.1a.1.1 0 00-.1 0 .2.2 0 00-.1 0l.2.5a.1.1 0 00.1 0l-.3.2a.1.1 0 000-.1l-.2-.5-.1.1a.2.2 0 000 .1l-.1-.1.5-.3m.4-.2l.2.2V12a.2.2 0 000-.1l.3.2a.3.3 0 00-.1 0 .1.1 0 00-.2 0l.2.2h.1a.2.2 0 00.1-.2.2.2 0 000-.1l.1.2-.5.3v-.1l-.2-.4h-.1l.4-.3.1.1a.2.2 0 00-.1 0 .2.2 0 00-.1 0 .7.7 0 00-.1 0"/></svg>