<svg xmlns="http://www.w3.org/2000/svg" width="20" height="14"><path fill="#198a00" d="M0 0h20v14H0z"/><path d="M17.4 5H20v9h-2.6zm0 0" fill-rule="evenodd" fill="#ef7d00"/><path d="M14.7 5h2.7v9h-2.7zm0 0" fill-rule="evenodd"/><path d="M12 5h2.7v9H12zm0 0" fill-rule="evenodd" fill="#de2010"/><path d="M451.6 65.6s34-14.5 37.2-17.5c1.5 1.8-13.6 20-43 26.8 26.7-6.3 49.4-26 54-25.5 1.4.3 1.1 19.3-60 35.7 42.3-11 66.9-31.2 66.5-29.1.4.4-4.2 16-41.1 28.1 10.3-2.4 38.3-19.4 38-16.1 1 1.3-27 37.1-77.6 25.4 40.4 10.6 66.5-14.7 70.1-14.3.8.2-7.3 22-58.1 23.5 24.3-2.5 17.3 0 17.3 0s-14.4 11.1-31.7 3.5c13.6 3.8 15 3.9 15.5 5-1 1.6-12 3.8-23-2 8.7 3.6 16.6 4.2 16.6 5.5 0 .4-5.6 3.5-10.6 1.3-4.9-2.2-50.2-30-50.2-30l77.3-21.5 2.8 1zm-91 75.5c-6.7 0-7 6-7 6s-.5.6-.1 3.5l1.6-2.6c.8.1 3.8 1 8.8-2.9-4.4 4.8-1.8 6.5-1.8 6.5s-1 3.7 2.4 4.4c-1-1.4-.4-2.9-.4-2.9s4.8-.4 4.4-6.2c.2 5.2 3.1 6.5 3.1 6.5s0 3 3 3.3c-1.5-1.6-1.1-3.8-1.1-3.8s3.8-3 .6-8c2-1.2 3.8-4.5 3.8-4.5s-3-1.3-4.2-2.3c-.6-1.2 0-8.4 0-8.4l-1.8-9.3L367 135c.2-2 .4 6.2-6.6 6.2zm0 0" transform="matrix(.0293 0 0 .02734 5 0)" fill-rule="evenodd" fill="#ef7d00" stroke-linejoin="round" stroke="#000"/><path d="M394.1 120.3c.3.1 5.2 5.6 10 5.3 1.8-1.5-3.7-4.7-3.7-5.5 2 1.8 10.1 8.8 15.3 6.3 2.2-3-3.7-2.5-10.1-10.5 4.5 3 15.7 9.4 21 7 2-2.5-11.7-10-16.5-15.8l-12-6.1-16.1 13.3 12.3 6zm0 0" transform="matrix(.0293 0 0 .02734 5 0)" fill-rule="evenodd" fill="#ef7d00" stroke-linejoin="round" stroke="#000"/><path d="M375.9 74.9s5.4-3.3 27.6-1.8c2.4.3 15-4.2 19.2-5.7 6.4-1.1 26.9-5.5 32.2-9.7 4-.6-.9 7.2-5.8 9-5.4 2.3-24.2 8.9-31 8 8 .2 3.6 6.7-9.8 3.6 6.4 3.6 4 4.3 4 4.3s-11.2.5-14.3-2c7.6 2.8 4.4 4 4.4 4s-7.7.5-11.3-1.2c5.4 1.7 2.8 2.7 2.8 2.7s-4.6.9-8.3-.5c-3.7-1.3-9.3-10.7-9.7-10.7zm0 0" transform="matrix(.0293 0 0 .02734 5 0)" fill-rule="evenodd" fill="#ef7d00" stroke-linecap="round" stroke-linejoin="round" stroke="#000"/><path d="M384.7 123.4l.8 14.6-.8 1.1c-.3.5-10.3-1.5-9 6 0 3.3 0 4 2.2 5.8-.6-2-.4-3.5-.4-3.5s2.9 1.7 5.6-3c-1.9 4.6-.6 6.3-.2 6.5.6.7-.8 4.4 3.1 4.2-1.5-1.2-.8-3.2-.8-3.2s4-.8 2.5-7.8c1.5-1.4 2.2 0 2.2 0s.2 4.2 3.8 3.3c1.5.9-.4 3.2-.4 3.2s2.6 0 3.4-2c.6-2.2 1.6-6-2.6-7.6-.4-1.6 1.6-1.6 1.6-1.6s2.7.9 3.5 2.2c.8 1.3.5-3.5-2.8-4-4 0-4.1-.9-4.1-1l-1.1-13.7zm0 0" transform="matrix(.0293 0 0 .02734 5 0)" fill-rule="evenodd" fill="#ef7d00" stroke-linejoin="round" stroke="#000"/><path d="M398.7 135.9c0-.8-7-10-5.1-11 1.7.2 4.5 4.4 7 3-.9-1.6-2.9-.8-5.1-4.9-2.4-4.9-2.8-11.9-11.1-19.6 5.5 8.2 17.5 13 18 10.6.5-2.4-10.7-11.4-10.1-13.6 2.2 4.5 13.4 14.5 21.6 13.6.6-2-6.7-5.9-8.6-9.4C400 101 386 88.9 385.7 86a33.8 33.8 0 00-10-10.7L375 74c-3.2-7.6 1.1-10 3.6-10.5 2-.3 2.6 0 4-.5l-5.2-2c2.4 1.7 8 .1 7 5 2.4-1 7.8-7.5-6.2-8.9-4.6-5.1-23.3-8.1-28 14.6L352 73c-6-2.9-21.9-5-27.6-6-15.6-4.4-31.8-15.1-33.2-13.9-2 1 9.4 11.6 8.8 11.8-8.8-5-18-9.6-27.5-13.6-6-2.2-11.9-7.4-12.5-6.4-2.2 4.5 9.4 16 11.7 17.2 2.1 1.3 19.3 9.3 19 9.5-25.8-11.7-30-14-31.4-15.3-2.3-.4-7.9-8-9.3-7.4-1 .7.8 12.5 13 18 2 1.2 26.4 10 26.3 10.7 0 .3-28-11.5-29-12-5.4-2-12-9.5-13.3-8.6-1.2.9 3.1 8.9 8.4 11.3 3 1.3 13.9 6.6 23.6 10l-26.4-10.4c-4-2.3-5.8-5-6.4-4.5-1 .6 1.4 12.5 29.6 19 .8.5 10-2.1 9.6-1.8-5.2 1.3-10.5 2.3-15.8 2.8-.3.7 1.8 5 16.4 4.2 1.8 0 12-3.7 11-3-4.8 1.8-9.7 3.5-14.8 5-.8 0-5.6.5-5.7 1-.3.7 3.5 3.7 11.3 4.1 7 .4 20.2-4.1 20-3.8l-13.2 4.7c-.4.3-4.9.5-5.2 1-.4.8 6.7 7.3 27.2.3-2 2.8-12 4.7-12 5.2s2.2 2.5 5.6 3.3c1.8.5 4.2.3 6.4 0 4-.8 8-2.3 13.2-7.3.7 1.6-13 8.6-12.4 9.2 3 2.8 12.8-.3 13.5-.7.7-.3 19-10.7 19-12 .3 1.5-23.7 14.7-23.4 15.3 1.5 2.2 9.7-.2 10-.5l10.8-5.8c.3 0-11.7 7-10.8 8.3-.5 4.7 19-3.3 20.5-4.3.7-.5-9.4 4.4-9.4 6.7 3.3 5.6 13.7 3.8 15.3 2.6.8-.6-1 4-.4 3.7a17 17 0 003-4.5c-.2 1.8-1.4 4-2 6.9-.7 2.7-.9 5.9-1.8 9.1-.1 1.5 6.4-2.8 5.3-13.1.7 5.4-1.8 15.4-1.2 16 1.2 1 5.2-5 5.6-9.1 1.1 2 3.5 6.2 5.6 7.2-.2-3 0-3-1-6 .6-4 .6-9.5.8-16 5.6 10.8 7.8 15.3 6.2 23.5 1.8.7 4.4-5.7 4.2-9 1.3 5.5 5.8 9.5 11.6 10.3zm0 0" transform="matrix(.0293 0 0 .02734 5 0)" fill-rule="evenodd" fill="#ef7d00" stroke-width="1.1" stroke-linecap="round" stroke-linejoin="round" stroke="#000"/><path d="M305.3 67.7s-3.8 2.9-8.5 2.7c1.2 4.7 11 1 11 1s-4.7 5.5-8 6.2c2 1.7 10.5 1.1 12 .3 1.3-.9 4-4.2 4-4.2s-8.9 10.2-10 10.2c-.5 1.1 9 .7 10.9-1 2-1.9 7-4.5 7-4.5s-13 9-13.6 9C315 88.6 324.7 86 331 82c-9.2 6.1-10 7.1-14.8 9.3 4.3.8 6.4 3.7 20.4-2.4 8-3.8 12.6-10.8 12.6-10.8a82.2 82.2 0 01-21.6 18c-.6 1 9.4 5.2 21.8-8" transform="matrix(.0293 0 0 .02734 5 0)" fill-rule="evenodd" fill="#ef7d00" stroke-width="1.1" stroke-linecap="round" stroke-linejoin="round" stroke="#000"/><path d="M373.3 96s1 4 4.4 7c3.4 3 3.6 6 3.6 6m-9.6-39s1.2 3.7 4.7 6a36 36 0 019.3 10.7c.4 1.4 2.6 12.6 2.3 13.9m-37.7-25.2c.1 1.6-5.1 8.5 2.1 16.5-6.5 8-6.5 9-6.5 9s3.6 2 10.1-3.6c10.8 13.3 7.2 19.3 7.2 19.3" transform="matrix(.0293 0 0 .02734 5 0)" fill-rule="evenodd" fill="#ef7d00" stroke-width="1.1" stroke-linecap="round" stroke="#000"/><path d="M362.3 107.1s-1-1.2.8-6.5c1.6 2 3.4 2.3 4.1 2.8.8 1 9 2 9.3 7.6" transform="matrix(.0293 0 0 .02734 5 0)" fill-rule="evenodd" fill="#ef7d00" stroke-width="1.1" stroke-linecap="round" stroke-linejoin="round" stroke="#000"/><path d="M371.9 57.4c0-.3-1.8-4-7.8.5 3.4.2 6.4 2.1 7.8-.5zm0 0" transform="matrix(.0293 0 0 .02734 5 0)" fill-rule="evenodd" fill="#ef7d00" stroke-width="1.1" stroke="#000"/><path d="M430.1 73.4c.3.3 18.2 4 24.2 2.2-7.6 10.3-22.8 3.3-22.8 3.3 7.4 2.2 7.7 2 10.1 4.2.8 2-13.9 1-18.5-1.7 13.3 4.2 13.6 4 14 5.5.6 2.2-21.8-.6-23.8-3.5 6.2 4.6 9.4 5.5 12.6 7.6-4 1.9-11.5 3.6-25.2-6.1 18 16.4 34.2 15.4 36.9 18.2-6.3 9.3-30.7-5.4-41.9-13-11.2-7.4 24.6 18.2 27.8 17.8-1.6 2.5-13.4.2-14.2-1" transform="matrix(.0293 0 0 .02734 5 0)" fill-rule="evenodd" fill="#ef7d00" stroke-width="1.1" stroke-linejoin="round" stroke="#000"/><path d="M434.7 90.7c-2 .3-8.3.3-9.2.2" transform="matrix(.0293 0 0 .02734 5 0)" fill-rule="evenodd" fill="#ef7d00" stroke-width="1.1" stroke-linecap="round" stroke="#000"/><path d="M300.1 65s13.6 7.1 19.4 6.7a12 12 0 01-3.8 2c1.4.6 5.4 2.7 11.4 1.4l-3.4 3s5.2 2 11.1-1L332 81l4.1.2" transform="matrix(.0293 0 0 .02734 5 0)" fill-rule="evenodd" fill="#ef7d00" stroke-width="1.1" stroke-linecap="round" stroke-linejoin="round" stroke="#000"/></svg>