<svg width="21" height="15" xmlns="http://www.w3.org/2000/svg"><defs><linearGradient x1="50%" y1="0%" x2="50%" y2="100%" id="a"><stop stop-color="#FFF" offset="0%"/><stop stop-color="#F0F0F0" offset="100%"/></linearGradient><linearGradient x1="50%" y1="0%" x2="50%" y2="100%" id="b"><stop stop-color="#369D0C" offset="0%"/><stop stop-color="#319209" offset="100%"/></linearGradient><linearGradient x1="50%" y1="0%" x2="50%" y2="100%" id="c"><stop stop-color="#262626" offset="0%"/><stop stop-color="#0D0D0D" offset="100%"/></linearGradient><linearGradient x1="50%" y1="0%" x2="50%" y2="100%" id="d"><stop stop-color="#FFD40E" offset="0%"/><stop stop-color="#FFD201" offset="100%"/></linearGradient><linearGradient x1="50%" y1="0%" x2="50%" y2="100%" id="e"><stop stop-color="#F12F1F" offset="0%"/><stop stop-color="#DE2010" offset="100%"/></linearGradient></defs><g fill="none" fill-rule="evenodd"><path fill="url(#a)" d="M0 0h21v15H0z"/><path fill="url(#b)" d="M0 0h21v2H0zm0 13h21v2H0zm0-9h21v2H0zm0 5h21v2H0z"/><path fill="url(#c)" d="M0 6h21v3H0z"/><path fill="url(#d)" d="M0 2h21v2H0zm0 9h21v2H0z"/><path fill="url(#c)" fill-rule="nonzero" d="M-1 15V0h1l10 7.5L0 15z"/><path fill="url(#a)" fill-rule="nonzero" d="M0 13.75L8.333 7.5 0 1.25z"/><path fill="url(#e)" d="M3 8.475L1.53 9.523 2.074 7.8.623 6.727l1.804-.016L3 5l.573 1.711 1.805.016-1.45 1.074.541 1.722z"/></g></svg>