<?xml version="1.0" encoding="UTF-8" standalone="no"?>
<!--
  SPDX-FileCopyrightText: 2020-2025 Nicotine+ Contributors
  SPDX-License-Identifier: GPL-3.0-or-later
-->
<svg
   viewBox="0 0 16 16"
   version="1.1"
   id="svg1"
   sodipodi:docname="hilite3.svg"
   inkscape:version="1.3.2 (091e20ef0f, 2023-11-25)"
   xmlns:inkscape="http://www.inkscape.org/namespaces/inkscape"
   xmlns:sodipodi="http://sodipodi.sourceforge.net/DTD/sodipodi-0.dtd"
   xmlns="http://www.w3.org/2000/svg"
   xmlns:svg="http://www.w3.org/2000/svg">
  <defs
     id="defs1" />
  <sodipodi:namedview
     id="namedview1"
     pagecolor="#ffffff"
     bordercolor="#000000"
     borderopacity="0.25"
     inkscape:showpageshadow="2"
     inkscape:pageopacity="0.0"
     inkscape:pagecheckerboard="0"
     inkscape:deskcolor="#d1d1d1"
     inkscape:zoom="49.9375"
     inkscape:cx="8"
     inkscape:cy="8"
     inkscape:window-width="1920"
     inkscape:window-height="1008"
     inkscape:window-x="0"
     inkscape:window-y="0"
     inkscape:window-maximized="1"
     inkscape:current-layer="svg1" />
  <path
     fill="#497ec2"
     d="M8 3.775A4.24 4.24 0 0 0 3.775 8 4.24 4.24 0 0 0 8 12.225 4.24 4.24 0 0 0 12.225 8 4.24 4.24 0 0 0 8 3.775Zm0 2A2.21 2.21 0 0 1 10.225 8 2.21 2.21 0 0 1 8 10.225 2.21 2.21 0 0 1 5.775 8 2.21 2.21 0 0 1 8 5.775Z"
     id="path1"
     style="fill:#ffffff" />
</svg>
