<?xml version="1.0" encoding="UTF-8" standalone="no"?>
<!--
  SPDX-FileCopyrightText: 2010-2024 Nicotine+ Contributors
  SPDX-License-Identifier: GPL-3.0-or-later
-->
<svg
   width="128"
   height="128"
   version="1.1"
   id="svg2"
   sodipodi:docname="n.svg"
   inkscape:version="1.3.2 (091e20ef0f, 2023-11-25)"
   xmlns:inkscape="http://www.inkscape.org/namespaces/inkscape"
   xmlns:sodipodi="http://sodipodi.sourceforge.net/DTD/sodipodi-0.dtd"
   xmlns="http://www.w3.org/2000/svg"
   xmlns:svg="http://www.w3.org/2000/svg">
  <defs
     id="defs2" />
  <sodipodi:namedview
     id="namedview2"
     pagecolor="#ffffff"
     bordercolor="#000000"
     borderopacity="0.25"
     inkscape:showpageshadow="2"
     inkscape:pageopacity="0.0"
     inkscape:pagecheckerboard="0"
     inkscape:deskcolor="#d1d1d1"
     inkscape:zoom="6.2421875"
     inkscape:cx="64"
     inkscape:cy="64"
     inkscape:window-width="1920"
     inkscape:window-height="1008"
     inkscape:window-x="0"
     inkscape:window-y="0"
     inkscape:window-maximized="1"
     inkscape:current-layer="svg2" />
  <path
     fill="#d38c2d"
     d="M12 16v96a4 4 0 0 0 4 4h12a4 4 0 0 0 4-4V36h4c2.21 0 5.82-.081 7.972.398 4.16.926 6.704 3.47 7.63 7.63C52.082 46.18 52 49.79 52 52v60a4 4 0 0 0 4 4h12a4 4 0 0 0 4-4v-12h16v12a4 4 0 0 0 4 4h12a4 4 0 0 0 4-4v-12h12a4 4 0 0 0 4-4V84l-4-4h-12V64l-4-4H92l-4 4v16H72V52L40 12H16l-4 4z"
     id="path1"
     style="fill:#808080" />
  <path
     fill="#f9aa40"
     d="M12 16v92a4 4 45 0 0 4 4h12a4 4 135 0 0 4-4V32h4c2.21 0 5.82-.081 7.972.398 4.16.926 6.704 3.47 7.63 7.63C52.082 42.18 52 45.79 52 48v60a4 4 45 0 0 4 4h12a4 4 135 0 0 4-4V96h16v12a4 4 45 0 0 4 4h12a4 4 135 0 0 4-4V96h12a4 4 135 0 0 4-4v-8a4 4 45 0 0-4-4h-12V64a4 4 45 0 0-4-4H92a4 4 135 0 0-4 4v16H72V48c0-2.21.023-5.799-.245-7.99-1.617-13.217-11.077-25.512-23.774-27.674C45.806 11.966 42.21 12 40 12H16a4 4 135 0 0-4 4z"
     id="path2"
     style="fill:#ffffff" />
</svg>
