<svg xmlns="http://www.w3.org/2000/svg" width="256" height="256"><path fill="#D38C2D" d="M24 32v192a8 8 0 0 0 8 8h24a8 8 0 0 0 8-8V72h8c4.418 0 11.64-.164 15.945.797 8.32 1.851 13.407 6.937 15.258 15.258.961 4.304.797 11.527.797 15.945v120a8 8 0 0 0 8 8h24a8 8 0 0 0 8-8v-24h32v24a8 8 0 0 0 8 8h24a8 8 0 0 0 8-8v-24h24a8 8 0 0 0 8-8v-24l-8-8h-24v-32l-8-8h-24l-8 8v32h-32v-56L80 24H32l-8 8Zm0 0"/><path fill="#F9AA40" d="M24 32v184a8 8 0 0 0 8 8h24a8 8 0 0 0 8-8V64h8c4.418 0 11.64-.164 15.945.797 8.32 1.851 13.407 6.937 15.258 15.258.961 4.304.797 11.527.797 15.945v120a8 8 0 0 0 8 8h24a8 8 0 0 0 8-8v-24h32v24a8 8 0 0 0 8 8h24a8 8 0 0 0 8-8v-24h24a8 8 0 0 0 8-8v-16a8 8 0 0 0-8-8h-24v-32a8 8 0 0 0-8-8h-24a8 8 0 0 0-8 8v32h-32V96c0-4.418.047-11.598-.492-15.98-3.235-26.434-22.153-51.024-47.547-55.348C91.613 23.93 84.418 24 80 24H32a8 8 0 0 0-8 8Zm0 0"/></svg>