<svg xmlns="http://www.w3.org/2000/svg" width="21" height="15"><defs><linearGradient id="a" x1="50%" x2="50%" y1="0%" y2="100%"><stop offset="0%" stop-color="#FFF"/><stop offset="100%" stop-color="#F0F0F0"/></linearGradient><linearGradient id="b" x1="50%" x2="50%" y1="0%" y2="100%"><stop offset="0%" stop-color="#048345"/><stop offset="100%" stop-color="#04753E"/></linearGradient><linearGradient id="c" x1="50%" x2="50%" y1="0%" y2="100%"><stop offset="0%" stop-color="#E81B42"/><stop offset="100%" stop-color="#D20F34"/></linearGradient></defs><g fill="none" fill-rule="evenodd"><path fill="url(#a)" d="M0 0h21v15H0z"/><path fill="url(#b)" d="M0 0h11v15H0z"/><path fill="url(#a)" d="M11 0h10v15H11z"/><path fill="url(#c)" d="m13 8.28-1.176.838.434-1.377-1.16-.859 1.444-.013L13 5.5l.458 1.369 1.444.013-1.16.859.434 1.377z"/><path fill="url(#c)" d="M13.26 4.214A4.204 4.204 0 0 0 10.313 3C7.931 3 6 5.015 6 7.5S7.931 12 10.313 12c1.14 0 2.176-.461 2.947-1.214a4.112 4.112 0 0 1-1.77.396c-2.166 0-3.922-1.649-3.922-3.682s1.756-3.682 3.921-3.682c.638 0 1.24.143 1.771.396Z"/></g></svg>