<svg xmlns="http://www.w3.org/2000/svg" xmlns:xlink="http://www.w3.org/1999/xlink" width="21" height="15"><defs><linearGradient id="a" x1="50%" x2="50%" y1="0%" y2="100%"><stop offset="0%" stop-color="#FFF"/><stop offset="100%" stop-color="#F0F0F0"/></linearGradient><linearGradient id="f" x1="50%" x2="50%" y1="0%" y2="100%"><stop offset="0%" stop-color="#1B2CA9"/><stop offset="100%" stop-color="#132294"/></linearGradient><linearGradient id="i" x1="50%" x2="50%" y1="0%" y2="100%"><stop offset="0%" stop-color="#E6402C"/><stop offset="100%" stop-color="#D1321F"/></linearGradient><linearGradient id="j" x1="50%" x2="50%" y1="0%" y2="100%"><stop offset="0%" stop-color="#D0D0D0"/><stop offset="100%" stop-color="#C4C4C4"/></linearGradient><linearGradient id="k" x1="50%" x2="50%" y1="0%" y2="100%"><stop offset="0%" stop-color="#262626"/><stop offset="100%" stop-color="#0D0D0D"/></linearGradient><linearGradient id="l" x1="50%" x2="50%" y1="0%" y2="100%"><stop offset="0%" stop-color="#F7E04B"/><stop offset="100%" stop-color="#EAD135"/></linearGradient><path id="b" d="M0 .491A.49.49 0 0 1 .498 0h4.004A.5.5 0 0 1 5 .491v5.018a.535.535 0 0 1-.5.522S3 6 2.5 6.94C2 6 .5 6.03.5 6.03a.54.54 0 0 1-.5-.522V.491Z"/><path id="e" d="M0 0h5v3H0z"/><path id="h" d="M0 3h5v4H0z"/><filter id="d" width="130%" height="150%" x="-15%" y="-25%" filterUnits="objectBoundingBox"><feMorphology in="SourceAlpha" operator="dilate" radius=".25" result="shadowSpreadOuter1"/><feOffset in="shadowSpreadOuter1" result="shadowOffsetOuter1"/><feColorMatrix in="shadowOffsetOuter1" values="0 0 0 0 0 0 0 0 0 0 0 0 0 0 0 0 0 0 0.06 0"/></filter><filter id="g" width="130%" height="137.5%" x="-15%" y="-18.8%" filterUnits="objectBoundingBox"><feMorphology in="SourceAlpha" operator="dilate" radius=".25" result="shadowSpreadOuter1"/><feOffset in="shadowSpreadOuter1" result="shadowOffsetOuter1"/><feColorMatrix in="shadowOffsetOuter1" values="0 0 0 0 0 0 0 0 0 0 0 0 0 0 0 0 0 0 0.06 0"/></filter></defs><g fill="none" fill-rule="evenodd"><path fill="url(#a)" d="M0 0h21v15H0z"/><g transform="translate(8 4)"><mask id="c" fill="#fff"><use xlink:href="#b"/></mask><use xlink:href="#b" fill="#D8D8D8"/><path stroke="#979797" d="M4.5.5V.491.5Zm0 0h.002H4.5Zm-4 0v5.009s.02.022-.01.022H.5c.342-.004.793.048 1.25.213.285.102.538.24.75.418.212-.178.465-.316.75-.418.444-.16.882-.214 1.22-.213.02-.005.03-.017.03-.022V.5h-4Z"/><g mask="url(#c)"><use xlink:href="#e" fill="#000" filter="url(#d)"/><use xlink:href="#e" fill="url(#f)"/></g><g mask="url(#c)"><use xlink:href="#h" fill="#000" filter="url(#g)"/><use xlink:href="#h" fill="url(#i)"/></g></g><g transform="translate(14 3)"><path fill="url(#j)" d="M1.039 1.726v-.464L1.5 1S1.045.444 1.27.444C1.545.444 2.7.81 3 1c.3.19.453.418.496.85.042.431-.316.981-.316.981L3 3.25l.788-.179s.128.826-.452 1.429c-.58.603-1.395.49-1.395.49l-.164-.49s-.53.206-.843.674C.62 5.642.533 6.45 1.039 6.95c.506.5 1.341.457 1.74-.245 0 0 .159-.62-.21-.912-.367-.291-.616.311-.628.278-.071-.21-.164-.57.428-.57s.896.637.81 1.126c-.084.489-.255.953-1.402 1.083C.631 7.84.336 6.386.336 6.386s-.292-1.356 0-2.335c.292-.98.725-1.004 1.605-1.541.88-.538-.531-.183-.531-.183s-.67.504-.88.32c-.21-.183.509-.921.509-.921Z"/><circle cx="1.75" cy="1.75" r="1" fill="url(#k)" fill-opacity=".3"/></g><g transform="matrix(-1 0 0 1 7 3)"><path fill="url(#j)" d="M1.039 1.726v-.464L1.5 1S1.045.444 1.27.444C1.545.444 2.7.81 3 1c.3.19.453.418.496.85.042.431-.316.981-.316.981L3 3.25l.788-.179s.128.826-.452 1.429c-.58.603-1.395.49-1.395.49l-.164-.49s-.53.206-.843.674C.62 5.642.533 6.45 1.039 6.95c.506.5 1.341.457 1.74-.245 0 0 .159-.62-.21-.912-.367-.291-.616.311-.628.278-.071-.21-.164-.57.428-.57s.896.637.81 1.126c-.084.489-.255.953-1.402 1.083C.631 7.84.336 6.386.336 6.386s-.292-1.356 0-2.335c.292-.98.725-1.004 1.605-1.541.88-.538-.531-.183-.531-.183s-.67.504-.88.32c-.21-.183.509-.921.509-.921Z"/><circle cx="1.75" cy="1.75" r="1" fill="url(#k)" fill-opacity=".3"/></g><path fill="url(#a)" d="M9.634 5a1 1 0 1 0 1.732 0 1 1 0 0 1-1.732 0Z"/><path fill="url(#l)" d="M9.5 9a.5.5 0 1 1 0-1 .5.5 0 0 1 0 1Zm2 0a.5.5 0 1 1 0-1 .5.5 0 0 1 0 1Z"/></g></svg>