<svg xmlns="http://www.w3.org/2000/svg" width="21" height="15"><defs><linearGradient id="a" x1="50%" x2="50%" y1="0%" y2="100%"><stop offset="0%" stop-color="#FFF"/><stop offset="100%" stop-color="#F0F0F0"/></linearGradient><linearGradient id="b" x1="50%" x2="50%" y1="0%" y2="100%"><stop offset="0%" stop-color="#D02F44"/><stop offset="100%" stop-color="#B12537"/></linearGradient><linearGradient id="c" x1="50%" x2="50%" y1="0%" y2="100%"><stop offset="0%" stop-color="#46467F"/><stop offset="100%" stop-color="#3C3C6D"/></linearGradient></defs><g fill="none" fill-rule="evenodd"><path fill="url(#a)" d="M0 0h21v15H0z"/><path fill="url(#b)" d="M0 0h21v1H0V0Zm0 2h21v1H0V2Zm0 2h21v1H0V4Zm0 2h21v1H0V6Zm0 2h21v1H0V8Zm0 2h21v1H0v-1Zm0 2h21v1H0v-1Zm0 2h21v1H0v-1Z"/><path fill="url(#c)" d="M0 0h9v7H0z"/><path fill="url(#a)" d="M1.5 2a.5.5 0 1 1 0-1 .5.5 0 0 1 0 1Zm2 0a.5.5 0 1 1 0-1 .5.5 0 0 1 0 1Zm2 0a.5.5 0 1 1 0-1 .5.5 0 0 1 0 1Zm2 0a.5.5 0 1 1 0-1 .5.5 0 0 1 0 1Zm-5 1a.5.5 0 1 1 0-1 .5.5 0 0 1 0 1Zm2 0a.5.5 0 1 1 0-1 .5.5 0 0 1 0 1Zm2 0a.5.5 0 1 1 0-1 .5.5 0 0 1 0 1Zm1 1a.5.5 0 1 1 0-1 .5.5 0 0 1 0 1Zm-2 0a.5.5 0 1 1 0-1 .5.5 0 0 1 0 1Zm-2 0a.5.5 0 1 1 0-1 .5.5 0 0 1 0 1Zm-2 0a.5.5 0 1 1 0-1 .5.5 0 0 1 0 1Zm1 1a.5.5 0 1 1 0-1 .5.5 0 0 1 0 1Zm2 0a.5.5 0 1 1 0-1 .5.5 0 0 1 0 1Zm2 0a.5.5 0 1 1 0-1 .5.5 0 0 1 0 1Zm1 1a.5.5 0 1 1 0-1 .5.5 0 0 1 0 1Zm-2 0a.5.5 0 1 1 0-1 .5.5 0 0 1 0 1Zm-2 0a.5.5 0 1 1 0-1 .5.5 0 0 1 0 1Zm-2 0a.5.5 0 1 1 0-1 .5.5 0 0 1 0 1Z"/></g></svg>