<svg xmlns="http://www.w3.org/2000/svg" width="21" height="15"><defs><linearGradient id="a" x1="50%" x2="50%" y1="0%" y2="100%"><stop offset="0%" stop-color="#FFF"/><stop offset="100%" stop-color="#F0F0F0"/></linearGradient><linearGradient id="b" x1="50%" x2="50%" y1="0%" y2="100%"><stop offset="0%" stop-color="#071585"/><stop offset="100%" stop-color="#000B64"/></linearGradient><linearGradient id="c" x1="50%" x2="50%" y1="0%" y2="100%"><stop offset="0%" stop-color="#D32636"/><stop offset="100%" stop-color="#BA1827"/></linearGradient><linearGradient id="d" x1="50%" x2="35.4%" y1="0%" y2="89.131%"><stop offset="0%" stop-color="#AB5423"/><stop offset="100%" stop-color="#5A3719"/></linearGradient></defs><g fill="none" fill-rule="evenodd"><path fill="url(#a)" d="M0 0h21v15H0z"/><path fill="url(#b)" d="M0 0h21v15H0z"/><path fill="url(#c)" fill-rule="nonzero" d="m22 15.5-22-8 22-8z"/><path fill="url(#a)" fill-rule="nonzero" d="M21 .928 2.926 7.5 21 14.072z"/><path fill="url(#d)" d="M16 7.038c-.118-.118-.806.156-.806.156L14 6s-.062-.663.5-1c.425-.255 1.22-.16 1.999-.5C17.746 3.956 19 3 19 3l-.802 2.206s.919.473.802.794c-.034.093-.93.385-1 .5-.132.22.524.286.32.538C17.733 7.765 17 8.5 17 8.5L16 8s.15-.811 0-.962Z"/><circle cx="13.5" cy="7.5" r="1" fill="#FFC322"/><path fill="#FFC322" fill-rule="nonzero" d="M12.5 9h5a.5.5 0 1 0 0-1h-5a.5.5 0 1 0 0 1Z"/><path fill="#FFC322" fill-rule="nonzero" d="m14.197 10.46 3.5-1.5a.5.5 0 0 0-.394-.92l-3.5 1.5a.5.5 0 0 0 .394.92Z"/></g></svg>