<svg width="21" height="15" xmlns="http://www.w3.org/2000/svg" xmlns:xlink="http://www.w3.org/1999/xlink"><defs><linearGradient x1="50%" y1="0%" x2="50%" y2="100%" id="a"><stop stop-color="#FFF" offset="0%"/><stop stop-color="#F0F0F0" offset="100%"/></linearGradient><linearGradient x1="50%" y1="0%" x2="50%" y2="100%" id="b"><stop stop-color="#138E16" offset="0%"/><stop stop-color="#0F7F12" offset="100%"/></linearGradient><linearGradient x1="50%" y1="0%" x2="50%" y2="100%" id="c"><stop stop-color="#26A7DC" offset="0%"/><stop stop-color="#1B94C6" offset="100%"/></linearGradient><linearGradient x1="50%" y1="0%" x2="50%" y2="100%" id="d"><stop stop-color="#FBCD3F" offset="0%"/><stop stop-color="#FFCE2F" offset="100%"/></linearGradient><linearGradient x1="50%" y1="0%" x2="50%" y2="100%" id="f"><stop stop-color="#F03633" offset="0%"/><stop stop-color="#D82A28" offset="100%"/></linearGradient><path id="e" d="M0 0h7v5H0z"/><linearGradient x1="82.842%" y1="18.137%" x2="20.426%" y2="78.479%" id="g"><stop stop-color="#2AA854" offset="0%"/><stop stop-color="#219447" offset="100%"/></linearGradient><linearGradient x1="50%" y1="0%" x2="50%" y2="100%" id="i"><stop stop-color="#262626" offset="0%"/><stop stop-color="#0D0D0D" offset="100%"/></linearGradient><linearGradient x1="50%" y1="0%" x2="50%" y2="100%" id="j"><stop stop-color="#D7181D" offset="0%"/><stop stop-color="#C60E13" offset="100%"/></linearGradient><linearGradient x1="50%" y1="0%" x2="50%" y2="100%" id="k"><stop stop-color="#FBCD3F" offset="0%"/><stop stop-color="#FECB2F" offset="100%"/></linearGradient></defs><g fill="none" fill-rule="evenodd"><path fill="url(#a)" d="M0 0h21v15H0z"/><path fill="url(#b)" d="M0 10h21v5H0z"/><path fill="url(#c)" d="M0 15h21V0H0z"/><path d="M17.326 6.429C18.353 6.176 19 6.109 19 7c0 1.657-2.239 3-5 3S9 8.657 9 7c0-.89.647-.824 1.674-.571a4.114 4.114 0 0 1-.161-.563c-.287-1.35.137-2.584.947-2.757.81-.172 1.7.783 1.987 2.134.136.636.113 1.247-.034 1.733a7.414 7.414 0 0 0 1.174 0c-.147-.486-.17-1.097-.034-1.733.287-1.35 1.176-2.306 1.987-2.134.81.173 1.234 1.407.947 2.757a4.114 4.114 0 0 1-.161.563z" fill="url(#d)"/><path d="M15.776 12.947a.5.5 0 0 0 .448 0l2-1a.5.5 0 0 0-.448-.894L16 11.94l-1.776-.888a.5.5 0 0 0-.448 0L12 11.94l-1.776-.888a.5.5 0 0 0-.448.894l2 1a.5.5 0 0 0 .448 0L14 12.06l1.776.888z" fill="url(#a)" fill-rule="nonzero"/><mask id="h" fill="#fff"><use xlink:href="#e"/></mask><use fill="url(#f)" xlink:href="#e"/><path d="M4 2v-4H3v4h-4v1h4v4h1V3h4V2H4z" fill="url(#g)" mask="url(#h)" transform="rotate(-45 3.5 2.5)"/><path d="M4 2v-3H3v3H0v1h3v3h1V3h3V2H4z" fill="url(#a)" mask="url(#h)"/><path fill="url(#a)" d="M0 5h7v5H0z"/><path d="M1.5 7a.5.5 0 1 1 0-1 .5.5 0 0 1 0 1zm2 0a.5.5 0 1 1 0-1 .5.5 0 0 1 0 1zm2 0a.5.5 0 1 1 0-1 .5.5 0 0 1 0 1zm-1 2a.5.5 0 1 1 0-1 .5.5 0 0 1 0 1zm-2 0a.5.5 0 1 1 0-1 .5.5 0 0 1 0 1z" fill="url(#i)"/><path fill="url(#j)" d="M0 10h7v5H0z"/><path d="M3.5 12c-1.38 0-2.5-.224-2.5-.5s1.12-.5 2.5-.5 2.5.224 2.5.5-1.12.5-2.5.5zm0 2c-1.38 0-2.5-.224-2.5-.5s1.12-.5 2.5-.5 2.5.224 2.5.5-1.12.5-2.5.5z" fill="url(#k)"/></g></svg>