<svg xmlns="http://www.w3.org/2000/svg" width="21" height="15"><defs><linearGradient id="a" x1="50%" x2="50%" y1="0%" y2="100%"><stop offset="0%" stop-color="#FFF"/><stop offset="100%" stop-color="#F0F0F0"/></linearGradient><linearGradient id="b" x1="50%" x2="50%" y1="0%" y2="100%"><stop offset="0%" stop-color="#1DBE4F"/><stop offset="100%" stop-color="#159B3F"/></linearGradient><linearGradient id="c" x1="50%" x2="50%" y1="0%" y2="100%"><stop offset="0%" stop-color="#0660D4"/><stop offset="100%" stop-color="#0051BB"/></linearGradient><linearGradient id="d" x1="50%" x2="50%" y1="0%" y2="100%"><stop offset="0%" stop-color="#2C7442"/><stop offset="100%" stop-color="#225B34"/></linearGradient><linearGradient id="e" x1="50%" x2="50%" y1="0%" y2="100%"><stop offset="0%" stop-color="#FFD646"/><stop offset="100%" stop-color="#FED02F"/></linearGradient></defs><g fill="none" fill-rule="evenodd"><path fill="url(#a)" d="M0 0h21v15H0z"/><path fill="url(#a)" d="M5.92 5.812c0-.139.078-.33.18-.433l.14-.138c.1-.1.102-.26 0-.362l-.14-.138a.69.69 0 0 1-.18-.433v-.496c0-.139.107-.252.252-.252h.496c.139 0 .252.107.252.252v.496c0 .139.046.16.116.02l.268-.536a.459.459 0 0 1 .364-.232h1.004c.137 0 .248.116.248.25 0 .138-.107.25-.252.25h-.496a.254.254 0 0 0-.252.25c0 .138.107.25.252.25h.496c.139 0 .252.108.252.245v1.51a.245.245 0 0 1-.252.245h-.496a.249.249 0 0 1-.252-.252v-.496c0-.139.116-.252.25-.252.138 0 .25-.116.25-.25a.247.247 0 0 0-.252-.25h-.496a.255.255 0 0 0-.252.248v1.004a.251.251 0 0 1-.25.248.247.247 0 0 1-.25-.252v-.496a.254.254 0 0 0-.25-.252.247.247 0 0 0-.25.252v.496c0 .139-.116.252-.25.252a.247.247 0 0 1-.25-.252v-.496Z"/><path fill="url(#b)" d="M0-.003h21v15H0z"/><path fill="url(#c)" d="M0-.003h21l-21 15z"/><path fill="url(#d)" d="m0-.003 21 15H0z" transform="matrix(-1 0 0 1 21 0)"/><path fill="url(#e)" d="M-4 6.497h29v2H-4z"/><path fill="#FFF" d="m2.25 2.872-.734.387.14-.819-.595-.579.822-.12.367-.744.368.745.821.12-.594.578.14.819-.735-.387Zm5 0-.734.387.14-.819-.595-.579.822-.12.367-.744.368.745.821.12-.594.578.14.819-.735-.387Zm0 3-.734.387.14-.819-.595-.579.822-.12.367-.744.368.745.821.12-.594.578.14.819-.735-.387Zm-5 0-.734.387.14-.819-.595-.579.822-.12.367-.744.368.745.821.12-.594.578.14.819-.735-.387Zm2.5-1.5-.734.387.14-.819-.595-.579.822-.12.367-.744.368.745.821.12-.594.578.14.819-.735-.387Z"/></g></svg>