<svg xmlns="http://www.w3.org/2000/svg" width="21" height="15"><defs><linearGradient id="a" x1="50%" x2="50%" y1="0%" y2="100%"><stop offset="0%" stop-color="#FFF"/><stop offset="100%" stop-color="#F0F0F0"/></linearGradient><linearGradient id="b" x1="50%" x2="50%" y1="0%" y2="100%"><stop offset="0%" stop-color="#2D754D"/><stop offset="100%" stop-color="#235F3E"/></linearGradient><linearGradient id="c" x1="50%" x2="50%" y1="0%" y2="100%"><stop offset="0%" stop-color="#25B1EB"/><stop offset="100%" stop-color="#1AA3DC"/></linearGradient><linearGradient id="d" x1="50%" x2="50%" y1="0%" y2="100%"><stop offset="0%" stop-color="#FAD546"/><stop offset="100%" stop-color="#FAD12F"/></linearGradient><linearGradient id="e" x1="50%" x2="50%" y1="0%" y2="100%"><stop offset="0%" stop-color="#EDC738"/><stop offset="100%" stop-color="#E5BE2A"/></linearGradient></defs><g fill="none" fill-rule="evenodd"><path fill="url(#a)" d="M0 0h21v15H0z"/><path fill="url(#b)" d="M0 11h21v4H0z"/><path fill="url(#c)" d="M0 0h21v7H0z"/><path fill="url(#d)" d="M0 7h21v4H0z"/><path fill="url(#e)" d="m16 4.5-.765.848.058-1.14-1.14.057L15 3.5l-.848-.765 1.14.058-.057-1.14L16 2.5l.765-.848-.058 1.14 1.14-.057L17 3.5l.848.765-1.14-.058.057 1.14z"/></g></svg>