<svg xmlns="http://www.w3.org/2000/svg" width="21" height="15"><defs><linearGradient id="a" x1="50%" x2="50%" y1="0%" y2="100%"><stop offset="0%" stop-color="#FFF"/><stop offset="100%" stop-color="#F0F0F0"/></linearGradient><linearGradient id="b" x1="50%" x2="50%" y1="0%" y2="100%"><stop offset="0%" stop-color="#43924C"/><stop offset="100%" stop-color="#3A7E42"/></linearGradient><linearGradient id="c" x1="50%" x2="50%" y1="0%" y2="100%"><stop offset="0%" stop-color="#CD153A"/><stop offset="100%" stop-color="#B31031"/></linearGradient><linearGradient id="d" x1="50%" x2="50%" y1="0%" y2="100%"><stop offset="0%" stop-color="#F5D24B"/><stop offset="100%" stop-color="#ECC736"/></linearGradient></defs><g fill="none" fill-rule="evenodd"><path fill="url(#a)" d="M0 0h21v15H0z"/><path fill="url(#b)" d="M0 0h21v3H0zM0 12h21v3H0z"/><path fill="url(#a)" d="M0 3h21v9H0z"/><path fill="url(#c)" d="M0 5h21v5H0z"/><path fill="url(#d)" d="m10.5 8.775-1.47.998.495-1.706-1.403-1.09 1.776-.056.602-1.671.602 1.67 1.776.057-1.403 1.09.494 1.706z"/></g></svg>