<svg width="21" height="15" xmlns="http://www.w3.org/2000/svg" xmlns:xlink="http://www.w3.org/1999/xlink"><defs><linearGradient x1="50%" y1="0%" x2="50%" y2="100%" id="a"><stop stop-color="#FFF" offset="0%"/><stop stop-color="#F0F0F0" offset="100%"/></linearGradient><linearGradient x1="50%" y1="0%" x2="50%" y2="100%" id="b"><stop stop-color="#112EBC" offset="0%"/><stop stop-color="#0620A0" offset="100%"/></linearGradient><linearGradient x1="50%" y1="0%" x2="50%" y2="100%" id="c"><stop stop-color="#E3264A" offset="0%"/><stop stop-color="#D20F34" offset="100%"/></linearGradient><rect id="d" x="0" y="0" width="7" height="6" rx=".5"/><path d="M0 5l1.105-.553C1.6 4.2 2.443 4 3 4h1.002c.552 0 1.404.202 1.894.447L7 5v1H0V5z" id="f"/><path d="M1 3.006c0-.28.18-.362.39-.193l1.72 1.374a.66.66 0 0 0 .78 0l1.72-1.375c.215-.172.39-.081.39.194v1.488c0 .28-.215.506-.498.506H1.498A.505.505 0 0 1 1 4.494V3.006z" id="g"/></defs><g fill="none" fill-rule="evenodd"><path fill="url(#a)" d="M0 0h21v15H0z"/><path fill="url(#b)" d="M0 0h21v7H0z"/><path fill="url(#c)" d="M0 7h21v8H0z"/><g transform="translate(7 5)"><mask id="e" fill="#fff"><use xlink:href="#d"/></mask><use fill="url(#a)" xlink:href="#d"/><g mask="url(#e)"><use fill="#AABCAE" xlink:href="#f"/><path stroke="#366C14" stroke-width=".5" d="M.25 5.155v.595h6.5v-.595l-.967-.484C5.326 4.443 4.513 4.25 4 4.25H2.999c-.516 0-1.321.19-1.782.421l-.967.484z"/></g><circle fill="#D4B872" mask="url(#e)" cx="3.5" cy="2.5" r="1.5"/><g mask="url(#e)"><use fill="#C28321" xlink:href="#g"/><path stroke="#0D3488" stroke-width=".5" d="M1.25 3.02v1.474c0 .14.114.256.248.256h4.004c.14 0 .248-.11.248-.256V3.02L4.047 4.383a.91.91 0 0 1-1.094 0L1.25 3.02z"/></g><path d="M2.172 1.172C2.077 1.077 2.114 1 2.256 1h2.488c.141 0 .175.08.084.172L3.672 2.328a.247.247 0 0 1-.344 0L2.172 1.172z" fill="#216C30" mask="url(#e)"/></g></g></svg>