<svg xmlns="http://www.w3.org/2000/svg" xmlns:xlink="http://www.w3.org/1999/xlink" width="21" height="15"><defs><linearGradient id="a" x1="50%" x2="50%" y1="0%" y2="100%"><stop offset="0%" stop-color="#FFF"/><stop offset="100%" stop-color="#F0F0F0"/></linearGradient><linearGradient id="b" x1="50%" x2="50%" y1="0%" y2="100%"><stop offset="0%" stop-color="#E1244A"/><stop offset="100%" stop-color="#BE1134"/></linearGradient><linearGradient id="c" x1="50%" x2="50%" y1="0%" y2="100%"><stop offset="0%" stop-color="#0C3F8E"/><stop offset="100%" stop-color="#032A67"/></linearGradient><filter id="d" width="108.3%" height="116.7%" x="-4.2%" y="-4.2%" filterUnits="objectBoundingBox"><feOffset dy=".5" in="SourceAlpha" result="shadowOffsetOuter1"/><feColorMatrix in="shadowOffsetOuter1" values="0 0 0 0 0 0 0 0 0 0 0 0 0 0 0 0 0 0 0.06 0"/></filter><path id="e" d="M5 6.17 3.237 7.427l.65-2.065-1.74-1.29 2.165-.019L5 2l.688 2.053 2.165.02-1.74 1.289.65 2.065z"/></defs><g fill="none" fill-rule="evenodd"><path fill="url(#a)" d="M0 0h21v15H0z"/><path fill="url(#b)" d="M10 0h11v2H10V0Zm0 4h11v2H10V4Zm0 4h11v2H10V8ZM0 12h21v2H0v-2Z"/><path fill="url(#c)" d="M0 0h10v10H0z"/><use xlink:href="#e" fill="#000" filter="url(#d)"/><use xlink:href="#e" fill="url(#a)"/></g></svg>