<svg xmlns="http://www.w3.org/2000/svg" width="21" height="15"><defs><linearGradient id="a" x1="50%" x2="50%" y1="0%" y2="100%"><stop offset="0%" stop-color="#FFF"/><stop offset="100%" stop-color="#F0F0F0"/></linearGradient><linearGradient id="b" x1="50%" x2="50%" y1="0%" y2="100%"><stop offset="0%" stop-color="#FFDC44"/><stop offset="100%" stop-color="#FDD216"/></linearGradient><linearGradient id="c" x1="50%" x2="50%" y1="0%" y2="100%"><stop offset="0%" stop-color="#059170"/><stop offset="100%" stop-color="#007B5E"/></linearGradient><linearGradient id="d" x1="50%" x2="50%" y1="0%" y2="100%"><stop offset="0%" stop-color="#E21A30"/><stop offset="100%" stop-color="#CE1126"/></linearGradient><linearGradient id="e" x1="50%" x2="50%" y1="0%" y2="100%"><stop offset="0%" stop-color="#FFDC42"/><stop offset="100%" stop-color="#FDD217"/></linearGradient></defs><g fill="none" fill-rule="evenodd"><path fill="url(#a)" d="M0 0h21v15H0z"/><path fill="url(#b)" d="M10 0h11v15H10z"/><path fill="url(#c)" d="M0 0h7v15H0z"/><path fill="url(#d)" d="M7 0h7v15H7z"/><path fill="url(#b)" d="M14 0h7v15h-7z"/><path fill="url(#e)" d="M10.5 8.475 9.03 9.523 9.574 7.8l-1.45-1.074 1.804-.016L10.5 5l.573 1.711 1.805.016-1.45 1.074.541 1.722z"/></g></svg>