<svg xmlns="http://www.w3.org/2000/svg" width="21" height="15"><defs><linearGradient id="a" x1="50%" x2="50%" y1="0%" y2="100%"><stop offset="0%" stop-color="#FFF"/><stop offset="100%" stop-color="#F0F0F0"/></linearGradient><linearGradient id="b" x1="50%" x2="50%" y1="0%" y2="100%"><stop offset="0%" stop-color="#EF273F"/><stop offset="100%" stop-color="#DB1C33"/></linearGradient><linearGradient id="c" x1="50%" x2="50%" y1="0%" y2="100%"><stop offset="0%" stop-color="#F22A41"/><stop offset="100%" stop-color="#E51D34"/></linearGradient><linearGradient id="d" x1="50%" x2="50%" y1="0%" y2="100%"><stop offset="0%" stop-color="#FADF46"/><stop offset="100%" stop-color="#F9DC38"/></linearGradient></defs><g fill="none" fill-rule="evenodd"><path fill="url(#a)" d="M0 0h21v15H0z"/><path fill="url(#b)" d="M10.5 6.291-.962-1.44-2.08.218l10.792 7.28-10.792 7.279 1.118 1.658L10.5 8.704l11.462 7.73 1.118-1.657-10.791-7.28L23.08.218 21.962-1.44 10.5 6.291Z"/><path fill="url(#c)" d="M9 2.502c0-.279.216-.505.496-.505h2.009c.273 0 .495.214.495.505v.99c0 .28-.16.666-.348.853l-.804.804a.496.496 0 0 1-.696 0l-.804-.804A1.354 1.354 0 0 1 9 3.493v-.991Z"/><path fill="url(#d)" d="M10.5 3.997a.5.5 0 1 1 0-1 .5.5 0 0 1 0 1Zm0-2c-.828 0-1.5-.224-1.5-.5s.672-.5 1.5-.5c.829 0 1.5.224 1.5.5s-.671.5-1.5.5Z"/></g></svg>