<svg xmlns="http://www.w3.org/2000/svg" width="21" height="15"><defs><linearGradient id="a" x1="50%" x2="50%" y1="0%" y2="100%"><stop offset="0%" stop-color="#FFF"/><stop offset="100%" stop-color="#F0F0F0"/></linearGradient><linearGradient id="b" x1="50%" x2="50%" y1="0%" y2="100%"><stop offset="0%" stop-color="#E71924"/><stop offset="100%" stop-color="#D6101B"/></linearGradient><linearGradient id="c" x1="50%" x2="50%" y1="0%" y2="100%"><stop offset="0%" stop-color="#EA1824"/><stop offset="100%" stop-color="#D6101B"/></linearGradient><linearGradient id="d" x1="50%" x2="50%" y1="0%" y2="100%"><stop offset="0%" stop-color="#262626"/><stop offset="100%" stop-color="#0D0D0D"/></linearGradient><linearGradient id="e" x1="50%" x2="50%" y1="0%" y2="100%"><stop offset="0%" stop-color="#ECCE3E"/><stop offset="100%" stop-color="#D9BC2D"/></linearGradient></defs><g fill="none" fill-rule="evenodd"><path fill="url(#a)" d="M0 0h21v15H0z"/><path fill="url(#a)" d="M0 0h21v10H0z"/><path fill="url(#b)" d="M0 10h21v5H0z"/><path fill="url(#c)" d="M9 6H8V4.49A.495.495 0 0 0 7.495 4h-.99A.49.49 0 0 0 6 4.49V8L5 9h11l-1-1V4.49a.495.495 0 0 0-.505-.49h-.99a.49.49 0 0 0-.505.49V6h-1V3.49a.49.49 0 0 0-.495-.49h-2.01A.49.49 0 0 0 9 3.49V6Z"/><path fill="url(#d)" d="M7 8a.5.5 0 1 1 0-1 .5.5 0 0 1 0 1Zm0-2a.5.5 0 1 1 0-1 .5.5 0 0 1 0 1Zm3.5 2a.5.5 0 1 1 0-1 .5.5 0 0 1 0 1Zm0-3a.5.5 0 1 1 0-1 .5.5 0 0 1 0 1ZM14 8a.5.5 0 1 1 0-1 .5.5 0 0 1 0 1Zm0-2a.5.5 0 1 1 0-1 .5.5 0 0 1 0 1Z"/><path fill="url(#e)" d="M10 9.943V12H9v1h2V9.943c.583-.137 1-.508 1-.943 0-.552-.672-1-1.5-1S9 8.448 9 9c0 .435.417.806 1 .943Z"/></g></svg>