<svg width="21" height="15" xmlns="http://www.w3.org/2000/svg"><defs><linearGradient x1="50%" y1="0%" x2="50%" y2="100%" id="a"><stop stop-color="#FFF" offset="0%"/><stop stop-color="#F0F0F0" offset="100%"/></linearGradient><linearGradient x1="50%" y1="0%" x2="50%" y2="100%" id="b"><stop stop-color="#199E56" offset="0%"/><stop stop-color="#0F7A40" offset="100%"/></linearGradient><linearGradient x1="50%" y1="0%" x2="50%" y2="100%" id="c"><stop stop-color="#262626" offset="0%"/><stop stop-color="#0D0D0D" offset="100%"/></linearGradient><linearGradient x1="50%" y1="0%" x2="50%" y2="100%" id="d"><stop stop-color="#E6223A" offset="0%"/><stop stop-color="#CC162C" offset="100%"/></linearGradient></defs><g fill="none" fill-rule="evenodd"><path fill="url(#a)" d="M0 0h21v15H0z"/><path fill="url(#b)" d="M0 10h21v5H0z"/><path fill="url(#c)" d="M0 0h21v5H0z"/><path fill="url(#a)" d="M0 5h21v5H0z"/><path d="M14.786 8.97c-.3.245-.674.38-1.06.38-.954 0-1.726-.806-1.726-1.8s.772-1.8 1.726-1.8c.4 0 .767.142 1.06.38a1.666 1.666 0 0 0-.418-.053c-.866 0-1.568.66-1.568 1.473 0 .813.702 1.472 1.568 1.472.145 0 .285-.018.418-.052zm.014-.893l-.717.52.265-.855-.708-.534.88-.008.28-.85.28.85.88.008-.707.534.265.855-.718-.52z" fill="url(#d)" fill-rule="nonzero"/><path fill="url(#d)" d="M0 0l10 7.5L0 15z"/></g></svg>