<svg xmlns="http://www.w3.org/2000/svg" width="21" height="15"><defs><linearGradient id="a" x1="50%" x2="50%" y1="0%" y2="100%"><stop offset="0%" stop-color="#FFF"/><stop offset="100%" stop-color="#F0F0F0"/></linearGradient><linearGradient id="b" x1="50%" x2="50%" y1="0%" y2="100%"><stop offset="0%" stop-color="#5098EA"/><stop offset="100%" stop-color="#458BDB"/></linearGradient><linearGradient id="c" x1="50%" x2="50%" y1="0%" y2="100%"><stop offset="0%" stop-color="#E82045"/><stop offset="100%" stop-color="#D01739"/></linearGradient></defs><g fill="none" fill-rule="evenodd"><path fill="url(#a)" d="M0 0h21v15H0z"/><path fill="url(#b)" d="M0 0h21v15H0z"/><path fill="url(#a)" fill-rule="nonzero" d="M1.803 4.96a.5.5 0 0 1 0-.92l1.566-.67.671-1.567a.5.5 0 0 1 .92 0l.67 1.566 1.567.671a.5.5 0 0 1 0 .92l-1.566.67-.671 1.567a.5.5 0 0 1-.92 0l-.67-1.566-1.567-.671Z"/><path fill="url(#c)" d="M3.75 5.25 2 4.5l1.75-.75L4.5 2l.75 1.75L7 4.5l-1.75.75L4.5 7z"/><path fill="#F9D536" d="M0 11h21v1H0zM0 9h21v1H0z"/></g></svg>