<svg width="21" height="15" xmlns="http://www.w3.org/2000/svg"><defs><linearGradient x1="50%" y1="0%" x2="50%" y2="100%" id="a"><stop stop-color="#FFF" offset="0%"/><stop stop-color="#F0F0F0" offset="100%"/></linearGradient><linearGradient x1="50%" y1="0%" x2="50%" y2="100%" id="b"><stop stop-color="#30C6E0" offset="0%"/><stop stop-color="#1CB0C9" offset="100%"/></linearGradient><linearGradient x1="50%" y1="0%" x2="50%" y2="100%" id="c"><stop stop-color="#FFCD4B" offset="0%"/><stop stop-color="#FEC531" offset="100%"/></linearGradient></defs><g fill="none" fill-rule="evenodd"><path fill="url(#a)" d="M0 0h21v15H0z"/><path fill="url(#b)" d="M0 0h21v15H0z"/><circle fill="url(#c)" cx="10.5" cy="7.5" r="3"/><path d="M10.5 11.035l-1.224 1.827-.31-2.177L7.071 11.8l.665-2.096-2.191.182 1.508-1.6L5 7.5l2.053-.787-1.508-1.6 2.191.183L7.071 3.2l1.895 1.115.31-2.177L10.5 3.965l1.224-1.827.31 2.177L13.929 3.2l-.665 2.096 2.191-.182-1.508 1.6L16 7.5l-2.053.787 1.508 1.6-2.191-.183.665 2.096-1.895-1.115-.31 2.177-1.224-1.827zm0-.035a3.5 3.5 0 1 0 0-7 3.5 3.5 0 0 0 0 7zM1 1.252C1 1.113 1.107 1 1.252 1h.496c.139 0 .252.107.252.252v.496A.248.248 0 0 1 1.748 2h-.496A.249.249 0 0 1 1 1.748v-.496zm0 2C1 3.113 1.107 3 1.252 3h.496c.139 0 .252.107.252.252v.496A.248.248 0 0 1 1.748 4h-.496A.249.249 0 0 1 1 3.748v-.496zm0 2C1 5.113 1.107 5 1.252 5h.496c.139 0 .252.107.252.252v.496A.248.248 0 0 1 1.748 6h-.496A.249.249 0 0 1 1 5.748v-.496zm0 2C1 7.113 1.107 7 1.252 7h.496c.139 0 .252.107.252.252v.496A.248.248 0 0 1 1.748 8h-.496A.249.249 0 0 1 1 7.748v-.496zm0 2C1 9.113 1.107 9 1.252 9h.496c.139 0 .252.107.252.252v.496a.248.248 0 0 1-.252.252h-.496A.249.249 0 0 1 1 9.748v-.496zm0 2c0-.139.107-.252.252-.252h.496c.139 0 .252.107.252.252v.496a.248.248 0 0 1-.252.252h-.496A.249.249 0 0 1 1 11.748v-.496zm0 2c0-.139.107-.252.252-.252h.496c.139 0 .252.107.252.252v.496a.248.248 0 0 1-.252.252h-.496A.249.249 0 0 1 1 13.748v-.496zm1-1c0-.139.107-.252.252-.252h.496c.139 0 .252.107.252.252v.496a.248.248 0 0 1-.252.252h-.496A.249.249 0 0 1 2 12.748v-.496zm0-2c0-.139.107-.252.252-.252h.496c.139 0 .252.107.252.252v.496a.248.248 0 0 1-.252.252h-.496A.249.249 0 0 1 2 10.748v-.496zm0-2C2 8.113 2.107 8 2.252 8h.496c.139 0 .252.107.252.252v.496A.248.248 0 0 1 2.748 9h-.496A.249.249 0 0 1 2 8.748v-.496zm0-2C2 6.113 2.107 6 2.252 6h.496c.139 0 .252.107.252.252v.496A.248.248 0 0 1 2.748 7h-.496A.249.249 0 0 1 2 6.748v-.496zm0-2C2 4.113 2.107 4 2.252 4h.496c.139 0 .252.107.252.252v.496A.248.248 0 0 1 2.748 5h-.496A.249.249 0 0 1 2 4.748v-.496zm0-2C2 2.113 2.107 2 2.252 2h.496c.139 0 .252.107.252.252v.496A.248.248 0 0 1 2.748 3h-.496A.249.249 0 0 1 2 2.748v-.496z" fill="url(#c)"/></g></svg>