<svg xmlns="http://www.w3.org/2000/svg" width="21" height="15"><defs><linearGradient id="a" x1="50%" x2="50%" y1="0%" y2="100%"><stop offset="0%" stop-color="#FFF"/><stop offset="100%" stop-color="#F0F0F0"/></linearGradient><linearGradient id="b" x1="50%" x2="50%" y1="0%" y2="100%"><stop offset="0%" stop-color="#262626"/><stop offset="100%" stop-color="#0D0D0D"/></linearGradient><linearGradient id="c" x1="50%" x2="50%" y1="0%" y2="100%"><stop offset="0%" stop-color="#E32139"/><stop offset="100%" stop-color="#CC162C"/></linearGradient><linearGradient id="d" x1="50%" x2="50%" y1="0%" y2="100%"><stop offset="0%" stop-color="#128A49"/><stop offset="100%" stop-color="#0F7A40"/></linearGradient></defs><g fill="none" fill-rule="evenodd"><path fill="url(#a)" d="M0 0h21v15H0z"/><path fill="url(#b)" d="M0 10h21v5H0z"/><path fill="url(#c)" d="M0 0h21v5H0z"/><path fill="url(#a)" d="M0 5h21v5H0z"/><path fill="url(#d)" d="m7 8.32-1.176.798.396-1.365-1.122-.871 1.42-.045L7 5.5l.482 1.337 1.42.045-1.122.871.396 1.365zM14 8.32l-1.176.798.396-1.365-1.122-.871 1.42-.045L14 5.5l.482 1.337 1.42.045-1.122.871.396 1.365z"/></g></svg>