<svg xmlns="http://www.w3.org/2000/svg" width="21" height="15"><defs><linearGradient id="a" x1="50%" x2="50%" y1="0%" y2="100%"><stop offset="0%" stop-color="#FFF"/><stop offset="100%" stop-color="#F0F0F0"/></linearGradient><linearGradient id="b" x1="50%" x2="50%" y1="0%" y2="100%"><stop offset="0%" stop-color="#262626"/><stop offset="100%" stop-color="#0D0D0D"/></linearGradient><linearGradient id="c" x1="50%" x2="50%" y1="0%" y2="100%"><stop offset="0%" stop-color="#E22A32"/><stop offset="100%" stop-color="#D61C24"/></linearGradient><linearGradient id="d" x1="50%" x2="50%" y1="0%" y2="100%"><stop offset="0%" stop-color="#2CA244"/><stop offset="100%" stop-color="#218736"/></linearGradient><linearGradient id="e" x1="50%" x2="50%" y1="0%" y2="100%"><stop offset="0%" stop-color="#185AC6"/><stop offset="100%" stop-color="#104CAD"/></linearGradient><linearGradient id="f" x1="50%" x2="50%" y1="0%" y2="100%"><stop offset="0%" stop-color="#FDE14A"/><stop offset="100%" stop-color="#FCDC34"/></linearGradient></defs><g fill="none" fill-rule="evenodd"><path fill="url(#a)" d="M0 0h21v15H0z"/><path fill="url(#b)" d="M0 0h21v4H0z"/><path fill="url(#c)" d="M0 5h21v5H0z"/><path fill="url(#a)" d="M0 4h21v1H0z"/><path fill="url(#d)" d="M0 11h21v4H0z"/><path fill="url(#a)" d="M0 10h21v1H0z"/><path fill="url(#e)" d="m0 0 10 7.5L0 15z"/><path fill="url(#f)" d="m3.836 7.987-.683 1.28-.205-1.437-1.429-.254 1.304-.639-.2-1.437 1.01 1.042 1.306-.634-.68 1.283 1.007 1.046z"/></g></svg>