<svg xmlns="http://www.w3.org/2000/svg" width="21" height="15"><defs><linearGradient id="a" x1="50%" x2="50%" y1="0%" y2="100%"><stop offset="0%" stop-color="#FFF"/><stop offset="100%" stop-color="#F0F0F0"/></linearGradient><linearGradient id="b" x1="50%" x2="50%" y1="0%" y2="100%"><stop offset="0%" stop-color="#073AB6"/><stop offset="100%" stop-color="#002B93"/></linearGradient><linearGradient id="c" x1="50%" x2="50%" y1="0%" y2="100%"><stop offset="0%" stop-color="#F44653"/><stop offset="100%" stop-color="#EE2A39"/></linearGradient><linearGradient id="d" x1="50%" x2="50%" y1="0%" y2="100%"><stop offset="0%" stop-color="#1035BB"/><stop offset="100%" stop-color="#042396"/></linearGradient></defs><g fill="none" fill-rule="evenodd"><path fill="url(#a)" d="M0 0h21v15H0z"/><path fill="url(#b)" d="M0 0h21v15H0z"/><path fill="url(#a)" d="M0 0h9.5v7.25c0 .138-.107.25-.254.25H0V0Z"/><path fill="url(#c)" d="M6 0h3v7H6z"/><path fill="url(#d)" d="M0 0h3v7H0z"/><path fill="url(#a)" d="M3 0h3v7H3z"/><path fill="#FFF" d="M13 6h5l-.5 1H16v.5h1l-.5 1H16V10h-1V7h-1.5L13 6Zm4 2.5 1 1.5h-2l1-1.5Zm-3 0 1 1.5h-2l1-1.5Zm1.5 3-1-1.5h2l-1 1.5Zm3-3.5a.5.5 0 1 1 0-1 .5.5 0 0 1 0 1Zm-6 0a.5.5 0 1 1 0-1 .5.5 0 0 1 0 1Zm1 4a.5.5 0 1 1 0-1 .5.5 0 0 1 0 1Zm4 0a.5.5 0 1 1 0-1 .5.5 0 0 1 0 1Zm-2 1a.5.5 0 1 1 0-1 .5.5 0 0 1 0 1Z"/></g></svg>