<svg xmlns="http://www.w3.org/2000/svg" width="21" height="15"><defs><linearGradient id="a" x1="50%" x2="50%" y1="0%" y2="100%"><stop offset="0%" stop-color="#FFF"/><stop offset="100%" stop-color="#F0F0F0"/></linearGradient><linearGradient id="b" x1="50%" x2="50%" y1="0%" y2="100%"><stop offset="0%" stop-color="#E92434"/><stop offset="100%" stop-color="#E11324"/></linearGradient></defs><g fill="none" fill-rule="evenodd"><path fill="url(#a)" d="M0 0h21v15H0z"/><path fill="url(#b)" d="M0 0h21v15H0z"/><path fill="url(#a)" d="M11.858 4.273a3.5 3.5 0 1 0 0 6.453 3.25 3.25 0 0 1 0-6.453ZM10.5 12a4.5 4.5 0 1 1 0-9 4.5 4.5 0 0 1 0 9Zm1.766-3.622 1.352.505-.775-1.218.898-1.13-1.398.361-.797-1.204-.088 1.441-1.391.386 1.343.53-.063 1.442.919-1.113Z"/></g></svg>