<svg xmlns="http://www.w3.org/2000/svg" xmlns:xlink="http://www.w3.org/1999/xlink" width="21" height="15"><defs><linearGradient id="a" x1="50%" x2="50%" y1="0%" y2="100%"><stop offset="0%" stop-color="#FFF"/><stop offset="100%" stop-color="#F0F0F0"/></linearGradient><linearGradient id="b" x1="50%" x2="50%" y1="0%" y2="100%"><stop offset="0%" stop-color="#E42235"/><stop offset="100%" stop-color="#CE1225"/></linearGradient><linearGradient id="d" x1="50%" x2="50%" y1="0%" y2="100%"><stop offset="0%" stop-color="#079B77"/><stop offset="100%" stop-color="#007B5D"/></linearGradient><linearGradient id="e" x1="50%" x2="50%" y1="0%" y2="100%"><stop offset="0%" stop-color="#FFD938"/><stop offset="100%" stop-color="#FDD117"/></linearGradient><linearGradient id="g" x1="50%" x2="50%" y1="0%" y2="100%"><stop offset="0%" stop-color="#FFD93B"/><stop offset="100%" stop-color="#FDD117"/></linearGradient><linearGradient id="h" x1="50%" x2="50%" y1="0%" y2="100%"><stop offset="0%" stop-color="#E21C30"/><stop offset="100%" stop-color="#CE1225"/></linearGradient><path id="c" d="M0 0h17v11H0z"/></defs><g fill="none" fill-rule="evenodd"><path fill="url(#a)" d="M0 0h21v15H0z"/><path fill="url(#b)" d="M0 0h21v15H0z"/><g transform="translate(2 2)"><mask id="f" fill="#fff"><use xlink:href="#c"/></mask><use xlink:href="#c" fill="url(#d)"/><path fill="url(#e)" d="M1.295 5.599c.283.453.69.752 1.068.829.209.042-.173-.914-.007-1.018.142-.088.825.706.885.54.137-.38.056-.921-.25-1.411-.439-.703-.456-.239-1.643-.742.124.72-.492 1.1-.053 1.802Z" mask="url(#f)"/><path fill="url(#g)" d="M0 0h17L8.5 5.5 0 0Zm0 11 8.5-5.5L17 11H0Z" mask="url(#f)"/><circle cx="8.5" cy="5.5" r="2.5" fill="url(#h)" mask="url(#f)"/><path fill="url(#e)" d="m8.5 6.271-1.176.847.442-1.38-1.168-.856 1.449-.006L8.5 3.5l.453 1.376 1.45.006-1.17.856.443 1.38z" mask="url(#f)"/></g></g></svg>