<svg xmlns="http://www.w3.org/2000/svg" width="21" height="15"><defs><linearGradient id="a" x1="50%" x2="50%" y1="0%" y2="100%"><stop offset="0%" stop-color="#FFF"/><stop offset="100%" stop-color="#F0F0F0"/></linearGradient><linearGradient id="b" x1="50%" x2="50%" y1="0%" y2="100%"><stop offset="0%" stop-color="#E54252"/><stop offset="100%" stop-color="#C63442"/></linearGradient><linearGradient id="c" x1="50%" x2="50%" y1="0%" y2="100%"><stop offset="0%" stop-color="#5CBE6B"/><stop offset="100%" stop-color="#4EA55B"/></linearGradient></defs><g fill="none" fill-rule="evenodd"><path fill="url(#a)" d="M0 0h21v15H0z"/><path fill="url(#b)" d="M0 0h21v10H0z"/><path fill="url(#c)" d="M0 10h21v5H0z"/><path fill="url(#a)" d="M3 12.75V15H0V0h3v2.25L2.5 3l.5.75v1.5L2.5 6l.5.75v1.5L2.5 9l.5.75v1.5l-.5.75.5.75Z"/><path fill="url(#b)" d="m-1.5 3 1-1.5L.5 3l-1 1.5-1-1.5Zm0 3 1-1.5L.5 6l-1 1.5-1-1.5Zm0 3 1-1.5L.5 9l-1 1.5-1-1.5Zm0 3 1-1.5 1 1.5-1 1.5-1-1.5ZM.5 1.5l1-1.5 1 1.5-1 1.5-1-1.5Zm0 3 1-1.5 1 1.5-1 1.5-1-1.5Zm0 3 1-1.5 1 1.5-1 1.5-1-1.5Zm0 3 1-1.5 1 1.5-1 1.5-1-1.5Zm0 3 1-1.5 1 1.5-1 1.5-1-1.5Z"/></g></svg>