<svg width="21" height="15" xmlns="http://www.w3.org/2000/svg"><defs><linearGradient x1="50%" y1="0%" x2="50%" y2="100%" id="a"><stop stop-color="#FFF" offset="0%"/><stop stop-color="#F0F0F0" offset="100%"/></linearGradient><linearGradient x1="50%" y1="0%" x2="50%" y2="100%" id="b"><stop stop-color="#1EC160" offset="0%"/><stop stop-color="#169E4D" offset="100%"/></linearGradient><linearGradient x1="50%" y1="0%" x2="50%" y2="100%" id="c"><stop stop-color="#DF2A40" offset="0%"/><stop stop-color="#CC162C" offset="100%"/></linearGradient><linearGradient x1="50%" y1="16.742%" x2="50%" y2="82.422%" id="d"><stop stop-color="#FFD956" offset="0%"/><stop stop-color="#FCD036" offset="100%"/></linearGradient><linearGradient x1="50%" y1="0%" x2="50%" y2="100%" id="e"><stop stop-color="#262626" offset="0%"/><stop stop-color="#0D0D0D" offset="100%"/></linearGradient></defs><g fill="none" fill-rule="evenodd"><path fill="url(#a)" d="M0 0h21v15H0z"/><path fill="url(#b)" d="M.001 10l21-10h-21z"/><path fill="url(#c)" d="M.001 15h21V5z"/><path fill="url(#d)" d="M.59 19L25.182 3.632 20.413-4-4.18 11.368z"/><path fill="url(#e)" d="M-.47 17.304L24.122 1.936l-2.65-4.24L-3.12 13.064z"/><path fill="url(#a)" d="M15.233 5.848l-.709 1.123-.46-1.246-1.287-.327 1.043-.823-.087-1.325 1.105.738 1.234-.492-.36 1.278.848 1.022zm-8 4.85l-.709 1.123-.46-1.246-1.287-.327 1.043-.823L5.733 8.1l1.105.738 1.234-.492-.36 1.278.848 1.022z"/></g></svg>