<svg xmlns="http://www.w3.org/2000/svg" width="21" height="15"><defs><linearGradient id="a" x1="50%" x2="50%" y1="0%" y2="100%"><stop offset="0%" stop-color="#FFF"/><stop offset="100%" stop-color="#F0F0F0"/></linearGradient><linearGradient id="b" x1="50%" x2="50%" y1="0%" y2="100%"><stop offset="0%" stop-color="#0637C5"/><stop offset="100%" stop-color="#002CAA"/></linearGradient><linearGradient id="c" x1="50%" x2="50%" y1="0%" y2="100%"><stop offset="0%" stop-color="#FDD33F"/><stop offset="100%" stop-color="#FED02F"/></linearGradient></defs><g fill="none" fill-rule="evenodd"><path fill="url(#a)" d="M0 0h21v15H0z"/><path fill="url(#b)" d="M0 0h21v15H0z"/><path fill="url(#c)" d="M4 12h15v1H3l1-1Zm7.5-6c3-2 6.5-4 6.5-4s-1.643 3.073-1.5 4.5C16.69 8.407 19 11 19 11H5s3.5-3 6.5-5Z"/><path fill="#FFF" d="m4 9-.707.207L3.5 8.5l-.207-.707L4 8l.707-.207L4.5 8.5l.207.707zM5 2.5l-.707.207L4.5 2l-.207-.707L5 1.5l.707-.207L5.5 2l.207.707zM7 5.5l-.707.207L6.5 5l-.207-.707L7 4.5l.707-.207L7.5 5l.207.707zM2 5.5l-.707.207L1.5 5l-.207-.707L2 4.5l.707-.207L2.5 5l.207.707z"/></g></svg>