<svg width="21" height="15" xmlns="http://www.w3.org/2000/svg"><defs><linearGradient x1="50%" y1="0%" x2="50%" y2="100%" id="a"><stop stop-color="#FFF" offset="0%"/><stop stop-color="#F0F0F0" offset="100%"/></linearGradient><linearGradient x1="50%" y1="0%" x2="50%" y2="100%" id="b"><stop stop-color="#FDE048" offset="0%"/><stop stop-color="#FFDF32" offset="100%"/></linearGradient><linearGradient x1="50%" y1="0%" x2="50%" y2="100%" id="c"><stop stop-color="#CDCCCC" offset="0%"/><stop stop-color="#E4E4E4" offset="100%"/></linearGradient><linearGradient x1="50%" y1="0%" x2="50%" y2="100%" id="d"><stop stop-color="#CD9D25" offset="0%"/><stop stop-color="#EBB93A" offset="100%"/></linearGradient><linearGradient x1="50%" y1="0%" x2="50%" y2="100%" id="e"><stop stop-color="#F5252C" offset="0%"/><stop stop-color="#F6151C" offset="100%"/></linearGradient></defs><g fill="none" fill-rule="evenodd"><path fill="url(#a)" d="M0 0h21v15H0z"/><path fill="url(#b)" d="M0 0h21v15H0z"/><path fill="url(#a)" d="M10 0h11v15H10z"/><path d="M18.682 8.025a1.5 1.5 0 1 0-2.415-.414l-2.181 2.182-.354-.354-.353-.353-.707.707.353.353.707.708.354.353.353-.353 2.536-2.536a1.5 1.5 0 0 0 1.707-.293z" fill="url(#c)" transform="matrix(1 0 0 -1 0 16.672)"/><path d="M14.025 8.318a1.5 1.5 0 1 1 .708-.707l2.181 2.182.354-.354.353-.353.707.707-.353.353-.707.708-.354.353-.353-.353-2.536-2.536z" fill="url(#d)" transform="matrix(1 0 0 -1 0 16.672)"/><path d="M15.5 5c-.828 0-1.5-.224-1.5-.5s.672-.5 1.5-.5 1.5.224 1.5.5-.672.5-1.5.5zm0-2.5c-.414 0-.75-.112-.75-.25s.336-.25.75-.25.75.112.75.25-.336.25-.75.25zm0 1.167c-.552 0-1-.15-1-.334 0-.184.448-.333 1-.333s1 .15 1 .333c0 .184-.448.334-1 .334z" fill="url(#d)"/><path d="M13.026 10.658c.08.242.247.576.527.912.48.576 1.13.93 1.947.93.817 0 1.467-.354 1.947-.93.28-.336.447-.67.527-.912a.5.5 0 1 0-.948-.316 1.98 1.98 0 0 1-.348.588c-.301.362-.683.57-1.178.57-.495 0-.877-.208-1.178-.57a1.98 1.98 0 0 1-.348-.588.5.5 0 1 0-.948.316z" fill="url(#e)" fill-rule="nonzero"/></g></svg>