<svg xmlns="http://www.w3.org/2000/svg" xmlns:xlink="http://www.w3.org/1999/xlink" width="21" height="15"><defs><linearGradient id="a" x1="50%" x2="50%" y1="0%" y2="100%"><stop offset="0%" stop-color="#FFF"/><stop offset="100%" stop-color="#F0F0F0"/></linearGradient><linearGradient id="b" x1="50%" x2="50%" y1="0%" y2="100%"><stop offset="0%" stop-color="#E02639"/><stop offset="100%" stop-color="#CA1A2C"/></linearGradient><linearGradient id="c" x1="50%" x2="50%" y1="0%" y2="100%"><stop offset="0%" stop-color="#DC2235"/><stop offset="100%" stop-color="#CA1A2C"/></linearGradient><linearGradient id="e" x1="50%" x2="50%" y1="0%" y2="100%"><stop offset="0%" stop-color="#FFA135"/><stop offset="100%" stop-color="#FD9C2D"/></linearGradient><linearGradient id="g" x1="50%" x2="50%" y1="0%" y2="100%"><stop offset="0%" stop-color="#DF2034"/><stop offset="100%" stop-color="#CA1A2C"/></linearGradient><linearGradient id="h" x1="50%" x2="50%" y1="0%" y2="100%"><stop offset="0%" stop-color="#0B4BAD"/><stop offset="100%" stop-color="#08429A"/></linearGradient><circle id="d" cx="2.5" cy="2.5" r="2.5"/></defs><g fill="none" fill-rule="evenodd"><path fill="url(#a)" d="M0 0h21v15H0z"/><path fill="url(#b)" d="M0 0h21v4H0z"/><path fill="url(#c)" d="M0 11h21v4H0z"/><path fill="url(#a)" d="M0 4h21v7H0z"/><g transform="translate(8 5)"><mask id="f" fill="#fff"><use xlink:href="#d"/></mask><path fill="url(#e)" d="M0 0h5v2.5H0z" mask="url(#f)"/><path fill="#FFF" d="M1 1.5h3l-.5 1h-2z" mask="url(#f)"/><path fill="url(#g)" d="M2 0h1v1.495A.508.508 0 0 1 2.5 2a.495.495 0 0 1-.5-.505V0ZM1 1s.75 1.5 1.5 1.5S4 1 4 1v1c0 .552-.443 1-.999 1H1.999A.997.997 0 0 1 1 2V1Z" mask="url(#f)"/><path fill="url(#h)" d="M0 3h5v2H0z" mask="url(#f)"/><path fill="#FFF" d="M0 3.5h5V4H0z" mask="url(#f)"/></g></g></svg>