<svg xmlns="http://www.w3.org/2000/svg" xmlns:xlink="http://www.w3.org/1999/xlink" width="21" height="15"><defs><ellipse id="d" cx="1.5" cy="1" rx="1.5" ry="1"/><ellipse id="f" cx="1.5" cy="1" rx="1.5" ry="1"/><ellipse id="h" cx="1.5" cy="1" rx="1.5" ry="1"/><ellipse id="j" cx="1.5" cy=".5" rx="1.5" ry="1"/><ellipse id="k" cx="1.5" cy="1" rx="1.5" ry="1"/><linearGradient id="a" x1="50%" x2="50%" y1="0%" y2="100%"><stop offset="0%" stop-color="#FFF"/><stop offset="100%" stop-color="#F0F0F0"/></linearGradient><linearGradient id="b" x1="50%" x2="50%" y1="0%" y2="100%"><stop offset="0%" stop-color="#30C375"/><stop offset="100%" stop-color="#28AE67"/></linearGradient><linearGradient id="c" x1="50%" x2="50%" y1="0%" y2="100%"><stop offset="0%" stop-color="#DE414F"/><stop offset="100%" stop-color="#CA3745"/></linearGradient></defs><g fill="none" fill-rule="evenodd"><path fill="url(#a)" d="M0 0h21v15H0z"/><path fill="url(#b)" d="M0 0h21v15H0z"/><path fill="url(#c)" d="M3 0h3v15H3z"/><g transform="translate(3 1)"><mask id="e" fill="#fff"><use xlink:href="#d"/></mask><use xlink:href="#d" fill="#FFF"/><circle cx="1.5" cy="1" r="1" fill="#DD404F" mask="url(#e)"/><path fill="#FBAF29" d="M0 0h1.5v1H0zM1.5 1H3v1H1.5z" mask="url(#e)"/></g><g transform="translate(3 12)"><mask id="g" fill="#fff"><use xlink:href="#f"/></mask><use xlink:href="#f" fill="#FFF"/><circle cx="1.5" cy="1" r="1" fill="#DD404F" mask="url(#g)"/><path fill="#FBAF29" d="M0 0h1.5v1H0zM1.5 1H3v1H1.5z" mask="url(#g)"/></g><g transform="translate(3 7)"><mask id="i" fill="#fff"><use xlink:href="#h"/></mask><use xlink:href="#h" fill="#28AE67"/><circle cx="1.5" cy="1" r="1" fill="#DD404F" mask="url(#i)"/></g><use xlink:href="#j" fill="#28AE67" transform="translate(3 10)"/><g transform="translate(3 4)"><mask id="l" fill="#fff"><use xlink:href="#k"/></mask><use xlink:href="#k" fill="#FBAF29"/><circle cx="1.5" cy="1" r="1" fill="#DD404F" mask="url(#l)"/><path fill="#28AE67" d="M0 0h1v2H0zM2 0h1v2H2z" mask="url(#l)"/></g><path fill="url(#a)" d="M11.117 3.179a.5.5 0 1 0 .766.642.5.5 0 0 0-.766-.642ZM9.821 5.117a.5.5 0 1 0-.642.766.5.5 0 0 0 .642-.766Zm-1-1a.5.5 0 1 0-.642.766.5.5 0 0 0 .642-.766Zm2-2a.5.5 0 1 0-.642.766.5.5 0 0 0 .642-.766Zm-.5 1.5a.5.5 0 1 0-.642.766.5.5 0 0 0 .642-.766Z"/><path fill="url(#a)" d="M13.107 7.088a3.05 3.05 0 0 1-4.626-.366 3.05 3.05 0 0 0 4.26-4.26 3.05 3.05 0 0 1 .366 4.626Z"/></g></svg>