<svg xmlns="http://www.w3.org/2000/svg" width="21" height="15"><defs><linearGradient id="a" x1="50%" x2="50%" y1="0%" y2="100%"><stop offset="0%" stop-color="#FFF"/><stop offset="100%" stop-color="#F0F0F0"/></linearGradient><linearGradient id="b" x1="50%" x2="50%" y1="0%" y2="100%"><stop offset="0%" stop-color="#0B389F"/><stop offset="100%" stop-color="#052E8D"/></linearGradient><linearGradient id="c" x1="50%" x2="50%" y1="0%" y2="100%"><stop offset="0%" stop-color="#E12A43"/><stop offset="100%" stop-color="#CD1931"/></linearGradient></defs><g fill="none" fill-rule="evenodd"><path fill="url(#a)" d="M0 0h21v15H0z"/><path fill="url(#b)" d="M0 0h21v3H0zM0 6h21v3H0z"/><path fill="url(#a)" d="M0 3h21v3H0z"/><path fill="url(#b)" d="M0 12h21v3H0z"/><path fill="url(#a)" d="M0 9h21v3H0z"/><path fill="url(#c)" d="m0 0 10 7.5L0 15z"/><path fill="url(#a)" d="m3.5 8.267-1.176.851.447-1.381-1.173-.855 1.451-.003L3.5 5.5l.45 1.38 1.452.002-1.173.855.447 1.381z"/></g></svg>