<svg xmlns="http://www.w3.org/2000/svg" width="21" height="15"><defs><linearGradient id="a" x1="50%" x2="50%" y1="0%" y2="100%"><stop offset="0%" stop-color="#FFF"/><stop offset="100%" stop-color="#F0F0F0"/></linearGradient><linearGradient id="b" x1="50%" x2="50%" y1="0%" y2="100%"><stop offset="0%" stop-color="#E31F37"/><stop offset="100%" stop-color="#CC162C"/></linearGradient><linearGradient id="c" x1="50%" x2="50%" y1="0%" y2="100%"><stop offset="0%" stop-color="#083B9A"/><stop offset="100%" stop-color="#042E7D"/></linearGradient></defs><g fill="none" fill-rule="evenodd"><path fill="url(#a)" d="M0 0h21v15H0z"/><path fill="url(#b)" d="M0 0h21v15H0z"/><path fill="url(#c)" d="M0 8h11V0H0z"/><path fill="url(#a)" d="m5 7-.707.207L4.5 6.5l-.207-.707L5 6l.707-.207L5.5 6.5l.207.707L5 7Zm0-5-.707.207L4.5 1.5 4.293.793 5 1l.707-.207L5.5 1.5l.207.707L5 2ZM3 4.5l-.707.207L2.5 4l-.207-.707L3 3.5l.707-.207L3.5 4l.207.707L3 4.5ZM7.5 4l-.707.207L7 3.5l-.207-.707L7.5 3l.707-.207L8 3.5l.207.707L7.5 4ZM6.25 5.5a.25.25 0 1 1 0-.5.25.25 0 0 1 0 .5Z"/></g></svg>