<svg width="21" height="15" xmlns="http://www.w3.org/2000/svg"><defs><linearGradient x1="50%" y1="0%" x2="50%" y2="100%" id="a"><stop stop-color="#FFF" offset="0%"/><stop stop-color="#F0F0F0" offset="100%"/></linearGradient><linearGradient x1="50%" y1="0%" x2="50%" y2="100%" id="b"><stop stop-color="#E4233B" offset="0%"/><stop stop-color="#CC162C" offset="100%"/></linearGradient><linearGradient x1="50%" y1="0%" x2="50%" y2="100%" id="c"><stop stop-color="#34CD4E" offset="0%"/><stop stop-color="#2AB441" offset="100%"/></linearGradient><linearGradient x1="50%" y1="0%" x2="50%" y2="100%" id="d"><stop stop-color="#DF2239" offset="0%"/><stop stop-color="#CC162C" offset="100%"/></linearGradient></defs><g fill="none" fill-rule="evenodd"><path fill="url(#a)" d="M0 0h21v15H0z"/><path fill="url(#b)" d="M2.08 1.437h21v15h-21z" transform="translate(-2.08 -1.44)"/><path fill="url(#c)" d="M2 1.437l9 7.5-9 7.5z" transform="translate(-2.08 -1.44)"/><path fill="url(#c)" transform="matrix(-1 0 0 1 35.08 -1.44)" d="M14.08 1.437l9 7.5-9 7.5z"/><path d="M10.359 6.233L1.119 0 0 1.658 9.24 7.89a3.499 3.499 0 0 0 0 2.094L0 16.217l1.118 1.658 9.24-6.233a3.486 3.486 0 0 0 2.222.795c.844 0 1.617-.298 2.222-.795l9.24 6.233 1.118-1.658-9.24-6.233a3.499 3.499 0 0 0 0-2.094l9.24-6.232L24.042 0l-9.24 6.233a3.486 3.486 0 0 0-2.222-.796c-.843 0-1.617.299-2.221.796z" fill="url(#a)" transform="translate(-2.08 -1.44)"/><path d="M12.58 7.937l-.707.207.207-.707-.207-.707.707.207.707-.207-.207.707.207.707-.707-.207zm-1.5 2.5l-.707.207.207-.707-.207-.707.707.207.707-.207-.207.707.207.707-.707-.207zm3 0l-.707.207.207-.707-.207-.707.707.207.707-.207-.207.707.207.707-.707-.207z" fill="url(#d)" transform="translate(-2.08 -1.44)"/></g></svg>