<svg xmlns="http://www.w3.org/2000/svg" width="21" height="15"><defs><linearGradient id="a" x1="50%" x2="50%" y1="0%" y2="100%"><stop offset="0%" stop-color="#FFF"/><stop offset="100%" stop-color="#F0F0F0"/></linearGradient><linearGradient id="b" x1="50%" x2="50%" y1="0%" y2="100%"><stop offset="0%" stop-color="#158AFF"/><stop offset="100%" stop-color="#007FFF"/></linearGradient><linearGradient id="c" x1="50%" x2="50%" y1="0%" y2="100%"><stop offset="0%" stop-color="#CE1120"/><stop offset="100%" stop-color="#E11B2B"/></linearGradient></defs><g fill="none" fill-rule="evenodd"><path fill="url(#a)" d="M0 0h21v15H0z"/><path fill="url(#b)" d="M4.294 1.443h21v15h-21z" transform="translate(-4.29 -1.44)"/><path fill="#FDD216" d="m24.273 3.906-25.84 13.166-2.723-5.346L21.55-1.44z"/><path fill="url(#c)" d="M.057 7.074h29v4h-29z" transform="rotate(153 12.585 7.839)"/><path fill="#FDD216" d="m3.504 4.478-1.47 1.047.542-1.721-1.45-1.074 1.805-.016.573-1.711.573 1.71 1.804.017-1.45 1.074.542 1.721z"/></g></svg>