<svg xmlns="http://www.w3.org/2000/svg" width="21" height="15"><defs><linearGradient id="a" x1="50%" x2="50%" y1="0%" y2="100%"><stop offset="0%" stop-color="#FFF"/><stop offset="100%" stop-color="#F0F0F0"/></linearGradient><linearGradient id="b" x1="50%" x2="50%" y1="0%" y2="100%"><stop offset="0%" stop-color="#0E4DC5"/><stop offset="100%" stop-color="#073DA6"/></linearGradient><linearGradient id="c" x1="50%" x2="50%" y1="0%" y2="100%"><stop offset="0%" stop-color="#FED443"/><stop offset="100%" stop-color="#FCD036"/></linearGradient></defs><g fill="none" fill-rule="evenodd"><path fill="url(#a)" d="M0 0h21v15H0z"/><path fill="url(#b)" d="M0 0h21v15H0z"/><path fill="url(#a)" d="M10 0h11v2H10V0Zm0 4h11v2H10V4Zm0 4h11v2H10V8ZM0 12h21v2H0v-2ZM0 0h10v10H0V0Z"/><path fill="url(#c)" d="m5 6.991-.668.996L4.163 6.8l-1.033.608.362-1.143-1.195.1.823-.873L2 5.062l1.12-.428-.823-.873 1.195.1-.362-1.144 1.033.608.17-1.187.667.996.668-.996.169 1.187 1.033-.608-.362 1.143 1.195-.099-.823.873L8 5.063l-1.12.429.823.872-1.195-.099.362 1.143L5.837 6.8l-.17 1.187L5 6.991Zm0-.02a1.91 1.91 0 1 0 0-3.817 1.91 1.91 0 0 0 0 3.818ZM5 6.5a1.5 1.5 0 1 1 0-3 1.5 1.5 0 0 1 0 3Z"/><path fill="#C6A326" fill-rule="nonzero" d="M4.125 5a.125.125 0 0 1 .25 0A.622.622 0 0 0 5 5.625c.243 0 .46-.14.564-.355l.038-.07.014-.023c.048-.08.062-.119.062-.177a.125.125 0 0 1 .25 0 .534.534 0 0 1-.097.304l-.013.022-.028.052A.875.875 0 0 1 4.125 5ZM5.5 4.75a.25.25 0 1 1 0-.5.25.25 0 0 1 0 .5Zm-1 0a.25.25 0 1 1 0-.5.25.25 0 0 1 0 .5Z"/></g></svg>