<svg width="21" height="15" xmlns="http://www.w3.org/2000/svg"><defs><linearGradient x1="50%" y1="0%" x2="50%" y2="100%" id="a"><stop stop-color="#FFF" offset="0%"/><stop stop-color="#F0F0F0" offset="100%"/></linearGradient><linearGradient x1="50%" y1="0%" x2="50%" y2="100%" id="b"><stop stop-color="#E6BE53" offset="0%"/><stop stop-color="#D3AD46" offset="100%"/></linearGradient><linearGradient x1="50%" y1="0%" x2="50%" y2="100%" id="c"><stop stop-color="#E01826" offset="0%"/><stop stop-color="#C30A17" offset="100%"/></linearGradient></defs><g fill="none" fill-rule="evenodd"><path fill="url(#a)" d="M0 0h21v15H0z"/><path fill="url(#b)" d="M0 0h21v15H0z"/><rect fill="url(#c)" x="1" y="1" width="19" height="13" rx=".75"/><path d="M10.147 5.147a.5.5 0 0 0 .706 0l-.206.206L11.65 4.35a.729.729 0 0 1 .803-.123l.094.046c.25.126.295.385.1.58l.206-.206L11.85 5.65a.729.729 0 0 0-.123.803l.046.094c.126.25.227.68.227.953V7c0 .276.193.404.453.273l.094-.046c.25-.126.295-.385.1-.58l.206.206a.499.499 0 0 1 0-.706l-.206.206a3.64 3.64 0 0 0 .58-.806l.046-.094c.126-.25.28-.667.348-.937l.258-1.032c.067-.267.26-.3.425-.08l.892 1.191c.168.224.304.619.304.91v.99c0 .279-.096.698-.227.958l-.046.094a3.69 3.69 0 0 1-.577.803l-.3.3a3.62 3.62 0 0 1-.803.577l-.094.046c-.25.126-.685.227-.953.227-.276 0-.307.096-.047.227l.094.046c.25.126.611.385.806.58l-.206-.206a.5.5 0 0 0 .706 0l-.206.206a.499.499 0 0 1 .706 0l-.206-.206a.732.732 0 0 1 .126.806l-.046.094c-.126.25-.459.453-.727.453a2.48 2.48 0 0 1-.953-.227l-.094-.046a1.74 1.74 0 0 1-.68-.68l-.046-.094c-.126-.25-.385-.295-.58-.1l.206-.206a.63.63 0 0 0-.08.763l.454.68c.15.226.09.533-.137.683l-.68.454a.8.8 0 0 1-.82 0l-.68-.454a.493.493 0 0 1-.137-.683l.454-.68a.63.63 0 0 0-.08-.763l.206.206c-.195-.195-.45-.16-.58.1l-.046.094c-.126.25-.42.55-.68.68l-.094.046c-.25.126-.685.227-.953.227a.876.876 0 0 1-.727-.453l-.046-.094a.744.744 0 0 1 .126-.806l-.206.206a.499.499 0 0 1 .706 0l-.206-.206a.5.5 0 0 0 .706 0l-.206.206a3.64 3.64 0 0 1 .806-.58l.094-.046c.25-.126.221-.227-.047-.227a2.48 2.48 0 0 1-.953-.227l-.094-.046a3.69 3.69 0 0 1-.803-.577l-.3-.3a3.62 3.62 0 0 1-.577-.803l-.046-.094a2.488 2.488 0 0 1-.227-.958v-.99c0-.279.138-.69.304-.91l.892-1.19c.168-.224.358-.191.425.08l.258 1.03a5.4 5.4 0 0 0 .348.938l.046.094c.126.25.385.611.58.806l-.206-.206a.499.499 0 0 1 0 .706l.206-.206c-.195.195-.16.45.1.58l.094.046C8.797 7.4 9 7.273 9 7v.5c0-.276.096-.693.227-.953l.046-.094a.74.74 0 0 0-.123-.803L8.147 4.647l.206.206c-.195-.195-.16-.45.1-.58l.094-.046a.74.74 0 0 1 .803.123l1.003 1.003-.206-.206zM9.35 3.35c-.193-.193-.141-.42.125-.508l.55-.184c.263-.087.684-.088.95 0l.55.184c.263.087.319.314.125.508l-.3.3a1.4 1.4 0 0 1-.85.35c-.276 0-.656-.156-.85-.35l-.3-.3z" fill="url(#b)"/><path d="M9.5 9.006c0 .273.076.285.185.02C9.685 9.025 10 8 10.5 8c.5 0 .823 1.042.823 1.042.098.253.177.236.177-.047V8.5c0-.828-.448-1.5-1-1.5s-1 .672-1 1.5v.506z" fill="#215F90"/></g></svg>