<svg xmlns="http://www.w3.org/2000/svg" xmlns:xlink="http://www.w3.org/1999/xlink" width="21" height="15"><defs><linearGradient id="a" x1="50%" x2="50%" y1="0%" y2="100%"><stop offset="0%" stop-color="#FFF"/><stop offset="100%" stop-color="#F0F0F0"/></linearGradient><linearGradient id="c" x1="50%" x2="50%" y1="0%" y2="100%"><stop offset="0%" stop-color="#216CD3"/><stop offset="100%" stop-color="#1557B2"/></linearGradient><linearGradient id="d" x1="50%" x2="50%" y1="0%" y2="100%"><stop offset="0%" stop-color="#F7E14B"/><stop offset="100%" stop-color="#F7DF3E"/></linearGradient><linearGradient id="f" x1="50%" x2="50%" y1="0%" y2="100%"><stop offset="0%" stop-color="#E12539"/><stop offset="100%" stop-color="#CA192C"/></linearGradient><path id="b" d="M.5 0h7v4.491c0 .557-.336 1.297-.76 1.66L5.147 7.518c-.633.542-1.662.54-2.292 0L1.259 6.15C.84 5.791.5 5.05.5 4.491V0Z"/></defs><g fill="none" fill-rule="evenodd"><path fill="url(#a)" d="M0 0h21v15H0z"/><g transform="translate(6.5 5)"><mask id="e" fill="#fff"><use xlink:href="#b"/></mask><use xlink:href="#b" fill="url(#c)"/><path fill="url(#d)" d="M2 2a.5.5 0 1 1 0-1 .5.5 0 0 1 0 1Zm2 0a.5.5 0 1 1 0-1 .5.5 0 0 1 0 1Zm2 0a.5.5 0 1 1 0-1 .5.5 0 0 1 0 1ZM2.5 6.5a.5.5 0 1 1 0-1 .5.5 0 0 1 0 1ZM4 7a.5.5 0 1 1 0-1 .5.5 0 0 1 0 1Zm1.5-.5a.5.5 0 1 1 0-1 .5.5 0 0 1 0 1Z" mask="url(#e)"/><path fill="url(#f)" d="M.5 3h7v2h-7z" mask="url(#e)"/><circle cx="4" cy="4" r="1" fill="#FFF" mask="url(#e)"/></g><path fill="url(#d)" d="M6.5 3.5s2-.5 4-.5 4 .5 4 .5l-.5 2S12.25 5 10.5 5 7 5.5 7 5.5l-.5-2Z"/><path fill="#5E5216" d="M10.5 4.5a.5.5 0 1 1 0-1 .5.5 0 0 1 0 1Zm2 0a.5.5 0 1 1 0-1 .5.5 0 0 1 0 1Zm-4 0a.5.5 0 1 1 0-1 .5.5 0 0 1 0 1Z"/></g></svg>