<svg xmlns="http://www.w3.org/2000/svg" xmlns:xlink="http://www.w3.org/1999/xlink" width="21" height="15"><defs><linearGradient id="a" x1="50%" x2="50%" y1="0%" y2="100%"><stop offset="0%" stop-color="#FFF"/><stop offset="100%" stop-color="#F0F0F0"/></linearGradient><linearGradient id="b" x1="50%" x2="50%" y1="0%" y2="100%"><stop offset="0%" stop-color="#17508F"/><stop offset="100%" stop-color="#114175"/></linearGradient><linearGradient id="c" x1="50%" x2="50%" y1="0%" y2="100%"><stop offset="0%" stop-color="#E1444D"/><stop offset="100%" stop-color="#C53840"/></linearGradient><path id="d" d="M.5 2.5C.5 1.826.874.485.874.485A.672.672 0 0 1 1.495 0h2.01c.273 0 .552.214.621.481 0 0 .374 1.33.374 2.019 0 .645-.376 2.02-.376 2.02-.069.265-.269.654-.457.852 0 0-.417.628-1.167.628s-1.167-.628-1.167-.628a2.428 2.428 0 0 1-.46-.86S.5 3.162.5 2.5Z"/></defs><g fill="none" fill-rule="evenodd"><path fill="url(#a)" d="M0 0h21v15H0z"/><path fill="url(#b)" d="M0 5h21v5H0z"/><path fill="url(#c)" d="M0 0h21v5H0z"/><path fill="url(#a)" d="M0 10h21v5H0z"/><g transform="translate(4 5)"><mask id="e" fill="#fff"><use xlink:href="#d"/></mask><use xlink:href="#d" fill="url(#a)"/><path fill="#C43840" fill-rule="nonzero" d="M4.422-.203-.203 5.578l.781.625L5.203.422z" mask="url(#e)"/><path fill="#C43840" fill-rule="nonzero" d="m-.203.422 4.625 5.78.78-.624L.579-.202z" mask="url(#e)"/></g><ellipse cx="6.5" cy="7.5" fill="#FFF" rx="1" ry="1.5"/><path fill="#D1A43A" d="m5 4-.5-1 1 .5 1-.5 1 .5 1-.5L8 4v.5c0 .276-.216.5-.495.5h-2.01A.503.503 0 0 1 5 4.5V4Z"/></g></svg>