<svg xmlns="http://www.w3.org/2000/svg" xmlns:xlink="http://www.w3.org/1999/xlink" width="21" height="15"><defs><linearGradient id="a" x1="50%" x2="50%" y1="0%" y2="100%"><stop offset="0%" stop-color="#FFF"/><stop offset="100%" stop-color="#F0F0F0"/></linearGradient><linearGradient id="b" x1="50%" x2="50%" y1="0%" y2="100%"><stop offset="0%" stop-color="#79CFF6"/><stop offset="100%" stop-color="#68BFE6"/></linearGradient><linearGradient id="c" x1="50%" x2="50%" y1="0%" y2="100%"><stop offset="0%" stop-color="#042C90"/><stop offset="100%" stop-color="#00247E"/></linearGradient><linearGradient id="f" x1="50%" x2="50%" y1="0%" y2="100%"><stop offset="0%" stop-color="#EB1D43"/><stop offset="100%" stop-color="#D21034"/></linearGradient><linearGradient id="g" x1="50%" x2="50%" y1="0%" y2="100%"><stop offset="0%" stop-color="#DB1E36"/><stop offset="100%" stop-color="#D51931"/></linearGradient><path id="d" d="M0 3.5V0h5v3.5C5 6 2.5 7 2.5 7S0 6 0 3.5Z"/><path id="h" d="M3.5 3 0 0h.5L4 2.5h1L9 0v.25a.537.537 0 0 1-.208.399L5.5 3v1l3.312 2.839c.104.089.072.161-.062.161a.898.898 0 0 1-.458-.149L5 4.5H4L0 7v-.5L3.5 4V3Z"/></defs><g fill="none" fill-rule="evenodd"><path fill="url(#a)" d="M0 0h21v15H0z"/><path fill="url(#b)" d="M0 0h21v15H0z"/><path fill="url(#c)" d="M0 0h9v7H0z"/><g transform="translate(13 4)"><mask id="e" fill="#fff"><use xlink:href="#d"/></mask><use xlink:href="#d" fill="url(#a)"/><path fill="#2A915C" d="M1 2.5a.5.5 0 1 1 0-1 .5.5 0 0 1 0 1Zm3 0a.5.5 0 1 1 0-1 .5.5 0 0 1 0 1Z" mask="url(#e)"/><path fill="url(#f)" d="M0 0h5v1H3v2h2v1H3v3H2V4H0V3h2V1H0z" mask="url(#e)"/></g><use xlink:href="#h" fill="url(#g)"/><path stroke="#FFF" stroke-width=".5" d="M3.25 3.115-.676-.25H.5l.145.047L4.08 2.25h.848L9.25-.451V.25c0 .222-.128.47-.313.602L5.75 3.13v.756l3.225 2.764c.282.242.138.601-.225.601-.193 0-.442-.08-.604-.195L4.92 4.75h-.848L-.25 7.451v-1.08l3.5-2.5v-.756Z"/><path fill="url(#a)" d="M0 2.5v2h3.5v2.505c0 .273.214.495.505.495h.99a.496.496 0 0 0 .505-.495V4.5h3.51a.49.49 0 0 0 .49-.505v-.99a.495.495 0 0 0-.49-.505H5.5V0h-2v2.5H0Z"/><path fill="url(#g)" d="M0 3h4V0h1v3h4v1H5v3H4V4H0z"/></g></svg>