<svg xmlns="http://www.w3.org/2000/svg" width="21" height="15"><defs><linearGradient id="a" x1="50%" x2="50%" y1="0%" y2="100%"><stop offset="0%" stop-color="#FFF"/><stop offset="100%" stop-color="#F0F0F0"/></linearGradient><linearGradient id="b" x1="50%" x2="50%" y1="0%" y2="100%"><stop offset="0%" stop-color="#FFD44D"/><stop offset="100%" stop-color="#FFCD2F"/></linearGradient><linearGradient id="c" x1="50%" x2="50%" y1="0%" y2="100%"><stop offset="0%" stop-color="#159A74"/><stop offset="100%" stop-color="#0C6A4F"/></linearGradient><linearGradient id="d" x1="50%" x2="50%" y1="0%" y2="100%"><stop offset="0%" stop-color="#ED1F45"/><stop offset="100%" stop-color="#D01739"/></linearGradient></defs><g fill="none" fill-rule="evenodd"><path fill="url(#a)" d="M0 0h21v15H0z"/><path fill="url(#b)" d="M0 0h21v15H0z"/><path fill="url(#c)" d="M9 0h12v3H9V0Zm0 6h12v3H9V6Zm-9 6h21v3H0v-3Z"/><path fill="url(#d)" d="M0 0h9v9H0z"/><path fill="url(#a)" d="M4.5 5.67 2.737 6.927l.65-2.065-1.74-1.29 2.165-.019L4.5 1.5l.688 2.053 2.165.02-1.74 1.289.65 2.065z"/></g></svg>