<svg xmlns="http://www.w3.org/2000/svg" width="21" height="15"><defs><linearGradient id="a" x1="50%" x2="50%" y1="0%" y2="100%"><stop offset="0%" stop-color="#FFF"/><stop offset="100%" stop-color="#F0F0F0"/></linearGradient><linearGradient id="b" x1="50%" x2="50%" y1="0%" y2="100%"><stop offset="0%" stop-color="#108B4D"/><stop offset="100%" stop-color="#0A6135"/></linearGradient><linearGradient id="c" x1="50%" x2="50%" y1="0%" y2="100%"><stop offset="0%" stop-color="#FFC941"/><stop offset="100%" stop-color="#FFC42E"/></linearGradient></defs><g fill="none" fill-rule="evenodd"><path fill="url(#a)" d="M0 0h21v15H0z"/><path fill="url(#b)" d="M0 0h21v15H0z"/><path fill="url(#c)" d="M14.86 5.8a4.5 4.5 0 1 1-8.89 0 4.501 4.501 0 0 0 8.89 0Zm-4.36.623-1.236.881.456-1.448-1.22-.903 1.518-.014L10.5 3.5l.482 1.44 1.518.013-1.22.903.456 1.448-1.236-.88Z"/></g></svg>