<svg xmlns="http://www.w3.org/2000/svg" width="21" height="15"><defs><linearGradient id="a" x1="50%" x2="50%" y1="0%" y2="100%"><stop offset="0%" stop-color="#FFF"/><stop offset="100%" stop-color="#F0F0F0"/></linearGradient><linearGradient id="b" x1="50%" x2="50%" y1="0%" y2="100%"><stop offset="0%" stop-color="#F33349"/><stop offset="100%" stop-color="#E51D34"/></linearGradient><linearGradient id="c" x1="50%" x2="50%" y1="0%" y2="100%"><stop offset="0%" stop-color="#FCE24C"/><stop offset="100%" stop-color="#F9DC38"/></linearGradient></defs><g fill="none" fill-rule="evenodd"><path fill="url(#a)" d="M0 0h21v15H0z"/><path fill="url(#b)" d="M9 6H0v3h9v6h3V9h9V6h-9V0H9v6Z"/><path fill="url(#c)" d="M10 8v4l-.5 1h2l-.5-1V8h4l1 .5v-2L15 7h-4V3l.5-1h-2l.5 1v4H6l-1-.5v2L6 8h4Z"/></g></svg>