<svg width="21" height="15" xmlns="http://www.w3.org/2000/svg" xmlns:xlink="http://www.w3.org/1999/xlink"><defs><linearGradient x1="50%" y1="0%" x2="50%" y2="100%" id="a"><stop stop-color="#FFF" offset="0%"/><stop stop-color="#F0F0F0" offset="100%"/></linearGradient><linearGradient x1="50%" y1="0%" x2="50%" y2="100%" id="d"><stop stop-color="#0C4799" offset="0%"/><stop stop-color="#05387E" offset="100%"/></linearGradient><path id="c" d="M3.121 12.304l21-10h-21z"/><filter x="-3.6%" y="-7.5%" width="107.1%" height="115%" filterUnits="objectBoundingBox" id="b"><feMorphology radius=".25" operator="dilate" in="SourceAlpha" result="shadowSpreadOuter1"/><feOffset in="shadowSpreadOuter1" result="shadowOffsetOuter1"/><feColorMatrix values="0 0 0 0 0 0 0 0 0 0 0 0 0 0 0 0 0 0 0.06 0" in="shadowOffsetOuter1"/></filter><linearGradient x1="50%" y1="0%" x2="50%" y2="100%" id="g"><stop stop-color="#FFD243" offset="0%"/><stop stop-color="#FFCD2F" offset="100%"/></linearGradient><path id="f" d="M6.621 6.804l-.765.848.058-1.14-1.14.057.847-.765-.847-.765 1.14.058-.058-1.14.765.847.766-.848-.058 1.14 1.14-.057-.848.765.848.765-1.14-.058.058 1.14z"/><filter x="-6.2%" y="-6.2%" width="112.5%" height="125%" filterUnits="objectBoundingBox" id="e"><feOffset dy=".5" in="SourceAlpha" result="shadowOffsetOuter1"/><feColorMatrix values="0 0 0 0 0 0 0 0 0 0 0 0 0 0 0 0 0 0 0.06 0" in="shadowOffsetOuter1"/></filter><linearGradient x1="50%" y1="0%" x2="50%" y2="100%" id="j"><stop stop-color="#1BAC55" offset="0%"/><stop stop-color="#149447" offset="100%"/></linearGradient><path id="i" d="M3.121 17.304h21v-10z"/><filter x="-3.6%" y="-7.5%" width="107.1%" height="115%" filterUnits="objectBoundingBox" id="h"><feMorphology radius=".25" operator="dilate" in="SourceAlpha" result="shadowSpreadOuter1"/><feOffset in="shadowSpreadOuter1" result="shadowOffsetOuter1"/><feColorMatrix values="0 0 0 0 0 0 0 0 0 0 0 0 0 0 0 0 0 0 0.06 0" in="shadowOffsetOuter1"/></filter><path id="l" d="M5.433 19.304L25.75 6.609 21.81.304 1.493 12.999z"/><filter x="-3.1%" y="-3.9%" width="106.2%" height="107.9%" filterUnits="objectBoundingBox" id="k"><feMorphology radius=".25" operator="dilate" in="SourceAlpha" result="shadowSpreadOuter1"/><feOffset in="shadowSpreadOuter1" result="shadowOffsetOuter1"/><feColorMatrix values="0 0 0 0 0 0 0 0 0 0 0 0 0 0 0 0 0 0 0.06 0" in="shadowOffsetOuter1"/></filter><linearGradient x1="50%" y1="0%" x2="50%" y2="100%" id="m"><stop stop-color="#E52347" offset="0%"/><stop stop-color="#D01739" offset="100%"/></linearGradient></defs><g fill="none" fill-rule="evenodd"><path fill="url(#a)" d="M0 0h21v15H0z"/><g transform="translate(-3.12 -2.3)"><use fill="#000" filter="url(#b)" xlink:href="#c"/><use fill="url(#d)" xlink:href="#c"/></g><g transform="translate(-3.12 -2.3)"><use fill="#000" filter="url(#e)" xlink:href="#f"/><use fill="url(#g)" xlink:href="#f"/></g><g transform="translate(-3.12 -2.3)"><use fill="#000" filter="url(#h)" xlink:href="#i"/><use fill="url(#j)" xlink:href="#i"/></g><g transform="translate(-3.12 -2.3)"><use fill="#000" filter="url(#k)" xlink:href="#l"/><use fill="url(#a)" xlink:href="#l"/></g><path fill="url(#m)" d="M2.65 19.608L27.243 4.24 24.593 0 0 15.368z" transform="translate(-3.12 -2.3)"/></g></svg>