<svg width="21" height="15" xmlns="http://www.w3.org/2000/svg"><defs><linearGradient x1="50%" y1="0%" x2="50%" y2="100%" id="a"><stop stop-color="#FFF" offset="0%"/><stop stop-color="#F0F0F0" offset="100%"/></linearGradient><linearGradient x1="50%" y1="0%" x2="50%" y2="100%" id="b"><stop stop-color="#262626" offset="0%"/><stop stop-color="#0D0D0D" offset="100%"/></linearGradient><linearGradient x1="50%" y1="0%" x2="50%" y2="100%" id="c"><stop stop-color="#E32139" offset="0%"/><stop stop-color="#CC162C" offset="100%"/></linearGradient><linearGradient x1="50%" y1="0%" x2="50%" y2="100%" id="d"><stop stop-color="#128A49" offset="0%"/><stop stop-color="#0F7A40" offset="100%"/></linearGradient></defs><g fill="none" fill-rule="evenodd"><path fill="url(#a)" d="M0 0h21v15H0z"/><path fill="url(#b)" d="M0 10h21v5H0z"/><path fill="url(#c)" d="M0 0h21v5H0z"/><path fill="url(#a)" d="M0 5h21v5H0z"/><path fill="url(#d)" d="M7 8.32l-1.176.798.396-1.365-1.122-.871 1.42-.045L7 5.5l.482 1.337 1.42.045-1.122.871.396 1.365zm7 0l-1.176.798.396-1.365-1.122-.871 1.42-.045L14 5.5l.482 1.337 1.42.045-1.122.871.396 1.365z"/></g></svg>