<svg width="21" height="15" xmlns="http://www.w3.org/2000/svg"><defs><linearGradient x1="50%" y1="0%" x2="50%" y2="100%" id="a"><stop stop-color="#FFF" offset="0%"/><stop stop-color="#F0F0F0" offset="100%"/></linearGradient><linearGradient x1="50%" y1="0%" x2="50%" y2="100%" id="b"><stop stop-color="#0748AE" offset="0%"/><stop stop-color="#003993" offset="100%"/></linearGradient><linearGradient x1="50%" y1="0%" x2="50%" y2="100%" id="c"><stop stop-color="#DE2035" offset="0%"/><stop stop-color="#CE1126" offset="100%"/></linearGradient><linearGradient x1="50%" y1="0%" x2="50%" y2="100%" id="d"><stop stop-color="#FFD935" offset="0%"/><stop stop-color="#FDD216" offset="100%"/></linearGradient><linearGradient x1="50%" y1="0%" x2="50%" y2="100%" id="e"><stop stop-color="#FBDC44" offset="0%"/><stop stop-color="#FFDC32" offset="100%"/></linearGradient></defs><g fill="none" fill-rule="evenodd"><path fill="url(#a)" d="M0 0h21v15H0z"/><path fill="url(#b)" d="M0 7h21v4H0z"/><path fill="url(#c)" d="M0 11h21v4H0z"/><path fill="url(#d)" d="M0 0h21v7H0z"/><path d="M9.3 6a2 2 0 1 0 2.4 0L11 8.1h-1L9.3 6z" fill="url(#e)"/><path fill="#5FC0DC" d="M10.5 5.5L11 8h-1z"/><path d="M9.677 3.823a.25.25 0 0 0-.256-.06l-1.5.5a.25.25 0 1 0 .158.474l1.353-.451.891.89a.25.25 0 0 0 .354 0l.89-.89 1.354.451a.25.25 0 1 0 .158-.474l-1.5-.5a.25.25 0 0 0-.256.06l-.823.823-.823-.823z" fill="#3F2821" fill-rule="nonzero" opacity=".66"/></g></svg>