<svg xmlns="http://www.w3.org/2000/svg" width="21" height="15"><defs><linearGradient id="a" x1="50%" x2="50%" y1="0%" y2="100%"><stop offset="0%" stop-color="#FFF"/><stop offset="100%" stop-color="#F0F0F0"/></linearGradient><linearGradient id="b" x1="50%" x2="50%" y1="0%" y2="100%"><stop offset="0%" stop-color="#0F3EB6"/><stop offset="100%" stop-color="#09339F"/></linearGradient><linearGradient id="c" x1="50%" x2="50%" y1="0%" y2="100%"><stop offset="0%" stop-color="#ED1A3C"/><stop offset="100%" stop-color="#DE0B2D"/></linearGradient></defs><g fill="none" fill-rule="evenodd"><path fill="url(#a)" d="M0 0h21v15H0z"/><path fill="url(#b)" d="M0 0h21v4H0zM0 11h21v4H0z"/><path fill="url(#c)" d="M0 4h21v7H0z"/><path fill="url(#a)" d="M7.5 8h1v2h-2l1-2ZM9 8h3v2H9V8Zm3.5 0h1l1 2h-2V8Zm0-1.492A.51.51 0 0 1 13 6a.5.5 0 0 1 .5.508V7.5h-1v-.992ZM9 6.545h1v-.547c0-.275.232-.498.5-.498.276 0 .5.222.5.498v.547h1V7.5H9v-.955Zm-1.5-.037A.51.51 0 0 1 8 6a.5.5 0 0 1 .5.508V7.5h-1v-.992Z"/></g></svg>