<svg xmlns="http://www.w3.org/2000/svg" width="21" height="15"><defs><linearGradient id="a" x1="50%" x2="50%" y1="0%" y2="100%"><stop offset="0%" stop-color="#FFF"/><stop offset="100%" stop-color="#F0F0F0"/></linearGradient><linearGradient id="b" x1="50%" x2="50%" y1="0%" y2="100%"><stop offset="0%" stop-color="#083D7A"/><stop offset="100%" stop-color="#032F61"/></linearGradient><linearGradient id="c" x1="50%" x2="50%" y1="0%" y2="100%"><stop offset="0%" stop-color="#DF1E35"/><stop offset="100%" stop-color="#CC162C"/></linearGradient></defs><g fill="none" fill-rule="evenodd"><path fill="url(#a)" d="M0 0h21v15H0z"/><path fill="url(#b)" d="M0 0h9v6H0zM12 9h9v6h-9z"/><path fill="url(#c)" d="M0 9h9v6H0zM12 0h9v6h-9z"/><path fill="url(#a)" d="M9 6H0v3h9v6h3V9h9V6h-9V0H9v6Z"/><path fill="#C93127" fill-opacity=".2" d="M9.44 6.44a1.5 1.5 0 0 0 2.12 2.12 1.5 1.5 0 0 0 0-2.12"/><circle cx="10.5" cy="7.5" r="1" fill="#042F60"/><path fill="#0F6D1A" fill-rule="nonzero" d="M11.56 8.56a1.5 1.5 0 0 1-2.12-2.12l.353.353a1 1 0 1 0 1.414 0l.354-.354a1.5 1.5 0 0 1 0 2.122Zm0 0a1.5 1.5 0 0 1-2.12-2.12l.353.353a1 1 0 1 0 1.414 0l.354-.354a1.5 1.5 0 0 1 0 2.122Z"/></g></svg>