<svg xmlns="http://www.w3.org/2000/svg" width="21" height="15"><defs><linearGradient id="a" x1="50%" x2="50%" y1="0%" y2="100%"><stop offset="0%" stop-color="#FFF"/><stop offset="100%" stop-color="#F0F0F0"/></linearGradient><linearGradient id="b" x1="50%" x2="50%" y1="0%" y2="100%"><stop offset="0%" stop-color="#1DBE4F"/><stop offset="100%" stop-color="#159B3F"/></linearGradient><linearGradient id="c" x1="50%" x2="50%" y1="0%" y2="100%"><stop offset="0%" stop-color="#0858B4"/><stop offset="100%" stop-color="#013F87"/></linearGradient><linearGradient id="d" x1="50%" x2="50%" y1="0%" y2="100%"><stop offset="0%" stop-color="#ED3535"/><stop offset="100%" stop-color="#D62828"/></linearGradient><linearGradient id="e" x1="50%" x2="50%" y1="0%" y2="100%"><stop offset="0%" stop-color="#08964F"/><stop offset="100%" stop-color="#017B3E"/></linearGradient><linearGradient id="f" x1="50%" x2="50%" y1="0%" y2="100%"><stop offset="0%" stop-color="#FFDD67"/><stop offset="100%" stop-color="#FDD856"/></linearGradient></defs><g fill="none" fill-rule="evenodd"><path fill="url(#a)" d="M0 0h21v15H0z"/><path fill="url(#b)" d="M0 0h21v15H0z"/><path fill="url(#c)" d="M0 0h7L0 15z"/><path fill="url(#d)" d="M14 0h7v5L0 15z"/><path fill="url(#e)" d="M21 15v-5L0 15z"/><path fill="url(#f)" d="M7 0h7L0 15z"/><path fill="url(#a)" d="M21 10V5L0 15z"/></g></svg>