<svg xmlns="http://www.w3.org/2000/svg" width="21" height="15"><defs><linearGradient id="a" x1="50%" x2="50%" y1="0%" y2="100%"><stop offset="0%" stop-color="#FFF"/><stop offset="100%" stop-color="#F0F0F0"/></linearGradient><linearGradient id="b" x1="50%" x2="50%" y1="0%" y2="100%"><stop offset="0%" stop-color="#FF2936"/><stop offset="100%" stop-color="#FD0D1B"/></linearGradient><linearGradient id="c" x1="50%" x2="50%" y1="0%" y2="100%"><stop offset="0%" stop-color="#128415"/><stop offset="100%" stop-color="#0A650C"/></linearGradient><linearGradient id="d" x1="50%" x2="50%" y1="0%" y2="100%"><stop offset="0%" stop-color="#FAF94F"/><stop offset="100%" stop-color="#F8F736"/></linearGradient><linearGradient id="e" x1="50%" x2="50%" y1="0%" y2="100%"><stop offset="0%" stop-color="#1D50B5"/><stop offset="100%" stop-color="#15439D"/></linearGradient></defs><g fill="none" fill-rule="evenodd"><path fill="url(#a)" d="M0 0h21v15H0z"/><path fill="url(#b)" d="M0 0h21v15H0z"/><path fill="url(#c)" d="M0 0h8v15H0z"/><path fill="url(#d)" fill-rule="nonzero" d="M8 9.5a2 2 0 1 0 0-4 2 2 0 0 0 0 4Zm0 1a3 3 0 1 1 0-6 3 3 0 0 1 0 6Z"/><path fill="url(#a)" d="M7 6.256A.25.25 0 0 1 7.245 6h1.51A.25.25 0 0 1 9 6.256V8A.997.997 0 0 1 8 9c-.552 0-1-.443-1-.999V6.256Z"/><path fill="url(#e)" d="M8 8c.276 0 .5-.724.5-1a.5.5 0 0 0-1 0c0 .276.224 1 .5 1Z"/></g></svg>