<svg xmlns="http://www.w3.org/2000/svg" width="21" height="15"><defs><linearGradient id="a" x1="50%" x2="50%" y1="0%" y2="100%"><stop offset="0%" stop-color="#FFF"/><stop offset="100%" stop-color="#F0F0F0"/></linearGradient><linearGradient id="b" x1="50%" x2="50%" y1="0%" y2="100%"><stop offset="0%" stop-color="#08C55F"/><stop offset="100%" stop-color="#009F49"/></linearGradient><linearGradient id="c" x1="50%" x2="50%" y1="0%" y2="100%"><stop offset="0%" stop-color="#FFF"/><stop offset="100%" stop-color="#F0F0F0"/></linearGradient><linearGradient id="d" x1="50%" x2="50%" y1="0%" y2="100%"><stop offset="0%" stop-color="#FFD831"/><stop offset="100%" stop-color="#FDD117"/></linearGradient><linearGradient id="e" x1="50%" x2="50%" y1="0%" y2="100%"><stop offset="0%" stop-color="#262626"/><stop offset="100%" stop-color="#0D0D0D"/></linearGradient><linearGradient id="f" x1="50%" x2="50%" y1="0%" y2="100%"><stop offset="0%" stop-color="#E92034"/><stop offset="100%" stop-color="#CE1225"/></linearGradient></defs><g fill="none" fill-rule="evenodd"><path fill="url(#a)" d="M0 0h21v15H0z"/><path fill="url(#b)" d="M0 0h21v15H0z"/><path fill="url(#c)" fill-rule="nonzero" d="M-1 15V0h1l21 7v1L0 15z"/><path fill="url(#d)" fill-rule="nonzero" d="M0 1.054v12.892L19.338 7.5z"/><path fill="url(#e)" fill-rule="nonzero" d="M-1 15V0h1l11.5 7.5L0 15z"/><path fill="url(#f)" fill-rule="nonzero" d="M0 13.806 9.67 7.5 0 1.194z"/></g></svg>