<svg xmlns="http://www.w3.org/2000/svg" xmlns:xlink="http://www.w3.org/1999/xlink" width="21" height="15"><defs><linearGradient id="a" x1="50%" x2="50%" y1="0%" y2="100%"><stop offset="0%" stop-color="#FFF"/><stop offset="100%" stop-color="#F0F0F0"/></linearGradient><linearGradient id="b" x1="50%" x2="50%" y1="0%" y2="100%"><stop offset="0%" stop-color="#486BCA"/><stop offset="100%" stop-color="#3E5FBA"/></linearGradient><linearGradient id="c" x1="50%" x2="50%" y1="0%" y2="100%"><stop offset="0%" stop-color="#FFDF20"/><stop offset="100%" stop-color="#FFDA00"/></linearGradient><linearGradient id="d" x1="50%" x2="50%" y1="0%" y2="100%"><stop offset="0%" stop-color="#CF1615"/><stop offset="100%" stop-color="#B20D0C"/></linearGradient><linearGradient id="f" x1="50%" x2="50%" y1="0%" y2="100%"><stop offset="0%" stop-color="#262626"/><stop offset="100%" stop-color="#0D0D0D"/></linearGradient><ellipse id="e" cx="4.5" cy="2.5" rx="4.5" ry="2.5"/></defs><g fill="none" fill-rule="evenodd"><path fill="url(#a)" d="M0 0h21v15H0z"/><path fill="url(#b)" d="M0 0h21v3H0zM0 12h21v3H0z"/><path fill="url(#c)" d="M0 3h21v9H0z"/><path fill="url(#d)" d="M0 4h21v7H0z"/><g transform="translate(6 5)"><mask id="g" fill="#fff"><use xlink:href="#e"/></mask><use xlink:href="#e" fill="url(#a)"/><path fill="url(#f)" d="M0 0h5v5H1z" mask="url(#g)" transform="matrix(-1 0 0 1 5 0)"/><circle cx="5.5" cy="2.5" r="1" fill="#1A1A1A" mask="url(#g)"/><circle cx="3.5" cy="2.5" r="1" fill="#F6F6F6" mask="url(#g)"/></g></g></svg>