<svg xmlns="http://www.w3.org/2000/svg" width="21" height="15"><defs><linearGradient id="a" x1="50%" x2="50%" y1="0%" y2="100%"><stop offset="0%" stop-color="#FFF"/><stop offset="100%" stop-color="#F0F0F0"/></linearGradient><linearGradient id="b" x1="50%" x2="50%" y1="0%" y2="100%"><stop offset="0%" stop-color="#FF202D"/><stop offset="100%" stop-color="#FD0D1B"/></linearGradient><linearGradient id="c" x1="50%" x2="50%" y1="0%" y2="100%"><stop offset="0%" stop-color="#2027AC"/><stop offset="100%" stop-color="#191F94"/></linearGradient><linearGradient id="d" x1="50%" x2="50%" y1="0%" y2="100%"><stop offset="0%" stop-color="#FF212E"/><stop offset="100%" stop-color="#FD0D1B"/></linearGradient></defs><g fill="none" fill-rule="evenodd"><path fill="url(#a)" d="M0 0h21v15H0z"/><path fill="url(#b)" d="M0 0h21v5H0z"/><path fill="#1895DB" d="m8 4 .5-.5.5.5v1H8V4Zm2 0 .5-.5.5.5v1h-1V4Zm2 0 .5-.5.5.5v1h-1V4Z" opacity=".5"/><path fill="#191F94" d="m9 4 .5-.5.5.5v1H9V4Zm2 0 .5-.5.5.5v1h-1V4Z" opacity=".5"/><path fill="url(#c)" d="M0 10h21v5H0z"/><path fill="url(#a)" d="M0 10V5h21v5H0Zm12 0h1l-.273.547c-.126.25-.454.453-.727.453v-1Zm-2 0h1v1h-1v-1Zm-2 0h1v1a.876.876 0 0 1-.727-.453L8 10Z"/><path fill="url(#d)" d="M10 5h1v1h-1V5Zm2 0h.5l.5 1h-1V5ZM8.5 5H9v1H8l.5-1ZM9 6h1v1H9V6Zm2 0h1v1h-1V6Zm-1 1h1v1h-1V7Zm2 0h1v1h-1V7Zm-1 1h1v1h-1V8ZM8 7h1v1H8V7Zm1 1h1v1H9V8ZM8 9h1v1H8V9Zm2 0h1v1h-1V9Zm2 0h1v1h-1V9Zm-1 1h1v1h-1v-1Zm-2 0h1v1H9v-1Z"/></g></svg>