<svg xmlns="http://www.w3.org/2000/svg" width="21" height="15"><defs><linearGradient id="a" x1="50%" x2="50%" y1="0%" y2="100%"><stop offset="0%" stop-color="#FFF"/><stop offset="100%" stop-color="#F0F0F0"/></linearGradient><linearGradient id="b" x1="50%" x2="50%" y1="0%" y2="100%"><stop offset="0%" stop-color="#E12237"/><stop offset="100%" stop-color="#CE1126"/></linearGradient></defs><g fill="none" fill-rule="evenodd"><path fill="url(#a)" d="M0 0h21v15H0z"/><path fill="url(#b)" d="M0 0h21v8H0z"/><path fill="url(#a)" d="M0 8h21v7H0zM6.874 1.657a2.5 2.5 0 1 0 0 4.686 3 3 0 1 1 0-4.686ZM5.5 4a.5.5 0 1 1 0-1 .5.5 0 0 1 0 1Zm1 2a.5.5 0 1 1 0-1 .5.5 0 0 1 0 1Zm2 0a.5.5 0 1 1 0-1 .5.5 0 0 1 0 1Zm1-2a.5.5 0 1 1 0-1 .5.5 0 0 1 0 1Zm-2-1.5a.5.5 0 1 1 0-1 .5.5 0 0 1 0 1Z"/></g></svg>