<svg xmlns="http://www.w3.org/2000/svg" xmlns:xlink="http://www.w3.org/1999/xlink" width="21" height="15"><defs><linearGradient id="a" x1="50%" x2="50%" y1="0%" y2="100%"><stop offset="0%" stop-color="#FFF"/><stop offset="100%" stop-color="#F0F0F0"/></linearGradient><linearGradient id="d" x1="50%" x2="50%" y1="0%" y2="100%"><stop offset="0%" stop-color="#0C4799"/><stop offset="100%" stop-color="#05387E"/></linearGradient><linearGradient id="g" x1="50%" x2="50%" y1="0%" y2="100%"><stop offset="0%" stop-color="#FFD243"/><stop offset="100%" stop-color="#FFCD2F"/></linearGradient><linearGradient id="j" x1="50%" x2="50%" y1="0%" y2="100%"><stop offset="0%" stop-color="#1BAC55"/><stop offset="100%" stop-color="#149447"/></linearGradient><linearGradient id="m" x1="50%" x2="50%" y1="0%" y2="100%"><stop offset="0%" stop-color="#E52347"/><stop offset="100%" stop-color="#D01739"/></linearGradient><filter id="b" width="107.1%" height="115%" x="-3.6%" y="-7.5%" filterUnits="objectBoundingBox"><feMorphology in="SourceAlpha" operator="dilate" radius=".25" result="shadowSpreadOuter1"/><feOffset in="shadowSpreadOuter1" result="shadowOffsetOuter1"/><feColorMatrix in="shadowOffsetOuter1" values="0 0 0 0 0 0 0 0 0 0 0 0 0 0 0 0 0 0 0.06 0"/></filter><filter id="e" width="112.5%" height="125%" x="-6.2%" y="-6.2%" filterUnits="objectBoundingBox"><feOffset dy=".5" in="SourceAlpha" result="shadowOffsetOuter1"/><feColorMatrix in="shadowOffsetOuter1" values="0 0 0 0 0 0 0 0 0 0 0 0 0 0 0 0 0 0 0.06 0"/></filter><filter id="h" width="107.1%" height="115%" x="-3.6%" y="-7.5%" filterUnits="objectBoundingBox"><feMorphology in="SourceAlpha" operator="dilate" radius=".25" result="shadowSpreadOuter1"/><feOffset in="shadowSpreadOuter1" result="shadowOffsetOuter1"/><feColorMatrix in="shadowOffsetOuter1" values="0 0 0 0 0 0 0 0 0 0 0 0 0 0 0 0 0 0 0.06 0"/></filter><filter id="k" width="106.2%" height="107.9%" x="-3.1%" y="-3.9%" filterUnits="objectBoundingBox"><feMorphology in="SourceAlpha" operator="dilate" radius=".25" result="shadowSpreadOuter1"/><feOffset in="shadowSpreadOuter1" result="shadowOffsetOuter1"/><feColorMatrix in="shadowOffsetOuter1" values="0 0 0 0 0 0 0 0 0 0 0 0 0 0 0 0 0 0 0.06 0"/></filter><path id="c" d="m3.121 12.304 21-10h-21z"/><path id="f" d="m6.621 6.804-.765.848.058-1.14-1.14.057.847-.765-.847-.765 1.14.058-.058-1.14.765.847.766-.848-.058 1.14 1.14-.057-.848.765.848.765-1.14-.058.058 1.14z"/><path id="i" d="M3.121 17.304h21v-10z"/><path id="l" d="M5.433 19.304 25.75 6.609 21.81.304 1.493 12.999z"/></defs><g fill="none" fill-rule="evenodd"><path fill="url(#a)" d="M0 0h21v15H0z"/><g transform="translate(-3.12 -2.3)"><use xlink:href="#c" fill="#000" filter="url(#b)"/><use xlink:href="#c" fill="url(#d)"/></g><g transform="translate(-3.12 -2.3)"><use xlink:href="#f" fill="#000" filter="url(#e)"/><use xlink:href="#f" fill="url(#g)"/></g><g transform="translate(-3.12 -2.3)"><use xlink:href="#i" fill="#000" filter="url(#h)"/><use xlink:href="#i" fill="url(#j)"/></g><g transform="translate(-3.12 -2.3)"><use xlink:href="#l" fill="#000" filter="url(#k)"/><use xlink:href="#l" fill="url(#a)"/></g><path fill="url(#m)" d="M2.65 19.608 27.243 4.24 24.593 0 0 15.368z" transform="translate(-3.12 -2.3)"/></g></svg>