<svg xmlns="http://www.w3.org/2000/svg" width="21" height="15"><defs><linearGradient id="a" x1="50%" x2="50%" y1="0%" y2="100%"><stop offset="0%" stop-color="#FFF"/><stop offset="100%" stop-color="#F0F0F0"/></linearGradient><linearGradient id="b" x1="50%" x2="50%" y1="100%" y2="0%"><stop offset="0%" stop-color="red"/><stop offset="100%" stop-color="#FF3131"/></linearGradient></defs><g fill="none" fill-rule="evenodd"><path fill="url(#a)" d="M0 0h21v15H0z"/><path fill="url(#b)" d="M0 0h21v15H0z"/><path fill="url(#a)" d="M9 9H6.256A.255.255 0 0 1 6 8.744V6.256C6 6.115 6.114 6 6.256 6H9V3.256C9 3.115 9.114 3 9.256 3h2.488c.141 0 .256.114.256.256V6h2.744c.141 0 .256.114.256.256v2.488a.255.255 0 0 1-.256.256H12v2.744a.255.255 0 0 1-.256.256H9.256A.255.255 0 0 1 9 11.744V9Z"/></g></svg>