<svg xmlns="http://www.w3.org/2000/svg" width="21" height="15"><defs><linearGradient id="a" x1="50%" x2="50%" y1="0%" y2="100%"><stop offset="0%" stop-color="#FFF"/><stop offset="100%" stop-color="#F0F0F0"/></linearGradient><linearGradient id="b" x1="50%" x2="50%" y1="0%" y2="100%"><stop offset="0%" stop-color="#0744A7"/><stop offset="100%" stop-color="#00307D"/></linearGradient><linearGradient id="c" x1="50%" x2="50%" y1="0%" y2="100%"><stop offset="0%" stop-color="#FCC747"/><stop offset="100%" stop-color="#FEC539"/></linearGradient></defs><g fill="none" fill-rule="evenodd"><path fill="url(#a)" d="M0 0h21v15H0z"/><path fill="url(#b)" d="M0 0h21v15H0z"/><path fill="url(#c)" d="M0 6h21v2H0z"/><path fill="url(#a)" d="m5.5 12.25-.773 1.128.038-1.367-1.288.458.834-1.083L3 11l1.311-.386-.834-1.083 1.288.458-.038-1.367L5.5 9.75l.773-1.128-.038 1.367 1.288-.458-.834 1.083L8 11l-1.311.386.834 1.083-1.288-.458.038 1.367z"/></g></svg>