<svg xmlns="http://www.w3.org/2000/svg" width="21" height="15"><defs><linearGradient id="a" x1="50%" x2="50%" y1="0%" y2="100%"><stop offset="0%" stop-color="#FFF"/><stop offset="100%" stop-color="#F0F0F0"/></linearGradient><linearGradient id="b" x1="50%" x2="50%" y1="0%" y2="100%"><stop offset="0%" stop-color="#1AB558"/><stop offset="100%" stop-color="#169E4D"/></linearGradient><linearGradient id="c" x1="50%" x2="50%" y1="0%" y2="100%"><stop offset="0%" stop-color="#FFD952"/><stop offset="100%" stop-color="#FCD036"/></linearGradient><linearGradient id="d" x1="50%" x2="50%" y1="0%" y2="100%"><stop offset="0%" stop-color="#E72B42"/><stop offset="100%" stop-color="#CC162C"/></linearGradient><linearGradient id="e" x1="50%" x2="50%" y1="0%" y2="100%"><stop offset="0%" stop-color="#262626"/><stop offset="100%" stop-color="#0D0D0D"/></linearGradient></defs><g fill="none" fill-rule="evenodd"><path fill="url(#a)" d="M0 0h21v15H0z"/><path fill="url(#b)" d="M0 7h21v8H0z"/><path fill="url(#c)" d="M0 0h21v7H0z"/><path fill="url(#d)" d="M0 0h8v15H0z"/><path fill="url(#e)" d="M4 8.459 2.53 9.523l.558-1.727-1.466-1.069 1.814-.003L4 5l.564 1.724 1.814.003-1.466 1.07.557 1.726z"/></g></svg>