<svg xmlns="http://www.w3.org/2000/svg" width="21" height="15"><defs><linearGradient id="a" x1="50%" x2="50%" y1="0%" y2="100%"><stop offset="0%" stop-color="#FFF"/><stop offset="100%" stop-color="#F0F0F0"/></linearGradient><linearGradient id="b" x1="50%" x2="50%" y1="0%" y2="100%"><stop offset="0%" stop-color="#1AB11F"/><stop offset="100%" stop-color="#149818"/></linearGradient><linearGradient id="c" x1="50%" x2="50%" y1="0%" y2="100%"><stop offset="0%" stop-color="#262626"/><stop offset="100%" stop-color="#0D0D0D"/></linearGradient><linearGradient id="d" x1="50%" x2="50%" y1="0%" y2="100%"><stop offset="0%" stop-color="#DC0D18"/><stop offset="100%" stop-color="#BE0711"/></linearGradient></defs><g fill="none" fill-rule="evenodd"><path fill="url(#a)" d="M0 0h21v15H0z"/><path fill="url(#b)" d="M10 0h11v15H10z"/><path fill="url(#c)" d="M0 0h7v15H0z"/><path fill="url(#d)" d="M7 0h7v15H7z"/><path fill="#FFF" fill-rule="nonzero" d="M8 7c0 .901.482 1.72 1.247 2.164a.5.5 0 0 0 .502-.865A1.499 1.499 0 0 1 9 7a.5.5 0 0 0-1 0Zm3.846 2.107A2.498 2.498 0 0 0 13 7a.5.5 0 1 0-1 0c0 .518-.264.99-.693 1.265a.5.5 0 1 0 .539.842Z" opacity=".75"/><ellipse cx="10.5" cy="6.5" fill="#FFF" fill-opacity=".5" rx="1" ry="1.5"/></g></svg>