<svg xmlns="http://www.w3.org/2000/svg" width="21" height="15"><defs><linearGradient id="a" x1="50%" x2="50%" y1="0%" y2="100%"><stop offset="0%" stop-color="#FFF"/><stop offset="100%" stop-color="#F0F0F0"/></linearGradient><linearGradient id="b" x1="50%" x2="50%" y1="0%" y2="93.767%"><stop offset="0%" stop-color="#FE3030"/><stop offset="100%" stop-color="red"/></linearGradient><linearGradient id="c" x1="50%" x2="50%" y1="0%" y2="100%"><stop offset="0%" stop-color="#0909B6"/><stop offset="100%" stop-color="#000096"/></linearGradient></defs><g fill="none" fill-rule="evenodd"><path fill="url(#a)" d="M0 0h21v15H0z"/><path fill="url(#b)" d="M0 0h21v15H0z"/><path fill="url(#c)" d="M0 8h11V0H0z"/><path fill="url(#a)" d="m5.5 5.25-.957 1.06.073-1.426-1.426.073L4.25 4l-1.06-.957 1.426.073-.073-1.426.957 1.06.957-1.06-.073 1.426 1.426-.073L6.75 4l1.06.957-1.426-.073.073 1.426z"/></g></svg>