<svg xmlns="http://www.w3.org/2000/svg" width="21" height="15"><defs><linearGradient id="a" x1="50%" x2="50%" y1="0%" y2="100%"><stop offset="0%" stop-color="#FFF"/><stop offset="100%" stop-color="#F0F0F0"/></linearGradient><linearGradient id="b" x1="50%" x2="50%" y1="0%" y2="100%"><stop offset="0%" stop-color="#E4233B"/><stop offset="100%" stop-color="#CC162C"/></linearGradient><linearGradient id="c" x1="50%" x2="50%" y1="0%" y2="100%"><stop offset="0%" stop-color="#34CD4E"/><stop offset="100%" stop-color="#2AB441"/></linearGradient><linearGradient id="d" x1="50%" x2="50%" y1="0%" y2="100%"><stop offset="0%" stop-color="#DF2239"/><stop offset="100%" stop-color="#CC162C"/></linearGradient></defs><g fill="none" fill-rule="evenodd"><path fill="url(#a)" d="M0 0h21v15H0z"/><path fill="url(#b)" d="M2.08 1.437h21v15h-21z" transform="translate(-2.08 -1.44)"/><path fill="url(#c)" d="m2 1.437 9 7.5-9 7.5z" transform="translate(-2.08 -1.44)"/><path fill="url(#c)" d="m14.08 1.437 9 7.5-9 7.5z" transform="matrix(-1 0 0 1 35.08 -1.44)"/><path fill="url(#a)" d="M10.359 6.233 1.119 0 0 1.658 9.24 7.89a3.499 3.499 0 0 0 0 2.094L0 16.217l1.118 1.658 9.24-6.233a3.486 3.486 0 0 0 2.222.795c.844 0 1.617-.298 2.222-.795l9.24 6.233 1.118-1.658-9.24-6.233a3.499 3.499 0 0 0 0-2.094l9.24-6.232L24.042 0l-9.24 6.233a3.486 3.486 0 0 0-2.222-.796c-.843 0-1.617.299-2.221.796Z" transform="translate(-2.08 -1.44)"/><path fill="url(#d)" d="m12.58 7.937-.707.207.207-.707-.207-.707.707.207.707-.207-.207.707.207.707-.707-.207Zm-1.5 2.5-.707.207.207-.707-.207-.707.707.207.707-.207-.207.707.207.707-.707-.207Zm3 0-.707.207.207-.707-.207-.707.707.207.707-.207-.207.707.207.707-.707-.207Z" transform="translate(-2.08 -1.44)"/></g></svg>