<svg xmlns="http://www.w3.org/2000/svg" width="21" height="15"><defs><linearGradient id="a" x1="50%" x2="50%" y1="0%" y2="100%"><stop offset="0%" stop-color="#FFF"/><stop offset="100%" stop-color="#F0F0F0"/></linearGradient><linearGradient id="b" x1="50%" x2="50%" y1="0%" y2="100%"><stop offset="0%" stop-color="#2ACB41"/><stop offset="100%" stop-color="#21AC35"/></linearGradient><linearGradient id="c" x1="50%" x2="50%" y1="0%" y2="100%"><stop offset="0%" stop-color="#FDD043"/><stop offset="100%" stop-color="#FFCD2F"/></linearGradient><linearGradient id="d" x1="50%" x2="50%" y1="0%" y2="100%"><stop offset="0%" stop-color="#E71E43"/><stop offset="100%" stop-color="#D01739"/></linearGradient><linearGradient id="e" x1="50%" x2="50%" y1="0%" y2="100%"><stop offset="0%" stop-color="#262626"/><stop offset="100%" stop-color="#0D0D0D"/></linearGradient></defs><g fill="none" fill-rule="evenodd"><path fill="url(#a)" d="M0 0h21v15H0z"/><path fill="url(#b)" d="M0 10h21v5H0zM0 0h21v5H0z"/><path fill="url(#c)" d="M0 5h21v5H0z"/><path fill="url(#d)" d="m0 0 8 7.5L0 15z"/><path fill="url(#e)" d="m11 8.32-1.176.798.396-1.365-1.122-.871 1.42-.045L11 5.5l.482 1.337 1.42.045-1.122.871.396 1.365zM16 8.32l-1.176.798.396-1.365-1.122-.871 1.42-.045L16 5.5l.482 1.337 1.42.045-1.122.871.396 1.365z"/></g></svg>