<svg xmlns="http://www.w3.org/2000/svg" xmlns:xlink="http://www.w3.org/1999/xlink" width="21" height="15"><defs><linearGradient id="a" x1="50%" x2="50%" y1="0%" y2="100%"><stop offset="0%" stop-color="#FFF"/><stop offset="100%" stop-color="#F0F0F0"/></linearGradient><linearGradient id="b" x1="50%" x2="50%" y1="0%" y2="100%"><stop offset="0%" stop-color="#0A632F"/><stop offset="100%" stop-color="#05411E"/></linearGradient><filter id="c" width="105.6%" height="111.1%" x="-2.8%" y="-2.8%" filterUnits="objectBoundingBox"><feOffset dy=".5" in="SourceAlpha" result="shadowOffsetOuter1"/><feColorMatrix in="shadowOffsetOuter1" values="0 0 0 0 0 0 0 0 0 0 0 0 0 0 0 0 0 0 0.06 0"/></filter><path id="d" d="M15.978 10.878a4.182 4.182 0 0 1-2.65.95c-2.383 0-4.314-2.015-4.314-4.5 0-2.486 1.931-4.5 4.314-4.5.999 0 1.919.354 2.65.95a4.165 4.165 0 0 0-1.043-.132c-2.165 0-3.92 1.648-3.92 3.682 0 2.033 1.755 3.681 3.92 3.681.361 0 .711-.045 1.043-.131Zm.036-2.77-1.175.838.434-1.377-1.16-.86 1.443-.013.458-1.368.459 1.368 1.443.013-1.16.86.434 1.377-1.176-.838Z"/></defs><g fill="none" fill-rule="evenodd"><path fill="url(#a)" d="M0 0h21v15H0z"/><path fill="url(#b)" d="M0-.002h21v15H0z"/><path fill="url(#a)" d="M0-.002h6v15H0z"/><g transform="rotate(-45 13.465 7.328)"><use xlink:href="#d" fill="#000" filter="url(#c)"/><use xlink:href="#d" fill="url(#a)"/></g></g></svg>