<svg xmlns="http://www.w3.org/2000/svg" width="21" height="15"><defs><linearGradient id="a" x1="50%" x2="50%" y1="0%" y2="100%"><stop offset="0%" stop-color="#FFF"/><stop offset="100%" stop-color="#F0F0F0"/></linearGradient><linearGradient id="b" x1="50%" x2="50%" y1="0%" y2="100%"><stop offset="0%" stop-color="#29C53F"/><stop offset="100%" stop-color="#21AC35"/></linearGradient><linearGradient id="c" x1="50%" x2="50%" y1="0%" y2="100%"><stop offset="0%" stop-color="#579DED"/><stop offset="100%" stop-color="#458BDB"/></linearGradient><linearGradient id="d" x1="50%" x2="50%" y1="0%" y2="100%"><stop offset="0%" stop-color="#F42D56"/><stop offset="100%" stop-color="#E9103D"/></linearGradient></defs><g fill="none" fill-rule="evenodd"><path fill="url(#a)" d="M0 0h21v15H0z"/><path fill="url(#b)" d="M0 0h21v7.5H0z"/><path fill="url(#c)" d="M0 7.5h21v8H0z"/><path fill="url(#d)" d="m0 15 21-7.5L0 0z"/><path fill="#FFC63C" fill-rule="nonzero" d="M6.5 10a2.5 2.5 0 1 0 0-5 2.5 2.5 0 0 0 0 5Zm0 1a3.5 3.5 0 1 1 0-7 3.5 3.5 0 0 1 0 7Z"/><circle cx="6" cy="6.5" r="1" fill="#FFC63C"/><circle cx="7" cy="7" r="1" fill="#FFC63C"/><circle cx="6.5" cy="6" r="1" fill="#FFC63C"/><circle cx="6" cy="7.5" r="1" fill="#FFC63C"/><circle cx="7" cy="8" r="1" fill="#FFC63C"/><circle cx="6" cy="8.5" r="1" fill="#FFC63C"/><circle cx="7" cy="9" r="1" fill="#FFC63C"/></g></svg>