<svg xmlns="http://www.w3.org/2000/svg" width="21" height="15"><defs><linearGradient id="a" x1="50%" x2="50%" y1="0%" y2="100%"><stop offset="0%" stop-color="#FFF"/><stop offset="100%" stop-color="#F0F0F0"/></linearGradient><linearGradient id="b" x1="50%" x2="50%" y1="0%" y2="100%"><stop offset="0%" stop-color="#FFE547"/><stop offset="100%" stop-color="#FCE032"/></linearGradient><linearGradient id="c" x1="50%" x2="50%" y1="0%" y2="100%"><stop offset="0%" stop-color="#118C81"/><stop offset="100%" stop-color="#0D7168"/></linearGradient><linearGradient id="d" x1="50%" x2="50%" y1="0%" y2="100%"><stop offset="0%" stop-color="#262626"/><stop offset="100%" stop-color="#0D0D0D"/></linearGradient><linearGradient id="e" x1="50%" x2="50%" y1="0%" y2="100%"><stop offset="0%" stop-color="#EF2147"/><stop offset="100%" stop-color="#D01739"/></linearGradient><linearGradient id="f" x1="50%" x2="50%" y1="0%" y2="100%"><stop offset="0%" stop-color="#FDE444"/><stop offset="100%" stop-color="#FCE032"/></linearGradient></defs><g fill="none" fill-rule="evenodd"><path fill="url(#a)" d="M0 0h21v15H0z"/><path fill="url(#b)" d="M0 11h21v4H0z"/><path fill="url(#c)" d="M0 0h21v4H0z"/><path fill="url(#a)" d="M0 4h21v7H0z"/><path fill="url(#d)" d="M0 5h21v5H0z"/><path fill="url(#e)" d="m0 0 10 7.5L0 15z"/><path fill="url(#f)" d="M3.5 8.456 2.03 9.523l.561-1.728-1.469-1.068h1.816L3.5 5l.562 1.727h1.816l-1.47 1.068.561 1.728z"/></g></svg>