<svg xmlns="http://www.w3.org/2000/svg" width="21" height="15"><defs><linearGradient id="a" x1="50%" x2="50%" y1="0%" y2="100%"><stop offset="0%" stop-color="#FFF"/><stop offset="100%" stop-color="#F0F0F0"/></linearGradient><linearGradient id="b" x1="50%" x2="50%" y1="0%" y2="100%"><stop offset="0%" stop-color="#E33B44"/><stop offset="100%" stop-color="#C02A32"/></linearGradient></defs><g fill="none" fill-rule="evenodd"><path fill="url(#a)" d="M0 0h21v15H0z"/><path fill="url(#b)" d="M0 0h21v15H0z"/><path fill="#0A6135" fill-rule="nonzero" d="m10.5 9.255-2.645 1.886.976-3.099L6.22 6.11l3.247-.029L10.5 3l1.032 3.08 3.248.03-2.61 1.932.975 3.099L10.5 9.255Zm0-1.228.794.566-.293-.93.784-.58-.975-.01-.31-.924-.31.925-.975.008.784.58-.293.931.794-.566Z"/></g></svg>