<svg xmlns="http://www.w3.org/2000/svg" width="21" height="15"><defs><linearGradient id="a" x1="50%" x2="50%" y1="0%" y2="100%"><stop offset="0%" stop-color="#FFF"/><stop offset="100%" stop-color="#F0F0F0"/></linearGradient><linearGradient id="b" x1="50%" x2="50%" y1="0%" y2="100%"><stop offset="0%" stop-color="#E1244A"/><stop offset="100%" stop-color="#BE1134"/></linearGradient><linearGradient id="c" x1="50%" x2="50%" y1="0%" y2="100%"><stop offset="0%" stop-color="#0C3F8E"/><stop offset="100%" stop-color="#032A67"/></linearGradient><linearGradient id="d" x1="50%" x2="50%" y1="0%" y2="100%"><stop offset="0%" stop-color="#FFD34F"/><stop offset="100%" stop-color="#FFCB2F"/></linearGradient></defs><g fill="none" fill-rule="evenodd"><path fill="url(#a)" d="M0 0h21v15H0z"/><path fill="url(#b)" d="M10 0h11v1H10V0Zm0 2h11v1H10V2Zm0 2h11v1H10V4Zm0 2h11v1H10V6ZM0 8h21v1H0V8Zm0 2h21v1H0v-1Zm0 2h21v1H0v-1Zm0 2h21v1H0v-1Z"/><path fill="url(#c)" d="M0 0h12v8H0z"/><path fill="url(#d)" d="M6.874 1.657a2.5 2.5 0 1 0 0 4.686 3 3 0 1 1 0-4.686ZM8 4.82l-.868.982.227-1.29-1.309-.067 1.15-.627-.764-1.065 1.208.508L8 2l.356 1.261 1.208-.508-.765 1.065 1.15.627-1.308.066.227 1.29L8 4.82Z"/></g></svg>