<svg xmlns="http://www.w3.org/2000/svg" width="21" height="15"><defs><linearGradient id="a" x1="50%" x2="50%" y1="0%" y2="100%"><stop offset="0%" stop-color="#FFF"/><stop offset="100%" stop-color="#F0F0F0"/></linearGradient><linearGradient id="b" x1="50%" x2="50%" y1="0%" y2="100%"><stop offset="0%" stop-color="#FFBF19"/><stop offset="100%" stop-color="#FFB800"/></linearGradient><linearGradient id="c" x1="50%" x2="50%" y1="0%" y2="100%"><stop offset="0%" stop-color="#A52531"/><stop offset="100%" stop-color="#8E1F29"/></linearGradient><linearGradient id="d" x1="50%" x2="50%" y1="0%" y2="100%"><stop offset="0%" stop-color="#03664F"/><stop offset="100%" stop-color="#005642"/></linearGradient><linearGradient id="e" x1="50%" x2="50%" y1="0%" y2="100%"><stop offset="0%" stop-color="#FF6816"/><stop offset="100%" stop-color="#FF5B01"/></linearGradient><linearGradient id="f" x1="50%" x2="50%" y1="0%" y2="100%"><stop offset="0%" stop-color="#FFBF18"/><stop offset="100%" stop-color="#FFB800"/></linearGradient></defs><g fill="none" fill-rule="evenodd"><path fill="url(#a)" d="M0 0h21v15H0z"/><path fill="url(#b)" d="M0 0h21v15H0z"/><path fill="url(#c)" d="M8 1h11.25a.75.75 0 0 1 .75.755v11.49a.751.751 0 0 1-.75.755H8V1Z"/><path fill="url(#d)" d="M1 1.755A.76.76 0 0 1 1.757 1H4v13H1.757A.754.754 0 0 1 1 13.245V1.755Z"/><rect width="3" height="13" x="4" y="1" fill="url(#e)" rx=".5"/><path fill="url(#f)" d="M9.5 3a.5.5 0 0 1-.5-.5V2h.5a.5.5 0 0 1 0 1Zm9 0a.5.5 0 1 1 0-1h.5v.5a.5.5 0 0 1-.5.5Zm0 9a.5.5 0 0 1 .5.5v.5h-.5a.5.5 0 1 1 0-1Zm-9 0a.5.5 0 1 1 0 1H9v-.5a.5.5 0 0 1 .5-.5ZM12 9.5c0-.276-.227-.5-.5-.5h.5a3.04 3.04 0 0 1-.975-.185S10 8.5 10 8c0-.5.203-.614.203-.614.164-.213.215-.588.112-.86 0 0-.415-.926-.315-1.526.1-.6.57-.749.57-.749.238-.139.43-.035.43.244v2.01c0 .273.193.591.453.722l.094.046c.25.126.611.069.806-.126l-.206.206c.195-.195.16-.45-.1-.58L11.5 6.5V6h.5c.276 0 .307-.096.047-.227L11.5 5.5V5h.5c.276 0 .658-.158.853-.353l-.206.206c.195-.195.585-.353.853-.353.276 0 .596.193.727.453l.046.094c.126.25.157.662.069.928l-.184.55c-.087.263.073.475.348.475h1.488c.28 0 .664-.158.859-.353l-.206.206c.195-.195.16-.45-.1-.58l-.094-.046A2.566 2.566 0 0 0 15.5 6a.505.505 0 0 1-.5-.5c0-.276.158-.658.353-.853L15.5 4.5V5c0 .276.227.5.5.5h-.5 1c.276 0 .596.193.727.453l.046.094c.126.25.247.673.264.947 0 0 .069.476-.037 1.006-.106.53-.226.589-.226.589a1.898 1.898 0 0 0-.274.916v.99a.508.508 0 0 1-.5.505c-.276 0-.404-.193-.273-.453l.046-.094a1.12 1.12 0 0 0 0-.906l-.046-.094C16.1 9.203 16 9.232 16 9.5c0 .276-.096.693-.227.953l-.046.094c-.126.25-.459.453-.727.453-.276 0-.404-.193-.273-.453l.046-.094c.126-.25.227-.685.227-.953 0-.276-.214-.5-.505-.5h-.99a.508.508 0 0 0-.505.5c0 .276-.096.693-.227.953l-.046.094c-.126.25-.459.453-.727.453-.276 0-.404-.193-.273-.453l.046-.094c.126-.25.227-.685.227-.953Z"/></g></svg>