<svg xmlns="http://www.w3.org/2000/svg" width="21" height="15"><defs><linearGradient id="a" x1="50%" x2="50%" y1="0%" y2="100%"><stop offset="0%" stop-color="#FFF"/><stop offset="100%" stop-color="#F0F0F0"/></linearGradient><linearGradient id="b" x1="50%" x2="50%" y1="0%" y2="100%"><stop offset="0%" stop-color="#0B36B2"/><stop offset="100%" stop-color="#042993"/></linearGradient><linearGradient id="c" x1="50%" x2="50%" y1="0%" y2="100%"><stop offset="0%" stop-color="#FFD045"/><stop offset="100%" stop-color="#FECA2F"/></linearGradient></defs><g fill="none" fill-rule="evenodd"><path fill="url(#a)" d="M0 0h21v15H0z"/><path fill="url(#b)" d="M0 0h21v15H0z"/><path fill="url(#c)" d="M17 15V0H6.5z"/><path fill="url(#a)" d="m13 14-.707.207.207-.707-.207-.707L13 13l.707-.207-.207.707.207.707zM11 11l-.707.207.207-.707-.207-.707L11 10l.707-.207-.207.707.207.707zM9 8l-.707.207L8.5 7.5l-.207-.707L9 7l.707-.207L9.5 7.5l.207.707zM7 5l-.707.207L6.5 4.5l-.207-.707L7 4l.707-.207L7.5 4.5l.207.707zM5 2l-.707.207L4.5 1.5 4.293.793 5 1l.707-.207L5.5 1.5l.207.707z"/></g></svg>