<svg xmlns="http://www.w3.org/2000/svg" width="21" height="15"><defs><linearGradient id="a" x1="50%" x2="50%" y1="0%" y2="100%"><stop offset="0%" stop-color="#FFF"/><stop offset="100%" stop-color="#F0F0F0"/></linearGradient><linearGradient id="b" x1="50%" x2="50%" y1="0%" y2="100%"><stop offset="0%" stop-color="#063191"/><stop offset="100%" stop-color="#03287C"/></linearGradient><linearGradient id="c" x1="50%" x2="50%" y1="0%" y2="100%"><stop offset="0%" stop-color="#E2213B"/><stop offset="100%" stop-color="#CD1931"/></linearGradient><linearGradient id="d" x1="50%" x2="50%" y1="0%" y2="100%"><stop offset="0%" stop-color="#FFD044"/><stop offset="100%" stop-color="#FFCB2F"/></linearGradient></defs><g fill="none" fill-rule="evenodd"><path fill="url(#a)" d="M0 0h21v15H0z"/><path fill="url(#b)" d="M0 5h21v5H0z"/><path fill="url(#c)" d="M0 10h21v5H0z"/><path fill="url(#a)" d="M10.5 7a.5.5 0 1 1 0-1 .5.5 0 0 1 0 1Zm-2 .5a.5.5 0 1 1 0-1 .5.5 0 0 1 0 1Zm4 0a.5.5 0 1 1 0-1 .5.5 0 0 1 0 1ZM7.5 9a.5.5 0 1 1 0-1 .5.5 0 0 1 0 1Zm6 0a.5.5 0 1 1 0-1 .5.5 0 0 1 0 1Z"/><path fill="url(#d)" d="M0 0h21v5H0z"/></g></svg>