<svg xmlns="http://www.w3.org/2000/svg" width="21" height="15"><defs><linearGradient id="a" x1="50%" x2="50%" y1="0%" y2="100%"><stop offset="0%" stop-color="#FFF"/><stop offset="100%" stop-color="#F0F0F0"/></linearGradient><linearGradient id="b" x1="50%" x2="50%" y1="0%" y2="100%"><stop offset="0%" stop-color="#043CAE"/><stop offset="100%" stop-color="#00339A"/></linearGradient><linearGradient id="c" x1="50%" x2="50%" y1="0%" y2="100%"><stop offset="0%" stop-color="#FFD429"/><stop offset="100%" stop-color="#FC0"/></linearGradient></defs><g fill="none" fill-rule="evenodd"><path fill="url(#a)" d="M0 0h21v15H0z"/><path fill="url(#b)" d="M0 0h21v15H0z"/><path fill="url(#c)" d="m10.5 3-.707.207L10 2.5l-.207-.707L10.5 2l.707-.207L11 2.5l.207.707L10.5 3Zm0 10-.707.207L10 12.5l-.207-.707.707.207.707-.207L11 12.5l.207.707L10.5 13Zm5-5-.707.207L15 7.5l-.207-.707L15.5 7l.707-.207L16 7.5l.207.707L15.5 8Zm-10 0-.707.207L5 7.5l-.207-.707L5.5 7l.707-.207L6 7.5l.207.707L5.5 8Zm9.33-2.5-.707.207L14.33 5l-.207-.707.707.207.707-.207L15.33 5l.207.707-.707-.207Zm-8.66 5-.707.207L5.67 10l-.207-.707.707.207.707-.207L6.67 10l.207.707-.707-.207ZM13 3.67l-.707.207.207-.707-.207-.707.707.207.707-.207-.207.707.207.707L13 3.67Zm-5 8.66-.707.207.207-.707-.207-.707.707.207.707-.207-.207.707.207.707L8 12.33Zm6.83-1.83-.707.207.207-.707-.207-.707.707.207.707-.207-.207.707.207.707-.707-.207Zm-8.66-5-.707.207L5.67 5l-.207-.707.707.207.707-.207L6.67 5l.207.707L6.17 5.5ZM13 12.33l-.707.207.207-.707-.207-.707.707.207.707-.207-.207.707.207.707L13 12.33ZM8 3.67l-.707.207.207-.707-.207-.707L8 2.67l.707-.207-.207.707.207.707L8 3.67Z"/></g></svg>