<svg xmlns="http://www.w3.org/2000/svg" width="21" height="15"><defs><linearGradient id="a" x1="50%" x2="50%" y1="0%" y2="100%"><stop offset="0%" stop-color="#FFF"/><stop offset="100%" stop-color="#F0F0F0"/></linearGradient><linearGradient id="b" x1="50%" x2="50%" y1="0%" y2="100%"><stop offset="0%" stop-color="#146BBC"/><stop offset="100%" stop-color="#0B5396"/></linearGradient><linearGradient id="c" x1="50%" x2="50%" y1="0%" y2="100%"><stop offset="0%" stop-color="#E43642"/><stop offset="100%" stop-color="#C32A34"/></linearGradient><linearGradient id="d" x1="50%" x2="50%" y1="0%" y2="100%"><stop offset="0%" stop-color="#F8D246"/><stop offset="100%" stop-color="#F9CE2F"/></linearGradient></defs><g fill="none" fill-rule="evenodd"><path fill="url(#a)" d="M0 0h21v15H0z"/><path fill="url(#b)" d="M7 0h7v15H7z"/><path fill="url(#c)" d="M0 0h7v15H0zM14 0h7v15h-7z"/><path fill="url(#d)" d="M4 9h1v3H4V9ZM2 9h1v3H2V9Zm1 2h1l-.5 1-.5-1Zm0-2h1l-.5 1L3 9Zm0-1 .5-.5.5.5H3Zm.5 1a.5.5 0 1 1 0-1 .5.5 0 0 1 0 1Zm0 2a.5.5 0 1 1 0-1 .5.5 0 0 1 0 1Z"/></g></svg>