<svg xmlns="http://www.w3.org/2000/svg" width="21" height="15"><defs><linearGradient id="a" x1="50%" x2="50%" y1="0%" y2="100%"><stop offset="0%" stop-color="#FFF"/><stop offset="100%" stop-color="#F0F0F0"/></linearGradient><linearGradient id="b" x1="50%" x2="50%" y1="0%" y2="100%"><stop offset="0%" stop-color="#369D0C"/><stop offset="100%" stop-color="#319209"/></linearGradient><linearGradient id="c" x1="50%" x2="50%" y1="0%" y2="100%"><stop offset="0%" stop-color="#262626"/><stop offset="100%" stop-color="#0D0D0D"/></linearGradient><linearGradient id="d" x1="50%" x2="50%" y1="0%" y2="100%"><stop offset="0%" stop-color="#FFD40E"/><stop offset="100%" stop-color="#FFD201"/></linearGradient><linearGradient id="e" x1="50%" x2="50%" y1="0%" y2="100%"><stop offset="0%" stop-color="#F12F1F"/><stop offset="100%" stop-color="#DE2010"/></linearGradient></defs><g fill="none" fill-rule="evenodd"><path fill="url(#a)" d="M0 0h21v15H0z"/><path fill="url(#b)" d="M0 0h21v2H0zM0 13h21v2H0zM0 4h21v2H0zM0 9h21v2H0z"/><path fill="url(#c)" d="M0 6h21v3H0z"/><path fill="url(#d)" d="M0 2h21v2H0zM0 11h21v2H0z"/><path fill="url(#c)" fill-rule="nonzero" d="M-1 15V0h1l10 7.5L0 15z"/><path fill="url(#a)" fill-rule="nonzero" d="M0 13.75 8.333 7.5 0 1.25z"/><path fill="url(#e)" d="M3 8.475 1.53 9.523 2.074 7.8.623 6.727l1.804-.016L3 5l.573 1.711 1.805.016-1.45 1.074.541 1.722z"/></g></svg>