<svg xmlns="http://www.w3.org/2000/svg" width="21" height="15"><defs><linearGradient id="a" x1="50%" x2="50%" y1="0%" y2="100%"><stop offset="0%" stop-color="#FFF"/><stop offset="100%" stop-color="#F0F0F0"/></linearGradient><linearGradient id="b" x1="50%" x2="50%" y1="0%" y2="100%"><stop offset="0%" stop-color="#E81B26"/><stop offset="100%" stop-color="#D00914"/></linearGradient><linearGradient id="c" x1="50%" x2="50%" y1="0%" y2="100%"><stop offset="0%" stop-color="#FFE94F"/><stop offset="100%" stop-color="#FFE633"/></linearGradient></defs><g fill="none" fill-rule="evenodd"><path fill="url(#a)" d="M0 0h21v15H0z"/><path fill="url(#b)" d="M-.004-.002h21v15h-21z"/><circle cx="10.496" cy="7.498" r="2.5" fill="url(#c)"/><path fill="url(#c)" d="m13.961 7.993 7.035 1.005v-3l-7.035 1.005a3.53 3.53 0 0 1 0 .99Zm-6.93-.99L-.004 5.998v3l7.035-1.005a3.53 3.53 0 0 1 0-.99Zm4.152-2.938.813-4.067h-3l.814 4.067a3.517 3.517 0 0 1 1.373 0ZM9.81 10.931l-.814 4.067h3l-.813-4.067a3.517 3.517 0 0 1-1.373 0ZM7.652 9.539-.54 15.417l2.007 2.229 6.703-7.533a3.52 3.52 0 0 1-.518-.574Zm5.688-4.082L21.532-.42 19.525-2.65l-6.702 7.533c.192.172.366.364.517.574Zm-.517 4.656 6.702 7.533 2.007-2.23L13.34 9.54a3.52 3.52 0 0 1-.517.574ZM8.17 4.883 1.467-2.65-.54-.42l8.192 5.877a3.52 3.52 0 0 1 .518-.574Z"/></g></svg>