<svg xmlns="http://www.w3.org/2000/svg" width="21" height="15"><defs><linearGradient id="a" x1="50%" x2="50%" y1="0%" y2="100%"><stop offset="0%" stop-color="#FFF"/><stop offset="100%" stop-color="#F0F0F0"/></linearGradient><linearGradient id="b" x1="50%" x2="50%" y1="0%" y2="100%"><stop offset="0%" stop-color="#D9101C"/><stop offset="100%" stop-color="#CA0814"/></linearGradient><linearGradient id="c" x1="50%" x2="50%" y1="0%" y2="100%"><stop offset="0%" stop-color="#0F7811"/><stop offset="100%" stop-color="#0A650C"/></linearGradient></defs><g fill="none" fill-rule="evenodd"><path fill="url(#a)" d="M0 0h21v15H0z"/><path fill="url(#b)" d="M0 0h21v5H0z"/><path fill="url(#c)" d="M0 10h21v5H0z"/><path fill="url(#a)" d="M0 5h21v5H0z"/><path fill="#FAD14E" d="M10.066 8A3.266 3.266 0 0 1 10 7.5a.5.5 0 1 1 1 0c0 .09-.024.283-.066.5h.57c.274 0 .496.232.496.5 0 .276-.216.5-.495.5h-2.01A.503.503 0 0 1 9 8.5c0-.276.216-.5.495-.5h.571ZM9.5 7a.5.5 0 1 1 0-1 .5.5 0 0 1 0 1Zm2 0a.5.5 0 1 1 0-1 .5.5 0 0 1 0 1Zm2 1a.5.5 0 1 1 0-1 .5.5 0 0 1 0 1Zm-6 0a.5.5 0 1 1 0-1 .5.5 0 0 1 0 1Z"/></g></svg>