<svg xmlns="http://www.w3.org/2000/svg" width="21" height="15"><defs><linearGradient id="a" x1="50%" x2="50%" y1="0%" y2="100%"><stop offset="0%" stop-color="#FFF"/><stop offset="100%" stop-color="#F0F0F0"/></linearGradient><linearGradient id="b" x1="50%" x2="50%" y1="0%" y2="100%"><stop offset="0%" stop-color="#38BB56"/><stop offset="100%" stop-color="#2B9F45"/></linearGradient><linearGradient id="c" x1="50%" x2="50%" y1="0%" y2="100%"><stop offset="0%" stop-color="#DE1B27"/><stop offset="100%" stop-color="#D80915"/></linearGradient></defs><g fill="none" fill-rule="evenodd"><path fill="url(#a)" d="M0 0h21v15H0z"/><path fill="url(#b)" d="M0 0h21v5H0z"/><path fill="url(#c)" d="M0 10h21v5H0z"/><path fill="url(#a)" d="M0 5h21v5H0z"/><path fill="#FFF" fill-opacity=".5" d="M1 4.252C1 4.113 1.107 4 1.252 4h.496c.139 0 .252.107.252.252v.496C2 4.887 1.893 5 1.748 5h-.496A.249.249 0 0 1 1 4.748v-.496Zm2 0C3 4.113 3.107 4 3.252 4h.496c.139 0 .252.107.252.252v.496C4 4.887 3.893 5 3.748 5h-.496A.249.249 0 0 1 3 4.748v-.496Zm2 0C5 4.113 5.107 4 5.252 4h.496c.139 0 .252.107.252.252v.496C6 4.887 5.893 5 5.748 5h-.496A.249.249 0 0 1 5 4.748v-.496Zm2 0C7 4.113 7.107 4 7.252 4h.496c.139 0 .252.107.252.252v.496C8 4.887 7.893 5 7.748 5h-.496A.249.249 0 0 1 7 4.748v-.496Zm2 0C9 4.113 9.107 4 9.252 4h.496c.139 0 .252.107.252.252v.496c0 .139-.107.252-.252.252h-.496A.249.249 0 0 1 9 4.748v-.496Zm2 0c0-.139.107-.252.252-.252h.496c.139 0 .252.107.252.252v.496c0 .139-.107.252-.252.252h-.496A.249.249 0 0 1 11 4.748v-.496Zm2 0c0-.139.107-.252.252-.252h.496c.139 0 .252.107.252.252v.496c0 .139-.107.252-.252.252h-.496A.249.249 0 0 1 13 4.748v-.496Zm2 0c0-.139.107-.252.252-.252h.496c.139 0 .252.107.252.252v.496c0 .139-.107.252-.252.252h-.496A.249.249 0 0 1 15 4.748v-.496Zm2 0c0-.139.107-.252.252-.252h.496c.139 0 .252.107.252.252v.496c0 .139-.107.252-.252.252h-.496A.249.249 0 0 1 17 4.748v-.496Zm2 0c0-.139.107-.252.252-.252h.496c.139 0 .252.107.252.252v.496c0 .139-.107.252-.252.252h-.496A.249.249 0 0 1 19 4.748v-.496Zm-18 6c0-.139.107-.252.252-.252h.496c.139 0 .252.107.252.252v.496c0 .139-.107.252-.252.252h-.496A.249.249 0 0 1 1 10.748v-.496Zm2 0c0-.139.107-.252.252-.252h.496c.139 0 .252.107.252.252v.496c0 .139-.107.252-.252.252h-.496A.249.249 0 0 1 3 10.748v-.496Zm2 0c0-.139.107-.252.252-.252h.496c.139 0 .252.107.252.252v.496c0 .139-.107.252-.252.252h-.496A.249.249 0 0 1 5 10.748v-.496Zm2 0c0-.139.107-.252.252-.252h.496c.139 0 .252.107.252.252v.496c0 .139-.107.252-.252.252h-.496A.249.249 0 0 1 7 10.748v-.496Zm2 0c0-.139.107-.252.252-.252h.496c.139 0 .252.107.252.252v.496c0 .139-.107.252-.252.252h-.496A.249.249 0 0 1 9 10.748v-.496Zm2 0c0-.139.107-.252.252-.252h.496c.139 0 .252.107.252.252v.496c0 .139-.107.252-.252.252h-.496a.249.249 0 0 1-.252-.252v-.496Zm2 0c0-.139.107-.252.252-.252h.496c.139 0 .252.107.252.252v.496c0 .139-.107.252-.252.252h-.496a.249.249 0 0 1-.252-.252v-.496Zm2 0c0-.139.107-.252.252-.252h.496c.139 0 .252.107.252.252v.496c0 .139-.107.252-.252.252h-.496a.249.249 0 0 1-.252-.252v-.496Zm2 0c0-.139.107-.252.252-.252h.496c.139 0 .252.107.252.252v.496c0 .139-.107.252-.252.252h-.496a.249.249 0 0 1-.252-.252v-.496Zm2 0c0-.139.107-.252.252-.252h.496c.139 0 .252.107.252.252v.496c0 .139-.107.252-.252.252h-.496a.249.249 0 0 1-.252-.252v-.496Z"/><path stroke="#D80915" stroke-width=".5" d="M9.591 6.642a1.25 1.25 0 1 0 1.83.014l-1.83-.014Z"/><rect width="1" height="2" x="10" y="7" fill="#D80915" rx=".5"/></g></svg>