<svg xmlns="http://www.w3.org/2000/svg" width="21" height="15"><defs><linearGradient id="a" x1="50%" x2="50%" y1="0%" y2="100%"><stop offset="0%" stop-color="#FFF"/><stop offset="100%" stop-color="#F0F0F0"/></linearGradient><linearGradient id="b" x1="50%" x2="50%" y1="0%" y2="100%"><stop offset="0%" stop-color="#E52448"/><stop offset="100%" stop-color="#D01739"/></linearGradient><linearGradient id="c" x1="50%" x2="50%" y1="0%" y2="100%"><stop offset="0%" stop-color="#1367AE"/><stop offset="100%" stop-color="#0A5492"/></linearGradient></defs><g fill="none" fill-rule="evenodd"><path fill="url(#a)" d="M0 0h21v15H0z"/><path fill="url(#b)" d="M0 0h21v7H0z"/><path fill="url(#c)" d="M0 7h21v8H0z"/><path fill="url(#a)" d="M0 7V0h10v7H0Zm10 8V7h11v8H10Z"/><path fill="url(#c)" d="m5 4.32-1.176.798.396-1.365-1.122-.871 1.42-.045L5 1.5l.482 1.337 1.42.045-1.122.871.396 1.365z"/><path fill="url(#b)" d="m15.5 11.82-1.176.798.396-1.365-1.122-.871 1.42-.045L15.5 9l.482 1.337 1.42.045-1.122.871.396 1.365z"/></g></svg>