<svg xmlns="http://www.w3.org/2000/svg" width="21" height="15"><defs><linearGradient id="a" x1="50%" x2="50%" y1="0%" y2="100%"><stop offset="0%" stop-color="#FFF"/><stop offset="100%" stop-color="#F0F0F0"/></linearGradient><linearGradient id="b" x1="50%" x2="50%" y1="0%" y2="100%"><stop offset="0%" stop-color="#FFCB49"/><stop offset="100%" stop-color="#FFC638"/></linearGradient><linearGradient id="c" x1="50%" x2="50%" y1="0%" y2="100%"><stop offset="0%" stop-color="#DC1D34"/><stop offset="100%" stop-color="#CC162C"/></linearGradient><linearGradient id="d" x1="50%" x2="50%" y1="0%" y2="100%"><stop offset="0%" stop-color="#4985D4"/><stop offset="100%" stop-color="#3D77C2"/></linearGradient><linearGradient id="e" x1="50%" x2="50%" y1="0%" y2="100%"><stop offset="0%" stop-color="#4BA343"/><stop offset="100%" stop-color="#408D39"/></linearGradient></defs><g fill="none" fill-rule="evenodd"><path fill="url(#a)" d="M0 0h21v15H0z"/><path fill="url(#b)" d="M0 0h21v4H0z"/><path fill="url(#c)" d="M0 7h21v4H0z"/><path fill="url(#d)" d="M0 11h21v4H0z"/><path fill="url(#a)" d="M0 4h21v3H0z"/><path fill="url(#e)" d="m0 15 10-7.5L0 0z"/><path fill="url(#a)" d="M4.75 4.595a3 3 0 1 0 0 5.811 3.001 3.001 0 0 1 0-5.811ZM5.5 6a.5.5 0 1 1 0-1 .5.5 0 0 1 0 1Zm0 2a.5.5 0 1 1 0-1 .5.5 0 0 1 0 1Zm0 2a.5.5 0 1 1 0-1 .5.5 0 0 1 0 1Z"/></g></svg>