<svg xmlns="http://www.w3.org/2000/svg" width="21" height="15"><defs><linearGradient id="a" x1="50%" x2="50%" y1="0%" y2="100%"><stop offset="0%" stop-color="#FFF"/><stop offset="100%" stop-color="#F0F0F0"/></linearGradient><linearGradient id="b" x1="50%" x2="50%" y1="0%" y2="100%"><stop offset="0%" stop-color="#20AA46"/><stop offset="100%" stop-color="#168835"/></linearGradient><linearGradient id="c" x1="50%" x2="50%" y1="0%" y2="100%"><stop offset="0%" stop-color="#E92F3B"/><stop offset="100%" stop-color="#D81824"/></linearGradient><linearGradient id="d" x1="50%" x2="50%" y1="0%" y2="100%"><stop offset="0%" stop-color="#FADF50"/><stop offset="100%" stop-color="#FCDC34"/></linearGradient><linearGradient id="e" x1="50%" x2="50%" y1="0%" y2="100%"><stop offset="0%" stop-color="#205CCA"/><stop offset="100%" stop-color="#154BAD"/></linearGradient><linearGradient id="f" x1="50%" x2="50%" y1="0%" y2="100%"><stop offset="0%" stop-color="#FFDB3D"/><stop offset="100%" stop-color="#FDD420"/></linearGradient></defs><g fill="none" fill-rule="evenodd"><path fill="url(#a)" d="M0 0h21v15H0z"/><path fill="url(#b)" d="M0 0h21v5H0z"/><path fill="url(#c)" d="M0 10h21v5H0z"/><path fill="url(#d)" d="M0 5h21v5H0z"/><circle cx="10.5" cy="7.5" r="3.5" fill="url(#e)"/><path fill="url(#f)" fill-rule="nonzero" d="M10.5 8.475 9.03 9.523 9.574 7.8l-1.45-1.074 1.804-.016L10.5 5l.573 1.711 1.805.016-1.45 1.074.541 1.722L10.5 8.475Zm0-.614.544.388-.2-.637.536-.398-.668-.006-.212-.634-.212.634-.668.006.537.398-.201.637.544-.388Z"/></g></svg>