<svg xmlns="http://www.w3.org/2000/svg" width="21" height="15"><defs><linearGradient id="a" x1="50%" x2="50%" y1="0%" y2="100%"><stop offset="0%" stop-color="#FFF"/><stop offset="100%" stop-color="#F0F0F0"/></linearGradient><linearGradient id="b" x1="50%" x2="50%" y1="0%" y2="100%"><stop offset="0%" stop-color="#E20F1B"/><stop offset="100%" stop-color="#C00711"/></linearGradient><linearGradient id="c" x1="50%" x2="50%" y1="0%" y2="100%"><stop offset="0%" stop-color="#DF101B"/><stop offset="100%" stop-color="#C00711"/></linearGradient></defs><g fill="none" fill-rule="evenodd"><path fill="url(#a)" d="M0 0h21v15H0z"/><path fill="url(#b)" d="M0 0h21v15H0z"/><path fill="url(#a)" d="M0 0h12v8H0z"/><path fill="url(#c)" d="M7 3V1.258C7 1.104 6.89 1 6.755 1h-1.51A.25.25 0 0 0 5 1.258V3H3.258C3.104 3 3 3.11 3 3.245v1.51A.25.25 0 0 0 3.258 5H5v1.742c0 .154.11.258.245.258h1.51A.25.25 0 0 0 7 6.742V5h1.742C8.896 5 9 4.89 9 4.755v-1.51A.25.25 0 0 0 8.742 3H7Z"/></g></svg>