<svg xmlns="http://www.w3.org/2000/svg" width="21" height="15"><defs><linearGradient id="a" x1="50%" x2="50%" y1="0%" y2="100%"><stop offset="0%" stop-color="#FFF"/><stop offset="100%" stop-color="#F0F0F0"/></linearGradient><linearGradient id="b" x1="50%" x2="50%" y1="0%" y2="100%"><stop offset="0%" stop-color="#094CC7"/><stop offset="100%" stop-color="#003CAB"/></linearGradient><linearGradient id="c" x1="50%" x2="50%" y1="0%" y2="100%"><stop offset="0%" stop-color="#2AAD55"/><stop offset="100%" stop-color="#219447"/></linearGradient><linearGradient id="d" x1="50%" x2="50%" y1="0%" y2="100%"><stop offset="0%" stop-color="#F65D55"/><stop offset="100%" stop-color="#E9443C"/></linearGradient><linearGradient id="e" x1="50%" x2="50%" y1="0%" y2="100%"><stop offset="0%" stop-color="#FAE749"/><stop offset="100%" stop-color="#FBE533"/></linearGradient><linearGradient id="f" x1="50%" x2="50%" y1="0%" y2="100%"><stop offset="0%" stop-color="#262626"/><stop offset="100%" stop-color="#0D0D0D"/></linearGradient></defs><g fill="none" fill-rule="evenodd"><path fill="url(#a)" d="M0 0h21v15H0z"/><path fill="url(#b)" d="M0 0h21v5H0z"/><path fill="url(#c)" d="M0 10h21v5H0z"/><path fill="url(#d)" d="M0 5h21v5H0z"/><circle cx="10.5" cy="7.5" r="3.5" fill="url(#e)"/><path fill="url(#f)" d="M10.092 6.211a.5.5 0 1 0 .514-.2c.048-.024.096-.05.144-.078.598-.345.97-.819.833-1.058-.139-.24-.735-.153-1.333.192s-.97.819-.833 1.058c.086.148.347.171.675.086ZM10.5 10.5c-.828 0-1-.724-1-1s.172-.5 1-.5c.828 0 1 .224 1 .5s-.172 1-1 1Zm0-1.5a.5.5 0 1 1 0-1 .5.5 0 0 1 0 1Zm0-1a.5.5 0 1 1 0-1 .5.5 0 0 1 0 1Z"/></g></svg>