<svg xmlns="http://www.w3.org/2000/svg" width="21" height="15"><defs><linearGradient id="a" x1="50%" x2="50%" y1="0%" y2="100%"><stop offset="0%" stop-color="#FFF"/><stop offset="100%" stop-color="#F0F0F0"/></linearGradient><linearGradient id="b" x1="50%" x2="50%" y1="0%" y2="100%"><stop offset="0%" stop-color="#08C47A"/><stop offset="100%" stop-color="#009F60"/></linearGradient><linearGradient id="c" x1="50%" x2="50%" y1="0%" y2="100%"><stop offset="0%" stop-color="#0C87E1"/><stop offset="100%" stop-color="#0073C7"/></linearGradient><linearGradient id="d" x1="50%" x2="50%" y1="0%" y2="100%"><stop offset="0%" stop-color="#FFD147"/><stop offset="100%" stop-color="#FECA2F"/></linearGradient><linearGradient id="e" x1="50%" x2="50%" y1="0%" y2="100%"><stop offset="0%" stop-color="#00C778"/><stop offset="100%" stop-color="#009F60"/></linearGradient></defs><g fill="none" fill-rule="evenodd"><path fill="url(#a)" d="M0 0h21v15H0z"/><path fill="url(#b)" d="M10 0h11v15H10z"/><path fill="url(#c)" d="M0 0h7v15H0z"/><path fill="url(#d)" d="M6 0h9v15H6z"/><path fill="url(#e)" d="m11 6 1.5-3L14 6l-1.5 3L11 6ZM7 6l1.5-3L10 6 8.5 9 7 6Zm2 4 1.5-3 1.5 3-1.5 3L9 10Z"/></g></svg>