<svg xmlns="http://www.w3.org/2000/svg" width="21" height="15"><defs><linearGradient id="a" x1="50%" x2="50%" y1="0%" y2="100%"><stop offset="0%" stop-color="#FFF"/><stop offset="100%" stop-color="#F0F0F0"/></linearGradient><linearGradient id="b" x1="50%" x2="50%" y1="0%" y2="100%"><stop offset="0%" stop-color="#064DAE"/><stop offset="100%" stop-color="#003D91"/></linearGradient><linearGradient id="c" x1="50%" x2="50%" y1="0%" y2="100%"><stop offset="0%" stop-color="#F18D36"/><stop offset="100%" stop-color="#DB761E"/></linearGradient></defs><g fill="none" fill-rule="evenodd"><path fill="url(#a)" d="M0 0h21v15H0z"/><path fill="url(#b)" d="M0 0h21v15H0z"/><path fill="url(#c)" d="M21 0v4L0 15z"/><path fill="url(#a)" d="M21 8V4L0 15zM4.839 4.372 4.5 2l-.339 2.372-.911-1.037.468 1.383-1.383-.468 1.037.911L1 5.5l2.372.339-1.037.911 1.383-.468-.468 1.383.911-1.037L4.5 9l.339-2.372.911 1.037-.468-1.383 1.383.468-1.037-.911L8 5.5l-2.372-.339 1.037-.911-1.383.468.468-1.383-.911 1.037Z"/></g></svg>