<svg xmlns="http://www.w3.org/2000/svg" width="21" height="15"><defs><linearGradient id="a" x1="50%" x2="50%" y1="0%" y2="100%"><stop offset="0%" stop-color="#FFF"/><stop offset="100%" stop-color="#F0F0F0"/></linearGradient><linearGradient id="b" x1="50%" x2="50%" y1="0%" y2="100%"><stop offset="0%" stop-color="#E33F39"/><stop offset="100%" stop-color="#D32E28"/></linearGradient><linearGradient id="c" x1="50%" x2="50%" y1="0%" y2="100%"><stop offset="0%" stop-color="#124BBA"/><stop offset="100%" stop-color="#073DA6"/></linearGradient></defs><g fill="none" fill-rule="evenodd"><path fill="url(#a)" d="M0 0h21v15H0z"/><path fill="url(#b)" d="M0 0h21v5H0z"/><path fill="url(#c)" d="M0 10h21v5H0z"/><path fill="url(#a)" d="M0 5h21v5H0z"/><path fill="#398153" fill-rule="nonzero" d="M10.5 9a1.5 1.5 0 1 0 0-3 1.5 1.5 0 0 0 0 3Zm0 .5a2 2 0 1 1 0-4 2 2 0 0 1 0 4Z"/><circle cx="10.5" cy="7.5" r="1" fill="#E5CF58"/></g></svg>