<svg xmlns="http://www.w3.org/2000/svg" width="21" height="15"><defs><linearGradient id="a" x1="50%" x2="50%" y1="0%" y2="100%"><stop offset="0%" stop-color="#FFF"/><stop offset="100%" stop-color="#F0F0F0"/></linearGradient><linearGradient id="b" x1="50%" x2="50%" y1="0%" y2="100%"><stop offset="0%" stop-color="#1C6DC1"/><stop offset="100%" stop-color="#1660AD"/></linearGradient></defs><g fill="none" fill-rule="evenodd"><path fill="url(#a)" d="M0 0h21v15H0z"/><path fill="url(#b)" d="M0 0h4v4H0V0Zm6 0h4v4H6V0Zm4 0h11v2H10V0Zm0 4h11v2H10V4Zm0 4h11v2H10V8ZM0 12h21v2H0v-2Zm6-6h4v4H6V6ZM0 6h4v4H0V6Z"/></g></svg>