<svg xmlns="http://www.w3.org/2000/svg" width="21" height="15"><defs><linearGradient id="a" x1="50%" x2="50%" y1="0%" y2="100%"><stop offset="0%" stop-color="#FFF"/><stop offset="100%" stop-color="#F0F0F0"/></linearGradient><linearGradient id="b" x1="50%" x2="50%" y1="0%" y2="100%"><stop offset="0%" stop-color="#FF323E"/><stop offset="100%" stop-color="#FD0D1B"/></linearGradient><linearGradient id="c" x1="50%" x2="50%" y1="0%" y2="100%"><stop offset="0%" stop-color="#FFCC51"/><stop offset="100%" stop-color="#FFC63C"/></linearGradient><linearGradient id="d" x1="50%" x2="50%" y1="0%" y2="100%"><stop offset="0%" stop-color="#262626"/><stop offset="100%" stop-color="#0D0D0D"/></linearGradient></defs><g fill="none" fill-rule="evenodd"><path fill="url(#a)" d="M0 0h21v15H0z"/><path fill="url(#b)" d="M0 0h21v15H0z"/><path fill="url(#c)" d="m0 0 13 7.5L0 15z"/><path fill="url(#d)" d="m0 0 9 7.5L0 15z"/><path fill="url(#a)" d="M3.92 8.262 2.62 9.19l.48-1.524-1.284-.951L3.413 6.7l.507-1.515.508 1.515 1.598.015-1.284.95.48 1.525z" transform="rotate(-30 3.92 7.187)"/></g></svg>