<svg xmlns="http://www.w3.org/2000/svg" width="21" height="15"><defs><linearGradient id="a" x1="50%" x2="50%" y1="0%" y2="100%"><stop offset="0%" stop-color="#FFF"/><stop offset="100%" stop-color="#F0F0F0"/></linearGradient><linearGradient id="b" x1="50%" x2="50%" y1="0%" y2="100%"><stop offset="0%" stop-color="#1537D1"/><stop offset="100%" stop-color="#0522A5"/></linearGradient><linearGradient id="c" x1="50%" x2="50%" y1="0%" y2="100%"><stop offset="0%" stop-color="#EA3058"/><stop offset="100%" stop-color="#CE173E"/></linearGradient><linearGradient id="d" x1="50%" x2="50%" y1="0%" y2="100%"><stop offset="0%" stop-color="#FFCF3C"/><stop offset="100%" stop-color="#FECB2F"/></linearGradient></defs><g fill="none" fill-rule="evenodd"><path fill="url(#a)" d="M0 0h21v15H0z"/><path fill="url(#b)" d="M0 0h21v15H0z"/><path fill="url(#c)" d="M10 0h11v15H10z"/><path fill="url(#d)" d="M7 0h7v15H7z"/><path fill="#FFEDB1" d="M9.5 6.5h1V7h-1z"/><path fill="#D32E28" fill-rule="nonzero" d="M9.665 7.96c.025.295.292.54.587.54h.496a.607.607 0 0 0 .587-.54l.122-1.46H9.543l.122 1.46Zm-.624-1.465A.446.446 0 0 1 9.495 6h2.01c.273 0 .477.216.454.495l-.126 1.506c-.046.552-.53.999-1.085.999h-.496c-.553 0-1.039-.443-1.085-.999L9.04 6.495Z"/><path fill="#D32E28" d="M9.5 7h2v.5h-2z"/></g></svg>