<svg xmlns="http://www.w3.org/2000/svg" width="21" height="15"><defs><linearGradient id="a" x1="50%" x2="50%" y1="0%" y2="100%"><stop offset="0%" stop-color="#FFF"/><stop offset="100%" stop-color="#F0F0F0"/></linearGradient><linearGradient id="b" x1="50%" x2="50%" y1="0%" y2="100%"><stop offset="0%" stop-color="#229716"/><stop offset="100%" stop-color="#1C7E12"/></linearGradient><linearGradient id="c" x1="50%" x2="50%" y1="0%" y2="100%"><stop offset="0%" stop-color="#FFE244"/><stop offset="100%" stop-color="#FFDF32"/></linearGradient></defs><g fill="none" fill-rule="evenodd"><path fill="url(#a)" d="M0 0h21v15H0z"/><path fill="url(#b)" d="M0 0h21v15H0z"/><path fill="url(#c)" d="M4 6a2 2 0 1 1 0-4 2 2 0 0 1 0 4Zm0-2c.208 0-.16 1.054 0 1 .265-.09 1-1.328 1-1.5 0-.276-.448-.5-1-.5s-1 .224-1 .5.448.5 1 .5ZM16 13l-.707.207.207-.707-.207-.707L16 12l.707-.207-.207.707.207.707zM16 3.5l-.707.207L15.5 3l-.207-.707L16 2.5l.707-.207L16.5 3l.207.707zM19 6.5l-.707.207L18.5 6l-.207-.707L19 5.5l.707-.207L19.5 6l.207.707zM14 7.5l-.707.207L13.5 7l-.207-.707L14 6.5l.707-.207L14.5 7l.207.707zM17.5 8.75l-.354.104.104-.354-.104-.354.354.104.354-.104-.104.354.104.354zM12.061 5.547a2.5 2.5 0 1 0 0 3.905 2.083 2.083 0 1 1 0-3.905Z"/></g></svg>