<svg xmlns="http://www.w3.org/2000/svg" width="21" height="15"><defs><linearGradient id="a" x1="50%" x2="50%" y1="0%" y2="100%"><stop offset="0%" stop-color="#FFF"/><stop offset="100%" stop-color="#F0F0F0"/></linearGradient><linearGradient id="b" x1="50%" x2="50%" y1="0%" y2="100%"><stop offset="0%" stop-color="#138E16"/><stop offset="100%" stop-color="#0F7F12"/></linearGradient><linearGradient id="c" x1="50%" x2="50%" y1="0%" y2="100%"><stop offset="0%" stop-color="#ED2B35"/><stop offset="100%" stop-color="#D91B25"/></linearGradient></defs><g fill="none" fill-rule="evenodd"><path fill="url(#a)" d="M0 0h21v15H0z"/><path fill="url(#b)" d="M0 10h21v5H0z"/><path fill="url(#c)" d="M0 15h7v-5h14V5H7V0H0z"/><path fill="url(#a)" d="m3.5 3.534-.868 1.268.45-1.47-1.532.113 1.43-.564-1.044-1.128 1.332.766L3.5 1l.232 1.519 1.332-.766L4.02 2.881l1.43.564-1.533-.112.45 1.469zM7 0h14v5H7z"/></g></svg>