<svg xmlns="http://www.w3.org/2000/svg" width="21" height="15"><defs><linearGradient id="a" x1="50%" x2="50%" y1="0%" y2="100%"><stop offset="0%" stop-color="#FFF"/><stop offset="100%" stop-color="#F0F0F0"/></linearGradient><linearGradient id="b" x1="50%" x2="50%" y1="0%" y2="100%"><stop offset="0%" stop-color="#0A17A7"/><stop offset="100%" stop-color="#030E88"/></linearGradient><linearGradient id="c" x1="50%" x2="50%" y1="0%" y2="100%"><stop offset="0%" stop-color="#E6273E"/><stop offset="100%" stop-color="#CF152B"/></linearGradient></defs><g fill="none" fill-rule="evenodd"><path fill="url(#a)" d="M0 0h21v15H0z"/><path fill="url(#b)" d="M-.002 0h21v15h-21z"/><path fill="url(#a)" d="M5.003 10H-.002V5h5.005L-2.082.22l1.118-1.657 8.962 6.045V-1h5v5.608l8.962-6.045L23.078.22 15.993 5h5.005v5h-5.005l7.085 4.78-1.118 1.657-8.962-6.045V16h-5v-5.608l-8.962 6.045-1.118-1.658L5.003 10Z"/><path fill="#DB1F35" fill-rule="nonzero" d="m14.136 4.958 9.5-6.25a.25.25 0 0 0-.275-.417l-9.5 6.25a.25.25 0 1 0 .275.417ZM14.868 10.48l8.515 5.74a.25.25 0 1 0 .28-.415l-8.516-5.74a.25.25 0 0 0-.279.415ZM6.142 4.526-2.74-1.461a.25.25 0 0 0-.28.415L5.863 4.94a.25.25 0 0 0 .279-.414ZM6.827 9.995l-9.845 6.53a.25.25 0 1 0 .276.416l9.846-6.529a.25.25 0 0 0-.277-.417Z"/><path fill="url(#c)" d="M-.002 9h9v6h3V9h9V6h-9V0h-3v6h-9z"/></g></svg>