<svg xmlns="http://www.w3.org/2000/svg" width="21" height="15"><defs><linearGradient id="a" x1="50%" x2="50%" y1="0%" y2="100%"><stop offset="0%" stop-color="#FFF"/><stop offset="100%" stop-color="#F0F0F0"/></linearGradient><linearGradient id="b" x1="50%" x2="50%" y1="0%" y2="100%"><stop offset="0%" stop-color="#FDE048"/><stop offset="100%" stop-color="#FFDF32"/></linearGradient><linearGradient id="c" x1="50%" x2="50%" y1="0%" y2="100%"><stop offset="0%" stop-color="#CDCCCC"/><stop offset="100%" stop-color="#E4E4E4"/></linearGradient><linearGradient id="d" x1="50%" x2="50%" y1="0%" y2="100%"><stop offset="0%" stop-color="#CD9D25"/><stop offset="100%" stop-color="#EBB93A"/></linearGradient><linearGradient id="e" x1="50%" x2="50%" y1="0%" y2="100%"><stop offset="0%" stop-color="#F5252C"/><stop offset="100%" stop-color="#F6151C"/></linearGradient></defs><g fill="none" fill-rule="evenodd"><path fill="url(#a)" d="M0 0h21v15H0z"/><path fill="url(#b)" d="M0 0h21v15H0z"/><path fill="url(#a)" d="M10 0h11v15H10z"/><path fill="url(#c)" d="M18.682 8.025a1.5 1.5 0 1 0-2.415-.414l-2.181 2.182-.354-.354-.353-.353-.707.707.353.353.707.708.354.353.353-.353 2.536-2.536a1.5 1.5 0 0 0 1.707-.293Z" transform="matrix(1 0 0 -1 0 16.672)"/><path fill="url(#d)" d="M14.025 8.318a1.5 1.5 0 1 1 .708-.707l2.181 2.182.354-.354.353-.353.707.707-.353.353-.707.708-.354.353-.353-.353-2.536-2.536Z" transform="matrix(1 0 0 -1 0 16.672)"/><path fill="url(#d)" d="M15.5 5c-.828 0-1.5-.224-1.5-.5s.672-.5 1.5-.5 1.5.224 1.5.5-.672.5-1.5.5Zm0-2.5c-.414 0-.75-.112-.75-.25s.336-.25.75-.25.75.112.75.25-.336.25-.75.25Zm0 1.167c-.552 0-1-.15-1-.334 0-.184.448-.333 1-.333s1 .15 1 .333c0 .184-.448.334-1 .334Z"/><path fill="url(#e)" fill-rule="nonzero" d="M13.026 10.658c.08.242.247.576.527.912.48.576 1.13.93 1.947.93.817 0 1.467-.354 1.947-.93.28-.336.447-.67.527-.912a.5.5 0 1 0-.948-.316 1.98 1.98 0 0 1-.348.588c-.301.362-.683.57-1.178.57-.495 0-.877-.208-1.178-.57a1.98 1.98 0 0 1-.348-.588.5.5 0 1 0-.948.316Z"/></g></svg>