<svg xmlns="http://www.w3.org/2000/svg" width="21" height="15"><defs><linearGradient id="a" x1="50%" x2="50%" y1="0%" y2="100%"><stop offset="0%" stop-color="#FFF"/><stop offset="100%" stop-color="#F0F0F0"/></linearGradient><linearGradient id="b" x1="50%" x2="50%" y1="0%" y2="100%"><stop offset="0%" stop-color="#0C33B8"/><stop offset="100%" stop-color="#05279D"/></linearGradient><linearGradient id="c" x1="50%" x2="50%" y1="0%" y2="100%"><stop offset="0%" stop-color="#1DB158"/><stop offset="100%" stop-color="#149447"/></linearGradient><linearGradient id="d" x1="50%" x2="50%" y1="0%" y2="100%"><stop offset="0%" stop-color="#262626"/><stop offset="100%" stop-color="#0D0D0D"/></linearGradient></defs><g fill="none" fill-rule="evenodd"><path fill="url(#a)" d="M0 0h21v15H0z"/><path fill="url(#b)" d="M0 0h21v5H0z"/><path fill="url(#c)" d="M0 10h21v5H0z"/><path fill="url(#a)" d="M0 5h21v5H0z"/><path fill="url(#d)" d="m10 7.5.342-1.025c.087-.263.228-.266.316 0L11 7.5l.861 1.291c.077.116.057.279-.055.356 0 0-.306.353-1.306.353s-1.306-.353-1.306-.353a.27.27 0 0 1-.055-.356L10 7.5Z"/><path fill="#242424" fill-rule="nonzero" d="M10.5 7.5a1 1 0 1 1 0-2 1 1 0 0 1 0 2Zm0 0c.276 0 .5-.724.5-1a.5.5 0 1 0-1 0c0 .276.224 1 .5 1Z"/></g></svg>