<svg xmlns="http://www.w3.org/2000/svg" width="21" height="15"><defs><linearGradient id="a" x1="50%" x2="50%" y1="0%" y2="100%"><stop offset="0%" stop-color="#FFF"/><stop offset="100%" stop-color="#F0F0F0"/></linearGradient><linearGradient id="b" x1="50%" x2="50%" y1="0%" y2="100%"><stop offset="0%" stop-color="#1461B6"/><stop offset="100%" stop-color="#0B52A1"/></linearGradient><linearGradient id="c" x1="50%" x2="50%" y1="0%" y2="100%"><stop offset="0%" stop-color="#F53846"/><stop offset="100%" stop-color="#EB2130"/></linearGradient></defs><g fill="none" fill-rule="evenodd"><path fill="url(#a)" d="M0 0h21v15H0z"/><path fill="url(#b)" d="M0 0h21v3H0zM0 12h21v3H0z"/><path fill="url(#a)" d="M0 3h21v9H0z"/><path fill="url(#c)" d="M0 4h21v7H0z"/><path fill="url(#a)" d="M7.5 10a2.5 2.5 0 1 1 0-5 2.5 2.5 0 0 1 0 5Zm0-1.497 1.47 1.02-.516-1.713 1.424-1.083-1.788-.039L7.5 5l-.59 1.688-1.788.04L6.546 7.81 6.03 9.523 7.5 8.503Z"/></g></svg>