<svg xmlns="http://www.w3.org/2000/svg" width="21" height="15"><defs><linearGradient id="a" x1="50%" x2="50%" y1="0%" y2="100%"><stop offset="0%" stop-color="#FFF"/><stop offset="100%" stop-color="#F0F0F0"/></linearGradient><linearGradient id="b" x1="50%" x2="50%" y1="0%" y2="100%"><stop offset="0%" stop-color="#219646"/><stop offset="100%" stop-color="#197837"/></linearGradient><linearGradient id="c" x1="50%" x2="50%" y1="0%" y2="100%"><stop offset="0%" stop-color="#259D4B"/><stop offset="100%" stop-color="#197837"/></linearGradient></defs><g fill="none" fill-rule="evenodd"><path fill="url(#a)" d="M0 0h21v15H0z"/><path fill="url(#b)" d="M10 0h11v15H10zM0 0h7v15H0z"/><path fill="url(#a)" d="M6 0h9v15H6z"/><path fill="url(#c)" d="m9.444 4.003.422-1.52A.705.705 0 0 1 10.5 2c.276 0 .562.222.634.484l.422 1.52a.5.5 0 1 0 .248.893l.31 1.116a.501.501 0 0 0-.614.487.5.5 0 0 0 .85.358l.325 1.174a.499.499 0 1 0 .217.779L13.5 11H11v2h-1v-2H7.5l.608-2.19a.5.5 0 1 0 .217-.778l.326-1.174A.498.498 0 0 0 9.5 6.5a.5.5 0 0 0-.615-.487l.31-1.116a.5.5 0 1 0 .248-.893Z"/></g></svg>