<svg xmlns="http://www.w3.org/2000/svg" width="21" height="15"><defs><linearGradient id="a" x1="50%" x2="50%" y1="0%" y2="100%"><stop offset="0%" stop-color="#FFF"/><stop offset="100%" stop-color="#F0F0F0"/></linearGradient><linearGradient id="b" x1="50%" x2="50%" y1="0%" y2="100%"><stop offset="0%" stop-color="#083D96"/><stop offset="100%" stop-color="#053380"/></linearGradient><linearGradient id="c" x1="50%" x2="50%" y1="0%" y2="100%"><stop offset="0%" stop-color="#37AE39"/><stop offset="100%" stop-color="#2E9630"/></linearGradient><linearGradient id="d" x1="50%" x2="50%" y1="0%" y2="100%"><stop offset="0%" stop-color="#FFD13F"/><stop offset="100%" stop-color="#FFCD2F"/></linearGradient><linearGradient id="e" x1="50%" x2="50%" y1="0%" y2="100%"><stop offset="0%" stop-color="#E42346"/><stop offset="100%" stop-color="#D01739"/></linearGradient><linearGradient id="f" x1="50%" x2="50%" y1="0%" y2="100%"><stop offset="0%" stop-color="#FFD03B"/><stop offset="100%" stop-color="#FFCD2F"/></linearGradient></defs><g fill="none" fill-rule="evenodd"><path fill="url(#a)" d="M0 0h21v15H0z"/><path fill="url(#b)" d="M0 0h21v4H0z"/><path fill="url(#c)" d="M0 7h21v4H0z"/><path fill="url(#d)" d="M0 11h21v4H0z"/><path fill="url(#a)" d="M0 4h21v3H0z"/><path fill="url(#e)" d="M8 0h5v15H8z"/><path fill="url(#f)" d="m3.5 2.585-.882.629.326-1.033-.87-.645 1.082-.01L3.5.5l.344 1.027 1.083.01-.87.644.325 1.033z"/></g></svg>