<svg xmlns="http://www.w3.org/2000/svg" width="21" height="15"><defs><linearGradient id="a" x1="50%" x2="50%" y1="0%" y2="100%"><stop offset="0%" stop-color="#FFF"/><stop offset="100%" stop-color="#F0F0F0"/></linearGradient><linearGradient id="b" x1="50%" x2="50%" y1="0%" y2="100%"><stop offset="0%" stop-color="#1DBE4F"/><stop offset="100%" stop-color="#159B3F"/></linearGradient><linearGradient id="c" x1="50%" x2="50%" y1="0%" y2="100%"><stop offset="0%" stop-color="#262626"/><stop offset="100%" stop-color="#0D0D0D"/></linearGradient><linearGradient id="d" x1="50%" x2="50%" y1="0%" y2="100%"><stop offset="0%" stop-color="#FFD646"/><stop offset="100%" stop-color="#FED02F"/></linearGradient></defs><g fill="none" fill-rule="evenodd"><path fill="url(#a)" d="M0 0h21v15H0z"/><path fill="url(#b)" d="M0-.003h21v15H0z"/><path fill="url(#c)" d="m0-.003 9 7.5-9 7.5z"/><path fill="url(#c)" d="m12-.003 9 7.5-9 7.5z" transform="matrix(-1 0 0 1 33 0)"/><path fill="url(#d)" d="M10.5 6.291-.962-1.44-2.08.218l10.792 7.28-10.792 7.279 1.118 1.658L10.5 8.704l11.462 7.73 1.118-1.657-10.791-7.28L23.08.218 21.962-1.44 10.5 6.291Z"/></g></svg>