<svg xmlns="http://www.w3.org/2000/svg" width="21" height="15"><defs><linearGradient id="a" x1="50%" x2="50%" y1="0%" y2="100%"><stop offset="0%" stop-color="#FFF"/><stop offset="100%" stop-color="#F0F0F0"/></linearGradient><linearGradient id="b" x1="50%" x2="50%" y1="0%" y2="100%"><stop offset="0%" stop-color="#07319C"/><stop offset="100%" stop-color="#00247E"/></linearGradient><linearGradient id="c" x1="50%" x2="50%" y1="0%" y2="100%"><stop offset="0%" stop-color="#008339"/><stop offset="100%" stop-color="#00612A"/></linearGradient><linearGradient id="d" x1="50%" x2="50%" y1="0%" y2="100%"><stop offset="0%" stop-color="#FFD033"/><stop offset="100%" stop-color="#FEC403"/></linearGradient><linearGradient id="e" x1="50%" x2="50%" y1="0%" y2="100%"><stop offset="0%" stop-color="#DB1E36"/><stop offset="100%" stop-color="#D51931"/></linearGradient></defs><g fill="none" fill-rule="evenodd"><path fill="url(#a)" d="M0 0h21v15H0z"/><path fill="url(#b)" d="M0 0h21v15H0z"/><path fill="url(#c)" d="M13 7.5V5c0-.553.444-1 1-1h3c.552 0 1 .441 1 1v2.5c0 2.5-2.5 3.5-2.5 3.5S13 10 13 7.5Z"/><path fill="url(#d)" d="M14.5 6a.5.5 0 1 1 0-1 .5.5 0 0 1 0 1Zm0 1a.5.5 0 1 1 0-1 .5.5 0 0 1 0 1Zm0 1a.5.5 0 1 1 0-1 .5.5 0 0 1 0 1Zm0 1a.5.5 0 1 1 0-1 .5.5 0 0 1 0 1Zm2 0a.5.5 0 1 1 0-1 .5.5 0 0 1 0 1Zm0-1a.5.5 0 1 1 0-1 .5.5 0 0 1 0 1Zm0-1a.5.5 0 1 1 0-1 .5.5 0 0 1 0 1Zm0-1a.5.5 0 1 1 0-1 .5.5 0 0 1 0 1Z"/><ellipse cx="15.5" cy="7" fill="url(#a)" rx="1" ry="1.5"/><path fill="url(#d)" fill-rule="nonzero" d="M12.5 10c0 .954 1.366 1.5 3 1.5s3-.546 3-1.5a.5.5 0 1 0-1 0c0 .01-.121.124-.418.243-.403.161-.97.257-1.582.257-.612 0-1.18-.096-1.582-.257-.297-.119-.418-.233-.418-.243a.5.5 0 1 0-1 0Z"/><path fill="url(#a)" fill-rule="nonzero" d="M3 3.23-1.352-.5H.66L4.16 2h.697L9.5-.902V.25c0 .303-.167.627-.418.806L6 3.257v.513l3.137 2.69c.462.395.204 1.04-.387 1.04-.245 0-.545-.096-.75-.242L4.84 5h-.697L-.5 7.902v-1.66l3.5-2.5V3.23Z"/><path fill="url(#e)" d="M3.5 3 0 0h.5L4 2.5h1L9 0v.25a.537.537 0 0 1-.208.399L5.5 3v1l3.312 2.839c.104.089.072.161-.062.161a.898.898 0 0 1-.458-.149L5 4.5H4L0 7v-.5L3.5 4V3Z"/><path fill="url(#a)" d="M0 2.5v2h3.5v2.505c0 .273.214.495.505.495h.99a.496.496 0 0 0 .505-.495V4.5h3.51a.49.49 0 0 0 .49-.505v-.99a.495.495 0 0 0-.49-.505H5.5V0h-2v2.5H0Z"/><path fill="url(#e)" d="M0 3h4V0h1v3h4v1H5v3H4V4H0z"/></g></svg>