<svg xmlns="http://www.w3.org/2000/svg" width="21" height="15"><defs><linearGradient id="a" x1="50%" x2="50%" y1="0%" y2="100%"><stop offset="0%" stop-color="#FFF"/><stop offset="100%" stop-color="#F0F0F0"/></linearGradient><linearGradient id="b" x1="50%" x2="50%" y1="0%" y2="100%"><stop offset="0%" stop-color="#FF323E"/><stop offset="100%" stop-color="#FD0D1B"/></linearGradient><linearGradient id="c" x1="50%" x2="50%" y1="0%" y2="100%"><stop offset="0%" stop-color="#262626"/><stop offset="100%" stop-color="#0D0D0D"/></linearGradient><linearGradient id="d" x1="50%" x2="50%" y1="0%" y2="100%"><stop offset="0%" stop-color="#DD2137"/><stop offset="100%" stop-color="#CC162C"/></linearGradient><linearGradient id="e" x1="50%" x2="50%" y1="0%" y2="100%"><stop offset="0%" stop-color="#F8D84B"/><stop offset="100%" stop-color="#F9D536"/></linearGradient></defs><g fill="none" fill-rule="evenodd"><path fill="url(#a)" d="M0 0h21v15H0z"/><path fill="url(#b)" d="M0 0h21v15H0z"/><path fill="url(#c)" d="M0 8h21v7H0z"/><path fill="url(#d)" d="M0 0h21v8H0z"/><path fill="url(#e)" fill-rule="nonzero" d="m10.63 8.855-1.407-.939a.5.5 0 0 1 .554-.832l1.536 1.024a2 2 0 0 0-1.253-2.863.5.5 0 1 1 .259-.966 3 3 0 0 1 1.83 4.386l.628.419a.5.5 0 0 1-.554.832l-.713-.475c-.727.631-1.744.901-2.744.633a.5.5 0 0 1 .259-.966c.57.153 1.147.044 1.606-.253ZM9.5 6.5a.5.5 0 1 1 0-1 .5.5 0 0 1 0 1Z"/></g></svg>