<svg xmlns="http://www.w3.org/2000/svg" width="21" height="15"><defs><linearGradient id="a" x1="50%" x2="50%" y1="0%" y2="100%"><stop offset="0%" stop-color="#FFF"/><stop offset="100%" stop-color="#F0F0F0"/></linearGradient><linearGradient id="b" x1="50%" x2="50%" y1="0%" y2="100%"><stop offset="0%" stop-color="#95CEF5"/><stop offset="100%" stop-color="#78B3DC"/></linearGradient></defs><g fill="none" fill-rule="evenodd"><path fill="url(#a)" d="M0 0h21v15H0z"/><path fill="url(#b)" d="M0 0h21v15H0z"/><path fill="url(#a)" d="m10.5 4.32-1.176.798.396-1.365-1.122-.871 1.42-.045L10.5 1.5l.482 1.337 1.42.045-1.122.871.396 1.365L10.5 4.32Zm0 8-1.176.798.396-1.365-1.122-.871 1.42-.045L10.5 9.5l.482 1.337 1.42.045-1.122.871.396 1.365-1.176-.798Zm4-4-1.176.798.396-1.365-1.122-.871 1.42-.045L14.5 5.5l.482 1.337 1.42.045-1.122.871.396 1.365L14.5 8.32Zm-8 0-1.176.798.396-1.365-1.122-.871 1.42-.045L6.5 5.5l.482 1.337 1.42.045-1.122.871.396 1.365L6.5 8.32Z"/></g></svg>