<svg xmlns="http://www.w3.org/2000/svg" width="128" height="128"><path d="M8 18v96a2 2 45 002 2h15a2 2 135 002-2V37h8c1.105 0 2.91-.027 3.982.232 3.675.888 5.907 4.156 6.695 6.801.314 1.055.323 2.862.323 3.967v66a2 2 45 002 2h15a2 2 135 002-2V98h18v16a2 2 45 002 2h15a2 2 135 002-2V98h16a2 2 135 002-2V80h-18V61H83v19H65V48c0-1.105.008-2.898-.097-3.997-1.068-11.18-10.844-24.732-24.905-25.92C38.898 17.992 37.105 18 36 18z" fill="#d38c2d"/><path d="M8 16v94a2 2 45 002 2h15a2 2 135 002-2V33h8c1.105 0 2.91-.027 3.982.232 3.675.888 5.907 4.156 6.695 6.801.314 1.055.323 2.862.323 3.967v66a2 2 45 002 2h15a2 2 135 002-2V94h18v16a2 2 45 002 2h15a2 2 135 002-2V94h16a2 2 135 002-2V78a2 2 45 00-2-2h-16V59a2 2 45 00-2-2H85a2 2 135 00-2 2v17H65V44c0-1.105.008-2.898-.097-3.997-1.068-11.18-10.844-24.732-24.905-25.92C38.898 13.992 37.105 14 36 14H10a2 2 135 00-2 2z" fill="#f9aa40"/></svg>
