<svg xmlns="http://www.w3.org/2000/svg" width="128" height="128"><path d="m 8,18 v 95 a 3,3 45 0 0 3,3 l 13,0 a 3,3 135 0 0 3,-3 V 37 h 7 c 1.656854,0 4.395425,-0.0563 5.936757,0.526301 2.712315,1.025222 4.514641,3.381181 5.406976,5.564337 C 45.966942,44.615358 46,47.343146 46,49 v 64 a 3,3 45 0 0 3,3 l 13,0 a 3,3 135 0 0 3,-3 V 98 h 18 v 15 a 3,3 45 0 0 3,3 l 13,0 a 3,3 135 0 0 3,-3 V 98 h 15 a 3,3 135 0 0 3,-3 V 80 H 102 V 61 H 83 V 80 H 65 V 49 c 0,-1.656854 0.01456,-4.350287 -0.214139,-5.989946 C 63.292739,32.304904 54.110468,19.861322 40.992013,18.189195 39.349558,17.979842 36.656854,18 35,18 Z" fill="#d38c2d"/><path d="m 8,17 v 92 a 3,3 45 0 0 3,3 h 13 a 3,3 135 0 0 3,-3 V 33 h 7 c 1.656854,0 4.395425,-0.0563 5.936757,0.526301 2.712315,1.025222 4.514641,3.381181 5.406976,5.564337 C 45.966942,40.615358 46,43.343146 46,45 v 64 a 3,3 45 0 0 3,3 h 13 a 3,3 135 0 0 3,-3 V 94 h 18 v 15 a 3,3 45 0 0 3,3 h 13 a 3,3 135 0 0 3,-3 V 94 h 15 a 3,3 135 0 0 3,-3 V 79 a 3,3 45 0 0 -3,-3 H 102 V 60 A 3,3 45 0 0 99,57 H 86 a 3,3 135 0 0 -3,3 V 76 H 65 V 45 c 0,-1.656854 0.01456,-4.350287 -0.214139,-5.989946 C 63.292739,28.304904 54.110468,15.861322 40.992013,14.189195 39.349558,13.979842 36.656854,14 35,14 H 11 a 3,3 135 0 0 -3,3 z" fill="#f9aa40"/></svg>
