<svg xmlns="http://www.w3.org/2000/svg" width="128" height="128"><path d="m 8,15 v 98 a 3,3 45 0 0 3,3 h 14 a 3,3 135 0 0 3,-3 V 36 h 5 c 1.656854,0 4.353503,-0.03822 5.989459,0.213763 5.081796,0.782724 8.014055,3.714983 8.796778,8.796778 C 48.038215,46.646497 48,49.343146 48,51 v 62 a 3,3 45 0 0 3,3 h 14 a 3,3 135 0 0 3,-3 v -13 h 16 v 13 a 3,3 45 0 0 3,3 h 14 a 3,3 135 0 0 3,-3 v -13 h 13 a 3,3 135 0 0 3,-3 V 83 l -3,-3 H 104 V 63 l -3,-3 H 87 l -3,3 0,17 H 68 V 51 C 68,49.343146 68.01096,46.653898 67.865329,45.003993 66.598402,30.650477 56.518649,14.365537 42.98776,12.234243 41.352761,11.976709 38.656854,12 37,12 H 11 Z" fill="#d38c2d"/><path d="m 8,15 v 94 a 3,3 45 0 0 3,3 h 14 a 3,3 135 0 0 3,-3 V 32 h 5 c 1.656854,0 4.353503,-0.03822 5.989459,0.213763 5.081796,0.782724 8.014055,3.714983 8.796778,8.796778 C 48.038215,42.646497 48,45.343146 48,47 v 62 a 3,3 45 0 0 3,3 h 14 a 3,3 135 0 0 3,-3 V 96 h 16 v 13 a 3,3 45 0 0 3,3 h 14 a 3,3 135 0 0 3,-3 V 96 h 13 a 3,3 135 0 0 3,-3 V 83 a 3,3 45 0 0 -3,-3 H 104 V 63 a 3,3 45 0 0 -3,-3 H 87 a 3,3 135 0 0 -3,3 l 0,17 H 68 V 47 c 0,-1.656854 0.01334,-4.346454 -0.138639,-5.995739 C 66.577637,27.072862 56.506757,13.905468 42.992055,12.188751 41.349502,11.980104 38.656854,12 37,12 H 11 a 3,3 135 0 0 -3,3 z" fill="#f9aa40"/></svg>