<?xml version="1.0" encoding="UTF-8" standalone="no"?>
<!-- Created with Inkscape (http://www.inkscape.org/) -->

<svg
   xmlns:dc="http://purl.org/dc/elements/1.1/"
   xmlns:cc="http://creativecommons.org/ns#"
   xmlns:rdf="http://www.w3.org/1999/02/22-rdf-syntax-ns#"
   xmlns:svg="http://www.w3.org/2000/svg"
   xmlns="http://www.w3.org/2000/svg"
   xmlns:xlink="http://www.w3.org/1999/xlink"
   xmlns:sodipodi="http://sodipodi.sourceforge.net/DTD/sodipodi-0.dtd"
   xmlns:inkscape="http://www.inkscape.org/namespaces/inkscape"
   id="svg2"
   version="1.1"
   inkscape:version="0.47 r22583"
   width="96"
   height="96"
   sodipodi:docname="nicotine-plus.svg"
   inkscape:export-filename="/home/quinox/chroot/opt/nicotine+/files/nicotine-plus-96px.png"
   inkscape:export-xdpi="90"
   inkscape:export-ydpi="90">
  <metadata
     id="metadata8">
    <rdf:RDF>
      <cc:Work
         rdf:about="">
        <dc:format>image/svg+xml</dc:format>
        <dc:type
           rdf:resource="http://purl.org/dc/dcmitype/StillImage" />
        <dc:title></dc:title>
      </cc:Work>
    </rdf:RDF>
  </metadata>
  <defs
     id="defs6">
    <inkscape:perspective
       sodipodi:type="inkscape:persp3d"
       inkscape:vp_x="0 : 0.5 : 1"
       inkscape:vp_y="0 : 1000 : 0"
       inkscape:vp_z="1 : 0.5 : 1"
       inkscape:persp3d-origin="0.5 : 0.33333333 : 1"
       id="perspective10" />
  </defs>
  <sodipodi:namedview
     pagecolor="#ffffff"
     bordercolor="#666666"
     borderopacity="1"
     objecttolerance="10"
     gridtolerance="10"
     guidetolerance="10"
     inkscape:pageopacity="0"
     inkscape:pageshadow="2"
     inkscape:window-width="1022"
     inkscape:window-height="747"
     id="namedview4"
     showgrid="false"
     showguides="true"
     inkscape:guide-bbox="true"
     inkscape:zoom="4.7562188"
     inkscape:cx="42.260204"
     inkscape:cy="48.761827"
     inkscape:window-x="0"
     inkscape:window-y="19"
     inkscape:window-maximized="0"
     inkscape:current-layer="layer1"
     units="cm"
     borderlayer="false" />
  <g
     inkscape:groupmode="layer"
     id="layer1"
     inkscape:label="glow"
     style="display:inline"
     transform="translate(-950.83099,-208.55722)">
    <use
       x="0"
       y="0"
       xlink:href="#g3692"
       id="use3721"
       style="fill:#4fbf32;fill-opacity:1;stroke:#ada7c8;stroke-width:12;stroke-linecap:round;stroke-linejoin:round;stroke-miterlimit:4;stroke-opacity:1;stroke-dasharray:none"
       width="1293"
       height="804"
       transform="matrix(1,0,0,0.99671381,-6.2530762e-5,0.84307137)" />
  </g>
  <g
     inkscape:groupmode="layer"
     id="layer2"
     inkscape:label="body"
     style="display:inline"
     transform="translate(-950.83099,-208.55722)">
    <g
       id="g3692"
       style="fill:#f2ad19;fill-opacity:1"
       transform="matrix(0.34890587,0,0,0.34890587,620.83769,185.38812)">
      <path
         id="path2856"
         d="m 951.78496,318.74131 43.41162,0 0,-34.19408 -43.41162,0 0,34.19408 z"
         style="fill:#f2ad19;fill-opacity:1" />
      <path
         id="path2864"
         d="m 1040.9869,318.74131 0,-7.13615 43.1143,0 0,7.13615 -43.1143,0 z"
         style="fill:#f2ad19;fill-opacity:1" />
      <path
         id="path2866"
         d="m 1040.9869,305.36102 0,-4.4601 43.1143,0 0,4.4601 -43.1143,0 z"
         style="fill:#f2ad19;fill-opacity:1" />
      <path
         id="path2868"
         d="m 1040.9869,294.35944 0,-4.16275 43.1143,0 0,4.16275 -43.1143,0 z"
         style="fill:#f2ad19;fill-opacity:1" />
      <path
         sodipodi:nodetypes="ccccccccccccccccccccccc"
         id="path2872"
         d="m 952.01674,276.69038 -0.23178,-187.49545 73.14564,0 c 30.2667,0 59.1706,36.2373 59.1706,61.76532 l 0,80.95782 43.709,0 0,-43.41162 44.0063,0 0,43.41162 43.1143,0 0,44.60098 -43.1143,0 0,42.22226 -44.0063,0 0,-42.22226 -43.709,0 0,8.02818 -43.1143,0 0,-133.58698 c 0,-6.89564 -7.1485,-18.94838 -16.0563,-18.94838 l -29.73402,0 0,144.50718 -43.17984,0.17133 z"
         style="fill:#f2ad19;fill-opacity:1" />
    </g>
  </g>
</svg>
