<svg xmlns="http://www.w3.org/2000/svg" width="16" height="16"><path d="M0 1.667v12.666A.667.667 0 00.667 15h1.666A.667.667 0 003 14.333V4h.333c.369 0 .977.003 1.311.151.5.223.984.67 1.215 1.202.146.335.141.945.141 1.314v7.666a.667.667 0 00.667.667h1.666A.667.667 0 009 14.333V13h2v1.333a.667.667 0 00.667.667h1.666a.667.667 0 00.667-.667V13h1.333a.667.667 0 00.667-.667v-.666a.667.667 0 00-.667-.667H14V8.667A.667.667 0 0013.333 8h-1.666a.667.667 0 00-.667.667V11H9V6.667c0-.369-.007-.968-.08-1.328-.284-1.388-1.379-3.954-4.255-4.3C4.3.995 3.702 1 3.333 1H.667A.667.667 0 000 1.667z" fill="#bebebe"/></svg>
