<svg xmlns="http://www.w3.org/2000/svg" width="128" height="128"><path d="m 8,18 v 96 a 2,2 45 0 0 2,2 h 15 a 2,2 135 0 0 2,-2 V 37 h 8 c 1.104569,0 2.910645,-0.02706 3.981797,0.231745 3.674994,0.887939 5.906714,4.156109 6.695162,6.801314 C 45.991418,45.088056 46,46.895431 46,48 v 66 a 2,2 45 0 0 2,2 h 15 a 2,2 135 0 0 2,-2 V 98 h 18 v 16 a 2,2 45 0 0 2,2 h 15 a 2,2 135 0 0 2,-2 l 0,-16 h 16 a 2,2 135 0 0 2,-2 l 0,-16 H 102 V 61 H 83 V 80 H 65 V 48 c 0,-1.104569 0.0077,-2.89773 -0.09728,-3.996876 C 63.834534,32.82361 54.05899,19.271026 39.997647,18.083911 38.897318,17.991016 37.104569,18 36,18 Z" fill="#d38c2d"/><path d="m 8,16 v 94 a 2,2 45 0 0 2,2 h 15 a 2,2 135 0 0 2,-2 V 33 h 8 c 1.104569,0 2.910645,-0.02706 3.981797,0.231745 3.674994,0.887939 5.906714,4.156109 6.695162,6.801314 C 45.991418,41.088056 46,42.895431 46,44 v 66 a 2,2 45 0 0 2,2 h 15 a 2,2 135 0 0 2,-2 V 94 h 18 v 16 a 2,2 45 0 0 2,2 h 15 a 2,2 135 0 0 2,-2 l 0,-16 h 16 a 2,2 135 0 0 2,-2 l 0,-14 a 2,2 45 0 0 -2,-2 H 102 V 59 a 2,2 45 0 0 -2,-2 H 85 a 2,2 135 0 0 -2,2 V 76 H 65 V 44 c 0,-1.104569 0.0077,-2.89773 -0.09728,-3.996876 C 63.834534,28.82361 54.05899,15.271026 39.997647,14.083911 38.897318,13.991016 37.104569,14 36,14 H 10 a 2,2 135 0 0 -2,2 z" fill="#f9aa40"/></svg>