<?xml version="1.0" encoding="UTF-8"?>
<svg height="16px" viewBox="0 0 16 16" width="16px" xmlns="http://www.w3.org/2000/svg">
    <g fill="#2e3436">
        <path d="m 8 0 c -1.660156 0 -3 1.339844 -3 3 v 5 c 0 1.664062 1.339844 3 3 3 c 0.359375 0 0.699219 -0.066406 1.015625 -0.179688 c 0.039063 -0.453124 0.230469 -0.894531 0.570313 -1.234374 c 0.332031 -0.332032 0.769531 -0.535157 1.234374 -0.574219 c 0.113282 -0.316407 0.179688 -0.65625 0.179688 -1.011719 v -5 c 0 -1.660156 -1.335938 -3 -3 -3 z m 0 2 c 0.554688 0 1 0.445312 1 1 v 5 c 0 0.554688 -0.445312 1 -1 1 s -1 -0.445312 -1 -1 v -5 c 0 -0.554688 0.445312 -1 1 -1 z m -6 4 v 2.011719 c 0 2.964843 2.164062 5.421875 5 5.898437 v 2.089844 h 2 v -2.089844 c 0.128906 -0.019531 0.253906 -0.046875 0.382812 -0.078125 c 0.058594 -0.085937 0.125 -0.167969 0.203126 -0.246093 l 0.414062 -0.414063 v -0.34375 l -0.414062 -0.414063 c -0.050782 -0.050781 -0.097657 -0.105468 -0.144532 -0.160156 c -0.449218 0.152344 -0.933594 0.246094 -1.441406 0.246094 c -2.507812 0 -4.5 -1.988281 -4.5 -4.488281 v -2.011719 z m 10.5 0 v 2.011719 c 0 0.503906 -0.089844 0.980469 -0.246094 1.429687 c 0.054688 0.046875 0.109375 0.09375 0.160156 0.144532 l 0.414063 0.414062 h 0.34375 l 0.414063 -0.414062 c 0.078124 -0.078126 0.160156 -0.144532 0.25 -0.207032 c 0.105468 -0.441406 0.164062 -0.898437 0.164062 -1.367187 v -2.011719 z m 0 0" fill-opacity="0.34902"/>
        <path d="m 11 10 c -0.265625 0 -0.519531 0.105469 -0.707031 0.292969 c -0.390625 0.390625 -0.390625 1.023437 0 1.414062 l 1.292969 1.292969 l -1.292969 1.292969 c -0.390625 0.390625 -0.390625 1.023437 0 1.414062 s 1.023437 0.390625 1.414062 0 l 1.292969 -1.292969 l 1.292969 1.292969 c 0.390625 0.390625 1.023437 0.390625 1.414062 0 s 0.390625 -1.023437 0 -1.414062 l -1.292969 -1.292969 l 1.292969 -1.292969 c 0.390625 -0.390625 0.390625 -1.023437 0 -1.414062 c -0.1875 -0.1875 -0.441406 -0.292969 -0.707031 -0.292969 s -0.519531 0.105469 -0.707031 0.292969 l -1.292969 1.292969 l -1.292969 -1.292969 c -0.1875 -0.1875 -0.441406 -0.292969 -0.707031 -0.292969 z m 0 0"/>
    </g>
</svg>
