<?xml version="1.0" encoding="UTF-8"?>
<svg height="16px" viewBox="0 0 16 16" width="16px" xmlns="http://www.w3.org/2000/svg">
    <path d="m 8 1.992188 c -2.617188 0 -5.238281 0.933593 -7.191406 2.808593 l -0.5 0.480469 c -0.3984378 0.378906 -0.410156 1.011719 -0.03125 1.410156 c 0.382812 0.398438 1.015625 0.410156 1.414062 0.03125 l 0.5 -0.476562 c 3.089844 -2.957032 8.53125 -2.957032 11.617188 0 l 0.5 0.476562 c 0.398437 0.378906 1.03125 0.367188 1.414062 -0.03125 c 0.382813 -0.398437 0.367188 -1.03125 -0.03125 -1.410156 l -0.496094 -0.480469 c -1.957031 -1.875 -4.578124 -2.808593 -7.195312 -2.808593 z m -0.03125 4.007812 c -1.570312 0.011719 -3.128906 0.628906 -4.207031 1.816406 l -0.5 0.546875 c -0.179688 0.195313 -0.273438 0.453125 -0.261719 0.71875 s 0.128906 0.515625 0.328125 0.695313 c 0.195313 0.179687 0.453125 0.273437 0.71875 0.257812 c 0.265625 -0.011718 0.515625 -0.128906 0.695313 -0.324218 l 0.496093 -0.546876 c 1.277344 -1.40625 4.160157 -1.5 5.523438 0 l 0.5 0.546876 c 0.175781 0.195312 0.425781 0.3125 0.691406 0.324218 c 0.265625 0.015625 0.523437 -0.078125 0.722656 -0.257812 c 0.195313 -0.179688 0.3125 -0.429688 0.324219 -0.695313 c 0.011719 -0.261719 -0.082031 -0.523437 -0.261719 -0.71875 l -0.5 -0.546875 c -1.121093 -1.234375 -2.703125 -1.828125 -4.269531 -1.816406 z m 0.03125 4 c -0.511719 0 -1.023438 0.195312 -1.414062 0.585938 c -0.78125 0.78125 -0.78125 2.046874 0 2.828124 s 2.046874 0.78125 2.828124 0 s 0.78125 -2.046874 0 -2.828124 c -0.390624 -0.390626 -0.902343 -0.585938 -1.414062 -0.585938 z m 0 0" fill="#2e3436"/>
</svg>
