<?xml version="1.0" encoding="UTF-8" standalone="no"?>
<svg
   width="128"
   height="128"
   version="1.1"
   id="svg893"
   sodipodi:docname="source-square.svg"
   inkscape:version="1.2.1 (9c6d41e410, 2022-07-14)"
   xmlns:inkscape="http://www.inkscape.org/namespaces/inkscape"
   xmlns:sodipodi="http://sodipodi.sourceforge.net/DTD/sodipodi-0.dtd"
   xmlns="http://www.w3.org/2000/svg"
   xmlns:svg="http://www.w3.org/2000/svg"
   xmlns:rdf="http://www.w3.org/1999/02/22-rdf-syntax-ns#"
   xmlns:cc="http://creativecommons.org/ns#"
   xmlns:dc="http://purl.org/dc/elements/1.1/">
  <metadata
     id="metadata899">
    <rdf:RDF>
      <cc:Work
         rdf:about="">
        <dc:format>image/svg+xml</dc:format>
        <dc:type
           rdf:resource="http://purl.org/dc/dcmitype/StillImage" />
      </cc:Work>
    </rdf:RDF>
  </metadata>
  <defs
     id="defs897" />
  <sodipodi:namedview
     pagecolor="#ffffff"
     bordercolor="#666666"
     borderopacity="1"
     objecttolerance="10"
     gridtolerance="10"
     guidetolerance="10"
     inkscape:pageopacity="0"
     inkscape:pageshadow="2"
     inkscape:window-width="1920"
     inkscape:window-height="1011"
     id="namedview895"
     showgrid="true"
     inkscape:zoom="4.3862718"
     inkscape:cx="85.949986"
     inkscape:cy="76.830624"
     inkscape:window-x="0"
     inkscape:window-y="0"
     inkscape:window-maximized="1"
     inkscape:current-layer="svg893"
     inkscape:document-rotation="0"
     inkscape:pagecheckerboard="0"
     inkscape:showpageshadow="2"
     inkscape:deskcolor="#d1d1d1">
    <inkscape:grid
       type="xygrid"
       id="grid1549" />
  </sodipodi:namedview>
  <path
     d="M 12,12 V 116 H 32 V 36 h 8 c 8,0 12,4 12,12 v 68 h 20 v -16 h 16 v 16 h 20 v -16 h 16 V 80 H 108 V 60 H 88 V 80 H 72 V 48 C 44,12 72,48 44,12 Z"
     fill="#d38c2d"
     id="path889"
     sodipodi:nodetypes="ccccssccccccccccccccccc"
     style="stroke-width:1" />
  <path
     d="M 12,12 V 112 H 32 V 32 h 8 c 8,0 12,4 12,12 v 68 H 72 V 96 h 16 v 16 h 20 V 96 h 16 V 80 H 108 V 60 H 88 V 80 H 72 V 44 C 72,28 60,12 44,12 Z"
     fill="#f9aa40"
     id="path891"
     sodipodi:nodetypes="ccccssccccccccccccccssc"
     style="stroke-width:1" />
</svg>
