<?xml version="1.0" encoding="UTF-8" standalone="no"?>
<svg
   width="24"
   height="24"
   version="1.1"
   id="svg10"
   sodipodi:docname="source-square-24.svg"
   inkscape:version="1.2.1 (9c6d41e410, 2022-07-14)"
   xmlns:inkscape="http://www.inkscape.org/namespaces/inkscape"
   xmlns:sodipodi="http://sodipodi.sourceforge.net/DTD/sodipodi-0.dtd"
   xmlns="http://www.w3.org/2000/svg"
   xmlns:svg="http://www.w3.org/2000/svg"
   xmlns:rdf="http://www.w3.org/1999/02/22-rdf-syntax-ns#"
   xmlns:cc="http://creativecommons.org/ns#"
   xmlns:dc="http://purl.org/dc/elements/1.1/">
  <metadata
     id="metadata16">
    <rdf:RDF>
      <cc:Work
         rdf:about="">
        <dc:format>image/svg+xml</dc:format>
        <dc:type
           rdf:resource="http://purl.org/dc/dcmitype/StillImage" />
      </cc:Work>
    </rdf:RDF>
  </metadata>
  <defs
     id="defs14" />
  <sodipodi:namedview
     pagecolor="#ffffff"
     bordercolor="#666666"
     borderopacity="1"
     objecttolerance="10"
     gridtolerance="10"
     guidetolerance="10"
     inkscape:pageopacity="0"
     inkscape:pageshadow="2"
     inkscape:window-width="1920"
     inkscape:window-height="1011"
     id="namedview12"
     showgrid="true"
     inkscape:zoom="11.313709"
     inkscape:cx="8.9272231"
     inkscape:cy="13.876971"
     inkscape:window-x="0"
     inkscape:window-y="0"
     inkscape:window-maximized="1"
     inkscape:current-layer="svg10"
     inkscape:document-rotation="0"
     inkscape:pagecheckerboard="0"
     inkscape:showpageshadow="2"
     inkscape:deskcolor="#d1d1d1">
    <inkscape:grid
       type="xygrid"
       id="grid841" />
  </sodipodi:namedview>
  <path
     d="M 2,2 V 22 H 6 V 7 h 1 c 2,0 3,1 3,3 v 12 h 4 v -3 h 3 v 3 h 4 v -3 h 3 v -4 h -3 v -4 h -4 v 4 H 14 V 10 C 7.5,2 14,10 7.5,2 Z"
     fill="#d38c2d"
     id="path2"
     sodipodi:nodetypes="ccccssccccccccccccccccc"
     style="stroke-width:0.458334" />
  <path
     d="M 2,2 V 21 H 6 V 6 h 1 c 2,0 3,1 3,3 v 12 h 4 v -3 h 3 v 3 h 4 v -3 h 3 v -3 h -3 v -4 h -4 v 4 H 14 V 9 C 14,7 13,2 7.5,2 Z"
     fill="#f9aa40"
     id="path4"
     sodipodi:nodetypes="ccccssccccccccccccccssc"
     style="stroke-width:0.458334" />
</svg>
