<?xml version="1.0" encoding="UTF-8" standalone="no"?>
<svg
   width="48"
   height="48"
   version="1.1"
   id="svg10"
   sodipodi:docname="source-away-square.svg"
   inkscape:version="1.3.2 (091e20ef0f, 2023-11-25)"
   xmlns:inkscape="http://www.inkscape.org/namespaces/inkscape"
   xmlns:sodipodi="http://sodipodi.sourceforge.net/DTD/sodipodi-0.dtd"
   xmlns="http://www.w3.org/2000/svg"
   xmlns:svg="http://www.w3.org/2000/svg"
   xmlns:rdf="http://www.w3.org/1999/02/22-rdf-syntax-ns#"
   xmlns:cc="http://creativecommons.org/ns#"
   xmlns:dc="http://purl.org/dc/elements/1.1/">
  <metadata
     id="metadata16">
    <rdf:RDF>
      <cc:Work
         rdf:about="">
        <dc:format>image/svg+xml</dc:format>
        <dc:type
           rdf:resource="http://purl.org/dc/dcmitype/StillImage" />
      </cc:Work>
    </rdf:RDF>
  </metadata>
  <defs
     id="defs14" />
  <sodipodi:namedview
     pagecolor="#ffffff"
     bordercolor="#666666"
     borderopacity="1"
     objecttolerance="10"
     gridtolerance="10"
     guidetolerance="10"
     inkscape:pageopacity="0"
     inkscape:pageshadow="2"
     inkscape:window-width="1920"
     inkscape:window-height="1011"
     id="namedview12"
     showgrid="true"
     inkscape:zoom="4"
     inkscape:cx="62.25"
     inkscape:cy="29"
     inkscape:window-x="0"
     inkscape:window-y="0"
     inkscape:window-maximized="1"
     inkscape:current-layer="svg10"
     inkscape:document-rotation="0"
     inkscape:pagecheckerboard="0"
     inkscape:showpageshadow="2"
     inkscape:deskcolor="#d1d1d1">
    <inkscape:grid
       type="xygrid"
       id="grid841"
       originx="0"
       originy="0"
       spacingy="1"
       spacingx="1"
       units="px"
       visible="true" />
  </sodipodi:namedview>
  <path
     d="M 0,3 V 48 H 9 V 15 h 3 c 3,0 6,3 6,6 v 27 h 9 v -6 h 6 v 6 h 9 v -6 h 6 v -9 h -6 v -9 h -9 v 9 H 27 V 21 C 12,3 27,21 12,3 Z"
     fill="#d38c2d"
     id="path2"
     sodipodi:nodetypes="ccccssccccccccccccccccc" />
  <path
     d="M 0,3 V 45 H 9 V 12 h 3 c 3,0 6,3 6,6 v 27 h 9 v -6 h 6 v 6 h 9 v -6 h 6 v -6 h -6 v -9 h -9 v 9 H 27 V 18 C 27,15 24,3 12,3 Z"
     fill="#f9aa40"
     id="path4"
     sodipodi:nodetypes="ccccssccccccccccccccssc" />
  <path
     id="circle2"
     style="fill:#927f0d"
     d="M 47.943359 10.001953 L 30.072266 10 A 9 9 0 0 0 30 11 A 9 9 0 0 0 39 20 A 9 9 0 0 0 48 11 A 9 9 0 0 0 47.943359 10.001953 z " />
  <path
     id="circle8"
     d="M 38.257812 0.052734375 A 9 9 0 0 0 30 9 A 9 9 0 0 0 39 18 A 9 9 0 0 0 47.947266 9.7421875 A 8 8 0 0 1 46 10 A 8 8 0 0 1 38 2 A 8 8 0 0 1 38.257812 0.052734375 z "
     style="fill:#e0c314;fill-opacity:1" />
</svg>
