<?xml version="1.0" encoding="UTF-8" standalone="no"?>
<svg
   width="24"
   height="24"
   version="1.1"
   id="svg10"
   sodipodi:docname="source-rounded-24.svg"
   inkscape:version="1.2.1 (9c6d41e410, 2022-07-14)"
   xmlns:inkscape="http://www.inkscape.org/namespaces/inkscape"
   xmlns:sodipodi="http://sodipodi.sourceforge.net/DTD/sodipodi-0.dtd"
   xmlns="http://www.w3.org/2000/svg"
   xmlns:svg="http://www.w3.org/2000/svg"
   xmlns:rdf="http://www.w3.org/1999/02/22-rdf-syntax-ns#"
   xmlns:cc="http://creativecommons.org/ns#"
   xmlns:dc="http://purl.org/dc/elements/1.1/">
  <metadata
     id="metadata16">
    <rdf:RDF>
      <cc:Work
         rdf:about="">
        <dc:format>image/svg+xml</dc:format>
        <dc:type
           rdf:resource="http://purl.org/dc/dcmitype/StillImage" />
      </cc:Work>
    </rdf:RDF>
  </metadata>
  <defs
     id="defs14">
    <inkscape:path-effect
       effect="fillet_chamfer"
       id="path-effect1464"
       is_visible="true"
       lpeversion="1"
       satellites_param="F,0,0,1,0,1,0,1 @ F,0,0,1,0,1,0,1 @ F,0,0,1,0,1,0,1 @ F,0,0,1,0,0,0,1 @ F,0,0,1,0,1,0,1 @ F,0,0,1,0,1,0,1 @ F,0,0,1,0,1,0,1 @ F,0,0,1,0,1,0,1 @ F,0,0,1,0,0,0,1 @ F,0,0,1,0,0,0,1 @ F,0,0,1,0,1,0,1 @ F,0,0,1,0,1,0,1 @ F,0,0,1,0,0,0,1 @ F,0,0,1,0,1,0,1 @ F,0,0,1,0,1,0,1 @ F,0,0,1,0,0,0,1 @ F,0,0,1,0,1,0,1 @ F,0,0,1,0,1,0,1 @ F,0,0,1,0,0,0,1 @ F,0,0,1,0,0,0,1 @ F,0,0,1,0,1,0,1 @ F,0,0,1,0,1,0,1"
       unit="px"
       method="auto"
       mode="F"
       radius="1"
       chamfer_steps="1"
       flexible="false"
       use_knot_distance="true"
       apply_no_radius="true"
       apply_with_radius="true"
       only_selected="false"
       hide_knots="false"
       nodesatellites_param="F,0,0,1,0,1,0,1 @ F,0,0,1,0,1,0,1 @ F,0,0,1,0,1,0,1 @ F,0,0,1,0,0,0,1 @ F,0,0,1,0,1,0,1 @ F,0,0,1,0,1,0,1 @ F,0,0,1,0,1,0,1 @ F,0,0,1,0,1,0,1 @ F,0,0,1,0,0,0,1 @ F,0,0,1,0,0,0,1 @ F,0,0,1,0,1,0,1 @ F,0,0,1,0,1,0,1 @ F,0,0,1,0,0,0,1 @ F,0,0,1,0,1,0,1 @ F,0,0,1,0,1,0,1 @ F,0,0,1,0,0,0,1 @ F,0,0,1,0,1,0,1 @ F,0,0,1,0,1,0,1 @ F,0,0,1,0,0,0,1 @ F,0,0,1,0,0,0,1 @ F,0,0,1,0,1,0,1 @ F,0,0,1,0,1,0,1" />
    <inkscape:path-effect
       effect="fillet_chamfer"
       id="path-effect1462"
       is_visible="true"
       lpeversion="1"
       satellites_param="F,0,0,1,0,1,0,1 @ F,0,0,1,0,1,0,1 @ F,0,0,1,0,1,0,1 @ F,0,0,1,0,0,0,1 @ F,0,0,1,0,1,0,1 @ F,0,0,1,0,1,0,1 @ F,0,0,1,0,1,0,1 @ F,0,0,1,0,1,0,1 @ F,0,0,1,0,0,0,1 @ F,0,0,1,0,0,0,1 @ F,0,0,1,0,1,0,1 @ F,0,0,1,0,1,0,1 @ F,0,0,1,0,0,0,1 @ F,0,0,1,0,1,0,1 @ F,0,0,1,0,1,0,1 @ F,0,0,1,0,0,0,1 @ F,0,0,1,0,1,0,1 @ F,0,0,1,0,1,0,1 @ F,0,0,1,0,0,0,1 @ F,0,0,1,0,0,0,1 @ F,0,0,1,0,1,0,1 @ F,0,0,1,0,1,0,1"
       unit="px"
       method="auto"
       mode="F"
       radius="1"
       chamfer_steps="1"
       flexible="false"
       use_knot_distance="true"
       apply_no_radius="true"
       apply_with_radius="true"
       only_selected="false"
       hide_knots="false"
       nodesatellites_param="F,0,0,1,0,1,0,1 @ F,0,0,1,0,1,0,1 @ F,0,0,1,0,1,0,1 @ F,0,0,1,0,0,0,1 @ F,0,0,1,0,1,0,1 @ F,0,0,1,0,1,0,1 @ F,0,0,1,0,1,0,1 @ F,0,0,1,0,1,0,1 @ F,0,0,1,0,0,0,1 @ F,0,0,1,0,0,0,1 @ F,0,0,1,0,1,0,1 @ F,0,0,1,0,1,0,1 @ F,0,0,1,0,0,0,1 @ F,0,0,1,0,1,0,1 @ F,0,0,1,0,1,0,1 @ F,0,0,1,0,0,0,1 @ F,0,0,1,0,1,0,1 @ F,0,0,1,0,1,0,1 @ F,0,0,1,0,0,0,1 @ F,0,0,1,0,0,0,1 @ F,0,0,1,0,1,0,1 @ F,0,0,1,0,1,0,1" />
  </defs>
  <sodipodi:namedview
     pagecolor="#ffffff"
     bordercolor="#666666"
     borderopacity="1"
     objecttolerance="10"
     gridtolerance="10"
     guidetolerance="10"
     inkscape:pageopacity="0"
     inkscape:pageshadow="2"
     inkscape:window-width="1920"
     inkscape:window-height="1011"
     id="namedview12"
     showgrid="true"
     inkscape:zoom="22.627417"
     inkscape:cx="8.6620581"
     inkscape:cy="8.396893"
     inkscape:window-x="0"
     inkscape:window-y="0"
     inkscape:window-maximized="1"
     inkscape:current-layer="svg10"
     inkscape:document-rotation="0"
     inkscape:pagecheckerboard="0"
     inkscape:showpageshadow="2"
     inkscape:deskcolor="#d1d1d1">
    <inkscape:grid
       type="xygrid"
       id="grid841" />
  </sodipodi:namedview>
  <path
     d="m 2,3 v 18 c 0,0.552285 0.4477153,1 1,1 h 2 c 0.5522847,0 1,-0.447715 1,-1 V 7 C 6.5522892,7 7.4550318,6.9796906 7.9930526,7.0994665 9.0331817,7.3310234 9.6690144,7.9668765 9.900551,9.0070259 10.020305,9.5450064 10,10.447715 10,11 v 10 c 0,0.552285 0.447715,1 1,1 h 2 c 0.552285,0 1,-0.447715 1,-1 v -2 h 3 v 2 c 0,0.552285 0.447715,1 1,1 h 2 c 0.552285,0 1,-0.447715 1,-1 v -2 h 2 c 0.552285,0 1,-0.447715 1,-1 v -2 c -1,-1 0,0 -1,-1 h -2 v -3 c -1,-1 0,0 -1,-1 h -2 c -1,1 0,0 -1,1 v 3 H 14 V 11 C 6.5,2 14,11 6.5,2 H 3 C 2,3 3,2 2,3 Z"
     fill="#d38c2d"
     id="path2"
     sodipodi:nodetypes="ccccssccccccccccccccssccccccccccccc"
     style="stroke-width:0.458334" />
  <path
     d="m 2,3 v 17 a 1,1 45 0 0 1,1 H 5 A 1,1 135 0 0 6,20 V 6 C 6.5522892,6 7.4550318,5.9796906 7.9930526,6.0994665 9.0331817,6.3310234 9.6690144,6.9668765 9.900551,8.0070259 10.020305,8.5450064 10,9.4477153 10,10 v 10 a 1,1 45 0 0 1,1 h 2 a 1,1 135 0 0 1,-1 v -2 h 3 v 2 a 1,1 45 0 0 1,1 h 2 a 1,1 135 0 0 1,-1 v -2 h 2 a 1,1 135 0 0 1,-1 v -1 a 1,1 45 0 0 -1,-1 l -2,0 v -3 a 1,1 45 0 0 -1,-1 h -2 a 1,1 135 0 0 -1,1 v 3 H 14 V 10 C 14,9.4477153 14.002532,8.5503339 13.93127,8.0030426 13.653059,5.8663915 12.430164,2.5402427 8.4976008,2.0588496 7.9497725,1.9917888 7.0522847,2 6.5,2 H 3 A 1,1 135 0 0 2,3 Z"
     fill="#f9aa40"
     id="path4"
     sodipodi:nodetypes="ccccssccccccccccccccssc"
     style="stroke-width:0.458334"
     inkscape:path-effect="#path-effect1464"
     inkscape:original-d="M 2,2 V 21 H 6 V 6 h 1 c 2,0 3,1 3,3 v 12 h 4 v -3 h 3 v 3 h 4 v -3 h 3 v -3 h -3 v -4 h -4 v 4 H 14 V 9 C 14,7 13,2 7.5,2 Z" />
</svg>
