<svg xmlns="http://www.w3.org/2000/svg" width="128" height="128"><path fill="#d38c2d" d="M12 16v96a4 4 0 0 0 4 4h12a4 4 0 0 0 4-4V36h4c2.21 0 5.82-.081 7.972.398 4.16.926 6.704 3.47 7.63 7.63C52.082 46.18 52 49.79 52 52v60a4 4 0 0 0 4 4h12a4 4 0 0 0 4-4v-12h16v12a4 4 0 0 0 4 4h12a4 4 0 0 0 4-4v-12h12a4 4 0 0 0 4-4V84l-4-4h-12V64l-4-4H92l-4 4v16H72V52L40 12H16l-4 4z"/><path fill="#f9aa40" d="M12 16v92a4 4 45 0 0 4 4h12a4 4 135 0 0 4-4V32h4c2.21 0 5.82-.081 7.972.398 4.16.926 6.704 3.47 7.63 7.63C52.082 42.18 52 45.79 52 48v60a4 4 45 0 0 4 4h12a4 4 135 0 0 4-4V96h16v12a4 4 45 0 0 4 4h12a4 4 135 0 0 4-4V96h12a4 4 135 0 0 4-4v-8a4 4 45 0 0-4-4h-12V64a4 4 45 0 0-4-4H92a4 4 135 0 0-4 4v16H72V48c0-2.21.023-5.799-.245-7.99-1.617-13.217-11.077-25.512-23.774-27.674C45.806 11.966 42.21 12 40 12H16a4 4 135 0 0-4 4z"/></svg>
