<svg xmlns="http://www.w3.org/2000/svg" width="20" height="14"><path fill="#072b5f" d="M0 0h20v14H0z"/><path d="M10.6 0c1.1.1 2.1.4 3 .9l.6-.9h.2l-.6 1a7.3 7.3 0 012.7 2.4L20 1.5v.2l-3.5 1.9c.7 1 1 2.1 1 3.3H20v.2h-2.5a6.7 6.7 0 01-1 3.3l3.5 1.9v.2l-3.5-2a7.3 7.3 0 01-2.7 2.5l.6 1h-.2l-.5-.9a7.8 7.8 0 01-3 .9H9.3a7.8 7.8 0 01-3-.9l-.5.9h-.2l.6-1a7.3 7.3 0 01-2.7-2.4L0 12.5v-.2l3.5-1.9a6.6 6.6 0 01-1-3.3H0v-.2h2.5c0-1.2.4-2.3 1-3.3L0 1.7v-.2l3.6 2A7.3 7.3 0 016.2 1l-.6-1h.2l.5.9a7.9 7.9 0 013-.9zM7.5 11.3l-1 1.7a7.7 7.7 0 003.4.8v-2a5.5 5.5 0 01-2.4-.5zm5.2.2h-.8a5.4 5.4 0 01-1.8.4v2a7.8 7.8 0 003.5-1zm2.6-1.6H15v.2l-.1.2h-.3v.2h.1l-.3.4v.2l-.2-.1-.4.2-.4.2-.1.1v-.2l-.3.1h-.2l1 1.5a7.2 7.2 0 002.5-2.4zm-9.8-.4l-1.8 1a7.1 7.1 0 002.6 2.4l1-1.7a5 5 0 01-1.8-1.7zm3.7.2H8.9l-.1.2-.3-.1h-.1v.1L7.4 11a5.3 5.3 0 002.4.6V9.8zm1.7.1h-.2l.1.2h-.7v1.7a5.5 5.5 0 001.6-.2h-.5l-.4-.2v-.4h.1l.1-.2h.1V10l-.2-.2zM6.4 9l-.8.4a5 5 0 001.8 1.7l.8-1.3h-.8v-.1L7 9.5l-.5-.2zM16 7v.5h.3L16 8h.1V8.3l-.5.5.1.3v.2h-.2v.2l-.3.1v.2l1.2.7a6.5 6.5 0 001-3.3zM2.7 7v.1c0 1.2.3 2.3 1 3.3l1.7-1A4.6 4.6 0 014.8 7zm2.2 0c0 .9.3 1.6.7 2.3l.8-.4-.2-.3.1-.4h-.1V8h.2-.1v-.2h-.4v.1l-.2.1-.2-.1v-.4h.1V7zm1.3 1.2v.1H6h.1zm-.8-2.5l-.1.2v-.1H5A4.7 4.7 0 004.9 7h.8v-.6H6h-.2V6l.3-.3h-.3l-.2.1zm11-2l-1.4.7.4.8-.2.1v.2l-.2.1.2.2V6h.3l.1.2h.5l-.2.2.2.4-.2.1h1.4a6.5 6.5 0 00-1-3.3zm-12.8 0a6.5 6.5 0 00-1 3.2h2.2A4.6 4.6 0 015 5.5v-.2h.1L5 5h-.1v-.1h-.2v-.2h-.2v-.3h-.1V4zm2.9 1.5l.1.2h.1zm-1.2.1zm2-2.4a5 5 0 00-1.7 1.7l1.3.7L8 5V5H8l.2-.2v-.2h.1zM4.8 5.1zM4.6 5l.2.1v.1zm1.7-3.8a7.1 7.1 0 00-2.6 2.4l.7.4v-.3.1l.2.3.7.4h.2a5.1 5.1 0 011.8-1.6l-1-1.7zm-2 3.2v.1-.1zM13.7 1l-1 1.7h.1l.1.1.1-.1.1.3.3.2.2-.1.5.1h.1v.2h.5l.3.1V4.2l1.3-.7a7.1 7.1 0 00-2.6-2.4zm-9.4 3v.1zm5.6-1.8a5.4 5.4 0 00-2.4.6l.9 1.3V4l.2-.5v-.3h.1l.2-.2H9v-.2l.3-.3h.5v-.1zM4.6 3.7v.1h-.1v-.1zm0-.3l-.1.1zm7.3-.8l.2.2h.2a4.2 4.2 0 00-.4-.2zM10 .2v2h1.3a5.5 5.5 0 011.2.5l1-1.7a7.7 7.7 0 00-3.5-.8zm0 0C8.6.2 7.4.5 6.3 1l1 1.7a5.5 5.5 0 012.5-.6v-2h.1zm.7 2.1l.4.1a3.6 3.6 0 00-.4 0zm-.7 0h.5a6.8 6.8 0 00-.5 0zm0 0" fill="#fff"/><path d="M10 2l.1.3v2c.4 0 .9.2 1.3.4l1-1.8v-.1h.4l.1.1.2.2h.1v.2h.2c.4.3.8.7 1.1 1.2l.5-.3v.1l-.4.3.4 1c.2.5.2 1 .2 1.3h.7v.2h-.7a4.6 4.6 0 01-.6 2.3l.5.3v.1l.2.1-.8-.4a5 5 0 01-1.8 1.7l.1.2h-.1l-.1-.1c-.3 0-.5.2-.7.3h-.1v-.1h-.1l.8-.4-1.1-1.8a3 3 0 01-1.3.4v.2h-.2v-.2a3 3 0 01-1.2-.4l-.4.6h-.1l.3-.6a2.8 2.8 0 01-1-.9l-1 .6v-.1h-.1l1.1-.6A2.5 2.5 0 017.2 7H5.6v-.2h1.6c0-.4 0-.8.3-1.2l-.8-.4H7l.7.3c.2-.3.5-.6 1-.9l-.3-.3v-.2l.4.5a3 3 0 011.2-.4V2zm1.8 9.5zm.6-3.1l-.9.9 1.1 1.8a5 5 0 001.8-1.7zm-2.3-1.1v2.2l1.2-.3zm-.2 0L8.7 9.2l1.2.3zm5.2-.2h-2.3c0 .4 0 .8-.3 1.2l2 1c.3-.7.6-1.4.6-2.2zm-4.9.1l1.2 2 .9-.9zm-.4 0l-2 1.1c.1.3.4.6.8.8zm-.1-.1H7.3c0 .4.2.8.3 1zm3 0h-2.4l2 1c.3-.2.4-.6.4-1zm-.3-1.3l-2 1.1h2.3a2.3 2.3 0 00-.3-1zm-4.8 0c-.2.4-.3.7-.3 1.1h2.4l-2-1zm6.8-1.1l-1.9 1 .3 1.2h2.3a4.5 4.5 0 00-.7-2.2zm-5.8.2a2.6 2.6 0 00-.9.8l2 1zm2.8 0l-1.2 1.9 2-1.1a2.6 2.6 0 00-.8-.8zM10 4.5a2.8 2.8 0 00-1.2.3l1.2 2zm.2 0v2.2l1.2-1.9a2.8 2.8 0 00-1.2-.3zM5 5.8V5.6v-.2h.2l-.2.5zM12.6 3l-1.1 1.8 1 1 1.9-1.1a5 5 0 00-1.8-1.7zM4.4 4l.2.1.1.1.2.2.4.1.2.2h.1v.1l.6.3h.1l.2.2-1-.5a4 4 0 00-.2.6h-.1l.2-.7-1-.6zm7-1.6v.1h.2l.2.1v.1a5.6 5.6 0 00-.6-.2l.2-.1zm-.7 0h.1-.1zm-.8 0zm.1 0zm0 0" fill="#072b5f"/></svg>