<svg xmlns="http://www.w3.org/2000/svg" width="20" height="14"><path fill="#006" d="M0 0h20v14H0z"/><path d="M9.4 11.4l-1.4.2.2 1.2-1-.9-.9 1 .2-1.3-1.4-.2 1.2-.6-.7-1 1.2.4.5-1.2.4 1.2L9 9.7l-.8 1.1m7 1.8l-.3-.4.5.1.2-.5.2.5.6-.1-.4.4.5.3H16l.1.6-.4-.4-.4.4v-.6h-.5m.5-8.5l-.3-.5.5.2.2-.5.2.5.6-.2-.4.5.5.3H16l.1.6-.4-.4-.4.4v-.6h-.5m-2.8 3l-.3-.4.5.2.2-.6.2.6.6-.2-.4.4.5.3h-.6l.1.6-.4-.4-.4.4v-.5h-.5M18 6.8l-.3-.5.6.2.2-.5.1.5.6-.2-.3.5.5.3h-.6v.6l-.3-.4-.5.4.1-.6h-.6M17 9.3l-.3.2.1-.3-.3-.3h.4l.1-.3.2.3h.4l-.3.3v.3" fill-rule="evenodd" fill="#fff"/><path d="M0 0h10v7H0zm0 0" fill="#006"/><path d="M1.2 0L5 2.6 8.8 0H10v.9L6.2 3.5 10 6.1V7H8.7L5 4.4 1.3 7H0v-.9l3.7-2.6L0 1V0zm0 0" fill="#fff"/><path d="M6.6 4.1L10 6.4V7L5.8 4.1zm-2.8.3v.5L.8 7H0zM10 0L6.1 2.8V2L9.2 0zM0 0l3.7 2.6h-.9L0 .6zm0 0" fill="#c8102e"/><path d="M3.8 0v7h2.5V0zM0 2.3v2.4h10V2.3zm0 0" fill="#fff"/><path d="M0 2.8v1.4h10V2.8zM4.3 0v7h1.5V0zm0 0" fill="#c8102e"/></svg>