<svg xmlns="http://www.w3.org/2000/svg" width="20" height="14"><defs><clipPath id="a"><path d="M0 0h20v14H0zm0 0"/></clipPath><clipPath id="b"><path d="M0 0h20v14H0zm0 0"/></clipPath></defs><g clip-path="url(#a)" fill-rule="evenodd"><path d="M-2.6 0L10 7l-12.6 7zm25.2 0L10 7l12.6 7zm0 0" fill="#00cf00"/><path d="M-2.6 0L10 7l12.6-7zm0 14L10 7l12.6 7zm0 0" fill="red"/><path d="M22.6 0h-2.4L-2.6 12.7V14h2.4L22.6 1.3zm0 0" fill="#fff"/></g><path d="M14.3 7c0 2.2-1.9 4-4.3 4S5.7 9.2 5.7 7s2-4 4.3-4c2.4 0 4.3 1.8 4.3 4zm0 0" fill-rule="evenodd" fill="#fff"/><g clip-path="url(#b)"><path d="M-2.6 0v1.3L20.2 14h2.4v-1.3L-.2 0zm0 0" fill-rule="evenodd" fill="#fff"/></g><path d="M280 200.1l-19.4.5-10 16.3-9.8-16.3-19.2-.5 9.3-17-9.2-16.7 19.2-.4 10-16.4 9.9 16.5 19.2.3-9.4 16.9zM215.4 312l-19.2.2-10 16.3-10-16.3-19.2-.4 9.4-16.8-9.2-16.9 19.2-.4 10-16.5 9.8 16.6 19.2.4-9.2 16.8zm130.6 0l-19.2.2-10 16.3-10-16.3-19-.4L297 295l-9.3-16.9 19.2-.4 10-16.5 10 16.6 19.2.4-9.5 16.8zm0 0" transform="matrix(.0293 0 0 .02734 2.7 0)" fill-rule="evenodd" fill="red" stroke-width="3.9" stroke="#00de00"/></svg>