<svg xmlns="http://www.w3.org/2000/svg" width="20" height="14"><path fill="#f7e017" d="M0 0h20v14H0z"/><path d="M0 1v6.2l20 3V6.7zm0 0" fill="#fff"/><path d="M0 4.3v2.9L20 13v-2.9zm0 0"/><path d="M9.5 11a2.6 2.6 0 01-1-.3.7.7 0 00-.1 0c0 .2-.1.2-.2.3-.2 0-.4 0-.5-.2a1.4 1.4 0 00-.5-.2.9.9 0 00-.6 0c-.1 0-.1 0 0-.1l.1-.2h.1V10h.5c.1 0 0 0 0-.2v-.2c0-.1 0-.3.2-.3l.4.2a3 3 0 002.5.8 3.3 3.3 0 001.7-.8l.3-.1h.3v.3a.3.3 0 010 .1v.1h.5v.3a.4.4 0 000 .1h.1l.2.3a.8.8 0 01-.1 0 .9.9 0 00-.4 0 .7.7 0 00-.3 0 1.3 1.3 0 00-.4.2l-.3.2-.3-.1v-.2a.7.7 0 00-.1 0l-.4.2a4 4 0 01-1.7.2zm0 0" fill="#cf1126"/><path d="M9.7 10.2a2.9 2.9 0 01-2-1c-.5-.7-.7-1.6-.5-2.3 0-.4.2-.8.5-1a2 2 0 00-.2 1.4c.2 1 1 1.8 2.1 2 .4 0 .9 0 1.3-.2.8-.3 1.5-1 1.6-1.9a2.3 2.3 0 00-.3-1.4c.2 0 .3.3.4.5.4.6.4 1.3.2 2-.3.8-1 1.5-1.8 1.8a3.6 3.6 0 01-1.3.1zm-4-1h-.1l.1.1.5.1h.4l.1-.2H6a1.1 1.1 0 01-.3 0h-.1zm0 0M5.7 9l.1.1a.9.9 0 00.4.1h.3l.2-.2h-.2a1 1 0 01-.4 0 1 1 0 01-.3 0zm0 0" fill="#cf1126"/><path d="M5.8 8.7V9l.4.1h.3l.1-.2h-.1a.8.8 0 01-.3 0 .6.6 0 01-.3 0h-.1zm0 0M5 5.9V6c0 .3 0 .6.2.8l.5.6.1.3v.9l.5.1.3-.1V7l-.4-.3a2.8 2.8 0 01-.3-.3c0-.1-.3-.1-.2 0l.2.4s.1.2 0 .2a.5.5 0 00-.2-.2c-.1 0-.3 0-.3-.2a.8.8 0 00-.2-.4L5 6zm0 0" fill="#cf1126"/><path d="M5.2 6v.3a.8.8 0 01.3.4v.1L6 7V7a.4.4 0 00-.3-.2.6.6 0 000-.2.5.5 0 00-.2-.2V6h-.2zm0 0" fill="#cf1126"/><path d="M5.4 6v.3l.2.2a.6.6 0 010 .2l.2.1v-.1l-.2-.2a.3.3 0 010-.2.4.4 0 00-.1-.3zm0 0" fill="#cf1126"/><path d="M5.6 6a.4.4 0 010 .3.2.2 0 000 .1h.1a.8.8 0 000-.3.2.2 0 000-.1h-.1zM14.3 9l.1.1-.1.1-.5.1h-.4l-.1-.2H14a1.1 1.1 0 00.3 0h.1zm0 0" fill="#cf1126"/><path d="M14.3 9a.4.4 0 01-.1.1.9.9 0 01-.4.1.9.9 0 01-.3 0l-.2-.2H14a1 1 0 00.3 0zm0 0" fill="#cf1126"/><path d="M14.2 8.7V9a.7.7 0 01-.4.1.6.6 0 01-.3 0l-.1-.2h.4a.6.6 0 00.3 0h.1zm0 0M15 5.9V6c0 .3 0 .6-.2.8l-.5.6-.1.3v.9l-.5.1-.3-.1V7l.4-.3a2.8 2.8 0 00.3-.3c0-.1.3-.1.2 0l-.2.4s-.1.2 0 .2a.5.5 0 01.2-.2c.1 0 .3 0 .3-.2a.8.8 0 01.2-.4L15 6zm0 0" fill="#cf1126"/><path d="M14.8 6a.5.5 0 000 .3.8.8 0 00-.2.4l-.2.1-.3.2V7a.4.4 0 01.3-.2.6.6 0 010-.2.5.5 0 01.2-.2V6h.2zm0 0" fill="#cf1126"/><path d="M14.6 6a1.1 1.1 0 000 .3l-.2.2a.6.6 0 000 .2.5.5 0 00-.2.1v-.1l.2-.2a.3.3 0 000-.2.4.4 0 01.1-.3zm0 0" fill="#cf1126"/><path d="M14.4 6a.4.4 0 000 .3.2.2 0 010 .1h-.1a.8.8 0 010-.3.2.2 0 010-.1h.1zM9.9 9.3a.7.7 0 01-.6-.5h.2l.2.2h.2v-.1a1 1 0 01.1-.3l.1.1V9h.1l.2-.1h.2l.1-.1a.9.9 0 01-.1.2.7.7 0 01-.4.2h-.3zm0 0" fill="#cf1126"/><path d="M10.2 9a.2.2 0 000-.2 1.3 1.3 0 00-.2-.2l-.2.3h-.2a.3.3 0 010-.3.9.9 0 010-.4l.1-.3v-.2c-.1-.1 0-.1 0 0h.2v-.2l.2.1v.1l.2-.1s.1 0 0 0a.4.4 0 000 .2.5.5 0 000 .3c.1.2.2.4.1.6a.4.4 0 01-.1.3zm0 0" fill="#cf1126"/><path d="M10.1 7.6a.4.4 0 000-.2l-.2.1s0 .1-.1 0l-.1-.2.1-.4a.4.4 0 000-.3l-.2-.2h.2l.1.1v-.1s.1-.1.1 0l.1.1h.1a.2.2 0 01.2 0 .4.4 0 00-.2.4l.1.3v.3l-.1.1zm0 0" fill="#cf1126"/><path d="M9.8 6.4v-.2V6 6h-.2v-.2l.1-.1-.2.1-.2.2c-.2.2-.4.2-.5 0l.4-.3c.1 0 .1 0 0 0 0 0-.2 0-.3.2a.7.7 0 01-.2 0 .6.6 0 01-.3.1l-.1-.1a.5.5 0 00.1-.1l.6-.3-.6.2c-.2.2-.4.2-.5 0l.4-.2a1.2 1.2 0 01.4-.1h-.4l-.5.2a.4.4 0 01-.3-.1l-.1-.3H8a1.9 1.9 0 00.5-.2c.3-.2.5-.3.8-.3.3 0 .4 0 .6.2V5a.8.8 0 000-.2h.2V5l.2-.2a1.2 1.2 0 011.2.2l.5.2a1.4 1.4 0 00.6 0l-.1.2c-.2.2-.4.2-.7 0h-.5.4l.4.2v.1l-.2.1a.4.4 0 01-.3 0l-.6-.3h.1c.2 0 .4.2.5.3h.1c0 .1 0 .2-.2.2a.4.4 0 01-.3-.1l-.4-.3.4.3c.1.1.1.1 0 .2h-.1c-.2 0-.4 0-.6-.3a1.3 1.3 0 00-.2-.1c.2.1.2.2.1.3h-.1v.3a.3.3 0 01-.1 0h-.3v.1zm0 0" fill="#cf1126"/><path d="M10.1 4.5v.1h-.2V5h.2zm0 0" fill="#cf1126"/><path d="M9.5 4l-.2.6.2-.2.2.2.2-.2.1.2.2-.2.2.2.1-.2.3.2-.2-.6c-.3.1-.9.2-1.1 0zm0 0" fill="#cf1126"/><path d="M10 3.8h-.3a.4.4 0 00-.2.1c0 .2.9.3 1 0H9.8zm0 0" fill="#cf1126"/><path d="M10.1 3H10v1h.1zm0 0M10.1 3v.5l.5.2-.3-.3.4-.1zm0-.1h-.2l.1.1h.2l-.2-.1zm0 0" fill="#cf1126"/><path d="M9.8 11a.2.2 0 00.2-.2.4.4 0 000-.1h-.1c0 .2 0 .2-.2.2h-.2s-.1 0 0 0h.3zm.5 0a.4.4 0 010-.1h.2v-.3h-.2.1v.2l-.2.1zm-.2-.2a.8.8 0 000-.2 1 1 0 000-.2v.4zm0 0" fill="#f7e017"/><path d="M9.8 10.8v-.2a.7.7 0 010-.1s0-.1 0 0l-.1.4v-.1zm-.3 0v-.2-.2V10.7h-.2-.1H9c0-.1-.1 0-.2 0v-.1l-.5-.1v-.2l.1-.2c-.2 0 0 .1-.1.2h-.2l-.2-.1c-.1 0 0 0 0 .1a.7.7 0 00.2.1l.1.1.5.1s0 .1 0 0l.2.1.2.1h.2zm0 0" fill="#f7e017"/><path d="M8.2 10.2a.8.8 0 000-.1.4.4 0 01.2-.1h-.1a.6.6 0 01-.1.2zm-.8-.4h.1c0 .2 0 .2.2.2h.1v.1H8l.2-.2H8a.2.2 0 00-.1 0h-.3l-.2-.1zm.5.2zm4-.2v.3s0 .3-.2.3v.1a.7.7 0 00.3-.2V10v-.2h-.1zm0 .1v.1zm-.6.8s.2 0 .2-.2v-.1l-.1-.2-.1.2v.1h.1l-.3.2H11v-.1c0-.1 0 0 0 0l-.1.1h.4zm.8-.4V10l.2-.1.1-.2-.2.2v.1l-.2.3zm-.9 0s0-.1 0 0zm1.2-.3zM11 9.2V9.6s.1.2 0 .2h-.2l-.1.1h-.1.1v.2h.2v-.1h.1a.2.2 0 00.2-.2l-.1-.3v-.2zm-.2.6v.1zm0 0" fill="#f7e017"/><path d="M9.3 9.5h-.1c-.1 0-.2.2 0 .2h-.6l.1.2h.4a.4.4 0 00.1-.1v-.1h.4v.1h1v-.1c.2 0 .2 0 0 0a.6.6 0 010-.1h-.2l.1.1a.5.5 0 01-.2.1h-.4H9.6v-.1h-.1l-.2-.1v-.1zm0 0v.1h-.1zm0 0" fill="#f7e017"/><path d="M9 9.6v-.1-.1.2h-.3v-.1c.1-.1.1-.2 0 0v-.1h-.1-.1l.2-.2a1.1 1.1 0 000-.1.7.7 0 01-.2.2c-.1.1-.2.2 0 .2h.1l.2.1H9zm3.3-1v.2H12a.3.3 0 00-.2.2s0 .1-.1 0h-.2v.2l-.1-.1v.2c0 .1-.1.1-.2 0l-.1-.1-.1.1v.2l.1.2v-.2h.2a.2.2 0 00.2-.2v-.1h.2v.2l-.2.2a.5.5 0 00.2-.2v-.2h.2l.1-.2.1-.1a.2.2 0 00.1-.2zM12 9c.1 0 0 .1 0 0zm-.3 0c.1 0 0 .2 0 .1zm-3.3.6zm1.1-.2zM8.2 9H8A.3.3 0 018 9h-.1-.1c0-.1 0 0 0 0l.1.1c.1 0 .1.1 0 .2 0 .1.1 0 .1 0h.5l.1-.2s0-.1 0 0a1.2 1.2 0 01-.2.1.3.3 0 01-.2 0h.1V9H8l.2-.2zm0 .2v.1zm-.1.1zm0 0" fill="#f7e017"/><path d="M9 9.3zm2.4-.2c-.1 0 0 0 0 0zm-3.7-.3v-.2l.3.1v-.1a.4.4 0 00-.2 0h-.1c0 .2 0 .2-.1.1a.3.3 0 01-.1-.2l.1-.2-.2.1c0 .2 0 .3.2.4h.1zm4.4-.1v-.2c0-.1-.1 0-.1 0v.1h.1zm.4 0v-.1l.1-.1c.1 0 .1-.1 0-.2V8a.8.8 0 00-.2-.1l.1.2.1.2h-.1a.4.4 0 00-.1-.1v.1c.1 0 .1.1 0 .2a1 1 0 00-.3-.3v.1l.3.2a.2.2 0 00.1 0zm.2-.6l-.3-.2a.6.6 0 01.2.2.6.6 0 00.1 0zm-1.5 2.7zm.1 0zm0 0" fill="#f7e017"/></svg>