<svg xmlns="http://www.w3.org/2000/svg" width="20" height="14"><defs><radialGradient id="a" gradientUnits="userSpaceOnUse" cx="247.1" cy="238.3" fx="247.1" fy="238.3" r="36" gradientTransform="scale(1.22624 .8155)"><stop offset="0" stop-color="#ffef5d"/><stop offset="1" stop-color="#ea5700"/></radialGradient><radialGradient id="b" gradientUnits="userSpaceOnUse" cx="322" cy="152.9" fx="322" fy="152.9" r="10.6" gradientTransform="scale(.93615 1.06821)"><stop offset="0" stop-color="#ffef5d"/><stop offset="1" stop-color="#ea5700"/></radialGradient><radialGradient id="c" gradientUnits="userSpaceOnUse" cx="364.2" cy="237.8" fx="364.2" fy="237.8" r="36" gradientTransform="scale(1.2242 .81686)"><stop offset="0" stop-color="#952d1a"/><stop offset="1" stop-color="#570a00"/></radialGradient><radialGradient id="d" gradientUnits="userSpaceOnUse" cx="468.1" cy="156.1" fx="468.1" fy="156.1" r="10.7" gradientTransform="scale(.95596 1.04607)"><stop offset="0" stop-color="#952d1a"/><stop offset="1" stop-color="#570a00"/></radialGradient></defs><path fill="#ce1126" d="M0 0h20v14H0z"/><path d="M0 1h20v12H0zm0 0" fill="#003f87"/><path d="M15.9 7c0 3-2.6 5.5-5.9 5.5-3.3 0-5.9-2.5-5.9-5.5S6.7 1.5 10 1.5c3.3 0 5.9 2.5 5.9 5.5zm0 0" fill="#fff"/><path d="M476.3 239a156.3 156.3 0 11-312.6.1 156.3 156.3 0 01312.6 0zm0 0" transform="scale(.03125 .02917)" fill="none" stroke-width="3.9" stroke="#552300"/><path d="M9.4 2.1c.5-.4.9.1.9.3 0 .3-.5.8-.9.4.4 0 .5-.4.8-.4-.2 0-.3-.4-.8-.3zM4.8 5.6c-.2-.6.5-.7.7-.5.2 0 .5.7 0 .8.2-.3-.1-.6 0-.8-.1.2-.6.1-.7.5zm10-.6c.6.3.2.8 0 .9-.3 0-1-.1-.7-.6 0 .4.5.3.6.5 0-.2.3-.4 0-.8zm-8 6c-.6 0-.4-.7-.2-.8.2-.1 1-.1.8.4-.2-.3-.6-.2-.7-.3.1.1-.2.5.1.7zm6.6-.4c0 .6-.7.5-.9.3-.1-.2-.2-.9.4-.8-.4.2-.1.6-.3.7.2-.1.6.1.8-.2zm-8-6.1c-.1-.6.5-.6.7-.4.2.2.3.8-.3.8.4-.2.1-.6.2-.7 0 .1-.5-.1-.7.3zM6 10c-.6-.1-.4-.7-.2-.8.3-.1 1 0 .8.5-.1-.4-.6-.3-.7-.4.1.1-.2.4.1.7zm5-8c.7-.2.8.4.7.6 0 .2-.7.6-.9 0 .3.3.6 0 .8 0-.2 0 0-.5-.5-.5zm1.3 9.2c-.3.6-.8.2-.9 0 0-.3.2-1 .7-.6-.4 0-.4.5-.6.5.2 0 .4.4.8.1zm2.8-5.2c.5.4 0 .8-.3.8-.2 0-.8-.4-.4-.8 0 .4.4.5.4.7 0-.2.5-.3.3-.7zM7 3c.2-.5.8-.3 1 0 0 .1 0 .8-.7.6.5 0 .3-.5.5-.6-.2 0-.5-.3-.8 0zM5 8c-.6-.2-.1-.7.1-.7.3-.1 1 .2.6.6 0-.4-.5-.4-.6-.6.1.2-.3.4-.1.8zm8.2-4.6c.7 0 .6.6.5.7-.2.2-.9.4-1-.2.3.3.7 0 .9.2-.2-.1 0-.5-.4-.7zM9.6 12c-.6.2-.8-.4-.7-.6.2-.2.8-.5 1 0-.4-.2-.7.1-.9 0 .2.1.1.6.6.6zm5.3-3.4c.3.6-.4.7-.6.6-.3 0-.6-.7 0-.8-.3.3 0 .6 0 .7 0-.1.6 0 .6-.5zM4.7 6.8c-.3-.5.3-.8.5-.7.3 0 .8.6.2.8.2-.3-.2-.5-.2-.7 0 .2-.5.2-.5.6zm3.5 4.7c-.6.2-.7-.4-.5-.6 0-.2.7-.5.9 0-.3-.2-.7.1-.8 0 .1.1 0 .6.4.6zm-.1-9.1c.3-.5.8 0 .8.2s-.3.8-.7.4c.4 0 .4-.4.6-.4-.2 0-.3-.4-.7-.2zm6.2 7.3c0 .6-.6.6-.8.4-.2-.2-.3-.9.3-.8-.3.2 0 .6-.2.7.1-.1.5.1.7-.3zm-.1-5.6c.6 0 .3.7.1.8-.2.1-1 0-.8-.5.2.4.6.2.8.4-.2-.2.2-.5-.1-.7zM6 3.6c0-.6.7-.4.8-.3.2.2.2.9-.4.8.4-.1.2-.5.4-.7-.2.2-.6-.1-.8.2zm-.8 5.5c-.6-.3-.2-.8 0-.9.3 0 1 .2.7.7 0-.4-.5-.4-.6-.6 0 .2-.4.4-.1.8zm7-6.4c.6-.3.7.4.5.6 0 .2-.7.5-.9 0 .3.2.7-.2.8 0-.1-.2 0-.6-.5-.6zM11 11.8c-.5.4-.9 0-.8-.3 0-.3.5-.8.8-.3-.4-.1-.5.3-.7.3.2 0 .2.4.7.3zM15 7.2c.4.5-.1.8-.4.8-.2 0-.8-.5-.3-.8-.1.3.3.5.3.7 0-.2.5-.3.4-.7zm0 0" fill="#007f00"/><path d="M9.4 2.8c.4 0 .5-.3.7-.4 0 .2-.4.5-.7.4zm0-.7c.5-.4.9.1.9.3-.4-.5-.5-.5-.9-.3zM5.4 6c.3-.3 0-.6 0-.7.1.1.3.5 0 .7zm-.6-.3c-.2-.6.5-.7.7-.6-.7 0-.7.2-.7.6zm9.3-.3c0 .4.5.3.6.5-.2 0-.7-.2-.6-.5zm.6-.3c.7.3.3.8 0 .9.5-.5.4-.6 0-.9zm-7.3 5.6c-.1-.3-.6-.2-.7-.3.2 0 .7 0 .7.3zm-.6.4c-.6 0-.4-.7-.2-.8-.3.6-.1.7.2.8zm6.1-1c-.4.3-.1.7-.3.8 0-.2 0-.6.3-.7zm.5.6c0 .6-.7.5-.9.3.7.2.8 0 .9-.3zM5.8 4.9c.4-.2.1-.6.2-.7 0 .2.1.6-.2.7zm-.5-.4c0-.6.6-.6.8-.4-.7-.1-.7 0-.8.4zm1.3 5.3c-.1-.4-.6-.3-.7-.4.2 0 .7 0 .7.4zM6 10c-.6-.1-.4-.7-.2-.8-.3.6-.2.6.2.8zm4.8-7.3c.3.2.6-.2.8-.1-.2 0-.6.3-.8 0zm.3-.6c.6-.3.7.3.6.5 0-.6-.2-.6-.6-.5zm1 8.5c-.4 0-.4.4-.6.5.1-.2.3-.6.6-.5zm.2.6c-.3.6-.8.2-.9 0 .5.4.6.3 1 0zm2.1-5.2c0 .4.4.5.4.7-.1-.1-.5-.4-.4-.7zm.7 0c.5.4 0 .8-.3.8.6-.4.6-.5.3-.8zM7.2 3.5c.5 0 .3-.5.5-.6 0 .2-.1.6-.5.6zM7 3c.2-.5.8-.3 1 0-.7-.4-.8-.3-1 0zM5.7 8c0-.5-.5-.4-.5-.6.1 0 .6.2.5.5zm-.7 0c-.6-.2-.1-.7.1-.7-.5.4-.4.5-.1.8zm7.8-4.1c.2.3.6 0 .8.2-.2 0-.7 0-.8-.2zm.4-.5c.7 0 .6.6.5.7 0-.6 0-.6-.5-.7zm-3.3 8c-.4-.2-.6.1-.8 0 .1 0 .6-.2.8 0zm-.3.6c-.6.2-.8-.4-.7-.6.1.7.3.6.7.6zm4.7-3.6c-.3.3 0 .5 0 .7 0-.1-.3-.5 0-.7zm.6.2c.3.6-.4.7-.6.6.7 0 .6-.2.6-.6zM5.4 7c.2-.3-.2-.5-.2-.7.1.1.4.5.2.7zm-.7-.1c-.3-.5.3-.8.5-.7-.6.2-.6.3-.5.7zM8.6 11c-.3-.3-.6 0-.8 0 .2-.1.6-.3.8 0zm-.3.5c-.7.2-.8-.4-.6-.6 0 .7.1.7.6.6zM8.2 3c.4 0 .4-.4.6-.4 0 .1-.3.5-.6.4zM8 2.4c.3-.5.8 0 .8.2-.4-.6-.5-.5-.8-.2zm5.7 6.9c-.3.2 0 .5-.2.7 0-.2 0-.6.2-.7zm.5.4c0 .6-.6.6-.8.4.7.1.7 0 .8-.4zm-.7-5.3c0 .4.5.2.6.4-.1 0-.6-.1-.6-.4zm.6-.3c.6 0 .3.7.1.8.4-.6.2-.6-.1-.8zM6.5 4c.4-.1.2-.5.3-.7 0 .2 0 .7-.3.7zm-.4-.5c0-.6.7-.4.8-.3-.7-.2-.7 0-.8.3zM6 9c0-.4-.5-.4-.6-.5.2 0 .6.2.6.5zm-.7.2c-.6-.3-.2-.8 0-.9-.4.5-.3.6 0 .9zm6.6-5.9c.3.3.6 0 .8 0-.1.1-.6.3-.8 0zm.4-.5c.6-.3.7.4.5.6 0-.7-.1-.7-.5-.6zM11 11.2c-.4-.1-.5.3-.7.3.1-.2.5-.5.7-.3zm0 .6c-.5.4-.9 0-.8-.3.3.6.4.5.8.3zm3.4-4.6c-.1.3.3.5.3.7-.1-.2-.5-.5-.3-.7zm.7 0c.5.5-.1.8-.4.8.7-.3.6-.4.4-.8zm0 0" fill="#005800"/><path d="M349 120.3s.6-1.2 1.8-.6c1 .8 1.2 4.2 1.2 4.2l-1.6.8s.9-1.4-1.3-4.4zm-8.8 30.6s.8-.9-.3-3.3l1.5-.5s.6 1.8-.1 3.8h-1m27-5.3l-3.8 2.3 1.9.8 4.5-2.6-2.6-.5m-49.8 14.6c-1 .8-1 2.1-1.8 3-.3.7-2 1.8-2 3 0 1-.2 1.9.3 3.5.6 1.5 3 8.6 2 13.6-1 5.4-.6 7.5-.3 8.4.4.8 1.6 3 2.3 3 1.6-.2.9-.6 1.5-1.7 1.4-2.6 0-22.2-.8-27.6-.4-4.1-2.4-8-2.6-8.4l-.9-2.6c-1.4-3.5-3.2-6.5-3.2-14 0 0-4.8 1.2-8.8-8-2.2-4.8-5.3-4.4-9-5.8l1.6-1.1s3.2 1.6 4.7 1.6c1.6 0 1-3.2 1-3.2l1.8-1.5v6.8c0 3.1 4.2 7.4 6.7 8.7 1.6.9 3.6-2.4 3.1-5.6-.5-3 0-7.3 0-7.3l2.1 1.3s-.7 1.3-.4 2.1c.2.8 1.2-.8 2-1.4l1 .1-2.3 4c-.8 1.2-.8 6.2-.8 8 0 2 .7 6.2.7 7.6 0 1 1.9 5 3.4 7.5l1.4 3.4c1.3 2 1.4 3.2 2 4.7.6.8 1 3 1.7 7l.7 7c.1 2.4 2.1.6 4.5-1 2.4-1.9 2.4-6 2.4-6s1.8-1.6 1.5-.7c-.3 1 1 2 1 2-1.4 3.2-.6 2.8.9 2.8 1.5-.2 6.5-4 6.5-4 .7-.2 3.9-.2 3.4 0-.7.3-1.6 1.8-1.6 1.8l3.4-.4a115.1 115.1 0 01-15.1 8c-2.3 1-6.8 3.2-6.9 5.4 0 2.4.3 8.3 0 10.3l-1 10.5h-10.4s2-7.5 0-9.6c-2-2.1-7-8.4-10-10.4-3.2-2 2-.6 2-.6v-2.1l4.8 5.7s8.3-7.3 0-17.2c-2.6-3.3-5.3-8-7.3-8.5-2.2-.6-3.3-1-7 0-3.6 1-12.4 1-16.2-4.8l3.1-.5 2.6-1s-1 3.6 6.4 3.6 8.4 0 7.8-6.7l2.2-1.2 1.6 1.6s-1 3.8-.4 5.3c.4 1.6 3 2.7 5 4.3 1 .6 1.6.8 2.2.8.9-.2 1-.2 2.3-1.4 1.7-2 1.3-1.9 3-3.5l1-1.4zm0 0" transform="scale(.03125 .02917)" fill="#730000" stroke-width=".5" stroke="#000"/><path d="M319 155c.5-.4 1.3-2 2-3.1 1.1-2 2.5-3.2 4-5.7a11 11 0 001.5-7.9l1.4.9v3.7l2.7-2 .8.4s-5.9 6-11.3 16l-1-2.3zm-51.3-20.3c.8 1.4 1.6 4 4 6l1.6-.3s-3.7-4.3-3.7-6l-1.9.3m9.2-2.4s.5 5-.8 6.9l1.6-.9s1-3.3.7-5.2l-1.5-.6zm51.4-15.6s-.3 7 1 11.2l2-.5s-.3-1.2 1.2-2c1.6-.4 5.3-2 7.3-3.5l-.7-1.6s-2.9 2.2-4.2 3c-1.3.5-2 .9-3.1.6-1-.3-2.4-2-1.6-6l-2-1.2m20.8 32.8s-.4 5-.3 7l1.8.5s-.4-6 .8-6.5l-2.3-1m7.5 3.7s-1.9 3.2-4 3.5l3.4-.7s1-.5 2.4-2l-1.8-.8" transform="scale(.03125 .02917)" fill="#730000" stroke-width=".5" stroke="#000"/><path d="M326.6 138.3l1.3.9 1.4.2 3 2.6c1.3 1 1.3-.2 1.3-.2l.8 3.1h1l-.1 3.2 1.7-1.6 2.3 1.9s1.4-1.3 2.2-1.3 1.1-.8 1.1-.8h.1c-5.2-2.5-7.4-5.1-6-7.7 2.7-4.4 7-1.6 8.2-1l19 10.3s1.4-.8.4-1.6c-1-.9-1.4-2.9-1-3.7.2-.6 2.4 2.4 3.4 2.8l3.6.7v-1s3 2.2 3 3.3c0 0 2.2-1.2 1.4-1.9-.7-.7 3.6 1.8 3.7 3l1-1c-.1 0 .2-3.2 1.4-4.7a4 4 0 012-1.8s1-1.6 2-1.6c0 0-1-.7-1.6-1.5-.4-.8-1.4-1.2-1.4-1.2s1.3-1 1.7-1.5c.4-.7.8-.7.8-.7s-2.2-1.8-3.8-2.2c0 0-.1-2.5-2-2.7h.8s-1.4-2.8-2.8-2.8c0 0 .9-1 1.6-1.1 0 0-1.6-2.1-3.9-1.3l1.6-.7s-1-1-4.6-.5c0 0 .4-1.4-1-2.5 0 0-1.3 0-1.3 1 0 0-1.1-1-2.6-1s.4 1.6.4 1.6-2-1.3-3-1c0 0 .4-2.2-1-3.2 0 0-1.3.6-1.7 1.6l-.4-1s-2 2.4-2.4 1.6c-.3-.4-.6-1.8-.6-1.8l-1.1 1.6.3-2.4s-1.6.8-2.6 3.3c0 0-1.3 1.3-1.3 2.4 0 0-1.1-1.2-2 0-1 1.4 0 1 0 1s-.5.6-1.5.8l.2.8s-1.2-.7-2.2-.4l.5 1.2s-2.6.2-2.6-2c0 0-2.2-1-2.6.2l-1.4 1s-.6-1-1.4-1.2c-1-.3-.1 1.3-.1 1.3s-.4-1.2-1.6-1.7c-1.2-.6-.2.9-.2.9s-1.5-1.2-.8-2.1c0 0-1.4 1.3-.7 2.6l-1 .7s-.5-.5-.4-1c0-.3-1.7 1.3-1.7 1.3s-1-2.6 0-2.6c.1 0-1.8 0-2.1 2.2 0 0-1.3 0-2.6.4-1 .4 1 1.3 1 1.3s-2-.4-3 .1l.8 1s-.8-.7-2.4-.2c-1.7.6.4.8.4.8s-1.8-.4-2.6 0 .4 1.1.4 1.1-3.3-1-3.8-.6 1 1.8 1 1.8-2 .6-2.3 2l1.8.7s-.8.4-1.3 1c-.3.9 1.3.5 1.3.5s-2.3 1.6-2.3 2.8c0 0 1.7.5 2.8-.7 1.3-1.2.4-.8.4-.8l.1.8s2.3-1 2.3-1.6c0-.5-.4.8-.4.8l2.2-1.2zm0 0" transform="scale(.03125 .02917)" fill="#289400" stroke-width=".5" stroke="#030"/><path d="M324.8 108l-.6-2.2 5 .5 1-1.8s2.3.9 3 1.7c0 0 4.6-1.2 6-.7l-.6 2s4.1.4 5.6.8c1.2.6-.6 1.7-.6 1.7s4.8.6 6.8 1.8c2.2 1.2 2.2 2.4 1.1 2.7l2.6 4.2s-4.2.5-5 1.4c-.7 1.2-1.5-.9-1.5-.9l-.9 3s-2.4-1.5-3.6-2.5c0 0-1.4 1.6-.5 2.4l-4.9-3s-2-.4-2 1.4l-3-3.4-2.4.8s-1-1-1.8-1.4c-1.1-.3-.3 1.4-.3 1.4l-1.6-2-1.6-1.7s-1.3 1.8-2.4 1.8c-1 0-1-1.2-.9-2.2.4-.8-3-.9-3.3 0 0 0-1-3.8 2.6-5zm-19 13.3L304 123l-1-.5-1.9 2.2-.4-1.3-1 1.8-1.7-.5-.9 1.2-1.4-.3s-1.2 1.2-2 1.5c-.8.2 0-1.8 0-1.8s-1.2 2-2 2-.6-1-.6-1-.4 1.4-1.4 1.6c-1 0-.6-1-.6-1l-1.4 1.2v-1l-.8-.3s.4-1.7 1.1-2.1c.6-.4-.7-1.7-.7-1.7l.7-.8s-2-.4-2 0c0 0 1-2.6 2.4-3l.1-3.1s1.4-1 2.6-1.2c1.4-.2-.4-2.3-.4-2.3l3.2-1.7.4-2.5 4.7.5 1-2 3.8 1 3.4-1.7 2.2 2.7 3.5.4v3s4.1 1.2 4.6 1.6c0 0-.9 2.6-.9 3.1 0 0 3-.8 4-.7l.3 3.5s5 1.6 5.3 2.4c0 0-1 .8-1.7 1.7 0 0 .6 3 .6 4l-.4.5s-1.4-1.3-2.6-1.5l-1 2-1.7-1h-1.1s-.9-1-1.6-1v-1l-1.4.9s-2.1-1-2.1-1.7v-1.7L311 125s-.5-1.3-.4-1.7c0-.5-1 1.1-1 1.1s-1-2-1-2.4l-.3 1.8s-2.3-.9-2.6-2.5zm0 0" transform="scale(.03125 .02917)" fill="#289400" stroke-width=".5" stroke="#030"/><path d="M274.5 130.8s4.1 2 4.1 3.1c0 0 1.1-2.1.5-3l1.6 1.2s.6-2 0-2.6c-.6-.5 3.4-2.1 4.3.5 0 0 2.4-2.5-2.3-4.6 0 0-.4-1.6 2.6-1.2 0 0-.3-1.1-1-1.4h2.7s-1.6-1.5-4-1.9c-2.4-.4-1-.6-1-1-.3-.6 0-2.3 0-2.3s-1.4-.5-2.5 0l.4-.4s-2.5-.7-3.5-.1c0 0-1.5-.6-1.3-2 0 0-1.5-.2-2.1 1.3 0 0-1.4 1.6-3.3 1.6-.3 0-1.7-.8-1.7-.8l-1.3 2.7H265l.5 1s-2.8-.8-3.8 0c0 0 1.2 1.6 1 2.9 0 0-2.3.4-2.8.8-.6.4.9.6.9.6s-2.7.8-3.3 1.6l1 .7-1.3 1.6 1 .1-2.4.8c-1 .4 1.4.6 1.4.6l-1 1 1.8.3s-1.4 4-1.5 5.8c0 0 2.3-2.7 2.8-3l-1.8 3s3.4-1 3.8-1.6l.4-1v1.6s1.4-1.7 1.6-2.4c0-.6 2 .7 2 .7v-1l2.4.7c.7 0 .8-.2.8-.2l1.6-.3-.4 1.3s1.3-.6 1.6-1.4c.2-.8.8 0 .8 0l.8-3.3zm-13.4 13.8l1.6 3.4c-1.3 0-3 1.5-3 1.5.2 5.5-1 5-1 5 .2 1.1-.4 2.9-.4 2.9l7.7-4.6.1-.5 9.1-4.3.4.5 2.6-1.4 2 4.8-2 1c0 1.7 2 4.6 2 4.6l2.6-.5 2.6-1.1v1c0-.3 2.9-1.3 2.9-1.3l1.3 1.4c1-.2 2.6-2.6 2.6-2.6l2 .8s.8-1.2.8-2 2.6-.8 2.6-.8l1.6 1.2 2.4-1.9s.6 1.4 1.6 1.6c1 0 3.4 2 3.4 1.7 0-.4 1-2.6 1-2.6l4.1 1.6c-.4-1.9-2-4-2-4s2-1.6 1.7-2c-.4-.4-1.6 0-1.6 0l1.2-2.4h-1.6l.5-.6-2.5-1 1.4-2.8c-.7-.7-7.4-2-7.4-2l1.6-1.5s-.8-1.2-1.6-1.2-4.9.1-5-.3l-1.8-1.7-2.6 1.8-1.3-.4-2.2.8s0 1.2-.3.4c-.3-.8-2.3-2.8-2.3-2.8-.4.7-3 3.8-3 3.8s-.5 1.7-1.3.5c-1-1.2-3-2.4-3.4-1.5-.2 1.1-2 2-2.4 1.8-.6-.3-2.6-.1-2.8.5-.1.7-2.5 2.4-2.5 2.4-1.4-.6-3.8-.2-3.8-.2s-.7 1-.8 1.8l-4.6 1.2zm44.1 39.7v-2l2.4 1.4 1.4-1.4 1.8 1.7 1-1.7v2.8l2.7-2.3 1.5.5v-2.1s1.9-3 1.1-3.7l1.6-.4s-2.7-2.7-3.4-3.3c-.8-.5-2-.5-2-.5s-2-2-3.3-2.7c-1.3-.5-2 .6-2 .6s-.8-1.5-2.3-1.8c-1.2-.2-1.2 1-1.2 1s-1-1-2.3-1.4c-1.2-.7-.3 1.2-.3 1.2l-4.5-1.5.6 1.5-4.3-1 .6 1.4-3-.5-.2 1.3-4.2.8.9 1.4-2.7-1.1v1.9l-3 1 1.1 1-4.7 2.4c-.8.5 1.6 1.6 1.6 1.6l-4.2-.5 1.6 1.3-3.8 3.4 2.7 2-1.6 2.2 4 .8 1.4 2.6 3.3-.5v2.9l4.8-3.8s3.3 3.1 3.6 2.2c.2-.8.2-3.4.2-3.4h1.6V187l1.3 1 2.3-3 2.7 3.8 2.3-5zm19.2-11.8l-.4-4.6-1.4 1.5.6-4.3-2.2-.2.8-4.2-1.6-.8.4-2 1.6-1 2.8-2.9 6.6.2.6-2.2 4.8.8c.8.8 3.3-1.9 3.3-1.9h1l1 2s3.4-.4 5 .7l-2 2.6 3.6.4 2.4.4 2.3-.8 3.1-.2.8 1.4h3l-1 1 3.8 1.8-.8.8s2.3.8 3.8.8h.7s.8 1.9-.3 2.7c0 0 1 2.5 3.4 3 2.4.4 2.4.4 2.6 1 .4.7 0 3.2-2.6 3.2v2.7s-2 1.8-2.4 2.7l-1.4-1.1s-1.4 1.5-1.4 2.5c0 0-3.5-4.5-4.6-4.7-1.6-.2-1 2.6-1 2.6l-4-3.1-.4 2.1-3.1-2.6-2 1.3-3.2-3.5-3.2.4 1.2-1.6h-3.9l-.7-3.5-.6 2.8-2.4-1.6-3 3.4s-.4-.4-.9-2c-.5-1.5-1.9 2-1.9 2l-1-2.6-1.3 2.5s-1-1.8-2.1-2.5c-1-.4-2 3.1-2.4 4.6zm.6 10.3l.3-1.6 5.4-2.1 4.8-1.8 2.3-1 1 1.8 1.4-2.7 2.2 2.9 1.2-1.6 1.8 1.4h1.6l.3 2s4 .3 4.2-.5c.3-.8.8 2.7.8 2.7l3.7.5.8 4.2s1.8 3.8 1.2 5.5c-.5 1.6-2-2-2-2s-.3 2.8-.6 3.6c-.1.8-5-.8-5-.8l-2 3.8s-2.1-3-3.1-3-1 3-1 3l-4.6-5.2c-1.3-1.5-1.6 1.6-1.6 1.6s-2-3.5-2-4.4c0-1-1.9-2.1-1.9-2.1s-3.2 3.6-5.6 4.7c0 0 .3-2.5-.5-3.1-.7-1-3 1.4-3 1.4s-1.7-3.4 0-7.3zm0 0" transform="scale(.03125 .02917)" fill="#289400" stroke-width=".5" stroke="#030"/><path d="M350.8 124.6l.4 2s2-.4 3-.4l-.6 2.2s2.3-.4 3.4.3l-.5 1.2 2.8 1.2-2.6 2s4 1.5 5 2.7l-3 1.7c-.6-.2-.3.8.4 1.7H357s.9 2 .9 2.8c-.3.6-4 .5-4 .5m14.2-5.4s.8-3.8-.4-4.8c0 0 2.5 2.2 4.1 2.3 2 0 0-3.2 0-3.2s2.4 1.2 3.6 1.5c1.2.2-1-2.5-1-2.5s.8-1.2 2.8 0M331.7 115s0-1-.3-1.5c-2.4-3 2.4 2.4 3.4 2.7m4.4 0s1.7 1.2 2.4 1.2-.5-3-.9-3.5c-.3-.4 3 1.2 4 1.4 1.2.2 1.4-2 1.4-2s3.6.6 4.4 1.2m-25-.7l-.5-3m-24.3 12.6c0-.2 1-2 .6-2.8 0 0 .7.6 1.4.7.6.1.4-2.1.4-2.1l.6.2s2-1 1.8-1.8c-.4-.8 1.4 1.2 1.4 1.2s1.1-1.2 1.1-1.6c0-.6 1.4 1.2 1.4 1.2s1.5-.4 1.5-1.2c0-1 1.9.2 1.9.2s.7-1 .6-1.9m-19.6 10s.8-2-.2-3.5m-23.6 9.8c0-1 .5-3.7 0-4-.4-.3 1 .3 2.3.7m9.2-.4c-1.3-1-1.9-1.7-3.8-1.7m-16 8.3c.2-.7.7-2.4.4-3.4m25 51.7l1.3-2.5 1.6 3.8 1-2.5.4.8 2.4-2.5 2.4 3.8m40.8-16.5l1.8-3.2 2.2 1 1-3.2 2.4 1.5 1.4-3 2.6.7.2-2.3s1.8 1.1 2.3 2c.6.7 0-2.8 0-2.8l2.2 1.1s1.5-1.6-.6-2.4" transform="scale(.03125 .02917)" fill="none" stroke-width=".5" stroke="#004b00"/><path d="M343.6 163.1l2.3 3.4 2-2.2 1.7 3.8 2.3-1.4 3.2 2 1.5-1.3 3.5 2.6 1.4-3.1 3.3 1 2-3.4m-84.6-9.3s1.6-2.3 1-3.5c-.6-.9 3 2 3 2s.6-2.4.2-3.6c-.6-.9 3.9 3.2 3.9 3.2s.7-3.6 0-4.2c-.8-.8 4.3.9 4.3.9s2-.5 1.1-1.6c-.7-1 3.6 1.5 3.6 1.5s1-2.6 0-3.7c-1-.9 3 1.4 3 1.4l-1.6-2.8 3.6.2-.4-3.2m30.4 45.2l2-1.1 2 2 2.3-3.5 2.6 2.6.4-2.6 2.8 1.2.6-1.6 3.1 1.8.3-2.5 1.6.5.3-1.5" transform="scale(.03125 .02917)" fill="none" stroke-width=".5" stroke="#004b00"/><path d="M8.8 8.7a1.8 1.8 0 01-.1-.4l1.3-1 1.3 1a1.8 1.8 0 01-.2.4h-.6-.1-.1-.1-.1-.1a.6.6 0 01-.1 0h-.4a.4.4 0 01-.1 0h-.1-.1-.1H9h-.1" fill="#9dd7ff"/><path d="M319.5 205v43l-42.3 37.4c-3-8.7-4.4-18-4.4-27V205h46.7" transform="scale(.03125 .02917)" fill="#fff" stroke-width=".7" stroke="#000"/><path d="M319.5 205v43l42.3 37.4c2.8-8.7 4.2-18 4.2-27V205h-46.5" transform="scale(.03125 .02917)" fill="#ffd83c" stroke-width=".7" stroke="#000"/><path d="M292.3 289.2c3 1.7 2 1.2 8.6 3.4a60.8 60.8 0 0020.7 2.8c8 0 12.4-.6 15-1.3 2.5-.7 3.1-1.7 3.1-1.7l-6.4 6.7s-26.4 1.3-31-1.8c-2-1-6-4.3-10-8zm0 0" transform="scale(.03125 .02917)" fill="#730000" stroke-width=".5" stroke="#000"/><path d="M330.8 276.8s8.4 4.9 0 14m-37.8-1l12-11.6-1.3 15.4m6.3 1.4v-25.8m20.8 25.8v-27.4m-10.6 27.8V266" transform="scale(.03125 .02917)" fill="none" stroke-width=".5" stroke="#000"/><path d="M310 270.5l-5.4 1.8 5.4.6v-2.4m10.3-3.8l-5.8 2 5.8.2v-2.4m10.4 1.6l-5.7 2.2 5.8.2V268zm3.6 12.3c-.4-1 3.3-.9 3.3-.9s1 3.9 0 6.3l-3.1-.7s.3-2.5-.3-4.7zm0 0" transform="scale(.03125 .02917)" fill="#ff0018" stroke-width=".5" stroke="#000"/><path d="M294.8 288l10.3-10-.5 6s-5.4 3.5-5.4 6l-4.4-2m5.4 2.2s1-3 4-4.7l-.2 6.3zM315 273s4.3-.6 7.4 0c0 0-.5 4.2 0 5 0 0-5.8-1.3-8.1.8 0 0-.8-4 .7-5.8zm-8.9 1s4.1-.6 7.4 0c0 0-.8 4.8-.3 5.5 0 0-4.7-2.6-7-.4 0 0-1.6-3.2 0-5zm0 0" transform="scale(.03125 .02917)" fill="#fff" stroke-width=".5" stroke="#000"/><path d="M305.9 279.4s4.2-.4 7.4 0c0 0-.6 4.3 0 5 0 0-5.6-1.1-8 .7 0 0-1-3.9.6-5.7zm8.4-.7s6-.8 9-.3c0 0-1 3.4.4 5.7 0 0-6.4-1.6-9 .4 0 0-2-4-.4-5.8zm-9 6.4l8.2.7s-.8 6-.3 6.7c0 0-6.6-1.5-7.8.5 0 0-2.1-5.3 0-7.9zm9.2 0s7-.4 10.3 0c0 0-2 4.6.2 8.5 0 0-9.3-2.6-10.5-.6 0 0-2.1-5.3 0-7.9zm10.8-12.2s4.2-.6 7.3 0c0 0-.5 4.2 0 5 0 0-5.9-1.3-8 .8 0 0-.9-4 .6-5.8zm0 5.8s4.2-.5 7.3 0c0 0-.5 4.2 0 5 0 0-5.9-1.2-8 .8 0 0-.9-4 .6-5.8zm.4 6s4.3-.6 7.6 0c0 0-1 6.6-.7 7.4 0 0-4.9-2.3-7-.3 0 0-1.4-5.2.1-7zm0 0" transform="scale(.03125 .02917)" fill="#fff" stroke-width=".5" stroke="#000"/><path d="M334.5 285.1s1.3 5.1 3 5.7l-2.3 2.8s-2.8-2-3-4.4c0 0 1.8-2 2.3-4zm0 0" transform="scale(.03125 .02917)" fill="#fff" stroke-width=".5" stroke="#000"/><path d="M11.1 8.7a2 2 0 01-1.1.8 2.1 2.1 0 01-1.2-.8H11.2" fill="#006ac8"/><path d="M353.8 301.2c-1.6.1-1.7-.8-1.7-.8s-2 1.6-3.9 1.3c-2-.4-2.8-1.6-2.8-1.6s-2 1.6-3.4 1.4c-.9-.2-1.6-.6-2.3-1.1 0 0-1.3 1.3-3 1-1.6 0-3-1-3-1s-2.7 1-4.4 1.3c-1.6.3-3-1.6-3-1.6s-3.8 1.2-4.6 1.2c-1 0-3.6-1.2-3.6-1.2s-1.9 1.2-3 1.2-4.2-1.3-4.2-1.3-3 .8-4.3.8c-1.4 0-3.5-.8-3.5-.8s-2.5 1-3.9.8l-2.4-.8s-2.7 1-4.4.8c-1.6-.4-3.6-1.3-3.6-1.3s-.3.6-3.6 1.3" transform="scale(.03125 .02917)" fill="none" stroke-width=".5" stroke="#000"/><path d="M293.1 305.2s-.4.7-2.9 1.2l-.6.2.6-.2-.7.3c3.3 4.4 7.1 8 11.8 11 4.4 3 9.4 6.5 18.3 9.2a74.7 74.7 0 0017.8-9c6-4.5 9.2-7.2 12.6-11.7-2.8 1.4-2.3 1.4-3.8 1.3-1.2-.3-2.2-1.3-2.2-1.3s-1.3 1.4-3 1.3c-1.6-.3-3-1.3-3-1.3s-2.3 1.4-4.4 1.4c-1.6-.1-3-1.6-3-1.6s-3.9 1.4-4.6 1.4c-.9 0-3.6-1.4-3.6-1.4s-1.9 1.2-3 1.2-4.1-1.4-4.1-1.4-3 .8-4.4.8c-1.3 0-3.4-.8-3.4-.8s-2.5 1-4 .8c-1.3-.3-2.4-.8-2.4-.8s-2.7 1-4.4.8c-1.6-.3-3.6-1.4-3.6-1.4zm0 0" transform="scale(.03125 .02917)" fill="#5ac800" stroke-width=".6" stroke="#000"/><path d="M319.6 327c6-2.4 11.8-5.2 17.1-8.7-1 0-4-1-3-1.2 0 0-1 1-2.2 1s-4.3-1.4-4.3-1.4-3 .8-4.2.8c-1.4 0-3.4-.8-3.4-.8s-2.6 1.1-4 .8l-2.4-.8s-2.8 1.1-4.4.8c-1.6-.4-3.6-1.3-3.6-1.3s-2.4 1.3-4 1.3a52.8 52.8 0 0018.4 9.4zm0 0" transform="scale(.03125 .02917)" fill="#ffd800" stroke-width=".6" stroke="#000"/><path d="M313.3 249c1.8-1.6 3-3 2.2-4.2-.8-1-1.8.6-3 .2 0 0-2-1.1-2.5-2-1-1.3-2.5-2.3-3.3-3.4-1-1-4.2-5.4-9-10.3-1.6-1-1.2-4.4-2.3-5.5 0-.8-10-10.6-13.4-14-1.5-1.1-2.3-1.8-4.8.5-2 1.7-2.6 3.6 0 5.9l12.8 11.6c1.9 1.8 4.5 2.2 5.6 3l13 13.4c1.6 1.4 2.5 2.4 1.5 3.6-1 2 .1 2.2.3 2.2.2.2 1.1.2 1.7-.4l1-.6zm0 0" transform="scale(.03125 .02917)" fill="#b34b00" stroke-width=".5" stroke="#000"/><path d="M280.8 214l13.3 13.1" transform="scale(.03125 .02917)" fill="none" stroke-width=".5" stroke="#000"/><path d="M298.8 220l1-2.5c.3-.4 4-6.2 5.7-6.3l11.3 8.2c0 .5-5 7.7-5.3 7.2 0 0-13.3-5.5-12.8-6.6zm0 0" transform="scale(.03125 .02917)" fill="#fff" stroke-width=".6" stroke="#000"/><path d="M9.6 6.5l-.2-.1.3.2-.1-.1zm0 0" fill="#ccb8c8"/><path d="M299.8 218a100.8 100.8 0 005 3.1c2.7 2 4.4 4 6.4 5.2" transform="scale(.03125 .02917)" fill="none" stroke-width=".4" stroke="#000"/><path d="M277.1 253l25.5-31.7c.5-.5 2.9-.5 3.1 2l-24 33s-2.8-.4-4.6-3.4zm0 0" transform="scale(.03125 .02917)" fill="#782121" stroke-width=".5" stroke="#000"/><path d="M362.8 253.3c-1 .8-2.6.8-2.6.8-1.6-2-3-4-5.3-6.5l-25.5-31.3 2.7-2.6 23 26.8c.6.8 4.6 5 8.4 10 0 0 .3 2-.8 2.8zm0 0" transform="scale(.03125 .02917)" fill="#730000" stroke-width=".5" stroke="#000"/><path d="M338.1 220.3l-4-5s-3.2.5-3.9 2c0 0-2 3.8-8 4.2 0 0 1.6 7 8.6 10.7 0 0 2.4-7.2 5-8.4 0 0 2.4-1.9 2.3-3.6zm0 0" transform="scale(.03125 .02917)" fill="#fff" stroke-width=".5" stroke="#000"/><path d="M327.9 242c-.6-.3-1.1 0-2 .4-.9.5-1.8.3-1.6-.7 0-.8 0-.8 1-1.4 1.4-.8 3.2-1 5-.4l-2.4 2m27.9-27.7c-.3-.7-.6-1.4.2-2.2.8-.8.8-2.1-1-1.5-1.8.7-2.3 2.4-.9 5.4zm0 0" transform="scale(.03125 .02917)" fill="#730000" stroke-width=".5" stroke="#000"/><path d="M327.3 242.5l29-28.8 7 7.7s-1.6-.6-2-.1.4 1.8.4 1.8-1.2-.5-1.8-.1 0 2 0 2-1.1-.8-1.8-.5c-.5.4 0 2.2 0 2.2s-1.5-.4-2 0c-.4.4 0 2 0 2s-1.5-.8-2.4 0c-.7.7.6 2 .6 2s-2-.9-2.8.3a1.8 1.8 0 00.1 2.2s-1.6-.7-2-.4c-.4.4 0 2.2 0 2.2s-1.4-.8-2.2.3c-.9 1 .1 2 .1 2s-1.3-.8-2-.4c-.6.4.3 2.2.3 2.2s-1.3-.8-2.2 0c-.9 1 0 2 0 2s-1-1-2.2 0c-1 1 0 2.1 0 2.1s-1.5-.8-2.1 0c-.7.8.2 1.9.2 1.9s-1.3-.7-2-.3 0 2.2 0 2.2-1.1-1.4-1.6-.7c-.6.7 0 2.4 0 2.4s-1-1.3-1.6-.7c-.7.7.4 2 .4 2s-2-.8-1.4-.8zm0 0" transform="scale(.03125 .02917)" fill="#fff" stroke-width=".5" stroke="#000"/><path d="M11 6.3v0m0 .1h-.1v.3-.3m-.5.5v.2-.2" fill="#7e4b7e"/><path d="M330.9 218.3c1 1 4 5 4 5m-2.6-2.9c-.2.6-.6 2.3-1.6 3.3m2-2.9c0 .5 0 1.7-1.4 3m2-2.4c-.3.7-.4 1.2-.8 1.7m1-1c0 .4-.3.5-.4.8m-3.2-2.7c-1.5 1-3.1 2-4.8 2.8m4-1.7c-1 .8-2 1.6-3.1 2m2.8-.8c-.6.4-1.6 1.3-2.3 1.6m1.8-.4c-.4.4-1 .8-1.6 1" transform="scale(.03125 .02917)" fill="none" stroke-width=".9" stroke="#7e4b7e"/><path d="M311.3 224.7l1.6-2.8c1-1.5 1.4-1.6 1.9-2" transform="scale(.03125 .02917)" fill="none" stroke-width=".9" stroke-linecap="square" stroke="#7e4b7e"/><path d="M217 303.3c1.5.9 0-4.6.5-6.6.6-2.3 4.8 5 6.8 6.1 2.2 1 15.3-5.2 15.3-5.2l3.2-5.8 1.6 4.9s3.6-4.3 4.6-6c1.1-1.5 0 3.1-1 4.7-1.1 1.7 3.1 2.2 2.6 5.4-.5 3 4.2-2.1 4.2-2.1l12 .9s2-7.2 5.4-11.5l1 4.8 5-5a66 66 0 0041.3 39.2 67 67 0 0040.3-36.7l6.6 7s5.4-1.6 6.4-2.2a80 80 0 0115.4 5.6c1 .7.3-3.5.3-3.5s5.8 1 5.3 4.2c0 0 1.2-2.8 2.3-3.4s3.6 2.7 4.1 3.6c.6 1.1 13 2.7 14.8 3.7 0 0 1.3 1.6 1.3 2.6l4.7-.2s-1.5.8-1.5 2.4c0 1.6-.8 3-2.4 3.6-1.5.8 0 1.3 2 1.6 2.1.3 0 3-4.1 4.6 0 0-1 2.2.8 3 0 0-3.7.3-4.2-.8 0 0-1.4 2.4-1.4 3.8 0 0-4-1.4-5-1.9 0 0-1.4 1.6-.4 2.3 0 0-7-.7-8.6-3.4 0 0-2.4.8-2 1.6 0 0-5-3.3-6.4-3.3l-1 1.7s-3.6-2-4.6-2-.2 1.5-.2 1.5l-4.8-3-2 3.1-5-2.6c-1-.8-1 1.6-2 1.8 0 0-1.4-2.2-3.6-1.8 0 0-.9 2.5-.5 3.3l-7.1-1.5c-1.1-.2-.5 1.2 0 2.3 0 0-4.5-1.3-5.5-2l-.3 2s-3.7-.3-4.4-1l-2.4 3.1h-3.5l-.6 2.9s-6.7-2-7.3-.8c-.5 1 .3 2.6.3 2.6l-5.7-.8-.5 2.4s-6.7-2-8.2-1c0 0-2 2-3.4 2.7-1.3.4 0-.9 0-.9l-2-2.9s-2.4 1.3-3.8.8c-1.3-.7-5.4 2-6.8 1.3 0 0 0-2-1.1-2.4-1-.4-2.8-.4-3.6.8l-2.2-3c-1.3-2.2-3.1 0-3.1 0l-.3-2.5-3.6-.2c-2.3-.3-2.6-2.2-2.6-2.2s-5.6.6-6.4.3l1.4-1.3s-7.6 1.6-9.1 1c-1.8-.5 1.7-2.6 1.7-2.6l-8.4-2c-1.4-.5-9 1.2-10 1.2s-1.6-1.8-1.6-1.8-1.8 1.6-3.4 2.2c0 0-1.3-3.3-.5-3.5 0 0-5 1.3-5.3 2.7 0 0-1.2-2-1-3.1 0 0-2.4 3.9-3.6 4.7-1 .8 0-2 0-2s-3 3.7-4 4v-2.6s-8.4 4.4-10.8 4c0 0 0-2 .8-2.5l-5.3-.1-4.2-1.2c-1.3-.2 2-1.7 4-1 0 0-5.8-2.1-7.6-1 0 0-.8-2.2 2.3-3 0 0-4-3.9-6.3-3.6 0 0 2.7-1.6 4.8-.8 0 0-2.5-6.6-4-7.4 0 0 5.5-1 7.1-.3zm0 0" transform="scale(.03125 .02917)" fill="#289400" stroke-width=".5" stroke="#060"/><path d="M208.9 188.8L280 152c.3-2-.8-3.3-1.9-5-20.4 10-38.9 22.2-61.4 29.5-1.3.6-12.4 5.2-18.3 12a7.5 7.5 0 00-2 4.6s.2 3.1.8 4c0 0 .2.8 1.3 1.5 0 0 .8.3 1.1.1.5 0 1.4 0 2.7-2a48.2 48.2 0 016.6-7.9zm0 0" transform="scale(.03125 .02917)" fill="#730000" stroke-width=".5" stroke="#000"/><path d="M266.1 152.4l9.1-4.4s3.2 2.3 3 5c0 0 .6 6 8 10.3 0 0-6.2 7.9-17.3 8.5 0 0 1.2-10.4-1.1-13.5 0 0-.4.4-.2-.1.3-1-.2-4.5-1.7-5.3zm0 0" transform="scale(.03125 .02917)" fill="#fff" stroke-width=".5" stroke="#000"/><path d="M276.9 153.6c-2 .8-8.3 4-8.3 4m5.1-2c0 1-.4 3.2 0 5m-.7-4.7c0 .5-.8 2.1 0 4.5m-1-4c-.3 1-.4 1.5 0 2.6m-.8-2c-.2.5 0 .8 0 1.2m5.8-1.5a39 39 0 004.5 6.6m-4.1-4.9c.4.8 1.7 3.7 2.9 4.9m-3-3.1c.3 1 1 2.7 2 3.7m-2-1.8c0 .9.4 1.7 1 2.5" transform="scale(.03125 .02917)" fill="none" stroke-width=".8" stroke="#7e4b7e"/><path d="M342.3 148.3l26 12.8c5.3 2.6 7.2.1 10 1.5l51.7 26.2c4.5 2 7 2.5 6.3 4.9 0 3.6 1.7 3.6 2.2 3.7.4 0 2.1-.3 2.8-1.2l.6-.7c.6-.5.5-.6.7-.9 2.1-3 3.3-5.8 1-7.5-2.5-1.3-2.9 1.5-5.6 1.2 0 0-4.8-1.7-6.6-3-3.1-2-7.8-4-8.8-5.2-3.4-.5-28-14.6-42.1-21.5-1.5-1.2-2.3-6-5.3-7.4-.8-1.3-19.8-10-29.8-15-3.6-1.3-5.6-2.1-8.3 2.3-2.4 4.4-1.9 6.8 5.1 9.8zm0 0" transform="scale(.03125 .02917)" fill="#b34b00" stroke-width=".5" stroke="#000"/><path d="M344.5 142.8l29.3 14.6" transform="scale(.03125 .02917)" fill="none" stroke-width=".5" stroke="#000"/><path d="M309.6 165c-.1.7-.6.3-.6.5-.4 2.2-.3 3.3-.8 4.6-.8 1-1.8 2-3.1 2.5-2 .7-4.4 3-8.5 1l-.6-.6s1.1 4-3 6.3l-15.7 8s-1.5 2.9-.5 6.6c0 .6.3 1.1-.2 1.6-1 .6-2.8 2.7-3.8 6 0 0-3-1.4-3-3.3 0-2 1.2-3 1.6-4.4.2-1.3.9-4.8.6-5.7-.4-1.2-2.3-1.4-3-2-.6-.3-1.4.6-1.3 1.4.1 1 .8.8 1.6 1 0 0-1 2-.8 3.5l-9.3 4.7 1.7 2.2c.4.7 1.3 10.4 4 14.8 2.7 4.5 3.7 3.2 4.2 3.8l2.1 2c.8.5 4 .8 4.5-1 .6-1.7 1.8-3.1 3.2-4 2-1.7 6-5.5 6-7.3 0 0 2.3 6.8 2 12.4 0 0 8.5 1.7 16.1 2 7.5 0 11.5-1.6 11.5-1.6s1-6.4.6-7.7c0 0 1.2 4.2 2.2 5.6 1 1.8 2.1 5.3 4.3 5.5 2.2 0 4-2.1 4.2-3v-6.8h8.7s3.8 1.5 5 1.2c1.3 0 2-1.2.9-1.6l-.6-.3c1.3 0 2.6.7 2.6.7h4.3v-.4c-.3-1.3-2.6-2.3-4.3-3.1-1.5-.6-3.3-1.3-4.6-1.3a15 15 0 00-6.2.5c-.7 0-3.9.2-5.8 1.2-.5.3-1 .4-.8-1 .3-1.4.3-7.8-1.3-10.6-1.2-2-1-3.4-1-5.1.2-3 .2-5.9 0-8.8-.2-1.7-2.4-4-6.6-4.3-3.7-.6-6.9-3.8-7.2-6.3-.3-2.7.3-7.3.7-9.4" transform="matrix(.03 0 0 .028 -1.3 0)" fill="url(#a)" stroke-width=".5" stroke="#000"/><path d="M292.4 153.6c-.7 3.3-.7 6.1-.6 9.3.1 2.1 1 4.6 2 6.7a10.3 10.3 0 002.8 4c3.7 2.2 7-.3 8.9-1.2 1.1-.4 2-1.4 2.7-2.3.5-1.3.3-2.1.8-4.6l.6-.5c1-1.4.8-2 1.3-2.9.6-1-.5-2.2-1.8-2 .5-1.9 1-4 .4-6-.3-.5.5-2-.6-1.8-4.6 1.9-10 1.4-14.8 1.4-.4 0-.7-.7-1.4-.7l-.3.6" transform="matrix(.03 0 0 .028 -1.3 0)" fill="url(#b)" stroke-width=".5" stroke="#000"/><path d="M292 155.3c-.5-.4-.6-1.3 0-3.2.7-2 0-2 1.1-3.2 1-1.2 1-1.6 1.6-1.9.7-.2 2.8-.2 3.5-.5 2.8-1.4 6.1-1.5 9-.3 1.5.8 2.4 2.8 3.3 3.6 1 .7 1.7 3.7 1.6 7.8-.3 4.4-1.2 3.5-1.2 3.5s-1.3-2-2.2-.2c0 0 0-1.7.2-3 0-1-.6-3.5 0-4.9 0 0-5.6 1.9-8.6 1.7-3-.3-7.5-1-7.6-1.7l-.6 2.3" transform="matrix(.03 0 0 .028 -1.3 0)" stroke-width=".5" stroke="#000"/><path d="M295 151.8c-.3-.6-1.8-3-.6-3.6 1-.6.4 2.7 2 3.4 0 0-.6 1.6-1.3.2zm0 0" transform="matrix(.03 0 0 .028 -1.3 0)" fill="#fff" stroke-width=".5" stroke="#fff"/><path d="M298.3 160.2l-.9 3.2m10.5 1.5c.3.6.6.3 1 .4m.3-4c.6-.4 1.3-.2 1 1.4m-17.8-5l2.8 1c1.5.6.6 2.9.2 4.2-.2.7-1 2.1-.6 2.6.5.8 1.2.2 2 .4 0-.3.6-.4.9-.4.6 0 1 .4 1.6.2.6-.2.4-1.2.3-1.6m-.1-4.6c0-.5 1-.7 1.5-.9 2.1-.4 3.6-.7 5.4.4m-5.7 11.2c-1.7.4-3.6.7-5.3-.1m0-.9c1-.4 1.2-.8 2.3-.3.2-.2.6-.4 1-.4.8 0 1.4.3 2.2.9m-5.5.2c1-.2 3.3-.2 5.4 0" transform="matrix(.03 0 0 .028 -1.3 0)" fill="none" stroke-width=".5" stroke="#000"/><path d="M292.3 160.2c.7 0 1.6-1 3.1.2 1.2.7-1.6 1.4-1.3 1.4-1.3.2-1.7-.5-1.8-1.2 0-.2-.2-.4 0-.4zm8.4.7c.7-1.4 1.8-1 2.8-.7 1 .2.7 0 1.7.7-1.2 0-.9 0-1.7.5-.9.4-1.7.7-2.3.3-.2-.1-.7-.6-.7-1 0 .2 0 .3.2.3zm0 0" transform="matrix(.03 0 0 .028 -1.3 0)" fill="#fff" stroke-width=".3" stroke="#000"/><path d="M293.8 161.4c.3 0 .7-.4.7-.8 0-.6-.4-1-.7-1-.4 0-1 .4-1 1 0 .4.6.8 1 .8zm8.5.2c.6 0 .8-.5.8-1 0-.4-.4-.9-.8-.9-.3 0-.7.5-.7.9 0 .5.4 1 .7 1zm0 0" transform="matrix(.03 0 0 .028 -1.3 0)" stroke-width=".3" stroke="#000"/><path d="M346 213.7a4 4 0 00-2-1.4l-2-1c-.7-.4-1.6-.5-2.4-1m.5 2.7l-1-.5c-.2 0-.6 0-1-.2v-.2c-1 0-1.9-.6-2.6-1.3m-62.7-9.3c1 .6 3.2 2.2 3.4 5.1.2 1 .5 2.1 1 3m-13.1-7.6c.4 1.7.5 7.4 6 13.4m-5.1-21.3c-.4 1-1 2 .2 2.9m14.4 10.7c1.1-2.6 4.6-2.3 4.6-4.9" transform="matrix(.03 0 0 .028 -1.3 0)" fill="none" stroke-width=".5" stroke="#000"/><path d="M284.8 207.3c-.3-3-1-4.5-.4-8.6.2-1.3.4-6 0-8.1 0 0 1.5 7.6-3.7 9.2m34.4 12.5c0-4 1-6.2 1-6.2 1.2-5.6-1.3-7.7-.3-9.1.9-1.3 2-3.8.5-9 0 0 2.8 10.7-4.5 10.7-7.5 0-7.2-2.8-7.2-2.8" transform="matrix(.03 0 0 .028 -1.3 0)" fill="none" stroke-width=".5" stroke="#000"/><path d="M284.4 190.6c0 2 0 8.3 9 8.3 2.8 0 5.8-2 7.4-3.3m2.2-2.7c-.3-2-.3-4.4-.3-7m-13.6-3.4c2.4-.3 4.4-.6 9-.6m.2-6.3c.5 2.1-.3 5.8 4 6.3m4.3-7.1c-.6 1.5-.6 3.4-.7 4.5m0 2.6c1.8 0 5-1.1 9-.3m1.5 22.8c1 1.7 1 3.7 3.7 6.3m-31.8-11.5c.2 1.3-1.8 5.7-.3 9.4 1.3 3.6 1 7.6-1.2 10.8m6.7-19c-1 1.7-2.4 3.4-2.6 4.8m6.6-1.7a35 35 0 01-4.7 11s3.6 1.5 3 6.6m7.5-21c0 1.2-.3 1.6.9 2.5m2.4 0c1.3 1.5 5.5 6.4 4.6 9m-7.4-6.4c.2 1 .2 6.3-.5 9m-2.3-.2c-1 0-2.7.8-3 2.7m8.8-3c1.1-.3 3.4 1.6 3.4 7m15.6-10.2c-2.1.6-3 1.7-2.4 1.1a14.8 14.8 0 01-2.2 1.6" transform="matrix(.03 0 0 .028 -1.3 0)" fill="none" stroke-width=".5" stroke="#000"/><path d="M289.8 198c.6 0 1-.5 1-1 0-.3-.4-.7-1-.7-.5 0-1 .4-1 .8s.5.9 1 .9zm23 .2c.6 0 1.1-.2 1.1-1 0-.4-.5-.6-1-.6-.7 0-1 .2-1 .8 0 .6.3.8.9.8zm0 0" transform="matrix(.03 0 0 .028 -1.3 0)" stroke-width=".3" stroke="#000"/><path d="M280.5 239.8c1.3-8 5-14.5 5-15.2 0 0 4 .8 10.7 1.5 6.7.7 8.4.5 11.5.2l6.8-.9s1.3 2.6 1.3 5c.3 5 2.3 27.6 2.6 33.6 0 0 .7 3.6.7 12.4 0 9.5 2.6 28.8 2.6 39.3l-2.6.6s-14.5 1-14.5-.9c0-2-.8-27 1.4-42.1 0 0-.5-3-1.4-5.4-.8-2.6-4.3-10-4.3-11.8 0 0-5.6 16-6 18.7-.3 2.7-1.2 38.5-1.7 41.5l-9.3 7c-1.1.4-9-3.5-9.3-4.5.6-11.2 2.2-22.2 4.6-33.2 1.3-7.1.6-8.4.6-10.3 0-2.1.1-27.5 1.3-35.5zm0 0" transform="matrix(.03 0 0 .028 -1.3 0)" fill="#fff" stroke-width=".5" stroke="#000"/><path d="M294.3 275a10 10 0 01-3.5 5.7M288 227c-.2 1.3-2.3 7.3-7.1 10.9m14.2-9.8c-1 3.7-5.5 22.6-6.3 45.4m-.3 7l-1.7 20.9m-.9 3a68.8 68.8 0 00-2.6 18.7m32.2-36c-.1 2-1 15.7 3.6 28m-18.4-86a322 322 0 00-1 17.7c0 1.3 1.7 3 2.5 3.1 0 0-1.5.6-2 6m-4-12.8c-.2 1.6-2 8.5-3 11.3m13-25.6s5 1.1 5.3 0c0 0 1.7 29.6 3.9 46M304 233l-.5 16.4m2.5 2s2 2.9 1.4 4.1m-17.8-28l3 .8m5.2 1.6a58 58 0 00-.7 4.6m8.9 38.9c.6.8 1.4 2 .8 4.5" transform="matrix(.03 0 0 .028 -1.3 0)" fill="none" stroke-width=".5" stroke="#000"/><path d="M285 224.3s0-3 1-4.7c0 0 3.6.7 8.5 1.2 5 .5 9 .9 12.7.5 3.6-.5 7.3-1.3 7.3-1.3s1 4.7.5 5.4c0 0-4 .9-8.4 1.2a83.8 83.8 0 01-14.4-.9c-2.5-.3-5-.7-7.3-1.4zm0 0" transform="matrix(.03 0 0 .028 -1.3 0)" fill="#9b5f00" stroke-width=".5" stroke="#000"/><path d="M288 224.7l.7-4.7h1l-.2 5.2-1.3-.3m22-4v5.4l1.3-.2v-5.5l-1.3.2m-15.7 0l-.4 5.3h.7l.6-5.3h-.9" transform="matrix(.03 0 0 .028 -1.3 0)" fill="#fff" stroke-width=".5" stroke="#000"/><path d="M276.8 320.7c-.2 1.4-.8 3.2-1 5.6 0 .6-.5 3.4 1 3.4 1 0 1.5-2.8 1.5-2.8s-1 3.2.2 3.6c1.8.4 2-3.6 2-3.6-.2 1-1.5 4 .4 4.3 1.8.3 2.3-4 2.3-4s-1.6 4.3.3 4.4c1.7 0 1.7-4 1.7-4s-1 5 1.5 4.4c1.5-.1 1.7-2 2-2.9.4-1.5 1.3-3.3.2-6.6-.7-2.3-.5-3-.5-3s-2.9 2.2-5 3.6c-1.1.6-6.6-2.4-6.6-2.4zm29.7-4.3c-.5-.3-.4 2-.6 3 0 1 .2 3.1 3.6 2.9 3.4-.3 6.6-1 8.9-.5 2 .6 5.3.7 7 .7 1.7 0 2.9-.2 3.6-.5.8-.3 2.2.4 3.2.4.7 0 1.7-1 1.5-1.8 0-1.3-1.3-1.3-3-1.4-1.7-.1-3.4-.4-5-1-1-.3-3-1.5-5.6-2l-6 .2c-1 0-7 .3-7.6 0zm0 0" transform="matrix(.03 0 0 .028 -1.3 0)" fill="#ffa54b" stroke-width=".5" stroke="#000"/><path d="M255.7 189.7c-.5.5-1.1-2 .4-2.8 0 0 .4-2 2-2 0 0 1.4-2 3.4-1.9 0 0 2-1.4 3-1.2.9.1 3 2 3 3 0 .6 0 1.9-.6 2.3-.6.5-1-.2-1.1-1 0 0 .3 1.5-.8 2.2-1.2.7-1 .2-1.2-.7 0 0-.4 1.7-1.2 2-.8.3-1.3-.6-2-.6 0 0 1.1 1 .3 1.6-.6.5-1.4.2-2 0-.4-.6-1-2-3.2-.7zm0 0" transform="matrix(.03 0 0 .028 -1.3 0)" fill="#ffb366" stroke-width=".5" stroke="#000"/><path d="M265.8 186c-.6-1.6-2.3-3-4-2.8m2.1 4.4c-.4-.4-.4-.8-.7-1.2-1-1.6-3-1.4-4.5-1.8m2.4 4.4c-.6-.2-.8-1-1.5-1.4-.9-.4-2-1-3.2-.7" transform="matrix(.03 0 0 .028 -1.3 0)" fill="none" stroke-width=".5" stroke="#000"/><path d="M439 165c.8-.2.6.7.7 1.2.4 1.2.4 2.6 1 3.9.4 1 .7 1.4 1.7 2 1.6.9 6.4 3.5 9.8 1.4.3 0 .5-.4.7-.5 0 0-1.3 4 3 6.3l15.6 8s1.5 2.9.6 6.6c-.2.6-.4 1.1.2 1.6 1 .6 2.6 2.7 3.7 6 0 0 3-1.4 3-3.3 0-2-1.1-3-1.5-4.4-.2-1.3-1-4.8-.5-5.7.3-1.2 2-1.4 2.7-2 .6-.3 1.5.6 1.3 1.4 0 1-.8.8-1.6 1 0 0 1 2 .8 3.5l9.4 4.7-1.6 2.2c-.5.7-1.5 10.4-4.1 14.7-3 4.5-3.8 3.3-4.3 4l-2.1 1.8c-.5.5-3.8.9-4.5-1-.6-1.6-1.6-3-3-4-2.2-1.6-6-5.4-6-7.2 0 0-2.4 6.8-2.2 12.4 0 0-8.3 1.7-16.1 2-7.5 0-11.5-1.6-11.5-1.6s-1-6.4-.6-7.7c0 0-1.2 4.2-2 5.6-1.1 1.8-2.2 5.3-4.4 5.5-2.2 0-4-2.1-4.2-3v-6.8h-8.7s-3.8 1.5-5 1.2c-1.4 0-1.9-1.2-.8-1.6l.4-.3c-1 .1-1.9.3-2.7.7H402v-.4c.3-1.3 2.7-2.3 4.4-3.1 1.5-.6 3.2-1.3 4.5-1.3 2-.2 3.3-.1 6.3.5.8 0 4 .2 5.8 1.2.4.3 1 .4.8-1-.4-1.4-1.1-5.5.3-8.3 1-1.8.9-3.5.8-5.2s-1-5.6-1-7.2c0-5.8 4.4-8.1 8.1-9.3 4.3-1.3 7-2.7 7-5.3-.2-2.7.5-7 0-9" transform="matrix(.03 0 0 .028 -1.3 0)" fill="url(#c)" stroke-width=".5" stroke="#000"/><path d="M456.3 153.6c.6 1.7 1 3.5 1.3 5.3 0 1.3-.6 1.4-.2 2.8.7 2.4-.8 5-2.5 8-.9 1.2-1.4 3-2.7 3.8-3.4 2.1-7.5-.4-9.6-1.3-1-.5-1.7-1.2-2-2.1-.4-1.3-.5-2.4-.8-4 0-.4 0-1.3-.6-1-1.3-1.5-1-2-1.6-3-.5-1 1-2.2 2-2-.7-1.9-.7-4-.1-6 0-.5-.7-2 .3-1.8 4.6 1.9 10 1.4 14.9 1.4.4 0 .6-.7 1.3-.7l.3.6" transform="matrix(.03 0 0 .028 -1.3 0)" fill="url(#d)" stroke-width=".5" stroke="#000"/><path d="M456.8 155.3c.4-.4.1-2.3-.4-4.4-.1-1-1-1.3-2-2.5-1-1-1.5-1-2.3-1.4-.5-.2-2-.2-2.8-.5-.6-.3-2.2-.2-3.7.1-2 .3-3.2.2-4.7 1-1.4.8-2.7 1.8-3.3 3.3-.4 1-1 2.6-.8 6.7.2 4.4 1 3.5 1 3.5s1.1-1.6 2-.5l-.3-3.7c-.2-1 0-2.7.3-4.6 0 0 4.7 1.9 9.2 1.9 3 0 6.9-.5 7-1.2l.6 2.3zm0 0" transform="matrix(.03 0 0 .028 -1.3 0)" stroke-width=".5" stroke="#000"/><path d="M450.4 160.2c.6 1.6.1 1.2.4 2.3m-10.2 2c0 .8-.6.5-1 .5" transform="matrix(.03 0 0 .028 -1.3 0)" fill="none" stroke-width=".5" stroke="#000"/><path d="M456.9 158.8c-1-.7-2.7-.2-3.5.1-1.4.7-.7 2.2-.1 3.8 0 .7.9 1.6.3 2.3-.3.7-.6.5-1.5.5 0-.3-.8 0-1 0-.7 0-1.1.4-1.6.2s-.5-1.2-.3-1.6m.1-4.6c0-.5-1.3-.7-2.7-.9-2.3 0-2.5.2-4.2 1.3m11.5 9c-.4-.7-1-1-2-.4 0-.3-1.6-.4-1.6-.4-1 0-1.3.3-2.3.7m5.6.6c-.9-.6-3.2-.2-5.6-.2m.3.9c1.7.4 3.5.7 5.2 0" transform="matrix(.03 0 0 .028 -1.3 0)" fill="none" stroke-width=".5" stroke="#000"/><path d="M456.4 160.2c-.7 0-1-1-3.1.2-1 .7 1.8 1.4 1.4 1.4 1.2.2 1.5-.5 1.7-1.2 0-.2.2-.4 0-.4zm-8.4.7c0-.7-1.6-1-2.8-.7-1 .2-.5 0-1.5.7 1 0 .7 0 1.6.5 1 .4 1 .8 2.4.3.2-.1.6-.6.7-1 0 .2-.2.3-.4.3zm0 0" transform="matrix(.03 0 0 .028 -1.3 0)" fill="#fff" stroke-width=".3" stroke="#000"/><path d="M455 161.4c-.3 0-.7-.4-.7-.8 0-.6.3-1 .8-1 .4 0 .8.4.8 1 0 .4-.4.8-.8.8zm-8.6.2c-.4 0-.7-.5-.7-1 0-.4.4-.9.8-.9s.6.5.6.9c0 .5-.2 1-.7 1zm0 0" transform="matrix(.03 0 0 .028 -1.3 0)" stroke-width=".3" stroke="#000"/><path d="M346 213.7a4 4 0 00-2-1.4l-2-1c-.8-.4-1.7-.5-2.4-1m.5 2.7l-1-.5c-.2 0-.6 0-.8-.2 0 0 0-.2-.3-.2-1 0-1.8-.6-2.4-1.3m-62.8-9.3c1 .6 3.2 2.2 3.3 5.1l1 3m-13-7.6c.5 1.7.5 7.4 6 13.4m-5.2-21.3c-.3 1-.9 2 .3 2.9m14.5 10.7c1-2.6 4.5-2.3 4.5-4.9" transform="matrix(-.03 0 0 .028 21.2 0)" fill="none" stroke-width=".5" stroke="#000"/><path d="M284.7 207.3c-.2-3-.9-4.5-.4-8.6.3-1.3.4-6 0-8.1 0 0 1.7 7.6-3.6 9.2m34.4 12.5c0-4 1-6.2 1-6.2 1.2-5.6-1.2-7.7-.2-9.1.7-1.3 2-3.8.3-9 0 0 3 10.7-4.4 10.7-7.5 0-7.1-2.8-7.1-2.8" transform="matrix(-.03 0 0 .028 21.2 0)" fill="none" stroke-width=".5" stroke="#000"/><path d="M284.3 190.6c0 2 0 8.3 9.2 8.3 2.7 0 5.7-2 7.3-3.3m2.2-2.7c-.3-2-.3-4.4-.3-7m-13.5-3.4c2.3-.3 4.3-.6 9-.6m0-6.3c.6 2.1-.2 5.8 4.1 6.3m4.3-7.1c-.6 1.5-.6 3.4-.8 4.5m.2 2.6c1.7 0 5-1.1 9-.3m1.4 22.8c.9 1.7 1 3.7 3.6 6.3m-31.7-11.5c.2 1.3-1.7 5.7-.3 9.4a12 12 0 01-1.2 10.8m6.7-19c-1 1.7-2.3 3.4-2.6 4.8m6.6-1.7a35 35 0 01-4.7 11s3.7 1.5 3 6.6m7.4-21c0 1.2-.2 1.6 1 2.5m2.4 0c1.3 1.5 5.5 6.4 4.6 9m-7.5-6.4c.4 1 .4 6.3-.5 9m-2-.2c-1.2 0-3 .8-3 2.7m8.5-3c1.2-.3 3.4 1.6 3.4 7m15.7-10.2c-2.1.6-3 1.7-2.4 1.1a14.8 14.8 0 01-2.2 1.6" transform="matrix(-.03 0 0 .028 21.2 0)" fill="none" stroke-width=".5" stroke="#000"/><path d="M289.8 198c.5 0 1-.5 1-1 0-.3-.5-.7-1-.7s-1 .4-1 .8.5.9 1 .9zm23 .2c.6 0 1.1-.2 1.1-1 0-.4-.5-.6-1-.6-.6 0-1 .2-1 .8 0 .6.4.8 1 .8zm0 0" transform="matrix(-.03 0 0 .028 21.2 0)" stroke-width=".3" stroke="#000"/><path d="M280.4 239.8c1.3-8 5.1-14.5 5.2-15.2 0 0 4 .8 10.6 1.5s8.5.5 11.5.2l6.9-.9s1.1 2.6 1.3 5c.2 5 2.2 27.6 2.4 33.6 0 0 .8 3.6.8 12.4 0 9.5 2.6 28.8 2.6 39.3l-2.6.6s-14.4 1-14.4-.9c0-2-1-27 1.3-42.1 0 0-.6-3-1.3-5.4-1-2.6-4.3-10-4.3-11.8 0 0-5.8 16-6.2 18.7-.2 2.7-1.1 38.5-1.6 41.5l-9.3 7c-1 .4-9-3.5-9.2-4.5.6-11.2 2-22.2 4.5-33.2 1.5-7.1.5-8.4.5-10.3 0-2.1.2-27.5 1.3-35.5zm0 0" transform="matrix(-.03 0 0 .028 21.2 0)" fill="#fff" stroke-width=".5" stroke="#000"/><path d="M294.2 275a10 10 0 01-3.5 5.7M288 227c-.3 1.3-2.4 7.3-7.2 10.9m14.4-9.8c-1.2 3.7-5.6 22.6-6.4 45.4m-.3 7l-1.7 20.9m-.8 3c-1.8 6-2.7 12.3-2.7 18.7m32.2-36c-.2 2-1 15.7 3.6 28m-18.5-86c-.2 2.2-.8 16.8-.8 17.7 0 1.3 1.6 3 2.4 3.1 0 0-1.6.6-2 6m-4-12.8c-.3 1.6-2 8.5-3 11.3m13-25.6s5 1.1 5.4 0c0 0 1.5 29.6 3.7 46m-11.2-42l-.6 16.4m2.5 2s2 2.9 1.4 4.1m-17.8-28l3 .8m5.2 1.6c-.3 1-.6 4.6-.6 4.6m8.8 38.9c.6.8 1.4 2 .7 4.5" transform="matrix(-.03 0 0 .028 21.2 0)" fill="none" stroke-width=".5" stroke="#000"/><path d="M285 224.3s0-3 1-4.7c0 0 3.6.7 8.5 1.2 5 .5 9 .9 12.6.5 3.7-.5 7.5-1.3 7.5-1.3s.9 4.7.3 5.4c0 0-3.9.9-8.2 1.2a84.5 84.5 0 01-21.8-2.3zm0 0" transform="matrix(-.03 0 0 .028 21.2 0)" fill="#9b5f00" stroke-width=".5" stroke="#000"/><path d="M288 224.7l.6-4.7h1v5.2l-1.5-.3m22-4l.2 5.4 1.3-.2-.2-5.5-1.3.2m-15.6 0l-.4 5.3h.7l.7-5.3h-1" transform="matrix(-.03 0 0 .028 21.2 0)" fill="#fff" stroke-width=".5" stroke="#000"/><path d="M276.8 320.7c-.3 1.4-.8 3.2-1 5.6 0 .6-.6 3.4 1 3.4 1 0 1.4-2.8 1.4-2.8s-1 3.2.3 3.6c1.8.4 2-3.6 2-3.6-.2 1-1.4 4 .3 4.3 1.9.3 2.4-4 2.4-4s-1.6 4.3.2 4.4c1.9 0 1.9-4 1.9-4s-1 5 1.4 4.4c1.4-.1 1.7-2 2-2.9.5-1.5 1.2-3.3.2-6.6-.8-2.3-.5-3-.5-3s-2.9 2.2-5.1 3.6c-1 .6-6.5-2.4-6.5-2.4zm29.7-4.3c-.5-.3-.4 2-.5 3-.2 1 0 3.1 3.5 2.9 3.4-.3 6.7-1 9-.5 2 .6 5.2.7 6.9.7 1.7 0 2.8-.2 3.7-.5.7-.3 2.3.4 3 .4.8 0 1.7-1 1.6-1.8 0-1.3-1.3-1.3-3-1.4-1.7-.1-3.4-.4-5-1-1.1-.3-3-1.5-5.7-2l-5.8.2c-1 0-7 .3-7.7 0zm0 0" transform="matrix(-.03 0 0 .028 21.2 0)" fill="#730000" stroke-width=".5" stroke="#000"/><path d="M491.5 193.5c.6.1 2.1-2 .6-3 0 0-.6-2-2-2 0 0-1.4-2-3.4-1.7 0 0-2-1.5-2.8-1.4-1 .1-3 2.2-3 3-.3.5 0 1.8.4 2.4.6.5 1 0 1-1 0 0-.3 1.5.9 2.2 1.2.7 1 0 1.2-.7 0 0 .2 1.6 1.1 2 1 .2 1.3-.5 2-.5 0 0-1 .8-.3 1.3.7.7 1.5.2 2 0 .6-.5.3-1.9 2.3-.6zm0 0" transform="matrix(.03 0 0 .028 -1.3 0)" fill="#730000" stroke-width=".5" stroke="#000"/><path d="M482.6 189.7c.3-1.6 2-3 3.9-2.8m-2 4.4c.1-.5.1-.7.5-1.1 1-1.7 3-1.7 4.6-2m-2.5 4.5c.7-.5.8-1.2 1.4-1.4 1-.6 2.1-.9 3.2-.7" transform="matrix(.03 0 0 .028 -1.3 0)" fill="none" stroke-width=".5" stroke="#000"/><path d="M13.2 5.2v.2H13.6l-.2-.1zm0 0" fill="#730000"/><path d="M480.7 188.2c-1.5 2.6.6 4 1 2.6 0 2.4 1.8 2.3 2.4 1.4.7 2.6 1.8 1.4 3 1.3-1.3 2.2 1.4 1.5 2 1 1-1.3 1.4-.2 2-.3l1.3-1.3m-8-5.7c-1.7 1-2.5 2.3-2.6 3.6m5-2c-1.8 1-2.6 2-2.6 3.6m5.4-1.7c-1.7.8-1.8 1.7-2.5 2.8" transform="matrix(.03 0 0 .028 -1.3 0)" fill="none" stroke-width=".5" stroke="#000"/><path d="M7.5 9v-.1h.2v-.1.1H8V9H8.2v.1H8.9c0-.1 0 0 0 0v-.2H9C9 9 9 9 9 9v.2s-.4.1-.8 0a10 10 0 01-.7 0m3.4 0V9h1.2v-.1s.1 0 0 .1h.2s.1.1 0 .2h.2-.8L11 9m-.3.3s-.1.3-.5.3l-1-.2h.5l.1.2s0-.1.1 0H10.2l.1-.1h.2v-.1h.2zm0 0" fill="#5ac800"/><path d="M238.5 310.7l-.3-4.5 2 1.6.4-3.4c.8-.2 2.2 1.4 2.2 1.4l-.3-3.5 2.8 3s-.2-2.5.8-4.1c0 0 2.2 1.9 2.2 4 0 1.9 1.8-2.7 1.8-2.7l1.7 5.1 1.2-1.8 1 3.8 2.4-3.4 1.9 4 4-.3.6 2.4 1.9-2 2.4 1.5s2-.6 3-.6c1.2 0 2.6 1.4 2.6 1.4s.7-1.4 1.4-1.9c.8-.5 2 .8 2.2 1.6l1.6-3s2 2.2 2.3 3c0 0 .3-2.4.8-3.2.5-.7 1.1.3 1.8 1.3l1.4-4.2s1.3.4 2.2 1.8c1.1 1.6 1.1-2.2 1.1-2.2s2.4 3 3 5.2m58.6-.8s1-2.2 2-3.2c0 0 2 2.4 2 3.2l1.7-1 1.6 1.5 1.8-1.3 1.8 1.6 3.1-1.4 1.4 1.4 5-.6 1.8.9 1.9-2.3 1.4 1.7 2.8-2.7s1.3 1.1 1.5 2c0 0 2.3-1.2 2.8-2 0 0 2-.6 2.2.6 0 0 1.3-1 1.3-2-.2-1.2 1.4-.4 2 1 0 0 .4-2.2 2-2.4a5 5 0 00.8 3.6s2.3-1.8 3.4-1.8c0 0 .5 2.4-.3 4.8 0 0 2.4-4 3-2.7 0 .8.7 3.5 0 5.4l2.3-1.4.8 2.6 2.3-.6m-109.9 8s2-2.9 3-3.5c0 0 2.3 1.7 3 4.1 0 0 .4-1.6 1-3 0 0 3 1.4 3.6 3.1 0 0 1-1.7 2-2.2.6-.6 1.4 2 1.4 3.6 0 0 2-2 3-2 0 0 2 1 2.6 4.4 0 0 2-1.9 2.6-1.6 0 0 2.4 1.6 1.9 3.7-.4 1.2 2.2-1.4 5.4-2.1l3 2.1 3.3-4.7s2.1.8 2.1 2c0 0 1-3.6 1.8-4 .9-.5 1.9 1.1 1.9 2.2 0 0 .3-2.8 1.8-3.4 0 0 1.6 1 1.6 2 0 0 1.6-3 3-3.8" transform="scale(.03125 .02917)" fill="none" stroke-width=".5" stroke="#060"/><path d="M10 10.6c.7 0 1-.3 1.3-.4.5-.3.6-.4.7-.3h.3c0 .2-.2.2-.4.2h-.5s.7.3.9 0l.2-.5s-.1-.2-.5-.2c-.3 0-.6.2-.8.3-.2.2-.5.4-1.2.4s-1-.2-1.2-.4l-.9-.3a.6.6 0 00-.5.2l.3.6c.1.2.8 0 .9 0l-.1-.1H8l-.3-.1.2-.1.8.3c.4.2.8.4 1.3.4" fill="#fff"/><path d="M8.9 9.8v-.1c0-.1-.1-.2-.2-.1h-.2a.6.6 0 01.2-.1s.5.1.6.3v.2L9 9.8m-.2.4l-.1.2c0 .2.1.2.2.2s.2 0 .2-.2l-.3-.2m2.4-.4v-.1c0-.1 0-.2.1-.1h.2a.5.5 0 00-.2-.1l-.6.3v.2l.5-.2m.2.4v.2c0 .2 0 .2-.2.2 0 0-.2 0-.2-.2l.4-.2" fill="#fff"/><path d="M8.5 10l-.5.1-.3-.1.2-.1.6.2m3 0h.4l.4-.1-.3-.1-.5.2m-2.6-.3h-.1l-.2-.2H9v.2m-.2.8a.3.3 0 00.1 0c.1 0 .2 0 .2-.2h.4v.4l-.6-.1h-.1m2.4-.9l.2-.2H11v.2m.2.8a.3.3 0 01-.2 0s-.2 0-.2-.2h-.3v.4l.6-.1h.1" fill="#69f"/><path d="M319.5 361.9c22 .2 35-7.8 42-12.6 16.8-11.3 20.3-11.7 23-11.4 3.1.3 7.8 1.3 8 4 .3 4.3-6.6 6-10.5 6-4 0-14.5-2.5-14.5-2.5l-2.8 1.9c2 .8 23.3 8 27.4 1.2 4.1-6.8 8.4-18 8.4-18s-4.8-8.3-15.1-8.3c-10.6 0-20.8 6.7-27.6 11.7-7 5-15.6 11.8-38.3 11.8s-31.6-6.9-38.4-11.8c-6.9-5-17.1-11.7-27.6-11.7s-15.3 8.3-15.3 8.3 4.3 11.2 8.6 18.1c4 6.7 25.4-.5 27.3-1.5l-2.7-1.7s-10.4 2.5-14.4 2.5-10.9-1.7-10.6-5.8c.2-2.9 4.8-4 8-4.2 2.7-.3 6.2.1 22.8 11.4a71.3 71.3 0 0042.3 12.6zm0 0" transform="scale(.03125 .02917)" fill="none" stroke-width=".7" stroke="#000"/><path d="M271.3 345.4s-10.4 2.5-14.3 2.5c-4 0-10.9-1.7-10.6-5.8.2-2.9 4.8-4 8-4.2 2.3-.3 5.3 0 17 7.5zm96.2 0s10.5 2.5 14.5 2.5c3.9 0 10.8-1.7 10.4-5.8-.1-2.9-4.8-4-7.9-4.2-2.3-.3-5.4 0-17 7.5zm-83.4-9.2a68 68 0 01-3.1-2.4c-1.5-1.1-3-2-4.5-3.3 0 0 2.1-2.6 3.3-3 1.6-.4 3.6.4 4 3.8.3 2.9.3 4.9.3 4.9zm0 0" transform="scale(.03125 .02917)" fill="none" stroke-width=".7" stroke="#000"/><path d="M284.1 336s0-1.8-.4-4.7c-.3-3.4-2.3-4.2-4-3.8-1 .4-3.2 3-3.2 3l-3-1.7a19.8 19.8 0 016.3-3.6c1 0 14.4 5.3 18.8 9 1 1.2 1.8 7 1.1 9a45.2 45.2 0 01-15.6-7m-6.5 13.5s-2.9 3-3 8.3c0 6.3 4.5 6.6 7.5 6.6 3.6 0 6.6-2.2 6.5-9 0 0-6-2.6-11-6zm0 0" transform="scale(.03125 .02917)" fill="none" stroke-width=".7" stroke="#000"/><path d="M280.1 351.2s-2.4 2.4-2.7 6.4c-.1 3 1.9 5 4.5 4.7 3.7-.2 5.1-5.2 3.4-8l-5.2-3.1" transform="scale(.03125 .02917)" fill="none" stroke-width=".7" stroke="#000"/><path d="M277 363.8c1.8.9 3.9.9 5.3.8 3.4 0 6.4-2.2 6.3-9 0 0 4.5 2.3 11.8 4 0 0 1.2 1.5 1.4 4.6.3 2.4-1.4 5-3.3 4.6L282 366c-3.8-.6-5-2.3-5-2.3zm77.8-27.6l3.2-2.4c1.3-1.1 2.8-2 4.4-3.3 0 0-2.1-2.6-3.3-3-1.6-.4-3.6.4-4 3.8zm0 0" transform="scale(.03125 .02917)" fill="none" stroke-width=".7" stroke="#000"/><path d="M354.8 336l.3-4.7c.4-3.4 2.4-4.2 4-3.8 1 .4 3.1 3 3.1 3l3-1.7c-.6-1-5-3.6-6-3.6s-14.6 5.3-19 9c-1 1.2-1.7 7-1.2 9 5.6-1.3 11-3.7 15.8-7m6.4 13.5s3 3 3 8.3c.2 6.3-4.4 6.6-7.4 6.6-3.7 0-6.6-2.2-6.6-9 0 0 6-2.6 11-6zm0 0" transform="scale(.03125 .02917)" fill="none" stroke-width=".7" stroke="#000"/><path d="M358.8 351.2s2.3 2.4 2.7 6.4c.3 3-1.9 5-4.5 4.7-3.8-.2-5.1-5.2-3.4-8l5.1-3.1" transform="scale(.03125 .02917)" fill="none" stroke-width=".7" stroke="#000"/><path d="M361.9 363.8c-2 .9-4 .9-5.1.8-3.7 0-6.6-2.2-6.6-9 0 0-4.4 2.3-11.7 4 0 0-1.3 1.5-1.5 4.6-.3 2.4 1.5 5 3.4 4.6l16.5-2.8c3.6-.6 5-2.3 5-2.3zm0 0" transform="scale(.03125 .02917)" fill="none" stroke-width=".7" stroke="#000"/><path d="M299.6 361.3s3.3 2.4-.7 5.4m-9-6.8l10 4.3m-8.3-2l7.1 3m-4.4-5l5.3 2.5m39.6-1.4s-3.2 2.5.7 5.4m9-6.8l-10 4.3m8.4-2l-7.2 3m4.6-5l-5.4 2.5" transform="scale(.03125 .02917)" fill="none" stroke-width=".7" stroke="#fff"/><path d="M261 331.3c.3.3.3.4.3.8a1 1 0 010 .8c-.2.7-.6 1.3-1.2 1.7-.6.4-1.5.5-2.2.4l-1-.4-1-.7-.3.4-.3-.1.3-2.9h.5l.1 1.1.4 1 .6.6 1 .4h.7c.4 0 .7-.2.9-.7l.2-.5c.1-.4 0-.7-.1-1a1.6 1.6 0 00-.6-.7 2 2 0 01-1-.6l-.7-.5c-.5-.3-.9-.5-1-1-.2-.3-.2-.7-.1-1.4 0-.3.3-.5.4-.8.4-.5.9-.8 1.5-1h1l1 .5.9.5.2-.4.5.1-.5 2.8-.5-.1v-1l-.4-.7c-.1-.3-.2-.6-.5-.8-.2-.2-.5-.3-.9-.4-.2 0-.6 0-1 .2-.3.2-.4.6-.4.8v1l.6.8.9.4c.3.4.8.6 1.2 1 .3 0 .4.3.5.4m12 1.6h-1c-.3 0-.4 0-.5.2-.3.2-.4.6-.6 1l-1.8 3.1c-.4.7-1.1 1.2-1.9 1.2h-1c-.4 0-.8-.2-1-.4-.4-.2-.8-.5-1-.8a2 2 0 01-.8-1l-.1-1c0-.2 0-.5.2-.8l2.4-4.3.1-.4v-.2l-.3-.4-.4-.3.2-.3 3.1 1.6-.2.4-.3-.1-.4-.1h-.4l-.2.2-2.2 4a2 2 0 00-.3.9 1 1 0 000 .8l.1.6 1 .8 1 .3c.6 0 1-.1 1.6-.5l.4-.6 1.6-3 .4-1v-.7s0-.2-.3-.4l-.4-.4.3-.4 3 1.8-.3.2m4.3 7.5c.3.7.3 1.4 0 2-.2.2-.4.5-.8.7-.3.2-.6.3-1 .3l-1-.1c-.4 0-.6-.2-.9-.4l-3.5-2 .1-.5 1 .4h.2l.4-.4 3-5.2v-.2-.4l-.4-.4-.3-.2.1-.4 3.6 2 .6.6.6.6c.3.4.3 1.1 0 1.6-.1.3-.4.4-.6.6l-.6.2a.8.8 0 01-.8 0h-.8v0l.6.6zm-.6-1.7l.6-.3c0-.2.3-.4.4-.6.2-.4.3-.8.2-1.2-.1-.3-.4-.6-.9-.8l-.8-.6-1.6 2.8.6.4.8.3zm-.6 2.7c.1-.4.3-.8.1-1.4 0-.4-.4-.8-1-1l-.4-.4-.6-.2-1.4 2.6c-.2.2-.2.5 0 .7 0 .2.4.4.7.5.5.3 1 .4 1.4.3.5-.2.9-.4 1.2-1zm18.9 4.3h-.5l-.6-.2-.4.4a4.1 4.1 0 00-.5 1.1l-1.5 3.4c-.1.4-.4.6-.8.9-.2.3-.6.4-1 .4h-1c-.8-.1-1.6-.4-2.2-1l-.8-.7-.2-1.1c0-.3.1-.7.3-1l2-4.4v-.4l-.2-.2-.4-.4-.3-.2.2-.4 3.3 1.4-.1.4h-.6c0-.2-.2-.2-.3 0h-.3l-.2.2-1.9 4.3-.3.7c0 .5.2 1 .6 1.5 0 .2.4.4 1 .6l1 .2c.4 0 1-.3 1.4-.7l.4-.5 1.3-3.3.4-.9v-.7l-.6-.4-.4-.2.2-.4 3.1 1.3-.1.3m9.3 10.8l-3.7-1v-.5h.6l.4.2.4-.2.3-.4 1.6-5.7h-.1l-4.8 6h-.3l-.6-7.9-1.5 4.8-.2 1.1.1.5.5.4.5.4-.3.4-3-1v-.4h.6c0 .1.2.1.4 0 .2 0 .3-.2.6-.4l.2-1 1.3-4.3v-.9a1.7 1.7 0 00-.6-.4l-.4-.3v-.4l3 .8.4 6.7 3.6-4.4.3-.5.1-.4 2.8.8-.1.4h-.5l-.4-.1h-.3v.5l-1.8 5.7v.4l.1.3.8.4v.4m8.6-2.7c.5.6.7 1.1.7 1.8l-.4 1a2 2 0 01-.8.6c-.3.3-.6.3-1 .3h-1l-4-.4v-.4h.9c0-.2.2-.2.3-.3l.1-.4.8-6v-.3c0-.1-.1-.3-.3-.3l-.4-.2h-.3v-.4l3.9.4c.4 0 .6 0 .9.2l.7.4c.5.3.6 1 .6 1.5l-.2.8c-.1.3-.4.4-.6.5l-.6.3-.8.1.9.4zm-1.3-1.4l.4-.4.3-.8c0-.4-.2-.8-.4-1.1-.1-.3-.6-.5-1.1-.5h-1l-.4 3h.9c.2.2.4 0 .7 0s.4-.1.6-.2zm.5 2.8c0-.6 0-1-.4-1.4-.2-.2-.7-.4-1.3-.5l-.6-.1h-.6l-.2 3c0 .2 0 .3.3.5l.7.4c.6 0 1 0 1.5-.4.3-.4.5-.9.6-1.5zm11.4 2.7h-2.3c-.3-.8-.8-1.4-1.3-2l-1.3-2h-1v2.8l.1.4.3.2h.4l.5.2v.4h-3.6v-.4h.4l.4-.2.1-.2.2-.4v-6.3l-.3-.4h-.9v-.4h5c.3 0 .7 0 1 .4l.6.5c.2.5.2 1.2 0 1.9l-.6.6c0 .2-.3.3-.6.4-.2.2-.5.2-.9.3l1 1.3c.4.4.8.8 1 1.5.3.3.7.7 1 .8l1 .2v.4zm-3.1-6.3c0-.4-.1-1-.4-1.2s-.8-.4-1.3-.4h-1v3.4h.8c.5 0 1 0 1.3-.4.4-.4.6-.8.6-1.4zm13 5.6l-3.6.3v-.4l.7-.2c.3 0 .3-.2.3-.2V356.4l-1-1.8-3 .2v.6l-.2.7-.1.4v.3c0 .3.1.3.4.3h.9v.5l-3.2.3v-.4h.4l.8-.7v-.6l1.2-3.6 1.1-3.4h.5l3.4 7 .3.2a.7.7 0 00.6.4h.4v.4zm-3.6-3l-1.7-3.3-1 3.3zm15.6-6.8l-.4.1-.8-.8c-.4-.2-.7-.4-1-.4h-.3l-.6.3-1.4.4.9 3.2 1-.2.6-.3.4-.4v-1l.4-.2 1 3.2-.4.1-.4-.5-.4-.4-.5-.1h-.6l-1 .4.9 2.6v.4l.4.2h.4l.4-.2.1.4-3.5 1.1-.1-.4.4-.3h.4l.2-.4v-.4l-1.6-5.9-.1-.2-.4-.2h-.9l-.1-.4 6.4-1.7.6 2m9.4-.7l1 2.5-6 2.8-.2-.4.4-.3.3-.1v-.8l-2.6-5.4c0-.1 0-.3-.2-.3-.1-.1-.3-.1-.4 0h-.9v-.2l3.2-1.6.2.4h-.4l-.3.4-.1.4v.4l2.4 5c0 .2.3.5.4.5l.3.2h.4l.7-.2 1.1-.8.1-.3c.3-.7.3-1.4.3-2l.3-.2m4.4-8.3c.7.2 1.2.4 1.6.8l1.2 1.4c.3.5.5 1 .6 1.7a3.5 3.5 0 010 1.6c-.1.6-.4 1.1-.7 1.5l-1.1 1c-1 .6-2.2.7-3.3.3-.5 0-1-.2-1.4-.6a6.2 6.2 0 01-1.2-1.4c-.3-.5-.5-1-.6-1.7a4 4 0 010-1.7c.3-1 1-2 2-2.5l1.4-.5c.5-.1 1 0 1.6.1zm2.4 5.7l-.2-1.4c-.1-.5-.4-1-.6-1.4l-1-1.3-1-.8a2 2 0 00-1-.2l-1.3.2c-.4.4-.8.7-.9 1.1l-.4 1c0 .5.2.9.4 1.3.3 1 .8 1.9 1.5 2.5.3.4.6.7 1 .8.4.3.8.4 1.1.4s.8 0 1.2-.4c.7-.4 1.2-1 1.2-1.8zm10.5-5.8l-1.9 1.3-2.3-.9-2-.7-.8.6 1.6 2.1.2.3h.4s.2 0 .3-.2l.4-.2.3.4-3 2-.2-.3.6-.5v-.7l-3.6-5-.2-.2c-.1-.1-.3-.1-.4 0l-.8.3-.2-.4 3.3-2.2c.2-.2.4-.4.8-.5.3-.2.6-.2.9-.2h.8c.6.5 1 .9 1 1.5v1.5l-.6.8 1.6.5 1.6.4c.4.2.9.3 1.2.2h.4l.4-.3zM366 335c-.3-.4-.6-.6-1-.7-.4-.1-.9 0-1.3.3l-.9.6 2 3 .8-.6c.4-.2.8-.6.8-1 0-.6 0-1.1-.4-1.6zm13.2-2l.6 2.4-6.4 2.4-.3-.4.8-.4.2-.3v-.4l-2.3-5.6v-.3l-.4-.1h-1v-.3l6-2.3.8 1.9-.4.1c-.2-.2-.4-.5-.8-.6l-.9-.4-.4.2-.6.2-1.3.4 1.2 3 1-.2c.2 0 .4-.2.5-.3l.4-.4v-1l.3-.2 1.1 3-.4.2-.3-.5-.4-.3c-.1-.1-.4-.1-.5-.3-.2 0-.4 0-.6.3l-.9.3.9 2.4.3.5c0 .2 0 .3.2.3h.5l.8-.3.4-.2a2 2 0 001-.4l.2-.3.2-1v-1l.5-.2m7.1-5.7c.4.3.8.7 1 1.3.3.6.6 1 .6 1.6v2c-.2.4-.4 1-.8 1.4-.6 1-1.6 1.5-2.8 1.6a3.7 3.7 0 01-3-1 3.1 3.1 0 01-1-1.2 4 4 0 01-.4-1.6c-.2-.6-.2-1.3 0-1.8l.7-1.6a4 4 0 012.8-1.5h1.4zm0 6l.2-1.3v-1.5c0-.5-.1-1-.4-1.5-.1-.4-.4-1-.8-1.2-.2-.2-.4-.5-.8-.6-.4-.2-.8-.3-1.1-.2-.6 0-1 .2-1.2.6-.4 0-.6.5-.7.9l-.3 1.2c-.1 1 0 2 .4 3l.8 1.2c0 .4.4.5.8.6.3.2.6.2 1.1.2.4 0 .8-.3 1-.4l1-1.1zm0 0" transform="scale(.03125 .02917)" stroke-width=".7" stroke="#000"/><path d="M366 205v53c0 10.7-1.4 52.7-46.5 69-45.3-16.3-46.8-58.3-46.8-69v-53H366" transform="scale(.03125 .02917)" fill="none" stroke="#000"/></svg>