<svg xmlns="http://www.w3.org/2000/svg" width="20" height="14"><path fill="#ffe800" d="M0 0h20v14H0z"/><path d="M0 7h20v7H0zm0 0" fill-rule="evenodd" fill="#00148e"/><path d="M0 10.5h20V14H0zm0 0" fill-rule="evenodd" fill="#da0010"/><path d="M8.4 8.5l-2.2 2.2 2.2-2.3zm1.6.3l-3 3 3-3zm0 0" fill-rule="evenodd"/><path d="M478 60.4l.2 88.6 17.8 88.8 18.2-89-.2-88.6zm0 0" transform="matrix(-.00219 -.00204 -.00313 .00292 8.3 12.5)" fill-rule="evenodd" fill="gray" stroke-width="4.1" stroke="#000"/><path d="M477.8 60.3l.3 88.5 17.8 88.8 18.2-89-.2-88.5zm0 0" transform="matrix(-.00219 -.00204 -.00313 .00292 7.5 11.4)" fill-rule="evenodd" fill="gray" stroke-width="4.1" stroke="#000"/><path d="M301.3 272.8s-17.7 336.7 53 336.7 106.2-35.6 106.2-35.6l-.8-185zm0 0" transform="matrix(.01406 0 0 .01867 2.3 -1.7)" fill-rule="evenodd" fill="#ffdf00" stroke-width="1.3" stroke="#000"/><path d="M344.4 304.2c0 17.8-7.8 269.7 27.5 269.7 35.5 0 88.6-17.6 88.6-17.6l-.8-167.4zm0 0" transform="matrix(.01406 0 0 .01867 2.3 -1.7)" fill-rule="evenodd" fill="#0000c4" stroke-width="1.3" stroke="#000"/><path d="M367.4 321.1c0 17.8 4.5 217.4 40 217.4h53.1l-.8-149.6zm0 0" transform="matrix(.01406 0 0 .01867 2.3 -1.7)" fill-rule="evenodd" fill="#e10000" stroke-width="1.3" stroke="#000"/><path d="M6.4 3.4l2.3 2.2-2.2-2.3zm0 0" fill-rule="evenodd"/><path d="M301.1 272.9s-35.3 336.5 71 336.5c88.5 0 88.5-53.1 106.2-53.1l-17.7-124zm0 0" transform="matrix(.01812 0 0 .01808 .3 -.3)" fill-rule="evenodd" fill="#ffdf00" stroke-width="1.3" stroke="#000"/><path d="M269.5 155.3c1.2 0 28.5-94 119-147.5" transform="matrix(.0125 -.00088 -.00156 .0102 4.2 4.3)" fill="none" stroke-width="2.3" stroke="#000"/><path d="M421.5-20.5c.1 18.2-4.7 31.7-11.8 45.5-5.3-18-8.8-27.2-8.6-45.2-.1-18.3 6.8-35.2 12.2-48.6 2.4 12.2 8.4 30.3 8.2 48.3zm0 0" transform="matrix(.00438 -.00642 .00937 .00408 5.5 7.5)" fill-rule="evenodd" fill="#005b00" stroke-width="1.3" stroke="#000"/><path d="M453.9-169.2c.4 4.2-3.5 7.4-8.1 7-5 .3-8.9-2.8-8.4-7.3 0-3.9 4-7.1 8-7 5-.3 8.6 3.4 8.5 7.3zm0 0" transform="matrix(.00562 -.00292 .00313 .00496 5.5 7.5)" fill-rule="evenodd" fill="red" stroke-width="1.3" stroke="#000"/><path d="M421.4-20.4c0 18.2-4.9 31.8-11.6 45.6-5.5-18.3-8.6-27.3-8.6-45.6-.5-18 6.8-35 12.1-48.6 2.2 12.6 8 30.3 8 48.6zm0 0" transform="matrix(.00562 .0035 -.00406 .00962 5.7 2.8)" fill-rule="evenodd" fill="#005b00" stroke-width="1.3" stroke="#000"/><path d="M421.1-20.3c.3 18.3-4 31.7-11.1 45.2-5.4-18-9.2-27.2-8.7-45-.3-18.3 6.3-35.2 12-48.8 2.2 12.3 8.3 30.3 7.8 48.6zm0 0" transform="matrix(.00531 -.00088 -.00094 .00962 5.6 4.6)" fill-rule="evenodd" fill="#005b00" stroke-width="1.3" stroke="#000"/><path d="M421.4-20.4A93 93 0 01410 24.8c-5.3-18-9.1-26.7-9-45 .3-18.4 6.8-35.2 12.2-48.7 2.7 12 8.5 30.2 8.3 48.5zm0 0" transform="matrix(.00187 .0073 -.00531 .00583 7.1 1.3)" fill-rule="evenodd" fill="#005b00" stroke-width="1.3" stroke="#000"/><path d="M421.3-20.3A89 89 0 01409.9 25c-5.7-18.1-9.2-27.1-8.7-45.1-.1-18 6.6-35.3 12.2-49 2.4 12.5 8 30.6 7.9 49zm0 0" transform="matrix(.00625 -.00583 .00625 .007 4.7 7)" fill-rule="evenodd" fill="#005b00" stroke-width="1.3" stroke="#000"/><path d="M421.4-20.2a96 96 0 01-11.4 45c-5.6-18.1-9-27.1-8.9-45.2 0-18 6.7-34.8 12.3-48.8 2.2 12.5 7.8 30.7 8 49zm0 0" transform="matrix(.00688 -.00642 .00781 .00583 4.2 8.2)" fill-rule="evenodd" fill="#005b00" stroke-width="1.3" stroke="#000"/><path d="M421.3-20.2c-.1 18-4.6 31.5-11.3 45.3-5.5-18.3-9-27.3-9-45.3-.1-18.4 6.7-35.2 12.6-48.7 2.3 12.3 7.9 30.2 7.7 48.7zm0 0" transform="matrix(.00813 .00292 -.00625 .00933 4 4.3)" fill-rule="evenodd" fill="#005b00" stroke-width="1.3" stroke="#000"/><path d="M421.4-20.4c0 18.3-4.8 31.7-11.2 45.5-5.5-18.2-9-27.2-9.2-45.3.1-18.3 6.6-35.2 12.3-49 2.4 12.5 7.9 30.7 8 48.8zm0 0" transform="matrix(.00469 .00583 -.01 .00642 5.6 3)" fill-rule="evenodd" fill="#005b00" stroke-width="1.3" stroke="#000"/><path d="M421-20.5A87 87 0 01410 25c-5.6-18.4-8.7-27.3-9.2-45.4.3-17.7 7-35.3 12-48.5 3 12.4 8.5 30.7 8.2 48.4zm0 0" transform="matrix(.0025 .00292 -.00438 .00467 7.8 3)" fill-rule="evenodd" fill="#005b00" stroke-width="1.3" stroke="#000"/><path d="M421.5-20a86 86 0 01-11.6 44.9c-5.8-18.2-9-26.8-8.4-45-.8-18 6.6-35.4 12.1-48.8 2.6 12.6 8.4 30.7 7.9 48.8zm0 0" transform="matrix(.00313 0 -.0025 .00496 7.4 4)" fill-rule="evenodd" fill="#005b00" stroke-width="1.3" stroke="#000"/><path d="M421.5-20.4c.3 17.9-5 32.2-11.7 45.6-6-17.9-9-27.7-8.4-45.6-.3-17.8 6.5-34.8 11.3-48.2 3 11.6 8.5 30.4 8.8 48.2zm0 0" transform="matrix(0 .00408 -.00438 .00233 9 2.4)" fill-rule="evenodd" fill="#005b00" stroke-width="1.3" stroke="#000"/><path d="M421.3-20.3A96 96 0 01409.6 25c-5.2-18-8.5-27.4-8.3-45.3.1-18 7-35 12.5-48.5 2 12 8.1 30.2 7.5 48.5zm0 0" transform="matrix(.00219 .00292 -.00781 .00438 6.9 3.4)" fill-rule="evenodd" fill="#005b00" stroke-width="1.3" stroke="#000"/><path d="M421.3-20.4c0 18.2-4.6 31.9-11.5 45.5-5.5-18.1-8.7-27.3-8.6-45.5-.2-17.8 6.7-34.8 12-48.7 2.7 12.5 8.2 30.5 8.1 48.7zm0 0" transform="matrix(.00406 .00642 -.01031 .00583 6.5 2)" fill-rule="evenodd" fill="#005b00" stroke-width="1.3" stroke="#000"/><path d="M269.5 155.3c1.2-.2 28.4-94.1 119-147.5" transform="matrix(.01094 -.00583 .00438 .00817 3.5 6.6)" fill="none" stroke-width="2.4" stroke="#000"/><path d="M454.2-169.3c0 3.9-4 7.1-8.4 7.7-4.7-.4-8.5-3.5-8.5-7.4 0-4.8 3.5-7.4 8.5-7.6 4.6.4 8.5 3.4 8.4 7.3zm0 0" transform="matrix(.00562 -.00292 .00313 .00496 6.3 6.5)" fill-rule="evenodd" fill="red" stroke-width="1.3" stroke="#000"/><path d="M454-169.4c.4 4.2-3.5 7.4-8.5 7.7-4.6-.4-8.5-3.5-8.4-7.4.4-4.4 4-7 8.4-7.6 4.7.4 8.5 3.4 8.5 7.3zm0 0" transform="matrix(.00562 -.00292 .00313 .00496 6.6 6.4)" fill-rule="evenodd" fill="red" stroke-width="1.3" stroke="#000"/><path d="M454-169.4c.4 4.3-3.8 7.3-8.4 8-4.7-.7-8.7-3.7-8.5-7.7.1-4 3.8-7.4 8.9-7.6 4.3.2 8.2 3.3 8 7.3zm0 0" transform="matrix(.00625 -.00292 .00219 .0038 5.2 6.8)" fill-rule="evenodd" fill="red" stroke-width="1.3" stroke="#000"/><path d="M454.1-169c.2 3.3-3.8 7.4-8.6 6.8a7.2 7.2 0 01-8-7.2c-.4-4.4 3.7-7.4 8-7.1 5.1-.3 8.8 3.6 8.6 7.6zm0 0" transform="matrix(.00625 -.00292 .00219 .0038 5.3 6.7)" fill-rule="evenodd" fill="red" stroke-width="1.3" stroke="#000"/><path d="M454.3-169.2c-.1 4-3.8 7.4-8.6 6.8-4.6.6-8.5-2.4-8.4-6.4-.3-4.4 3.9-7.4 8.5-8 4.7.6 8.2 3.3 8.5 7.6zm0 0" transform="matrix(.00625 -.00292 .00219 .0038 5.3 6.8)" fill-rule="evenodd" fill="red" stroke-width="1.3" stroke="#000"/><path d="M252.8 167.3c.3.8 0 1.9-1 2.3-1 .5-2 .2-2.6-.7-.3-1 0-1.8 1-2.3s2-.3 2.4.7zm0 0" transform="scale(.03125 .02917)" fill-rule="evenodd" fill="red" stroke-width=".3" stroke="#000"/><path d="M255 164.9c.3.8 0 1.8-1 2.2-1 .6-2 .3-2.5-.5s0-1.9 1-2.4 2-.1 2.4.7zm0 0" transform="scale(.03125 .02917)" fill-rule="evenodd" fill="red" stroke-width=".3" stroke="#000"/><path d="M255.5 166c.4.7 0 2-1 2.3-1 .4-2 .2-2.4-.6-.3-.8 0-1.8 1-2.3 1-.5 2-.3 2.4.5zm0 0" transform="scale(.03125 .02917)" fill-rule="evenodd" fill="red" stroke-width=".3" stroke="#000"/><path d="M336.7 308.3c0 17.7-35.6 212.5 53 265.7 35.6 17.7 88.6-17.7 88.6 0l-17.7-141.7zm0 0" transform="matrix(.01812 0 0 .01808 .3 -.3)" fill-rule="evenodd" fill="#0000c4" stroke-width="1.3" stroke="#000"/><path d="M372 343.7c0 17.7-17.6 159.4 35.6 194.9 35.3 35.4 124 25.9 124 25.9l-71-132.2zm0 0" transform="matrix(.01812 0 0 .01808 .3 -.3)" fill-rule="evenodd" fill="#e10000" stroke-width="1.3" stroke="#000"/><path d="M5.7 4.6l3 3v-.1l-2.9-3v.1zm0 0" fill-rule="evenodd"/><path d="M460.8 184.3l17.6 35.4V237c-.8-1.2-.4 18.2-18 17.7-17.5.9-17.5-35.3-17.5-35.3s-17.5 35.7-17.5 70.6c0 36.2 17.6 54.1 17.6 54.1s-2.7-37.3 17.5-35.7c20.8 1 18.1 17.2 18.1 17.2l-.4 35.6 18-.2.3-141.6 17-35.1-26.9-53.7zm0 0" transform="matrix(.00438 -.00408 .00313 .00292 2.7 5.6)" fill-rule="evenodd" fill="#cececc" stroke-width="1.3" stroke="#000"/><path d="M557.9 95.3l-26.4 71.5 17.7 52.5-35.3-17.6 35.1 53.5.4 35.4H567l.2-35.9 35.4-53-35.4 18.2 17.5-53.6zm0 0" transform="matrix(.00313 -.00467 .00438 .00292 3.6 5.4)" fill-rule="evenodd" fill="#cececc" stroke-width="1.3" stroke="#000"/><path d="M422.4 137c0 2.2-1.9 3.5-4 3.5-2.6 0-4.5-1.3-4.5-3.5 0-1.8 2-3.6 4.4-3.6 2.2 0 4 1.3 4 3.6zm-6 8c0 35.7 20.7 187.5 22.5 191.5 0 4.5-4.6 6.3-7.1 1C425.1 320 411 177.1 410.4 144c-.3-13.8 3.8-14.7 8.4-14.7 3.5.4 8.2 4 8.2 8 0 5-5.7 8.5-10.7 7.6zm0 0" transform="matrix(.0125 0 0 .00875 1.4 2)" fill-rule="evenodd" fill="#e10000" stroke-width="1.3" stroke="#000"/><path d="M422.6 137.2c0 1.7-2.3 3.4-4.5 3.7-2.3-.1-4.3-1.7-4.2-4 0-1.7 1.8-3.7 4.2-3.6 2.6 0 4.6 1.6 4.5 3.9zm-6.1 7.8c31.4 61.4 48.5 166.4 50 170.4.2 4.4-4.6 6.4-6.8.9-2.7-3.6-12.9-100.2-49.3-172.4-.2-13.8 3.8-14.6 8.5-14.4 3.6 0 8.3 3.5 8.4 7.9 0 5-6.1 8.7-10.8 7.6zm0 0" transform="matrix(.01188 .00292 -.00469 .00875 2.4 1.1)" fill-rule="evenodd" fill="#0000c4" stroke-width="1.3" stroke="#000"/><path d="M186.8 151.5c0 1-1 2-2.3 2s-2.3-1-2.3-2 1-1.8 2.3-1.8 2.1.8 2.1 1.8zm-3.3 4c0 18 10.5 93.9 11.3 95.8 0 2.2-2.3 3.2-3.6.4-3.2-8.8-10.3-80-10.6-96.6-.1-6.8 1.9-7.4 4.2-7.2 2 0 4 1.8 4 3.8 0 2.5-2.8 4.5-5.3 3.8zm0 0" transform="scale(.03125 .02917)" fill-rule="evenodd" fill="#e10000" stroke-width=".7" stroke="#000"/><path d="M422.5 137c0 1.9-2 3.7-4.3 3.8-2.2-.1-4.4-1.7-4.5-3.9.2-2 2-3.7 4.4-3.6 2.6-.2 4.4 1.7 4.4 3.6zm-6.2 8c31.5 61.3 48.8 166.7 50.4 170.4 0 4.4-4.9 6.5-7 .8-2.7-3.4-12.8-100.1-49-172.2-.6-13.8 3.4-14.7 8.2-14.6 3.5.3 8.3 3.8 8.3 8 0 5-5.9 8.6-11 7.6zm0 0" transform="matrix(.015 .00438 -.00625 .014 .5 1)" fill-rule="evenodd" fill="#0000c4" stroke-width="1.3" stroke="#000"/><path d="M11.6 8.5l2.2 2.2-2.2-2.3zm-1.6.3l3 3-3-3zm0 0" fill-rule="evenodd"/><path d="M478 60.4l.2 88.6 17.8 88.8 18.2-89-.2-88.6zm0 0" transform="matrix(.00219 -.00204 .00313 .00292 11.7 12.5)" fill-rule="evenodd" fill="gray" stroke-width="4.1" stroke="#000"/><path d="M477.8 60.3l.3 88.5 17.8 88.8 18.2-89-.2-88.5zm0 0" transform="matrix(.00219 -.00204 .00313 .00292 12.5 11.4)" fill-rule="evenodd" fill="gray" stroke-width="4.1" stroke="#000"/><path d="M301.3 272.8s-17.7 336.7 53 336.7 106.2-35.6 106.2-35.6l-.8-185zm0 0" transform="matrix(-.01406 0 0 .01867 17.7 -1.7)" fill-rule="evenodd" fill="#ffdf00" stroke-width="1.3" stroke="#000"/><path d="M344.4 304.2c0 17.8-7.8 269.7 27.5 269.7 35.5 0 88.6-17.6 88.6-17.6l-.8-167.4zm0 0" transform="matrix(-.01406 0 0 .01867 17.7 -1.7)" fill-rule="evenodd" fill="#0000c4" stroke-width="1.3" stroke="#000"/><path d="M367.4 321.1c0 17.8 4.5 217.4 40 217.4h53.1l-.8-149.6zm0 0" transform="matrix(-.01406 0 0 .01867 17.7 -1.7)" fill-rule="evenodd" fill="#e10000" stroke-width="1.3" stroke="#000"/><path d="M13.6 3.4l-2.3 2.2 2.2-2.3zm0 0" fill-rule="evenodd"/><path d="M428-17.1s82 91 111.2 154.2c29.2 63.6 54.7 156.4 54.7 156.4s1.7-86.2-36.5-163c-52-97.7-131.6-143-129.3-147.6zm0 0" transform="matrix(.005 -.00204 .0025 .0102 9.7 6.2)" fill-rule="evenodd" fill="#005b00" stroke-width="1.3" stroke="#000"/><path d="M428.4-16.9S510 73.6 539 137.2c29.7 63.3 54.7 156.2 54.7 156.2s2-86.2-36.1-163c-52.1-97.5-131.9-143-129-147.3zm0 0" transform="matrix(.00625 -.00146 .00219 .01167 9.1 5.3)" fill-rule="evenodd" fill="#005b00" stroke-width="1.3" stroke="#000"/><path d="M428.2-17s81.4 90.7 110.9 154c29.5 63.7 54.6 156.4 54.6 156.4s1.8-86-36.5-163c-51.9-97.7-131.1-143-129-147.4zm0 0" transform="matrix(.00719 .00408 -.00094 .01167 9.3 2)" fill-rule="evenodd" fill="#005b00" stroke-width="1.3" stroke="#000"/><path d="M428.3-17s81.2 90.7 111.1 154.1c29 63.5 54 156.5 54 156.5s2.4-86-36-163.2C505.4 33 426-12.5 428.4-16.9zm0 0" transform="matrix(.00781 .00088 .00063 .01283 8.6 3.4)" fill-rule="evenodd" fill="#005b00" stroke-width="1.3" stroke="#000"/><path d="M428.1-17.1s81.4 91 111.4 154c29.3 63.5 54.1 156.3 54.1 156.3s2.5-85.8-36.2-163C505.2 32.7 425.7-12.5 428.1-17.1zm0 0" transform="matrix(.00562 .00496 -.00125 .0102 10.3 2)" fill-rule="evenodd" fill="#005b00" stroke-width="1.3" stroke="#000"/><path d="M428.4-17s81.1 90.8 110.9 154.1c29.2 63.6 54 156.4 54 156.4s2.6-86-35.7-163C505 32.5 425.6-12.6 428.4-17zm0 0" transform="matrix(.00719 0 .00094 .01167 8.8 4.1)" fill-rule="evenodd" fill="#005b00" stroke-width="1.3" stroke="#000"/><path d="M428-17.2s82 90.9 111 154.4c29.7 63.3 54.6 156.3 54.6 156.3s2.1-86.3-36-163C505 32.5 425.8-12.7 428-17.3zm0 0" transform="matrix(.00625 -.00204 .00219 .01108 9 5.7)" fill-rule="evenodd" fill="#005b00" stroke-width="1.3" stroke="#000"/><path d="M428.2-17s81.8 90.6 111 154c29.7 63.6 54.6 156.5 54.6 156.5s2.1-86.2-36.8-163.1C505.2 32.7 426-12.4 428.2-17zm0 0" transform="matrix(.00625 -.00088 .00156 .01167 9.1 4.9)" fill-rule="evenodd" fill="#005b00" stroke-width="1.3" stroke="#000"/><path d="M428-17S510 73.6 539 137c29.2 63.6 54.3 156.3 54.3 156.3s2.6-86-36-163.1C505.2 32.8 426.1-12.5 428-17zm0 0" transform="matrix(.00688 .00438 -.00156 .01108 9.5 2)" fill-rule="evenodd" fill="#005b00" stroke-width="1.3" stroke="#000"/><path d="M428-16.8S509.8 73.7 539 137c29.6 63.6 54.6 156.3 54.6 156.3s2.1-86-36.4-163C505 33 425.9-12.6 428-16.8zm0 0" transform="matrix(.0075 .00146 0 .01283 8.7 2.9)" fill-rule="evenodd" fill="#005b00" stroke-width="1.3" stroke="#000"/><path d="M428.5-17.3s81.3 90.9 111 154.3c29.1 63.7 53.8 156.5 53.8 156.5s2.7-86.2-36.3-163.1C505 33 425.7-12.6 428.5-17.3zm0 0" transform="matrix(.00531 .00496 -.00187 .00962 10.6 2)" fill-rule="evenodd" fill="#005b00" stroke-width="1.3" stroke="#000"/><path d="M428-17s81.8 90.7 111 154.2c29.6 63.5 54.6 156.3 54.6 156.3s2.1-86.1-36.4-163.2C505 32.8 425.9-12.5 428-17zm0 0" transform="matrix(.0075 .00058 0 .01167 8.6 3.7)" fill-rule="evenodd" fill="#005b00" stroke-width="1.3" stroke="#000"/><path d="M301.1 272.9s-35.3 336.5 71 336.5c88.5 0 88.5-53.1 106.2-53.1l-17.7-124zm0 0" transform="matrix(-.01812 0 0 .01808 19.7 -.3)" fill-rule="evenodd" fill="#ffdf00" stroke-width="1.3" stroke="#000"/><path d="M336.7 308.3c0 17.7-35.6 212.5 53 265.7 35.6 17.7 88.6-17.7 88.6 0l-17.7-141.7zm0 0" transform="matrix(-.01812 0 0 .01808 19.7 -.3)" fill-rule="evenodd" fill="#0000c4" stroke-width="1.3" stroke="#000"/><path d="M372 343.7c0 17.7-17.6 159.4 35.6 194.9 35.3 35.4 124 25.9 124 25.9l-71-132.2zm0 0" transform="matrix(-.01812 0 0 .01808 19.7 -.3)" fill-rule="evenodd" fill="#e10000" stroke-width="1.3" stroke="#000"/><path d="M14.3 4.6l-3 3v-.1l2.9-3zm0 0" fill-rule="evenodd"/><path d="M460.8 184.3l17.6 35.4V237c-.8-1.2-.4 18.2-18 17.7-17.5.9-17.5-35.3-17.5-35.3s-17.5 35.7-17.5 70.6c0 36.2 17.6 54.1 17.6 54.1s-2.7-37.3 17.5-35.7c20.8 1 18.1 17.2 18.1 17.2l-.4 35.6 18-.2.3-141.6 17-35.1-26.9-53.7zm0 0" transform="matrix(-.00438 -.00408 -.00313 .00292 17.3 5.6)" fill-rule="evenodd" fill="#cececc" stroke-width="1.3" stroke="#000"/><path d="M557.9 95.3l-26.4 71.5 17.7 52.5-35.3-17.6 35.1 53.5.4 35.4H567l.2-35.9 35.4-53-35.4 18.2 17.5-53.6zm0 0" transform="matrix(-.00313 -.00467 -.00438 .00292 16.4 5.4)" fill-rule="evenodd" fill="#cececc" stroke-width="1.3" stroke="#000"/><path d="M422.6 137c0 2.2-2.2 3.5-4.4 3.5-2.4 0-4.3-1.3-4.3-3.5 0-1.8 1.9-3.6 4.4-3.6s4.3 1.3 4.3 3.6zm-6.2 8c0 35.7 21 187.5 22.5 191.5 0 4.5-4.7 6.3-7.2 1C425 320 411 177.1 410.4 144c-.3-13.8 3.8-14.7 8.5-14.7 3.7.4 8.1 4 8.1 8 0 5-5.6 8.5-10.6 7.6zm0 0" transform="matrix(-.0125 0 0 .00875 18.6 2)" fill-rule="evenodd" fill="#e10000" stroke-width="1.3" stroke="#000"/><path d="M422.6 137.2c0 1.7-2.3 3.4-4.5 3.7-2.3-.1-4.3-1.7-4.2-4 0-1.7 1.8-3.7 4.2-3.6 2.6 0 4.6 1.6 4.5 3.9zm-6.1 7.8c31.4 61.4 48.5 166.4 50 170.4.2 4.4-4.6 6.4-6.8.9-2.7-3.6-12.9-100.2-49.3-172.4-.2-13.8 3.8-14.6 8.5-14.4 3.6 0 8.3 3.5 8.4 7.9 0 5-6.1 8.7-10.8 7.6zm0 0" transform="matrix(-.01188 .00292 .00469 .00875 17.6 1.1)" fill-rule="evenodd" fill="#0000c4" stroke-width="1.3" stroke="#000"/><path d="M453.4 151.5c0 1 1 2 2.1 2 1.3 0 2.3-1 2.3-2s-1-1.8-2.3-1.8-2.1.8-2.1 1.8zm3 4c-2.4 32.1-6.1 64-11.1 95.8 0 2.2 2.2 3.2 3.4.4 3.3-8.8 10.4-80 10.7-96.6.1-6.8-1.9-7.4-4.1-7.2-2 0-4.2 1.8-4.2 3.8 0 2.5 2.9 4.5 5.4 3.8zm0 0" transform="scale(.03125 .02917)" fill-rule="evenodd" fill="#e10000" stroke-width=".7" stroke="#000"/><path d="M422.5 137c0 1.9-2 3.7-4.3 3.8-2.2-.1-4.4-1.7-4.5-3.9.2-2 2-3.7 4.4-3.6 2.6-.2 4.4 1.7 4.4 3.6zm-6.2 8c31.5 61.3 48.8 166.7 50.4 170.4 0 4.4-4.9 6.5-7 .8-2.7-3.4-12.8-100.1-49-172.2-.6-13.8 3.4-14.7 8.2-14.6 3.5.3 8.3 3.8 8.3 8 0 5-5.9 8.6-11 7.6zm0 0" transform="matrix(-.015 .00438 .00625 .014 19.5 1)" fill-rule="evenodd" fill="#0000c4" stroke-width="1.3" stroke="#000"/><path d="M478.5 698a52.9 52.9 0 0053 0V556.3h-35.3c17.6 53.1 17.6 106.2-18 141.7zm0 0" transform="matrix(.01812 0 0 .01808 .3 -.3)" fill-rule="evenodd" fill="#e10000" stroke-width="1.3" stroke="#000"/><path d="M514 609.6c0 88.4-42.6 108-42.6 125.9 17.5 0 29.3-8.3 42.5-19.7 17.5-17.8 19.3-107.8 17.5-106.2zm0 0" transform="matrix(.01094 0 0 .02042 3.9 -2.6)" fill-rule="evenodd" fill="#0000c4" stroke-width="1.3" stroke="#000"/><path d="M478.6 609.6c-1.1 51.6-45 99.5-36.8 110.2 9.6 9.3 36.8-21.8 72.1-4 17.5-17.8 19.3-107.8 17.5-106.4h-52.8zm0 0" transform="matrix(.01094 0 0 .02042 3.9 -2.6)" fill-rule="evenodd" fill="#0000c4" stroke-width="1.3" stroke="#000"/><path d="M514 609.4c0 88.5-40.8 94.4-40.8 118.2 17.5 0 40.4-13 40.7-11.9 17.5-17.8 19.3-107.7 17.5-106.3zm0 0" transform="matrix(.01094 0 0 .01342 3.5 1.5)" fill-rule="evenodd" fill="#ffdf00" stroke-width="1.3" stroke="#000"/><path d="M478.6 609.4c-1.1 51.9-44 95.8-35.7 106.3 9.6 9.6 35.7-17.8 71 0 17.5-17.8 19.3-107.7 17.5-106.3zm0 0" transform="matrix(.01094 0 0 .01342 3.5 1.5)" fill-rule="evenodd" fill="#ffdf00" stroke-width="1.3" stroke="#000"/><path d="M478.5 698a52.9 52.9 0 0053 0V556.3h-35.3c17.6 53.1 17.6 106.2-18 141.7zm0 0" transform="matrix(-.01812 0 0 .01808 19.7 -.3)" fill-rule="evenodd" fill="#e10000" stroke-width="1.3" stroke="#000"/><path d="M514 609.6c0 88.4-42.6 108-42.6 125.9 17.5 0 29.3-8.3 42.5-19.7 17.5-17.8 19.3-107.8 17.5-106.2zm0 0" transform="matrix(-.01094 0 0 .02042 16.1 -2.6)" fill-rule="evenodd" fill="#0000c4" stroke-width="1.3" stroke="#000"/><path d="M478.6 609.6c-1.1 51.6-45 99.5-36.8 110.2 9.6 9.3 36.8-21.8 72.1-4 17.5-17.8 19.3-107.8 17.5-106.4h-52.8zm0 0" transform="matrix(-.01094 0 0 .02042 16.1 -2.6)" fill-rule="evenodd" fill="#0000c4" stroke-width="1.3" stroke="#000"/><path d="M514 609.4c0 88.5-40.8 94.4-40.8 118.2 17.5 0 40.4-13 40.7-11.9 17.5-17.8 19.3-107.7 17.5-106.3zm0 0" transform="matrix(-.01094 0 0 .01342 16.5 1.5)" fill-rule="evenodd" fill="#ffdf00" stroke-width="1.3" stroke="#000"/><path d="M478.6 609.4c-1.1 51.9-44 95.8-35.7 106.3 9.6 9.6 35.7-17.8 71 0 17.5-17.8 19.3-107.7 17.5-106.3zm0 0" transform="matrix(-.01094 0 0 .01342 16.5 1.5)" fill-rule="evenodd" fill="#ffdf00" stroke-width="1.3" stroke="#000"/><path d="M198.5 77.8L109 113.1l89.5 36 44.8-17.7 23 17.6 21.8 35.3 23-35.3 21.8-17.6H1535v-36H333l-22-17.6c0-17.6 4.2-35.3 22-35.3h89.5c0-17.7-44.8-53-134.4-53s-134.4 35.3-134.4 53h89.6c17.7 0 23 17.7 23 35.3l-23 17.7zm0 0" transform="matrix(.00375 0 0 .00642 6.8 9.5)" fill-rule="evenodd" fill="#908f8a" stroke-width="4.5" stroke="#000"/><path d="M204.5 95.6H541v17.8H204.5zm0-17.9H541v17.9H204.5zm0-17.4H541v17.9H204.5zm0-17.8H541v17.8H204.5zm0-17.9H541v17.9H204.5zm0-17.8H541v17.8H204.5zm0-17.4H541V6.8H204.5zm0 0" transform="matrix(.00875 0 0 .00788 6.8 9.8)" fill-rule="evenodd" fill="#b74d00" stroke-width="1.8" stroke="#000"/><path d="M423.4 60.3l137.5 124h20l-138-124zm0 0" transform="matrix(.00781 0 0 .00788 5.4 9.2)" fill-rule="evenodd" fill="#908f8a" stroke-width="3.3" stroke="#000"/><path d="M423.4 60.4l137.5 124h20l-138-124zm0 0" transform="matrix(.00781 0 0 -.00788 5.4 11.1)" fill-rule="evenodd" fill="#908f8a" stroke-width="3.3" stroke="#000"/><path d="M425 60.3v124h18v-124zm0 0" transform="matrix(.00875 0 0 .00788 5 9.2)" fill-rule="evenodd" fill="#908f8a" stroke-width="3.1" stroke="#000"/><path d="M423.2 60.3l138 124h19.5l-137.5-124zm0 0" transform="matrix(.00781 0 0 .00788 6.8 9.2)" fill-rule="evenodd" fill="#908f8a" stroke-width="3.3" stroke="#000"/><path d="M423.2 60.4l138 124h19.5l-137.5-124zm0 0" transform="matrix(.00781 0 0 -.00788 6.8 11.1)" fill-rule="evenodd" fill="#908f8a" stroke-width="3.3" stroke="#000"/><path d="M425.4 60.3v124h17.4v-124zm0 0" transform="matrix(.00875 0 0 .00788 7.5 9.2)" fill-rule="evenodd" fill="#908f8a" stroke-width="3.1" stroke="#000"/><path d="M425 60.3v124h17.9v-124zm0 0" transform="matrix(.00875 0 0 .00788 6.4 9.2)" fill-rule="evenodd" fill="#908f8a" stroke-width="3.1" stroke="#000"/><path d="M425 60.3v124h17.9v-124zm0 0" transform="matrix(.00875 0 0 .00788 6 9.2)" fill-rule="evenodd" fill="#908f8a" stroke-width="3.1" stroke="#000"/><path d="M655.4 396.9c0 88-55.6 159.4-123.9 159.4-68.3 0-124-71.3-124-159.4 0-88 55.5-159.5 124-159.5s124 71.3 124 159.5zm-17.6 0c0 78.1-47.7 141.7-106.3 141.7-58.6 0-106.2-63.6-106.2-141.7S472.9 255 531.5 255 637.8 318.7 637.8 397zm0 0" transform="matrix(.01812 0 0 .01808 .3 -.3)" fill-rule="evenodd" fill="#ffdf00" stroke-width="1.3" stroke="#000"/><path d="M579.8 250c-14.9-8-31.3-12.6-48.3-12.6-17 0-33.4 4.6-48.3 12.6l7 16.4a82.2 82.2 0 0182.7 0zm0 0" transform="matrix(.01812 0 0 .01808 .3 -.3)" fill-rule="evenodd" fill="#ffdf00" stroke-width="1.3" stroke="#000"/><path d="M579.9 250a99.5 99.5 0 00-96.8-.1l7.1 16.4a83.2 83.2 0 0182.8 0l6.9-16.4zm0 0" transform="matrix(.01812 0 0 -.01808 .3 14)" fill-rule="evenodd" fill="#ffdf00" stroke-width="1.3" stroke="#000"/><path d="M11.9 6.9c0 1.4-.9 2.5-2 2.5C9 9.4 8 8.3 8 7s.9-2.6 2-2.6c1 0 1.9 1.2 1.9 2.6zm0 0" fill-rule="evenodd" fill="#a7cfff"/><path d="M637.8 396.9c1 26.5-4.6 39.7-11.9 67.3-2 3-11-6.4-16.4-11.2-5.4-4.7-7.7 4.1-14.6-3-6.7-7.4-11 2-16-4.1-5-6.3-51.3-7.1-51.3-7.8 4.6-2.1 28.3.2 24.4-11-4.3-11.9-31-.4-34.5-15.3-2.6-15.2-53.7-15.6-57.3-19.3 1.5 5.6 39.6 8 38.8 22.5-.9 6-37.7 7.8-41.2 12.7-3 6.3 28.9-1.7 30 6 0 3.1-4.8 0-21.4 5-8.4 2.4 15.5 10.2 6.5 14.5-9 4.4-28.2 6.3-27.6 8 3 9.1 44.8 19.7 40.7 21.2a385.9 385.9 0 00-29.7 14.7 168.3 168.3 0 01-31-100.2c31.6-11.5 25-13.9 83.6-13.9 58.6 0 78 2.4 128.9 13.9zm0 0" transform="matrix(.01812 0 0 .01808 .3 -.3)" fill-rule="evenodd" fill="#afff7b" stroke-width="1.3" stroke="#000"/><path d="M637.8 396.9c-8 0-16.4 3.4-25 3.4-8.7 0-17.5-3.4-26.5-3.4s-19.2 4.5-28.5 4.5-17.5-4.5-26.7-4.5c-9.3 0-18.6 3.4-27.8 3.4S485 397 476 397c-8.8 0-17.7 3.4-26.3 3.4-8.4 0-16.8-3.4-24.5-3.4 0-19.7 3-38.3 8.4-55.1 26.9 2 11-15.8 26.9-15.8a33 33 0 0125.2 9.7c2.6 0 14.5-11.2 28-9.7 13.4 1.5 8.4 27.2 26.3 28.5 9 7 14.5 11.2 26.8 14 17.6 1.6 68.5-2.5 68.7-.2 1.5 9.5 2.2 19 2.2 28.6zm0 0" transform="matrix(.01812 0 0 .01808 .3 -.3)" fill-rule="evenodd" fill="#fff" stroke-width="1.3" stroke="#000"/><path d="M549.6 474c0-5.6 13.8-9.5 13.8-18.7 0-9-11.9-9.2-12.5-17.6 0-3.6 10.6-7 15-7.5 4.4-.3 8.7 7.5 8.7 9.2 0 1.7-5-4.2-8.7-4.5-3.8 0-12.5.6-12.5 2.5 0 3.4 15 7.6 13.7 19-1.2 11.2-12.5 14.5-12.5 17.9 0 3.3 5 12.8 5 12.8s-10-7.5-10-13.1zm0 0" transform="matrix(.00625 0 0 .014 6.8 1.7)" fill-rule="evenodd" stroke-width="1.3" stroke="#000"/><path d="M549.6 474c0-5.6 13.8-9.5 13.8-18.7 0-9-11.9-9.2-12.5-17.6-.6-4.2 11.9-6.7 16.2-7 5-.3 10 8.1 10 9.5 0 1.7-5-5-8.7-5.3-4.4 0-15 .6-15 2.5 0 3.4 15 7.6 13.7 19-1.2 11.2-12.5 14.5-12.5 17.9 0 3.3 5 12.8 5 12.8s-10-7.5-10-13.1zm0 0" transform="matrix(-.00625 0 0 .014 14 1.7)" fill-rule="evenodd" stroke-width="1.3" stroke="#000"/><path d="M10.4 7.7v0zm.5.3v.6zm.2 0v.5zm0 0M11 8.2h.1zm0 0" fill-rule="evenodd"/><path d="M497.2 478s26 11.5 31.9 18.2c5.6 6.9 3.2 6.9 3.2 6.9l57.8 2.1c0-3.2 10.1-3.2 12.5-11.4 2.4-7.8 2.4-10.2 2.4-10.2l-18.1 5.9.8-10.4H572l-2.4 10.4-33.8-1.1 2.1-27.4-6.6 1-1.1 26.2c-1.1 0-31.7-8-33-10.2zm0 0" transform="matrix(.01812 0 0 .01808 .2 -.3)" fill-rule="evenodd" fill="#b74d00" stroke-width="1.3" stroke="#000"/><path d="M440.6 316.3s37.7-11.3 92-10.4c54.3.9 92 12.8 91.4 12.8-.9 0-10.6-18.4-10.6-18.4S575 289.7 531.7 289c-43-.9-80.8 8-80 8.6zm0 0" transform="matrix(.01812 0 0 .01808 .3 -.3)" fill-rule="evenodd" fill="#fede00" stroke-width="1.3" stroke="#fede00"/><path d="M9.6 5h.4v.2h-.4zm-1 0l-.2.3H9V5h-.3zM9 5h.4v.2H9zm1.5 0h-.4v.2h.4zm1 .1l.1.3-.4-.1V5h.3zm-.4 0l-.4-.1v.2h.4zm0 0" fill-rule="evenodd" fill="#38a9f9"/><path d="M532.6 323.4L530 310l-7.5 11.5 2.8-13.4-11.2 7.5 7.5-11.2-13.4 2.8 11.5-7.6-13.4-2.5 13.4-2.6-11.5-7.6 13.4 2.8-7.8-11.2 11.5 7.5-2.8-13.4 7.5 11.5 2.6-13.4 2.6 13.4 7.5-11.5L540 286l11.4-7.5-7.7 11.2 13.6-2.8-11.7 7.6 13.6 2.6-13.6 2.5 11.7 7.6-13.6-2.8 7.7 11.2-11.4-7.5 2.8 13.4-7.5-11.5zm0 0" transform="matrix(.01812 0 0 .01808 .3 -.3)" fill-rule="evenodd" fill="#ffdf00" stroke-width="1.3" stroke="#000"/><path d="M547 293.9c0 9.4-6.5 16.9-14.9 16.9-8 0-14.6-7.5-14.6-16.9S524 277 532 277c8.4 0 15 7.5 15 16.9zm0 0" transform="matrix(.01781 0 0 .01458 .6 .6)" fill-rule="evenodd" fill="#ffdf00" stroke-width="1.3" stroke="#000"/><path d="M10 5h-.2.2zm.2 0H10h.1zm0 0" fill-rule="evenodd"/><path d="M529.3 298l1 .7c-2-2-1-1.2 1.4 3.1 2.6-.3 3.1-1.3 5-2.3" transform="matrix(.0175 -.00525 .00531 .0175 -.8 2.6)" fill="none" stroke-width="1.3" stroke="#000"/><path d="M527.9 304.4l.6.6c-2-1.9-.8-.8 3.3 1.8 4 .4 8.2-1.3 10.5-4.1" transform="matrix(.01812 0 0 .01808 .3 -.3)" fill="none" stroke-width="1.3" stroke="#000"/><path d="M8.8 5.7l-.2.5-.1.2v.2l-.1-.2-.2.2.2-.3v-.1l.2-.3-.5.3zm.1 0s0 .3.2.4a.5.5 0 010 .3l.3.1L9 6l.2.1zm0 .7l.2.2v.2-.1h-.2l.1-.1h-.1v-.2zm-.9.4h0zm2-.7l.4.3-.2-.1zm-.6-.4l.5.4s-.2-.1-.2 0L9.5 6l-.1-.2zm0 .6l.2.3h.2l-.3-.3zm.5-.1v.2l.1.1v-.3zm0 0" fill-rule="evenodd" fill="#b7e1ff"/><path d="M5.7 2.6L7.1 2a10 10 0 011.7-.4c.2 0 .6.5.7.5L10 2l.6.2h.5c.1 0-.2-.6 0-.5.1 0 1 0 1.7.3l1.8.6s-1.7.3-2.2.2V3a8.5 8.5 0 00-.9 0h-.5l-.6.2.5.6-.6.3s-.3-.7-.4-.7-.2.5-.3.4c-.2 0-.3-.4-.4-.6l-1-.2-1-.1-.5.1s.2-.2 0-.2l-.1.1a8 8 0 01-.8-.1c-.1 0 .1-.2 0-.2zm0 0" fill-rule="evenodd" fill="#984000"/><path d="M463.2-65.2c0 21.7-21 38.7-46 38.7-25.6 0-46-17-46-38.7 0-21.1 20.4-38.1 46-38.1 25 0 46 17 46 38.1zm0 0" transform="matrix(.00688 0 0 .00758 7.2 2.8)" fill-rule="evenodd" fill="gray" stroke-width="3.7" stroke="#772600"/><path d="M284.6-59.8c7-6.7 15.3-16.7 36.6-16.7 5.1-1.7 5.1-11.8 16.7-11.8 12 0 8.3 10 16.6 13.4 8.4 3.4 76.9-3.3 76.9-3.3s6.5 5 6.5 11.7c0 6.7-5.1 11.3-6.5 11.3-1.9 0-68.5-4.6-73.6-3-4.7 1.7-7.9 3-20 3-11.5 0-14.7-11.3-23-11.3-8.4 0-16.7-1.7-30.2 6.7zm0 0" transform="matrix(.00844 0 0 .00933 6.4 3)" fill-rule="evenodd" fill="#984000" stroke-width="5.3" stroke="#772600"/><path d="M487.9-76.7h26.8c9.3 0 12.5 3 21.3 3.4h23.6c8.4-.5 13-2.1 21.3-3.4 14.8 0 9.7-1.3 7-10-2.8-6.3-3.3-9.7-7-13-1.4-8.4-4.6-10.9-4.6-20.1-1.9-7.1-4.6-11.7-1.9-20 3.7 5.8 5.6 7.9 15.3 8.3 9.7 0 14-.4 20 3.3 4.6 5 10.6 3.4 19.8 3.4 7.4 1.2 8.8 5 14.9 8.3 6.9 3.8 11.5 5 21.7 5a73.9 73.9 0 0120 5c4 5.1 11 6.4 19.8 6.8 5.1 0 9.3-.9 13.5-2.1 7.8.4 15.2 0 25 0 6 7.5 7.4 10 18 10 7.4 5.5 13.9 6.3 20.4 8.4h25c8.8.8 11.6 4.6 19.9 6.7 7 3.4 14.3 5.9 21.3 8.4 7.4 1.2 14.8 2 21.7 1.6 6.5 3.4 14 3.4 18.6 6.7 6.9 1.3 16.2 3.4 21.7 5 8.8 1.3 12 3.8 20 5 6.4 2.2-2.4 3.4-7 5.1-9.7-.4-10.2-4.2-20-5-5-3-12.4-2.5-19.8-5h-1.9c7 3.7 13 6.2 10.2 13.4-8.3 0-15.3-1.3-23.1-1.7-8.4-1.7-12.5-3.4-21.8-3.4 9.3-2.5 12 0 18.5 3.4 2.3 8-3.2 5-12 5-7.4-3-12-6.3-21.3-6.7h-20.4c10.2.4 12 4.2 18.5 8.4.5 2.5 0 2.5-5 3.3-5.2-4.6-12.1-6.2-20-8.3-7.8-.5-16.2-1.3-23.1-3.4-5.1-.4-4.2-6.3 6.5 3.4 6.4 3.7 8.8 7 8.3 10-8.8-2.5-13-5.9-18.5-8.4-7.4-2.9-15.3-3.7-23.2-3.3-8.3-2.5 1-3.8 6.5 5 12.5 8.8-1.4 5-6.5 3.4-7.4-2.1-15.3-5.5-21.7-6.7-5.1-1.7-9.3-3-14.8-3.4 8.7.8 11.5 3.8 14.8 10 8.8 6-.5 3-8.4 1.7-4.6-4.6-11-6.7-14.8-11.7-8.3-4.2-8.8-9.2-3.2 1.7 1.4 3.3.9 10.9 1.4 11.7-6-6.7-4.7-8.4-11.6-8.4-4.6-3.3-11.6-5.8-14.8-10-6.5-.8-7-3-13.4-5 5.5 6.2 12.5 12.5 16.6 18.4 7.4 4.2 9.7 8 14.8 11.7 2.3 3.3 8.4 6.7 1.9 1.7-7.4-7.1-12.5-8.8-23.2-13.4-6.4-5-8.3-7.1-15.2-11.7-8.8-3-5.6-4.6 0 5 6.4 5.8 11 12.1 16.6 16.7 4.2 5 9.3 9.7 15.3 13 1.4 2.5 6 3 0 3.3-5-4.6-12.5-7.5-18.5-11.7-8.3-2-12-6.2-18-11.3-4.2-5.8-10.7-10.4-15.3-15-9.8-3.8 1.8 3.3 5 8.3 1.9 5.9 4.7 11 6.5 16.8 2.8 5.4-8.3-1.7-11.5-3.4a56.6 56.6 0 00-21.8-8.3c-6.5-1.7-13-2.6-20-3.4-7.3-2 4.3 4.6 8.4 11.7 8.4 8-8.3 1.3-13.4 0-7.9-1.6-16.2-2-25-1.6-10.7.4-2.8 1.6 0 6.2 3.7 3 6 8.4 5 10-6.9-.8-12.9-2.9-21.7-3.3-7 2.5-15.3 1.7-23.1 1.7-.5 4.6 1.4.8 5 5 5.6 2.5 9.8 5.5 8.4 8.4h-48.1c-5.6 1.7.9.8 4.6 6.7-1.9 5.4-4.6 3.3-11.6 3.3-4.6-1.6-13.4-2.5-18-5-4.7 0-4.7-1.2-8.4-1.7 14 10 7 7.6 14.8 15.1 1.4.4 4.7 1.7 1.9 1.7M371.2 73c-1 0-3.2-5.4-6.5-10-2.3-5.9-5.5-2.5-8.3-11.3.5-9.6.5-11.3 0-20.1-7-5-9.7-6.3-15.3-15-8.3-7.2 1.4-18.9 3.3-28.1C336.9-12.7 333.2.3 322 4.9c-8.3 5.5-1.4-11.3-5-21-2.8-14.1-11.2 6.8-14 12.6-5.5 3.8-7.4 8.8-15.2 1.7 0-5 5-19.2 3.2-22.2-7.9 3.8-18 15.5-26.4 17.2-8.3-1.7 1.9-14.7 1.9-24.3-3.3-1.2-14.8 25.6-19.5 26-5 0-2.7-26-5-25.6-3.8 5-10.7 15.5-15.8 19.3-9.3-1.7 1.4-17.6 2.8-23.9 1.8-7-8.8 13.8-14.4 15.1-4.1 3.8-12 6.3-14.8 6.7 3.2-5.9 19-18.4 18-22.2-9.2.4-23.5 12.6-31.4 14.2-5.1 0-12.5 1.7-13.4 1.3.4-8 19.4-14.2 22.6-19.2-9.2 1.2-27.3 9.6-32.4 16.3-6.4 1.2-14.3 3-19.9 0 .5-7.6 14.8-22.2 17.6-26.8-8.3 3.3-12.5 6.3-21.3 8-1.8 1.6-7 5.4-5 1.6 2.7-6.7 6.4-9.6 9.7-14.6-7.5 1.2-10.2 5.4-18.1 9.6-5.1.4-20 15-24.5 15.5a71.2 71.2 0 01-28.3 13c-7.9 1.6-11.6 3.3-15.3 6.6 3.7-6.6 9.8-13 15.3-16.3a27.7 27.7 0 0114.8-13.4c1.9-2.5 7-2.9 1.4-3.3-4.6 4.2-12.5 8.8-16.2 11.7-5 3-11 6.3-13.4 5 2.3-7.5 7.4-9.2 11.6-15 8.8-5.9 0-2.1-7 0-4.1 3.7-12 6.7-18 10-7 1.7-11.6 5.9-20 8.4 0 2 2.4-4.6 3.3-6.7 7-7.6 8.8-9.6 16.7-11.7 1.8-3 4.1-1.7-1.9-1.7-4.6 3.8-10.6 6.3-16.7 10-5.5 1.3-13.4 1.7-21.2 1.7-10.7 1.3-9.8 2.1 0-3.3 5-5 9.7-3.8 9.7-10-6 4.5-14 7.9-21.8 11.6-6 0-7.9 1.7-14.8 1.7 3.2-3.3 5-8 10.2-10 7-8-4.6-1.7-7 0h-25c-4.1 5.4 0 0 3.3-3.4 4.6-2.5 8.8-5 8.3-6.7-4.6 4.2-10.6 6.3-14.8 10-4.6 1.3-10.2 2.2-10.2 3.4 3.7-5.4 9.7-8.8 13.4-13.4 5.6-1.2 10.7-3 11.6-5h-23.1 16.6c8.4 0 15.8-.8 23.2-1.7 13.4-2-1-3.3-8.4-3.3-.9-2.5 4.2-3.8 10.2-5C-6.6-69.3-.6-71.4 5-73.4c4.6-1.3 9.3-3.8 13.4-6.7-5 .4-5 1.6-10.2 1.6 7.4-.4 13-1.6 21.8-1.6 7.4-2.1 14.4-5 21.8-8 2.7-3.8 4.1-3.8-3.3-3.8 6.5-2 16.2-2.9 21.3-5 7-1.2 13.9-3.3 20-6.3 5-3.3 7.8-7.5 13.3-10 6.5 4.2 6.5 5 18.6 5 9.2-.4 14.8-2.5 19.9-6.7 7-2 8.3-5.4 16.6-6.7 8 1.3 15.3 1.7 23.2 1.7 8.3-2.1 15.7-6.3 21.7-10 5.1-2.6 11.2-6.3 16.7-8.4 6 3 10.7 5.4 18 6.7 8-1.3 12.1-5 18.6-6.7 4.2-4.2 9.2-7.1 14.8-8.4 9.7-4.6 9.3 1.7 13.4 6.7 5.1 5 11.6 2.5 18.5 5 3.8 5.9 6.5 10 11.6 13.4 3.7 4.6 8.4 5.9 16.7 6.7 3.2 3.8.5 6.7 6.5 8.4 2.3 2.5 6.5 3.3 10.2 4.6" transform="matrix(.00844 0 0 .00933 6.4 3)" fill="none" stroke-width="3.5" stroke="#772600"/><path d="M468.9 30.9v.8c0-2.5 0-1.3 1.4 3.3.9 3.4-.5 3.4-2.3 6-.5 3.7-1 6.2-1 10.8-.4 3.3-2.3 6.7-4.1 9.6-1.4 3.4-8.4 5-8.4 9.2-4.1 1.3-4.1-1.2-4.1-5.8-2.3-2.5-3.3-6.3-5.1-10-1-3.4-3.3-6-5.1-9.7-2.3-3.8-4.2-5-6.5-9.2-1-2.1-.5-4.6-2.3-5.9-2.8-3.3-4.6-4.2-9.3-4.2-3.7.9-5 2.6-8.3 3.4-2.8.8-7.4.4-10.7 1.7-.9 1.2 1.4 2 2.4 5-2.4 1.7-2.8 4.6-4.2 7.5-1.9 2.5-3.2 3.8-4.2 7.6 1.4 2 0 5.4-1.8 7.5-.5 3.8-2.3 5.8-3.3 8.8-2.3 2-3.7 3.7-5.5 6.7-1.9 2.9-3.7 2.5-8.4 2.5-3.7-.9-4.1-3-7.8-4.2 0-.8-.5-1.3-1.4-1.7" transform="matrix(.00844 0 0 .00933 6.4 3)" fill="none" stroke-width="3.1" stroke="#782600"/><path d="M9.6 3.7l-.1.2-.3.2h.3l-.2.2.3-.3.2.2V4v-.2h-.2zm.7 0l-.2.2-.3.2h.3l-.1.2.3-.3.1.3v-.4-.3zm-1-1.5zm0 0" fill-rule="evenodd" fill="#812e00"/></svg>