<svg xmlns="http://www.w3.org/2000/svg" width="20" height="14"><path fill="#e32118" d="M0 0h20v14H0z"/><path d="M0 0h20v9.3H0zm0 0" fill="#fff"/><path d="M0 0h20v4.7H0zm0 0" fill="#3e9a00"/><path d="M0 0v14l5.6-7zm0 0" fill="#0073ce"/><path d="M281.6 191.8h76.6V272c0 27-35.2 6.2-38.2 20.6-5.3-14.8-38.3 6.6-38.3-22.2zm0 0" transform="scale(.03125 .02917)" fill="#fff" stroke="#000"/><path d="M325.4 279.8s-1 1-2.8.2c-1.9-.8-2-51.4-2-51.4 4-4.4 7.1-5.7 7.1-5.7l2.6 2c-9 4.5-8.3 11-7.6 22.5.3 4.3.3 9.6 1.3 14.8 1.4 6.6 4.3 12.2 4.4 16.4.2 2.6-3 1.2-3 1.2zm0 0" transform="scale(.03125 .02917)" fill="#73452b" stroke-width=".2" stroke="#000"/><path d="M319.3 221.7h3.4c-3 28.9-.3 46.2-.3 54.5 0 2.8 1.6 3.8 1.4 3.8-3.6 4-5.4-.2-5.4-.2zm0 0" transform="scale(.03125 .02917)" fill="#73452b" stroke-width=".2" stroke="#000"/><path d="M313.6 279.8c-3.4 1.6-3.9-1.6-3.6-2 7.4-15 10.6-48 3.8-51.6l.4-3.2c2.6.8 5 4.1 5 4.1 1 37.1 0 52.3-.6 53-3.6 3.7-5-.7-5.2-1.1" transform="scale(.03125 .02917)" fill="#a36629" stroke-width=".2" stroke="#000"/><path d="M313.4 279.2c-.6-3.2 5.2-11.3 4.9-20m5 7c1.7 5 2.4 9.4 2 13.6" transform="scale(.03125 .02917)" fill="none" stroke-width=".2" stroke="#000"/><path d="M331 208c1.3-1.3 1.3-1.3 3.4-1.3.4-3.1 5.4-3.1 5.9.8 4-.8 4.7 1.6 3 3.8 4-.9 7.3 0 6.3 4.5 6.8 1.8 4.1 6.7 1.1 7.6-.3 3-3 4-7 2.8-4.7 3.4-7.4 2.1-9.7-1.2-5.4.8-5.8-.4-8.3-3.3-4 1.7-5 1.7-8.4-.5-.3 2.9-1.3 2-3 1.8 0 3.6-1.3 5.2-4.6 4 2.6 5-3.7 7.2-6.7 3-2.8.2-3-.6-4.4-1.7-1.2 4-5.6 3.5-6.4 1.3-5.6-.9-5-3.8-.4-4 .4-3.1 3.2-2.6 5-2.2.2-2 1.4-1.6 2.4-1.2-.6-1.4-.2-2.2 1.6-2.6-2.6-3.4-1-4.6 1.6-5.9-1.4-3.2 1-2.9 2.9-3.2-.3-3.3.7-3.8 4.3-4.3-.4-1.2.1-2.2 2.1-2.2-1-3.4.6-4.2 4-3.6.7-5 11.3-2.6 10.6 4.2 3 .4 4 1 4.7 3.4zm0 0" transform="scale(.03125 .02917)" fill="#009a3b" stroke-width=".2" stroke="#000"/><path d="M309.6 206.3c.8.4 1.8 0 2 2 1.6-2.7 3.6-1.1 3.6 2.1m11-5.8c-.8 1.2-3.8 1.2-3.4 4.5-1-1.5-3-2-3.8-.4m12-.7c0 .8-.3 3.2-1 4.4m13.4-1c.2.2-2.8 0-4.1 1m11.4 11c-.7-.4-2.3-1.3-3.4.3 0-.8 0-3.1-2.3-3.1m-1.3 5.6c0-2-.3-2.5-.7-3.2m-5.8.4c-1.6-1.2-3.2.7-3.2 1.6m-8.4-3.3c0-.9-.6-2.5.8-3.1M302.8 230c.4-2 1.8-2 1.6-3-.1-1.6-2-3-4.1-.8m4 .8c1.3-.4 2.4-.3 3 .4m-6.3-7.8c.8-.8 2.8-.6 4 0m0-4.8c1 0 2.8-.4 3.4 1.4 2.2-3.4 3.9-3 4.2-2.2m4-.4c1.6-.7 4.4 1 6 3.8.8-2.2 2-1.8 3.1-2m7.7 2c2.6-1.2 4.2 1.2 5 2.2 1.2-1.6 2.2-1.6 3.4-1.6m-32.6 4.2c.6-1 2-1.2 3-.5-.2-2 1-2.7 1.8-2.3" transform="scale(.03125 .02917)" fill="none" stroke-width=".2" stroke="#000"/><path d="M317.4 180.5l-4.4.2-2.3 4-2.3-3.8-4.4.2 2-4-2.4-3.7 4.6-.2 2-4 2.4 3.8 4.4-.2-2 4zm-18.8 1.5l-4.4 1-1.2 4.4-3.3-3.2-4 .9 1-4.2-3-3.2 4.3-1 1.3-4.3 3 3 4.4-.9-1.3 4.3zm-18.2 3.8l-4 1.8-.1 4.5-4-2.5-4 2 .4-4.4-3.7-2.4 4-2 .4-4.5 3.6 2.5 4-2-.3 4.4zm42.9-5.3l4.3.2 2 4 2.4-3.8 4.4.2-2-4 2.4-3.7-4.4-.2-2.1-4-2.6 3.8-4.3-.2 2 4zM342 182l4.3 1 1 4.4 3.3-3.2 4.1.9-1-4.2 3-3.2-4.3-1-1.1-4.3-3.3 3-4.3-.9 1.3 4.3zm18 3.8l4 1.8.3 4.5 3.7-2.5 4 2-.3-4.4 3.7-2.4-4-2-.1-4.5-4 2.5-4-2 .4 4.4zm0 0" transform="scale(.03125 .02917)" fill="gold" stroke-width=".7" stroke="#000"/><path d="M365.4 270.4l5 7.2 4.6-6.8-3.3-5.8zm-31.8 21l.4 7.3s2 0 3.8-.7c1.6-.5 3-1.8 3-1.8l-.2-3.8zm-26.9 0l-.3 7s-1.8 0-3.6-.4c-1.6-.4-3-1.3-3-1.3l-2-4.9zm-32-21l-5.3 7.2-5.6-9.2 4.2-4.4zm0 0" transform="scale(.03125 .02917)" fill="#fff" stroke-width=".7" stroke="#000"/><path d="M299.6 305.8c0 6.8 41.1 6.8 41.1 0v-9.5c0 4.9-41 3.8-41 0zm0 0" transform="scale(.03125 .02917)" fill="#fff" stroke-width=".7" stroke="#000"/><path d="M262.8 283.7c3.6 18.3 36.8 18.7 36.8 18.7v-6.1c-.9-2.5.6-3.3 6-4 2.1-.3 1.1-3.5 1.1-3.5s-14.3 2.6-24.4-1.4c-14-5.6-16-16.5-16-16.5s-1 8.5-3.6 12.8zm114.6 0c-3.4 18.3-36.6 18.7-36.6 18.7v-6.1c.6-2.5-.8-3.3-6.2-4-2.2-.3-1-3.5-1-3.5s14.4 2.6 24.6-1.4c13.6-5.6 15.2-16.5 15.2-16.5s1.4 8.5 4 12.8zm0 0" transform="scale(.03125 .02917)" fill="#fff" stroke-width=".7" stroke="#000"/><path d="M265.4 276.6c-9.1-5-2-10.2-1.1-25 1.3 9 11.4 12.8 10.3 18.5-4.2.3-6.2-6.1-8.2.8zm109.4 0c9.2-5.3 1.6-10.2.8-25-1.4 9-11.4 12.8-10.2 18.5 4 .3 6-6.1 8 .8l1.4 5.5zm0 0" transform="scale(.03125 .02917)" fill="#fff" stroke-width=".7" stroke="#000"/><path d="M8.5 8.3c-.1 0-.1.1 0 .1h-.1zm0 0h.1v.2h.1-.2zm.1.3l.1-.2v.2zm.2-.1v.1h.1v-.1zm0 0v.1zm.2 0l-.1.2H9v-.2zm0 0v.1zm.1 0v.2h.2l-.1-.1zm0 0l.1.1v.1-.1zm.7.3V9l.1-.1v-.1zm0 0zm.2 0l-.1.2h.2v-.2zm0 0V9zm.1.2l.1-.2V9zm.6-.4c.1.1 0 .2 0 .2v-.1zm.1 0l.1.1v-.1.1zm.2 0h.1-.1.1s-.1 0 0 0c0 .1-.1 0-.1 0zm.2 0H11l.1-.1v.1zm0-.1h.2v.1zm.3 0h-.2l.2-.1h-.1v.1zm0-.2v.2zm0 0v.2h.1v-.1h.1zm0 0h.1zm0 0"/></svg>