<svg xmlns="http://www.w3.org/2000/svg" xmlns:xlink="http://www.w3.org/1999/xlink" width="20" height="14"><defs><symbol overflow="visible" id="a"><path d="M.8-.4H.3v.1h.3c0 .1-.1.2-.3.2H.2v-.3c0-.1 0-.3.2-.3.1 0 .2 0 .2.2h.2C.8-.7.6-.7.3-.7a.4.4 0 00-.2 0 .4.4 0 00-.2.3c0 .3.2.4.4.4a.4.4 0 00.3 0zm0 0"/></symbol><symbol overflow="visible" id="b"><path d="M.6-.7v.5l-.2.1a.3.3 0 01-.2 0v-.6H0v.5c0 .1.1.2.3.2.2 0 .3 0 .3-.2v-.5zm0 0"/></symbol><symbol overflow="visible" id="c"><path d="M.5-.2V0h.2L.4-.7H.3L0 0h.1l.1-.2zm0-.1H.2l.2-.3zm0 0"/></symbol><symbol overflow="visible" id="d"><path d="M.5 0l.2-.6V0h.1v-.7H.7l-.2.6-.3-.6H.1V0v-.6l.3.6zm0 0"/></symbol></defs><path fill="#be0027" d="M0 0h20v14H0z"/><path d="M.8.8h18.4v12.5H.8zm0 0" fill-rule="evenodd" fill="#3b5aa3"/><path d="M9.8 12h.3c4.3-2 4.3-8 0-10a.3.3 0 00-.3 0 5.6 5.6 0 000 10zm0 0" fill-rule="evenodd" fill="#cbe0e5"/><path d="M9.8 12.2h.3c3.2-2.3 3.2-3.6 3-3.6H7c-.1 0 0 1.4 3 3.6zm0 0" fill-rule="evenodd" fill="#add2d9"/><path d="M7.4 9.7c.2-.1.5-.1.8 0l.7.1.7.2c.6 0 .8.3.4.3l-.9-.1c-.4 0-.6.1-1 .5l.4.3.7-.3.6-.2h1c.5-.1.3-.4 0-.6H10c-.2-.1 0-.2 0-.3H11.2l.6-.1a.7.7 0 00.4-.2l.4-.2h.4l-.6 1.2-1.6 1.5-.8.3L8.1 11l-.9-1.3h.2zm0 0" fill-rule="evenodd" fill="#fdf9a1"/><path d="M9.4 8.5h3.7v-.3H13l-.5.1-.3-.2-.4.2-.4-.1-.4.1c-.3 0-.5-.3-.7-.3-.5 0-.5.4-.8.5zm0 0" fill-rule="evenodd" fill="#179a3b"/><path d="M9.4 8.6h3.8v-.1H9.3zm0 0" fill-rule="evenodd" fill="#fdf9a1"/><path d="M11 9.6c0 .2 0 .3.3.4.2 0 .6-.2.4-.4l-.6-.4c-.4-.4-1-1.2-1-1.9V4.7l-.3.2v2.6c.1.6.5 1 .8 1.5l.4.6zm0 0" fill-rule="evenodd" fill="#a79270"/><use xlink:href="#a" x="8" y="7.3" fill="#bd0728"/><path d="M483.2 259.4h-7.5v2.5h5.6v.4c0 3.2-2.6 5.6-6 5.6-1.9 0-3.8-.8-4.5-2-1.5-1.2-2.3-3.2-2.3-5.7 0-4.8 2.6-7.6 6.8-7.6 2.6 0 4.9 1.2 5.2 3.6h2.7c-.8-3.6-3.8-5.6-8-5.6-2.2 0-4 .4-5.6 1.6-2.2 2-3.3 4.8-3.3 8 0 5.7 3.3 9.7 8.6 9.7 2.3 0 4.5-.8 6.4-2.8l.4 2.4h1.5zm-18-8.5" transform="matrix(.04156 0 0 .0388 -11.3 -3.1)" fill="none" stroke-width="1.6" stroke="#fff"/><use xlink:href="#b" x="8.9" y="7.3" fill="#bd0728"/><path d="M502.4 250.7V264c0 2.4-2 4-5 4-1.4 0-2.6-.4-3.3-.8-1.1-.8-1.5-1.6-1.5-3.2v-13.3h-2.3V264c0 4 2.7 6 7.2 6 4.1 0 7.1-2.4 7.1-6v-13.3zm-14.3.3" transform="matrix(.04156 0 0 .0388 -11.3 -3.1)" fill="none" stroke-width="1.6" stroke="#fff"/><use xlink:href="#c" x="10.1" y="7.3" fill="#bd0728"/><path d="M528 264l1.9 5.6h2.6l-6.4-19h-3l-6.7 19h2.6l1.9-5.6zm-.7-2h-5.7l3-8.5zM516 251" transform="matrix(.04156 0 0 .0388 -11.3 -3.1)" fill="none" stroke-width="1.6" stroke="#fff"/><use xlink:href="#d" x="11.1" y="7.3" fill="#bd0728"/><path d="M551.5 269.5l5.3-15.7v15.7h2.2v-19h-3.4l-5.2 16.6-5.7-16.5h-3.3v19h2.2v-15.8l5.3 15.7zm-12-18.6" transform="matrix(.04156 0 0 .0388 -11.3 -3.1)" fill="none" stroke-width="1.6" stroke="#fff"/><path d="M8.1 4.7h.2c.2-.1.3-.4.6-.2.3.1.7 0 .5.2-.3 0-.8.2-.8 1l.1-.1c0-.2.4-.6.6-.5l.3-.2c0 .2-.3.5-.3 1 0 .1.2.1.2 0l.2-.2c.3-.1.2-.8.2-.8.2.2.2.7.4 1 .2 0 .3 0 .3-.2 0-.5-.3-.4-.4-.9v-.1c.2 0 .3.1.5.3 0 .2.3.3.5.4.2.2.3 0 .2-.2a1.2 1.2 0 00-.7-.5l-.4-.1s-.1-.1 0-.2l.6-.2.5.2c.3 0 .3-.1.2-.2l-.6-.3c-.4 0-.4 0-.6.2-.1 0-.2.1-.2 0l.2-.2c0-.2.2-.2.3-.3a.7.7 0 00.3-.2c0-.1 0-.2-.2-.1l-.3.1c-.2 0-.4.6-.4.6 0 .1-.1 0-.1 0V3c-.3-.4-.3-.2-.3 0v.7l.1.4a1 1 0 00-.5-.5 1.2 1.2 0 00-.6 0h.1c.1.2.4.2.6.3l.3.3v.2c-.2 0-.4-.2-1-.1-.2 0-.4.2-.6.5zm0 0" fill-rule="evenodd" fill="#239e46"/><path d="M9.2 9h.2v.3h-.2zm0 0" fill-rule="evenodd"/><path d="M8.5 7.5C9 8.3 10 8.7 10 9.1H8.2c.4-.5.7-.8.3-1.6zm0 0" fill-rule="evenodd" fill="#fdf9ff"/><path d="M8 9c.8.3 1.7.3 2.3 0 0 .2-.2.5-.3.5H8.4l.6-.1h-.8c-.1 0-.3-.2-.2-.3zm0 0" fill-rule="evenodd" fill="#a68861"/><path d="M9.8 12.4a.3.3 0 00.2 0 6 6 0 000-10.8.3.3 0 00-.2 0 6 6 0 000 10.8zm0-.5a.3.3 0 00.2 0C14 9.8 14 4.2 10 2h-.2c-3.7 2-4 7.5 0 9.8zm0 0" fill-rule="evenodd" fill="#be0027"/><use xlink:href="#a" x="8" y="7.3" fill="#bd0728"/><use xlink:href="#b" x="8.9" y="7.3" fill="#bd0728"/><use xlink:href="#c" x="10.1" y="7.3" fill="#bd0728"/><use xlink:href="#d" x="11.1" y="7.3" fill="#bd0728"/></svg>