<svg xmlns="http://www.w3.org/2000/svg" width="20" height="14"><path d="M0 0h20v4.7H0zm0 0" fill="#f93"/><path d="M0 4.7h20v4.6H0zm0 0" fill="#fff"/><path d="M0 9.3h20V14H0zm0 0" fill="#128807"/><path d="M12 7c0 1-.9 1.9-2 1.9S8 8 8 7c0-1 .9-1.9 2-1.9S12 6 12 7zm0 0" fill="#008"/><path d="M11.8 7c0 .9-.8 1.6-1.8 1.6S8.2 8 8.2 7c0-.9.8-1.6 1.8-1.6s1.8.7 1.8 1.6zm0 0" fill="#fff"/><path d="M10.4 7c0 .2-.2.3-.4.3s-.4-.1-.4-.3c0-.2.2-.3.4-.3s.4.1.4.3zm1.4.2v.1l-.2-.1h.2zm0 0" fill="#008"/><path d="M10 8.6V7.2v.5zm1.7-1l-.1.1v-.1h.1zm-2.2 1l.4-1v-.4l-.1.4zm2-.6a.1.1 0 01-.2 0h.1zM9 8.4l.6-.8.2-.4-.3.3zm2 0a.1.1 0 01-.1 0v-.2h.1v.2zm-2.3-.2l.7-.7.4-.4-.4.3zm1.9.4h-.1v-.2h.2l-.1.2zm-2.2-.8l1-.4.3-.3-.4.2zm1.7.9v-.2l.1.1v.1zM8.3 7.4l1-.2.5-.2-.5.1zm1.5 1.3h-.1v-.2l.2.1-.1.1zM8.2 7h1.6-.5zm1.1 1.6v-.1h.1s0 .1-.1 0zm-1-2l1 .3h.5l-.5-.1zM9 8.4v-.2l.1.1h-.1zm-.4-2.2l.9.5.4.2-.4-.3zm0 1.8a.1.1 0 01.2 0h-.2zm.3-2.2l.7.8.4.3-.4-.4zm-.5 1.9v-.2h.2v.2h-.2zm.8-2.1l.5.9.3.3-.2-.4zm-1 1.6h.2v.1h-.1zm1.4-1.8l.3 1 .1.4v-.4zM8.2 6.8v-.1l.2.1h-.2zM10 5.4v1.4-.5zm-1.7 1l.1-.1v.1h-.1zm2.2-1l-.4 1v.4l.1-.4zm-2 .6a.1.1 0 01.2 0h-.1zm2.4-.4l-.6.8-.2.4.3-.3zm-2 0a.1.1 0 01.1 0v.2h-.1v-.2zm2.3.2l-.7.7-.4.4.4-.3zm-1.9-.4h.1v.2h-.2l.1-.2zm2.2.8l-1 .4-.3.3.4-.2zm-1.7-.9v.2l-.1-.1v-.1zm1.9 1.3l-1 .2-.5.2.5-.1zm-1.5-1.3h.1v.2l-.2-.1.1-.1zM11.8 7h-1.6.5zm-1.1-1.6v.1h-.1s0-.1.1 0zm1 2l-1-.3h-.5l.5.1zM11 5.6v.2l-.1-.1h.1zm.4 2.2l-.9-.5-.4-.2.4.3zm0-1.8a.1.1 0 01-.2 0h.2zm-.3 2.2l-.7-.8-.4-.3.4.4zm.5-1.9v.2h-.2v-.2h.2zm-.8 2.1l-.5-.9-.3-.3.2.4zm1-1.6h-.2v-.1h.1zm-1.4 1.8l-.3-1-.1-.4v.4zm0 0" fill="#008"/></svg>