<svg xmlns="http://www.w3.org/2000/svg" width="20" height="14"><path fill="#fff" d="M0 0h20v14H0z"/><path d="M-3.1 9.4H23V14H-3zm0 0" fill-rule="evenodd" fill="#da0000"/><path d="M1.9 9.6h1.4-1.4zm.2.5zm1.2 0H3zm.2-.5v.5zm0 0M4 10v.1h-.5zm-1-.2h.1v.3zm0 0" fill-rule="evenodd" fill="#fff"/><path d="M4 9.6v.5zm-.3 0h.1v.5zm-1.3.2v.1h-.5zm1.1 0v.1H3zm0 0" fill-rule="evenodd" fill="#fff"/><path d="M3 9.8h.1v.3zm0 0" fill-rule="evenodd" fill="#fff"/><path d="M3 9.8h.1v.3zm0 0" fill-rule="evenodd" fill="#fff"/><path d="M3 9.8h.1v.3zM2 9.8v.3zm.8 0h.1v.3zm-.4 0h.1v.3h-.1zm0 0" fill-rule="evenodd" fill="#fff"/><path d="M2.8 10v.1h-.5zm0-.2v.1h-.3zm-3.3-.2H1-.5zm.2.5h.1zM1 10H.7zm.2-.5h.1v.5h-.1zm0 0M1.7 10v.1H1zm-1-.2v.3zm0 0" fill-rule="evenodd" fill="#fff"/><path d="M1.6 9.6v.5zm-.3 0h.1v.5zM0 9.8v.1h-.5zm1.2 0v.1H.7zm0 0M.7 9.8v.3zm0 0M.7 9.8v.3zm0 0" fill-rule="evenodd" fill="#fff"/><path d="M.7 9.8v.3zm-1.2 0h.1v.3zm.9 0v.3zm-.5 0H0v.3zm0 0M.4 10v.1H0zm0-.2v.1H.2zm3.8-.2h1.4-1.4zm.2.5h.1zm1.2 0h-.2zm.2-.5h.1v.5h-.1zm0 0" fill-rule="evenodd" fill="#fff"/><path d="M6.4 10v.1h-.6zm-1-.2v.3zm0 0" fill-rule="evenodd" fill="#fff"/><path d="M6.3 9.6h.1v.5h-.1zm-.3 0h.1v.5zm-1.3.2v.1h-.5zm1.2 0v.1h-.5zm0 0M5.4 9.8v.3zm0 0M5.4 9.8v.3zm0 0" fill-rule="evenodd" fill="#fff"/><path d="M5.4 9.8v.3zm-1.2 0h.1v.3zm.9 0v.3zm-.5 0h.1v.3zm0 0" fill-rule="evenodd" fill="#fff"/><path d="M5.1 10v.1h-.4zm0-.2v.1H5zm1.5-.2H8 6.6zm.2.5zM8 10h-.3zm.2-.5v.5zm0 0M8.7 10v.1h-.5zm-1-.2h.1v.3zm0 0" fill-rule="evenodd" fill="#fff"/><path d="M8.7 9.6v.5zm-.3 0h.1v.5h-.1zm-1.3.2v.1h-.5zm1.1 0v.1h-.5zm0 0" fill-rule="evenodd" fill="#fff"/><path d="M7.7 9.8h.1v.3zm0 0" fill-rule="evenodd" fill="#fff"/><path d="M7.7 9.8h.1v.3zm0 0" fill-rule="evenodd" fill="#fff"/><path d="M7.7 9.8h.1v.3zm-1.1 0v.3zm.8 0h.1v.3zm-.4 0v.3zm0 0" fill-rule="evenodd" fill="#fff"/><path d="M7.5 10v.1H7zm0-.2v.1h-.3zM9 9.6h1.5-1.5zm.2.5h.1zm1.3 0H10zm.1-.5h.1v.5zm0 0" fill-rule="evenodd" fill="#fff"/><path d="M11.1 10v.1h-.5zm-1-.2v.3zm0 0" fill-rule="evenodd" fill="#fff"/><path d="M11 9.6h.1v.5zm-.2 0v.5zm-1.3.2v.1h-.6zm1.1 0v.1h-.5zm0 0" fill-rule="evenodd" fill="#fff"/><path d="M10 9.8h.2v.3H10zm0 0" fill-rule="evenodd" fill="#fff"/><path d="M10 9.8h.2v.3H10zm0 0" fill-rule="evenodd" fill="#fff"/><path d="M10 9.8h.2v.3H10zm-1 0v.3zm.8 0v.3zm-.4 0v.3zm0 0M9.8 10v.1h-.4zm0-.2v.1h-.2zm0 0" fill-rule="evenodd" fill="#fff"/><path d="M-3.1 0H23v4.6H-3zm0 0" fill-rule="evenodd" fill="#239f40"/><path d="M11.3 9.6h1.4-1.4zm.2.5h.1zm1.2 0h-.2zm.2-.5h.1v.5zm0 0" fill-rule="evenodd" fill="#fff"/><path d="M13.5 10v.1h-.6zm-1-.2v.3zm0 0" fill-rule="evenodd" fill="#fff"/><path d="M13.4 9.6h.1v.5h-.1zm-.3 0h.2v.5H13zm-1.3.2v.1h-.5zm1.2 0v.1h-.5zm0 0M12.5 9.8v.3zm0 0M12.5 9.8v.3zm0 0" fill-rule="evenodd" fill="#fff"/><path d="M12.5 9.8v.3zm-1.2 0h.1v.3zm.9 0v.3zm-.5 0h.1v.3zm0 0" fill-rule="evenodd" fill="#fff"/><path d="M12.2 10v.1h-.4zm0-.2v.1H12zm1.5-.2H15h-1.4zm.2.5zm1.2 0h-.3zm.2-.5v.5zm0 0M15.8 10v.1h-.5zm-1-.2h.1v.3zm0 0" fill-rule="evenodd" fill="#fff"/><path d="M15.8 9.6v.5zm-.3 0h.1v.5zm-1.3.2v.1h-.5zm1.2 0v.1h-.6zm0 0" fill-rule="evenodd" fill="#fff"/><path d="M14.8 9.8h.1v.3zm0 0" fill-rule="evenodd" fill="#fff"/><path d="M14.8 9.8h.1v.3zm0 0" fill-rule="evenodd" fill="#fff"/><path d="M14.8 9.8h.1v.3zm-1.1 0v.3zm.8 0h.1v.3zm-.4 0h.1v.3zm0 0" fill-rule="evenodd" fill="#fff"/><path d="M14.6 10v.1H14zm0-.2v.1h-.3zm1.4-.2h1.5H16zm.3.5zm1.2 0h-.3zm.1-.5h.1v.5zm0 0" fill-rule="evenodd" fill="#fff"/><path d="M18.2 10v.1h-.5zm-1-.2v.3zm0 0" fill-rule="evenodd" fill="#fff"/><path d="M18.1 9.6h.1v.5zm-.2 0v.5zm-1.3.2v.1H16zm1.1 0v.1h-.5zm0 0M17.2 9.8v.3zm0 0M17.2 9.8v.3zm0 0" fill-rule="evenodd" fill="#fff"/><path d="M17.2 9.8v.3zm-1.2 0h.1v.3zm.9 0v.3zm-.4 0v.3zm0 0M17 10v.1h-.5zm0-.2v.1h-.3zm1.4-.2H20h-1.5zm.2.5h.1zm1.3 0h-.3zm.1-.5h.1v.5zm0 0" fill-rule="evenodd" fill="#fff"/><path d="M20.6 10v.1H20zm-1-.2v.3zm0 0" fill-rule="evenodd" fill="#fff"/><path d="M20.5 9.6h.1v.5zm-.2 0v.5zm-1.4.2v.1h-.5zm1.2 0v.1h-.5zm0 0M19.6 9.8v.3zm0 0M19.6 9.8v.3zm0 0" fill-rule="evenodd" fill="#fff"/><path d="M19.6 9.8v.3zm-1.2 0h.1v.3zm.9 0v.3zm-.5 0h.1v.3zm0 0M19.3 10v.1H19zm0-.2v.1h-.2zM2 4h1.4V4H2zm.2.5zm1.2 0H3zm.2-.5v.6zm0 0M4 4.4h-.5zm-1-.2h.1v.3zm0 0M4 4v.5zm-.3 0h.1v.5zM2.4 4v.1h-.5zm1.1 0v.1H3zm0 0" fill-rule="evenodd" fill="#fff"/><path d="M3 4.2h.1v.3zm0 0" fill-rule="evenodd" fill="#fff"/><path d="M3 4.2h.1v.3zm0 0" fill-rule="evenodd" fill="#fff"/><path d="M3 4.2h.1v.3zM2 4.2v.3zm.8 0h.1v.3zm-.4 0h.1v.3h-.1zm0 0M2.8 4.4h-.5zm0-.3v.1h-.3zM-.5 4H1V4H-.5zm.2.5h.1zm1.2 0H.7zm.2-.5h.1v.6h-.1zm0 0M1.7 4.4H1zm-1-.2v.3zm0 0" fill-rule="evenodd" fill="#fff"/><path d="M1.6 4v.5zm-.3 0h.1v.5zM0 4v.1h-.5zm1.2 0v.1H.7zm0 0M.7 4.2v.3zm0 0M.7 4.2v.3zm0 0M.7 4.2v.3zm-1.2 0h.1v.3zm.9 0v.3zm-.5 0H0v.3zm0 0M.4 4.4H0zm0-.3v.1H.2zM4.2 4h1.4V4H4.2zm.2.5h.1zm1.2 0h-.2zm.2-.5h.1v.6h-.1zm0 0M6.4 4.4h-.6zm-1-.2v.3zm0 0" fill-rule="evenodd" fill="#fff"/><path d="M6.3 4h.1v.5h-.1zM6 4h.1v.5zM4.7 4v.1h-.5zm1.2 0v.1h-.5zm0 0M5.4 4.2v.3zm0 0M5.4 4.2v.3zm0 0M5.4 4.2v.3zm-1.2 0h.1v.3zm.9 0v.3zm-.5 0h.1v.3zm0 0M5.1 4.4h-.4zm0-.3v.1H5zM6.7 4H8V4H6.6zm.2.5zm1.2 0h-.3zm.2-.5v.6zm0 0M8.7 4.4h-.5zm-1-.2h.1v.3zm0 0M8.7 4v.5zm-.3 0h.1v.5h-.1zM7.1 4v.1h-.5zm1.1 0v.1h-.5zm0 0" fill-rule="evenodd" fill="#fff"/><path d="M7.7 4.2h.1v.3zm0 0" fill-rule="evenodd" fill="#fff"/><path d="M7.7 4.2h.1v.3zm0 0" fill-rule="evenodd" fill="#fff"/><path d="M7.7 4.2h.1v.3zm-1.1 0v.3zm.8 0h.1v.3zm-.4 0v.3zm0 0" fill-rule="evenodd" fill="#fff"/><path d="M7.5 4.4H7zm0-.3v.1h-.3zM9 4h1.5V4H8.9zm.2.5h.1zm1.3 0H10zm.1-.5h.1v.6zm0 0M11.1 4.4h-.5zm-1-.2v.3zm0 0M11 4h.1v.5zm-.2 0v.5zM9.5 4v.1h-.6zm1.1 0v.1h-.5zm0 0M10 4.2h.2v.3H10zm0 0" fill-rule="evenodd" fill="#fff"/><path d="M10 4.2h.2v.3H10zm0 0" fill-rule="evenodd" fill="#fff"/><path d="M10 4.2h.2v.3H10zm-1 0v.3zm.8 0v.3zm-.4 0v.3zm0 0M9.8 4.4h-.4zm0-.3v.1h-.2zm1.5-.2h1.4V4h-1.4zm.2.5h.1zm1.2 0h-.2zm.2-.5h.1v.6zm0 0M13.5 4.4h-.6zm-1-.2v.3zm0 0" fill-rule="evenodd" fill="#fff"/><path d="M13.4 4h.1v.5h-.1zm-.3 0h.2v.5H13zm-1.3.1v.1h-.5zm1.2 0v.1h-.5zm0 0M12.5 4.2v.3zm0 0M12.5 4.2v.3zm0 0M12.5 4.2v.3zm-1.2 0h.1v.3zm.9 0v.3zm-.5 0h.1v.3zm0 0M12.2 4.4h-.4zm0-.3v.1H12zm1.5-.2H15V4h-1.4zm.2.5zm1.2 0h-.3zm.2-.5v.6zm0 0M15.8 4.4h-.5zm-1-.2h.1v.3zm0 0M15.8 4v.5zm-.3 0h.1v.5zm-1.3.1v.1h-.5zm1.2 0v.1h-.6zm0 0" fill-rule="evenodd" fill="#fff"/><path d="M14.8 4.2h.1v.3zm0 0" fill-rule="evenodd" fill="#fff"/><path d="M14.8 4.2h.1v.3zm0 0" fill-rule="evenodd" fill="#fff"/><path d="M14.8 4.2h.1v.3zm-1.1 0v.3zm.8 0h.1v.3zm-.4 0h.1v.3zm0 0" fill-rule="evenodd" fill="#fff"/><path d="M14.6 4.4H14zm0-.3v.1h-.3zM16 4h1.5V4H16zm.3.5zm1.2 0h-.3zm.1-.5h.1v.6zm0 0M18.2 4.4h-.5zm-1-.2v.3zm0 0" fill-rule="evenodd" fill="#fff"/><path d="M18.1 4h.1v.5zM18 4v.5zm-1.3.1v.1H16zm1.1 0v.1h-.5zm0 0M17.2 4.2v.3zm0 0M17.2 4.2v.3zm0 0M17.2 4.2v.3zm-1.2 0h.1v.3zm.9 0v.3zm-.4 0v.3zm0 0M17 4.4h-.5zm0-.3v.1h-.3zm1.4-.2H20V4h-1.5zm.2.5h.1zm1.3 0h-.3zm.1-.5h.1v.6zm0 0M20.6 4.4H20zm-1-.2v.3zm0 0" fill-rule="evenodd" fill="#fff"/><path d="M20.5 4h.1v.5zm-.2 0v.5zm-1.4.1v.1h-.5zm1.2 0v.1h-.5zm0 0M19.6 4.2v.3zm0 0M19.6 4.2v.3zm0 0M19.6 4.2v.3zm-1.2 0h.1v.3zm.9 0v.3zm-.5 0h.1v.3zm0 0M19.3 4.4H19zm0-.3v.1h-.2zm0 0" fill-rule="evenodd" fill="#fff"/><path d="M.5 9.3h.2v.3H.5zm4.7 0h.2v.3h-.2zm-8.3 0h.2v.3h-.2zm2.4 0h.1v.3h-.1zm2.3 0h.2v.3h-.2zm1.2 0H3v.3h-.2zm1.2 0h.2v.3H4zm2.4 0h.1v.3h-.1zm5.9 0h.2v.3h-.2zm-4.7 0h.1v.3h-.1zm1.1 0H9v.3h-.2zm1.2 0h.2v.3h-.2zm1.2 0h.2v.3H11zm9.5 0h.1v.3h-.1zm-7.1 0h.1v.3h-.1zm1.2 0h.1v.3h-.1zm1.2 0h.1v.3H16zm1.1 0h.2v.3H17zm1.2 0h.2v.3h-.2zm1.2 0h.2v.3h-.2zm3.5 0h.2v.3h-.2zm-1.1 0h.1v.3h-.1zM-2 9.3h.1v.3h-.1zm0 0" fill-rule="evenodd" fill="#d90000"/><path d="M.5 4.4h.2v.3H.5zm4.7 0h.2v.3h-.2zm-8.3 0h.2v.3h-.2zm2.4 0h.1v.3h-.1zm2.3 0h.2v.3h-.2zm1.2 0H3v.3h-.2zm1.2 0h.2v.3H4zm2.4 0h.1v.3h-.1zm5.9 0h.2v.3h-.2zm-4.7 0h.1v.3h-.1zm1.1 0H9v.3h-.2zm1.2 0h.2v.3h-.2zm1.2 0h.2v.3H11zm9.5 0h.1v.3h-.1zm-7.1 0h.1v.3h-.1zm1.2 0h.1v.3h-.1zm1.2 0h.1v.3H16zm1.1 0h.2v.3H17zm1.2 0h.2v.3h-.2zm1.2 0h.2v.3h-.2zm3.5 0h.2v.3h-.2zm-1.1 0h.1v.3h-.1zM-2 4.4h.1v.3h-.1zm0 0" fill-rule="evenodd" fill="#239e3f"/><path d="M10.7 5.4c.2.3 1 1.8-.5 2.9-.7.5-.2.5-.2.6 1.1-.6 1.5-1.3 1.5-2s-.4-1.3-.8-1.5zm0 0" fill-rule="evenodd" fill="#da0000"/><path d="M10.8 5.3c.6.3 1 .9 1 1.5a2 2 0 01-.5 1.6c.8-.2 1.8-2.4-.5-3zm-1.6 0a2 2 0 00-1 1.5c-.1.6 0 1.2.5 1.6-.8-.2-1.8-2.4.5-3zm0 0" fill-rule="evenodd" fill="#da0000"/><path d="M9.3 5.4c-.2.3-1 1.8.5 2.9.7.5.2.5.2.6-1.1-.6-1.5-1.3-1.5-2s.4-1.3.8-1.5zm0 0" fill-rule="evenodd" fill="#da0000"/><path d="M11.4 8.7c-.4 0-1 0-1.4-.2l.2.3h1.2zm-2.8 0c.5 0 1 0 1.4-.2l-.2.3H8.6zM9.4 5c.1.3.3.3.6.2.2 0 .5 0 .6-.2 0 .6-.6.5-.6.3-.2.3-.7.1-.6-.3zm0 0" fill-rule="evenodd" fill="#da0000"/><path d="M10 9l.2-.2V5.5l-.2-.2-.3.2v3.3zm0 0" fill-rule="evenodd" fill="#da0000"/></svg>