<svg xmlns="http://www.w3.org/2000/svg" width="20" height="14"><defs><clipPath id="a"><path d="M0 .2h20v13.6H0zm0 0"/></clipPath><clipPath id="b"><path d="M8 .2h4V3H8zm0 0"/></clipPath></defs><g clip-path="url(#a)"><path d="M-2.5.2h25v13.6h-25zm0 0" fill="#fff"/><path d="M-2.5.2V1L8.5 7l-11 6v.8h1.6l11-5.9 10.8 6h1.6v-1L11.6 7l11-6V.3h-1.7L10 6-.9 0zm0 0" fill-rule="evenodd" fill="#df112d"/></g><path d="M132.7 22.2c3.1 12.8 1.4 28.6-12.9 37.4-14.2-8.8-16-24.6-12.8-37.4 3.4-3 18.6-4.9 25.7 0zm0 0" transform="matrix(.1018 0 0 .09295 -2.2 .2)" fill="#e8112d" stroke-width=".1" stroke="#000"/><g clip-path="url(#b)"><path d="M119.8 19.7c4.5-.1 9 1 13 3.1.7-4.3 2.3-8.5 5-12-2.6 0-3.7 1.2-3.7 2.5-.6-1.7-3-1.6-3.8-.7 2.7 1.8.6 5-1.8 4.4-1.1-.3-1.7-1.1-2-2.3a1.3 1.3 0 001-1.4c0-.6-.6-1.2-1.3-1.2-.6 0-1.2.6-1.3 1.2 0 .7.5 1.3 1.1 1.4a3 3 0 01-3 1.3c-1.4-.3-2-1.5-2-2.5 0-2.7 2.6-3.1 3.4-2.6 0-1.8-3-3.3-3.8-1.8 1-1.9.7-4.3-.8-5.8A4.8 4.8 0 00119 9c-.9-1.5-3.7 0-3.7 1.8.7-.5 3.3 0 3.3 2.6 0 1-.6 2.2-1.8 2.5a3 3 0 01-3.2-1.3c.3 0 .4-.2.6-.4.4-.5.5-1 .2-1.6a1.3 1.3 0 00-1.6-.5c-.6.2-.9.8-.8 1.3 0 .6.5 1.1 1 1.2-.1 1.2-.8 2-2 2.3a2.4 2.4 0 01-2.7-1.4c-.5-1.1 0-2.4 1-3-.8-1-3.2-1-3.8.7 0-1.3-1-2.6-3.6-2.6a28.3 28.3 0 015 12c4-2 8.5-3.1 13-3zm0 0" transform="matrix(.1018 0 0 .09295 -2.2 .2)" fill="#f9dd16" stroke-width=".1" stroke="#000"/></g><path d="M130.7 32.2c-.4 0-.4.5-.5.5.8 0 1.2-.3 1.4-.7v.6c.6-.2.8-.7.6-1l.7.2c-.4-.3 0-1-.8-1.4.2 0 .6.2.8.5 0-.7-.2-1.1-.8-1.5h.5a1 1 0 01-.4-.8c0-.4-.2-.4-.6-.3l-1.8.1c-1 0-2 0-2.8-.6 1.3.6 3-.6 3-1.5 0-1-1.4-2-4-1.4-2.6.6-5.8.4-5.8-.5 0-1 2.3-1 3.5-.8 1.2.2 2 .3 4.2-.5a8 8 0 01-3.7-.1c-1.4-.4-4.8-.4-4.8 1.4 0 2 3.6 1.7 6.8 1.2 1.8-.2 2.8 0 2.8.5 0 .6-1.7.8-3 .7-1.4-.2-2.8 0-4 .3-1.4.4-2.3 0-3.7.3-.7 0-2.4 0-3.2-1.4-.5.4-2 1.1-2.3 2-.3.5 0 1.2.4 1.9.6.8-.3.7-1 .7-.8 0-2 0-2.6-.8-.6-.6-1.3-1.1-1.9-.7-.3.3 0 .6.2.5l.8.2h-1c-.3.3 0 .7.3.6.2-.1.7-.2 1 0-.3 0-.7 0-.8.2-.1.2 0 .4.3.4.6 0 .7.4 1.3.3a1 1 0 00-.7.4c.6-.3 1.1.4 1.8.2-.2 0-.7.4-.7.6.4-.5 3.2.4 3.2-.7v.8c.2-.2 1.3-.3 1.7-1 0 .2 0 .5-.2.6.3 0 .8-.2 1.3-.9.2-.3.2-.5.2-.7.5 0 .8 0 1.2-.4.4-.3.8.3 1.5-.2.6-.4 1.2 0 1.6-.2.3-.2.8 0 1.2-.2.4-.2 1 .1 1.6-.4 1 .4 2.3 1 5.2.5 1.6-.3 2.2.3 2.2 1 0 .6-.4.6-.6.6-1 0-1.3-.3-1.7-.2-.2 0-.4.5 0 .7-.3.1-.3.4 0 .5.1.1.4 0 .7-.1-.4.1-.7.4-.5.7 0 .2.4.3.7 0 .3-.4.8-.7 1.2-.7zm-18.6-8c-.8-.3-1-.3-.9.4 0 .3.3.7.5 1 0-.4.1-1.1.4-1.3zm0 0" transform="matrix(.1018 0 0 .09295 -2.2 .2)" fill="#f9dd16" stroke-width=".1" stroke="#000"/><path d="M114.8 24.3c.8-.4 1-.4.9.3 0 .3-.3.7-.5 1 0-.4 0-1.1-.4-1.3zm0 0" transform="matrix(.1018 0 0 .09295 -2.2 .2)" fill="#f9dd16" stroke-width=".1" stroke="#000"/><path d="M113.5 23.8c1.6 0 1.8.8 1.7 1.7 0 1-.5.6-.8 2 0 .4-.5.5-1 .5-.3 0-.7 0-.9-.6-.3-1.3-.8-1-.8-2 0-.8.2-1.6 1.8-1.6zm0 0" transform="matrix(.1018 0 0 .09295 -2.2 .2)" fill="#f9dd16" stroke-width=".1" stroke="#000"/><path d="M109.4 27.5c-.4-.2-.7 0-.9 0 .6.1.6.8 1.8 1-.3 0-.4.2-.7 0 .5.4 1 1 2.2 1 .7 0 .2.2-.2 0 .4.5 1.3 0 2 1 0-.7-1-1.7-.6-2.4-1.7-.1-1.8-1-2.7-1.7-.8-.6-.9-1.2-1.2-2.3 0-.5-.7-.8-1-.7-.3 0-.5.3-.2.5.2.2.6.2.6.7-.3-.4-.8-.5-1-.3 0 .2 0 .5.2.5.5 0 .2.6.7 1-.5-.5-1-.6-1.2-.3-.1.2 0 .5.4.5.5 0 1 1.2 1.8 1.5zm13 4.6c-.2 0-.1.5-.5.5.8 0 1.3-.2 1.6-.5l-.2.5c.4-.3 1.5-.4 2-.3.5.1.6-.1.8-.4.2-.4 0-.6-.3-.8-.3-.3-.4-.7-.3-1.3-1.4-2-4-1-4-.2 1 1 1 1 1.8 1 .7.3 1.2.3.7.7-.2.2-1 0-1.5 0-1.3 0-2-.8-2.3-.3-.3.4 0 .6.6.6-.4 0-1 0-.9.4.2.7.8-.1 1 .1-.1 0-.5 0-.5.3 0 .2.5.5 1 0 .3-.2.6-.3 1-.3zm0 0" transform="matrix(.1018 0 0 .09295 -2.2 .2)" fill="#f9dd16" stroke-width=".1" stroke="#000"/><path d="M123.5 29.2a2.2 2.2 0 00-1.4-.2m-5.6 0c-.4.8-.2 1.2-.1 1.6m-4-5.6c.2.2.4-.2.8.2-.1-.1-.3.3-.6 0m2-.1c-.3 0-.5-.3-.9.1.1-.1.3.3.6 0m-.6 0v.3c.1.7.3 1-.3 1-.5 0-.3-.3-.2-1v-.3" transform="matrix(.1018 0 0 .09295 -2.2 .2)" fill="none" stroke-width=".1" stroke="#000"/><path d="M113.5 27.7c.4 0 .6 0 .6-.6 0-.2.3-.3.1-.7.2.4-.7.4-.7.2 0 .2-1 .2-.8-.2-.1.4.2.5.1.7 0 .6.2.6.7.6zm0 0" transform="matrix(.1018 0 0 .09295 -2.2 .2)" fill="#ff0016" stroke-width=".1" stroke="#000"/><path d="M113 26.5l-1-.3m1 .3h-1m1 .1l-1 .3m1.8-.4l1-.3m-1 .3h1.2m-1.2.1l1 .3" transform="matrix(.1018 0 0 .09295 -2.2 .2)" stroke-width=".1" stroke="#000"/><path d="M8.8 2.3h-.1.1zm0 .1h-.1zm0 .1h-.1zm0 .4h-.1s.1 0 0 0zm0 0s-.1 0 0 .1zm0 .1zm1.2.1zm.1 0v.1zm0 0c0-.1-.1 0-.1 0zm.8 0v.1zm0 0s-.1 0 0 0zm0 0v.1zm-1.5-.4v0zm0 0" fill="#0051ba"/><path d="M130.7 32.2c-.4 0-.4.5-.5.5.8 0 1.2-.3 1.4-.7v.6c.6-.2.8-.7.6-1l.7.2c-.4-.3-.1-1-.8-1.4.2 0 .6.2.8.5-.1-.7-.2-1.1-.8-1.5h.5a1 1 0 01-.4-.8c0-.4-.2-.4-.6-.3h-1.8c-1 0-2 0-2.8-.5 1.3.6 3-.6 3-1.5 0-1-1.4-2-4-1.4-2.6.6-5.8.4-5.8-.5 0-1 2.3-1 3.5-.8 1.2.2 2 .3 4.2-.5-.5.2-2.3.3-3.7 0-1.4-.5-4.8-.5-4.8 1.3 0 1.9 3.6 1.7 6.8 1.2 1.8-.2 2.8 0 2.8.5 0 .6-1.7.8-3 .7a10.3 10.3 0 00-4.1.3c-1.3.4-2.2 0-3.6.3-.7 0-2.4 0-3.2-1.4-.5.4-2 1-2.3 1.9-.3.6 0 1.3.4 2 .6.8-.3.7-1 .7-.8 0-2 0-2.6-.8-.6-.6-1.3-1-2-.7-.2.3 0 .6.3.5l.8.2a1.1 1.1 0 00-1 0c-.3.3 0 .7.3.6.2 0 .7-.2 1 0-.3 0-.7 0-.8.2 0 .2 0 .4.3.4.6 0 .7.4 1.3.3a1 1 0 00-.7.4c.6-.3 1.1.4 1.8.2-.2 0-.7.4-.7.6.4-.5 3.2.4 3.2-.7v.8c.2-.2 1.3-.3 1.7-1 0 .2 0 .5-.2.6.3 0 .8-.2 1.3-1 .2-.2.2-.4.2-.6.5 0 .8-.1 1.2-.4.4-.3.8.3 1.5-.2.6-.4 1.2 0 1.6-.2.3-.2.8 0 1.2-.2.4-.2 1 .1 1.6-.4 1 .4 2.3 1 5.2.5 1.6-.3 2.2.3 2.2 1 0 .6-.4.6-.6.6-1 0-1.3-.3-1.7-.2-.2 0-.4.5 0 .7-.3 0-.3.4-.1.5.2.1.5 0 .8 0-.4 0-.7.3-.5.6.1.2.4.3.7 0 .3-.4.8-.7 1.2-.7zm-18.6-8c-.8-.3-1-.3-1 .4 0 .3.4.7.6.9 0-.3 0-1 .4-1.2zm0 0" transform="matrix(.09162 0 0 .08366 -1 1.4)" fill="#f9dd16" stroke-width=".1" stroke="#000"/><path d="M114.8 24.3c.8-.4 1.1-.4.9.3 0 .3-.3.7-.5.9 0-.3 0-1-.4-1.2zm0 0" transform="matrix(.09162 0 0 .08366 -1 1.4)" fill="#f9dd16" stroke-width=".1" stroke="#000"/><path d="M113.5 23.8c1.6 0 1.8.8 1.7 1.7 0 1-.5.6-.8 2-.1.4-.5.5-1 .5-.3 0-.7 0-.9-.6-.3-1.3-.8-1-.8-2 0-.8.2-1.6 1.8-1.6zm0 0" transform="matrix(.09162 0 0 .08366 -1 1.4)" fill="#f9dd16" stroke-width=".1" stroke="#000"/><path d="M109.4 27.5c-.4-.2-.7 0-.9 0 .6.1.6.8 1.8 1-.3 0-.4.2-.7 0 .5.4 1 1 2.2 1 .7 0 .2.2-.2 0 .4.5 1.3.1 1.9 1 0-.7-1-1.7-.5-2.4-1.7 0-1.8-1-2.7-1.7-.8-.6-1-1.2-1.2-2.3 0-.5-.7-.8-1-.7-.3 0-.5.3-.2.5.2.2.6.2.6.7-.3-.4-.8-.5-1-.3-.1.2 0 .5.2.5.5 0 .2.6.7 1-.5-.5-.9-.6-1.2-.3-.1.2 0 .5.4.5.5 0 1 1.2 1.8 1.5zm13 4.6c-.2 0 0 .5-.5.5.8 0 1.3-.2 1.6-.5l-.2.5c.4-.3 1.5-.4 2-.3.5.1.6 0 .8-.4.2-.4 0-.6-.3-.8-.3-.3-.4-.7-.3-1.3-1.4-2-4-1-4-.2.9 1 1 1 1.8 1 .7.3 1.2.3.7.7-.2.2-1 0-1.5 0-1.3 0-2-.8-2.3-.3-.3.4 0 .6.6.6-.4 0-1 0-1 .4.3.7.9-.1 1.2 0-.2 0-.6.2-.6.4s.5.5 1 0c.3-.2.7-.3 1-.3zm0 0" transform="matrix(.09162 0 0 .08366 -1 1.4)" fill="#f9dd16" stroke-width=".1" stroke="#000"/><path d="M123.5 29.2a2.3 2.3 0 00-1.4-.2m-5.6 0c-.4.8-.2 1.2-.1 1.6m-4-5.6c.2.2.4-.2.8.2-.1 0-.3.3-.6 0m2 0c-.3 0-.5-.4-.9 0 0 0 .3.3.6 0m-.6 0v.3c0 .7.3 1-.3 1-.5 0-.3-.3-.2-1v-.3" transform="matrix(.09162 0 0 .08366 -1 1.4)" fill="none" stroke-width=".1" stroke="#000"/><path d="M113.5 27.7c.4 0 .6 0 .6-.6 0-.2.3-.3.1-.7.2.4-.7.4-.7.2 0 .2-1 .2-.8-.2-.1.4.2.5.1.7 0 .6.2.6.7.6zm0 0" transform="matrix(.09162 0 0 .08366 -1 1.4)" fill="#ff0016" stroke-width=".1" stroke="#000"/><path d="M113 26.5l-1-.3m1 .3h-1m1 .1l-.9.3m1.7-.4l1-.3m-1 .3h1.2m-1.2.1l1 .3" transform="matrix(.09162 0 0 .08366 -1 1.4)" stroke-width=".1" stroke="#000"/><path d="M8.9 3.4h-.1s.1 0 0 0zm0 0h-.1s0 .1 0 0zm0 .2h-.1zm0 .3h-.1zm0 0s-.1 0 0 .1zm0 0v.2V4zm1.1.2s-.1 0 0 0zm0 0v.1zm0 0c0-.1 0 0 0 0zm.8 0s-.1 0 0 0zm0 0h-.1zm0 0v.1zm-1.4-.4v.1zm0 0" fill="#0051ba"/><path d="M130.7 32.2c-.4 0-.4.5-.5.5.8 0 1.2-.3 1.4-.7v.6c.6-.2.8-.7.6-1l.7.2c-.4-.3-.1-1-.8-1.4.2 0 .6.2.8.5-.1-.7-.2-1.1-.8-1.5h.5c-.3-.2-.4-.5-.4-.8 0-.4-.2-.4-.6-.3h-1.8c-1 0-2 0-2.8-.5 1.3.6 3-.6 3-1.5 0-1-1.4-2-4-1.4-2.6.6-5.8.4-5.8-.5s2.3-1 3.5-.8c1.2.2 2 .3 4.2-.5-.5.2-2.3.3-3.7 0-1.4-.5-4.8-.5-4.8 1.3 0 2 3.6 1.7 6.8 1.2 1.8-.2 2.8 0 2.8.5 0 .6-1.7.8-3 .7a9.3 9.3 0 00-4.1.3c-1.3.4-2.2 0-3.6.3-.7 0-2.4 0-3.2-1.4-.5.4-2 1.1-2.3 1.9-.3.6 0 1.3.4 2 .6.8-.3.7-1 .7-.8 0-2 0-2.6-.8-.6-.6-1.3-1-1.9-.7-.3.3 0 .6.2.5l.8.2c-.3-.1-.7-.1-1 .1-.3.2 0 .6.3.5.2-.1.7-.2 1 0-.3 0-.7 0-.8.2-.1.2 0 .4.3.4.6 0 .7.4 1.3.3a1 1 0 00-.7.4c.6-.3 1.1.4 1.8.2-.2 0-.7.4-.7.6.4-.5 3.2.4 3.2-.7v.8c.2-.2 1.3-.3 1.7-1 0 .2 0 .5-.2.6.3 0 .8-.2 1.3-.9.2-.3.2-.5.2-.7.5 0 .8 0 1.2-.4.4-.3.8.3 1.5-.2.6-.4 1.2 0 1.6-.2.3-.2.8 0 1.2-.2.4-.2 1 0 1.6-.4 1 .4 2.3 1 5.2.5 1.6-.3 2.2.3 2.2 1 0 .6-.4.6-.6.6-1 .1-1.3-.3-1.7-.2-.2 0-.4.5 0 .7-.3.1-.3.4-.1.5.2.1.5 0 .8-.1-.4.1-.7.4-.5.7 0 .2.4.3.7 0 .3-.4.8-.7 1.2-.7zm-18.6-8c-.8-.3-1-.3-1 .4 0 .3.4.7.6.9 0-.3.1-1 .4-1.2zm0 0" transform="matrix(.0682 0 0 .06971 1.8 2.7)" fill="#f9dd16" stroke-width=".1" stroke="#000"/><path d="M114.8 24.3c.8-.4 1-.4 1 .3 0 .3-.4.7-.6.9 0-.3 0-1-.4-1.2zm0 0" transform="matrix(.0682 0 0 .06971 1.8 2.7)" fill="#f9dd16" stroke-width=".1" stroke="#000"/><path d="M113.5 23.8c1.6 0 1.8.8 1.7 1.7 0 1-.5.6-.8 2-.1.4-.5.5-1 .5-.3 0-.7 0-.9-.6-.3-1.3-.8-1-.8-2 0-.8.2-1.6 1.8-1.6zm0 0" transform="matrix(.0682 0 0 .06971 1.8 2.7)" fill="#f9dd16" stroke-width=".1" stroke="#000"/><path d="M109.4 27.5c-.4-.2-.7 0-.9 0 .6.1.6.8 1.8 1-.3 0-.4.2-.7 0 .5.4 1 .9 2.2.9.7 0 .2.3-.2.1.4.5 1.3.1 1.9 1 0-.7-1-1.7-.5-2.4-1.7-.1-1.8-1-2.7-1.7-.8-.6-.9-1.2-1.2-2.3 0-.5-.7-.8-1-.7-.3 0-.5.3-.2.5.2.2.6.2.6.7-.3-.4-.8-.5-1-.3 0 .2 0 .5.2.5.5 0 .2.6.7 1-.5-.5-.9-.6-1.2-.3 0 .2 0 .5.4.5.5 0 1 1.2 1.8 1.5zm13 4.6c-.2 0-.1.5-.5.5.8 0 1.3-.2 1.6-.5l-.2.5c.4-.3 1.5-.4 2-.3.5.1.6-.1.8-.4.2-.4 0-.6-.3-.8-.3-.3-.4-.7-.3-1.3-1.4-2-4-1-4-.2 1 1 1 1 1.8 1 .7.3 1.2.3.7.7-.2.2-1 0-1.5.1-1.3 0-2-.9-2.3-.4-.3.4 0 .6.6.6-.4 0-1 0-.9.4.2.7.8 0 1 0 0 0-.5.2-.5.4s.5.5 1 0c.3-.2.6-.3 1-.3zm0 0" transform="matrix(.0682 0 0 .06971 1.8 2.7)" fill="#f9dd16" stroke-width=".1" stroke="#000"/><path d="M123.5 29.2c-.4-.2-1-.3-1.4-.2m-5.6 0c-.4.8-.2 1.2-.1 1.6m-4-5.6c.2.2.4-.2.8.2-.1-.1-.3.3-.6 0m2-.1c-.3 0-.5-.3-.9.1.1-.1.3.3.6 0m-.6 0v.3c.1.7.3 1-.3 1-.5 0-.3-.3-.2-1v-.3" transform="matrix(.0682 0 0 .06971 1.8 2.7)" fill="none" stroke-width=".1" stroke="#000"/><path d="M113.5 27.7c.4 0 .6 0 .6-.6 0-.2.3-.3.1-.7.2.4-.7.4-.7.2 0 .2-1 .2-.8-.2 0 .4.2.5 0 .7 0 .6.3.6.8.6zm0 0" transform="matrix(.0682 0 0 .06971 1.8 2.7)" fill="#ff0016" stroke-width=".1" stroke="#000"/><path d="M113 26.5l-1-.3m1 .3h-1m1 .1l-.9.3m1.7-.4l1-.3m-1 .3h1.2m-1.2.1l1 .3" transform="matrix(.0682 0 0 .06971 1.8 2.7)" stroke-width=".1" stroke="#000"/><path d="M9.2 4.3H9zm0 .1H9zm0 0l-.1.1zm0 .3H9zm0 0L9 5zm0 .1V5zm.8.1zm0 0V5zm0 0zm.6 0V5zm0 0s-.1 0 0 0zm0 0V5zm-1-.3v.1h-.1zm0 0" fill="#0051ba"/></svg>