<svg xmlns="http://www.w3.org/2000/svg" width="20" height="14"><path fill="#be0027" d="M0 0h20v14H0z"/><path d="M5.6 7.1c.4-.4 1.2 0 1.9-.3-.8 0-1.3-.4-1.9-.3.7-.4 1.2.1 2 0-1-.2-1-.6-1.9-.6.8-.3 1.2.3 2 .2-1-.2-1-.7-1.7-.8 1-.2 1 .4 1.9.4-1-.4-.8-.7-1.6-1 1 0 .9.6 1.8.7-.8-.4-.7-.9-1.3-1.2.7 0 .8.7 1.6 1-.7-.5-.5-1-1.1-1.5.8.2.6.9 1.4 1.3-.6-.7-.3-1.1-.8-1.6.7.2.4.8 1.2 1.4-.5-.7-.2-1.1-.6-1.7.7.3.3 1 1 1.6-.3-.7 0-1.1-.3-1.8.6.5.2 1.1.7 1.8-.2-1 .2-1 0-1.8.5.5 0 1 .4 1.8 0-.9.4-1.1.3-1.8.5.6-.2 1.2 0 1.8.2-.8.7-1 .7-1.6.4.5-.4 1-.2 1.7.2-.8.8-1 .9-1.5.2.7-.6 1-.6 1.7.3-.7 1-.8 1.2-1.4 0 .7-.7.9-.9 1.7.4-.7 1.1-.7 1.4-1.2 0 .7-.9.8-1.1 1.4.5-.5 1-.4 1.6-1 0 .7-1 .7-1.4 1.3.5-.4 1.3-.3 1.7-.7 0 .6-1 .5-1.5 1 .6-.3 1.4-.1 1.8-.4 0 .5-1.2.4-1.7.8.7-.2 1.3 0 1.9-.1-.3.4-1.3.1-1.9.4.7 0 1.4.3 2 .2-.3.4-1.4 0-2 .2.7 0 1.2.5 1.9.4-.4.4-1.4-.1-2 0 .8.1 1.3.6 1.8.7-.4.3-1.2-.4-1.9-.3.7.1 1.3.8 1.7.9-.5.2-1.3-.6-1.9-.6.7.3 1 1 1.5 1.1-.6.2-1.1-.8-1.7-.8.7.4.7 1 1.3 1.3-.6.1-1-1-1.6-1 .6.3.7 1.2 1 1.4-.5 0-.7-1-1.3-1.2.5.3.4 1.2.7 1.6-.6-.1-.5-1.1-1.1-1.5.4.6.2 1.3.5 1.7-.6-.2-.3-1-.9-1.6.3.6 0 1.2.2 1.8-.5-.3-.1-1.3-.5-1.7.1.6-.2 1.2 0 1.7-.6-.5 0-1.1-.4-1.7 0 .6-.4 1.1-.4 1.7-.4-.5.3-1.2 0-1.8 0 .7-.7 1.3-.6 1.7-.4-.6.4-1.2.2-1.8 0 .6-.7 1-.9 1.6-.2-.7.6-1.2.5-1.8-.2.6-.8.8-1 1.4-.2-.6.7-1 .7-1.6-.3.6-1 .7-1.3 1.2-.1-.6 1-.9 1-1.5-.3.6-1.2.6-1.5 1 0-.6 1.1-.7 1.3-1.3-.3.5-1.3.4-1.7.8.1-.6 1.3-.6 1.5-1.2-.4.5-1.3.3-1.8.6.3-.6 1.5-.4 1.7-.9-.5.3-1.4 0-1.8.3.4-.6 1.3-.2 1.8-.6-.8.1-1.3-.2-2 0zm0 0" fill-rule="evenodd" fill="#ff0"/><path d="M13 7c0 1.5-1.4 2.7-3 2.7S7.1 8.5 7.1 7c0-1.5 1.3-2.7 3-2.7 1.5 0 2.8 1.2 2.8 2.7zm0 0" fill-rule="evenodd" fill="#ff0"/><path d="M12.5 7c0 1.3-1 2.4-2.5 2.4-1.4 0-2.5-1-2.5-2.4 0-1.3 1.1-2.4 2.5-2.4s2.5 1.1 2.5 2.4zm0 0" fill-rule="evenodd" fill="#be0027"/><path d="M12.2 7c0 1.1-1 2-2.2 2-1.2 0-2.2-.9-2.2-2s1-2 2.2-2c1.2 0 2.2.9 2.2 2zm0 0" fill-rule="evenodd" fill="#ff0"/><path d="M8.2 5.7c.6 0 1.3 0 1.8.4a3 3 0 011.8-.4l.3.5a3.1 3.1 0 00-1.5.3c.7.4 1 1.2 1 2l-.2.2c0-.7-.3-1.6-1-2 .5.6.8 1.3.8 2.1l-.3.2c.1-.8-.1-1.7-.7-2.2.3.5.7 1.4.5 2.2l-.4.2A2.5 2.5 0 0010 7c-.4.5-.5 1.4-.3 2.1h-.3c-.2-.9 0-1.8.5-2.3C9.5 7 9 8 9.2 9h-.3c-.1-.8.2-1.7.7-2.3-.5.4-1 1.2-1 2l-.2-.1c0-.8.4-1.6 1-2-.5-.2-1-.3-1.5-.2l.3-.6zm0 0" fill-rule="evenodd" fill="#be0027"/></svg>