<svg xmlns="http://www.w3.org/2000/svg" width="20" height="14"><defs><clipPath id="a"><path d="M0 0h20v9H0zm0 0"/></clipPath><clipPath id="b"><path d="M0 8h20v6H0zm0 0"/></clipPath><clipPath id="c"><path d="M0 9h20v5H0zm0 0"/></clipPath><clipPath id="d"><path d="M0 7h20v3H0zm0 0"/></clipPath></defs><g clip-path="url(#a)"><path d="M-2.3 0h24.5v8.4H-2.3zm0 0" fill-rule="evenodd" fill="#e73e2d"/></g><path d="M204.3 282.1c-19.4-15.2-55.6-10-61.6-51.2 27.7 21.4 22.6-1.3 64 19.2zm0 0" transform="matrix(.0293 0 0 .02734 2.5 0)" fill-rule="evenodd" fill="#fec74a" stroke-width="1.7" stroke="#d8aa3f"/><path d="M209.5 263.4c-13.9-20.4-50-26.5-43-67.7 19.9 28.9 22 5.7 55.2 37.9zm0 0" transform="matrix(.0293 0 0 .02734 2.5 0)" fill-rule="evenodd" fill="#fec74a" stroke-width="1.7" stroke="#d8aa3f"/><path d="M215.7 250c-4.9-24.1-36-43.6-13.7-79 7.2 34.4 18 13.9 36.4 56.1zm0 0" transform="matrix(.0293 0 0 .02734 2.5 0)" fill-rule="evenodd" fill="#fec74a" stroke-width="1.7" stroke="#d8aa3f"/><path d="M230.3 237.6c2.8-24.5-20.8-52.6 11-79.5-3.4 35 13.1 18.8 17.6 64.8zm0 0" transform="matrix(.0293 0 0 .02734 2.5 0)" fill-rule="evenodd" fill="#fec74a" stroke-width="1.7" stroke="#d8aa3f"/><path d="M243.3 227.7c12.4-21.3 2.6-56.6 42.6-67.8-17.6 30.2 4.2 22.2-10.4 66zm0 0" transform="matrix(.0293 0 0 .02734 2.5 0)" fill-rule="evenodd" fill="#fec74a" stroke-width="1.7" stroke="#d8aa3f"/><path d="M262 230.3c18.5-16.2 20.4-52.9 62-50.9-26.3 23.2-3 22.5-31 59.5zm0 0" transform="matrix(.0293 0 0 .02734 2.5 0)" fill-rule="evenodd" fill="#fec74a" stroke-width="1.7" stroke="#d8aa3f"/><path d="M278.7 239.9c22.4-10 34.8-44.5 74-30.5-32 14.5-9.5 20.7-47 47.7zm0 0" transform="matrix(.0293 0 0 .02734 2.5 0)" fill-rule="evenodd" fill="#fec74a" stroke-width="1.7" stroke="#d8aa3f"/><path d="M292.5 255c24.4-3.4 46-33 79.8-8.4-34.8 4.8-15.1 17.1-58.6 32.5L292.5 255zm0 0" transform="matrix(.0293 0 0 .02734 2.5 0)" fill-rule="evenodd" fill="#fec74a" stroke-width="1.7" stroke="#d8aa3f"/><path d="M379.5 259.6l-112 2.5 4.6 30.2zm0 0" transform="matrix(.0293 0 0 .02734 2.5 0)" fill-rule="evenodd" fill="#fec74a" stroke-width="1.7" stroke="#d8aa3f"/><path d="M363 218.4l-103.8 39.9 17.3 33.3zm0 0" transform="matrix(.0293 0 0 .02734 2.5 0)" fill-rule="evenodd" fill="#fec74a" stroke-width="1.7" stroke="#d8aa3f"/><path d="M280.5 280.7l53.8-97.6-82.4 76.8zm0 0" transform="matrix(.0293 0 0 .02734 2.5 0)" fill-rule="evenodd" fill="#fec74a" stroke-width="1.7" stroke="#d8aa3f"/><path d="M279.5 272.6L296.7 163l-53.8 97.3zm0 0" transform="matrix(.0293 0 0 .02734 2.5 0)" fill-rule="evenodd" fill="#fec74a" stroke-width="1.7" stroke="#d8aa3f"/><path d="M273 263.7l-18-110.3-20 110.7zm0 0" transform="matrix(.0293 0 0 .02734 2.5 0)" fill-rule="evenodd" fill="#fec74a" stroke-width="1.7" stroke="#d8aa3f"/><path d="M263.7 254.3l-52.2-92 20 111.8zm0 0" transform="matrix(.0293 0 0 .02734 2.5 0)" fill-rule="evenodd" fill="#fec74a" stroke-width="1.7" stroke="#d8aa3f"/><path d="M255.6 253.6l-81-68.5 57.5 98zm0 0" transform="matrix(.0293 0 0 .02734 2.5 0)" fill-rule="evenodd" fill="#fec74a" stroke-width="1.7" stroke="#d8aa3f"/><path d="M146 218.9l87 72 13.4-37.8zm0 0" transform="matrix(.0293 0 0 .02734 2.5 0)" fill-rule="evenodd" fill="#fec74a" stroke-width="1.7" stroke="#d8aa3f"/><path d="M232.1 260.9L130 259.4l101.8 34zm0 0" transform="matrix(.0293 0 0 .02734 2.5 0)" fill-rule="evenodd" fill="#fec74a" stroke-width="1.7" stroke="#d8aa3f"/><path d="M315 279.1a61.4 61.4 0 01-29.8 55.3 61.1 61.1 0 01-62.8 0 61.3 61.3 0 0131.3-114.1c33 0 60 26 61.4 58.8zm0 0" transform="matrix(.0293 0 0 .02734 2.5 0)" fill-rule="evenodd" fill="#fec74a" stroke-width="1.7" stroke="#d8aa3f"/><g clip-path="url(#b)"><path d="M-2.3 8.3h24.6V14H-2.3zm0 0" fill-rule="evenodd" fill="#005989"/></g><g clip-path="url(#c)"><path d="M-2.3 12.4c.4.2 1 .7 1.8.7 1.2 0 1.2-.7 2.4-.7s1 .8 2.6.8c1.3 0 1.7-1 2.9-.8.8 0 1.2.9 2.5.9s1.8-1 2.7-1c.9 0 1.2.9 2.4.9 1.7 0 2-.9 3-.8.7 0 1.2.6 2.3.6.8 0 1.5-.6 2-.8v-1c-.5.2-1.2.8-2 .8-1 0-1.7-.7-2.4-.7-1 0-1.3.9-2.8.9-1.4 0-1.7-.9-2.6-.9-.8 0-1.1 1-2.6 1-1.2 0-1.7-1-2.6-1-1 0-1.9 1-2.9.9-1.4 0-1.7-.8-2.6-.8-.7 0-1.5.7-2.3.7-.8 0-1.7-.7-1.8-.7zm0-2c.4.2 1 .7 1.8.7 1.2 0 1.2-.7 2.4-.7s1 .8 2.6.8c1.3 0 1.7-1 2.9-.8.8 0 1.2.9 2.5.9s1.8-1 2.7-1c.9 0 1.2.9 2.4.9 1.7 0 2-.9 3-.8.7 0 1.2.6 2.3.6.8 0 1.5-.5 2-.8v-1c-.5.2-1.2.8-2 .8-1 0-1.7-.7-2.4-.7-1 0-1.3.9-2.8.9-1.4 0-1.7-.9-2.6-.9-.8 0-1.1 1-2.6 1-1.2 0-1.7-1-2.6-1-1 0-1.9 1-2.9.9-1.4 0-1.7-.8-2.6-.8-.7 0-1.5.7-2.3.7-.8 0-1.7-.7-1.8-.7v1zm0 0" fill-rule="evenodd" fill="#fff"/></g><g clip-path="url(#d)"><path d="M-2.3 8.4c.4.2 1 .7 1.8.7 1.2 0 1.2-.7 2.4-.7s1 .8 2.6.8c1.3 0 1.7-1 2.9-.8.8 0 1.2.9 2.5.9s1.8-1 2.7-1c.9 0 1.2 1 2.4 1 1.6 0 2-1 3-.9.6 0 1.2.6 2.3.7.8 0 1.5-.6 2-.8v-1c-.5.1-1.2.7-2 .7-1 0-1.7-.6-2.4-.6-1 0-1.3.8-2.8.8-1.4 0-1.7-.8-2.6-.8-.9 0-1.1.9-2.6.9-1.3 0-1.7-1-2.6-.9-1 0-1.9.8-2.9.8-1.4 0-1.7-.8-2.6-.8-.7 0-1.5.7-2.3.7-.8 0-1.7-.7-1.8-.7v1zm0 0" fill-rule="evenodd" fill="#fff"/></g><path d="M136.8 76c61-4.1 50-9.4 74.5-13.4 31 4.3 34.6 23 51.8 34.5 0 0-6.6 22-27.6 18.9-3-8.9 10.1-11.6-27.6-34.6-22-1.3-61.2 3.9-71-5.4zm189.3 33.9l-44 1.8v10.9c29.6 1 35-3 44-12.7zm0 0" transform="matrix(.0293 0 0 .02734 2.5 0)" fill-rule="evenodd" fill="#ffc84b" stroke-width="1.8" stroke="#d8aa3f"/><path d="M174.8 108c7.7-3.9 11.5-2.3 18.3-2.6 4.4 8.5 8.8 9.2 18.6 10a49.2 49.2 0 0040 21.9c29.9-.7 39.4-21.7 59.5-24h21.2c-3.5-6-6.3-9.4-14-9.9a208 208 0 00-54 3.6l-25 6.3c-7.5-3.6-25.4-22.4-36.9-22-6.6 1.8-6.6 4.1-10 6.7-6.5 2.9-13 1.4-17.7 10zm0 0" transform="matrix(.0293 0 0 .02734 2.5 0)" fill-rule="evenodd" fill="#ffc84b" stroke-width="1.7" stroke-linejoin="round" stroke="#d8aa3f"/><path d="M205 99a3.2 3.2 0 01-1.3 3.3 3.3 3.3 0 01-3.6 0c-1-.7-1.6-2-1.3-3.3.3-1.6 1.6-2.6 3.2-2.6a3 3 0 013 2.6zm0 0" transform="matrix(.0293 0 0 .02734 2.5 0)" fill-rule="evenodd" fill="#ffc84b" stroke-width="1.7" stroke="#d8aa3f"/><path d="M225.6 107.9c45-54.2 84.1-47.6 135.3-51.3 1.6 6.3 1 15.7-23.3 24-33.3 5-93 40.3-93.3 40.3-11.2-.8-19-12.3-18.7-13zm0 0" transform="matrix(.0293 0 0 .02734 2.5 0)" fill-rule="evenodd" fill="#ffc84b" stroke-width="1.8" stroke="#d8aa3f"/><path d="M317.9 72.6l33 1.4m-36.6 4l24.1 2" transform="matrix(.0293 0 0 .02734 2.5 0)" fill="none" stroke-width="1.8" stroke-linecap="round" stroke="#d9a43e"/></svg>