<svg xmlns="http://www.w3.org/2000/svg" width="20" height="14"><g fill-rule="evenodd"><path d="M0 0h22.5v3.5H0zm0 0" fill="#ff0"/><path d="M0 3.5h22.5V7H0zm0 0" fill="#fff"/><path d="M0 7h22.5v3.5H0zm0 0" fill="#be0027"/><path d="M0 10.5h22.5V14H0zm0 0" fill="#3b5aa3"/><path d="M0 0v14l11.2-7zm0 0" fill="#239e46"/><path d="M4.6 3.9C2.1 3.8 1 5.6 1 7c0 1.7 1.7 3.1 3.3 3a3.3 3.3 0 01-2-3c0-1.4 1-2.6 2.3-3.1zm0 0" fill="#fff"/><path d="M4.6 5.4L4.2 5l-.4.2.1-.4-.2-.4H4l.3-.3.1.4.4.1-.3.3zm0 1.4l-.4-.2h-.4l.1-.3-.2-.3H4l.3-.4.1.4.4.2-.3.2zm0 1.4L4.2 8l-.4.1.1-.4-.2-.3H4l.3-.3.1.4.4.1-.3.2zm0 1.5l-.4-.3-.4.2.1-.4-.2-.4H4l.3-.3.1.4.4.2-.3.2zm0 0" fill="#fff"/></g></svg>