<svg xmlns="http://www.w3.org/2000/svg" width="20" height="14"><path fill="#006" d="M0 0h20v14H0z"/><path d="M0 0h12.5v5.8H0zm0 0" fill-rule="evenodd" fill="#006"/><path d="M0 0v.8L10.4 7h1.4v-.8L1.3 0zm11.8 0v.8L1.3 7H0v-.8L10.4 0zm0 0" fill="#fff"/><path d="M4.9 0v7h2V0zM0 2.4v2.3h11.8V2.4zm0 0" fill="#fff"/><path d="M0 2.8v1.4h11.8V2.8zM5.3 0v7h1.2V0zM0 7l4-2.3h.8l-4 2.4zm0-7l4 2.4H3L0 .5zm7 2.4L10.9 0h.9l-4 2.4zM11.8 7l-4-2.4h1l3 1.8zm0 0" fill="#c00"/><path d="M14 5.2s0 .1-.1 0c-.1 0-.3-.2-.4-.1h-.3l-.3.2v.3h.2l.5.2s-.2.1-.1.2l.1.3-.2.3v.1h-.8v3.5s-.2 0-.3 0l-.8.6c0 .2-.1.3 0 .4l.2.3c-.2 0-.3-.3-.5-.4-.1-.1-.4-.1-.4 0a.7.7 0 000 .3l.2.7c0 .2.6.3.8.3l.6-.1s1 .8 2.7.8c1.4 0 2.5-.8 2.5-.8s.6.2.8.1c.2 0 .5-.1.6-.3l.2-.8-.1-.3h-.3l-.2.3-.2.2.1-.4c0-.1.1-.3 0-.4-.1 0-.3 0-.5-.2l-.4-.3a.5.5 0 01-.2 0v-.6-2.8h-.7v-.5c0-.1-.4-.2-.3-.3.1 0 .5 0 .4-.2 0-.2-.2-.1-.3-.2l-.4-.3.8-.5h-.6l.4-.4s-.4 0-.3-.1c0 0 .1-.2 0-.2h-.3L16 4h-.2l-.1-.1h-.4-.2l-.2-.2-.1.4a.6.6 0 00-.2 0l-.6-.3.2.3-.1.1v.1h-.4l.1.2h-.3l.1.3v.1l.4.3zm2.6 6.2l.3.3-.8.4-.9.2a9.9 9.9 0 00.9-.5c.2 0 .4-.2.5-.4zm-3.3 0l-.1.3.7.4.9.1-1-.4-.5-.4zm0 0" fill-rule="evenodd" fill="#fff"/><path d="M394.5-213l35.5 21.3c6.5 4.3 28 22.4 29.7 21.7 1.6-1.1 13-10.1 13-10.1S448.7-199 434-203c-15-4-39.5-8.3-39.5-10zm0 0" transform="matrix(.0096 0 0 .01082 10 7.1)" fill-rule="evenodd" fill="#fec500" stroke-width="1.4" stroke="#6d6666"/><path d="M390.5-231.7c2.4 0 47.6 22.7 61.9 34.2 13.8 12 19.5 26.4 21.1 26.4 1.7 0 23.2-3.3 22.4-3.3-.8 0-10.2-29.6-30.5-38.6-20.8-9-74.1-18.7-75-18.7zm0 0" transform="matrix(.0096 0 0 .01082 10 7.1)" fill-rule="evenodd" fill="#fec500" stroke-width="1.4" stroke="#6d6666"/><path d="M603.4-295.9c-.8 0-9 24.6-11.4 31.8-2.4 7.6-6.5 23-6.5 23s-36.2 3.3-34.6-.6c1.6-4.4 55-54.2 52.5-54.2zm0 0" transform="matrix(.0096 0 0 .01082 10 7.2)" fill-rule="evenodd" fill="#fec500" stroke-width="1.4" stroke="#6d6666"/><path d="M398.6-261.3s42.8 28.5 57.8 45c14.7 16.7 29.3 45.2 30.2 45.2 1.2 0 40.3-8.3 40.3-7.2 0 .7-46-46.2-68-60-22.4-14-59.5-21.6-60.3-23zm0 0" transform="matrix(.0096 0 0 .01082 10 7.1)" fill-rule="evenodd" fill="#fec500" stroke-width="1.4" stroke="#6d6666"/><path d="M443-273.9s21.6 32.9 25.6 44.4c5.3 13.7 10.6 27.5 16.3 41.2h33.8s-16.3-37.2-34.6-55.2c-17.9-17.7-40.3-28.6-41.1-30.4zm0 0" transform="matrix(.0096 0 0 .01082 10 7.2)" fill-rule="evenodd" fill="#fec500" stroke-width="1.4" stroke="#6d6666"/><path d="M454.8-292c.8 2.6 31 31.1 38.7 50.3 4.9 14 9.4 28.1 13 42.5l29.7-7.2s-26.4-48.3-42.7-61.7c-16.7-13-37-22.4-38.7-23.8zm0 0" transform="matrix(.0096 0 0 .01082 10 7.2)" fill-rule="evenodd" fill="#fec500" stroke-width="1.4" stroke="#6d6666"/><path d="M700.3-209.7s-61.5 6.5-83.9 12.2c-22 5.8-34.2 27.5-34.2 27.5s28.5 10.4 30.2 8.6c1.6-1.4 19.1-18.7 37.8-25.2 19.2-6.5 52.2-22.4 50.1-23.1zm0 0" transform="matrix(.0096 0 0 .01082 10 7.1)" fill-rule="evenodd" fill="#fec500" stroke-width="1.4" stroke="#6d6666"/><path d="M697.9-250.2c-1.6 1.1-51 41.2-66.4 54.5-15.9 13-30.5 27.1-32.2 27.8-1.6 1.1-32.1-4-30.5-5.7 1.6-1.5 45.2-36.9 74.1-52.4 29-15.9 52.5-22.3 55-24.2zm0 0" transform="matrix(.0096 0 0 .01082 10 7.1)" fill-rule="evenodd" fill="#fec500" stroke-width="1.4" stroke="#6d6666"/><path d="M685.7-278.7c-5 5.8-53.4 45.1-66.4 59.2-13.4 14.1-34.6 38.6-34.6 38.6s-25.7-11.5-24-16.6c1.6-5 36.2-33.5 61-50.1 24.5-16.6 66.4-29.6 64-31.4zm0 0" transform="matrix(.0096 0 0 .01082 10 7.1)" fill-rule="evenodd" fill="#fec500" stroke-width="1.4" stroke="#6d6666"/><path d="M636.4-282a703.2 703.2 0 00-35.4 39.4c-5.7 8.3-22.8 44.4-22.8 44.4s-25.7-22.4-25.7-23c0-.8 32.2-34.4 51-47.7 19-13.4 33.7-10.8 32.9-13zm0 0" transform="matrix(.0096 0 0 .01082 10 7.1)" fill-rule="evenodd" fill="#fec500" stroke-width="1.4" stroke="#6d6666"/><path d="M565.1-241.7c.5 4-1.6 7.9-4.8 10a10.8 10.8 0 01-11.4 0 10 10 0 01-4.5-10c.4-5.5 4.9-9.4 10.2-9.4 5.3 0 10.1 4 10.5 9.4zm20.8 14c0 5-4.5 9-10.2 9-5.7 0-10.6-4-10.6-9 0-5.4 4.5-9.3 10.2-9.3 5.7 0 10.6 4 10.6 9.3zM539.5-238c0 5-5.7 9-12.6 9-7.4 0-13-4-13-9 0-5.4 5.6-9.4 13-9.4 6.9 0 12.6 4 12.6 9.4zm0 0" transform="matrix(.0096 0 0 .01082 10 7.2)" fill-rule="evenodd" fill="#fec500" stroke-width="1.5" stroke="#6d6666"/><path d="M573.3-219c0 9.7-6.5 18-14.7 18-7.7 0-14.2-8.3-14.2-18s6.5-18 14.2-18c8.2 0 14.7 7.9 14.7 18zm-39.5.4c0 7.9-6.5 14-14.7 14-7.7 0-14.6-6.1-14.6-14 0-7.6 6.5-13.8 14.6-13.8 8.2 0 14.7 6.2 14.7 13.8zm0 0" transform="matrix(.0096 0 0 .01082 10 7.2)" fill-rule="evenodd" fill="#fec500" stroke-width="1.5" stroke="#6d6666"/><path d="M513.8-207.5c0 6.9-4.8 12.3-11 12.3-6 0-11-5.4-11-12.3 0-6.8 5-12.2 11-12.2 6.2 0 11 5.4 11 12.2zm81.5-1c0 7.9-7.4 14.4-16.7 14.4-9.4 0-17.1-6.5-17.1-14.4 0-8 7.7-14.8 17-14.8 9.4 0 16.8 6.5 16.8 14.8zm-40.7-21c0 4.7-6.1 8.7-13.5 8.7-6.9 0-13-4-13-8.7 0-5 5.7-8.6 13-8.6 7.8 0 13.5 4 13.5 8.6zm0 0" transform="matrix(.0096 0 0 .01082 10 7.2)" fill-rule="evenodd" fill="#fec500" stroke-width="1.5" stroke="#6d6666"/><path d="M557-210.3c0 6.8-8.5 12.6-18.7 12.6s-18.3-5.4-18.3-12.6c0-7.3 8-13 18.3-13 10.6 0 18.7 5.7 18.7 13zm47.6 22.7c0 8.7-7.7 15.5-17.5 15.5-9.3 0-17.5-6.8-17.5-15.5s7.8-15.9 17.5-15.9 17.5 7.2 17.5 15.9zm-95.2-4c0 5.4-4.5 10.1-9.8 10.1-5.7 0-10.2-4.7-10.2-10.4S494-202 499.6-202c5.3 0 9.8 4.3 9.8 10zm0 0" transform="matrix(.0096 0 0 .01082 10 7.2)" fill-rule="evenodd" fill="#fec500" stroke-width="1.5" stroke="#6d6666"/><path d="M579-193.4c0 7.2-6.5 13.4-15 13.4-8.2 0-15.1-6.2-15.1-13.4 0-7.6 6.9-13.7 15-13.7 8.6 0 15 6.1 15 13.4zm-47.6-.7c0 6.5-6.2 11.5-13.5 11.5s-13.4-5-13.4-11.5 6-11.6 13.4-11.6c7.3 0 13.5 5.1 13.5 11.6zm0 0" transform="matrix(.0096 0 0 .01082 10 7.2)" fill-rule="evenodd" fill="#fec500" stroke-width="1.5" stroke="#6d6666"/><path d="M554.6-190.5c0 6.9-6.1 12.6-13.9 12.6-7.7 0-13.8-5.7-13.8-12.6 0-7.2 6-13 13.8-13 7.8 0 13.9 5.8 13.9 13zm-60.3-76.9c3.3 0 27.7 8.3 27.7 8.3s-30.1 11.6-25.7 10.1c5-1 33.8-4.3 31.8-4.3-2.4 0-25.7 22-18.7 21 6.9-1.1 20.7-15.2 22-15.2 1.2 0 15 22 16.2 21 1.3-1.2 0-22.5 1.3-22.5 1.2 0 28.9 14.1 26.4 13a143.6 143.6 0 01-17-17.3c1.1 0 38.2 3.3 35.8 2.2l-24.5-11.6s16.3-15.1 13-15.1c-3.6 0-30.5 15.1-28 14 2.4-1 28.9-31.4 28.9-31.4L557-282.5s4.9-18.4 2.4-17.3c-2.4 1-21.1 24.1-22 24.1-1.2 0-6-23-6-23s1.2 25.6-5.7 26.6c-7 1.1-31.4 5.8-31.4 4.7zm0 0" transform="matrix(.0096 0 0 .01082 10 7.2)" fill-rule="evenodd" fill="#fec500" stroke-width="1.5" stroke="#6d6666"/><path d="M14 6.3s.1.5.4.5l.4-.1a.5.5 0 01-.2-.3 1.8 1.8 0 01-.1-.2zm.9-.2l.3.5.4.2h.2l-.2-.3V6zm1.2.2v.4l.3.2s.2 0 .2-.2v-.4H16zm0 0" fill-rule="evenodd" fill="#00389b"/><path d="M288.8 21s1.3 4.6 0 8.2c-.8 3.7-11 12.7-11 20.3 0 7.5 11.9 30.6 47.3 31.4 35.4.7 80.2-19.2 79.4-19.9-.4-.4-84.7-57-86-56.3A383 383 0 01288.9 21zm234.6 40s7.3 20.6 10.2 22.7c2.8 2.6 4 7.3 4.8 7.3.8 0 48.9 10 48.9 10s4.5-13-2.4-23.7c-7-10.5-33-37.6-33-37.6zm33-24.9c1.2 0 13 10.1 22 4.7 9.3-5 24.4-19.1 24.4-19.1s-12.7 4-22 3.6c-9.4-.7-23.6 11.5-24.4 10.8zm0 0" transform="matrix(.0096 0 0 .01082 11 5.5)" fill-rule="evenodd" fill="#005120" stroke-width="1.5" stroke="#000"/><path d="M287.2 23.5s-3.7-10.1-12.6-10.5c-9.4-.7-26.5 1-32.2-3.6-5.7-4.7-7.3-15.5-10.6-15.2-2.8.8-10.1 0-11 0-.4 0-3.2-9.3 5-14s15-.4 19.5-4a44 44 0 0121.1-6.5c9-.4 24.5 12 31.4 14.8 7 2.9 22 6.1 27.7 3.2 6.1-2.8 38.3-15.5 50-16.2 11.9-.4 35.9-1 45.3-.4 9.3.4 46 5 57 10.5 11 5 70 25.3 78.1 30 8.2 4.7 26.1 11.9 26.1 11.9s-32.2 31.4-47.6 36.4a343.6 343.6 0 01-95.7 11.6c-29.3-1.5-53-4.7-75.3-16.3-22.8-11.5-47.3-22.7-48.5-28.5-1.2-5.8-.4-13.3-.4-13.3zm0 0" transform="matrix(.0096 0 0 .01082 11 5.5)" fill-rule="evenodd" fill="#005120" stroke-width="1.5" stroke="#000"/><path d="M251.4-14.4c-1.2.3-7.3 2.9-6.1 4 1.2 1 3.6 4.6 10.6 4 6.9-.4 14.2-4.8 14.2-4.8s-8.5-4-18.7-3.2zm0 0" transform="matrix(.0096 0 0 .01082 11 5.5)" fill-rule="evenodd" fill="#005120" stroke-width="1.5" stroke="#000"/><path d="M250.6-13.3v6.5s8.1 2.1 8.1.7c0-1.8.4-6.2-1.2-6.2s-6.5-.3-7-1zm0 0" transform="matrix(.0096 0 0 .01082 11 5.5)" fill-rule="evenodd" stroke-width="1.5" stroke="#000"/><path d="M332-8.3c2-4 0-8.6 11.8-14.4 11.8-5.8 33-4.4 33-4.4s-6.1 4.7-6.5 9.4c0 4.7.4 6.9.4 6.9s-11-3.6-20-1.5c-8.5 2.2-18.7 4.4-18.7 4zm53.3-20.2c-1.2.4-10.1 10.5-9.3 13.7 1.2 2.9 13.4 10.5 17 9.8 4.1-.8 22-9 22.9-13.4 1.2-4.3 2-10.1.4-11.5-1.2-1.1-30.6 1.8-31 1.4zm39.5-1.8c-2.4 2.2-1.6 13.4-.8 14.4.8 1.5 15 15.6 18 16.3 3.2.7 26-1.5 28-4 1.7-2.5 7.4-13 5.7-15.2-1.6-2.5-6.5-5.7-22-9-15-3.2-24-3.2-28.9-2.5zm57.9 13.7c3.6 2.2 25.2 12.6 38.2 21 12.7 8.2 18 18 21.6 18.7 3.7.7 18.7-8 19.1-10.5.9-2.5-18.3-15.8-30.9-21.6-12.6-6.1-48-6.9-48-7.6zm-4.5 9c-1.7 1.5 23.2 45.1 27.7 46.2 4.8 1.8 33.4-8.3 33-11.5-.5-3.3-8.2-9.8-25.3-19.5-17.5-9.8-31.8-15.9-35.4-15.2zm-30.6 16c-4 2-10.1 41-6.5 42.9 4 1.8 52.1-4.7 54.2-9 1.6-4.7-20-39-26.5-39-6.1 0-17.9 1.8-21.6 4.7zm-50-8.4c-5 4.7-3.7 40.8-1.7 43 2 2.5 31 9.7 33.8 7.2 3.3-2.5 7.4-43.3 4.5-46.6-2.8-2.9-11-10.4-17.1-11.2-6.1-.3-16.7 6.2-19.5 7.6zm-64.4-.7c-4.9 4-4.9 13.3 0 15.2 5.3 1.4 18 7.2 30.2 12.2 11.8 5 18.7 11.2 22 11.2 3.6-.3 6.9-36.4 3.2-38.6-8.1-2.5-16.7-4-24.8-3.3-10.2 0-20.4 1.1-30.6 3.3zm0 0" transform="matrix(.0096 0 0 .01082 11 5.5)" fill-rule="evenodd" fill="#001707" stroke-width="1.5" stroke="#000007"/><path d="M12.1 10.5c.1-.1.2-.3.4-.3l.4.2.1.6-.3.2-.2-.2-.1.4-.5-.6.2-.3zm4.8-.1l.4-.2.4.2.2.2-.2.6h-.2l-.1-.2-.2.2-.3-.8zm0 0" fill-rule="evenodd" fill="#d40f0f"/><path d="M17 10.6s.3.8.9 1c.5 0 .7-.2.7-.3l.3-.1-.1.8c-.1 0-.2.3-.7.3-.5 0-1-.4-1.1-.6a2.5 2.5 0 01-.4-.6c-.1-.2.4-.5.4-.5zM11 12l.6.2c.4 0 1-.2 1.2-.5l.4-.7-.4-.7-.1.4c0 .1-.3.5-.6.6l-.5.2a2.1 2.1 0 01-.5-.2l-.1.4v.3zm0 0" fill-rule="evenodd" fill="#fddc59"/><path d="M12.1 10.5l-.6.4a4 4 0 003.4 2.1c2.3 0 3.7-1.7 3.5-2 0-.3-.8-.7-.8-.7l.2.3c0 .2-.8 1.8-2.8 1.8-2 0-3-1.5-3-1.6l.1-.3zm0 0" fill-rule="evenodd" fill="#fddc59"/><path d="M18.3 11.9s.4-1 .6-.9c.2 0 .1.3.1.4l-.2.6-.1-.2c-.1 0-.4.1-.4 0zm-7.2.2v-.3h.5l-.3-.5c-.2-.3-.2-.3-.4-.2v.3l.2.7zm0 0" fill-rule="evenodd" fill="#d40f0f"/><path d="M13.2 10.5l.2-.7-.6-.4h.8l.3-.7.2.7h.8l-.6.4.2.7-.6-.4zm0 0" fill-rule="evenodd" fill="#fdc400"/><path d="M17.4 6.9v2.7c0 1.3-1.5 2.4-2.4 2.6-1-.2-2.4-1.3-2.4-2.6V6.9zm0 0" fill-rule="evenodd" fill="#fff"/><path d="M177.1 326.1l.4 160.8s2.5-3.4 35-1.5c32.6 1.8 35.5 35.5 70.9 35.5 35.4 0 35.4-35.5 70.8-35.5 35.5 0 35.5 35.5 70.9 35.5 35.4 0 35.4-35.5 70.8-35.5 35.9 0 35.5 35.5 73 37.3 33.3-1.8 33.3-37.3 69.1-39.2l35 1.9V326zm0 0" transform="matrix(.0096 0 0 .01045 11 3.5)" fill-rule="evenodd" fill="#d40f0f" stroke-width="1.5" stroke="#000"/><path d="M12.6 9.1v.6h.3c.4 0 .4.3.7.3s.4-.3.7-.3c.3 0 .3.3.7.3.3 0 .3-.3.7-.3.3 0 .3.3.6.3.4 0 .4-.3.7-.3h.4V9H17c-.3 0-.3.4-.7.4-.3 0-.3-.4-.6-.4-.4 0-.4.4-.7.4s-.4-.4-.7-.4c-.3 0-.3.4-.7.4-.3 0-.3-.4-.7-.4zm.1 1.1l.2.6c.4 0 .4.3.7.3.4 0 .4-.3.7-.3.3 0 .3.3.7.3.3 0 .3-.3.7-.3.3 0 .3.3.6.3.4 0 .4-.3.7-.3l.3-.6H17c-.3 0-.3.4-.7.4-.3 0-.3-.4-.6-.4-.4 0-.4.4-.7.4s-.4-.4-.7-.4c-.3 0-.3.4-.7.4-.3 0-.3-.4-.7-.4zm2.3 2c.3 0 1.1-.5 1-.5.1 0 0-.4-.3-.4-.4 0-.4.4-.7.4s-.4-.4-.7-.4c-.3 0-.4.4-.4.4s.7.5 1 .5zm0 0" fill-rule="evenodd" fill="#0062bb"/><path d="M90.8 117.6c1 0 8.3 1.2 13.6.8 5.4-.4 7.4-2.5 7.4-2.9v-1.2h7s1.2 5.7.4 6.1c-.8.4-2.9 2-3.3 2-.4 0 0-2.8-.8-1.9-.8.9-1.2 2-1.2 2s-1-1.2-1.3-1.2c-.4 0-1.2 1.2-1.2 1.2s0-1.2-.4-1.2-2.5 2-2.5 2l-2-1.6s-1.3 2-1.7 2c-.4 0-3-1.6-3-1.6l-4 2.5s0-3.7-.8-3.3c-.8.4-5.3.4-5.3.4S90.4 124 90 124c-.4 0-2-2-1.6-2 .4 0 1.2-1.2.8-1.7-.4-.4-2.5 0-2.5-.4s-.8-2.8-.4-2.8l2 .4V115h2l.5 2.5zm0 0" transform="matrix(.0469 0 0 .03807 9 3.7)" fill-rule="evenodd" fill="#fdc400" stroke-width=".7" stroke="#000"/><path d="M98.3 94c-.5 0-3.3 3.4-3 7 .5 3.8 7.5 9 7.5 9s3.7-1.5 5 0c1 1.7 1 6.8.7 6.8-.4 0-5.3 1.2-5.3.4 0-.9 0-1.7-.4-1.7l-5 .4.4-1.6-4-.8 1.6-1.7s-6.6-3-6.2-3c.4 0 2.9-1.5 2.9-1.5l-5-3.3h3s-4.2-3.3-3.8-3.3l2.5.4-1.2-3.3h1.2L88 95.4l2-1 1.3 2.2-.5-5 3 .5v4s1.2-2.4 1.2-2.8c0-.4 3.7 1.7 3.2.8zm0 0" transform="matrix(.0469 0 0 .03807 9 3.7)" fill-rule="evenodd" fill="#fdc400" stroke-width=".7" stroke="#000"/><path d="M16.6 8.2a1.1 1.1 0 01-.1.1h.1zm.1.1v.1zm.2 0l.1.1zm-2-.1h.1zm.2 0v.2zm0 0l-.2-.1h.2zM13 8L13 8h.2zM13 8l-.2.1h.2zm.1.2H13h.2zm0-1v-.1zm.1-.1h0zm.2 0h0zm0 0" fill-rule="evenodd"/><path d="M137.3 110.9c0 .2 4.3 3.7 4.4 4.5 0 .8-7.8 1-7.8 1s-2.3-1.7-3-1.6c-.7 0-1 1.8-1 1.8l1.8 1-3.5.2 1 2 2.7-.2-.6 1.8s1.6 1.3 2 1c.3-.1 1.3-2 2-2.3 1-.3 2.7-.3 2.7-.3s-1.4 2.3-.7 2.3c.6 0 3.4-2.4 3.4-2.4l.7 2.2 2-2.5s0 2 .3 2 3.2-2.5 3.2-2.5 2.3 2.7 2.6 2.6c.3-.2.6-3 1-3s2.2-.3 2.2-.5-1.3-1-1.5-2.5c-.2-1.5.2-4.8 0-4.8s-13.7.5-14 .2zm0 0" transform="matrix(.0469 0 0 .03807 9 3.7)" fill-rule="evenodd" fill="#fdc400" stroke-width=".7" stroke="#000"/><path d="M115.4 104.6h40.3c4 0 7.8-1.6 7.8-4 0-2.6-6.6-3-9-2.1-2.5.8-13.2 5.7-17.7 5.3-4.5-.4-8.7-3.3-9-6.2-.5-3 2-5.3 6.5-5.3 4.6 0 10.3 1.6 11.5 1.2 1.2-.4 4-3.7 5.3-4 1.3-.5 5-.9 5-.9l-1.7 1.2 5.4-1.2s-4.1 4.5-8.3 5.7c-4 1.3-12.7.8-16 .8-3.3 0-5-.4-4.5 2.1a4.4 4.4 0 005 3.7c2-.4 8.1-2.5 8.1-2.5l-1.6-1.2 7.4-.4s-.4-1.2 0-1.2l4.1.4s-2.5-1.3-2-1.3 2 0 5.3.4 10.3 1.7 9.9 5c-.5 3.3-3 6-5.8 6s-5.3-.7-5.3.6c0 1.2 3.3 2 5.3 2s4.5-1.6 5-1.6 1.2 2.4 1.6 2.4c.4 0 2.9-.8 2.9-.8l-1.7 4.5 3 .8s-1.7 1.7-1.3 1.7c.4 0 2.8 0 2.8.4s-3.2 2.9-3.2 3.3c0 .4 2.4 1.6 2.4 1.6s-1.6 2.5-2 2l-2-2.4s-.5 1.7-1.3 1.7-2.5-.4-2.5-.4 1.2-2.5.8-2.5c-.4 0-2.4 1.6-2.4 1.2l-1.3-1.2s3.3-1.3 3.3-3.3c0-2-1.3-3.9-7.3-4.2-6-.3-6 1.4-10.5 1.2-4.4-.2-4.4-2-7.7-2s-13.4 4.2-18.2 4c-4.7 0-10.6-.3-10.4-.5.2-.2 3.9-9.7 4-10zm0 0" transform="matrix(.0469 0 0 .03807 9 3.7)" fill-rule="evenodd" fill="#fdc400" stroke-width=".7" stroke="#000"/><path d="M106.9 102.5c-.4.2-4 .7-4.2 4.5-.2 3.8.3 3.8.7 3.6.4-.2 1.2-3.5 1.2-3.5s-1.2 4.5.1 5.5c.8.7 1.8 1.2 2.8 1.5l.5-3.6s-1 3.5 1.5 4.7c2.4 1.2 3.4.3 3.1-.6l-.9-3.3 2 2.4c.2.2 1 1.8 3.6 1 2.4-.6.7-2.3.7-2.3l-3-2.4s3 3 4.4 2c1.4-1.1-1-3.6-1-3.5 0 .1 2 3.5 2.8 1.4.8-2-1.2-2.8-1.8-5-.6-1.9-1.1-2.1-.5-3.4.6-1.2.7-3.6.7-3.6s2.6.7 2.4-1.5c-.2-2.2-2.8-2.7-3.3-2.8-.5 0-.4-2.2-.6-2-.2 0-1.9 1.2-1.9 1.2s-1.4-3.4-1.7-3.2c-.3.2-2 2-3.2 2-1.2.2-2 2-2 2s-4.3-2-4.2 1.3c.1 3.4 2.6 2.5 2.6 2.6 0 0-.4 4.8-.8 5zm0 0" transform="matrix(.0469 0 0 .03807 9 3.7)" fill-rule="evenodd" fill="#fdc400" stroke-width=".7" stroke="#000"/><path d="M14 7.4h.2a.3.3 0 01-.1 0zm.5 0h-.1s-.1 0 0 0zm0 0" fill-rule="evenodd"/><path d="M111 103.2c0 .5.4 4.8.6 4.5l1.7-4.4zm0 0" transform="matrix(.0469 0 0 .03807 9 3.7)" fill-rule="evenodd" fill="#000039" stroke-width=".4" stroke="#000"/><path d="M110 103.2c0-1.4.8-1.2 2.4-1 1.7.2 2.5 1 2.4 1.3 0 .2-1.5.7-2.6.6-1.3-.4-2.3 0-2.2-1zm0 0" transform="matrix(.0469 0 0 .03807 9 3.7)" fill="none" stroke-width=".8" stroke="#000"/><path d="M112.4 100l-.2 2m7.1-7.2s1.4.7 1.2 1.3c-.2.6-1.2 1-1.2 1m-11.2-2.8c-.3 0-.7.3-1 1.2-.1.8 1 1.3 1 1.3" transform="matrix(.0469 0 0 .03807 9 3.7)" fill="none" stroke-width="1.5" stroke="#000"/><path d="M111.2 136.1s-1.5 1.5 1 1.5.7-1.3.7-1.3" transform="matrix(.0469 0 0 .03807 9 2.3)" fill="none" stroke-width="1.5" stroke="#000"/><path d="M14.4 11.8l.2-.6-.5-.4h.7l.2-.6.2.6h.7l-.5.4.2.6-.6-.4zm0 0" fill-rule="evenodd" fill="#fdc400"/><path d="M14.5 11.6l.2-.5-.5-.3h.6l.2-.5.2.5h.6l-.5.3.2.5-.5-.3zm0 0" fill-rule="evenodd" fill="#003017"/><path d="M13.3 10.5l.2-.5-.6-.4h.7L14 9l.2.6h.7l-.6.3.2.6-.5-.3zm0 0" fill-rule="evenodd" fill="#fdc400"/><path d="M13.4 10.4l.2-.5-.5-.3h.6l.2-.4.2.4h.5l-.4.3.1.5-.4-.3zm0 0" fill-rule="evenodd" fill="#003017"/><path d="M15.6 10.5l.2-.6-.5-.3h.7l.2-.6.2.6h.7l-.5.3.2.6-.6-.3zm0 0" fill-rule="evenodd" fill="#fdc400"/><path d="M15.7 10.4l.2-.5-.5-.3h.6l.2-.4.2.4h.6l-.5.3.2.5-.5-.3zm0 0" fill-rule="evenodd" fill="#003017"/><path d="M11.7 11l.3-.2v.1H12v.2l.2-.1-.3.2.1-.1V11h-.2m.1.3l.3-.2.1.2v-.1H12l.1.1h-.2v.1l-.1-.1m.2.3l.3-.2v.1h.1l-.2.3v-.2h-.1m.3.2l.1-.1h-.1m-.2.1l.3-.2h.1l-.2.4v-.1h-.1m.2.2l.2-.3h.2v.1h-.2l-.1.2h-.1m.2.1l.2-.3v.1h.1l-.1.3h-.1V12v.1h-.1m.3.2l.2-.3h.2v.1h-.2.1v.1h-.1l-.1.2m.3-.1v.1a.6.6 0 00.1-.2h-.1m0 0a.5.5 0 010-.1.1.1 0 01.2 0V12.6h-.1-.2v-.2m.4 0V12.6l.1-.3v.3a.3.3 0 01-.1 0h-.1v-.3m.2.4l.1-.4.1.3v-.2h.2l-.1.4H14v-.3l-.1.2m.3 0h.1a.6.6 0 000-.2v.2m-.2 0l.1-.3h.2a.1.1 0 010 .1v.1a.6.6 0 010 .1v.1h-.2m.2 0v-.4h.3v.1h-.2v.1h.1v.2h-.2m.4 0v-.2.2m-.1 0v-.3h.2V12.9h-.2m.4 0v-.3.4m.2 0v-.4h-.1.2v.4m.2-.5v.3h.1v-.3h.1v.3a.1.1 0 01-.1.1.2.2 0 010-.1l-.1-.3m.3.1h.1c0-.1 0-.1 0 0m0 .3l-.2-.4h.2c.1 0 .1.1 0 .1v.2m.2-.2v.1h.1a.5.5 0 000-.2h-.1m0 .1a.1.1 0 010-.2.1.1 0 01.1 0l.1.2a.1.1 0 010 .1h-.1a.2.2 0 01-.1 0v-.1m.3 0l-.2-.3h.1l.2.2v-.2l.1.3-.3-.2.2.3h-.1m.4-.2l-.1-.3h-.1l.2-.1.1.4m.1-.1L17 12h.2v-.1l.2.3-.1-.2-.1.1v.2m.3-.2l-.3-.3.2-.1v.1h.1v.2h.1l-.1.1m.2-.3h.1v-.1h-.1-.1a.1.1 0 010-.1.1.1 0 010-.1h0v.1h.1a.1.1 0 01.1 0v.1a.1.1 0 010 .1h-.1m.3-.1l-.3-.3v-.1h.1v.1h.1v.1h.1v.2m0-.4v-.1.1m.1.2l-.3-.3h.5v.1H18v.1m0-.2V11h.1a.2.2 0 01-.1 0 .1.1 0 01-.1 0 .1.1 0 010-.2h.1v.1h.2v.1c0 .1 0 0-.1 0"/></svg>