<svg xmlns="http://www.w3.org/2000/svg" width="20" height="14"><path d="M-1.3 10.5h22.6V14H-1.4zm0-10.5h22.6v3.5H-1.4zm0 0" fill-rule="evenodd" fill="red"/><path d="M-1.3 3.5h22.6v7H-1.4zm0 0" fill-rule="evenodd" fill="#fff"/><path d="M9.9 3.6c-.2.4-.4.4-.8.7-.1.1-.4.2 0 .3-.4.2-.5.2-.7.5h.4l-.4.3-.3.2c-.4.3-.7.2-.9.7l.8-.1c.1.5-.4.6-.8.8l-.6.3c.2.5.6.2 1 0V7.7L7 8l-.9.5a.9.9 0 000 .1h1c.4-.1.5-.3 1-.3a3 3 0 01-1.5.6v.3L7.6 9l1-.3c.2 0 .4.2.4.4-.3.8-1.2.7-1.5 1.3l1.2-.4c.3-.1.7-.3 1-.2.5.1.5.4 1.1.5l-.2-.3.5.1c.4.2.5.3 1 .2l-.8-.6c-.3-.4-.5-1 0-1.1l.5.1L13 9c.4.2.6.4 1.1.2-.2-.5-1-.8-1.6-1 .6-.3.5.2 1.3 0V8c-.6-.4-.8-.8-1.6-.8h1.2V7l-1.3-.4h1.2l-.7-.4-1.3-.8c0-.2.5 0 1 .1 0-.2-.4-.4-.7-.5h.5c-.3-.7-1-.6-1.5-.9l-.8-.5zm0 0" fill="#007900"/><path d="M224 303c1.9-6.1 4.4-11.6-7.2-16.9-11.6-5.2 5.9 21 7.2 17zm13.7-12.3c-2.2.3-3.6 8.7 1.1 11.2 5.2.8 1-11-1-11.2zm13.5-1c-2.4.9-2.5 12.9 6 10.6 8.7-2.2 0-11.4-6-10.4zm15.7-30.7c1.9-3 0-15-7.3-10-7.3 5.1 5 10.9 7.3 10zm-16-10c2.4-.9 2.6-8.3-4-6.3-6.2 1.9 2.4 7.9 4 6.3zm-14.4 2.9s-4.4-6.2-8-4.9c-4.2 4.1 8.4 5 8 4.9zM187 271.7c2 .2 16-2.3 21-7.8 4.9-5.5-25.1 2.2-25.1 2.4 0 .1 2.8 4.8 4.1 5.4zm141.2-35c.7-1.3-7.6-7.1-12.4-4.8-1.3 4.2 12.4 5.7 12.4 4.8zm-27.8-14c1.6-2.1-3.5-11.3-13.6-6.1-10.3 4.8 10.6 9.7 13.6 6.3zm-32-5.3s2.4-8.3 8.5-6.5c7 5.2-8.3 6.8-8.5 6.5zm-6.2-6.3c-.9-2.2-7.2-1-14.5 4-7.3 4.8 16.8 1.5 14.5-4zm18.8-22s6.6-3 8.4 0c2.8 4.3-8.5 0-8.4 0zm-5.4-3c-1.4-2.5-8.6-2.8-8.4 1-1.2 3 9.4 2.5 8.4-1zm-17.4 0c-.6-1.4-10.9 0-13.8 6.3 4.9 2.5 16.2-2.3 13.8-6.3zm-21.8 6.5s-13.5 8.3-14.4 14.3c.4 5.1 16.8-9.5 16.8-9.5s1.4-5.8-2.4-4.8zm-15-7.6c.4-1.7 6.7-5.6 7.2-5.3.6 1.7-5 6.3-7.2 5.3zm4.3 31.6c.3-2.5-16-2.3-9.9 5.3 5.2 6.2 11-4.2 9.9-5.3zm-15 10.7c-.7-1.6-2-6-4.2-6.4-1.9 0-11.7 2-12.5 3.5-.4 1.5 4.1 9.5 5.6 9.7 1.8.8 10.9-6 11.2-6.8zm88.3 55.3c.6-1.9 17.4-7.6 23.1-2 6.8 9.3-23.3 4.8-23 2zm46.2 10.8c3.6-6.3-11.4-13.5-17.6-6.5 2.1 8.5 14.5 11.7 17.6 6.5zm0 0" transform="matrix(.0293 0 0 .02734 2.5 0)" fill-rule="evenodd" fill="#fff" stroke-width="3.2" stroke-linecap="round" stroke-linejoin="round" stroke="#fff"/></svg>