<svg xmlns="http://www.w3.org/2000/svg" width="20" height="14"><path fill="#fff" d="M0 0h20v14H0z"/><path d="M0 0h6.8v6.4H0zm0 0" fill-rule="evenodd" fill="#006"/><path d="M0 12.7h22.5V14H0zm0 0" fill-rule="evenodd" fill="#c00"/><path d="M0 12.7h22.5V14H0zm0-2.5h22.5v1.2H0zm0-2.6h22.4V9H0zM6.8 0h15.7v1.3H6.8zm0 5h15.7v1.4H6.8zm0-2.4h15.7v1.2H6.8zm0 0" fill-rule="evenodd" fill="#c00"/><path d="M4.9 4.9L3.4 4 1.9 5l.6-1.4L1 2.6h1.8l.6-1.4.6 1.4h1.8l-1.5.9zm0 0" fill-rule="evenodd" fill="#fff"/></svg>