<svg xmlns="http://www.w3.org/2000/svg" width="20" height="14"><path fill="#c4272f" d="M0 0h20v14H0z"/><path d="M6.7 0h6.6v14H6.7zm0 0" fill="#015197"/><path d="M4.4 5.5c0 .6-.5 1-1 1-.7 0-1.2-.4-1.2-1 0-.5.5-1 1.1-1 .6 0 1.1.5 1.1 1zm0 0" fill="#f9cf02"/><path d="M4.5 5c0 .7-.5 1.2-1.2 1.2-.6 0-1.2-.5-1.2-1.1 0-.7.6-1.2 1.2-1.2.7 0 1.2.5 1.2 1.2zm0 0" fill="#c4272f"/><path d="M2.8 3.8c0 .3.3.5.5.5.3 0 .5-.2.5-.5v-.2c0-.1 0-.2-.2-.3.1.1 0 .1 0 .2v.3h-.2l.1-.4v-.3c-.1 0-.3-.2-.2-.3-.1 0 0 .3 0 .4l-.1.3v.3a.1.1 0 01-.2 0l.1-.3s-.1-.1 0-.2c-.2.1-.1.2-.1.3 0 0-.2 0-.2.2zm0 0" fill-rule="evenodd" fill="#f9cf02"/><path d="M4.1 5.2c0 .4-.3.8-.8.8-.4 0-.7-.4-.7-.8s.3-.7.7-.7c.5 0 .8.3.8.7zm-3 1.5v4.5h1V6.7zm3.4 0v4.5h1V6.7zm-2.1.8v.3h2v-.3zm0 2.6v.3h2v-.3zm0-3.4h2l-1 .6zm0 4h2l-1 .5zm0 0" fill="#f9cf02"/><path d="M140.8 306.8c0 18.6-15.2 33.6-33.8 33.6a33.7 33.7 0 1133.8-33.6zm0 0" transform="scale(.03125 .02917)" fill="#f9cf02" stroke-width="3.8" stroke="#c4272f"/><path d="M107 273a17 17 0 010 33.8 16.7 16.7 0 00-15.8 8 17 17 0 000 17.6c3.4 5.5 9.4 8.6 15.8 8" transform="scale(.03125 .02917)" fill="none" stroke-width="3.8" stroke="#c4272f"/><path d="M3.5 8.5l-.2.1-.2-.1.2-.2c.2 0 .2 0 .2.2zm0 1l-.2.1s-.2 0-.2-.2l.2-.2c.2 0 .2.1.2.2zm0 0" fill="#c4272f"/></svg>