<svg xmlns="http://www.w3.org/2000/svg" width="20" height="14"><path fill="#f41408" d="M0 0h20v14H0z"/><path d="M0 9.3h20V14H0zm0 0" fill-rule="evenodd" fill="#21873b"/><path d="M0 0h20v4.7H0zm0 0" fill-rule="evenodd"/><path d="M6.9 4.1c.7-1.4 2.6-2.1 4.3-1.5A3 3 0 0113 4zm-.8.2a11 11 0 01-1.7-.2s-.1-.1 0-.2h.1c.2 0 1 .1 1.6.4zM10 1.8C9.8 1.2 9.8.5 9.8.4l.2-.1.1.1-.1 1.4zm.3 0a6.8 6.8 0 010-1.4l.2-.1.1.1a6.8 6.8 0 01-.3 1.4zm.4 0V.4h.3a7.4 7.4 0 01-.3 1.4zm.3.1c0-.6.2-1.3.3-1.4h.2L11 2zm.3.1l.5-1.4h.2v.1a7.8 7.8 0 01-.7 1.3zm.4.1c.1-.6.4-1.2.5-1.3 0-.1.2-.1.2 0 0 0 .1 0 0 0 0 .2-.3.8-.7 1.3zm.3.1l.7-1.2c0-.1.1-.1.2 0a.1.1 0 010 .1c0 .1-.5.7-1 1.1zm.3.2l.8-1.2c0-.1.1 0 .2 0a.1.1 0 010 .1c0 .2-.5.7-1 1.1zm.2.2l1-1.2h.2a.1.1 0 010 .1c-.1.2-.6.7-1.2 1zm.3.2l1-1c.2-.2.2-.1.3-.1V2a8.8 8.8 0 01-1.3.9zm.2.2l1.2-1h.2v.2A9.8 9.8 0 0113 3zm.2.2l1.3-.9h.2v.2c-.2.1-.8.5-1.5.7zm.2.3a9.6 9.6 0 011.4-.8h.2v.2l-1.6.6zm.2.3A10.2 10.2 0 0115 3h.2v.2l-1.6.5zm.1.2l1.5-.6.2.1v.2l-1.7.3zm.1.3a10.7 10.7 0 011.6-.5l.2.1-.1.2-1.7.2zM9.6 1.8A6.7 6.7 0 019.3.4l.1-.1.2.1v1.4zm-.3 0A7 7 0 018.8.5L9 .3l.2.1.2 1.4zm-.4.1A7.6 7.6 0 018.3.6l.1-.2.2.1c0 .2.3.8.3 1.4zm-.3.1A7.6 7.6 0 017.9.7V.6h.3L8.6 2zm-.3.1A7.7 7.7 0 017.4.9l.1-.2h.2l.6 1.4zm-.3.1a8 8 0 01-1-1.1V.9h.3L8 2.3zm-.3.2a8.5 8.5 0 01-1.1-1V1h.2l.9 1.3zm-.3.2a9.3 9.3 0 01-1.2-1v-.2a.2.2 0 01.2 0l1 1.2zm-.3.2a9.4 9.4 0 01-1.2-1c-.1 0-.1 0 0-.1a.2.2 0 01.2 0l1 1zM7 3l-1.4-.8V2h.2L7 3zm-.2.2a10 10 0 01-1.5-.7v-.1s.1-.1.2 0c.2 0 .8.4 1.3.8zm-.2.3L5 2.9c-.1 0-.1-.1 0-.2H5l1.4.8zm-.2.2l-1.5-.4c-.2 0-.2-.1-.1-.2h.2l1.4.6zm-.1.3c-.6 0-1-.2-1.6-.3l-.1-.2s0-.1.2 0l1.5.5zm0 0" fill-rule="evenodd" fill="#f31509"/><path d="M6 4.3a11 11 0 01-1.6-.2v-.2h.1c.2 0 1 .1 1.6.4zm0 0" fill-rule="evenodd" fill="#f31509"/><path d="M4 4.1h12v.4H4zm0 0" fill-rule="evenodd"/></svg>