<svg xmlns="http://www.w3.org/2000/svg" width="20" height="14"><path d="M0 0h22.5v4.4H0zm0 0" fill-rule="evenodd" fill="#009a00"/><path d="M0 4.4h22.5v.4H0zm0 0" fill-rule="evenodd" fill="#fff"/><path d="M0 4.8h22.5v4.4H0zm0 0" fill-rule="evenodd"/><path d="M0 9.2h22.5v.4H0zm0 0" fill-rule="evenodd" fill="#fff"/><path d="M0 9.6h22.5V14H0zm0 0" fill-rule="evenodd" fill="#ffca00"/><path d="M0 0v14l9.8-7zm0 0" fill-rule="evenodd" fill="red"/><path d="M5.8 9.1l-1.5-1-1.5 1 .6-1.6-1.5-1h1.8l.6-1.7.6 1.6h1.8l-1.5 1zm0 0" fill-rule="evenodd" fill="#ffca00"/><path d="M102.8 290.9h37c3 3.2 9.5 4.7 15.8 0 11.6-6.3 34 0 34 0l4.4-4.8-10.7-35.1-3.8-4.1s-8.4-5-24-3.5c-15.8 1.7-21.2-.4-21.2-.4s-13.8 1.6-17.6 3.6l-4.4 4.4zm0 0" transform="scale(.0293 .02734)" fill-rule="evenodd" fill="#fff" stroke-width="1.1" stroke-linecap="round" stroke-linejoin="round" stroke="#000"/><path d="M110.3 281.9s35.2-4.5 45.4 9c-5.7 4-10.8 4.2-16.2.2.8-1.4 12.6-13.7 42.6-9.5" transform="scale(.0293 .02734)" fill="none" stroke-width="1.1" stroke-linecap="round" stroke-linejoin="round" stroke="#000"/><path d="M148 246.6l-.3 38.8m31.6-38.3L186 278" transform="scale(.0293 .02734)" fill="none" stroke-width="1.2" stroke="#000"/><path d="M117 246.6l-3.7 16" transform="scale(.0293 .02734)" fill="none" stroke-width="1.1" stroke-linecap="round" stroke-linejoin="round" stroke="#000"/><path d="M79 295.1l8.5 10.2c1 .6 2 .6 2.9 0l12.8-15.4 5.5-6.8c.8-1 1-2 .9-3L120 271l2.3.2c-1.1-.2-1.8-.7-1.1-1.8l2.4-1.9 1.9 2.5s-2.7 3.2-3 3.2h-2.8l-5.4 5 2.4 2 3.6 9.8 4.4-3-2.8-10 6-6.8-2.3-3.7 1.6-2s21.3 13.5 29.6 9.9c.3 0 .5-9.6.5-9.6s-22.2-2.3-22.6-6.7c-.6-4.4 4.9-5 4.9-5l-2.4-3.1.5-1.9 3.9 4.9 8.7-7.5 51.6 58.6c2.8-1.1 3.3-1.9 3.4-4.6l-50.4-58 3.9-4c.8-.8 1-1.3 1-2.5l6-5.2c1.5.6 2.9 1.6 3.8 3L186 219c.4.4 1.7.9 2.5.4l27-26-29.4 20.7-.9-.7c0-.8 1-.8 0-2.5-1.2-1.5-3 1.2-3 1.2-.5 0-4.5-1.2-5.3-3.1l-.2 4.7-7.5 7-5.7-.3-8.2 8-1 3 1.3 2.7s-4.4 3.8-4.4 3.6c0-.3-1-1.1-1-1.3l3.8-3.4.5-2.3-1.2-2c-.4.3-5.2 5.4-5.4 4.7l-14-15.4.8-2.9-8.8-9.5c-3.2-1.2-8.3-1.3-9.2 5.7-.8 1.6-7.5.1-7.5.1l-3.6.9L85.2 241l11.3 13.6 23.2-29.3.7-8.3 4.8 5.4c1.7.2 3.2.3 4.7-.5l13.7 15.2-2.3 2.3 2 2.3 2.4-1.6 1 1.3c-1.2.6-2.2 1.5-3.2 2-1.8-1.1-3.6-2.5-3.5-4.8l-7.7 6.3-.3 1.2-23 19-2 .3-.3 6 14.8-12.4v-1.9l1.4 1.5 11.8-9.5s.8 1 .4 1c-.3 0-10.3 9.5-10.3 9.5l-.3 1-1.7 1.5-1-.8-14 12.4h-2l-7.7 7.7c-2 .2-3.7.5-5.4 1.5zm0 0" transform="scale(.0293 .02734)" fill-rule="evenodd" stroke-width="1.1" stroke-linecap="round" stroke-linejoin="round" stroke="#000"/></svg>