<svg xmlns="http://www.w3.org/2000/svg" width="20" height="14"><path fill="#009543" d="M0 0h20v14H0z"/><path d="M0 0h20v9.3H0zm0 0" fill="#ed4135"/><path d="M0 0h20v4.7H0zm0 0" fill="#0035ad"/><path d="M397.3 240a157.3 157.3 0 11-314.6.2 157.3 157.3 0 01314.6-.2zm0 0" transform="scale(.03125 .02917)" fill="#fae600" stroke-width="5.3" stroke="#000"/><path d="M213.3 263.4h53.3m-53.4-39.3h53.4M240 83V352" transform="scale(.03125 .02917)" stroke-width="6.4" stroke="#000"/><path d="M5.5 11.2c2 .8 4 0 4 0l-1.2-1C8 10 7 10 6.6 10.3l-1 1zm2.6-2c0 .3-.3.7-.6.7S7 9.5 7 9s.2-.7.5-.7.6.3.6.7zm0-2c0 .1-.2.3-.6.3-.4 0-.7-.2-.7-.4s.3-.4.7-.4c.4 0 .7.2.7.4zm0-2c0 .4-.2.7-.6.7-.4 0-.7-.3-.7-.6 0-.4.3-.6.7-.6.4 0 .7.2.7.6zM8.4 3v.3c-.6 1-1.2 1-1.3 1l-.2.1V4c.1-.5.8-.5 1.4-1h.1zm0 0"/><path d="M6.4 5l.1.8c0 .5.6.5 1 .5V6c-.3 0-.6 0-.8-.4a3.8 3.8 0 00-.3-.5zm0 4.6l.4-.8a.8.8 0 01.7-.5V8c-.6 0-1 .2-1 .5 0 .7-.2 1.2-.2 1.2zm0 0"/></svg>