<svg xmlns="http://www.w3.org/2000/svg" width="20" height="14"><defs><clipPath id="a"><path d="M0 0h11.4v6.4H0zm0 0"/></clipPath><clipPath id="b"><path d="M0 0h12v7H0zm0 0"/></clipPath><clipPath id="c"><path d="M0 0l5.7 3.2H0zm5.7 0h5.7L5.7 3.2zm0 3.2h5.7v3.2zm0 0v3.2H0zm0 0"/></clipPath></defs><path fill="#00247d" d="M0 0h20v14H0z"/><path d="M15.9 3.1v.5l1-.5zm0 0" fill="#fff"/><path d="M16 3.6l-.2-.3 1-.2zm0 0" fill="#fff"/><path d="M15.9 3.1v.5l-1-.5zm0 0" fill="#fff"/><path d="M15.7 3.6l.3-.3-1-.2zm0 0" fill="#fff"/><path d="M16.2 3.3l-.5.1.8.8zm0 0" fill="#fff"/><path d="M15.7 3.6l.3-.3.5.9zm0 0" fill="#fff"/><path d="M15.6 3.3l.5.1-.2-1zm0 0" fill="#fff"/><path d="M16.2 3.3l-.5.1.2-1zm0 0" fill="#fff"/><path d="M15.6 3.3l.5.1-.8.8zm0 0" fill="#fff"/><path d="M16 3.6l-.2-.3-.5.9zm0 0" fill="#fff"/><path d="M15.9 3.2v.3l.6-.3zm0 0" fill="#cc142b"/><path d="M16 3.5l-.2-.2.7-.1zm0 0" fill="#cc142b"/><path d="M15.9 3.2v.3l-.6-.3zm0 0" fill="#cc142b"/><path d="M15.8 3.5l.1-.2-.7-.1zm0 0" fill="#cc142b"/><path d="M16 3.3l-.2.1.5.5zm0 0" fill="#cc142b"/><path d="M15.8 3.6l.2-.3.3.6zm0 0" fill="#cc142b"/><path d="M15.7 3.3l.3.1-.1-.6zm0 0" fill="#cc142b"/><path d="M16 3.3l-.2.1v-.6zm0 0" fill="#cc142b"/><path d="M15.7 3.3l.3.1-.5.5zm0 0" fill="#cc142b"/><path d="M16 3.6l-.2-.3-.3.6zm0 0" fill="#cc142b"/><path d="M18.4 5.2v.4l.8-.4zm0 0" fill="#fff"/><path d="M18.6 5.6l-.3-.3 1-.2zm0 0" fill="#fff"/><path d="M18.4 5.2v.4l-.9-.4zm0 0" fill="#fff"/><path d="M18.2 5.6l.2-.3-.9-.2zm0 0" fill="#fff"/><path d="M18.6 5.3l-.4.2.7.6zm0 0" fill="#fff"/><path d="M18.2 5.6l.3-.3.4.8zm0 0" fill="#fff"/><path d="M18.1 5.3l.4.2-.1-1zm0 0" fill="#fff"/><path d="M18.6 5.3l-.4.1.2-.8zm0 0" fill="#fff"/><path d="M18.1 5.3l.4.2-.6.6zm0 0" fill="#fff"/><path d="M18.5 5.6l-.2-.3-.5.8zm0 0" fill="#fff"/><path d="M18.4 5.3v.2l.5-.2zm0 0" fill="#cc142b"/><path d="M18.5 5.5l-.2-.2h.6zm0 0" fill="#cc142b"/><path d="M18.4 5.3v.2l-.5-.2zm0 0" fill="#cc142b"/><path d="M18.3 5.5l.1-.2h-.6zm0 0" fill="#cc142b"/><path d="M18.5 5.4h-.2l.4.4zm0 0" fill="#cc142b"/><path d="M18.3 5.5l.1-.2.3.5zm0 0" fill="#cc142b"/><path d="M18.2 5.4h.3l-.1-.5zm0 0" fill="#cc142b"/><path d="M18.5 5.3l-.2.1V5zm0 0M18.2 5.4h.3l-.4.4zm0 0" fill="#cc142b"/><path d="M18.5 5.5l-.2-.2-.3.5zm0 0" fill="#cc142b"/><path d="M13 5.8v.5l1-.5zm0 0" fill="#fff"/><path d="M13.2 6.3l-.3-.3 1-.2zm0 0" fill="#fff"/><path d="M13 5.8v.5l-1-.5zm0 0" fill="#fff"/><path d="M12.8 6.3L13 6l-1-.2zm0 0" fill="#fff"/><path d="M13.3 6l-.5.2.8.7zm0 0" fill="#fff"/><path d="M12.8 6.4l.3-.4.5.9zm0 0" fill="#fff"/><path d="M12.7 6l.5.2-.2-1zm0 0" fill="#fff"/><path d="M13.3 6l-.5.1.2-1zm0 0" fill="#fff"/><path d="M12.7 6l.5.2-.8.7zm0 0" fill="#fff"/><path d="M13.2 6.4l-.3-.4-.5.9zm0 0" fill="#fff"/><path d="M13 6v.2l.6-.3zm0 0" fill="#cc142b"/><path d="M13.1 6.3L13 6h.7zm0 0M13 6v.2l-.6-.3zm0 0" fill="#cc142b"/><path d="M12.9 6.3L13 6h-.6zm0 0" fill="#cc142b"/><path d="M13.2 6l-.3.1.5.5zm0 0" fill="#cc142b"/><path d="M12.9 6.3L13 6l.3.6zm0 0" fill="#cc142b"/><path d="M12.8 6l.3.1v-.6zm0 0" fill="#cc142b"/><path d="M13.2 6l-.3.1.1-.6zm0 0" fill="#cc142b"/><path d="M12.8 6l.3.1-.5.5zm0 0" fill="#cc142b"/><path d="M13.1 6.3L13 6l-.3.6zm0 0" fill="#cc142b"/><path d="M15.9 10.1v.5l1-.5zm0 0" fill="#fff"/><path d="M16.1 10.7l-.3-.4L17 10zm0 0" fill="#fff"/><path d="M15.9 10.1v.5l-1-.5zm0 0" fill="#fff"/><path d="M15.7 10.7l.3-.4-1.2-.2zm0 0" fill="#fff"/><path d="M16.2 10.3l-.5.2.8.8zm0 0" fill="#fff"/><path d="M15.7 10.7l.3-.4.6 1zm0 0" fill="#fff"/><path d="M15.6 10.3l.5.2-.2-1.1zm0 0" fill="#fff"/><path d="M16.2 10.3l-.5.1.2-1zm0 0" fill="#fff"/><path d="M15.6 10.3l.5.2-.8.8zm0 0" fill="#fff"/><path d="M16 10.7l-.2-.4-.6 1zm0 0" fill="#fff"/><path d="M15.9 10.2v.3l.7-.3zm0 0" fill="#cc142b"/><path d="M16 10.6l-.2-.3.8-.1zm0 0" fill="#cc142b"/><path d="M15.9 10.2v.3l-.7-.3zm0 0" fill="#cc142b"/><path d="M15.7 10.6l.2-.3-.8-.1zm0 0" fill="#cc142b"/><path d="M16.1 10.3l-.4.1.6.6zm0 0" fill="#cc142b"/><path d="M15.8 10.6l.2-.3.4.7zm0 0" fill="#cc142b"/><path d="M15.7 10.3l.3.1v-.7zm0 0" fill="#cc142b"/><path d="M16.1 10.3l-.3.1v-.7zm0 0" fill="#cc142b"/><path d="M15.7 10.3l.3.1-.5.6zm0 0" fill="#cc142b"/><path d="M16 10.6l-.2-.3-.4.7zm0 0" fill="#cc142b"/><g clip-path="url(#a)"><path d="M0 0l600 300M0 300L600 0" transform="scale(.01896 .02133)" stroke-width="60" stroke="#fff"/></g><g clip-path="url(#b)"><g clip-path="url(#c)"><path d="M0 0l600 300M0 300L600 0" transform="scale(.01896 .02133)" stroke-width="40" stroke="#cc142b"/></g></g><path d="M4.7 0v2.3H0v1.8h4.7v2.3h2V4.1h4.7V2.3H6.6V0zm0 0" fill="#fff"/><path d="M5.1 0v2.7H0v1h5.1v2.7h1.2V3.7h5v-1h-5V0zm0 0" fill="#cc142b"/></svg>