<svg xmlns="http://www.w3.org/2000/svg" width="20" height="14"><path fill="#ef2d29" d="M0 0h20v14H0z"/><path d="M5.5 9.3h16.7v6H5.5zm0 0" fill-rule="evenodd" fill="#009025"/><path d="M5.5-1H23v5.5H5.5zm0 0" fill-rule="evenodd" fill="#fff"/><path d="M28.7 468h115.9c6.3 0 11.3 5.3 11.3 11.3v62c0 6-5 11.2-11.3 11.2H28.7c-5.7 0-10.7-5.2-10.7-11.3v-61.9c0-6 5-11.3 10.7-11.3zm0 0" transform="matrix(.0062 0 0 .00518 3.5 -.4)" fill-rule="evenodd" fill="#fff" stroke-width="1.4" stroke="#ef2d28"/><path d="M31.9 471h109.5c6.3 0 10.8 5.3 10.8 11.3v55.9c0 6-4.5 11.3-10.8 11.3H32c-5.7 0-10.7-5.3-10.7-11.3v-55.9c0-6 5-11.3 10.7-11.3zm0 0" transform="matrix(.0062 0 0 .00518 3.5 -.4)" fill-rule="evenodd" fill="#fff" stroke-width="1.3" stroke="#ef2d28"/><path d="M65 395.5l10.1 1.3v5.2l8.4 5.1 5.5-6.4 7.4 5.1-6.5 6.5 1.9 7.7h8.3v10.3l-6.5-1.2-3.7 7.7 7.4 6.4-5.5 6.5-7.4-6.5-9.3 2.6v10.3H65l-1-9-9.2-5.1-4.6 6.4-7.4-3.9 3.7-7.7-4.6-5.2h-7.4l-1-12.9H41l5.6-7.7-6.5-6.5 8.3-6.4 5.6 5.2L64 402zm0 0" transform="matrix(.00422 0 0 .00303 3.7 1)" fill-rule="evenodd" fill="#fff" stroke-width="1.3" stroke="#ef2d28"/><path d="M80.4 427c0 5.5-5.8 9.8-11.5 9.8-5.8 0-11.5-4.3-11.5-9.7s5.7-9.7 11.5-9.7 11.5 4.3 11.5 9.7zm0 0" transform="matrix(.00408 0 0 .00363 3.7 .7)" fill-rule="evenodd" fill="#fff" stroke-width="1.3" stroke="#ef2d28"/><path d="M38.8 474.8l-10.7 10.6m18.3-10.6l-10.8 10.6m17.7-10.6l-10.7 10.6m17.6-10.6l-10.7 10.6m17.6-10.6l-10.7 10.6m18.3-10.6L64 485.4m17.6-10.6L71 485.4m17.6-10.6l-10.7 10.6m17.7-10.6l-10.7 10.6m18.2-10.6l-11.3 10.6m18.3-10.6l-10.7 10.6m17.6-10.6l-10.7 10.6m-17.7-10.6l-10.7 10.6m46-10.6l-10.7 10.6m18.3-10.6l-10.7 10.6m17.6-10.6l-10.7 10.6m17.6-10.6l-10.7 10.6m0-10.6l10.7 10.6m-17.6-10.6l10.7 10.6m-17.6-10.6l10.7 10.6M113 474.8l10.7 10.6m-17.6-10.6l10.7 10.6m-17.6-10.6l10.7 10.6m-17.7-10.6l10.7 10.6m-18.2-10.6l10.7 10.6m-17.7-10.6l10.7 10.6M71 474.8l10.7 10.6M64 474.8l10 10.6m-17.6-10.6l10.7 10.6m17.7-10.6l10.7 10.6m-46-10.6l10.7 10.6m-17.6-10.6l10.7 10.6M35 474.8l10.7 10.6m-17.6-10.6l10.7 10.6m0 49.8L28 545.7m17.6-10.5L35 545.7m18.3-10.5l-10.7 10.5m17.6-10.5l-10.7 10.5m17.6-10.5l-10.7 10.5m18.3-10.5L64 545.7m17.6-10.5L71 545.7m17.6-10.5l-10.7 10.5m17.7-10.5l-10.7 10.5m17.6-10.5l-10.7 10.5m18.3-10.5l-10.7 10.5m17.6-10.5l-10.7 10.5m-17.7-10.5l-10.7 10.5m46-10.5l-10.7 10.5m18.3-10.5l-10.7 10.5m17.6-10.5l-10.7 10.5m17.6-10.5l-10.7 10.5m0-10.5l10.7 10.5m-17.6-10.5l10.7 10.5m-17.6-10.5l10.7 10.5M113 535.2l10.7 10.5m-17.6-10.5l10.7 10.5m-17.6-10.5l10.7 10.5m-18.3-10.5l10.7 10.5m-17.6-10.5l10.7 10.5m-17.7-10.5l10.7 10.5M71 535.2l10.7 10.5M64 535.2l10.7 10.5m-18.3-10.5l10.7 10.5m18.3-10.5l10 10.5m-45.9-10.5l10.7 10.5m-17.6-10.5l10.7 10.5m-17.7-10.5l10.8 10.5M28 535.2l10.7 10.5" transform="matrix(.0062 0 0 .00518 3.5 -.4)" fill-rule="evenodd" fill="#fff" stroke-width="1.3" stroke="#ef2d28"/><path d="M29.1 467.6h115.2c6.3 0 11.4 5.3 11.4 12v61.2c0 6.8-5 12.1-11.4 12.1H29.1c-6.3 0-11.3-5.3-11.3-12v-61.2c0-6.8 5-12 11.3-12zm0 0" transform="matrix(.0062 0 0 .00518 .6 -.4)" fill-rule="evenodd" fill="#fff" stroke-width="1.4" stroke="#ef2d28"/><path d="M32.2 471.4h109.6c5.7 0 10.7 4.5 10.7 10.6v56.6c0 6-5 10.5-10.7 10.5H32.2c-6.3 0-10.7-4.5-10.7-10.5V482c0-6 4.4-10.6 10.7-10.6zm0 0" transform="matrix(.0062 0 0 .00518 .6 -.4)" fill-rule="evenodd" fill="#fff" stroke-width="1.3" stroke="#ef2d28"/><path d="M64.6 396.1h10.2v6.5l8.3 5.1 6.5-6.4 7.4 5.2-7.4 5.1 1.8 7.8h9.3v10.3h-7.4l-3.7 6.4 8.3 7.8-6.5 6.4L85 444l-10.1 2.5.9 9-11.1 1.4-1-9-9.2-5.2-4.6 6.4-7.4-5.1L47 436l-5.5-3.8H34L33 418l8.4 1.3 4.6-7.8-5.5-6.4 7.4-7.8 5.5 6.5 10.2-2.6zm0 0" transform="matrix(.00422 0 0 .00303 .8 1)" fill-rule="evenodd" fill="#fff" stroke-width="1.3" stroke="#ef2d28"/><path d="M80 426.5c0 5.4-4.8 9.7-11.5 9.7-5.7 0-10.5-4.3-10.5-9.7s4.8-9.6 10.5-9.6c6.7 0 11.5 4.3 11.5 9.6zm0 0" transform="matrix(.00408 0 0 .00363 .8 .7)" fill-rule="evenodd" fill="#fff" stroke-width="1.3" stroke="#ef2d28"/><path d="M39.2 475.2l-10.7 10.5M46 475.2l-10.7 10.5M53 475.2l-10.7 10.5M60 475.2l-10.1 10.5m17.6-10.5l-10.7 10.5m17.6-10.5l-10.7 10.5m17.7-10.5l-10.7 10.5m17.6-10.5l-10 10.5m17.6-10.5L85 485.7m17.7-10.5L92 485.7m17.6-10.5L99 485.7m17.6-10.5L106 485.7m-17.6-10.5l-10 10.5m45.9-10.5l-10.7 10.5m17.6-10.5l-10.7 10.5m17.6-10.5l-10.7 10.5m18.3-10.5L135 485.7m0-10.5l10.7 10.5m-18.3-10.5l10.7 10.5m-17.6-10.5l10.7 10.5m-17.6-10.5l10.7 10.5m-17.6-10.5l10 10.5M99 475.2l10.7 10.5m-17.6-10.5l10.7 10.5M85 475.2L96 485.7m-18.3-10.5l10.7 10.5m-17.6-10.5l10.7 10.5m-17.7-10.5l10.7 10.5m-17.6-10.5l10.7 10.5m17.6-10.5L96 485.7m-46-10.5l10 10.5m-17.6-10.5L53 485.7m-17.6-10.5L46 485.7m-17.6-10.5l10.7 10.5m0 49l-10.7 10.7M46 534.8l-10.7 10.6M53 534.8l-10.7 10.6M60 534.8l-10.1 10.6m17.6-10.6l-10.7 10.6m17.6-10.6l-10.7 10.6m17.7-10.6l-10.1 10.6m17-10.6l-10 10.6m17.6-10.6L85 545.4m17.7-10.6L92 545.4m17.6-10.6L99 545.4m18.3-10.6l-10.7 10.6m-18.3-10.6l-10 10.6m45.9-10.6l-10.7 10.6m17.6-10.6l-10.7 10.6m17.6-10.6l-10.7 10.6m18.3-10.6L135 545.4m0-10.6l10.7 10.6m-18.3-10.6l10.7 10.6m-17.6-10.6l10.7 10.6m-17.6-10.6l10.7 10.6m-17.6-10.6l10 10.6M99 534.8l10.7 10.6m-17.6-10.6l10.7 10.6M85 534.8L96 545.4m-17.7-10.6l10.1 10.6m-17.6-10.6l10.7 10.6m-17.7-10.6l10.7 10.6m-17.6-10.6l10.7 10.6m17.6-10.6L96 545.4m-46-10.6l10 10.6m-17.6-10.6L53 545.4m-17.6-10.6L46 545.4m-17.6-10.6l10.7 10.6" transform="matrix(.0062 0 0 .00518 .6 -.4)" fill-rule="evenodd" fill="#fff" stroke-width="1.3" stroke="#ef2d28"/><path d="M538.7 531.6c1.6 166.7 24.8 201.7 3.2 202-21 .1-31.7-92-31.5-205.8-.1-113.3 14-205.2 35.2-205 21.6-.4-8.9 31.5-7 208.8zm0 0" transform="matrix(-.01004 -.0037 -.0063 .0059 10.8 1.8)" fill-rule="evenodd" fill="#fff" stroke-width="1.3" stroke="#ef2d28"/><path d="M545.6 779.7l-60.4 17.4c56.7 60.4 121 85.3 138.5 74.7 17.7-10.6-32-35.5-78-92zm0 0" transform="matrix(-.0062 0 0 .00518 4.5 -.4)" fill-rule="evenodd" fill="#fff" stroke-width="1.2" stroke="#ef2d28"/><path d="M547.2 786.9l-51 15c56.8 60.4 113 76.8 127.3 69.8 14.9-7-30.4-28.3-76.3-84.8zm0 0" transform="matrix(-.00604 0 0 .00498 4.5 -.2)" fill-rule="evenodd" fill="#fff" stroke-width="1.3" stroke="#ef2d28"/><path d="M353.2 634c0 1.1 1 7.6 1 9.7 0 3.3.8 5.4.8 7.6 1 2.1 1 4.3 2.7 5.4 1.8 2.1 3.6 3.2 5.4 4.3 1.8 2.1 4.4 3.2 6.2 4.3 2.7 1 5.4 1 7.2 0 2.7-1 4.5-3.2 6.2-4.3 0-2.2 1-4.3 1-6.5-1 2.2-1 5.4-1 7.6 0 3.2 1 4.3 2.7 7.5" transform="matrix(-.00437 0 0 .00362 3.8 .6)" fill="none" stroke-width="1.8" stroke="#ef2d28"/><path d="M389.2 681.7l.9-1c-1.8 2.1-1 1 2.7-1.1 1.7-1.1 4.4-1.1 8-2.2h9c2.6 0 5.3 0 8 1.1 1.8 2.2 4.5 3.2 6.3 4.3 1.7 1 2.6 3.2 3.5 5.4 1.8 1 2.7 4.3 4.5 5.4.9 3.2 1.8 3.2 2.7 5.4-2.7 0-5.4 0-6.3 2.2-2.7 1 1.8-1.1 2.7-2.2 1.8-1 2.7-1 5.4-1 2.7-1.2 5.3 0 8 1 1.8 1 1.8 1 4.5 1" transform="matrix(-.00437 0 0 .00362 3.9 .6)" fill="none" stroke-width="1.8" stroke="#ef2d28"/><path d="M438.2 725.1c.9 0 7.1 1 9 0a14 14 0 006.2-4.3c.9-2.2 0 3.2 0 4.3 0 4.3.9 4.3 2.7 6.5 1.8 1 3.6 3.2 6.2 4.3 1 1 2.7 2.1 5.4 3.2 1.8 0 3.6 1.1 5.4 2.2 1.8 2.1 1.8 3.2 3.5 6.5-.9 2.1-.9 4.3-2.6 5.4-1 2.1-2.7 4.3-3.6 6.4-1.8 2.2-3.6 4.3 0 4.3 2.7 1.1 3.6 0 6.2 0M480.4 771.5c1.8 0 7.2-2.2 9.8-3.3h9c2.7 1.1 3.6 2.2 6.2 3.3 1.8 1 3.6 3.2 6.3 4.3.9 1 3.6 4.3 4.5 6.5.9 3.2 1.8 5.4.9 8.6 0 3.2-1 4.3-1 7.6-.8 2.1-1.7 5.3-3.5 7.5 0 0-.9 0-.9 1" transform="matrix(-.00437 0 0 .00362 4 .5)" fill="none" stroke-width="1.8" stroke="#ef2d28"/><path d="M537.8 817.7c1.3 0 1.3 2.8 2.6 4.1 2.5 2.8 3.7 2.8 7.5 2.8s3.8-1.4 6.3-2.8l5-5.4c0-1.4 1.3-4.1 2.6-5.5 1.2-2.7 2.5-4.1 3.7-5.5 1.3 0 1.3-1.3 3.8-1.3-3.8 1.3-5 1.3-6.3 4-1.2 1.4-2.5 4.2-3.8 5.5 0 2.8-1.2 4.1-1.2 8.2 0 2.8 0 5.5 1.3 8.2 1.2 1.4 2.5 4.1 5 5.5l3.8 4 6.3 4.2a9.2 9.2 0 006.3 2.7c3.7 0 5-1.3 7.5-2.7 2.5-1.4 3.8-2.7 6.3-4.1 1.3-1.4 2.5-4.1 3.8-5.5 3.8-1.3 6.3 0 7.6 1.4 2.5 1.4 3.7 2.7 5 4 1.3 1.5 2.5 2.8 3.8 2.8" transform="matrix(-.0031 0 0 .00286 3.4 1.1)" fill="none" stroke-width="2.3" stroke="#ef2d28"/><path d="M503.7 836.6c-1 0-4 2.2-5 2.2-1 3.3-2 4.4-2 7.7-1 2.1-1 5.4-1 8.7 1 3.3 2 5.5 3 7.7 2 1 3 2.2 6 3.3 2 1 5.1 1 8.1 1a8 8 0 007.1 0c3 0 5.1-1 7.1-2.1s4-3.3 6.1-4.4l5-5.5c2.1-2.2 3.1-3.3 4.1-5.5-1 3.3-3 5.5-3 7.7-2 2.2-3 3.3-3 6.6-1 3.3-1 6.5-1 8.7 1 2.2 1 6.6 2 7.7v2.2" transform="matrix(-.00386 0 0 .00357 3.5 .6)" fill="none" stroke-width="1.9" stroke="#ef2d28"/><path d="M541.2 799.4v.7c0-2.3 0-.7-.6 2.3-1.3 1.5-3.8 1.5-6.3 1.5-1.9-2.3-1.9-3-5.7-3.8-3.1 0-5 .8-6.9 2.3-1.9.7-3.8 2.2-5 4.5-.7 2.3-1.3 3.8 1.2 4.5 2.6.8 4.4 2.3 7 2.3 3.1 0 5-.8 6.3 1.5 1.9 1.5 1.9 3 1.9 6.8.6.8.6 3.8 1.2 5.3 1.9.7 3.8 1.5 5.7 1.5.6-2.3 1.2-5.3 1.9-7.6.6-2.2.6-5.2 1.9-6.7 1.2-2.3 2.5-3.8 4.4-4.6 1.2-1.5 2.5-2.2 3.7-2.2-2.5.7-3.1 2.2-3.1 5.2 1.9.8 2.5 1.6 6.3 2.3 3.1-.8 4.4-1.5 5.7-3.8 0 3.8 1.2 4.6 1.9 7.6 1.2 1.5 1.8 3.8 3.1 6-.6 3-1.9 3-1.9 6.8-.6 2.3-.6 4.5-2.5 6-.6 1.6-1.3 1.6-3.2 1.6 3.2 0 5.7-.8 8.2-2.3 2-.8 3.2-2.3 5-3.8 2-1.5 4.5-3 7.6-3.8 2.5 0 5 0 5.7 1.6 1.9 1.5 3.1 3.7 4.4 6 0 3.8.6 6-1.3 7.5-.6 3-1.2 3.8 0 6.8 2 1.5 3.8 2.3 7.6 3a13 13 0 005.7-1.5" transform="matrix(-.0062 0 0 .00518 4.5 -.4)" fill="none" stroke-width="1.2" stroke="#ef2d28"/><path d="M531.7 359.3c-.1-164.7 7.7-299.3 17.4-299 9.8-.4 18 134 18 299.4zm0 0" transform="matrix(-.00882 -.0038 -.00286 .00463 9 2.4)" fill-rule="evenodd" fill="#fff" stroke-width="1.3" stroke="#ef2d28"/><path d="M531.7 359.5c0-165.4 7.6-299.4 17.6-299.6 9.8.5 17.6 134.6 17.6 300" transform="matrix(-.00705 -.00304 -.00276 .00446 8 2)" fill-rule="evenodd" fill="#fff" stroke-width="1.3" stroke="#ef2d28"/><path d="M563.4 301.4v60.4l-28.2-.4c-.3-19.8-.5-41.2 0-60.4zm0 0" transform="matrix(-.00882 -.0038 -.00285 .0046 9 2.4)" fill-rule="evenodd" fill="#fff" stroke-width="1.3" stroke="#ef2d28"/><path d="M559.8 304.4c.3 19.8 0 33 0 53.5l-21.3.2c.3-20.1.1-34.7 0-53.5zm0 0" transform="matrix(-.00882 -.0038 -.00285 .0046 9 2.4)" fill-rule="evenodd" fill="#fff" stroke-width="1.3" stroke="#ef2d28"/><path d="M542 311.7l14.5.2-.2 38.9-14.2.1zm0 0l14.3 39.1m-14.2.1l14.4-39m-14.3-198.7l14 .5" transform="matrix(-.00882 -.0038 -.00285 .0046 9 2.4)" fill-rule="evenodd" fill="#fff" stroke-width="1.3" stroke="#ef2d28"/><path d="M549.1 91.9c0 1.9-1.5 3.8-3.4 3.9-2 0-3.6-1.9-3.6-3.8s1.6-3.3 3.6-3.4c1.9 0 3.4 1.4 3.4 3.3zm0 0" transform="matrix(-.00995 .00235 .00225 .00817 9.1 -1.3)" fill-rule="evenodd" fill="#ef0000" stroke-width="1.3" stroke="#ef2d28"/><path d="M538.8 531.4c1.6 166.6 24.5 202.1 3.4 202.2-21.3-.2-32-92.3-32-205.6-.1-113.3 14.2-205.7 35.5-205.5 21.3 0-9.2 32-7 208.9zm0 0" transform="matrix(.01004 -.0037 .0063 .0059 -5.7 1.8)" fill-rule="evenodd" fill="#fff" stroke-width="1.3" stroke="#ef2d28"/><path d="M545.5 779.3l-59.8 18.2c56.7 60.3 120.3 84.5 138 74 17.5-10.6-32.2-35.6-78.2-92.2zm0 0" transform="matrix(.0062 0 0 .00518 .6 -.4)" fill-rule="evenodd" fill="#fff" stroke-width="1.2" stroke="#ef2d28"/><path d="M547 787l-51 15c57 59.6 113.2 77 127.4 69.9C638.3 864 593 843.6 547 787zm0 0" transform="matrix(.00604 0 0 .00498 .7 -.3)" fill-rule="evenodd" fill="#fff" stroke-width="1.3" stroke="#ef2d28"/><path d="M353 634.3c0 1 1 7.5 1.8 9.7v7.5c1 2.2 1 4.3 3.6 5.4 1 2.2 2.7 3.3 4.5 4.3 1.8 1.1 4.5 2.2 6.3 3.3 2.6 1 5.3 2.1 8 1 1.8-1 3.6-3.2 5.4-4.3 0-2.1.9-5.4.9-7.5 0 3.2-1 6.5-1 8.6 0 3.3 1 4.3 2.7 6.5" transform="matrix(.00437 0 0 .00362 1.3 .6)" fill="none" stroke-width="1.8" stroke="#ef2d28"/><path d="M389 682l.9-1.1c-1.8 2.2-.9 1 2.7-1 2.7-1.2 5.3-2.2 8-2.2h9c3.5 0 5.3 0 8 1 1.8 2.2 4.5 2.2 6.3 4.4 1.8 1 2.7 3.2 3.6 5.4 1.7 1 2.6 4.3 4.4 5.3 1 2.2 1.8 2.2 2.7 4.4-2.7 1-4.5 1-6.2 3.2-2.7 1 1.7-1 2.6-3.2 2.7 0 2.7-1.1 6.3-1.1 2.7-1.1 4.5 1 7.1 1 1.8 1.1 1.8 2.2 4.5 2.2" transform="matrix(.00437 0 0 .00362 1.2 .6)" fill="none" stroke-width="1.8" stroke="#ef2d28"/><path d="M438 724.5c1.8 0 7.2 1.1 9.8 0 2.7 0 3.6-2.1 5.4-4.3 1-1 0 3.3 0 5.4 0 3.3 1 3.3 2.7 6.5l6.3 3.2 5.3 3.3c1.8 1 4.5 2.1 5.4 3.2 2.7 1 1.8 3.2 3.6 5.4-1 3.2-1 5.4-2.7 6.5-1 2.1-2.7 4.3-3.6 5.4-1.8 3.2-3.6 4.3 0 5.4 2.7 1 3.6 0 6.3 0M480.2 772c1.8-1 7.2-2.2 9.9-3.2h8.9c2.7 0 3.6 1 6.3 2.1 2.6 2.2 3.5 3.3 6.2 4.3 1 2.2 3.6 5.4 4.5 7.6.9 2.1 1.8 5.4 1.8 7.5 0 3.3-1 4.4-1.8 7.6 0 3.2-1.8 5.4-3.6 7.5 0 1.1 0 1.1-.9 1.1" transform="matrix(.00437 0 0 .00362 1.2 .5)" fill="none" stroke-width="1.8" stroke="#ef2d28"/><path d="M537.8 818.4c1.3 0 1.3 1.3 2.6 2.7 2.5 4.1 3.7 4.1 7.5 4.1s3.8-1.4 6.3-2.7c1.3-2.8 2.5-4.1 5-6.9 0-1.3 1.3-4 2.6-5.4l3.7-4.1c1.3-1.4 1.3-1.4 3.8-1.4-3.8 0-5 1.4-6.3 2.7-1.2 2.8-2.5 4.1-3.8 6.9 0 1.3-1.2 4-1.2 6.8 0 4.1 0 6.8 1.3 9.6 1.2 1.3 2.5 2.7 5 4 1.2 1.4 2.5 2.8 3.8 5.5l6.3 2.8a9.2 9.2 0 006.3 2.7c3.7 0 5-1.4 7.5-2.7 2.5-1.4 3.8-2.8 6.3-4.1l3.8-4.1c3.8-1.4 6.3-1.4 7.6 1.3 2.5 0 3.7 1.4 5 4.1 1.3 0 2.5 1.4 3.8 2.8" transform="matrix(.0031 0 0 .00286 1.7 1.1)" fill="none" stroke-width="2.3" stroke="#ef2d28"/><path d="M503.5 835.7c-1 1.1-3 3.3-5 3.3 0 3.3-2 4.4-2 7.7-1 2.2-1 5.5-1 7.7 1 3.3 2 6.5 3 8.7 2 1.1 3 2.2 6 3.3 2 1.1 5.1 1.1 8.1 1.1 2 0 5.1 1.1 7.1 0 3 0 5.1-1 7.1-2.2 2-2.2 4-3.3 6.1-4.4l5-5.4c2.1-2.2 3.1-3.3 4.1-5.5-1 2.2-2 4.4-3 7.7-2 2.1-2 3.2-3 6.5-1 2.2 0 5.5 0 8.8 0 2.2 0 5.5 1 7.7v2.1" transform="matrix(.00386 0 0 .00357 1.7 .5)" fill="none" stroke-width="1.9" stroke="#ef2d28"/><path d="M541.1 799v.7c0-1.5 0-.7-.6 3-1.3.8-3.8 1.5-6.3.8-2-1.5-2-3-5.7-3.8-3.1.8-4.4 1.5-7 3-1.8.8-3.7 2.3-5 3.8-.6 2.3-.6 3.8 1.3 4.5 2.5 1.5 5 2.3 7.6 2.3s4.4 0 5.6 1.5c2.6 2.3 2 3 2 6.8.6 1.5 1.2 4.5 1.2 6 1.9.8 3.8.8 5.7.8.6-1.5 1.2-5.3 1.8-7.5.7-2.3.7-5.3 2-6.8 1.2-1.6 2.5-3 4.3-4.6l3.8-2.2c-2.5 1.5-2.5 3-3.1 6 2.5.8 2.5 1.5 6.3 1.5 3.7 0 4.4-.7 5.6-3 0 3 1.3 3.8 2 6.8l3 6c-.6 3-1.8 3-1.8 6.8-.6 3-.6 5.3-2.5 6.8-.7.8-1.3.8-3.2.8 3.8 0 5.7 0 8.2-1.5 1.9-1.6 3.2-3 5-3.8 2.6-1.5 5-3 7.6-3.8 2.5 0 5-.7 6.3 1.5 1.9.8 2.5 3 3.8 6 .6 3 .6 5.3-.7 7.6-1.2 2.3-1.2 3 0 6 1.3 2.3 3.2 2.3 7 3 1.9 0 4.4-.7 6.3-.7" transform="matrix(.0062 0 0 .00518 .6 -.4)" fill="none" stroke-width="1.2" stroke="#ef2d28"/><path d="M531.5 359.6c.1-165.4 8-299 17.6-299.7 10 .6 17.9 134.6 17.8 300zm0 0" transform="matrix(.00882 -.0038 .00286 .00463 -3.9 2.4)" fill-rule="evenodd" fill="#fff" stroke-width="1.3" stroke="#ef2d28"/><path d="M531.4 359.8c0-165.4 8.4-299.8 17.7-299.6C559 60 567 194.1 567 359.5" transform="matrix(.00705 -.00304 .00276 .00446 -2.8 2)" fill-rule="evenodd" fill="#fff" stroke-width="1.3" stroke="#ef2d28"/><path d="M563.5 301c0 18.8-.3 40.6 0 60.4l-28.5.2c0-20.4-.2-41.8 0-60.3zm0 0" transform="matrix(.00882 -.0038 .00285 .0046 -3.8 2.4)" fill-rule="evenodd" fill="#fff" stroke-width="1.3" stroke="#ef2d28"/><path d="M559.6 304.7c.5 19 .3 33.3 0 53.5l-21-.5c0-19.5-.2-34 0-52.5zm0 0" transform="matrix(.00882 -.0038 .00285 .0046 -3.8 2.4)" fill-rule="evenodd" fill="#fff" stroke-width="1.3" stroke="#ef2d28"/><path d="M542.3 311.6l14 .5-.1 39-14-.6zm0 0l13.9 39.5m-14-.6l14.1-38.4M542 113.4l14.3-.1" transform="matrix(.00882 -.0038 .00285 .0046 -3.8 2.4)" fill-rule="evenodd" fill="#fff" stroke-width="1.3" stroke="#ef2d28"/><path d="M549.1 92.1c0 2-1.6 3.4-3.5 3.4-2 .1-3.5-1.4-3.5-3.3s1.5-3.7 3.5-3.4c2 0 3.5 1.4 3.5 3.3zm0 0" transform="matrix(.00995 .00235 -.00225 .00817 -4 -1.3)" fill-rule="evenodd" fill="#ef0000" stroke-width="1.3" stroke="#ef2d28"/><path d="M305.7 396.7c0 124.5.5 170.5-5.7 177.3-5.6 6.8-167.2 0-167.2 35.5s132.8 71 172.9 71c53 0 79.8-35.5 79.8-106.5V396.7zm0 0" transform="matrix(.00827 0 0 .00518 -.3 -.4)" fill-rule="evenodd" fill="#fff" stroke-width="1.3" stroke="#ef2d28"/><path d="M265.9 396.7V415c35.3 5.2 71.2 5.2 105.8 0v-18.2c-34.6 6-70.5 6-105.8 0zm0 0" transform="matrix(.0062 0 0 .00518 .6 -.2)" fill-rule="evenodd" fill="#fff" stroke-width="1.3" stroke="#ef2d28"/><path d="M265.9 396.7v18c35.3 6.1 71.2 6.1 105.8 0v-18c-34.6 6-70.5 6-105.8 0zm0 0" transform="matrix(.0062 0 0 .00518 .6 -.4)" fill-rule="evenodd" fill="#fff" stroke-width="1.3" stroke="#ef2d28"/><path d="M265.9 397v17.4c35.3 6 71.2 6 105.8 0v-17.3c-34.6 6-70.5 6-105.8 0zm0 0" transform="matrix(.0062 0 0 .00518 .6 -.3)" fill-rule="evenodd" fill="#fff" stroke-width="1.3" stroke="#ef2d28"/><path d="M265.9 397.2v17.3c35.3 6 71.2 6 105.8 0v-17.3a355.1 355.1 0 01-105.8 0zm0 0" transform="matrix(.0062 0 0 .00518 .6 -.1)" fill-rule="evenodd" fill="#fff" stroke-width="1.3" stroke="#ef2d28"/><path d="M265.5 210.6c0 15.7-3.4 26.2-8 26.2-5.8 0-9.3-10.5-9.3-26.2s3.5-26.2 9.3-26.2c4.6 0 8 10.5 8 26.2zm0 0M301.3 248.6c0 10.5-4.6 26.2-9.2 26.2s-9.2-15.7-9.2-26.2c0-15.8 4.6-31.5 9.2-31.5s9.2 15.7 9.2 31.5zm0 0M337.1 263.3c0 15.7-4.6 26.2-9.2 26.2s-9.2-10.5-9.2-26.2 4.6-26.3 9.2-26.3 9.2 10.5 9.2 26.3zm34.7 0c0 15.7-3.5 26.2-8.1 26.2-5.8 0-9.2-10.5-9.2-26.2s3.4-26.3 9.2-26.3c4.6 0 8 10.5 8 26.3zm0 0M407.6 248.6c0 10.5-4.7 26.2-9.3 26.2-4.6 0-8-15.7-8-26.2 0-15.8 3.4-31.5 8-31.5s9.3 15.7 9.3 31.5zm0 0M443.4 210.6c0 15.7-4.7 26.2-9.3 26.2-4.6 0-9.2-10.5-9.2-26.2s4.6-26.2 9.2-26.2 9.3 10.5 9.3 26.2zm0 0" transform="matrix(.00338 0 0 .00074 1.4 1.6)" fill-rule="evenodd" fill="#fff" stroke-width="4.4" stroke="#ef2d28"/><path d="M265.9 485.7l105.8 95.1m-95.1-95l95.7 84.5m-81.8-81.6l81.8 71m-71.1-71l71.1 60.4M312 488.7l59.8 49.9m-49.1-49.9l49.1 39.3m-38.4-39.3l38.4 28.7M344 488.7l28.3 21.2m-18.2-21.2l18.2 14.4m-7.5-14.4l6.9 7.6m-105.8 0l105.8 95.9m0-106.5L255.2 591.4M361 485.7l-102.7 92.1m88.8-89L266 559.6m70.5-71L266 549.1m59.8-60.4L266 538.6m49.7-49.9L266 528m39-39.3l-39 28.7m28.3-28.7L266 510m17.6-21.2L266 503.1m7-14.4l-7 7.6m105.8 0L255.2 602.7M371.7 507L255.2 613.3m116.5-95.9L255.2 624m116.5-96L255.2 634.5m116.5-95.8L255.2 645M371.7 549L255.2 655.6m116.5-95.9L255.2 666.1m116.5-95.8L255.2 676.7m116.5-95.9l-109.6 99.7m109.6-89.1l-98.9 89m95.8-74.7l-78.1 71m74.3-56.6l-63.6 56.6m56.6-39.3l-32 28.7M265.8 507l102.7 92m-102.7-81.5l102.7 92.1M265.9 528l98.9 88.3m-98.9-77.7l98.9 88.3M265.9 549l95.7 85.3m-99.5-77.7l95.7 84.5m-95.7-74L351 645m-92-71l88.2 77.8m-92-71l85.1 74.8m-85-64.2l81.2 71M255.2 602l70.5 64.1" transform="matrix(.0062 0 0 .00518 .6 -.4)" fill-rule="evenodd" fill="#fff" stroke-width="1.3" stroke="#ef2d28"/><path d="M265.9 396.7v18.1c35.3 6 71.2 6 105.8 0v-18c-34.6 6-70.5 6-105.8 0zm0 0" transform="matrix(.0062 0 0 .00518 .6 0)" fill-rule="evenodd" fill="#fff" stroke-width="1.3" stroke="#ef2d28"/><path d="M255.2 613.3l63.6 56.6m-63.6-46l56.7 49m-56.7-38.5l49.7 42.3M255.2 645l35.3 31.7m-35.3-21.1l28.3 24.9M255.2 666l17.6 14.4" transform="matrix(.0062 0 0 .00518 .6 -.4)" fill-rule="evenodd" fill="#fff" stroke-width="1.3" stroke="#ef2d28"/><path d="M265.5 213.3c0 10.5-3.4 26.2-8 26.2-5.8 0-9.3-15.7-9.3-26.2 0-15.7 3.5-31.5 9.3-31.5 4.6 0 8 15.8 8 31.5zm0 0" transform="matrix(.00338 0 0 .00074 1.4 2)" fill-rule="evenodd" fill="#fff" stroke-width="4.4" stroke="#ef2d28"/><path d="M301.3 246c0 15.8-4.6 26.3-9.2 26.3s-9.2-10.5-9.2-26.3c0-15.7 4.6-26.2 9.2-26.2s9.2 10.5 9.2 26.2zm0 0M337.1 261.4c0 15.8-4.6 31.5-9.2 31.5s-9.2-15.7-9.2-31.5c0-10.5 4.6-26.2 9.2-26.2s9.2 15.7 9.2 26.2zm34.7 0c0 15.8-3.5 31.5-8.1 31.5-5.8 0-9.2-15.7-9.2-31.5 0-10.5 3.4-26.2 9.2-26.2 4.6 0 8 15.7 8 26.2zm0 0M407.6 246c0 15.8-4.7 26.3-9.3 26.3-4.6 0-8-10.5-8-26.3 0-15.7 3.4-26.2 8-26.2s9.3 10.5 9.3 26.2zm0 0" transform="matrix(.00338 0 0 .00074 1.4 1.9)" fill-rule="evenodd" fill="#fff" stroke-width="4.4" stroke="#ef2d28"/><path d="M443.4 213.3c0 10.5-4.7 26.2-9.3 26.2-4.6 0-9.2-15.7-9.2-26.2 0-15.7 4.6-31.5 9.2-31.5s9.3 15.8 9.3 31.5zm0 0" transform="matrix(.00338 0 0 .00074 1.4 2)" fill-rule="evenodd" fill="#fff" stroke-width="4.4" stroke="#ef2d28"/><path d="M113.5 651.8l127.2-74m-134.1 71l120.3-71m-124.1 63.4l109.6-63.4M99 634.4l95.7-56.6m-102.6 49l88.8-49m-85 38.5l59.8-35.5M92 609.5l46-28.7M92 599l32-18m0 74.7l120.4-71m-109.6 74.7l113.4-67.9m-102.7 71l105.8-63.5m-95.7 67.2l88.8-52.8M170.2 666l78-46M181 669.9l66.7-39.3M191 673l53.5-31.7m-39 32.5l42.1-25m-28.3 28l29-17.4m-14.5 17.4l17.6-10.6" transform="matrix(.0062 0 0 .00518 .6 -.4)" fill-rule="evenodd" fill="#fff" stroke-width="1.3" stroke="#ef2d28"/><path d="M265.7 397.2v17.6c35.5 5.7 71 5.7 106.5 0v-17.6c-35.5 5.6-71 5.6-106.5 0zm0 0" transform="matrix(0 .00518 -.0062 0 4.7 1.2)" fill-rule="evenodd" fill="#fff" stroke-width="1.3" stroke="#ef2d28"/><path d="M49.9 623.9L92 588.4m-42.2 10.5L92 641.2" transform="matrix(.0062 0 0 .00518 .6 -.4)" fill-rule="evenodd" fill="#fff" stroke-width="1.3" stroke="#ef2d28"/><path d="M259.8 387.9l6 26.8c35.7 5.5 65.5 5.5 101.2 0l10.8-26.8a370.8 370.8 0 01-118 0zm0 0" transform="matrix(0 .00328 -.00496 0 3.2 1.7)" fill-rule="evenodd" fill="#fff" stroke-width="1.3" stroke="#ef2d28"/><path d="M258.5 351.1V333c-10.5 0-17.7-10.6-17.7-21.1h-35.3c0 10.5-7.1 21.1-17.6 21.1v18.1zm0 0" transform="matrix(.0093 0 0 .00518 .5 -.1)" fill-rule="evenodd" fill="#fff" stroke-width="1.3" stroke="#ef2d28"/><path d="M296.1 343.8h45.4V365H296zm3.8-21.1h37.8v21.1h-37.8zm0-21.1h37.8v21h-37.8zm3.8-28.7h30.2v28.7h-30.2zm-1.3-25h32.8v25h-32.8zm0 0" transform="matrix(.0062 0 0 .00518 .6 -.4)" fill-rule="evenodd" fill="#fff" stroke-width="1.4" stroke="#ef2d28"/><path d="M280.1 161.5c0 18.1-19.5 33.2-42.6 33.2-23.8 0-42.7-15-42.7-33.2 0-18.8 19-34 42.7-34 23.1 0 42.6 15.2 42.6 34zm0 0" transform="matrix(.0064 0 0 .00518 1 0)" fill-rule="evenodd" fill="#fff" stroke-width="1.3" stroke="#ef2d28"/><path d="M258.8 159.3c0 9.8 10.4 24.9 10.4 24.9a53.8 53.8 0 01-31.7 10.5c-11.6 0-26.2-2.2-31.7-10.5 0 0 10.3-15.1 10.3-25 0-9-10.3-21-10.3-21a53 53 0 0163.4 0s-10.4 12-10.4 21zm0 0" transform="matrix(.0064 0 0 .00518 1 0)" fill-rule="evenodd" fill="#fff" stroke-width="1.3" stroke="#ef2d28"/><path d="M251.5 159.3c0 9.8 11 28.6 11 28.6-8 6-13.4 6.8-25 6.8s-19.5 1.5-25-6.8c0 0 11-18.8 11-28.6 0-9-11-25-11-25 8-6 13.4-6.7 25-6.7s17 .7 25 6.8c0 0-11 15.8-11 24.9zm0 0" transform="matrix(.0064 0 0 .00518 1 0)" fill-rule="evenodd" fill="#fff" stroke-width="1.3" stroke="#ef2d28"/><path d="M205.8 166.6c0 6-4.9 10.6-11 10.6-5.5 0-10.3-4.5-10.3-10.6s4.8-10.5 10.3-10.5c6.1 0 11 4.5 11 10.5zm0 0" transform="matrix(.0064 0 0 .00518 1 -.1)" fill-rule="evenodd" fill="#fff" stroke-width="1.3" stroke="#ef2d28"/><path d="M205.4 166.6c0 6-4.8 10.6-10.3 10.6-6.1 0-11-4.5-11-10.6s4.9-10.5 11-10.5c5.5 0 10.3 4.5 10.3 10.5zm0 0" transform="matrix(.0064 0 0 .00518 1.6 -.1)" fill-rule="evenodd" fill="#fff" stroke-width="1.3" stroke="#ef2d28"/><path d="M205.3 166.6c0 6-4.3 10.6-10.4 10.6-6.1 0-10.4-4.5-10.4-10.6s4.3-10.5 10.4-10.5c6 0 10.4 4.5 10.4 10.5zm0 0" transform="matrix(.0064 0 0 .00518 1.3 -.1)" fill-rule="evenodd" fill="#fff" stroke-width="1.3" stroke="#ef2d28"/><path d="M205.3 166.6c0 6-4.3 10.5-10.4 10.5-6.1 0-10.4-4.5-10.4-10.5S188.8 156 195 156c6 0 10.4 4.5 10.4 10.6zm0 0" transform="matrix(.0064 0 0 .00518 1.3 -.3)" fill-rule="evenodd" fill="#fff" stroke-width="1.3" stroke="#ef2d28"/><path d="M205.5 166.8c0 5.3-4.7 10.6-10.6 10.6s-10.6-5.3-10.6-10.6c0-6 4.7-10.5 10.6-10.5s10.6 4.5 10.6 10.5zm0 0" transform="matrix(.00664 0 0 .00518 1 .8)" fill-rule="evenodd" fill="#fff" stroke-width="1.3" stroke="#ef2d28"/><path d="M205.3 166.8a11 11 0 01-10.5 10.6 11 11 0 01-10.6-10.6c0-6 4.7-10.5 10.6-10.5s10.5 4.5 10.5 10.5zm0 0" transform="matrix(.00664 0 0 .00518 1.5 .8)" fill-rule="evenodd" fill="#fff" stroke-width="1.3" stroke="#ef2d28"/><path d="M212.6 311.9h49.5l-24.8 31.7zm0 0" transform="matrix(.00664 0 0 .00518 1 -.1)" fill-rule="evenodd" fill="#fff" stroke-width="1.3" stroke="#ef2d28"/><path d="M205.5 166.6c0 5.7-4.9 10.2-10.6 10.2a10.5 10.5 0 110-21c5.7 0 10.6 4.6 10.6 10.8zm0 0" transform="matrix(.00885 0 0 .0069 .8 .5)" fill-rule="evenodd" fill="#fff" stroke-width="1.3" stroke="#ef2d28"/><path d="M266.8 524.3h72.4c2.5 0 4.4 1.5 4.4 3.8v13.5c0 2.3-1.9 3.8-4.4 3.8h-72.4c-2.5 0-4.4-1.5-4.4-3.8v-13.5c0-2.3 1.9-3.8 4.4-3.8zm0 0" transform="matrix(.0062 0 0 .00518 .6 -.6)" fill-rule="evenodd" fill="#fff" stroke-width="1.2" stroke="#ef2d28"/><path d="M368.8 507c-10 0-18.3 8.2-18.3 18v16.6c0 4.6 2 9.1 5 12.9 3.9 3 8.3 5.3 13.3 5.3a21 21 0 0012.6-5.3c3.1-3.8 5-8.3 5-12.9V525c0-4.5-1.9-9-5-12.8a17.4 17.4 0 00-12.6-5.3zm0 6.7c-6.3 0-10.7 6.8-10.7 15.1v9c0 8.4 4.4 15.2 10.7 15.2 5.7 0 10-6.8 10-15.1v-9c0-8.4-4.3-15.2-10-15.2zm-92.6-3.8c-5.6 0-10.7 6.8-10.7 15.1v16.6c0 8.3 5 14.4 10.7 14.4 6.3 0 10.7-6 10.7-14.4V525c0-8.3-4.4-15-10.7-15zm0-6.8c-4.4 0-9.4 2.3-12.6 5.3-3.1 3.8-5 8.3-5 13.6v22.7c0 5.2 1.9 9.8 5 12.8 3.2 3.8 8.2 6 12.6 6 10.1 0 17.7-8.3 17.7-18.8V522c.6-5.3-1.3-9.8-4.4-13.6-3.8-3-8.2-5.3-13.3-5.3zm0 0" transform="matrix(.0062 0 0 .00518 .6 -.6)" fill-rule="evenodd" fill="#fff" stroke-width="1.2" stroke="#ef2d28"/><path d="M247.9 517.5c-5.7 0-10.7 6-10.7 14.3v4.6c0 7.5 5 14.3 10.7 14.3 6.3 0 10.7-6.8 10.7-14.3v-4.6c0-8.3-4.4-14.3-10.7-14.3zm0-7.6c-4.4.8-9.5 2.3-12.6 6-3.2 3.1-5 8.4-5 13v10.5c0 4.5 1.8 9.8 5 12.8 3.1 3.8 8.2 5.3 12.6 6 10 0 17.6-8.3 17.6-18.8v-10.6c.6-4.5-1.2-9.8-4.4-12.8-3.8-3.8-8.2-6-13.2-6zm0 0" transform="matrix(.0062 0 0 .00518 .6 -.6)" fill-rule="evenodd" fill="#fff" stroke-width="1.2" stroke="#ef2d28"/><path d="M478.4 237.5c-6 0-10.8 6.8-10.8 14.9v16.2c0 8.1 4.9 14.9 10.8 14.9 5.6 0 10.5-6.8 10.5-14.9v-16.2c0-8.1-4.9-14.9-10.5-14.9zm0-7.4c-4.9.7-9.4 2-13 6a19 19 0 00-4.8 13V272a19 19 0 004.9 12.8 23 23 0 0013 6c9.7 0 17.4-8.7 17.4-18.8v-23c.4-4.7-1.4-9.4-4.9-12.8-3.1-4-7.7-6-12.6-6zm0 0" transform="matrix(.01116 0 0 .00578 -3.5 .7)" fill-rule="evenodd" fill="#fff" stroke-width=".9" stroke="#ef2d28"/><path d="M478.6 237.1c-6.3 0-10.9 6.8-10.9 14.9v16.9c0 8 4.9 14.8 10.9 14.8 5.5 0 10.4-6.7 10.4-14.8v-17c0-8-4.9-14.8-10.5-14.8zm0-6.7a17.5 17.5 0 00-17.8 18.2v23.6a16.2 16.2 0 004.8 12.9c3.2 3.3 7.7 5.4 12.6 5.4 10.1 0 17.8-8.1 17.8-18.3v-23.6a17.5 17.5 0 00-17.5-18.2zm0 0" transform="matrix(.01116 0 0 .00578 -2 .7)" fill-rule="evenodd" fill="#fff" stroke-width=".9" stroke="#ef2d28"/><path d="M377.6 524.3H416c1.3 0 2 1.5 2 3.8v13.5c0 2.3-.7 3.8-2 3.8h-38.4c-1.2 0-1.9-1.5-1.9-3.8v-13.5c0-2.3.7-3.8 2-3.8zm-39.7-3h22c.7 0 1.3 1.5 1.3 4.5v18.9c0 2.2-.6 4.5-1.2 4.5h-22c-.7 0-1.3-2.3-1.3-4.5v-19c0-3 .6-4.4 1.2-4.4zm-117.1 0h22.7c.6 0 1.2 1.5 1.2 4.5v18.9c0 2.2-.6 4.5-1.2 4.5h-22.7c-.6 0-1.3-2.3-1.3-4.5v-19c0-3 .7-4.4 1.3-4.4zm-76.2-3.8h44c1.3 0 2.6 2.3 2.6 6V547c0 3-1.3 6-2.5 6h-44.1c-1.9 0-3.2-3-3.2-6v-23.4c0-3.7 1.3-6 3.2-6zm308 3.8h40.9c1.3 0 2.5 2.2 2.5 6v22.6c0 3.8-1.2 6-2.5 6h-41c-1.2 0-2.5-2.2-2.5-6v-22.6c0-3.8 1.3-6 2.6-6zm0 0" transform="matrix(.0062 0 0 .00518 .6 -.6)" fill-rule="evenodd" fill="#fff" stroke-width="1.2" stroke="#ef2d28"/></svg>