<svg xmlns="http://www.w3.org/2000/svg" width="20" height="14"><path fill="#20603d" d="M0 0h20v14H0z"/><path d="M0 0h20v10.5H0zm0 0" fill="#fad201"/><path d="M0 0h20v7H0zm0 0" fill="#00a1de"/><path d="M18.4 3.7h-1.7l1.6.5-1.6-.3 1.4.9-1.5-.7 1 1.2-1.2-1 .8 1.3-1-1.3.4 1.5-.5-1.4-.1 1.5V3.6zm0 0" fill="#e5be01"/><path d="M18.4 3.7l-1.7-.1 1.6-.5-1.6.3 1.4-.9-1.5.7 1-1.1-1.2 1 .8-1.4-1 1.3.4-1.5L16 3 16 1.4v2.3zm0 0M13.6 3.7h1.6l-1.6.5 1.7-.3-1.4.9 1.5-.7-1.1 1.2 1.2-1-.7 1.3.9-1.3-.4 1.5.6-1.4v1.5-2.3zm0 0" fill="#e5be01"/><path d="M13.6 3.7l1.6-.1-1.6-.5 1.7.3-1.4-.9 1.5.7-1.1-1.1 1.2 1-.7-1.4.9 1.3-.4-1.5L16 3V1.4v2.3zm0 0" fill="#e5be01"/><path d="M34.3 0a34.3 34.3 0 11-68.5.1 34.3 34.3 0 0168.5-.2zm0 0" transform="matrix(.02083 0 0 .01944 16 3.7)" fill="#e5be01" stroke-width="3.4" stroke="#00a1de"/></svg>