<svg xmlns="http://www.w3.org/2000/svg" width="20" height="14"><path fill="#fff" d="M0 0h20v14H0z"/><path d="M-1.4 9.3h30V14h-30zm0 0" fill-rule="evenodd" fill="#d50000"/><path d="M-1.4 4.7h30v4.6h-30zm0 0" fill-rule="evenodd" fill="#0000bf"/><path d="M7.1 2.5c0 1.7-.2 2.7-.4 3-.3.5-.6.9-1.8 1.3-1.1-.4-1.4-.8-1.7-1.2-.3-.4-.4-1.4-.5-3l.2-.1.8-.2L4.9 2c.8 0 1 .1 1.3.2l.8.2zm0 0" fill-rule="evenodd" fill="#d50000"/><path d="M7 2.5c-.1 1.7-.2 2.4-.4 2.8-.3.6-.7 1-1.7 1.3-1-.3-1.4-.7-1.7-1.3L3 2.5l.8-.2L4.9 2c.8 0 1 .1 1.3.2l.8.2zm0 0" fill-rule="evenodd" fill="#0000bf"/><path d="M5 3v.1h.2l-.2.1h.2l-.2.1v.1h-.1l-.2-.1.1-.1h-.1l.2-.1zm0 0" fill-rule="evenodd" fill="#ffdf00"/><path d="M6.5 5v-.2l-.1-.1-.2-.1-.1-.2h-.2v-.2h-.1V4h-.2v.2l-.2.1h-.1v-.2l-.4-.5-.3.5v.1l-.2.1-.1-.2L4 4H4l-.1.2-.2.1v.2l-.2.1v.1l-.2.1c0 .4.3.7.5 1l1.1.6A3.2 3.2 0 006 5.9c.2-.2.5-.5.5-1zm0 0" fill-rule="evenodd" fill="#fff"/><path d="M5.4 2.3v.1h.3l-.2.1h.1l-.1.1H5.1v-.1l.2-.1v-.1zm-1 0v.1h.3-.1v.2h-.4l.1-.1h-.1l.2-.1v-.1zm0 0" fill-rule="evenodd" fill="#ffdf00"/><path d="M6.3 5.5H3.6l-.2-.1H4l.2-.1h.3l.2.1h.4l.3-.1h.2l.3.1h.5l-.1.2zm-2.5.3H4l.2-.1h.3l.2.1h.4l.3-.1h.2l.3.1H6l.1-.2H3.6l.2.2zm0 0" fill-rule="evenodd" fill="#0000bf"/></svg>