<svg xmlns="http://www.w3.org/2000/svg" width="20" height="14"><path fill="#006" d="M0 0h20v14H0z"/><path d="M0 0h11.7v6.8H0zm0 0" fill-rule="evenodd" fill="#006"/><path d="M0 0v.8l10.4 6h1.3V6L1.3 0zm11.7 0v.8l-10.4 6H0V6l10.4-6zm0 0" fill="#fff"/><path d="M4.9 0v6.8h2V0zM0 2.3v2.2h11.7V2.3zm0 0" fill="#fff"/><path d="M0 2.7v1.4h11.7V2.7zM5.3 0v6.8h1.1V0H5.3zM0 6.8l3.9-2.3h.9l-4 2.3zM0 0l3.9 2.3H3L0 .5zm7 2.3L10.7 0h.9l-4 2.3zm4.7 4.5l-4-2.3h1l3 1.8zm0 0" fill="#c00"/><path d="M19.1 6.2v2.3c0 2-.8 3.7-3.2 4.8-2.3-1.1-3.1-2.9-3.1-4.8V6.2H19zm0 0" fill="#fff"/><path d="M19 6.4v2.2c0 1.8-.8 3.4-3 4.4-2.3-1-3-2.6-3-4.4V6.4h6zm0 0" fill="#fdc300"/><path d="M206 52.9a2 2 0 00-1.3-.5c.1-1.3-.8-1.8-1.5-2-.7-.3-1-.6-1-1.1-.1-.5-.5-.9-1.1-1-.6-.2-1.2-.8-1.4-1-.2-.4-.3-.4-.5.1s-1 1.5-.2 1.5c-.5.4-.8.8-.5 1.4-.3.3-.5.7 0 .8l.5.4c-.4 0-.5.8.4 1-.2 0-.3.6.1.6-.5 0-1 .8-1.6.8-.7 0-1 .2-1 .5l-.6.8c.5 0 .8 0 1-.2.2-.2.7-.3 1 0 .3.2 1 .3 1.2.2-.6.5-1 1-1 1.6 0 .6-.6 1.2-1.1 1.4-.3.2-1 .6-1.1 1.2.5 1.4 1.3 1.7 2.1 2.1 1.4.6 2.3 1 2.9 1.8.6.6.8.1 1.7 1.3 1 1 1.7 3.2 2.6 3.5.9.4 2 .2 2.6-1 .7-1 1-12.4-2.2-14.3zm0 0" transform="matrix(.12216 0 0 .11402 -10.6 1.4)" fill="#ff9e3d" stroke-width=".1" stroke="#000"/><path d="M207.5 48.1c-.9 1-2 1.8-1.7 3.4.3 1.6.3 4.2-1.2 5-1.4 1-2 3.2-.4 4.5 1.8 1.3 1.9 2.9 2.1 4.3.3 1.5 1.1 2.7 2.3 1.7 1.2.2 1.8-.3 1.8-1.3s0-1.4 1-1.7c.8-.3 1-.6 1.5-1.4.4-.8.6-1.2.4-1.6a3.6 3.6 0 01-.2-2.2c.2-.7-.2-1-.4-1.5a2 2 0 01-.2-1.4c0-.6-.2-1-.6-1.3-.4-.3-.6-.6-.5-1 0-.5-.3-.8-.8-1.2-.5-.4-.7-.8-.7-1.5s-1.4-2.3-2.4-2.8zm0 0" transform="matrix(.12216 0 0 .11402 -10.6 1.4)" fill="#ff927f" stroke-width=".1" stroke="#000"/><path d="M207.8 67.3c2-.5 1.8-3.7 1.5-5-.3-1.4-1-3.3-.5-5 .8-2-1-4.1-.5-4.9.5-1 .4-1.3.3-1.6 0-.2-.5-.4-.5.1 0 .6-.2.8-.5 1.1-.3.3-.3 1.2 0 2 .2.9.8 2.2 0 3.9-1 1.7-.6 2.4-.3 3.2.6 1.3 1.8 5.6.5 6.2zm0 0" transform="matrix(.12216 0 0 .11402 -10.6 1.4)" fill="#ff9ee1" stroke-width=".1" stroke="#000"/><path d="M199 48.9c.2 0 .6 0 .6.2m-1 1.2c.2-.2.7 0 1-.2m-.6 1.4c.3 0 .8 0 1.3-.4m-.9 1.4c.4 0 1-.2 1-.7m-.9 1.3c.7 0 1.5.2 1.6 0m-1.5 2c.4-.3 1.4-.6 1.7-.9m-.6-5.5c.7.2.4.7.8 1 .6.4 0 1 .6 1.1.5.2.5.3.3.9 0 .7.5.7.3 1.2m2-.5c-.3 0-1.2 0-1.5.8m-4.8 7.7c.4 0 .5 0 .6-.3 0-.2.2-.4.5-.4s.8-.1.9-.3c0-.3.4 0 .7-.7.4-.6.6-1.3 1.4-1.6" transform="matrix(.12216 0 0 .11402 -10.6 1.4)" fill="none" stroke-width=".1" stroke="#000"/><path d="M221.8 73.8c.3.4 0 1 .5 1.2.7.2.1 1 .9 1.4.7.3 0 1 .7 1.5.7.3 0 1 .8 1.5 1 .5-.2 1.5.5 1.9.7.4-.2 1.4.6 1.8.7.4-.4 1.1.4 1.7.7.5-.2 1.4.5 2 .7.4-.4 1.1.3 1.8.6.5-.2 1 .2 2 .3.5-.3 2.7-1.8 2.5-.6 1-2.7 1.8-3.5 1.5-.8.6-3.3 1.3-4.6 0-1.3 1.3-3.8.6-4.6 0-.8.3-3-.6-3.5-1.5-1.6.2-2-2-1.8-2.6.4-.8-.4-1.4.2-2 .7-.6-.5-1.3.3-1.8s-.2-1.4.5-2c.8-.5-.4-1.3.4-1.6.8-.4 0-1.4.6-1.8.6-.4-.4-1.4.5-1.9.9-.4 0-1.2.8-1.5.7-.4 0-1.2.7-1.5.8-.3.2-1.2.9-1.4.6-.3.2-.8.5-1.3 1.7.7 6.8 1.2 9 0zm0 0" transform="matrix(.12216 0 0 .11402 -10.6 1.4)" fill="#00a728" stroke-width=".1" stroke="#000"/><path d="M213.5 76.7c0 .2 0 .5-.2.8-.5.6.2 1-.4 1.7-.5.7.1 1.2-.5 1.8-.6.6 0 1.2-.5 1.8-.6.7.1 1.2-.5 1.8-.6.6 0 1.3-.5 1.9-.6.6.1 1.4-.5 2-.7.8 0 1.4-.5 2-.5.5 0 1-.4 1.4.6-.5.6-1.3 1.1-1.6.5-.4-.1-1 .2-1.3.3-.3 0-1.4.5-2 .5-.6 0-1.7.5-2 .5-.3.1-1.6.7-2 .6-.4 0-1.3.4-1.8.5-.5 0-1.3.5-2 .4-.5 0-1 .3-1.6.2-.2.2-1.8-.2-1zm1.6.7c-.4.7.3 1-.2 1.6-.5.7.3 1.3-.3 2s.3 1-.2 1.8.2 1.2-.2 1.7c-.5.6.3 1.1-.2 1.8-.6.7.2 1.2-.3 1.8-.4.6.2 1.3-.2 1.8s.3 1.2-.3 2c-.6.6.1 1-.2 1.4.7-.2.4-1.1.7-1.3.2-.2-.1-1.5.3-1.8.4-.4-.3-1.4 0-1.8.7-.8.2-1.3.5-1.9.4-.6-.1-1.3.2-1.7.5-.7-.2-1.3 0-1.8.6-.7 0-1.2.4-1.7.5-.7 0-1.4.1-1.8.3-.3.6-1.9 0-2.1zm2.2.6c-.4 1 .3 1.3 0 2.1-.2.8.3 1.4 0 2.2-.3 1 .4 1.5 0 2.6-.4 1 .3 1.4 0 2.5-.3 1.2.5 2 0 2.8-.6.9.6 1.2 0 2-.2.6 0 1.7.5.3.5-1.3-.3-1.5 0-2 .5-.6 0-2 0-2.9.3-.7-.3-1.8 0-2.6.4-.9-.5-1.8-.1-2.5.3-.7-.2-1.6.2-2.2.3-.6-.3-1.4-.2-1.7.2-.3-.1-1.6-.4-.6zm0 0" transform="matrix(.12216 0 0 .11402 -10.6 1.4)" fill="#fdc300" stroke-width=".1" stroke="#000"/><path d="M221.5 74.4c0-6.3-1-8.5-4.2-8.5-3.3 0-4.2 2.2-4.2 8.5zm0 0" transform="matrix(.12216 0 0 .11402 -10.6 1.4)" fill="#ef072d" stroke-width=".1" stroke="#000"/><path d="M214.3 73.9c-.6.6.1 1-.5 1.8-.6.7 0 1.1-.5 1.8s.2 1-.4 1.7c-.5.7.2 1.2-.5 1.8-.6.6 0 1.2-.5 1.8-.6.7.1 1.2-.5 1.8-.6.6 0 1.2-.5 1.9-.6.6.1 1.4-.5 2-.7.8 0 1.4-.5 2-.5.6 0 1-.4 1.4-.4.4-.5 1-.3 1.2m6.3-19c-.6.8.3 1-.2 1.7-.5.6.2.8-.2 1.6s.3 1-.2 1.6c-.5.7.3 1.3-.3 2s.3 1-.2 1.8.2 1.2-.2 1.7c-.5.6.3 1.1-.3 1.8-.5.7.3 1.2-.2 1.8-.4.6.2 1.3-.2 1.8s.3 1.2-.3 2c-.6.6.1 1-.2 1.4-.3.5-.6 1.1-.3 1.3m4.6-19.8c-.3 1.2.4 2.2 0 3.2s.3 1.3 0 2.1c-.2.8.3 1.4 0 2.2-.3 1 .4 1.5 0 2.6-.4 1 .3 1.4 0 2.5-.3 1.2.6 2 0 2.8-.6.9.5 1.1 0 2-.4 1 .3 1.5 0 2.5m3-20.8c.6.6-.2 1 .5 1.8.6.7 0 1.1.5 1.8s-.2 1 .3 1.7c.6.7 0 1.2.5 1.8.7.6 0 1.2.5 1.8.7.7 0 1.2.6 1.8.6.6-.2 1.2.5 1.9.6.6 0 1.4.5 2 .7.8-.1 1.4.5 2 .5.5 0 1 .4 1.4.4.4.5 1 .3 1.2m-6.3-19c.5.8-.3 1 .2 1.7.5.6-.2.8.2 1.6.4.7-.3 1 .2 1.6.5.7-.3 1.3.3 2s-.3 1 .2 1.8-.2 1.2.2 1.7c.5.6-.3 1.1.2 1.8.6.7-.2 1.2.3 1.8.4.6-.2 1.3.2 1.8s-.3 1.2.3 2c.6.6 0 1 .2 1.4.3.5.6 1.1.3 1.3" transform="matrix(.12216 0 0 .11402 -10.6 1.4)" fill="none" stroke-width=".1" stroke="#000"/><path d="M213 74.4c0-6.3 1.1-8.5 4.3-8.5-1.5 0-2.4 1.2-2.7 2-.3.8-.1.7.2.4.3-.3.2.4 0 .7-.3.4-.6 1.4-.2 1 .4-.2.7 0 .2.7-.5.6-.7 2-.3 1.5.4-.5.5.3.2.7-.2.4-.2.7 0 .6.3-.2.2.6 0 1H213zm7.8-.3c0-5-.6-6.5-1.8-7-.7-.3-.7-.2-.4.3.3.5.3 1 0 .6s-.4-.5-.6-.3l.8 2c.3.6 0 1-.4.3s-.4-.1 0 .5c.5.7.4 3 .4 3.8zm0 0" transform="matrix(.12216 0 0 .11402 -10.6 1.4)" stroke-width=".1" stroke="#000"/><path d="M217.3 75.3c1.3 0 2.7-.2 3.7-.6 1.1-.4 1.2-.8.8-1.3-.3-.4-1-.2-1.5 0-2 .6-4 .6-6 0-.6 0-1.2-.4-1.5 0-.4.5-.4 1 .8 1.3 1 .4 2.4.6 3.7.6zm0 0" transform="matrix(.12216 0 0 .11402 -10.6 1.4)" fill="#ef072d" stroke-width=".1" stroke="#000"/><path d="M778.3 912.6l.6 180c1.2 75 21.2 104 54.8 103 33.7-.9 40.8-58.8 34.8-91.3-6.8-35.2-54-200.7-54-200.7zm0 0" transform="matrix(.00166 -.001 .00101 .00163 15.3 8.3)" fill-rule="evenodd" fill="#b95a1e" stroke-width="6.4" stroke="#000"/><path d="M778.6 913.5l1.4 177.8c0 77.3 18.5 106.3 54.1 103.4 33.2-1.3 41.1-58.1 33.7-91-5.4-32.5-52.3-199.1-52.3-199.1zm0 0" transform="matrix(.0019 -.0004 .0004 .00187 15.6 7.6)" fill-rule="evenodd" fill="#b95a1e" stroke-width="6.4" stroke="#000"/><path d="M779.4 912.4v179.8c0 75.6 20.2 104.2 54.3 104.2 34.2-2 40.3-59.3 34.2-94-6-32.7-52.3-198.2-52.3-198.2zm0 0" transform="matrix(.00194 0 0 .00191 16 7.3)" fill-rule="evenodd" fill="#b95a1e" stroke-width="6.4" stroke="#000"/><path d="M779.1 254.4c158.8 0 178.2-34.8 178.2-34.8s35.7-71.5 16.3-87.8C957.3 113.4 779 113.4 779 113.4zm0 0" transform="matrix(.0012 0 0 .00191 16.5 8.5)" fill-rule="evenodd" fill="#b95a1e" stroke-width="8.1" stroke="#000"/><path d="M779.4 255c106.6 0 124.7-34.7 124.7-34.7s34.2-71.5 18.1-89.9c-18-16.3-142.8-16.3-142.8-16.3zm0 0" transform="matrix(.00194 0 0 .00191 16 8.4)" fill-rule="evenodd" fill="#b95a1e" stroke-width="6.4" stroke="#000"/><path d="M779.4 255.3c88.5 0 142.8-34.8 142.8-34.8s34.2-71.5 16.1-89.9c-16-16.3-158.9-16.3-158.9-16.3zm0 0" transform="matrix(.00194 0 0 .00191 16 8.3)" fill-rule="evenodd" fill="#b95a1e" stroke-width="6.4" stroke="#000"/><path d="M832 112.5s71.2-87.8 196-175.7c123.2-89.9 213.9-157.3 230.1-143 0 18.4-107 106.2-194.4 177.7C974.4 43 867.5 149.3 867.5 149.3zm0 0" transform="matrix(.00241 0 0 .00191 15.5 7.3)" fill-rule="evenodd" fill="#b95a1e" stroke-width="5.7" stroke="#000"/><path d="M832.6 113.8s69.7-53 204.2-124.6C1169.6-74 1356-63.9 1356-45.5c-17.8 16.3-176.7 16.3-283.6 69.4-102 51.1-204.2 124.7-204.2 124.7zm0 0" transform="matrix(.00241 0 0 .00191 15.6 7.4)" fill-rule="evenodd" fill="#b95a1e" stroke-width="5.7" stroke="#000"/><path d="M832.9 114.4s61.6-36.8 204.2-90c141-53 330.5-18.3 330.5 0-17.8 18.5-171.7 8.3-277 34.8-110.2 28.6-222 90-222 90zm0 0" transform="matrix(.00241 0 0 .00191 15.6 7.6)" fill-rule="evenodd" fill="#b95a1e" stroke-width="5.7" stroke="#000"/><path d="M832.6 114s71.3-71.6 222-90c152.3-16.3 277 90 277 106.3-17.8 18.4-160.4-77.7-265.7-63.4-113.4 14.3-197.7 81.8-197.7 81.8zm0 0" transform="matrix(.00241 0 0 .00191 15.6 7.9)" fill-rule="evenodd" fill="#b95a1e" stroke-width="5.7" stroke="#000"/><path d="M779.4 255.9c159-2 159-47 159-47s36.1-69.5 18-87.9c-18-18.4-177-8.1-177-8.1zm0 0" transform="matrix(.00194 0 0 .00191 16 8)" fill-rule="evenodd" fill="#b95a1e" stroke-width="6.4" stroke="#000"/><path d="M779.4 254.6c159 0 177-34.8 177-34.8s36.2-71.5 18.1-87.8c-18.1-18.4-195-18.4-195-18.4zm0 0" transform="matrix(.00194 0 0 .00191 16 8)" fill-rule="evenodd" fill="#b95a1e" stroke-width="6.4" stroke="#000"/><path d="M779.4 255.2c159-2 195.1-34.8 195.1-34.8s36.2-71.5 18.1-89.9c-18.1-16.3-213.2-16.3-213.2-16.3zm0 0" transform="matrix(.00194 0 0 .00191 16 7.8)" fill-rule="evenodd" fill="#b95a1e" stroke-width="6.4" stroke="#000"/><path d="M779.4 255.8c159-2 213.2-36.8 213.2-36.8s18.1-69.4 0-87.8c-18.1-18.4-213.2-18.4-213.2-18.4zm0 0" transform="matrix(.00194 0 0 .00191 16 7.6)" fill-rule="evenodd" fill="#b95a1e" stroke-width="6.4" stroke="#000"/><path d="M832 114.2S947 24.3 947-45c0-71.6-50.3-143-64.8-177.8 29.1 0 94 106.3 94 177.8 0 75.6-108.6 194-108.6 194zm0 0" transform="matrix(.00241 0 0 .00191 15.5 7.1)" fill-rule="evenodd" fill="#b95a1e" stroke-width="5.7" stroke="#000"/><path d="M832 114.2S819 61.1 819-45c0-85.9 30.8-167.6 85.8-231 5 26.6-58.3 124.7-58.3 231 0 77.6 21 194 21 194zm0 0" transform="matrix(.00241 0 0 .00191 15.5 7.1)" fill-rule="evenodd" fill="#b95a1e" stroke-width="5.7" stroke="#000"/><path d="M779.4 254.4c159 0 213.2-34.7 213.2-34.7s0-71.6-18.1-87.9c-18.1-18.4-195-18.4-195-18.4zm0 0" transform="matrix(.00194 0 0 .00191 16 7.4)" fill-rule="evenodd" fill="#b95a1e" stroke-width="6.4" stroke="#000"/><path d="M779.4 254.5c159 0 195.1-34.7 195.1-34.7s0-71.5-18.1-87.9c-18-18.4-177-18.4-177-18.4zm0 0" transform="matrix(.00194 0 0 .00191 16 7.3)" fill-rule="evenodd" fill="#b95a1e" stroke-width="6.4" stroke="#000"/><path d="M319 1319c54.2-122.6 70.3-337.1 70.3-374 0-98-32.2-584.3-34.2-778.4-4-194 122.7-300.3 247.4-300.3 106.6 0 177 69.5 177 175.7h-52.3c0-32.7-12.1-65.4-36.2-87.8a114 114 0 00-88.5-34.8c-106.6 0-189 83.8-195 247.2-8.1 190 22 682.5 18 815.3-4 130.7-52.3 249.2-106.6 337zm0 0" transform="matrix(-.00194 0 0 .00191 19 7.3)" fill-rule="evenodd" fill="#b95a1e" stroke-width="16.1" stroke="#fdc301"/><path d="M778.3 912.6l.6 180c1.2 75 21.2 104 54.8 103 33.7-.9 40.8-58.8 34.8-91.3-6.8-35.2-54-200.7-54-200.7zm0 0" transform="matrix(-.00166 -.001 -.00101 .00163 19.6 8.3)" fill-rule="evenodd" fill="#b95a1e" stroke-width="6.4" stroke="#000"/><path d="M779.4 33.8c124.7 0 177 102.2 177 100.1l-34.2 32.7C902.2 185 779.4 185 781.5 185zm0 0" transform="matrix(.00194 0 0 .00191 16 7.3)" fill-rule="evenodd" fill="#b95a1e" stroke-width="6.4" stroke="#000"/><path d="M778.6 913.5l1.4 177.8c0 77.3 18.5 106.3 54.1 103.4 33.2-1.3 41.1-58.1 33.7-91-5.4-32.5-52.3-199.1-52.3-199.1zm0 0" transform="matrix(-.0019 -.0004 -.0004 .00187 19.2 7.6)" fill-rule="evenodd" fill="#b95a1e" stroke-width="6.4" stroke="#000"/><path d="M779.4 912.4v179.8c0 75.6 20.2 104.2 54.3 104.2 34.2-2 40.3-59.3 34.2-94-6-32.7-52.3-198.2-52.3-198.2zm0 0" transform="matrix(-.00194 0 0 .00191 19 7.3)" fill-rule="evenodd" fill="#b95a1e" stroke-width="6.4" stroke="#000"/><path d="M779.1 254.4c158.8 0 178.2-34.8 178.2-34.8s35.7-71.5 16.3-87.8C957.3 113.4 779 113.4 779 113.4zm0 0" transform="matrix(-.0012 0 0 .00191 18.4 8.5)" fill-rule="evenodd" fill="#b95a1e" stroke-width="8.1" stroke="#000"/><path d="M779.4 255c106.6 0 124.7-34.7 124.7-34.7s34.2-71.5 18.1-89.9c-18-16.3-142.8-16.3-142.8-16.3zm0 0" transform="matrix(-.00194 0 0 .00191 19 8.4)" fill-rule="evenodd" fill="#b95a1e" stroke-width="6.4" stroke="#000"/><path d="M779.4 255.3c88.5 0 142.8-34.8 142.8-34.8s34.2-71.5 16.1-89.9c-16-16.3-158.9-16.3-158.9-16.3zm0 0" transform="matrix(-.00194 0 0 .00191 19 8.3)" fill-rule="evenodd" fill="#b95a1e" stroke-width="6.4" stroke="#000"/><path d="M832 112.5s71.2-87.8 196-175.7c123.2-89.9 213.9-157.3 230.1-143 0 18.4-107 106.2-194.4 177.7C974.4 43 867.5 149.3 867.5 149.3zm0 0" transform="matrix(-.00241 0 0 .00191 19.3 7.3)" fill-rule="evenodd" fill="#b95a1e" stroke-width="5.7" stroke="#000"/><path d="M832.6 113.8s69.7-53 204.2-124.6C1169.6-74 1356-63.9 1356-45.5c-17.8 16.3-176.7 16.3-283.6 69.4-102 51.1-204.2 124.7-204.2 124.7zm0 0" transform="matrix(-.00241 0 0 .00191 19.3 7.4)" fill-rule="evenodd" fill="#b95a1e" stroke-width="5.7" stroke="#000"/><path d="M832.6 114.4s61.6-36.8 204.2-90c142.5-53 330.5-18.3 330.5 0-17.8 18.5-170.1 8.3-277 34.8-110.3 28.6-222 90-222 90zm0 0" transform="matrix(-.00241 0 0 .00191 19.3 7.6)" fill-rule="evenodd" fill="#b95a1e" stroke-width="5.7" stroke="#000"/><path d="M832.9 114s71.3-71.6 222-90c152.3-16.3 277 90 277 106.3-17.7 18.4-160.3-77.7-265.7-63.4-113.4 14.3-197.7 81.8-197.7 81.8zm0 0" transform="matrix(-.00241 0 0 .00191 19.3 7.9)" fill-rule="evenodd" fill="#b95a1e" stroke-width="5.7" stroke="#000"/><path d="M779.4 255.9c159-2 159-47 159-47s36.1-69.5 18-87.9c-18-18.4-177-8.1-177-8.1zm0 0" transform="matrix(-.00194 0 0 .00191 19 8)" fill-rule="evenodd" fill="#b95a1e" stroke-width="6.4" stroke="#000"/><path d="M779.4 254.6c159 0 177-34.8 177-34.8s36.2-71.5 18.1-87.8c-18.1-18.4-195-18.4-195-18.4zm0 0" transform="matrix(-.00194 0 0 .00191 19 8)" fill-rule="evenodd" fill="#b95a1e" stroke-width="6.4" stroke="#000"/><path d="M779.4 255.2c159-2 195.1-34.8 195.1-34.8s36.2-71.5 18.1-89.9c-18.1-16.3-213.2-16.3-213.2-16.3zm0 0" transform="matrix(-.00194 0 0 .00191 19 7.8)" fill-rule="evenodd" fill="#b95a1e" stroke-width="6.4" stroke="#000"/><path d="M779.4 255.8c159-2 213.2-36.8 213.2-36.8s18.1-69.4 0-87.8c-18.1-18.4-213.2-18.4-213.2-18.4zm0 0" transform="matrix(-.00194 0 0 .00191 19 7.6)" fill-rule="evenodd" fill="#b95a1e" stroke-width="6.4" stroke="#000"/><path d="M832 114.2S947 24.3 947-45c0-71.6-50.3-143-64.8-177.8 29.1 0 94 106.3 94 177.8 0 75.6-108.6 194-108.6 194zm0 0" transform="matrix(-.00241 0 0 .00191 19.4 7.1)" fill-rule="evenodd" fill="#b95a1e" stroke-width="5.7" stroke="#000"/><path d="M832 114.2S819 61.1 819-45c0-85.9 30.8-167.6 85.8-231 5 26.6-58.3 124.7-58.3 231 0 77.6 21 194 21 194zm0 0" transform="matrix(-.00241 0 0 .00191 19.4 7.1)" fill-rule="evenodd" fill="#b95a1e" stroke-width="5.7" stroke="#000"/><path d="M779.4 254.4c159 0 213.2-34.7 213.2-34.7s0-71.6-18.1-87.9c-18.1-18.4-195-18.4-195-18.4zm0 0" transform="matrix(-.00194 0 0 .00191 19 7.4)" fill-rule="evenodd" fill="#b95a1e" stroke-width="6.4" stroke="#000"/><path d="M779.4 254.5c159 0 195.1-34.7 195.1-34.7s0-71.5-18.1-87.9c-18-18.4-177-18.4-177-18.4zm0 0" transform="matrix(-.00194 0 0 .00191 19 7.3)" fill-rule="evenodd" fill="#b95a1e" stroke-width="6.4" stroke="#000"/><path d="M319 1319c54.2-122.6 70.3-337.1 70.3-374 0-98-32.2-584.3-34.2-778.4-4-194 122.7-300.3 247.4-300.3 106.6 0 177 69.5 177 175.7h-52.3c0-32.7-12.1-65.4-36.2-87.8a114 114 0 00-88.5-34.8c-106.6 0-189 83.8-195 247.2-8.1 190 22 682.5 18 815.3-4 130.7-52.3 249.2-106.6 337zm0 0" transform="matrix(.00194 0 0 .00191 16 7.3)" fill-rule="evenodd" fill="#b95a1e" stroke-width="16.1" stroke="#fdc301"/><path d="M779.4 33.8c124.7 0 177 102.2 177 100.1l-34.2 32.7C902.2 185 779.4 185 781.5 185zm0 0" transform="matrix(-.00194 0 0 .00191 19 7.3)" fill-rule="evenodd" fill="#b95a1e" stroke-width="6.4" stroke="#000"/></svg>