<svg xmlns="http://www.w3.org/2000/svg" width="20" height="14"><path fill="#e70013" d="M0 0h20v14H0z"/><path d="M13.8 7c0 2-1.7 3.5-3.8 3.5C8 10.5 6.2 9 6.2 7 6.2 5 8 3.5 10 3.5c2.1 0 3.8 1.5 3.8 3.5zm0 0" fill-rule="evenodd" fill="#fff"/><path d="M10 9.3c-1.3 0-2.4-1-2.4-2.3 0-1.3 1-2.3 2.4-2.3.4 0 .8 0 1 .2A2.2 2.2 0 008.7 7c0 .6.3 1.9 2.3 2.1l-1 .2zm0 0" fill-rule="evenodd" fill="#e70013"/><path d="M12.2 8l-1.1-.4-.8.9V7.3l-1-.4 1.1-.3v-1l.7.8 1.2-.3-.7 1zm0 0" fill-rule="evenodd" fill="#e70013"/></svg>