<svg xmlns="http://www.w3.org/2000/svg" width="20" height="14"><g fill-rule="evenodd"><path d="M0 0h28.5v1H0zm0 2.2h28.5v1H0zm0 2.1h28.5v1H0zm0 2.2h28.5v1H0zm0 2.1h28.5v1H0zm0 2.2h28.5v1H0zm0 2.1h28.5V14H0zm0 0" fill="#bd3d44"/><path d="M0 1h28.5v1.2H0zm0 2.2h28.5v1.1H0zm0 2.2h28.5v1H0zm0 2.1h28.5v1.1H0zm0 2.2h28.5v1H0zm0 2.1h28.5V13H0zm0 0" fill="#fff"/><path d="M0 0h11.4v7.5H0zm0 0" fill="#192f5d"/><path d="M1 .3v.3h.4L1 .8l.1.3L1 1l-.2.2V.8L.6.6H1zm1.9 0v.3h.4L3 .8l.1.3L3 1l-.3.2V.8L2.5.6h.3zm1.8 0l.2.3h.3l-.3.2.1.3-.3-.2-.2.2V.8L4.4.6h.3zm2 0v.3h.4l-.3.2.1.3-.3-.2-.2.2V.8L6.3.6h.3zm1.8 0l.2.3H9l-.3.2.1.3-.3-.2-.2.2V.8L8.2.6h.3zm2 0v.3h.4l-.3.2.1.3-.3-.2-.2.2V.8L10 .6h.3zm-8.6.8l.1.3h.3l-.2.2v.3L2 1.7l-.3.2.1-.3-.2-.2h.3zm1.9 0l.1.3h.3l-.2.2v.3l-.2-.2-.3.2.1-.3-.2-.2h.3zm1.9 0l.1.3h.3l-.2.2v.3l-.2-.2-.3.2.1-.3-.2-.2h.3zm1.9 0l.1.3H8l-.2.2v.3l-.2-.2-.3.2.1-.3-.2-.2h.3zm1.9 0l.1.3h.3l-.2.2v.3l-.2-.2-.3.2.1-.3-.2-.2h.3zm-8.6.7l.2.3h.3l-.3.2.1.3-.3-.2-.2.2v-.3l-.2-.2H1zm2 0v.3h.4l-.3.2.1.3-.2-.2-.3.2v-.3l-.2-.2h.3zm1.8 0l.2.3h.3l-.3.2.1.3-.3-.2-.2.2v-.3l-.2-.2h.3zm2 0v.3h.4l-.3.2.1.3-.3-.2-.2.2v-.3l-.2-.2h.3zm1.8 0l.2.3H9l-.3.2.1.3-.3-.2-.2.2v-.3l-.2-.2h.3zm2 0v.3h.4l-.3.2.1.3-.3-.2-.2.2v-.3l-.2-.2h.3zm-8.6.8l.1.3h.3l-.2.2v.3L2 3.2l-.3.2.1-.3-.2-.2h.3zm1.9 0l.1.3h.3L4 3v.3l-.2-.2-.3.2.1-.3-.2-.2h.3zm1.9 0l.1.3h.3L6 3v.3l-.2-.2-.3.2.1-.3-.2-.2h.3zm1.9 0l.1.3H8l-.2.2v.3l-.2-.2-.3.2.1-.3-.2-.2h.3zm1.9 0l.1.3h.3l-.2.2v.3l-.2-.2-.3.2.1-.3-.2-.2h.3zm-8.6.7l.2.3h.3l-.3.2.1.3L1 4l-.2.2v-.3l-.2-.2H1zm2 0v.3h.4l-.3.2.1.3L3 4l-.3.2v-.3l-.2-.2h.3zm1.8 0l.2.3h.3l-.3.2.1.3-.3-.2-.2.2v-.3l-.2-.2h.3zm2 0v.3h.4l-.3.2.1.3-.3-.2-.2.2v-.3l-.2-.2h.3zm1.8 0l.2.3H9l-.3.2.1.3-.3-.2-.2.2v-.3l-.2-.2h.3zm2 0v.3h.4l-.3.2.1.3-.3-.2-.2.2v-.3l-.2-.2h.3zm-8.6.8l.1.3h.3l-.2.2v.3L2 4.7l-.3.2.1-.3-.2-.2h.3zm1.9 0l.1.3h.3l-.2.2v.3l-.2-.2-.3.2.1-.3-.2-.2h.3zm1.9 0l.1.3h.3l-.2.2v.3l-.2-.2-.3.2.1-.3-.2-.2h.3zm1.9 0l.1.3H8l-.2.2v.3l-.2-.2-.3.2.1-.3-.2-.2h.3zm1.9 0l.1.3h.3l-.2.2v.3l-.2-.2-.3.2.1-.3-.2-.2h.3zm-8.6.7l.2.3h.3l-.3.2.1.3-.3-.2-.2.2v-.3l-.2-.2H1zm2 0v.3h.4l-.3.2.1.3-.2-.2-.3.2v-.3l-.2-.2h.3zm1.8 0l.2.3h.3l-.3.2.1.3-.3-.2-.2.2v-.3l-.2-.2h.3zm2 0v.3h.4l-.3.2.1.3-.3-.2-.2.2v-.3l-.2-.2h.3zm1.8 0l.2.3H9l-.3.2.1.3-.3-.2-.2.2v-.3l-.2-.2h.3zm2 0v.3h.4l-.3.2.1.3-.3-.2-.2.2v-.3l-.2-.2h.3zm-8.6.8l.1.3h.3l-.2.2v.3L2 6.2l-.3.2.1-.3-.2-.2h.3zm1.9 0l.1.3h.3l-.2.2v.3l-.2-.2-.3.2.1-.3-.2-.2h.3zm1.9 0l.1.3h.3l-.2.2v.3l-.2-.2-.3.2.1-.3-.2-.2h.3zm1.9 0l.1.3H8l-.2.2v.3l-.2-.2-.3.2.1-.3-.2-.2h.3zm1.9 0l.1.3h.3l-.2.2v.3l-.2-.2-.3.2.1-.3-.2-.2h.3zm-8.6.8l.2.3h.3l-.3.1.1.3L1 7l-.2.2v-.3l-.2-.2H1zm2 0v.3h.4l-.3.1.1.3L3 7l-.3.2v-.3l-.2-.2h.3zm1.8 0l.2.3h.3l-.3.1.1.3-.3-.2-.2.2v-.3l-.2-.2h.3zm2 0v.3h.4l-.3.1.1.3-.3-.2-.2.2v-.3l-.2-.2h.3zm1.8 0l.2.3H9l-.3.1.1.3-.3-.2-.2.2v-.3l-.2-.2h.3zm2 0v.3h.4l-.3.1.1.3-.3-.2-.2.2v-.3l-.2-.2h.3zm0 0" fill="#fff"/></g></svg>