<svg xmlns="http://www.w3.org/2000/svg" width="20" height="14"><path fill="#fff" d="M0 0h20v14H0z"/><path d="M8.3 1.6H20V3H8.3zm0 3H20v1.6H8.3zM0 7.9h20v1.5H0zm0 3h20v1.6H0zm0 0" fill="#0038a8"/><path d="M1.5 9L6 12c-8 13 1 15-6 21 3-7-3-5-3-17" transform="matrix(.08469 .03274 -.03508 .07904 4.2 3.9)" fill="#fcd116" stroke-width=".6" stroke-linecap="square" stroke="#000" stroke-miterlimit="20"/><path d="M0 11c-2 13 4.5 17 0 22" transform="matrix(.08469 .03274 -.03508 .07904 4.2 3.9)" fill="none" stroke-width=".6" stroke="#000" stroke-miterlimit="20"/><path d="M0 0h6L0 33-6 0h6v33" transform="matrix(.09167 0 0 .08556 4.2 3.9)" fill="#fcd116" stroke-width=".6" stroke="#000" stroke-miterlimit="20"/><path d="M1.5 9L6 12c-8 13 1 15-6 21 3-7-3-5-3-17" transform="matrix(.03508 .07904 -.08469 .03274 4.2 3.9)" fill="#fcd116" stroke-width=".6" stroke-linecap="square" stroke="#000" stroke-miterlimit="20"/><path d="M0 11c-2 13 4.5 17 0 22" transform="matrix(.03508 .07904 -.08469 .03274 4.2 3.9)" fill="none" stroke-width=".6" stroke="#000" stroke-miterlimit="20"/><path d="M0 0h6L0 33-6 0h6v33" transform="scale(.09167 .08556) rotate(45 -32.1 77.6)" fill="#fcd116" stroke-width=".6" stroke="#000" stroke-miterlimit="20"/><path d="M1.5 9L6 12c-8 13 1 15-6 21 3-7-3-5-3-17" transform="matrix(-.03508 .07904 -.08469 -.03274 4.2 3.9)" fill="#fcd116" stroke-width=".6" stroke-linecap="square" stroke="#000" stroke-miterlimit="20"/><path d="M0 11c-2 13 4.5 17 0 22" transform="matrix(-.03508 .07904 -.08469 -.03274 4.2 3.9)" fill="none" stroke-width=".6" stroke="#000" stroke-miterlimit="20"/><path d="M0 0h6L0 33-6 0h6v33" transform="matrix(0 .08556 -.09167 0 4.2 3.9)" fill="#fcd116" stroke-width=".6" stroke="#000" stroke-miterlimit="20"/><path d="M1.5 9L6 12c-8 13 1 15-6 21 3-7-3-5-3-17" transform="matrix(-.08469 .03274 -.03508 -.07904 4.2 3.9)" fill="#fcd116" stroke-width=".6" stroke-linecap="square" stroke="#000" stroke-miterlimit="20"/><path d="M0 11c-2 13 4.5 17 0 22" transform="matrix(-.08469 .03274 -.03508 -.07904 4.2 3.9)" fill="none" stroke-width=".6" stroke="#000" stroke-miterlimit="20"/><path d="M0 0h6L0 33-6 0h6v33" transform="matrix(-.06482 .0605 -.06482 -.0605 4.2 3.9)" fill="#fcd116" stroke-width=".6" stroke="#000" stroke-miterlimit="20"/><path d="M1.5 9L6 12c-8 13 1 15-6 21 3-7-3-5-3-17" transform="matrix(-.08469 -.03274 .03508 -.07904 4.2 3.9)" fill="#fcd116" stroke-width=".6" stroke-linecap="square" stroke="#000" stroke-miterlimit="20"/><path d="M0 11c-2 13 4.5 17 0 22" transform="matrix(-.08469 -.03274 .03508 -.07904 4.2 3.9)" fill="none" stroke-width=".6" stroke="#000" stroke-miterlimit="20"/><path d="M0 0h6L0 33-6 0h6v33" transform="matrix(-.09167 0 0 -.08556 4.2 3.9)" fill="#fcd116" stroke-width=".6" stroke="#000" stroke-miterlimit="20"/><path d="M1.5 9L6 12c-8 13 1 15-6 21 3-7-3-5-3-17" transform="matrix(-.03508 -.07904 .08469 -.03274 4.2 3.9)" fill="#fcd116" stroke-width=".6" stroke-linecap="square" stroke="#000" stroke-miterlimit="20"/><path d="M0 11c-2 13 4.5 17 0 22" transform="matrix(-.03508 -.07904 .08469 -.03274 4.2 3.9)" fill="none" stroke-width=".6" stroke="#000" stroke-miterlimit="20"/><path d="M0 0h6L0 33-6 0h6v33" transform="scale(-.09167 -.08556) rotate(45 32.1 -77.6)" fill="#fcd116" stroke-width=".6" stroke="#000" stroke-miterlimit="20"/><path d="M1.5 9L6 12c-8 13 1 15-6 21 3-7-3-5-3-17" transform="matrix(.03508 -.07904 .08469 .03274 4.2 3.9)" fill="#fcd116" stroke-width=".6" stroke-linecap="square" stroke="#000" stroke-miterlimit="20"/><path d="M0 11c-2 13 4.5 17 0 22" transform="matrix(.03508 -.07904 .08469 .03274 4.2 3.9)" fill="none" stroke-width=".6" stroke="#000" stroke-miterlimit="20"/><path d="M0 0h6L0 33-6 0h6v33" transform="matrix(0 -.08556 .09167 0 4.2 3.9)" fill="#fcd116" stroke-width=".6" stroke="#000" stroke-miterlimit="20"/><path d="M1.5 9L6 12c-8 13 1 15-6 21 3-7-3-5-3-17" transform="matrix(.08469 -.03274 .03508 .07904 4.2 3.9)" fill="#fcd116" stroke-width=".6" stroke-linecap="square" stroke="#000" stroke-miterlimit="20"/><path d="M0 11c-2 13 4.5 17 0 22" transform="matrix(.08469 -.03274 .03508 .07904 4.2 3.9)" fill="none" stroke-width=".6" stroke="#000" stroke-miterlimit="20"/><path d="M0 0h6L0 33-6 0h6v33" transform="matrix(.06482 -.0605 .06482 .0605 4.2 3.9)" fill="#fcd116" stroke-width=".6" stroke="#000" stroke-miterlimit="20"/><path d="M11 0a11 11 0 11-22 0 11 11 0 0122 0zm0 0" transform="matrix(.09167 0 0 .08556 4.2 3.9)" fill="#fcd116" stroke-width=".6" stroke="#000" stroke-miterlimit="20"/><path d="M5 3.5h-.7l.2-.1a.7.7 0 01.4.1m-.3 0c.1.1 0 .2 0 .2s-.2 0-.1-.1"/><path d="M4.3 3.7c0-.1.1-.2.3-.2l.3.2-.3-.1h-.3m0 0l.3.1a.3.3 0 00.2 0h-.4"/><path d="M4.7 3.7c.1 0 0-.1 0-.1v.1m-.5.6h.5-.5m.5 0h-.1.1m-.5.2l.5-.2-.5.1m0-.3h.1a.5.5 0 01.2 0l-.2-.2V4h-.1m-.8-.5h.7l-.3-.1a.7.7 0 00-.4.1m.3 0v.2l.2-.1"/><path d="M4 3.7c0-.1-.1-.2-.3-.2l-.2.2.2-.1H4m0 0l-.2.1a.3.3 0 01-.2 0H4"/><path d="M3.7 3.7c-.2 0-.1-.1 0-.1 0 0-.1 0 0 .1m.5.6H4h-.3.5m-.6 0h.1m.5.2c-.3 0-.2 0-.5-.2l.5.1m0-.3H4a.5.5 0 00-.2 0C4 4 4 4 4 3.9V4h.2m0 .5s-.2 0 0 0c.1 0 0 0 0 0"/></svg>