<svg xmlns="http://www.w3.org/2000/svg" width="20" height="14"><path fill="#244aa5" d="M0 0h20v14H0z"/><path d="M8 6.6v-.1h.4v-.1h.2v-.1-.1h-.1V6 6v-.1h.2v-.1h.1v-.1H9.2v-.1h.1v-.1-.1-.1h.1v-.1a.3.3 0 010-.2h-.1v-.1H9v-.1-.1c-.1 0-.1 0 0 0 0 0 0-.1 0 0 0 0 0-.1 0 0h.1l.1-.1h.1l.1-.1v-.1h.1a1 1 0 00.1 0h.2c0-.1 0 0 0 0h.2l.1.1v.1H10v.2h.1l.1.1h.1V5h.5l.1.1h.1c0-.1 0 0 .1 0h.2v.4h.1v.2h.1v-.1h.2V6l.1.1.1.1s0 .1 0 0h.1a.1.1 0 00.1 0h.1v.1h.1v.1H12.7V6.8h-.1V7h-.1V7h.2l.1.1h.5s.1.1 0 .1l.1.1h.2v.1h.4c0-.1 0-.1.1 0l.1.1v.1H14v.1s0 .1 0 0v.1c-.1 0-.1 0 0 0V8l-.1.1h-.1v.1c0 .1 0 .1 0 0l-.1.2h-.1v.1h-.1c-.1.1-.1.1 0 .1V9h-.1V9h-.2-.1-.1V9.3h.1v.1h.1v.2H13s0 .1 0 0H13c0-.1-.1 0-.1 0l-.1-.1h-.2v.2h-.1-.1l-.1.1c-.1.1-.1 0-.1 0v.1l-.1.2V10.5H12h-.1-.1-.1v-.1l-.1-.1V10a.2.2 0 01-.1 0V10a.8.8 0 00-.2-.1h-.1-.1l-.1.1h-.1v.1h-.1l-.1.1h-.1-.1-.1v.1l-.1.1h-.1a.3.3 0 00-.2 0v.1h-.2v.1h-.1V11.3s-.1 0 0 0a.1.1 0 000 .1v.2h-.1c0 .1 0 0 0 0l-.1.1a.6.6 0 01-.2.1s-.1-.1-.1 0H9 9v-.1l-.1-.2s0-.1 0 0l.1-.1V11v-.4h-.2v-.1-.2-.2-.1c-.1 0 0 0 0 0h-.1a1.1 1.1 0 010-.3h-.1v-.1h-.1v-.1a.3.3 0 01-.2 0v-.1h-.1H8v-.1h-.2v-.1h-.4L7.3 9V9v-.1h-.1v-.1-.1-.1c-.1 0-.1 0 0 0L7 8.4v-.1-.1a.5.5 0 00-.2 0v-.1h-.1V8h-.1v-.2-.2-.1h.1v-.1h-.1l-.1-.1h-.2l-.1-.2V7 7a.1.1 0 00.1 0l.2-.1H7a.3.3 0 01.1 0h.2v-.1h.1v-.1l.2-.1H8zm0 0" fill="#d0a650"/><path d="M11 2.1l.5 1.5-1.3-1h1.6l-1.3 1L11 2zm2 .4l.5 1.4L12 3h1.7l-1.3 1zm1.8.6l.5 1.4-1.3-.8h1.6l-1.3.9zM9 2.1l-.5 1.5 1.3-1H8.2l1.3 1L9 2zm-2 .4l-.5 1.4L8 3H6.2l1.3 1zM5.2 3l.5 1.4-1.3-.8H6l-1.3.8zm0 0" fill="#fff"/></svg>