<svg xmlns="http://www.w3.org/2000/svg" width="20" height="14"><path d="M0 0h30.7v14H-.1zm0 0" fill="#006400"/><path d="M0 2h30.7v10H-.1zm0 0" fill="#ffd200"/><path d="M0 4h30.7v6H-.1zm0 0" fill="#d40000"/><path d="M0 6h30.7v2H-.1zm0 0"/><path d="M0 0v420l280-210zm0 0" transform="matrix(.03663 0 0 .03333 0 0)" stroke-width="20" stroke="#000"/><path d="M0 0v14l10.2-7zm0 0" fill="#fff"/><path d="M3.8 3.5l2 5.7L.6 5.6h6.6L1.8 9.2zm0 0" fill="#d40000"/><path d="M3 8.5l.3-.1h1.5v-.6l.2-.4.1-.2.2-.3h.2l-.4-.4-.6-.4-.8-.5-.1-.6-.1-.1v-.1h-.7l-.1.1h.2V5h-.1v.1H3V6.9L3 7l-.1.2v.1l-.1.1v.1l.2.6v.3zm0 0" fill="#fc0"/><path d="M3.2 4.7a.3.3 0 00-.2 0 .4.4 0 01-.2.1l-.1.1V5h.1l.1.2c.2 0 .2 0 .2.5v.5a.8.8 0 000 .5l-.2.2-.2.4v.3l.2.8h.3a5 5 0 011.1 0h.4c.1.1.1.1.1 0A2.3 2.3 0 015.3 7H5.6s-.1-.2-1-.7a15 15 0 00-.9-.7v-.4a2.4 2.4 0 00-.2-.3c0-.1-.1-.2-.3-.2zm0 0c.3 0 .3.1.4.5v.5c-.2 0-.4.1-.5.3v-.5L3 5.1h-.2.2c0-.1 0-.2-.2-.1h-.1c0-.1 0-.2.2-.2a.5.5 0 00.1 0 .3.3 0 01.2 0zm.5 1A31 31 0 015.5 7a39.7 39.7 0 01-2-.6.2.2 0 010-.2c0-.1 0 0 0 0v.3h.4l.3.2c0 .1 0 .3-.3.3a.6.6 0 00-.2 0 2.5 2.5 0 01-.6.4v.1l-.1.2v-.2-.1l-.1.2v-.1a.3.3 0 000-.2l.2-.2a7.1 7.1 0 00.3-.3v-.2a.3.3 0 000-.1V6.8l-.4.3-.2.3v.1a.2.2 0 000-.1l-.1.1v-.1a.4.4 0 000-.1l.3-.4v-.2a.7.7 0 010-.5l.3-.4.4-.2zm.6 1zm0 0zm.1 0zm.1 0zm-.2 0zm0 0h.1v.1zm.3 0v.1zm-.1 0v.1zm.2.1h.2l.3.1V7l-.1.2h-.2a7.2 7.2 0 00-.8 0L3.8 7h.1L4 7h.2l.3-.1v-.1zm-.4 0zm.2 0zm-.3 0zm.2 0zm-.2 0zm0 0h.1V7zm.2 0V7zm0 0h.1V7zm-.7.3c.5 0 1 0 1.3.2a1 1 0 010 .2l-.1.2h-.1a8.5 8.5 0 00-1.7 0v-.2l.2-.1a2.7 2.7 0 00.4-.3zm-1 .5h.1a.3.3 0 00.1 0c.1 0 .2.2.2.6v.2H3l-.2-.6a2 2 0 010-.2zm1.1 0h.1v.1h-.2.1zm.2 0h.2v.1H4zm.3 0h.2v.1h-.1zm.3 0v.1h.2a.2.2 0 010 .1.2.2 0 01-.1 0zm-1 0l-.1.1v.1h-.1v-.1zm0 .1l.1.1h-.2zm.7 0v.1h-.1v-.1zm-.3 0h-.1zm.6 0s.1.1 0 .1h-.1zm-1.3 0l.1.1h-.2a.2.2 0 01.1 0zm-.1 0v.1H3zm1.7 0v.1zm-.8.1a11.8 11.8 0 01.7.1h-.1a6.2 6.2 0 00-1.5 0H4zm-.4.1h.2c-.1.1-.1.1-.2 0zm.2 0H4V8h-.2.1zM4 8h.2c0 .1 0 .1-.1 0zm-.4 0a.2.2 0 01-.1.1h-.1a.4.4 0 00.1 0zm0 0V8h.1-.2zm.7 0V8h-.1zm0 0h.1c.1 0 .1 0 0 .1zm-1 0V8H3h.1zm1.3 0h.1l.1.1h-.1zM3.3 8c.1 0 .1 0 0 0zm1.3 0h-.1zm.2 0v.1zm-1 0l1 .1V8.5h-.2a5.2 5.2 0 00-1.3 0l-.1-.1a.7.7 0 010-.2h.7zm0 0"/><path d="M4.5 7.3l-.2.1c0 .2.2.3.3.2.1-.2 0-.3-.1-.3zm0 0l.1.1c0 .1 0 .2-.2.1v-.2a.1.1 0 01.1 0zm-.7 0l-.2.1c0 .2.2.2.3.1l-.1-.3zm0 0l.1.1c0 .1-.1.2-.2.1-.1 0-.1-.2 0-.2zm-.6-2.5L3 5h.1zm0 0V5zm0 0"/></svg>