<svg xmlns="http://www.w3.org/2000/svg" width="48" height="48"><path d="M0 6v40a2 2 45 002 2h5a2 2 135 002-2V15h1c1.105 0 2.931.008 3.933.454 1.5.669 2.951 2.011 3.644 3.605.437 1.006.423 2.836.423 3.941v23a2 2 45 002 2h5a2 2 135 002-2v-4h6v4a2 2 45 002 2h5a2 2 135 002-2v-4h4a2 2 135 002-2v-4h-6v-9h-9v9h-6V23c0-1.105-.021-2.902-.242-3.982-.85-4.164-4.134-11.864-12.763-12.901C12.9 5.985 11.105 6 10 6z" fill="#d38c2d"/><path d="M0 5v38a2 2 45 002 2h5a2 2 135 002-2V12h1c1.105 0 2.931.008 3.933.454 1.5.669 2.951 2.011 3.644 3.605.437 1.006.423 2.836.423 3.941v23a2 2 45 002 2h5a2 2 135 002-2v-4h6v4a2 2 45 002 2h5a2 2 135 002-2v-4h4a2 2 135 002-2v-2a2 2 45 00-2-2h-4v-7a2 2 45 00-2-2h-5a2 2 135 00-2 2v7h-6V20c0-1.105-.021-2.902-.242-3.982-.85-4.164-4.134-11.864-12.763-12.901C12.9 2.985 11.105 3 10 3H2a2 2 135 00-2 2z" fill="#f9aa40"/><circle cx="39" cy="11" r="9" fill="#a12935"/><circle cx="39" cy="9" r="9" fill="#da4453"/></svg>
