<svg xmlns="http://www.w3.org/2000/svg" width="48" height="48"><path d="m 0,6 v 40 a 2,2 45 0 0 2,2 H 7 A 2,2 135 0 0 9,46 V 15 l 1,0 c 1.104569,0 2.930938,-0.01448 3.946082,0.402844 1.600161,0.65782 2.993226,2.050876 3.651057,3.651034 C 18.014477,20.069041 18,21.895431 18,23 v 23 a 2,2 45 0 0 2,2 h 5 a 2,2 135 0 0 2,-2 l 0,-4 h 6 v 4 a 2,2 45 0 0 2,2 h 5 a 2,2 135 0 0 2,-2 v -4 h 4 a 2,2 135 0 0 2,-2 v -2 a 2,2 45 0 0 -2,-2 h -4 v -9 h -9 v 9 H 27 V 23 C 27,21.895431 26.978806,20.09831 26.75801,19.017735 25.907154,14.853649 22.624241,7.1537611 13.995393,6.1166518 12.899374,5.9849203 11.104569,6 10,6 Z" fill="#d38c2d"/><path d="m 0,5 v 38 a 2,2 45 0 0 2,2 H 7 A 2,2 135 0 0 9,43 V 12 h 1 c 1.104569,0 2.930938,-0.01448 3.946082,0.402844 1.600161,0.65782 2.993226,2.050876 3.651057,3.651034 C 18.014477,17.069041 18,18.895431 18,20 v 23 a 2,2 45 0 0 2,2 h 5 a 2,2 135 0 0 2,-2 l 0,-4 h 6 v 4 a 2,2 45 0 0 2,2 h 5 a 2,2 135 0 0 2,-2 v -4 h 4 a 2,2 135 0 0 2,-2 v -2 a 2,2 45 0 0 -2,-2 h -4 v -7 a 2,2 45 0 0 -2,-2 h -5 a 2,2 135 0 0 -2,2 v 7 H 27 V 20 C 27,18.895431 26.978806,17.09831 26.75801,16.017735 25.907154,11.853649 22.624241,4.1537611 13.995393,3.1166518 12.899374,2.9849203 11.104569,3 10,3 H 2 A 2,2 135 0 0 0,5 Z" fill="#f9aa40"/><circle cx="39" cy="11" r="9" fill="#113768"/><circle cx="39" cy="9" r="9" fill="#3d73b9"/></svg>
