<svg xmlns="http://www.w3.org/2000/svg" width="16" height="16"><path fill="#D38C2D" d="M0 1.668v13.664c0 .371.297.668.668.668h1.664A.665.665 0 0 0 3 15.332V5h.332c.371 0 .977-.004 1.316.133.536.222.997.683 1.22 1.219.136.34.132.945.132 1.316v7.664c0 .371.297.668.668.668h1.664A.665.665 0 0 0 9 15.332V14h2v1.332c0 .371.297.668.668.668h1.664a.665.665 0 0 0 .668-.668V14h1.332a.665.665 0 0 0 .668-.668v-1.664L15.332 11H14V8.668L13.332 8h-1.664L11 8.668V11H9V7.668L3.332 1H.668Zm0 0"/><path fill="#F9AA40" d="M0 1.668v12.664c0 .371.297.668.668.668h1.664A.665.665 0 0 0 3 14.332V4h.332c.371 0 .977-.004 1.316.133.536.222.997.683 1.22 1.219.136.34.132.945.132 1.316v7.664c0 .371.297.668.668.668h1.664A.665.665 0 0 0 9 14.332V13h2v1.332c0 .371.297.668.668.668h1.664a.665.665 0 0 0 .668-.668V13h1.332a.665.665 0 0 0 .668-.668v-.664a.665.665 0 0 0-.668-.668H14V8.668A.665.665 0 0 0 13.332 8h-1.664a.665.665 0 0 0-.668.668V11H9V6.668c0-.371-.008-.969-.082-1.328-.281-1.387-1.375-3.957-4.254-4.3C4.301.995 3.704 1 3.332 1H.668A.665.665 0 0 0 0 1.668Zm0 0"/></svg>