<?xml version="1.0" encoding="UTF-8" standalone="no"?>
<svg
   xmlns:dc="http://purl.org/dc/elements/1.1/"
   xmlns:cc="http://creativecommons.org/ns#"
   xmlns:rdf="http://www.w3.org/1999/02/22-rdf-syntax-ns#"
   xmlns:svg="http://www.w3.org/2000/svg"
   xmlns="http://www.w3.org/2000/svg"
   xmlns:sodipodi="http://sodipodi.sourceforge.net/DTD/sodipodi-0.dtd"
   xmlns:inkscape="http://www.inkscape.org/namespaces/inkscape"
   width="128"
   height="128"
   version="1.1"
   id="svg893"
   sodipodi:docname="source-rounded.svg"
   inkscape:version="1.0.1 (3bc2e813f5, 2020-09-07)">
  <metadata
     id="metadata899">
    <rdf:RDF>
      <cc:Work
         rdf:about="">
        <dc:format>image/svg+xml</dc:format>
        <dc:type
           rdf:resource="http://purl.org/dc/dcmitype/StillImage" />
        <dc:title />
      </cc:Work>
    </rdf:RDF>
  </metadata>
  <defs
     id="defs897">
    <inkscape:path-effect
       effect="fillet_chamfer"
       id="path-effect1464"
       is_visible="true"
       lpeversion="1"
       satellites_param="F,0,0,1,0,0,0,1 @ F,0,0,1,0,2,0,1 @ F,0,0,1,0,2,0,1 @ F,0,0,1,0,0,0,1 @ F,0,0,1,0,2,0,1 @ F,0,0,1,0,2,0,1 @ F,0,0,1,0,2,0,1 @ F,0,0,1,0,2,0,1 @ F,0,0,1,0,0,0,1 @ F,0,0,1,0,0,0,1 @ F,0,0,1,0,2,0,1 @ F,0,0,1,0,2,0,1 @ F,0,0,1,0,0,0,1 @ F,0,0,1,0,2,0,1 @ F,0,0,1,0,0,0,1 @ F,0,0,1,0,0,0,1 @ F,0,0,1,0,0,0,1 @ F,0,0,1,0,0,0,1 @ F,0,0,1,0,0,0,1 @ F,0,0,1,0,0,0,1 @ F,0,0,1,0,2,0,1 @ F,0,0,1,0,2,0,1"
       unit="px"
       method="auto"
       mode="F"
       radius="2"
       chamfer_steps="1"
       flexible="false"
       use_knot_distance="true"
       apply_no_radius="true"
       apply_with_radius="true"
       only_selected="false"
       hide_knots="false" />
    <inkscape:path-effect
       effect="fillet_chamfer"
       id="path-effect1462"
       is_visible="true"
       lpeversion="1"
       satellites_param="F,0,0,1,0,2,0,1 @ F,0,0,1,0,2,0,1 @ F,0,0,1,0,2,0,1 @ F,0,0,1,0,0,0,1 @ F,0,0,1,0,2,0,1 @ F,0,0,1,0,2,0,1 @ F,0,0,1,0,2,0,1 @ F,0,0,1,0,2,0,1 @ F,0,0,1,0,0,0,1 @ F,0,0,1,0,0,0,1 @ F,0,0,1,0,2,0,1 @ F,0,0,1,0,2,0,1 @ F,0,0,1,0,0,0,1 @ F,0,0,1,0,2,0,1 @ F,0,0,1,0,2,0,1 @ F,0,0,1,0,0,0,1 @ F,0,0,1,0,2,0,1 @ F,0,0,1,0,2,0,1 @ F,0,0,1,0,0,0,1 @ F,0,0,1,0,0,0,1 @ F,0,0,1,0,2,0,1 @ F,0,0,1,0,2,0,1"
       unit="px"
       method="auto"
       mode="F"
       radius="2"
       chamfer_steps="1"
       flexible="false"
       use_knot_distance="true"
       apply_no_radius="true"
       apply_with_radius="true"
       only_selected="false"
       hide_knots="false" />
  </defs>
  <sodipodi:namedview
     pagecolor="#ffffff"
     bordercolor="#666666"
     borderopacity="1"
     objecttolerance="10"
     gridtolerance="10"
     guidetolerance="10"
     inkscape:pageopacity="0"
     inkscape:pageshadow="2"
     inkscape:window-width="1920"
     inkscape:window-height="1016"
     id="namedview895"
     showgrid="false"
     inkscape:zoom="6.2031252"
     inkscape:cx="34.089749"
     inkscape:cy="58.934899"
     inkscape:window-x="0"
     inkscape:window-y="0"
     inkscape:window-maximized="1"
     inkscape:current-layer="svg893"
     inkscape:document-rotation="0" />
  <path
     d="m 8,18 v 96 a 2,2 45 0 0 2,2 h 15 a 2,2 135 0 0 2,-2 V 37 h 8 c 1.104569,0 2.910645,-0.02706 3.981797,0.231745 3.674994,0.887939 5.906714,4.156109 6.695162,6.801314 C 45.991418,45.088056 46,46.895431 46,48 v 66 a 2,2 45 0 0 2,2 h 15 a 2,2 135 0 0 2,-2 V 98 h 18 v 16 a 2,2 45 0 0 2,2 h 15 a 2,2 135 0 0 2,-2 l 0,-16 h 16 a 2,2 135 0 0 2,-2 l 0,-16 H 102 V 61 H 83 V 80 H 65 V 48 c 0,-1.104569 0.0077,-2.89773 -0.09728,-3.996876 C 63.834534,32.82361 54.05899,19.271026 39.997647,18.083911 38.897318,17.991016 37.104569,18 36,18 Z"
     fill="#d38c2d"
     id="path889"
     sodipodi:nodetypes="ccccssccccccccccccccssc"
     inkscape:path-effect="#path-effect1464"
     inkscape:original-d="m 8,18 v 98 H 27 V 37 h 10 c 6,0 9,6 9,9 v 70 H 65 V 98 h 18 v 18 h 19 V 98 h 18 V 80 H 102 V 61 H 83 V 80 H 65 V 46 C 65,34 54,18 38,18 Z" />
  <path
     d="m 8,16 v 94 a 2,2 45 0 0 2,2 h 15 a 2,2 135 0 0 2,-2 V 33 h 8 c 1.104569,0 2.910645,-0.02706 3.981797,0.231745 3.674994,0.887939 5.906714,4.156109 6.695162,6.801314 C 45.991418,41.088056 46,42.895431 46,44 v 66 a 2,2 45 0 0 2,2 h 15 a 2,2 135 0 0 2,-2 V 94 h 18 v 16 a 2,2 45 0 0 2,2 h 15 a 2,2 135 0 0 2,-2 l 0,-16 h 16 a 2,2 135 0 0 2,-2 l 0,-14 a 2,2 45 0 0 -2,-2 H 102 V 59 a 2,2 45 0 0 -2,-2 H 85 a 2,2 135 0 0 -2,2 V 76 H 65 V 44 c 0,-1.104569 0.0077,-2.89773 -0.09728,-3.996876 C 63.834534,28.82361 54.05899,15.271026 39.997647,14.083911 38.897318,13.991016 37.104569,14 36,14 H 10 a 2,2 135 0 0 -2,2 z"
     fill="#f9aa40"
     id="path891"
     sodipodi:nodetypes="ccccssccccccccccccccssc"
     inkscape:path-effect="#path-effect1462"
     inkscape:original-d="m 8,14 v 98 H 27 V 33 h 10 c 6,0 9,6 9,9 v 70 H 65 V 94 h 18 v 18 h 19 V 94 h 18 V 76 H 102 V 57 H 83 V 76 H 65 V 42 C 65,30 54,14 38,14 Z" />
</svg>
