<?xml version="1.0" encoding="UTF-8" standalone="no"?>
<svg
   xmlns:dc="http://purl.org/dc/elements/1.1/"
   xmlns:cc="http://creativecommons.org/ns#"
   xmlns:rdf="http://www.w3.org/1999/02/22-rdf-syntax-ns#"
   xmlns:svg="http://www.w3.org/2000/svg"
   xmlns="http://www.w3.org/2000/svg"
   xmlns:sodipodi="http://sodipodi.sourceforge.net/DTD/sodipodi-0.dtd"
   xmlns:inkscape="http://www.inkscape.org/namespaces/inkscape"
   width="128"
   height="128"
   version="1.1"
   id="svg893"
   sodipodi:docname="source-rounded.svg"
   inkscape:version="1.0.1 (3bc2e813f5, 2020-09-07)">
  <metadata
     id="metadata899">
    <rdf:RDF>
      <cc:Work
         rdf:about="">
        <dc:format>image/svg+xml</dc:format>
        <dc:type
           rdf:resource="http://purl.org/dc/dcmitype/StillImage" />
        <dc:title></dc:title>
      </cc:Work>
    </rdf:RDF>
  </metadata>
  <defs
     id="defs897">
    <inkscape:path-effect
       effect="fillet_chamfer"
       id="path-effect833"
       is_visible="true"
       lpeversion="1"
       satellites_param="F,0,0,1,0,0,0,1 @ F,0,0,1,0,3,0,1 @ F,0,0,1,0,3,0,1 @ F,0,0,1,0,0,0,1 @ F,0,0,1,0,3,0,1 @ F,0,0,1,0,3,0,1 @ F,0,0,1,0,3,0,1 @ F,0,0,1,0,3,0,1 @ F,0,0,1,0,0,0,1 @ F,0,0,1,0,0,0,1 @ F,0,0,1,0,3,0,1 @ F,0,0,1,0,3,0,1 @ F,0,0,1,0,0,0,1 @ F,0,0,1,0,3,0,1 @ F,0,0,1,0,0,0,1 @ F,0,0,1,0,0,0,1 @ F,0,0,1,0,0,0,1 @ F,0,0,1,0,0,0,1 @ F,0,0,1,0,0,0,1 @ F,0,0,1,0,0,0,1 @ F,0,0,1,0,3,0,1 @ F,0,0,1,0,3,0,1"
       unit="px"
       method="auto"
       mode="F"
       radius="3"
       chamfer_steps="1"
       flexible="false"
       use_knot_distance="true"
       apply_no_radius="true"
       apply_with_radius="true"
       only_selected="false"
       hide_knots="false" />
    <inkscape:path-effect
       effect="fillet_chamfer"
       id="path-effect831"
       is_visible="true"
       lpeversion="1"
       satellites_param="F,0,0,1,0,3,0,1 @ F,0,0,1,0,3,0,1 @ F,0,0,1,0,3,0,1 @ F,0,0,1,0,0,0,1 @ F,0,0,1,0,3,0,1 @ F,0,0,1,0,3,0,1 @ F,0,0,1,0,3,0,1 @ F,0,0,1,0,3,0,1 @ F,0,0,1,0,0,0,1 @ F,0,0,1,0,0,0,1 @ F,0,0,1,0,3,0,1 @ F,0,0,1,0,3,0,1 @ F,0,0,1,0,0,0,1 @ F,0,0,1,0,3,0,1 @ F,0,0,1,0,3,0,1 @ F,0,0,1,0,0,0,1 @ F,0,0,1,0,3,0,1 @ F,0,0,1,0,3,0,1 @ F,0,0,1,0,0,0,1 @ F,0,0,1,0,0,0,1 @ F,0,0,1,0,3,0,1 @ F,0,0,1,0,3,0,1"
       unit="px"
       method="auto"
       mode="F"
       radius="3"
       chamfer_steps="1"
       flexible="false"
       use_knot_distance="true"
       apply_no_radius="true"
       apply_with_radius="true"
       only_selected="false"
       hide_knots="false" />
  </defs>
  <sodipodi:namedview
     pagecolor="#ffffff"
     bordercolor="#666666"
     borderopacity="1"
     objecttolerance="10"
     gridtolerance="10"
     guidetolerance="10"
     inkscape:pageopacity="0"
     inkscape:pageshadow="2"
     inkscape:window-width="1920"
     inkscape:window-height="1016"
     id="namedview895"
     showgrid="false"
     inkscape:zoom="1.0965679"
     inkscape:cx="-205.20215"
     inkscape:cy="98.699793"
     inkscape:window-x="0"
     inkscape:window-y="0"
     inkscape:window-maximized="1"
     inkscape:current-layer="svg893"
     inkscape:document-rotation="0" />
  <path
     d="m 8,18 v 95 a 3,3 45 0 0 3,3 l 13,0 a 3,3 135 0 0 3,-3 V 37 h 7 c 1.656854,0 4.395425,-0.0563 5.936757,0.526301 2.712315,1.025222 4.514641,3.381181 5.406976,5.564337 C 45.966942,44.615358 46,47.343146 46,49 v 64 a 3,3 45 0 0 3,3 l 13,0 a 3,3 135 0 0 3,-3 V 98 h 18 v 15 a 3,3 45 0 0 3,3 l 13,0 a 3,3 135 0 0 3,-3 V 98 h 15 a 3,3 135 0 0 3,-3 V 80 H 102 V 61 H 83 V 80 H 65 V 49 c 0,-1.656854 0.01456,-4.350287 -0.214139,-5.989946 C 63.292739,32.304904 54.110468,19.861322 40.992013,18.189195 39.349558,17.979842 36.656854,18 35,18 Z"
     fill="#d38c2d"
     id="path889"
     sodipodi:nodetypes="ccccssccccccccccccccssc"
     inkscape:path-effect="#path-effect833"
     inkscape:original-d="m 8,18 v 98 H 27 V 37 h 10 c 6,0 9,6 9,9 v 70 H 65 V 98 h 18 v 18 h 19 V 98 h 18 V 80 H 102 V 61 H 83 V 80 H 65 V 46 C 65,34 54,18 38,18 Z" />
  <path
     d="m 8,17 v 92 a 3,3 45 0 0 3,3 h 13 a 3,3 135 0 0 3,-3 V 33 h 7 c 1.656854,0 4.395425,-0.0563 5.936757,0.526301 2.712315,1.025222 4.514641,3.381181 5.406976,5.564337 C 45.966942,40.615358 46,43.343146 46,45 v 64 a 3,3 45 0 0 3,3 h 13 a 3,3 135 0 0 3,-3 V 94 h 18 v 15 a 3,3 45 0 0 3,3 h 13 a 3,3 135 0 0 3,-3 V 94 h 15 a 3,3 135 0 0 3,-3 V 79 a 3,3 45 0 0 -3,-3 H 102 V 60 A 3,3 45 0 0 99,57 H 86 a 3,3 135 0 0 -3,3 V 76 H 65 V 45 c 0,-1.656854 0.01456,-4.350287 -0.214139,-5.989946 C 63.292739,28.304904 54.110468,15.861322 40.992013,14.189195 39.349558,13.979842 36.656854,14 35,14 H 11 a 3,3 135 0 0 -3,3 z"
     fill="#f9aa40"
     id="path891"
     sodipodi:nodetypes="ccccssccccccccccccccssc"
     inkscape:path-effect="#path-effect831"
     inkscape:original-d="m 8,14 v 98 H 27 V 33 h 10 c 6,0 9,6 9,9 v 70 H 65 V 94 h 18 v 18 h 19 V 94 h 18 V 76 H 102 V 57 H 83 V 76 H 65 V 42 C 65,30 54,14 38,14 Z" />
</svg>
