<?xml version="1.0" encoding="UTF-8"?>
<svg height="16px" viewBox="0 0 16 16" width="16px" xmlns="http://www.w3.org/2000/svg">
    <g fill="#222222">
        <path d="m 2.683594 9.777344 c -1.570313 -0.542969 -2.683594 -2.039063 -2.683594 -3.777344 c 0 -2.199219 1.800781 -4 4 -4 h 3 c 2.199219 0 4 1.800781 4 4 c 0 1.640625 -0.992188 3.070312 -2.421875 3.679688 l -0.785156 -1.839844 c 0.710937 -0.304688 1.207031 -1 1.207031 -1.839844 c 0 -1.125 -0.875 -2 -2 -2 h -3 c -1.125 0 -2 0.875 -2 2 c 0 0.890625 0.558594 1.621094 1.339844 1.890625 z m 0 0"/>
        <path d="m 8 14 c -2.199219 0 -4 -1.800781 -4 -4 c 0 -1.621094 0.96875 -3.03125 2.367188 -3.65625 l 0.816406 1.828125 c -0.699219 0.3125 -1.183594 1 -1.183594 1.828125 c 0 1.125 0.875 2 2 2 h 3 c 1.125 0 2 -0.875 2 -2 c 0 -0.867188 -0.53125 -1.582031 -1.277344 -1.867188 l 0.714844 -1.867187 c 1.503906 0.574219 2.5625 2.039063 2.5625 3.734375 c 0 2.199219 -1.800781 4 -4 4 z m 0 0"/>
    </g>
</svg>
