<?xml version="1.0" encoding="UTF-8"?>
<!--
  SPDX-FileCopyrightText: 2025 Nicotine+ Contributors
  SPDX-License-Identifier: GPL-3.0-or-later
-->
<svg height="16px" viewBox="0 0 16 16" width="16px" xmlns="http://www.w3.org/2000/svg">
    <g fill="#222222">
        <path d="m 3.996094 1 s -0.707032 -0.015625 -1.449219 0.355469 c -0.738281 0.371093 -1.550781 1.3125 -1.550781 2.644531 v 9 h -1.00000025 l -0.00390625 2 h 0.00390625 l 3.00000025 0.011719 v -0.011719 h 13 v -2 h -1 v -9 s 0.011718 -0.707031 -0.355469 -1.445312 c -0.371094 -0.742188 -1.3125 -1.554688 -2.644531 -1.554688 z m 0 2 h 8 c 0.667968 0 0.722656 0.1875 0.855468 0.445312 c 0.128907 0.261719 0.144532 0.554688 0.144532 0.554688 v 9 h -10 v -9 c 0 -0.667969 0.1875 -0.726562 0.445312 -0.855469 c 0.261719 -0.128906 0.554688 -0.144531 0.554688 -0.144531 z m 0 0"/>
        <path d="m 7 5 v 2 h -2 v 2 h 2 v 2 h 2 v -2 h 2 v -2 h -2 v -2 z m 0 0"/>
    </g>
</svg>
