<?xml version="1.0" encoding="UTF-8"?>
<svg height="16px" viewBox="0 0 16 16" width="16px" xmlns="http://www.w3.org/2000/svg">
    <g fill="#222222">
        <path d="m 2 8 c -0.550781 0 -1 0.449219 -1 1 s 0.449219 1 1 1 h 2.585938 l -3.292969 3.292969 c -0.390625 0.390625 -0.390625 1.023437 0 1.414062 s 1.023437 0.390625 1.414062 0 l 3.292969 -3.292969 v 2.585938 c 0 0.550781 0.449219 1 1 1 s 1 -0.449219 1 -1 v -6 z m 0 0"/>
        <path d="m 14 8 c 0.550781 0 1 -0.449219 1 -1 s -0.449219 -1 -1 -1 h -2.585938 l 3.292969 -3.292969 c 0.390625 -0.390625 0.390625 -1.023437 0 -1.414062 s -1.023437 -0.390625 -1.414062 0 l -3.292969 3.292969 v -2.585938 c 0 -0.550781 -0.449219 -1 -1 -1 s -1 0.449219 -1 1 v 6 z m 0 0"/>
    </g>
</svg>
